%TF.GenerationSoftware,KiCad,Pcbnew,9.0.8+dfsg-1*%
%TF.CreationDate,2026-10-02T17:40:25+02:00*%
%TF.ProjectId,v2_adc_4layer_routed_final,76325f61-6463-45f3-946c-617965725f72,rev?*%
%TF.SameCoordinates,Original*%
%TF.FileFunction,Copper,L3,Inr*%
%TF.FilePolarity,Positive*%
%FSLAX46Y46*%
G04 Gerber Fmt 4.6, Leading zero omitted, Abs format (unit mm)*
G04 Created by KiCad (PCBNEW 9.0.8+dfsg-1) date 2026-10-02 17:40:25*
%MOMM*%
%LPD*%
G01*
G04 APERTURE LIST*
%TA.AperFunction,ComponentPad*%
%ADD10R,1.600000X1.600000*%
%TD*%
%TA.AperFunction,ComponentPad*%
%ADD11R,1.000000X1.000000*%
%TD*%
%TA.AperFunction,ViaPad*%
%ADD12C,0.600000*%
%TD*%
G04 APERTURE END LIST*
D10*
%TO.N,SOLAR_IN*%
%TO.C,SOLAR*%
X1730000Y-37000000D03*
%TO.N,GND*%
X4270000Y-37000000D03*
%TD*%
D11*
%TO.N,GND*%
%TO.C,ANT1*%
X44500000Y-25000000D03*
X47500000Y-25000000D03*
%TD*%
D10*
%TO.N,VCAP*%
%TO.C,C_CAP*%
X7500000Y-37000000D03*
%TO.N,GND*%
X12500000Y-37000000D03*
%TD*%
D11*
%TO.N,GND*%
%TO.C,ANT2*%
X44500000Y-30000000D03*
X47500000Y-30000000D03*
%TD*%
D12*
%TO.N,3V3*%
X40450000Y-26100000D03*
X2500000Y-31000000D03*
X9950000Y-18750000D03*
X9500000Y-23050000D03*
X2450000Y-29100000D03*
X16700000Y-8250000D03*
X16400000Y-17000000D03*
%TO.N,GND*%
X4500000Y-32000000D03*
X48700000Y-30000000D03*
X5750000Y-37000000D03*
X8000000Y-19000000D03*
X3750000Y-29100000D03*
X36200000Y-19000000D03*
X48700000Y-25000000D03*
X11550000Y-22000000D03*
X16400000Y-31000000D03*
X11550000Y-20000000D03*
X36200000Y-29000000D03*
X23550000Y-6000000D03*
X44500000Y-31200000D03*
X14000000Y-37000000D03*
X42700000Y-25000000D03*
X36200000Y-17000000D03*
X16400000Y-19000000D03*
X36200000Y-31000000D03*
X44500000Y-26200000D03*
X10000000Y-14000000D03*
X16700000Y-9750000D03*
%TO.N,SPI_SCK*%
X16400000Y-25000000D03*
X10950000Y-16600000D03*
%TO.N,LR2021_RST*%
X36200000Y-25000000D03*
X7400000Y-13200000D03*
%TO.N,LR2021_DIO9*%
X15900000Y-14600000D03*
X12600000Y-14600000D03*
%TO.N,GPS_RX*%
X5150000Y-29100000D03*
X9700000Y-9750000D03*
%TO.N,VCAP*%
X9500000Y-21050000D03*
X9950000Y-17250000D03*
X7050000Y-18250000D03*
X9650000Y-16550000D03*
%TO.N,SOLAR_IN*%
X5000000Y-19100000D03*
%TO.N,RF_SUB_868*%
X46000000Y-26200000D03*
X16550000Y-33000000D03*
%TO.N,VDIV_MID*%
X4500000Y-30000000D03*
X2500000Y-33000000D03*
%TD*%
%TA.AperFunction,Conductor*%
%TO.N,3V3*%
G36*
X49442539Y-520185D02*
G01*
X49488294Y-572989D01*
X49499500Y-624500D01*
X49499500Y-24724051D01*
X49479815Y-24791090D01*
X49427011Y-24836845D01*
X49357853Y-24846789D01*
X49294297Y-24817764D01*
X49263642Y-24775253D01*
X49263641Y-24775254D01*
X49263631Y-24775237D01*
X49260940Y-24771505D01*
X49259577Y-24768215D01*
X49180524Y-24631290D01*
X49180518Y-24631282D01*
X49068717Y-24519481D01*
X49068709Y-24519475D01*
X48931790Y-24440426D01*
X48931786Y-24440424D01*
X48931784Y-24440423D01*
X48779057Y-24399500D01*
X48620943Y-24399500D01*
X48468216Y-24440423D01*
X48468215Y-24440423D01*
X48455542Y-24447740D01*
X48387641Y-24464209D01*
X48321615Y-24441355D01*
X48280112Y-24390436D01*
X48252206Y-24327235D01*
X48172765Y-24247794D01*
X48069992Y-24202415D01*
X48044865Y-24199500D01*
X46955143Y-24199500D01*
X46955117Y-24199502D01*
X46930012Y-24202413D01*
X46930008Y-24202415D01*
X46827235Y-24247793D01*
X46747794Y-24327234D01*
X46702415Y-24430006D01*
X46702415Y-24430008D01*
X46699500Y-24455131D01*
X46699500Y-25544856D01*
X46699502Y-25544882D01*
X46702413Y-25569987D01*
X46702415Y-25569991D01*
X46747793Y-25672764D01*
X46747794Y-25672765D01*
X46827235Y-25752206D01*
X46930009Y-25797585D01*
X46955135Y-25800500D01*
X48044864Y-25800499D01*
X48044879Y-25800497D01*
X48044882Y-25800497D01*
X48069987Y-25797586D01*
X48069988Y-25797585D01*
X48069991Y-25797585D01*
X48172765Y-25752206D01*
X48252206Y-25672765D01*
X48280113Y-25609559D01*
X48325197Y-25556187D01*
X48391983Y-25535659D01*
X48455545Y-25552261D01*
X48468216Y-25559577D01*
X48620943Y-25600500D01*
X48620945Y-25600500D01*
X48779055Y-25600500D01*
X48779057Y-25600500D01*
X48931784Y-25559577D01*
X49068716Y-25480520D01*
X49180520Y-25368716D01*
X49259577Y-25231784D01*
X49259577Y-25231781D01*
X49260938Y-25228498D01*
X49262831Y-25226148D01*
X49263641Y-25224746D01*
X49263859Y-25224872D01*
X49304778Y-25174093D01*
X49371072Y-25152027D01*
X49438771Y-25169305D01*
X49486383Y-25220441D01*
X49499500Y-25275948D01*
X49499500Y-29724051D01*
X49479815Y-29791090D01*
X49427011Y-29836845D01*
X49357853Y-29846789D01*
X49294297Y-29817764D01*
X49263642Y-29775253D01*
X49263641Y-29775254D01*
X49263631Y-29775237D01*
X49260940Y-29771505D01*
X49259577Y-29768215D01*
X49180524Y-29631290D01*
X49180518Y-29631282D01*
X49068717Y-29519481D01*
X49068709Y-29519475D01*
X48931790Y-29440426D01*
X48931786Y-29440424D01*
X48931784Y-29440423D01*
X48779057Y-29399500D01*
X48620943Y-29399500D01*
X48468216Y-29440423D01*
X48468215Y-29440423D01*
X48455542Y-29447740D01*
X48387641Y-29464209D01*
X48321615Y-29441355D01*
X48280112Y-29390436D01*
X48252206Y-29327235D01*
X48172765Y-29247794D01*
X48069992Y-29202415D01*
X48044865Y-29199500D01*
X46955143Y-29199500D01*
X46955117Y-29199502D01*
X46930012Y-29202413D01*
X46930008Y-29202415D01*
X46827235Y-29247793D01*
X46747794Y-29327234D01*
X46702415Y-29430006D01*
X46702415Y-29430008D01*
X46699500Y-29455131D01*
X46699500Y-30544856D01*
X46699502Y-30544882D01*
X46702413Y-30569987D01*
X46702415Y-30569991D01*
X46747793Y-30672764D01*
X46747794Y-30672765D01*
X46827235Y-30752206D01*
X46930009Y-30797585D01*
X46955135Y-30800500D01*
X48044864Y-30800499D01*
X48044879Y-30800497D01*
X48044882Y-30800497D01*
X48069987Y-30797586D01*
X48069988Y-30797585D01*
X48069991Y-30797585D01*
X48172765Y-30752206D01*
X48252206Y-30672765D01*
X48280113Y-30609559D01*
X48325197Y-30556187D01*
X48391983Y-30535659D01*
X48455545Y-30552261D01*
X48468216Y-30559577D01*
X48620943Y-30600500D01*
X48620945Y-30600500D01*
X48779055Y-30600500D01*
X48779057Y-30600500D01*
X48931784Y-30559577D01*
X49068716Y-30480520D01*
X49180520Y-30368716D01*
X49259577Y-30231784D01*
X49259577Y-30231781D01*
X49260938Y-30228498D01*
X49262831Y-30226148D01*
X49263641Y-30224746D01*
X49263859Y-30224872D01*
X49304778Y-30174093D01*
X49371072Y-30152027D01*
X49438771Y-30169305D01*
X49486383Y-30220441D01*
X49499500Y-30275948D01*
X49499500Y-39375500D01*
X49479815Y-39442539D01*
X49427011Y-39488294D01*
X49375500Y-39499500D01*
X624500Y-39499500D01*
X557461Y-39479815D01*
X511706Y-39427011D01*
X500500Y-39375500D01*
X500500Y-38094833D01*
X520185Y-38027794D01*
X572989Y-37982039D01*
X642147Y-37972095D01*
X705703Y-38001120D01*
X712181Y-38007152D01*
X757235Y-38052206D01*
X860009Y-38097585D01*
X885135Y-38100500D01*
X2574864Y-38100499D01*
X2574879Y-38100497D01*
X2574882Y-38100497D01*
X2599987Y-38097586D01*
X2599988Y-38097585D01*
X2599991Y-38097585D01*
X2702765Y-38052206D01*
X2782206Y-37972765D01*
X2827585Y-37869991D01*
X2830500Y-37844865D01*
X2830499Y-36155136D01*
X2830499Y-36155135D01*
X2830499Y-36155131D01*
X3169500Y-36155131D01*
X3169500Y-37844856D01*
X3169502Y-37844882D01*
X3172413Y-37869987D01*
X3172415Y-37869991D01*
X3217793Y-37972764D01*
X3217794Y-37972765D01*
X3297235Y-38052206D01*
X3400009Y-38097585D01*
X3425135Y-38100500D01*
X5114864Y-38100499D01*
X5114879Y-38100497D01*
X5114882Y-38100497D01*
X5139987Y-38097586D01*
X5139988Y-38097585D01*
X5139991Y-38097585D01*
X5242765Y-38052206D01*
X5322206Y-37972765D01*
X5367585Y-37869991D01*
X5370500Y-37844865D01*
X5370499Y-37681595D01*
X5390183Y-37614557D01*
X5442987Y-37568802D01*
X5512145Y-37558858D01*
X5526586Y-37561819D01*
X5670943Y-37600500D01*
X5670945Y-37600500D01*
X5829055Y-37600500D01*
X5829057Y-37600500D01*
X5981784Y-37559577D01*
X6118716Y-37480520D01*
X6187822Y-37411413D01*
X6249141Y-37377931D01*
X6318833Y-37382915D01*
X6374767Y-37424786D01*
X6399184Y-37490250D01*
X6399500Y-37499097D01*
X6399500Y-37844856D01*
X6399502Y-37844882D01*
X6402413Y-37869987D01*
X6402415Y-37869991D01*
X6447793Y-37972764D01*
X6447794Y-37972765D01*
X6527235Y-38052206D01*
X6630009Y-38097585D01*
X6655135Y-38100500D01*
X8344864Y-38100499D01*
X8344879Y-38100497D01*
X8344882Y-38100497D01*
X8369987Y-38097586D01*
X8369988Y-38097585D01*
X8369991Y-38097585D01*
X8472765Y-38052206D01*
X8552206Y-37972765D01*
X8597585Y-37869991D01*
X8600500Y-37844865D01*
X8600499Y-36155136D01*
X8600499Y-36155135D01*
X8600499Y-36155131D01*
X11399500Y-36155131D01*
X11399500Y-37844856D01*
X11399502Y-37844882D01*
X11402413Y-37869987D01*
X11402415Y-37869991D01*
X11447793Y-37972764D01*
X11447794Y-37972765D01*
X11527235Y-38052206D01*
X11630009Y-38097585D01*
X11655135Y-38100500D01*
X13344864Y-38100499D01*
X13344879Y-38100497D01*
X13344882Y-38100497D01*
X13369987Y-38097586D01*
X13369988Y-38097585D01*
X13369991Y-38097585D01*
X13472765Y-38052206D01*
X13552206Y-37972765D01*
X13597585Y-37869991D01*
X13600500Y-37844865D01*
X13600499Y-37675684D01*
X13620183Y-37608646D01*
X13672987Y-37562891D01*
X13742145Y-37552947D01*
X13760246Y-37557913D01*
X13760365Y-37557473D01*
X13768214Y-37559576D01*
X13768216Y-37559577D01*
X13920943Y-37600500D01*
X13920945Y-37600500D01*
X14079055Y-37600500D01*
X14079057Y-37600500D01*
X14231784Y-37559577D01*
X14368716Y-37480520D01*
X14480520Y-37368716D01*
X14559577Y-37231784D01*
X14600500Y-37079057D01*
X14600500Y-36920943D01*
X14559577Y-36768216D01*
X14559573Y-36768209D01*
X14480524Y-36631290D01*
X14480518Y-36631282D01*
X14368717Y-36519481D01*
X14368709Y-36519475D01*
X14231790Y-36440426D01*
X14231786Y-36440424D01*
X14231784Y-36440423D01*
X14079057Y-36399500D01*
X13920943Y-36399500D01*
X13768216Y-36440423D01*
X13768214Y-36440423D01*
X13760365Y-36442527D01*
X13759739Y-36440192D01*
X13702460Y-36446340D01*
X13639986Y-36415053D01*
X13604345Y-36354958D01*
X13600499Y-36324314D01*
X13600499Y-36155143D01*
X13600499Y-36155136D01*
X13600497Y-36155117D01*
X13597586Y-36130012D01*
X13597585Y-36130010D01*
X13597585Y-36130009D01*
X13552206Y-36027235D01*
X13472765Y-35947794D01*
X13472763Y-35947793D01*
X13369992Y-35902415D01*
X13344865Y-35899500D01*
X11655143Y-35899500D01*
X11655117Y-35899502D01*
X11630012Y-35902413D01*
X11630008Y-35902415D01*
X11527235Y-35947793D01*
X11447794Y-36027234D01*
X11402415Y-36130006D01*
X11402415Y-36130008D01*
X11399500Y-36155131D01*
X8600499Y-36155131D01*
X8600499Y-36155130D01*
X8597586Y-36130012D01*
X8597585Y-36130010D01*
X8597585Y-36130009D01*
X8552206Y-36027235D01*
X8472765Y-35947794D01*
X8472763Y-35947793D01*
X8369992Y-35902415D01*
X8344865Y-35899500D01*
X6655143Y-35899500D01*
X6655117Y-35899502D01*
X6630012Y-35902413D01*
X6630008Y-35902415D01*
X6527235Y-35947793D01*
X6447794Y-36027234D01*
X6402415Y-36130006D01*
X6402415Y-36130008D01*
X6399500Y-36155131D01*
X6399500Y-36500902D01*
X6379815Y-36567941D01*
X6327011Y-36613696D01*
X6257853Y-36623640D01*
X6194297Y-36594615D01*
X6187819Y-36588583D01*
X6118717Y-36519481D01*
X6118709Y-36519475D01*
X5981790Y-36440426D01*
X5981786Y-36440424D01*
X5981784Y-36440423D01*
X5829057Y-36399500D01*
X5670943Y-36399500D01*
X5526590Y-36438178D01*
X5456743Y-36436516D01*
X5398880Y-36397354D01*
X5371376Y-36333125D01*
X5370499Y-36318404D01*
X5370499Y-36155143D01*
X5370499Y-36155136D01*
X5370497Y-36155117D01*
X5367586Y-36130012D01*
X5367585Y-36130010D01*
X5367585Y-36130009D01*
X5322206Y-36027235D01*
X5242765Y-35947794D01*
X5242763Y-35947793D01*
X5139992Y-35902415D01*
X5114865Y-35899500D01*
X3425143Y-35899500D01*
X3425117Y-35899502D01*
X3400012Y-35902413D01*
X3400008Y-35902415D01*
X3297235Y-35947793D01*
X3217794Y-36027234D01*
X3172415Y-36130006D01*
X3172415Y-36130008D01*
X3169500Y-36155131D01*
X2830499Y-36155131D01*
X2830499Y-36155130D01*
X2827586Y-36130012D01*
X2827585Y-36130010D01*
X2827585Y-36130009D01*
X2782206Y-36027235D01*
X2702765Y-35947794D01*
X2702763Y-35947793D01*
X2599992Y-35902415D01*
X2574865Y-35899500D01*
X885143Y-35899500D01*
X885117Y-35899502D01*
X860012Y-35902413D01*
X860008Y-35902415D01*
X757235Y-35947793D01*
X757234Y-35947794D01*
X712181Y-35992848D01*
X650858Y-36026333D01*
X581166Y-36021349D01*
X525233Y-35979477D01*
X500816Y-35914013D01*
X500500Y-35905167D01*
X500500Y-32920943D01*
X1899500Y-32920943D01*
X1899500Y-33079056D01*
X1940423Y-33231783D01*
X1940426Y-33231790D01*
X2019475Y-33368709D01*
X2019479Y-33368714D01*
X2019480Y-33368716D01*
X2131284Y-33480520D01*
X2131286Y-33480521D01*
X2131290Y-33480524D01*
X2268209Y-33559573D01*
X2268216Y-33559577D01*
X2420943Y-33600500D01*
X2420945Y-33600500D01*
X2579055Y-33600500D01*
X2579057Y-33600500D01*
X2731784Y-33559577D01*
X2868716Y-33480520D01*
X2980520Y-33368716D01*
X3059577Y-33231784D01*
X3100500Y-33079057D01*
X3100500Y-32920943D01*
X15949500Y-32920943D01*
X15949500Y-33079056D01*
X15990423Y-33231783D01*
X15990426Y-33231790D01*
X16069475Y-33368709D01*
X16069479Y-33368714D01*
X16069480Y-33368716D01*
X16181284Y-33480520D01*
X16181286Y-33480521D01*
X16181290Y-33480524D01*
X16318209Y-33559573D01*
X16318216Y-33559577D01*
X16470943Y-33600500D01*
X16470945Y-33600500D01*
X16629055Y-33600500D01*
X16629057Y-33600500D01*
X16781784Y-33559577D01*
X16918716Y-33480520D01*
X17030520Y-33368716D01*
X17109577Y-33231784D01*
X17150500Y-33079057D01*
X17150500Y-32920943D01*
X17109577Y-32768216D01*
X17109573Y-32768209D01*
X17030524Y-32631290D01*
X17030518Y-32631282D01*
X16918717Y-32519481D01*
X16918709Y-32519475D01*
X16781790Y-32440426D01*
X16781786Y-32440424D01*
X16781784Y-32440423D01*
X16629057Y-32399500D01*
X16470943Y-32399500D01*
X16318216Y-32440423D01*
X16318209Y-32440426D01*
X16181290Y-32519475D01*
X16181282Y-32519481D01*
X16069481Y-32631282D01*
X16069475Y-32631290D01*
X15990426Y-32768209D01*
X15990423Y-32768216D01*
X15949500Y-32920943D01*
X3100500Y-32920943D01*
X3059577Y-32768216D01*
X3059573Y-32768209D01*
X2980524Y-32631290D01*
X2980518Y-32631282D01*
X2868717Y-32519481D01*
X2868709Y-32519475D01*
X2731790Y-32440426D01*
X2731786Y-32440424D01*
X2731784Y-32440423D01*
X2579057Y-32399500D01*
X2420943Y-32399500D01*
X2268216Y-32440423D01*
X2268209Y-32440426D01*
X2131290Y-32519475D01*
X2131282Y-32519481D01*
X2019481Y-32631282D01*
X2019475Y-32631290D01*
X1940426Y-32768209D01*
X1940423Y-32768216D01*
X1899500Y-32920943D01*
X500500Y-32920943D01*
X500500Y-31920943D01*
X3899500Y-31920943D01*
X3899500Y-32079056D01*
X3940423Y-32231783D01*
X3940426Y-32231790D01*
X4019475Y-32368709D01*
X4019479Y-32368714D01*
X4019480Y-32368716D01*
X4131284Y-32480520D01*
X4131286Y-32480521D01*
X4131290Y-32480524D01*
X4198765Y-32519480D01*
X4268216Y-32559577D01*
X4420943Y-32600500D01*
X4420945Y-32600500D01*
X4579055Y-32600500D01*
X4579057Y-32600500D01*
X4731784Y-32559577D01*
X4868716Y-32480520D01*
X4980520Y-32368716D01*
X5059577Y-32231784D01*
X5100500Y-32079057D01*
X5100500Y-31920943D01*
X5059577Y-31768216D01*
X5054587Y-31759573D01*
X4980524Y-31631290D01*
X4980518Y-31631282D01*
X4868717Y-31519481D01*
X4868709Y-31519475D01*
X4731790Y-31440426D01*
X4731786Y-31440424D01*
X4731784Y-31440423D01*
X4579057Y-31399500D01*
X4420943Y-31399500D01*
X4268216Y-31440423D01*
X4268209Y-31440426D01*
X4131290Y-31519475D01*
X4131282Y-31519481D01*
X4019481Y-31631282D01*
X4019475Y-31631290D01*
X3940426Y-31768209D01*
X3940423Y-31768216D01*
X3899500Y-31920943D01*
X500500Y-31920943D01*
X500500Y-30920943D01*
X15799500Y-30920943D01*
X15799500Y-31079057D01*
X15810724Y-31120943D01*
X15840423Y-31231783D01*
X15840426Y-31231790D01*
X15919475Y-31368709D01*
X15919479Y-31368714D01*
X15919480Y-31368716D01*
X16031284Y-31480520D01*
X16031286Y-31480521D01*
X16031290Y-31480524D01*
X16098765Y-31519480D01*
X16168216Y-31559577D01*
X16320943Y-31600500D01*
X16320945Y-31600500D01*
X16479055Y-31600500D01*
X16479057Y-31600500D01*
X16631784Y-31559577D01*
X16768716Y-31480520D01*
X16880520Y-31368716D01*
X16959577Y-31231784D01*
X17000500Y-31079057D01*
X17000500Y-30920943D01*
X35599500Y-30920943D01*
X35599500Y-31079057D01*
X35610724Y-31120943D01*
X35640423Y-31231783D01*
X35640426Y-31231790D01*
X35719475Y-31368709D01*
X35719479Y-31368714D01*
X35719480Y-31368716D01*
X35831284Y-31480520D01*
X35831286Y-31480521D01*
X35831290Y-31480524D01*
X35898765Y-31519480D01*
X35968216Y-31559577D01*
X36120943Y-31600500D01*
X36120945Y-31600500D01*
X36279055Y-31600500D01*
X36279057Y-31600500D01*
X36431784Y-31559577D01*
X36568716Y-31480520D01*
X36680520Y-31368716D01*
X36759577Y-31231784D01*
X36800500Y-31079057D01*
X36800500Y-30920943D01*
X36759577Y-30768216D01*
X36750333Y-30752204D01*
X36680524Y-30631290D01*
X36680518Y-30631282D01*
X36568717Y-30519481D01*
X36568709Y-30519475D01*
X36431790Y-30440426D01*
X36431786Y-30440424D01*
X36431784Y-30440423D01*
X36279057Y-30399500D01*
X36120943Y-30399500D01*
X35968216Y-30440423D01*
X35968209Y-30440426D01*
X35831290Y-30519475D01*
X35831282Y-30519481D01*
X35719481Y-30631282D01*
X35719475Y-30631290D01*
X35640426Y-30768209D01*
X35640423Y-30768216D01*
X35599500Y-30920943D01*
X17000500Y-30920943D01*
X16959577Y-30768216D01*
X16950333Y-30752204D01*
X16880524Y-30631290D01*
X16880518Y-30631282D01*
X16768717Y-30519481D01*
X16768709Y-30519475D01*
X16631790Y-30440426D01*
X16631786Y-30440424D01*
X16631784Y-30440423D01*
X16479057Y-30399500D01*
X16320943Y-30399500D01*
X16168216Y-30440423D01*
X16168209Y-30440426D01*
X16031290Y-30519475D01*
X16031282Y-30519481D01*
X15919481Y-30631282D01*
X15919475Y-30631290D01*
X15840426Y-30768209D01*
X15840423Y-30768216D01*
X15799500Y-30920943D01*
X500500Y-30920943D01*
X500500Y-29020943D01*
X3149500Y-29020943D01*
X3149500Y-29179056D01*
X3190423Y-29331783D01*
X3190426Y-29331790D01*
X3269475Y-29468709D01*
X3269479Y-29468714D01*
X3269480Y-29468716D01*
X3381284Y-29580520D01*
X3381286Y-29580521D01*
X3381290Y-29580524D01*
X3469221Y-29631290D01*
X3518216Y-29659577D01*
X3670943Y-29700500D01*
X3670945Y-29700500D01*
X3796968Y-29700500D01*
X3864007Y-29720185D01*
X3909762Y-29772989D01*
X3919706Y-29842147D01*
X3916745Y-29856581D01*
X3899500Y-29920943D01*
X3899500Y-29920945D01*
X3899500Y-30079056D01*
X3940423Y-30231783D01*
X3940426Y-30231790D01*
X4019475Y-30368709D01*
X4019479Y-30368714D01*
X4019480Y-30368716D01*
X4131284Y-30480520D01*
X4131286Y-30480521D01*
X4131290Y-30480524D01*
X4198765Y-30519480D01*
X4268216Y-30559577D01*
X4420943Y-30600500D01*
X4420945Y-30600500D01*
X4579055Y-30600500D01*
X4579057Y-30600500D01*
X4731784Y-30559577D01*
X4868716Y-30480520D01*
X4980520Y-30368716D01*
X5059577Y-30231784D01*
X5100500Y-30079057D01*
X5100500Y-29920943D01*
X5083257Y-29856591D01*
X5084920Y-29786744D01*
X5124082Y-29728881D01*
X5188311Y-29701377D01*
X5203032Y-29700500D01*
X5229055Y-29700500D01*
X5229057Y-29700500D01*
X5381784Y-29659577D01*
X5518716Y-29580520D01*
X5630520Y-29468716D01*
X5709577Y-29331784D01*
X5750500Y-29179057D01*
X5750500Y-29020943D01*
X5723705Y-28920943D01*
X35599500Y-28920943D01*
X35599500Y-29079057D01*
X35626295Y-29179055D01*
X35640423Y-29231783D01*
X35640426Y-29231790D01*
X35719475Y-29368709D01*
X35719479Y-29368714D01*
X35719480Y-29368716D01*
X35831284Y-29480520D01*
X35831286Y-29480521D01*
X35831290Y-29480524D01*
X35898765Y-29519480D01*
X35968216Y-29559577D01*
X36120943Y-29600500D01*
X36120945Y-29600500D01*
X36279055Y-29600500D01*
X36279057Y-29600500D01*
X36431784Y-29559577D01*
X36568716Y-29480520D01*
X36594105Y-29455131D01*
X43699500Y-29455131D01*
X43699500Y-30544856D01*
X43699502Y-30544882D01*
X43702413Y-30569987D01*
X43702415Y-30569991D01*
X43747793Y-30672764D01*
X43827235Y-30752206D01*
X43890436Y-30780112D01*
X43943812Y-30825197D01*
X43964340Y-30891984D01*
X43947740Y-30955542D01*
X43940423Y-30968215D01*
X43940423Y-30968216D01*
X43899500Y-31120943D01*
X43899500Y-31279057D01*
X43923525Y-31368717D01*
X43940423Y-31431783D01*
X43940426Y-31431790D01*
X44019475Y-31568709D01*
X44019479Y-31568714D01*
X44019480Y-31568716D01*
X44131284Y-31680520D01*
X44131286Y-31680521D01*
X44131290Y-31680524D01*
X44268209Y-31759573D01*
X44268216Y-31759577D01*
X44420943Y-31800500D01*
X44420945Y-31800500D01*
X44579055Y-31800500D01*
X44579057Y-31800500D01*
X44731784Y-31759577D01*
X44868716Y-31680520D01*
X44980520Y-31568716D01*
X45059577Y-31431784D01*
X45100500Y-31279057D01*
X45100500Y-31120943D01*
X45059577Y-30968216D01*
X45052261Y-30955545D01*
X45035789Y-30887646D01*
X45058642Y-30821619D01*
X45109559Y-30780113D01*
X45172765Y-30752206D01*
X45252206Y-30672765D01*
X45297585Y-30569991D01*
X45300500Y-30544865D01*
X45300499Y-29455136D01*
X45300497Y-29455117D01*
X45297586Y-29430012D01*
X45297585Y-29430010D01*
X45297585Y-29430009D01*
X45252206Y-29327235D01*
X45172765Y-29247794D01*
X45172763Y-29247793D01*
X45069992Y-29202415D01*
X45044865Y-29199500D01*
X43955143Y-29199500D01*
X43955117Y-29199502D01*
X43930012Y-29202413D01*
X43930008Y-29202415D01*
X43827235Y-29247793D01*
X43747794Y-29327234D01*
X43702415Y-29430006D01*
X43702415Y-29430008D01*
X43699500Y-29455131D01*
X36594105Y-29455131D01*
X36680520Y-29368716D01*
X36759577Y-29231784D01*
X36800500Y-29079057D01*
X36800500Y-28920943D01*
X36759577Y-28768216D01*
X36738258Y-28731290D01*
X36680524Y-28631290D01*
X36680518Y-28631282D01*
X36568717Y-28519481D01*
X36568709Y-28519475D01*
X36431790Y-28440426D01*
X36431786Y-28440424D01*
X36431784Y-28440423D01*
X36279057Y-28399500D01*
X36120943Y-28399500D01*
X35968216Y-28440423D01*
X35968209Y-28440426D01*
X35831290Y-28519475D01*
X35831282Y-28519481D01*
X35719481Y-28631282D01*
X35719475Y-28631290D01*
X35640426Y-28768209D01*
X35640423Y-28768216D01*
X35599500Y-28920943D01*
X5723705Y-28920943D01*
X5709577Y-28868216D01*
X5651843Y-28768216D01*
X5630524Y-28731290D01*
X5630518Y-28731282D01*
X5518717Y-28619481D01*
X5518709Y-28619475D01*
X5381790Y-28540426D01*
X5381786Y-28540424D01*
X5381784Y-28540423D01*
X5229057Y-28499500D01*
X5070943Y-28499500D01*
X4918216Y-28540423D01*
X4918209Y-28540426D01*
X4781290Y-28619475D01*
X4781282Y-28619481D01*
X4669481Y-28731282D01*
X4669475Y-28731290D01*
X4590426Y-28868209D01*
X4590423Y-28868214D01*
X4578526Y-28912615D01*
X4569874Y-28944909D01*
X4569775Y-28945277D01*
X4533410Y-29004937D01*
X4470563Y-29035466D01*
X4401187Y-29027171D01*
X4347309Y-28982686D01*
X4330225Y-28945277D01*
X4330127Y-28944910D01*
X4309577Y-28868216D01*
X4251843Y-28768216D01*
X4230524Y-28731290D01*
X4230518Y-28731282D01*
X4118717Y-28619481D01*
X4118709Y-28619475D01*
X3981790Y-28540426D01*
X3981786Y-28540424D01*
X3981784Y-28540423D01*
X3829057Y-28499500D01*
X3670943Y-28499500D01*
X3518216Y-28540423D01*
X3518209Y-28540426D01*
X3381290Y-28619475D01*
X3381282Y-28619481D01*
X3269481Y-28731282D01*
X3269475Y-28731290D01*
X3190426Y-28868209D01*
X3190423Y-28868216D01*
X3149500Y-29020943D01*
X500500Y-29020943D01*
X500500Y-24920943D01*
X15799500Y-24920943D01*
X15799500Y-25079056D01*
X15840423Y-25231783D01*
X15840426Y-25231790D01*
X15919475Y-25368709D01*
X15919479Y-25368714D01*
X15919480Y-25368716D01*
X16031284Y-25480520D01*
X16031286Y-25480521D01*
X16031290Y-25480524D01*
X16126788Y-25535659D01*
X16168216Y-25559577D01*
X16320943Y-25600500D01*
X16320945Y-25600500D01*
X16479055Y-25600500D01*
X16479057Y-25600500D01*
X16631784Y-25559577D01*
X16768716Y-25480520D01*
X16880520Y-25368716D01*
X16959577Y-25231784D01*
X17000500Y-25079057D01*
X17000500Y-24920943D01*
X35599500Y-24920943D01*
X35599500Y-25079056D01*
X35640423Y-25231783D01*
X35640426Y-25231790D01*
X35719475Y-25368709D01*
X35719479Y-25368714D01*
X35719480Y-25368716D01*
X35831284Y-25480520D01*
X35831286Y-25480521D01*
X35831290Y-25480524D01*
X35926788Y-25535659D01*
X35968216Y-25559577D01*
X36120943Y-25600500D01*
X36120945Y-25600500D01*
X36279055Y-25600500D01*
X36279057Y-25600500D01*
X36431784Y-25559577D01*
X36568716Y-25480520D01*
X36680520Y-25368716D01*
X36759577Y-25231784D01*
X36800500Y-25079057D01*
X36800500Y-24920943D01*
X42099500Y-24920943D01*
X42099500Y-25079056D01*
X42140423Y-25231783D01*
X42140426Y-25231790D01*
X42219475Y-25368709D01*
X42219479Y-25368714D01*
X42219480Y-25368716D01*
X42331284Y-25480520D01*
X42331286Y-25480521D01*
X42331290Y-25480524D01*
X42426788Y-25535659D01*
X42468216Y-25559577D01*
X42620943Y-25600500D01*
X42620945Y-25600500D01*
X42779055Y-25600500D01*
X42779057Y-25600500D01*
X42931784Y-25559577D01*
X43068716Y-25480520D01*
X43180520Y-25368716D01*
X43259577Y-25231784D01*
X43300500Y-25079057D01*
X43300500Y-24920943D01*
X43259577Y-24768216D01*
X43234079Y-24724051D01*
X43180524Y-24631290D01*
X43180518Y-24631282D01*
X43068717Y-24519481D01*
X43068709Y-24519475D01*
X42957260Y-24455131D01*
X43699500Y-24455131D01*
X43699500Y-25544856D01*
X43699502Y-25544882D01*
X43702413Y-25569987D01*
X43702415Y-25569991D01*
X43747793Y-25672764D01*
X43827235Y-25752206D01*
X43890436Y-25780112D01*
X43943812Y-25825197D01*
X43964340Y-25891984D01*
X43947740Y-25955542D01*
X43940423Y-25968215D01*
X43940423Y-25968216D01*
X43899500Y-26120943D01*
X43899500Y-26279056D01*
X43940423Y-26431783D01*
X43940426Y-26431790D01*
X44019475Y-26568709D01*
X44019479Y-26568714D01*
X44019480Y-26568716D01*
X44131284Y-26680520D01*
X44131286Y-26680521D01*
X44131290Y-26680524D01*
X44268209Y-26759573D01*
X44268216Y-26759577D01*
X44420943Y-26800500D01*
X44420945Y-26800500D01*
X44579055Y-26800500D01*
X44579057Y-26800500D01*
X44731784Y-26759577D01*
X44868716Y-26680520D01*
X44980520Y-26568716D01*
X45059577Y-26431784D01*
X45100500Y-26279057D01*
X45100500Y-26120943D01*
X45399500Y-26120943D01*
X45399500Y-26279056D01*
X45440423Y-26431783D01*
X45440426Y-26431790D01*
X45519475Y-26568709D01*
X45519479Y-26568714D01*
X45519480Y-26568716D01*
X45631284Y-26680520D01*
X45631286Y-26680521D01*
X45631290Y-26680524D01*
X45768209Y-26759573D01*
X45768216Y-26759577D01*
X45920943Y-26800500D01*
X45920945Y-26800500D01*
X46079055Y-26800500D01*
X46079057Y-26800500D01*
X46231784Y-26759577D01*
X46368716Y-26680520D01*
X46480520Y-26568716D01*
X46559577Y-26431784D01*
X46600500Y-26279057D01*
X46600500Y-26120943D01*
X46559577Y-25968216D01*
X46515565Y-25891984D01*
X46480524Y-25831290D01*
X46480518Y-25831282D01*
X46368717Y-25719481D01*
X46368709Y-25719475D01*
X46231790Y-25640426D01*
X46231786Y-25640424D01*
X46231784Y-25640423D01*
X46079057Y-25599500D01*
X45920943Y-25599500D01*
X45768216Y-25640423D01*
X45768209Y-25640426D01*
X45631290Y-25719475D01*
X45631282Y-25719481D01*
X45519481Y-25831282D01*
X45519475Y-25831290D01*
X45440426Y-25968209D01*
X45440423Y-25968216D01*
X45399500Y-26120943D01*
X45100500Y-26120943D01*
X45059577Y-25968216D01*
X45052261Y-25955545D01*
X45035789Y-25887646D01*
X45058642Y-25821619D01*
X45109559Y-25780113D01*
X45172765Y-25752206D01*
X45252206Y-25672765D01*
X45297585Y-25569991D01*
X45300500Y-25544865D01*
X45300499Y-24455136D01*
X45300497Y-24455117D01*
X45297586Y-24430012D01*
X45297585Y-24430010D01*
X45297585Y-24430009D01*
X45252206Y-24327235D01*
X45172765Y-24247794D01*
X45172763Y-24247793D01*
X45069992Y-24202415D01*
X45044865Y-24199500D01*
X43955143Y-24199500D01*
X43955117Y-24199502D01*
X43930012Y-24202413D01*
X43930008Y-24202415D01*
X43827235Y-24247793D01*
X43747794Y-24327234D01*
X43702415Y-24430006D01*
X43702415Y-24430008D01*
X43699500Y-24455131D01*
X42957260Y-24455131D01*
X42931790Y-24440426D01*
X42931786Y-24440424D01*
X42931784Y-24440423D01*
X42779057Y-24399500D01*
X42620943Y-24399500D01*
X42468216Y-24440423D01*
X42468209Y-24440426D01*
X42331290Y-24519475D01*
X42331282Y-24519481D01*
X42219481Y-24631282D01*
X42219475Y-24631290D01*
X42140426Y-24768209D01*
X42140423Y-24768216D01*
X42099500Y-24920943D01*
X36800500Y-24920943D01*
X36759577Y-24768216D01*
X36734079Y-24724051D01*
X36680524Y-24631290D01*
X36680518Y-24631282D01*
X36568717Y-24519481D01*
X36568709Y-24519475D01*
X36431790Y-24440426D01*
X36431786Y-24440424D01*
X36431784Y-24440423D01*
X36279057Y-24399500D01*
X36120943Y-24399500D01*
X35968216Y-24440423D01*
X35968209Y-24440426D01*
X35831290Y-24519475D01*
X35831282Y-24519481D01*
X35719481Y-24631282D01*
X35719475Y-24631290D01*
X35640426Y-24768209D01*
X35640423Y-24768216D01*
X35599500Y-24920943D01*
X17000500Y-24920943D01*
X16959577Y-24768216D01*
X16934079Y-24724051D01*
X16880524Y-24631290D01*
X16880518Y-24631282D01*
X16768717Y-24519481D01*
X16768709Y-24519475D01*
X16631790Y-24440426D01*
X16631786Y-24440424D01*
X16631784Y-24440423D01*
X16479057Y-24399500D01*
X16320943Y-24399500D01*
X16168216Y-24440423D01*
X16168209Y-24440426D01*
X16031290Y-24519475D01*
X16031282Y-24519481D01*
X15919481Y-24631282D01*
X15919475Y-24631290D01*
X15840426Y-24768209D01*
X15840423Y-24768216D01*
X15799500Y-24920943D01*
X500500Y-24920943D01*
X500500Y-21920943D01*
X10949500Y-21920943D01*
X10949500Y-22079056D01*
X10990423Y-22231783D01*
X10990426Y-22231790D01*
X11069475Y-22368709D01*
X11069479Y-22368714D01*
X11069480Y-22368716D01*
X11181284Y-22480520D01*
X11181286Y-22480521D01*
X11181290Y-22480524D01*
X11318209Y-22559573D01*
X11318216Y-22559577D01*
X11470943Y-22600500D01*
X11470945Y-22600500D01*
X11629055Y-22600500D01*
X11629057Y-22600500D01*
X11781784Y-22559577D01*
X11918716Y-22480520D01*
X12030520Y-22368716D01*
X12109577Y-22231784D01*
X12150500Y-22079057D01*
X12150500Y-21920943D01*
X12109577Y-21768216D01*
X12109573Y-21768209D01*
X12030524Y-21631290D01*
X12030518Y-21631282D01*
X11918717Y-21519481D01*
X11918709Y-21519475D01*
X11781790Y-21440426D01*
X11781786Y-21440424D01*
X11781784Y-21440423D01*
X11629057Y-21399500D01*
X11470943Y-21399500D01*
X11318216Y-21440423D01*
X11318209Y-21440426D01*
X11181290Y-21519475D01*
X11181282Y-21519481D01*
X11069481Y-21631282D01*
X11069475Y-21631290D01*
X10990426Y-21768209D01*
X10990423Y-21768216D01*
X10949500Y-21920943D01*
X500500Y-21920943D01*
X500500Y-20970943D01*
X8899500Y-20970943D01*
X8899500Y-21129056D01*
X8940423Y-21281783D01*
X8940426Y-21281790D01*
X9019475Y-21418709D01*
X9019479Y-21418714D01*
X9019480Y-21418716D01*
X9131284Y-21530520D01*
X9131286Y-21530521D01*
X9131290Y-21530524D01*
X9268209Y-21609573D01*
X9268216Y-21609577D01*
X9420943Y-21650500D01*
X9420945Y-21650500D01*
X9579055Y-21650500D01*
X9579057Y-21650500D01*
X9731784Y-21609577D01*
X9868716Y-21530520D01*
X9980520Y-21418716D01*
X10059577Y-21281784D01*
X10100500Y-21129057D01*
X10100500Y-20970943D01*
X10059577Y-20818216D01*
X10059573Y-20818209D01*
X9980524Y-20681290D01*
X9980518Y-20681282D01*
X9868717Y-20569481D01*
X9868709Y-20569475D01*
X9731790Y-20490426D01*
X9731786Y-20490424D01*
X9731784Y-20490423D01*
X9579057Y-20449500D01*
X9420943Y-20449500D01*
X9268216Y-20490423D01*
X9268209Y-20490426D01*
X9131290Y-20569475D01*
X9131282Y-20569481D01*
X9019481Y-20681282D01*
X9019475Y-20681290D01*
X8940426Y-20818209D01*
X8940423Y-20818216D01*
X8899500Y-20970943D01*
X500500Y-20970943D01*
X500500Y-19920943D01*
X10949500Y-19920943D01*
X10949500Y-20079056D01*
X10990423Y-20231783D01*
X10990426Y-20231790D01*
X11069475Y-20368709D01*
X11069479Y-20368714D01*
X11069480Y-20368716D01*
X11181284Y-20480520D01*
X11181286Y-20480521D01*
X11181290Y-20480524D01*
X11318209Y-20559573D01*
X11318216Y-20559577D01*
X11470943Y-20600500D01*
X11470945Y-20600500D01*
X11629055Y-20600500D01*
X11629057Y-20600500D01*
X11781784Y-20559577D01*
X11918716Y-20480520D01*
X12030520Y-20368716D01*
X12109577Y-20231784D01*
X12150500Y-20079057D01*
X12150500Y-19920943D01*
X12109577Y-19768216D01*
X12046855Y-19659577D01*
X12030524Y-19631290D01*
X12030518Y-19631282D01*
X11918717Y-19519481D01*
X11918709Y-19519475D01*
X11781790Y-19440426D01*
X11781786Y-19440424D01*
X11781784Y-19440423D01*
X11629057Y-19399500D01*
X11470943Y-19399500D01*
X11318216Y-19440423D01*
X11318209Y-19440426D01*
X11181290Y-19519475D01*
X11181282Y-19519481D01*
X11069481Y-19631282D01*
X11069475Y-19631290D01*
X10990426Y-19768209D01*
X10990423Y-19768216D01*
X10949500Y-19920943D01*
X500500Y-19920943D01*
X500500Y-19020943D01*
X4399500Y-19020943D01*
X4399500Y-19179056D01*
X4440423Y-19331783D01*
X4440426Y-19331790D01*
X4519475Y-19468709D01*
X4519479Y-19468714D01*
X4519480Y-19468716D01*
X4631284Y-19580520D01*
X4631286Y-19580521D01*
X4631290Y-19580524D01*
X4719221Y-19631290D01*
X4768216Y-19659577D01*
X4920943Y-19700500D01*
X4920945Y-19700500D01*
X5079055Y-19700500D01*
X5079057Y-19700500D01*
X5231784Y-19659577D01*
X5368716Y-19580520D01*
X5480520Y-19468716D01*
X5559577Y-19331784D01*
X5600500Y-19179057D01*
X5600500Y-19020943D01*
X5559577Y-18868216D01*
X5559573Y-18868209D01*
X5480524Y-18731290D01*
X5480518Y-18731282D01*
X5368717Y-18619481D01*
X5368709Y-18619475D01*
X5231790Y-18540426D01*
X5231786Y-18540424D01*
X5231784Y-18540423D01*
X5079057Y-18499500D01*
X4920943Y-18499500D01*
X4768216Y-18540423D01*
X4768209Y-18540426D01*
X4631290Y-18619475D01*
X4631282Y-18619481D01*
X4519481Y-18731282D01*
X4519475Y-18731290D01*
X4440426Y-18868209D01*
X4440423Y-18868216D01*
X4399500Y-19020943D01*
X500500Y-19020943D01*
X500500Y-18170943D01*
X6449500Y-18170943D01*
X6449500Y-18329057D01*
X6479341Y-18440423D01*
X6490423Y-18481783D01*
X6490426Y-18481790D01*
X6569475Y-18618709D01*
X6569479Y-18618714D01*
X6569480Y-18618716D01*
X6681284Y-18730520D01*
X6681286Y-18730521D01*
X6681290Y-18730524D01*
X6818209Y-18809573D01*
X6818216Y-18809577D01*
X6970943Y-18850500D01*
X6970945Y-18850500D01*
X7129054Y-18850500D01*
X7129057Y-18850500D01*
X7243410Y-18819859D01*
X7313256Y-18821522D01*
X7371118Y-18860684D01*
X7398623Y-18924912D01*
X7399500Y-18939634D01*
X7399500Y-19079057D01*
X7426295Y-19179055D01*
X7440423Y-19231783D01*
X7440426Y-19231790D01*
X7519475Y-19368709D01*
X7519479Y-19368714D01*
X7519480Y-19368716D01*
X7631284Y-19480520D01*
X7631286Y-19480521D01*
X7631290Y-19480524D01*
X7698765Y-19519480D01*
X7768216Y-19559577D01*
X7920943Y-19600500D01*
X7920945Y-19600500D01*
X8079055Y-19600500D01*
X8079057Y-19600500D01*
X8231784Y-19559577D01*
X8368716Y-19480520D01*
X8480520Y-19368716D01*
X8559577Y-19231784D01*
X8600500Y-19079057D01*
X8600500Y-18920943D01*
X15799500Y-18920943D01*
X15799500Y-19079057D01*
X15826295Y-19179055D01*
X15840423Y-19231783D01*
X15840426Y-19231790D01*
X15919475Y-19368709D01*
X15919479Y-19368714D01*
X15919480Y-19368716D01*
X16031284Y-19480520D01*
X16031286Y-19480521D01*
X16031290Y-19480524D01*
X16098765Y-19519480D01*
X16168216Y-19559577D01*
X16320943Y-19600500D01*
X16320945Y-19600500D01*
X16479055Y-19600500D01*
X16479057Y-19600500D01*
X16631784Y-19559577D01*
X16768716Y-19480520D01*
X16880520Y-19368716D01*
X16959577Y-19231784D01*
X17000500Y-19079057D01*
X17000500Y-18920943D01*
X35599500Y-18920943D01*
X35599500Y-19079057D01*
X35626295Y-19179055D01*
X35640423Y-19231783D01*
X35640426Y-19231790D01*
X35719475Y-19368709D01*
X35719479Y-19368714D01*
X35719480Y-19368716D01*
X35831284Y-19480520D01*
X35831286Y-19480521D01*
X35831290Y-19480524D01*
X35898765Y-19519480D01*
X35968216Y-19559577D01*
X36120943Y-19600500D01*
X36120945Y-19600500D01*
X36279055Y-19600500D01*
X36279057Y-19600500D01*
X36431784Y-19559577D01*
X36568716Y-19480520D01*
X36680520Y-19368716D01*
X36759577Y-19231784D01*
X36800500Y-19079057D01*
X36800500Y-18920943D01*
X36759577Y-18768216D01*
X36738258Y-18731290D01*
X36680524Y-18631290D01*
X36680518Y-18631282D01*
X36568717Y-18519481D01*
X36568709Y-18519475D01*
X36431790Y-18440426D01*
X36431786Y-18440424D01*
X36431784Y-18440423D01*
X36279057Y-18399500D01*
X36120943Y-18399500D01*
X35968216Y-18440423D01*
X35968209Y-18440426D01*
X35831290Y-18519475D01*
X35831282Y-18519481D01*
X35719481Y-18631282D01*
X35719475Y-18631290D01*
X35640426Y-18768209D01*
X35640423Y-18768216D01*
X35599500Y-18920943D01*
X17000500Y-18920943D01*
X16959577Y-18768216D01*
X16938258Y-18731290D01*
X16880524Y-18631290D01*
X16880518Y-18631282D01*
X16768717Y-18519481D01*
X16768709Y-18519475D01*
X16631790Y-18440426D01*
X16631786Y-18440424D01*
X16631784Y-18440423D01*
X16479057Y-18399500D01*
X16320943Y-18399500D01*
X16168216Y-18440423D01*
X16168209Y-18440426D01*
X16031290Y-18519475D01*
X16031282Y-18519481D01*
X15919481Y-18631282D01*
X15919475Y-18631290D01*
X15840426Y-18768209D01*
X15840423Y-18768216D01*
X15799500Y-18920943D01*
X8600500Y-18920943D01*
X8559577Y-18768216D01*
X8538258Y-18731290D01*
X8480524Y-18631290D01*
X8480518Y-18631282D01*
X8368717Y-18519481D01*
X8368709Y-18519475D01*
X8231790Y-18440426D01*
X8231786Y-18440424D01*
X8231784Y-18440423D01*
X8079057Y-18399500D01*
X7920943Y-18399500D01*
X7806593Y-18430140D01*
X7736743Y-18428477D01*
X7678881Y-18389314D01*
X7651377Y-18325086D01*
X7650500Y-18310365D01*
X7650500Y-18170945D01*
X7650500Y-18170943D01*
X7609577Y-18018216D01*
X7609573Y-18018209D01*
X7530524Y-17881290D01*
X7530518Y-17881282D01*
X7418717Y-17769481D01*
X7418709Y-17769475D01*
X7281790Y-17690426D01*
X7281786Y-17690424D01*
X7281784Y-17690423D01*
X7129057Y-17649500D01*
X6970943Y-17649500D01*
X6818216Y-17690423D01*
X6818209Y-17690426D01*
X6681290Y-17769475D01*
X6681282Y-17769481D01*
X6569481Y-17881282D01*
X6569475Y-17881290D01*
X6490426Y-18018209D01*
X6490423Y-18018216D01*
X6449500Y-18170943D01*
X500500Y-18170943D01*
X500500Y-16470943D01*
X9049500Y-16470943D01*
X9049500Y-16629057D01*
X9086788Y-16768216D01*
X9090423Y-16781783D01*
X9090426Y-16781790D01*
X9169475Y-16918709D01*
X9169481Y-16918717D01*
X9281284Y-17030520D01*
X9290544Y-17035866D01*
X9338760Y-17086433D01*
X9351984Y-17155040D01*
X9350540Y-17163042D01*
X9349500Y-17170941D01*
X9349500Y-17170943D01*
X9349500Y-17329057D01*
X9390086Y-17480524D01*
X9390423Y-17481783D01*
X9390426Y-17481790D01*
X9469475Y-17618709D01*
X9469479Y-17618714D01*
X9469480Y-17618716D01*
X9581284Y-17730520D01*
X9581286Y-17730521D01*
X9581290Y-17730524D01*
X9648765Y-17769480D01*
X9718216Y-17809577D01*
X9870943Y-17850500D01*
X9870945Y-17850500D01*
X10029055Y-17850500D01*
X10029057Y-17850500D01*
X10181784Y-17809577D01*
X10318716Y-17730520D01*
X10430520Y-17618716D01*
X10509577Y-17481784D01*
X10550500Y-17329057D01*
X10550500Y-17275685D01*
X10570185Y-17208646D01*
X10622989Y-17162891D01*
X10692147Y-17152947D01*
X10710246Y-17157913D01*
X10710365Y-17157473D01*
X10718214Y-17159576D01*
X10718216Y-17159577D01*
X10870943Y-17200500D01*
X10870945Y-17200500D01*
X11029055Y-17200500D01*
X11029057Y-17200500D01*
X11181784Y-17159577D01*
X11318716Y-17080520D01*
X11430520Y-16968716D01*
X11458102Y-16920943D01*
X35599500Y-16920943D01*
X35599500Y-17079057D01*
X35632041Y-17200500D01*
X35640423Y-17231783D01*
X35640426Y-17231790D01*
X35719475Y-17368709D01*
X35719479Y-17368714D01*
X35719480Y-17368716D01*
X35831284Y-17480520D01*
X35831286Y-17480521D01*
X35831290Y-17480524D01*
X35968209Y-17559573D01*
X35968216Y-17559577D01*
X36120943Y-17600500D01*
X36120945Y-17600500D01*
X36279055Y-17600500D01*
X36279057Y-17600500D01*
X36431784Y-17559577D01*
X36568716Y-17480520D01*
X36680520Y-17368716D01*
X36759577Y-17231784D01*
X36800500Y-17079057D01*
X36800500Y-16920943D01*
X36759577Y-16768216D01*
X36708101Y-16679056D01*
X36680524Y-16631290D01*
X36680518Y-16631282D01*
X36568717Y-16519481D01*
X36568709Y-16519475D01*
X36431790Y-16440426D01*
X36431786Y-16440424D01*
X36431784Y-16440423D01*
X36279057Y-16399500D01*
X36120943Y-16399500D01*
X35968216Y-16440423D01*
X35968209Y-16440426D01*
X35831290Y-16519475D01*
X35831282Y-16519481D01*
X35719481Y-16631282D01*
X35719475Y-16631290D01*
X35640426Y-16768209D01*
X35640423Y-16768216D01*
X35599500Y-16920943D01*
X11458102Y-16920943D01*
X11509577Y-16831784D01*
X11550500Y-16679057D01*
X11550500Y-16520943D01*
X11509577Y-16368216D01*
X11478178Y-16313831D01*
X11430524Y-16231290D01*
X11430518Y-16231282D01*
X11318717Y-16119481D01*
X11318709Y-16119475D01*
X11181790Y-16040426D01*
X11181786Y-16040424D01*
X11181784Y-16040423D01*
X11029057Y-15999500D01*
X10870943Y-15999500D01*
X10718216Y-16040423D01*
X10718209Y-16040426D01*
X10581290Y-16119475D01*
X10581282Y-16119481D01*
X10469481Y-16231282D01*
X10469477Y-16231287D01*
X10421820Y-16313832D01*
X10371253Y-16362048D01*
X10302646Y-16375270D01*
X10237781Y-16349302D01*
X10207046Y-16313831D01*
X10130524Y-16181290D01*
X10130518Y-16181282D01*
X10018717Y-16069481D01*
X10018709Y-16069475D01*
X9881790Y-15990426D01*
X9881786Y-15990424D01*
X9881784Y-15990423D01*
X9729057Y-15949500D01*
X9570943Y-15949500D01*
X9418216Y-15990423D01*
X9418209Y-15990426D01*
X9281290Y-16069475D01*
X9281282Y-16069481D01*
X9169481Y-16181282D01*
X9169475Y-16181290D01*
X9090426Y-16318209D01*
X9090423Y-16318216D01*
X9049500Y-16470943D01*
X500500Y-16470943D01*
X500500Y-13920943D01*
X9399500Y-13920943D01*
X9399500Y-14079057D01*
X9440289Y-14231282D01*
X9440423Y-14231783D01*
X9440426Y-14231790D01*
X9519475Y-14368709D01*
X9519479Y-14368714D01*
X9519480Y-14368716D01*
X9631284Y-14480520D01*
X9631286Y-14480521D01*
X9631290Y-14480524D01*
X9768209Y-14559573D01*
X9768216Y-14559577D01*
X9920943Y-14600500D01*
X9920945Y-14600500D01*
X10079055Y-14600500D01*
X10079057Y-14600500D01*
X10231784Y-14559577D01*
X10298701Y-14520943D01*
X11999500Y-14520943D01*
X11999500Y-14679056D01*
X12040423Y-14831783D01*
X12040426Y-14831790D01*
X12119475Y-14968709D01*
X12119479Y-14968714D01*
X12119480Y-14968716D01*
X12231284Y-15080520D01*
X12231286Y-15080521D01*
X12231290Y-15080524D01*
X12368209Y-15159573D01*
X12368216Y-15159577D01*
X12520943Y-15200500D01*
X12520945Y-15200500D01*
X12679055Y-15200500D01*
X12679057Y-15200500D01*
X12831784Y-15159577D01*
X12968716Y-15080520D01*
X13080520Y-14968716D01*
X13159577Y-14831784D01*
X13200500Y-14679057D01*
X13200500Y-14520943D01*
X15299500Y-14520943D01*
X15299500Y-14679056D01*
X15340423Y-14831783D01*
X15340426Y-14831790D01*
X15419475Y-14968709D01*
X15419479Y-14968714D01*
X15419480Y-14968716D01*
X15531284Y-15080520D01*
X15531286Y-15080521D01*
X15531290Y-15080524D01*
X15668209Y-15159573D01*
X15668216Y-15159577D01*
X15820943Y-15200500D01*
X15820945Y-15200500D01*
X15979055Y-15200500D01*
X15979057Y-15200500D01*
X16131784Y-15159577D01*
X16268716Y-15080520D01*
X16380520Y-14968716D01*
X16459577Y-14831784D01*
X16500500Y-14679057D01*
X16500500Y-14520943D01*
X16459577Y-14368216D01*
X16459573Y-14368209D01*
X16380524Y-14231290D01*
X16380518Y-14231282D01*
X16268717Y-14119481D01*
X16268709Y-14119475D01*
X16131790Y-14040426D01*
X16131786Y-14040424D01*
X16131784Y-14040423D01*
X15979057Y-13999500D01*
X15820943Y-13999500D01*
X15668216Y-14040423D01*
X15668209Y-14040426D01*
X15531290Y-14119475D01*
X15531282Y-14119481D01*
X15419481Y-14231282D01*
X15419475Y-14231290D01*
X15340426Y-14368209D01*
X15340423Y-14368216D01*
X15299500Y-14520943D01*
X13200500Y-14520943D01*
X13159577Y-14368216D01*
X13159573Y-14368209D01*
X13080524Y-14231290D01*
X13080518Y-14231282D01*
X12968717Y-14119481D01*
X12968709Y-14119475D01*
X12831790Y-14040426D01*
X12831786Y-14040424D01*
X12831784Y-14040423D01*
X12679057Y-13999500D01*
X12520943Y-13999500D01*
X12368216Y-14040423D01*
X12368209Y-14040426D01*
X12231290Y-14119475D01*
X12231282Y-14119481D01*
X12119481Y-14231282D01*
X12119475Y-14231290D01*
X12040426Y-14368209D01*
X12040423Y-14368216D01*
X11999500Y-14520943D01*
X10298701Y-14520943D01*
X10368716Y-14480520D01*
X10480520Y-14368716D01*
X10559577Y-14231784D01*
X10600500Y-14079057D01*
X10600500Y-13920943D01*
X10559577Y-13768216D01*
X10554587Y-13759573D01*
X10480524Y-13631290D01*
X10480518Y-13631282D01*
X10368717Y-13519481D01*
X10368709Y-13519475D01*
X10231790Y-13440426D01*
X10231786Y-13440424D01*
X10231784Y-13440423D01*
X10079057Y-13399500D01*
X9920943Y-13399500D01*
X9768216Y-13440423D01*
X9768209Y-13440426D01*
X9631290Y-13519475D01*
X9631282Y-13519481D01*
X9519481Y-13631282D01*
X9519475Y-13631290D01*
X9440426Y-13768209D01*
X9440423Y-13768216D01*
X9399500Y-13920943D01*
X500500Y-13920943D01*
X500500Y-13120943D01*
X6799500Y-13120943D01*
X6799500Y-13279056D01*
X6840423Y-13431783D01*
X6840426Y-13431790D01*
X6919475Y-13568709D01*
X6919479Y-13568714D01*
X6919480Y-13568716D01*
X7031284Y-13680520D01*
X7031286Y-13680521D01*
X7031290Y-13680524D01*
X7168209Y-13759573D01*
X7168216Y-13759577D01*
X7320943Y-13800500D01*
X7320945Y-13800500D01*
X7479055Y-13800500D01*
X7479057Y-13800500D01*
X7631784Y-13759577D01*
X7768716Y-13680520D01*
X7880520Y-13568716D01*
X7959577Y-13431784D01*
X8000500Y-13279057D01*
X8000500Y-13120943D01*
X7959577Y-12968216D01*
X7959573Y-12968209D01*
X7880524Y-12831290D01*
X7880518Y-12831282D01*
X7768717Y-12719481D01*
X7768709Y-12719475D01*
X7631790Y-12640426D01*
X7631786Y-12640424D01*
X7631784Y-12640423D01*
X7479057Y-12599500D01*
X7320943Y-12599500D01*
X7168216Y-12640423D01*
X7168209Y-12640426D01*
X7031290Y-12719475D01*
X7031282Y-12719481D01*
X6919481Y-12831282D01*
X6919475Y-12831290D01*
X6840426Y-12968209D01*
X6840423Y-12968216D01*
X6799500Y-13120943D01*
X500500Y-13120943D01*
X500500Y-9670943D01*
X9099500Y-9670943D01*
X9099500Y-9829056D01*
X9140423Y-9981783D01*
X9140426Y-9981790D01*
X9219475Y-10118709D01*
X9219479Y-10118714D01*
X9219480Y-10118716D01*
X9331284Y-10230520D01*
X9331286Y-10230521D01*
X9331290Y-10230524D01*
X9468209Y-10309573D01*
X9468216Y-10309577D01*
X9620943Y-10350500D01*
X9620945Y-10350500D01*
X9779055Y-10350500D01*
X9779057Y-10350500D01*
X9931784Y-10309577D01*
X10068716Y-10230520D01*
X10180520Y-10118716D01*
X10259577Y-9981784D01*
X10300500Y-9829057D01*
X10300500Y-9670943D01*
X16099500Y-9670943D01*
X16099500Y-9829056D01*
X16140423Y-9981783D01*
X16140426Y-9981790D01*
X16219475Y-10118709D01*
X16219479Y-10118714D01*
X16219480Y-10118716D01*
X16331284Y-10230520D01*
X16331286Y-10230521D01*
X16331290Y-10230524D01*
X16468209Y-10309573D01*
X16468216Y-10309577D01*
X16620943Y-10350500D01*
X16620945Y-10350500D01*
X16779055Y-10350500D01*
X16779057Y-10350500D01*
X16931784Y-10309577D01*
X17068716Y-10230520D01*
X17180520Y-10118716D01*
X17259577Y-9981784D01*
X17300500Y-9829057D01*
X17300500Y-9670943D01*
X17259577Y-9518216D01*
X17259573Y-9518209D01*
X17180524Y-9381290D01*
X17180518Y-9381282D01*
X17068717Y-9269481D01*
X17068709Y-9269475D01*
X16931790Y-9190426D01*
X16931786Y-9190424D01*
X16931784Y-9190423D01*
X16779057Y-9149500D01*
X16620943Y-9149500D01*
X16468216Y-9190423D01*
X16468209Y-9190426D01*
X16331290Y-9269475D01*
X16331282Y-9269481D01*
X16219481Y-9381282D01*
X16219475Y-9381290D01*
X16140426Y-9518209D01*
X16140423Y-9518216D01*
X16099500Y-9670943D01*
X10300500Y-9670943D01*
X10259577Y-9518216D01*
X10259573Y-9518209D01*
X10180524Y-9381290D01*
X10180518Y-9381282D01*
X10068717Y-9269481D01*
X10068709Y-9269475D01*
X9931790Y-9190426D01*
X9931786Y-9190424D01*
X9931784Y-9190423D01*
X9779057Y-9149500D01*
X9620943Y-9149500D01*
X9468216Y-9190423D01*
X9468209Y-9190426D01*
X9331290Y-9269475D01*
X9331282Y-9269481D01*
X9219481Y-9381282D01*
X9219475Y-9381290D01*
X9140426Y-9518209D01*
X9140423Y-9518216D01*
X9099500Y-9670943D01*
X500500Y-9670943D01*
X500500Y-5920943D01*
X22949500Y-5920943D01*
X22949500Y-6079056D01*
X22990423Y-6231783D01*
X22990426Y-6231790D01*
X23069475Y-6368709D01*
X23069479Y-6368714D01*
X23069480Y-6368716D01*
X23181284Y-6480520D01*
X23181286Y-6480521D01*
X23181290Y-6480524D01*
X23318209Y-6559573D01*
X23318216Y-6559577D01*
X23470943Y-6600500D01*
X23470945Y-6600500D01*
X23629055Y-6600500D01*
X23629057Y-6600500D01*
X23781784Y-6559577D01*
X23918716Y-6480520D01*
X24030520Y-6368716D01*
X24109577Y-6231784D01*
X24150500Y-6079057D01*
X24150500Y-5920943D01*
X24109577Y-5768216D01*
X24109573Y-5768209D01*
X24030524Y-5631290D01*
X24030518Y-5631282D01*
X23918717Y-5519481D01*
X23918709Y-5519475D01*
X23781790Y-5440426D01*
X23781786Y-5440424D01*
X23781784Y-5440423D01*
X23629057Y-5399500D01*
X23470943Y-5399500D01*
X23318216Y-5440423D01*
X23318209Y-5440426D01*
X23181290Y-5519475D01*
X23181282Y-5519481D01*
X23069481Y-5631282D01*
X23069475Y-5631290D01*
X22990426Y-5768209D01*
X22990423Y-5768216D01*
X22949500Y-5920943D01*
X500500Y-5920943D01*
X500500Y-624500D01*
X520185Y-557461D01*
X572989Y-511706D01*
X624500Y-500500D01*
X49375500Y-500500D01*
X49442539Y-520185D01*
G37*
%TD.AperFunction*%
%TD*%
M02*
