%TF.GenerationSoftware,KiCad,Pcbnew,9.0.8+dfsg-1*%
%TF.CreationDate,2026-10-02T17:40:25+02:00*%
%TF.ProjectId,v2_adc_4layer_routed_final,76325f61-6463-45f3-946c-617965725f72,rev?*%
%TF.SameCoordinates,Original*%
%TF.FileFunction,Copper,L4,Bot*%
%TF.FilePolarity,Positive*%
%FSLAX46Y46*%
G04 Gerber Fmt 4.6, Leading zero omitted, Abs format (unit mm)*
G04 Created by KiCad (PCBNEW 9.0.8+dfsg-1) date 2026-10-02 17:40:25*
%MOMM*%
%LPD*%
G01*
G04 APERTURE LIST*
%TA.AperFunction,ComponentPad*%
%ADD10R,1.600000X1.600000*%
%TD*%
%TA.AperFunction,ComponentPad*%
%ADD11R,1.000000X1.000000*%
%TD*%
%TA.AperFunction,ViaPad*%
%ADD12C,0.600000*%
%TD*%
%TA.AperFunction,Conductor*%
%ADD13C,0.250000*%
%TD*%
%TA.AperFunction,Conductor*%
%ADD14C,0.400000*%
%TD*%
%TA.AperFunction,Conductor*%
%ADD15C,0.760000*%
%TD*%
G04 APERTURE END LIST*
D10*
%TO.P,SOLAR,1*%
%TO.N,SOLAR_IN*%
X1730000Y-37000000D03*
%TO.P,SOLAR,2*%
%TO.N,GND*%
X4270000Y-37000000D03*
%TD*%
D11*
%TO.P,ANT1,2*%
%TO.N,GND*%
X44500000Y-25000000D03*
%TO.P,ANT1,3*%
X47500000Y-25000000D03*
%TD*%
D10*
%TO.P,C_CAP,1*%
%TO.N,VCAP*%
X7500000Y-37000000D03*
%TO.P,C_CAP,2*%
%TO.N,GND*%
X12500000Y-37000000D03*
%TD*%
D11*
%TO.P,ANT2,2*%
%TO.N,GND*%
X44500000Y-30000000D03*
%TO.P,ANT2,3*%
X47500000Y-30000000D03*
%TD*%
D12*
%TO.N,3V3*%
X40450000Y-26100000D03*
X2500000Y-31000000D03*
X9950000Y-18750000D03*
X9500000Y-23050000D03*
X2450000Y-29100000D03*
X16700000Y-8250000D03*
X16400000Y-17000000D03*
%TO.N,GND*%
X4500000Y-32000000D03*
X48700000Y-30000000D03*
X5750000Y-37000000D03*
X8000000Y-19000000D03*
X3750000Y-29100000D03*
X36200000Y-19000000D03*
X48700000Y-25000000D03*
X11550000Y-22000000D03*
X16400000Y-31000000D03*
X11550000Y-20000000D03*
X36200000Y-29000000D03*
X23550000Y-6000000D03*
X44500000Y-31200000D03*
X14000000Y-37000000D03*
X42700000Y-25000000D03*
X36200000Y-17000000D03*
X16400000Y-19000000D03*
X36200000Y-31000000D03*
X44500000Y-26200000D03*
X10000000Y-14000000D03*
X16700000Y-9750000D03*
%TO.N,SPI_SCK*%
X16400000Y-25000000D03*
X10950000Y-16600000D03*
%TO.N,LR2021_RST*%
X36200000Y-25000000D03*
X7400000Y-13200000D03*
%TO.N,LR2021_DIO9*%
X15900000Y-14600000D03*
X12600000Y-14600000D03*
%TO.N,GPS_RX*%
X5150000Y-29100000D03*
X9700000Y-9750000D03*
%TO.N,VCAP*%
X9500000Y-21050000D03*
X9950000Y-17250000D03*
X7050000Y-18250000D03*
X9650000Y-16550000D03*
%TO.N,SOLAR_IN*%
X5000000Y-19100000D03*
%TO.N,RF_SUB_868*%
X46000000Y-26200000D03*
X16550000Y-33000000D03*
%TO.N,VDIV_MID*%
X4500000Y-30000000D03*
X2500000Y-33000000D03*
%TD*%
D13*
%TO.N,SPI_SCK*%
X16400000Y-25000000D02*
X10950000Y-16600000D01*
%TO.N,LR2021_RST*%
X36200000Y-25000000D02*
X21800000Y-25000000D01*
X21800000Y-13200000D02*
X7400000Y-13200000D01*
X21800000Y-25000000D02*
X21800000Y-13200000D01*
%TO.N,GPS_RX*%
X5925000Y-29100000D02*
X5925000Y-9750000D01*
X5150000Y-29100000D02*
X5925000Y-29100000D01*
X5925000Y-9750000D02*
X9700000Y-9750000D01*
D14*
%TO.N,VCAP*%
X9650000Y-16550000D02*
X7050000Y-18250000D01*
X6725000Y-21050000D02*
X6725000Y-17250000D01*
X6725000Y-17250000D02*
X9950000Y-17250000D01*
X9500000Y-21050000D02*
X6725000Y-21050000D01*
%TO.N,SOLAR_IN*%
X1365000Y-37000000D02*
X1365000Y-19100000D01*
X1730000Y-37000000D02*
X1365000Y-37000000D01*
X1365000Y-19100000D02*
X5000000Y-19100000D01*
D15*
%TO.N,RF_SUB_868*%
X46000000Y-26200000D02*
X46000000Y-33000000D01*
X46000000Y-33000000D02*
X16550000Y-33000000D01*
D13*
%TO.N,VDIV_MID*%
X2500000Y-33000000D02*
X4500000Y-30000000D01*
%TD*%
M02*
