M48
; DRILL file {KiCad 9.0.8+dfsg-1} date 2026-10-02T17:40:25+0200
; FORMAT={-:-/ absolute / metric / decimal}
; #@! TF.CreationDate,2026-10-02T17:40:25+02:00
; #@! TF.GenerationSoftware,Kicad,Pcbnew,9.0.8+dfsg-1
; #@! TF.FileFunction,MixedPlating,1,4
FMAT,2
METRIC
; #@! TA.AperFunction,Plated,PTH,ViaDrill
T1C0.300
; #@! TA.AperFunction,Plated,PTH,ComponentDrill
T2C0.500
%
G90
G05
T1
X2.45Y-29.1
X2.5Y-31.0
X2.5Y-33.0
X3.75Y-29.1
X4.5Y-30.0
X4.5Y-32.0
X5.0Y-19.1
X5.15Y-29.1
X5.75Y-37.0
X7.05Y-18.25
X7.4Y-13.2
X8.0Y-19.0
X9.5Y-21.05
X9.5Y-23.05
X9.65Y-16.55
X9.7Y-9.75
X9.95Y-17.25
X9.95Y-18.75
X10.0Y-14.0
X10.95Y-16.6
X11.55Y-20.0
X11.55Y-22.0
X12.6Y-14.6
X14.0Y-37.0
X15.9Y-14.6
X16.4Y-17.0
X16.4Y-19.0
X16.4Y-25.0
X16.4Y-31.0
X16.55Y-33.0
X16.7Y-8.25
X16.7Y-9.75
X23.55Y-6.0
X36.2Y-17.0
X36.2Y-19.0
X36.2Y-25.0
X36.2Y-29.0
X36.2Y-31.0
X40.45Y-26.1
X42.7Y-25.0
X44.5Y-26.2
X44.5Y-31.2
X46.0Y-26.2
X48.7Y-25.0
X48.7Y-30.0
T2
X1.73Y-37.0
X4.27Y-37.0
X7.5Y-37.0
X12.5Y-37.0
X44.5Y-25.0
X44.5Y-30.0
X47.5Y-25.0
X47.5Y-30.0
M30
