%TF.GenerationSoftware,KiCad,Pcbnew,9.0.8+dfsg-1*%
%TF.CreationDate,2026-10-02T17:51:11+02:00*%
%TF.ProjectId,v1_fast_krt_margin,76315f66-6173-4745-9f6b-72745f6d6172,rev?*%
%TF.SameCoordinates,Original*%
%TF.FileFunction,Copper,L1,Top*%
%TF.FilePolarity,Positive*%
%FSLAX46Y46*%
G04 Gerber Fmt 4.6, Leading zero omitted, Abs format (unit mm)*
G04 Created by KiCad (PCBNEW 9.0.8+dfsg-1) date 2026-10-02 17:51:11*
%MOMM*%
%LPD*%
G01*
G04 APERTURE LIST*
%TA.AperFunction,SMDPad,CuDef*%
%ADD10R,1.000000X1.000000*%
%TD*%
%TA.AperFunction,ComponentPad*%
%ADD11R,1.000000X1.000000*%
%TD*%
%TA.AperFunction,SMDPad,CuDef*%
%ADD12R,0.700000X0.600000*%
%TD*%
%TA.AperFunction,SMDPad,CuDef*%
%ADD13R,1.200000X0.800000*%
%TD*%
%TA.AperFunction,SMDPad,CuDef*%
%ADD14R,1.500000X0.800000*%
%TD*%
%TA.AperFunction,SMDPad,CuDef*%
%ADD15R,1.000000X0.600000*%
%TD*%
%TA.AperFunction,SMDPad,CuDef*%
%ADD16R,0.800000X0.600000*%
%TD*%
%TA.AperFunction,SMDPad,CuDef*%
%ADD17R,0.600000X0.500000*%
%TD*%
%TA.AperFunction,ComponentPad*%
%ADD18R,1.600000X1.600000*%
%TD*%
%TA.AperFunction,SMDPad,CuDef*%
%ADD19R,0.600000X0.400000*%
%TD*%
%TA.AperFunction,SMDPad,CuDef*%
%ADD20R,1.000000X0.800000*%
%TD*%
%TA.AperFunction,ViaPad*%
%ADD21C,0.600000*%
%TD*%
%TA.AperFunction,Conductor*%
%ADD22C,0.200000*%
%TD*%
G04 APERTURE END LIST*
D10*
%TO.P,ANT1,1*%
%TO.N,RF_SUB_868*%
X46000000Y-25000000D03*
D11*
%TO.P,ANT1,2*%
%TO.N,GND*%
X44500000Y-25000000D03*
%TO.P,ANT1,3*%
X47500000Y-25000000D03*
%TD*%
D12*
%TO.P,C1,1*%
%TO.N,VCAP*%
X9500000Y-20000000D03*
%TO.P,C1,2*%
%TO.N,GND*%
X10500000Y-20000000D03*
%TD*%
D13*
%TO.P,U2,1*%
%TO.N,3V3*%
X15100000Y-17000000D03*
%TO.P,U2,2*%
%TO.N,GND*%
X15100000Y-19000000D03*
%TO.P,U2,3*%
%TO.N,SPI_MISO*%
X15100000Y-21000000D03*
%TO.P,U2,4*%
%TO.N,SPI_MOSI*%
X15100000Y-23000000D03*
%TO.P,U2,5*%
%TO.N,SPI_SCK*%
X15100000Y-25000000D03*
%TO.P,U2,6*%
%TO.N,SPI_NSS*%
X15100000Y-27000000D03*
%TO.P,U2,7*%
%TO.N,LR2021_BUSY*%
X15100000Y-29000000D03*
%TO.P,U2,8*%
%TO.N,GND*%
X15100000Y-31000000D03*
D14*
%TO.P,U2,9*%
%TO.N,RF_SUB_868*%
X15100000Y-33000000D03*
D13*
%TO.P,U2,10*%
%TO.N,GND*%
X34900000Y-17000000D03*
%TO.P,U2,11*%
X34900000Y-19000000D03*
%TO.P,U2,13*%
%TO.N,LR2021_DIO9*%
X34900000Y-23000000D03*
%TO.P,U2,14*%
%TO.N,LR2021_RST*%
X34900000Y-25000000D03*
%TO.P,U2,16*%
%TO.N,GND*%
X34900000Y-29000000D03*
%TO.P,U2,17*%
X34900000Y-31000000D03*
D14*
%TO.P,U2,18*%
%TO.N,RF_2G4_2400*%
X34900000Y-33000000D03*
%TD*%
D15*
%TO.P,U1,GND*%
%TO.N,GND*%
X15500000Y-9750000D03*
%TO.P,U1,GPIO1*%
%TO.N,GPS_RX*%
X8500000Y-9750000D03*
%TO.P,U1,GPIO2*%
%TO.N,SPI_MISO*%
X8500000Y-11250000D03*
%TO.P,U1,GPIO3*%
%TO.N,LR2021_RST*%
X8500000Y-12750000D03*
%TO.P,U1,GPIO4*%
%TO.N,LR2021_BUSY*%
X8500000Y-14250000D03*
%TO.P,U1,GPIO5*%
%TO.N,LR2021_DIO9*%
X8500000Y-15750000D03*
%TO.P,U1,GPIO6*%
%TO.N,SPI_SCK*%
X10500000Y-15500000D03*
%TO.P,U1,GPIO7*%
%TO.N,SPI_MOSI*%
X12000000Y-15500000D03*
%TO.P,U1,GPIO9*%
%TO.N,STATUS_LED*%
X15000000Y-15500000D03*
%TO.P,U1,GPIO10*%
%TO.N,SPI_NSS*%
X16500000Y-15500000D03*
%TO.P,U1,GPIO19*%
%TO.N,FEM_TX*%
X15500000Y-12750000D03*
%TO.P,U1,VCC*%
%TO.N,3V3*%
X15500000Y-8250000D03*
%TD*%
D16*
%TO.P,D1,A*%
%TO.N,SOLAR_IN*%
X5000000Y-18000000D03*
%TO.P,D1,K*%
%TO.N,VCAP*%
X7000000Y-18000000D03*
%TD*%
D17*
%TO.P,R_PD,1*%
%TO.N,GND*%
X10000000Y-13000000D03*
%TO.P,R_PD,2*%
%TO.N,SPI_MISO*%
X11000000Y-13000000D03*
%TD*%
D18*
%TO.P,C_CAP,1*%
%TO.N,VCAP*%
X7500000Y-37000000D03*
%TO.P,C_CAP,2*%
%TO.N,GND*%
X12500000Y-37000000D03*
%TD*%
D10*
%TO.P,ANT2,1*%
%TO.N,RF_2G4_2400*%
X46000000Y-30000000D03*
D11*
%TO.P,ANT2,2*%
%TO.N,GND*%
X44500000Y-30000000D03*
%TO.P,ANT2,3*%
X47500000Y-30000000D03*
%TD*%
D12*
%TO.P,C2,1*%
%TO.N,3V3*%
X9500000Y-22000000D03*
%TO.P,C2,2*%
%TO.N,GND*%
X10500000Y-22000000D03*
%TD*%
D17*
%TO.P,R_LED,1*%
%TO.N,STATUS_LED*%
X19500000Y-6000000D03*
%TO.P,R_LED,2*%
%TO.N,LED_ANODE*%
X20500000Y-6000000D03*
%TD*%
D12*
%TO.P,LED1,A*%
%TO.N,LED_ANODE*%
X21500000Y-6000000D03*
%TO.P,LED1,K*%
%TO.N,GND*%
X22500000Y-6000000D03*
%TD*%
D18*
%TO.P,SOLAR,1*%
%TO.N,SOLAR_IN*%
X1730000Y-37000000D03*
%TO.P,SOLAR,2*%
%TO.N,GND*%
X4270000Y-37000000D03*
%TD*%
D19*
%TO.P,U4,1*%
%TO.N,VCAP*%
X7050000Y-17250000D03*
%TO.P,U4,2*%
%TO.N,GND*%
X8000000Y-17250000D03*
%TO.P,U4,3*%
%TO.N,VCAP*%
X8950000Y-17250000D03*
%TO.P,U4,4*%
%TO.N,3V3*%
X8950000Y-18750000D03*
%TD*%
D20*
%TO.P,U3,1*%
%TO.N,3V3*%
X2000000Y-28000000D03*
%TO.P,U3,2*%
%TO.N,GND*%
X3300000Y-28000000D03*
%TO.P,U3,3*%
%TO.N,GPS_RX*%
X4700000Y-28000000D03*
%TD*%
%TO.P,FEM,GND*%
%TO.N,GND*%
X41500000Y-25000000D03*
%TO.P,FEM,TX*%
%TO.N,FEM_TX*%
X38500000Y-25000000D03*
%TO.P,FEM,VCC*%
%TO.N,3V3*%
X40000000Y-25000000D03*
%TD*%
D21*
%TO.N,3V3*%
X15100000Y-18075000D03*
X9900000Y-20900000D03*
X16900000Y-14500000D03*
X14000000Y-13100000D03*
X16900000Y-12700000D03*
X4100000Y-25900000D03*
X17125000Y-18800000D03*
X9900000Y-18200000D03*
%TO.N,GND*%
X36100000Y-24800000D03*
X7400000Y-16000000D03*
X9600000Y-13900000D03*
X36100000Y-23600000D03*
X15900000Y-22000000D03*
X3700000Y-29500000D03*
X19400000Y-20200000D03*
X12100000Y-11400000D03*
X17100000Y-22300000D03*
%TO.N,SPI_SCK*%
X11400000Y-19900000D03*
X11500000Y-21800000D03*
%TO.N,SPI_MISO*%
X11800000Y-13600000D03*
X12000000Y-10600000D03*
%TO.N,LR2021_BUSY*%
X8500000Y-21900000D03*
X8500000Y-20100000D03*
%TO.N,LR2021_RST*%
X14000000Y-14000000D03*
X17100000Y-21000000D03*
%TO.N,LR2021_DIO9*%
X14800000Y-14600000D03*
X18800000Y-19600000D03*
%TO.N,VCAP*%
X6700000Y-16400000D03*
X9125000Y-20650000D03*
X8950000Y-16575000D03*
%TD*%
D22*
%TO.N,3V3*%
X16900000Y-18600000D02*
X17400000Y-18100000D01*
X16400000Y-10500000D02*
X16400000Y-9100000D01*
X9300000Y-18800000D02*
X9900000Y-18200000D01*
X17125000Y-18800000D02*
X16900000Y-18600000D01*
X39200000Y-25800000D02*
X40000000Y-25000000D01*
X17125000Y-18800000D02*
X22500000Y-24200000D01*
X37000000Y-24900000D02*
X37900000Y-25800000D01*
X4000000Y-25900000D02*
X2000000Y-27900000D01*
X17400000Y-15100000D02*
X16900000Y-14600000D01*
X37000000Y-24200000D02*
X37000000Y-24900000D01*
X17400000Y-18100000D02*
X17400000Y-15100000D01*
X15100000Y-17000000D02*
X15100000Y-18075000D01*
X14600000Y-13100000D02*
X14600000Y-12300000D01*
X14600000Y-13100000D02*
X14000000Y-13100000D01*
X14600000Y-12300000D02*
X16400000Y-10500000D01*
X22500000Y-24200000D02*
X37000000Y-24200000D01*
X14900000Y-13400000D02*
X14600000Y-13100000D01*
X9500000Y-21300000D02*
X9500000Y-22000000D01*
X9000000Y-18800000D02*
X9300000Y-18800000D01*
X9900000Y-20900000D02*
X9500000Y-21300000D01*
X37900000Y-25800000D02*
X39200000Y-25800000D01*
X16900000Y-12700000D02*
X16200000Y-13400000D01*
X16400000Y-9100000D02*
X15500000Y-8200000D01*
X16200000Y-13400000D02*
X14900000Y-13400000D01*
%TO.N,GND*%
X7900000Y-19600000D02*
X7900000Y-17300000D01*
X15800000Y-23800000D02*
X14400000Y-23800000D01*
X19400000Y-20200000D02*
X23000000Y-23800000D01*
X33800000Y-32400000D02*
X34900000Y-31300000D01*
X16100000Y-22200000D02*
X16100000Y-23500000D01*
X33800000Y-33600000D02*
X33800000Y-32400000D01*
X8000000Y-17200000D02*
X8200000Y-17000000D01*
X34400000Y-18600000D02*
X22500000Y-6700000D01*
X36100000Y-24800000D02*
X37500000Y-26200000D01*
X11500000Y-20900000D02*
X10500000Y-21900000D01*
X36100000Y-24800000D02*
X36100000Y-27800000D01*
X44500000Y-30000000D02*
X45400000Y-30900000D01*
X41500000Y-25000000D02*
X38900000Y-22400000D01*
X46600000Y-30900000D02*
X47500000Y-30000000D01*
X12500000Y-33600000D02*
X12500000Y-37000000D01*
X41500000Y-25000000D02*
X44500000Y-25000000D01*
X16100000Y-23500000D02*
X15800000Y-23800000D01*
X46600000Y-24100000D02*
X47500000Y-25000000D01*
X3700000Y-29500000D02*
X3700000Y-28400000D01*
X37500000Y-26200000D02*
X40300000Y-26200000D01*
X38900000Y-20900000D02*
X35000000Y-17000000D01*
X7100000Y-34200000D02*
X7100000Y-20400000D01*
X12100000Y-11400000D02*
X13700000Y-9800000D01*
X44500000Y-30000000D02*
X40800000Y-33700000D01*
X9600000Y-13600000D02*
X10000000Y-13200000D01*
X44500000Y-25000000D02*
X45400000Y-24100000D01*
X36100000Y-27800000D02*
X34900000Y-29000000D01*
X11300000Y-38200000D02*
X5500000Y-38200000D01*
X4300000Y-37000000D02*
X7100000Y-34200000D01*
X45400000Y-24100000D02*
X46600000Y-24100000D01*
X8200000Y-17000000D02*
X8200000Y-16800000D01*
X15100000Y-31000000D02*
X12500000Y-33600000D01*
X12500000Y-37000000D02*
X11300000Y-38200000D01*
X5500000Y-38200000D02*
X4300000Y-37000000D01*
X8200000Y-16800000D02*
X7400000Y-16000000D01*
X17100000Y-22300000D02*
X17100000Y-28500000D01*
X35600000Y-23800000D02*
X35900000Y-23500000D01*
X16100000Y-20000000D02*
X16100000Y-21800000D01*
X35900000Y-23500000D02*
X35900000Y-20000000D01*
X15100000Y-30500000D02*
X15100000Y-31000000D01*
X40300000Y-26200000D02*
X41500000Y-25000000D01*
X7100000Y-20400000D02*
X7900000Y-19600000D01*
X38900000Y-22400000D02*
X38900000Y-20900000D01*
X45400000Y-30900000D02*
X46600000Y-30900000D01*
X40800000Y-33700000D02*
X33900000Y-33700000D01*
X22500000Y-6700000D02*
X22500000Y-6000000D01*
X17100000Y-28500000D02*
X15100000Y-30500000D01*
X35900000Y-20000000D02*
X34500000Y-18600000D01*
X14400000Y-23800000D02*
X10600000Y-20000000D01*
X33900000Y-33700000D02*
X33800000Y-33600000D01*
X23000000Y-23800000D02*
X35600000Y-23800000D01*
X15100000Y-19000000D02*
X16100000Y-20000000D01*
X13700000Y-9800000D02*
X15500000Y-9800000D01*
%TO.N,SPI_SCK*%
X14700000Y-25000000D02*
X11500000Y-21800000D01*
X11400000Y-19900000D02*
X11400000Y-16400000D01*
X11400000Y-16400000D02*
X10500000Y-15500000D01*
%TO.N,SPI_MOSI*%
X12000000Y-19900000D02*
X12000000Y-15500000D01*
X15100000Y-23000000D02*
X12000000Y-19900000D01*
%TO.N,SPI_MISO*%
X14100000Y-19500000D02*
X15100000Y-20500000D01*
X11900000Y-10700000D02*
X9000000Y-10700000D01*
X9000000Y-10700000D02*
X8500000Y-11200000D01*
X11000000Y-13000000D02*
X14100000Y-16100000D01*
X14100000Y-16100000D02*
X14100000Y-19500000D01*
X15100000Y-20500000D02*
X15100000Y-21000000D01*
%TO.N,SPI_NSS*%
X15100000Y-27000000D02*
X16500000Y-25600000D01*
X16500000Y-25600000D02*
X16500000Y-15500000D01*
%TO.N,LR2021_BUSY*%
X9600000Y-17600000D02*
X9600000Y-15300000D01*
X8300000Y-19900000D02*
X8300000Y-18400000D01*
X8300000Y-18400000D02*
X8900000Y-17800000D01*
X9400000Y-17800000D02*
X9600000Y-17600000D01*
X8900000Y-17800000D02*
X9400000Y-17800000D01*
X9600000Y-15300000D02*
X8500000Y-14200000D01*
X15100000Y-29000000D02*
X8500000Y-22400000D01*
X8500000Y-22400000D02*
X8500000Y-21900000D01*
%TO.N,LR2021_RST*%
X9300000Y-12000000D02*
X8500000Y-12800000D01*
X34600000Y-24700000D02*
X20800000Y-24700000D01*
X20800000Y-24700000D02*
X17100000Y-21000000D01*
X12000000Y-12000000D02*
X9300000Y-12000000D01*
X14000000Y-14000000D02*
X12000000Y-12000000D01*
%TO.N,LR2021_DIO9*%
X11500000Y-12400000D02*
X9500000Y-12400000D01*
X9500000Y-12400000D02*
X9400000Y-12500000D01*
X9400000Y-13200000D02*
X9000000Y-13600000D01*
X7600000Y-13800000D02*
X7600000Y-14700000D01*
X9000000Y-13600000D02*
X7800000Y-13600000D01*
X13700000Y-14600000D02*
X11500000Y-12400000D01*
X7600000Y-14700000D02*
X8500000Y-15600000D01*
X14800000Y-14600000D02*
X13700000Y-14600000D01*
X7800000Y-13600000D02*
X7600000Y-13800000D01*
X34900000Y-23000000D02*
X31300000Y-19400000D01*
X9400000Y-12500000D02*
X9400000Y-13200000D01*
X31300000Y-19400000D02*
X19000000Y-19400000D01*
%TO.N,GPS_RX*%
X4200000Y-18400000D02*
X4700000Y-18900000D01*
X8500000Y-9800000D02*
X4200000Y-14100000D01*
X4700000Y-18900000D02*
X4700000Y-28000000D01*
X4200000Y-14100000D02*
X4200000Y-18400000D01*
%TO.N,STATUS_LED*%
X19500000Y-11000000D02*
X19500000Y-6000000D01*
X15000000Y-15500000D02*
X19500000Y-11000000D01*
%TO.N,LED_ANODE*%
X20500000Y-6000000D02*
X21500000Y-6000000D01*
%TO.N,VCAP*%
X7000000Y-16700000D02*
X7000000Y-17200000D01*
X6700000Y-16400000D02*
X7000000Y-16700000D01*
X7000000Y-17200000D02*
X7000000Y-18000000D01*
X8950000Y-17250000D02*
X8950000Y-16650000D01*
X9500000Y-20450000D02*
X9125000Y-20650000D01*
X8950000Y-16575000D02*
X8950000Y-16600000D01*
X9500000Y-20000000D02*
X9500000Y-20450000D01*
X7500000Y-37000000D02*
X7500000Y-22000000D01*
X7000000Y-17200000D02*
X7050000Y-17250000D01*
X7500000Y-22000000D02*
X9500000Y-20000000D01*
%TO.N,SOLAR_IN*%
X5600000Y-19200000D02*
X5600000Y-33100000D01*
X5600000Y-33100000D02*
X1700000Y-37000000D01*
X4800000Y-18400000D02*
X5600000Y-19200000D01*
X4800000Y-18200000D02*
X4800000Y-18400000D01*
%TO.N,FEM_TX*%
X19100000Y-5300000D02*
X22900000Y-5300000D01*
X22900000Y-5300000D02*
X34000000Y-16400000D01*
X18800000Y-9500000D02*
X18800000Y-5600000D01*
X34600000Y-18200000D02*
X35600000Y-18200000D01*
X35600000Y-18200000D02*
X38500000Y-21100000D01*
X18800000Y-5600000D02*
X19100000Y-5300000D01*
X38500000Y-21100000D02*
X38500000Y-25000000D01*
X34000000Y-16400000D02*
X34000000Y-17600000D01*
X34000000Y-17600000D02*
X34600000Y-18200000D01*
X15500000Y-12800000D02*
X18800000Y-9500000D01*
%TO.N,RF_SUB_868*%
X35800000Y-29600000D02*
X35200000Y-30200000D01*
X41400000Y-29600000D02*
X35800000Y-29600000D01*
X35200000Y-30200000D02*
X17900000Y-30200000D01*
X46000000Y-25000000D02*
X41400000Y-29600000D01*
X17900000Y-30200000D02*
X15100000Y-33000000D01*
%TO.N,RF_2G4_2400*%
X45100000Y-29100000D02*
X46000000Y-30000000D01*
X43900000Y-29100000D02*
X45100000Y-29100000D01*
X40000000Y-33000000D02*
X43900000Y-29100000D01*
X34900000Y-33000000D02*
X40000000Y-33000000D01*
%TD*%
M02*
