%TF.GenerationSoftware,KiCad,Pcbnew,9.0.8+dfsg-1*%
%TF.CreationDate,2026-10-02T17:51:11+02:00*%
%TF.ProjectId,v1_fast_krt_margin,76315f66-6173-4745-9f6b-72745f6d6172,rev?*%
%TF.SameCoordinates,Original*%
%TF.FileFunction,Soldermask,Top*%
%TF.FilePolarity,Negative*%
%FSLAX46Y46*%
G04 Gerber Fmt 4.6, Leading zero omitted, Abs format (unit mm)*
G04 Created by KiCad (PCBNEW 9.0.8+dfsg-1) date 2026-10-02 17:51:11*
%MOMM*%
%LPD*%
G01*
G04 APERTURE LIST*
%ADD10R,1.000000X1.000000*%
%ADD11R,0.700000X0.600000*%
%ADD12R,1.200000X0.800000*%
%ADD13R,1.500000X0.800000*%
%ADD14R,1.000000X0.600000*%
%ADD15R,0.800000X0.600000*%
%ADD16R,0.600000X0.500000*%
%ADD17R,1.600000X1.600000*%
%ADD18R,0.600000X0.400000*%
%ADD19R,1.000000X0.800000*%
G04 APERTURE END LIST*
D10*
%TO.C,ANT1*%
X46000000Y-25000000D03*
X44500000Y-25000000D03*
X47500000Y-25000000D03*
%TD*%
D11*
%TO.C,C1*%
X9500000Y-20000000D03*
X10500000Y-20000000D03*
%TD*%
D12*
%TO.C,U2*%
X15100000Y-17000000D03*
X15100000Y-19000000D03*
X15100000Y-21000000D03*
X15100000Y-23000000D03*
X15100000Y-25000000D03*
X15100000Y-27000000D03*
X15100000Y-29000000D03*
X15100000Y-31000000D03*
D13*
X15100000Y-33000000D03*
D12*
X34900000Y-17000000D03*
X34900000Y-19000000D03*
X34900000Y-23000000D03*
X34900000Y-25000000D03*
X34900000Y-29000000D03*
X34900000Y-31000000D03*
D13*
X34900000Y-33000000D03*
%TD*%
D14*
%TO.C,U1*%
X15500000Y-9750000D03*
X8500000Y-9750000D03*
X8500000Y-11250000D03*
X8500000Y-12750000D03*
X8500000Y-14250000D03*
X8500000Y-15750000D03*
X10500000Y-15500000D03*
X12000000Y-15500000D03*
X15000000Y-15500000D03*
X16500000Y-15500000D03*
X15500000Y-12750000D03*
X15500000Y-8250000D03*
%TD*%
D15*
%TO.C,D1*%
X5000000Y-18000000D03*
X7000000Y-18000000D03*
%TD*%
D16*
%TO.C,R_PD*%
X10000000Y-13000000D03*
X11000000Y-13000000D03*
%TD*%
D17*
%TO.C,C_CAP*%
X7500000Y-37000000D03*
X12500000Y-37000000D03*
%TD*%
D10*
%TO.C,ANT2*%
X46000000Y-30000000D03*
X44500000Y-30000000D03*
X47500000Y-30000000D03*
%TD*%
D11*
%TO.C,C2*%
X9500000Y-22000000D03*
X10500000Y-22000000D03*
%TD*%
D16*
%TO.C,R_LED*%
X19500000Y-6000000D03*
X20500000Y-6000000D03*
%TD*%
D11*
%TO.C,LED1*%
X21500000Y-6000000D03*
X22500000Y-6000000D03*
%TD*%
D17*
%TO.C,SOLAR*%
X1730000Y-37000000D03*
X4270000Y-37000000D03*
%TD*%
D18*
%TO.C,U4*%
X7050000Y-17250000D03*
X8000000Y-17250000D03*
X8950000Y-17250000D03*
X8950000Y-18750000D03*
%TD*%
D19*
%TO.C,U3*%
X2000000Y-28000000D03*
X3300000Y-28000000D03*
X4700000Y-28000000D03*
%TD*%
%TO.C,FEM*%
X41500000Y-25000000D03*
X38500000Y-25000000D03*
X40000000Y-25000000D03*
%TD*%
M02*
