%TF.GenerationSoftware,KiCad,Pcbnew,9.0.8+dfsg-1*%
%TF.CreationDate,2026-10-07T03:34:45+02:00*%
%TF.ProjectId,v8j_krt_ms5611,76386a5f-6b72-4745-9f6d-73353631312e,rev?*%
%TF.SameCoordinates,Original*%
%TF.FileFunction,Soldermask,Top*%
%TF.FilePolarity,Negative*%
%FSLAX46Y46*%
G04 Gerber Fmt 4.6, Leading zero omitted, Abs format (unit mm)*
G04 Created by KiCad (PCBNEW 9.0.8+dfsg-1) date 2026-10-07 03:34:45*
%MOMM*%
%LPD*%
G01*
G04 APERTURE LIST*
G04 Aperture macros list*
%AMRoundRect*
0 Rectangle with rounded corners*
0 $1 Rounding radius*
0 $2 $3 $4 $5 $6 $7 $8 $9 X,Y pos of 4 corners*
0 Add a 4 corners polygon primitive as box body*
4,1,4,$2,$3,$4,$5,$6,$7,$8,$9,$2,$3,0*
0 Add four circle primitives for the rounded corners*
1,1,$1+$1,$2,$3*
1,1,$1+$1,$4,$5*
1,1,$1+$1,$6,$7*
1,1,$1+$1,$8,$9*
0 Add four rect primitives between the rounded corners*
20,1,$1+$1,$2,$3,$4,$5,0*
20,1,$1+$1,$4,$5,$6,$7,0*
20,1,$1+$1,$6,$7,$8,$9,0*
20,1,$1+$1,$8,$9,$2,$3,0*%
G04 Aperture macros list end*
%ADD10C,2.200000*%
%ADD11RoundRect,0.100000X0.400000X0.400000X-0.400000X0.400000X-0.400000X-0.400000X0.400000X-0.400000X0*%
%ADD12RoundRect,0.105000X0.420000X0.995000X-0.420000X0.995000X-0.420000X-0.995000X0.420000X-0.995000X0*%
%ADD13RoundRect,0.135000X-0.185000X0.135000X-0.185000X-0.135000X0.185000X-0.135000X0.185000X0.135000X0*%
%ADD14RoundRect,0.135000X0.135000X0.185000X-0.135000X0.185000X-0.135000X-0.185000X0.135000X-0.185000X0*%
%ADD15RoundRect,0.150000X-0.512500X-0.150000X0.512500X-0.150000X0.512500X0.150000X-0.512500X0.150000X0*%
%ADD16RoundRect,0.225000X0.225000X0.375000X-0.225000X0.375000X-0.225000X-0.375000X0.225000X-0.375000X0*%
%ADD17R,0.950000X0.550000*%
%ADD18RoundRect,0.250000X0.750000X-0.750000X0.750000X0.750000X-0.750000X0.750000X-0.750000X-0.750000X0*%
%ADD19C,2.000000*%
%ADD20RoundRect,0.225000X-0.225000X-0.250000X0.225000X-0.250000X0.225000X0.250000X-0.225000X0.250000X0*%
%ADD21R,1.700000X1.700000*%
%ADD22C,1.700000*%
%ADD23RoundRect,0.140000X-0.140000X-0.170000X0.140000X-0.170000X0.140000X0.170000X-0.140000X0.170000X0*%
%ADD24R,2.000000X0.700000*%
%ADD25RoundRect,0.135000X0.185000X-0.135000X0.185000X0.135000X-0.185000X0.135000X-0.185000X-0.135000X0*%
%ADD26RoundRect,0.140000X0.170000X-0.140000X0.170000X0.140000X-0.170000X0.140000X-0.170000X-0.140000X0*%
%ADD27RoundRect,0.218750X-0.218750X-0.256250X0.218750X-0.256250X0.218750X0.256250X-0.218750X0.256250X0*%
%ADD28RoundRect,0.135000X-0.135000X-0.185000X0.135000X-0.185000X0.135000X0.185000X-0.135000X0.185000X0*%
%ADD29RoundRect,0.140000X-0.170000X0.140000X-0.170000X-0.140000X0.170000X-0.140000X0.170000X0.140000X0*%
%ADD30R,1.500000X0.900000*%
%ADD31C,0.600000*%
%ADD32R,2.900000X2.900000*%
%ADD33RoundRect,0.175000X-0.725000X-0.175000X0.725000X-0.175000X0.725000X0.175000X-0.725000X0.175000X0*%
%ADD34RoundRect,0.200000X-0.700000X-0.200000X0.700000X-0.200000X0.700000X0.200000X-0.700000X0.200000X0*%
%ADD35RoundRect,0.100000X-0.400000X-0.400000X0.400000X-0.400000X0.400000X0.400000X-0.400000X0.400000X0*%
%ADD36RoundRect,0.105000X-0.420000X-0.995000X0.420000X-0.995000X0.420000X0.995000X-0.420000X0.995000X0*%
G04 APERTURE END LIST*
D10*
%TO.C,MNT3*%
X42450000Y-37000000D03*
%TD*%
D11*
%TO.C,ANT1*%
X51000000Y-23500000D03*
D12*
X49525000Y-22000000D03*
D11*
X51000000Y-20500000D03*
D12*
X52475000Y-22000000D03*
%TD*%
D13*
%TO.C,R_LED*%
X30000000Y-31490000D03*
X30000000Y-32510000D03*
%TD*%
D14*
%TO.C,R_DIV1*%
X4510000Y-36000000D03*
X3490000Y-36000000D03*
%TD*%
D15*
%TO.C,U4*%
X17862500Y-29050000D03*
X17862500Y-30000000D03*
X17862500Y-30950000D03*
X20137500Y-30950000D03*
X20137500Y-29050000D03*
%TD*%
D10*
%TO.C,MNT4*%
X15000000Y-42000000D03*
%TD*%
D16*
%TO.C,D1*%
X25650000Y-23000000D03*
X22350000Y-23000000D03*
%TD*%
D17*
%TO.C,U5*%
X21925000Y-34125000D03*
X21925000Y-35375000D03*
X21925000Y-36625000D03*
X21925000Y-37875000D03*
X24075000Y-37875000D03*
X24075000Y-36625000D03*
X24075000Y-35375000D03*
X24075000Y-34125000D03*
%TD*%
D18*
%TO.C,C_CAP*%
X6000000Y-30000000D03*
D19*
X6000000Y-25000000D03*
%TD*%
D20*
%TO.C,C2*%
X24225000Y-9000000D03*
X25775000Y-9000000D03*
%TD*%
D21*
%TO.C,J2*%
X40000000Y-42000000D03*
D22*
X42540000Y-42000000D03*
X45080000Y-42000000D03*
X47620000Y-42000000D03*
%TD*%
D23*
%TO.C,C_SH1*%
X49520000Y-32500000D03*
X50480000Y-32500000D03*
%TD*%
D24*
%TO.C,U2*%
X47905000Y-3840000D03*
X47905000Y-5130000D03*
X47905000Y-6420000D03*
X47905000Y-7710000D03*
X47905000Y-9000000D03*
X47905000Y-10290000D03*
X47905000Y-11580000D03*
X47905000Y-12870000D03*
X47905000Y-14160000D03*
X28095000Y-14160000D03*
X28095000Y-12870000D03*
X28095000Y-11580000D03*
X28095000Y-10290000D03*
X28095000Y-9000000D03*
X28095000Y-7710000D03*
X28095000Y-6420000D03*
X28095000Y-5130000D03*
X28095000Y-3840000D03*
%TD*%
D13*
%TO.C,R_PD*%
X14000000Y-35490000D03*
X14000000Y-36510000D03*
%TD*%
D25*
%TO.C,R_SER*%
X51500000Y-35010000D03*
X51500000Y-33990000D03*
%TD*%
D26*
%TO.C,C3*%
X19000000Y-25480000D03*
X19000000Y-24520000D03*
%TD*%
D21*
%TO.C,SOLAR*%
X4000000Y-42000000D03*
D22*
X6540000Y-42000000D03*
%TD*%
D20*
%TO.C,C1*%
X14225000Y-23000000D03*
X15775000Y-23000000D03*
%TD*%
D27*
%TO.C,LED1*%
X37212500Y-36000000D03*
X38787500Y-36000000D03*
%TD*%
D28*
%TO.C,R_DIV2*%
X8490000Y-38000000D03*
X9510000Y-38000000D03*
%TD*%
D29*
%TO.C,C4*%
X51000000Y-10520000D03*
X51000000Y-11480000D03*
%TD*%
D10*
%TO.C,MNT2*%
X24550000Y-28650000D03*
%TD*%
D30*
%TO.C,U1*%
X4250000Y-6000000D03*
X4250000Y-7500000D03*
X4250000Y-9000000D03*
X4250000Y-10500000D03*
X4250000Y-12000000D03*
X4250000Y-13500000D03*
X4250000Y-15000000D03*
X4250000Y-16500000D03*
X4250000Y-18000000D03*
X21750000Y-18000000D03*
X21750000Y-16500000D03*
X21750000Y-15000000D03*
X21750000Y-13500000D03*
X21750000Y-12000000D03*
X21750000Y-10500000D03*
X21750000Y-9000000D03*
X21750000Y-7500000D03*
X21750000Y-6000000D03*
D31*
X12860000Y-11650000D03*
X12860000Y-12750000D03*
X13410000Y-11100000D03*
X13410000Y-12200000D03*
X13410000Y-13300000D03*
X13960000Y-11650000D03*
D32*
X13960000Y-12200000D03*
D31*
X13960000Y-12750000D03*
X14510000Y-11100000D03*
X14510000Y-12200000D03*
X14510000Y-13300000D03*
X15060000Y-11650000D03*
X15060000Y-12750000D03*
%TD*%
D21*
%TO.C,J1*%
X20000000Y-42000000D03*
D22*
X22540000Y-42000000D03*
X25080000Y-42000000D03*
X27620000Y-42000000D03*
X30160000Y-42000000D03*
X32700000Y-42000000D03*
%TD*%
D33*
%TO.C,U3*%
X34250000Y-22600000D03*
D34*
X34250000Y-23700000D03*
X34250000Y-24800000D03*
X34250000Y-25900000D03*
X34250000Y-27000000D03*
X34250000Y-28100000D03*
X34250000Y-29200000D03*
X34250000Y-30300000D03*
D33*
X34250000Y-31400000D03*
X43750000Y-31400000D03*
D34*
X43750000Y-30300000D03*
X43750000Y-29200000D03*
X43750000Y-28100000D03*
X43750000Y-27000000D03*
X43750000Y-25900000D03*
X43750000Y-24800000D03*
X43750000Y-23700000D03*
D33*
X43750000Y-22600000D03*
%TD*%
D23*
%TO.C,C_SH2*%
X49520000Y-37000000D03*
X50480000Y-37000000D03*
%TD*%
D35*
%TO.C,ANT2*%
X52200000Y-40500000D03*
D36*
X53675000Y-42000000D03*
D35*
X52200000Y-43500000D03*
D36*
X50725000Y-42000000D03*
%TD*%
D10*
%TO.C,MNT1*%
X52300000Y-2900000D03*
%TD*%
M02*
