M48
; DRILL file {KiCad 9.0.8+dfsg-1} date 2026-08-05T13:45:44+0530
; FORMAT={-:-/ absolute / metric / decimal}
; #@! TF.CreationDate,2026-08-05T13:45:44+05:30
; #@! TF.GenerationSoftware,Kicad,Pcbnew,9.0.8+dfsg-1
; #@! TF.FileFunction,MixedPlating,1,2
FMAT,2
METRIC
; #@! TA.AperFunction,Plated,PTH,ViaDrill
T1C0.300
; #@! TA.AperFunction,Plated,PTH,ComponentDrill
T2C0.800
; #@! TA.AperFunction,Plated,PTH,ComponentDrill
T3C1.000
%
G90
G05
T1
X3.0Y-37.0
X3.5Y-15.0
X3.5Y-15.81
X3.5Y-15.81
X4.5Y-15.0
X5.0Y-15.81
X5.0Y-21.05
X5.0Y-35.0
X5.0Y-35.0
X5.5Y-14.0
X5.95Y-22.0
X5.95Y-22.95
X6.0Y-24.0
X7.0Y-30.0
X8.0Y-18.0
X8.0Y-37.0
X9.46Y-3.11
X9.46Y-5.0
X9.46Y-5.0
X9.46Y-15.81
X10.0Y-5.0
X10.0Y-5.65
X10.0Y-15.0
X10.0Y-25.0
X10.0Y-37.0
X12.0Y-5.0
X14.54Y-4.0
X15.0Y-35.0
X15.095Y-19.84
X15.5Y-20.5
X15.5Y-29.5
X15.6Y-30.16
X16.0Y-30.0
X16.0Y-30.0
X18.0Y-4.0
X20.0Y-5.0
X20.0Y-15.0
X20.0Y-25.0
X25.0Y-5.0
X25.0Y-19.84
X25.0Y-35.0
X30.0Y-5.0
X30.0Y-15.0
X30.0Y-25.0
X34.5Y-20.5
X34.5Y-23.0
X34.5Y-30.5
X34.905Y-26.29
X35.0Y-35.0
X37.0Y-37.0
X38.0Y-3.11
X38.0Y-5.0
X38.0Y-5.0
X38.0Y-13.61
X40.0Y-5.0
X42.0Y-5.0
X44.0Y-33.0
X44.0Y-34.27
X44.5Y-30.0
X45.0Y-30.0
X45.0Y-30.0
X45.0Y-35.0
X47.0Y-17.0
X47.0Y-25.0
T2
X3.0Y-35.73
X3.0Y-38.27
X6.0Y-29.19
X6.0Y-31.73
X6.0Y-34.27
X6.0Y-36.81
X6.25Y-37.0
X9.46Y-3.11
X9.46Y-5.65
X9.46Y-8.19
X9.46Y-10.73
X9.46Y-13.27
X9.46Y-15.81
X9.46Y-18.35
X9.46Y-20.89
X9.75Y-37.0
X14.54Y-18.35
X14.54Y-20.89
X38.0Y-3.11
X38.0Y-4.61
X38.0Y-6.11
X38.0Y-7.61
X38.0Y-9.11
X38.0Y-10.61
X38.0Y-12.11
X38.0Y-13.61
X38.0Y-15.11
X38.0Y-16.61
X38.0Y-18.11
X38.0Y-19.61
X38.0Y-21.11
X44.0Y-29.19
X44.0Y-31.73
X44.0Y-34.27
X44.0Y-36.81
T3
X48.0Y-20.0
X48.0Y-25.0
M30
