%TF.GenerationSoftware,KiCad,Pcbnew,9.0.8+dfsg-1*%
%TF.CreationDate,2026-08-05T13:45:29+05:30*%
%TF.ProjectId,hub_board_v1,6875625f-626f-4617-9264-5f76312e6b69,rev?*%
%TF.SameCoordinates,Original*%
%TF.FileFunction,Copper,L2,Bot*%
%TF.FilePolarity,Positive*%
%FSLAX46Y46*%
G04 Gerber Fmt 4.6, Leading zero omitted, Abs format (unit mm)*
G04 Created by KiCad (PCBNEW 9.0.8+dfsg-1) date 2026-08-05 13:45:29*
%MOMM*%
%LPD*%
G01*
G04 APERTURE LIST*
%TA.AperFunction,ComponentPad*%
%ADD10R,1.700000X1.700000*%
%TD*%
%TA.AperFunction,ComponentPad*%
%ADD11O,1.700000X1.700000*%
%TD*%
%TA.AperFunction,ComponentPad*%
%ADD12R,1.500000X1.500000*%
%TD*%
%TA.AperFunction,ComponentPad*%
%ADD13O,1.500000X1.500000*%
%TD*%
%TA.AperFunction,ComponentPad*%
%ADD14C,2.000000*%
%TD*%
%TA.AperFunction,ViaPad*%
%ADD15C,0.600000*%
%TD*%
%TA.AperFunction,Conductor*%
%ADD16C,0.500000*%
%TD*%
%TA.AperFunction,Conductor*%
%ADD17C,0.250000*%
%TD*%
%TA.AperFunction,Conductor*%
%ADD18C,0.800000*%
%TD*%
G04 APERTURE END LIST*
D10*
%TO.P,U,1*%
%TO.N,3V3*%
X9460000Y-3110000D03*
D11*
%TO.P,U,2*%
%TO.N,GND*%
X9460000Y-5650000D03*
%TO.P,U,3*%
%TO.N,ESP_TX_RP2040_RX*%
X9460000Y-8190000D03*
%TO.P,U,4*%
%TO.N,RP2040_TX_ESP_RX*%
X9460000Y-10730000D03*
%TO.P,U,5*%
%TO.N,GPS_TX_ESP_RX*%
X9460000Y-13270000D03*
%TO.P,U,6*%
%TO.N,VDIV_MID*%
X9460000Y-15810000D03*
%TO.P,U,7*%
%TO.N,I2C_SDA*%
X9460000Y-18350000D03*
%TO.P,U,8*%
%TO.N,I2C_SCL*%
X9460000Y-20890000D03*
%TO.P,U,9*%
%TO.N,N/C*%
X14540000Y-20890000D03*
%TO.P,U,10*%
X14540000Y-18350000D03*
%TD*%
D10*
%TO.P,U1,1*%
%TO.N,3V3*%
X38000000Y-3110000D03*
D11*
%TO.P,U1,2*%
%TO.N,GND*%
X38000000Y-4610000D03*
%TO.P,U1,3*%
%TO.N,SPI0_SCK*%
X38000000Y-6110000D03*
%TO.P,U1,4*%
%TO.N,SPI0_MOSI*%
X38000000Y-7610000D03*
%TO.P,U1,5*%
%TO.N,SPI0_MISO*%
X38000000Y-9110000D03*
%TO.P,U1,6*%
%TO.N,SPI0_NSS*%
X38000000Y-10610000D03*
%TO.P,U1,7*%
%TO.N,LR2021_BUSY*%
X38000000Y-12110000D03*
%TO.P,U1,8*%
%TO.N,LR2021_DIO9*%
X38000000Y-13610000D03*
%TO.P,U1,9*%
%TO.N,LR2021_RST*%
X38000000Y-15110000D03*
%TO.P,U1,10*%
%TO.N,N/C*%
X38000000Y-16610000D03*
%TO.P,U1,11*%
%TO.N,RP2040_TX_ESP_RX*%
X38000000Y-18110000D03*
%TO.P,U1,12*%
%TO.N,ESP_TX_RP2040_RX*%
X38000000Y-19610000D03*
%TO.P,U1,13*%
%TO.N,GND*%
X38000000Y-21110000D03*
%TD*%
%TO.P,U3,1*%
%TO.N,3V3*%
X6000000Y-29190000D03*
%TO.P,U3,2*%
%TO.N,GND*%
X6000000Y-31730000D03*
%TO.P,U3,3*%
%TO.N,GPS_TX_ESP_RX*%
X6000000Y-34270000D03*
%TO.P,U3,4*%
%TO.N,N/C*%
X6000000Y-36810000D03*
%TD*%
%TO.P,U4,1*%
%TO.N,3V3*%
X44000000Y-29190000D03*
%TO.P,U4,2*%
%TO.N,GND*%
X44000000Y-31730000D03*
%TO.P,U4,3*%
%TO.N,I2C_SDA*%
X44000000Y-34270000D03*
%TO.P,U4,4*%
%TO.N,I2C_SCL*%
X44000000Y-36810000D03*
%TD*%
D12*
%TO.P,SC,1*%
%TO.N,VCAP*%
X6250000Y-37000000D03*
D13*
%TO.P,SC,2*%
%TO.N,GND*%
X9750000Y-37000000D03*
%TD*%
D10*
%TO.P,J,1*%
%TO.N,SOLAR_IN*%
X3000000Y-35730000D03*
D11*
%TO.P,J,2*%
%TO.N,GND*%
X3000000Y-38270000D03*
%TD*%
D14*
%TO.P,AE1,1*%
%TO.N,RF_SUB_868*%
X48000000Y-20000000D03*
%TD*%
%TO.P,AE2,1*%
%TO.N,RF_2G4_2400*%
X48000000Y-25000000D03*
%TD*%
D15*
%TO.N,3V3*%
X9460000Y-3110000D03*
X9460000Y-5000000D03*
X9460000Y-5000000D03*
X38000000Y-5000000D03*
X38000000Y-5000000D03*
X38000000Y-3110000D03*
X25000000Y-5000000D03*
X25000000Y-19840000D03*
X15095000Y-19840000D03*
X12000000Y-5000000D03*
X42000000Y-5000000D03*
%TO.N,GND*%
X10000000Y-5000000D03*
X20000000Y-5000000D03*
X30000000Y-5000000D03*
X40000000Y-5000000D03*
X10000000Y-15000000D03*
X20000000Y-15000000D03*
X30000000Y-15000000D03*
X10000000Y-25000000D03*
X20000000Y-25000000D03*
X30000000Y-25000000D03*
X5000000Y-35000000D03*
X15000000Y-35000000D03*
X25000000Y-35000000D03*
X35000000Y-35000000D03*
X45000000Y-35000000D03*
X10000000Y-5650000D03*
X15500000Y-20500000D03*
X15500000Y-29500000D03*
X34500000Y-20500000D03*
X34500000Y-23000000D03*
X34500000Y-30500000D03*
X5000000Y-21050000D03*
X6000000Y-24000000D03*
X5500000Y-14000000D03*
X44500000Y-30000000D03*
X45000000Y-30000000D03*
X45000000Y-30000000D03*
X37000000Y-37000000D03*
X3000000Y-37000000D03*
X10000000Y-37000000D03*
X7000000Y-30000000D03*
X5000000Y-35000000D03*
X15600000Y-30160000D03*
X16000000Y-30000000D03*
X16000000Y-30000000D03*
%TO.N,VCAP*%
X8000000Y-18000000D03*
X8000000Y-37000000D03*
X5950000Y-22000000D03*
X5950000Y-22950000D03*
%TO.N,LR2021_DIO9*%
X38000000Y-13610000D03*
X34905000Y-26290000D03*
%TO.N,I2C_SDA*%
X44000000Y-33000000D03*
X44000000Y-34270000D03*
%TO.N,STATUS_LED*%
X14540000Y-4000000D03*
X18000000Y-4000000D03*
%TO.N,VDIV_MID*%
X9460000Y-15810000D03*
X3500000Y-15810000D03*
X3500000Y-15810000D03*
X3500000Y-15000000D03*
X4500000Y-15000000D03*
X5000000Y-15810000D03*
%TO.N,RF_2G4_2400*%
X47000000Y-17000000D03*
X47000000Y-25000000D03*
%TD*%
D16*
%TO.N,3V3*%
X9460000Y-3110000D02*
X9460000Y-5000000D01*
X9460000Y-5000000D02*
X38000000Y-5000000D01*
X38000000Y-5000000D02*
X38000000Y-3110000D01*
X25000000Y-5000000D02*
X25000000Y-19840000D01*
X25000000Y-19840000D02*
X15095000Y-19840000D01*
X12000000Y-5000000D02*
X12000000Y-29190000D01*
X42000000Y-5000000D02*
X42000000Y-29190000D01*
D17*
%TO.N,GND*%
X44500000Y-30000000D02*
X45000000Y-30000000D01*
X15600000Y-30160000D02*
X16000000Y-30000000D01*
D16*
%TO.N,VCAP*%
X8000000Y-18000000D02*
X8000000Y-37000000D01*
D17*
X5950000Y-22000000D02*
X5950000Y-22950000D01*
%TO.N,LR2021_DIO9*%
X38000000Y-13610000D02*
X34905000Y-26290000D01*
%TO.N,I2C_SDA*%
X44000000Y-33000000D02*
X44000000Y-34270000D01*
%TO.N,STATUS_LED*%
X14540000Y-4000000D02*
X18000000Y-4000000D01*
%TO.N,VDIV_MID*%
X9460000Y-15810000D02*
X3500000Y-15810000D01*
X3500000Y-15810000D02*
X3500000Y-15000000D01*
X4500000Y-15000000D02*
X5000000Y-15810000D01*
D18*
%TO.N,RF_2G4_2400*%
X47000000Y-17000000D02*
X47000000Y-25000000D01*
%TD*%
M02*
