M48
; DRILL file {KiCad 9.0.8+dfsg-1} date 2026-07-29T21:22:38+0530
; FORMAT={-:-/ absolute / metric / decimal}
; #@! TF.CreationDate,2026-07-29T21:22:38+05:30
; #@! TF.GenerationSoftware,Kicad,Pcbnew,9.0.8+dfsg-1
; #@! TF.FileFunction,MixedPlating,1,2
FMAT,2
METRIC
; #@! TA.AperFunction,Plated,PTH,ViaDrill
T1C0.300
; #@! TA.AperFunction,Plated,PTH,ComponentDrill
T2C0.800
; #@! TA.AperFunction,Plated,PTH,ComponentDrill
T3C1.000
%
G90
G05
T1
X4.0Y-13.27
X4.0Y-34.27
X5.0Y-35.0
X6.0Y-20.89
X7.0Y-18.35
X8.0Y-8.19
X8.0Y-19.61
X9.46Y-10.73
X10.0Y-5.0
X15.0Y-20.0
X20.0Y-30.0
X30.0Y-15.0
X33.0Y-12.11
X33.0Y-18.11
X33.0Y-22.42
X35.0Y-5.0
X40.0Y-35.0
X44.0Y-33.0
X44.0Y-35.54
T2
X3.0Y-35.73
X3.0Y-38.27
X6.0Y-29.19
X6.0Y-31.73
X6.0Y-34.27
X6.0Y-36.81
X6.25Y-37.0
X9.46Y-3.11
X9.46Y-5.65
X9.46Y-8.19
X9.46Y-10.73
X9.46Y-13.27
X9.46Y-15.81
X9.46Y-18.35
X9.46Y-20.89
X9.75Y-37.0
X14.54Y-18.35
X14.54Y-20.89
X38.0Y-3.11
X38.0Y-4.61
X38.0Y-6.11
X38.0Y-7.61
X38.0Y-9.11
X38.0Y-10.61
X38.0Y-12.11
X38.0Y-13.61
X38.0Y-15.11
X38.0Y-16.61
X38.0Y-18.11
X38.0Y-19.61
X38.0Y-21.11
X44.0Y-29.19
X44.0Y-31.73
X44.0Y-34.27
X44.0Y-36.81
T3
X48.0Y-20.0
X48.0Y-25.0
M30
