%TF.GenerationSoftware,KiCad,Pcbnew,9.0.8+dfsg-1*%
%TF.CreationDate,2026-07-29T21:22:37+05:30*%
%TF.ProjectId,hub_board_v1,6875625f-626f-4617-9264-5f76312e6b69,rev?*%
%TF.SameCoordinates,Original*%
%TF.FileFunction,AssemblyDrawing,Top*%
%FSLAX46Y46*%
G04 Gerber Fmt 4.6, Leading zero omitted, Abs format (unit mm)*
G04 Created by KiCad (PCBNEW 9.0.8+dfsg-1) date 2026-07-29 21:22:37*
%MOMM*%
%LPD*%
G01*
G04 APERTURE LIST*
%ADD10C,0.150000*%
%ADD11C,0.100000*%
%ADD12C,0.080000*%
%ADD13C,0.060000*%
G04 APERTURE END LIST*
D10*
X5047620Y-23431009D02*
X5380953Y-23431009D01*
X5523810Y-23954819D02*
X5047620Y-23954819D01*
X5047620Y-23954819D02*
X5047620Y-22954819D01*
X5047620Y-22954819D02*
X5523810Y-22954819D01*
X5904763Y-23907200D02*
X6047620Y-23954819D01*
X6047620Y-23954819D02*
X6285715Y-23954819D01*
X6285715Y-23954819D02*
X6380953Y-23907200D01*
X6380953Y-23907200D02*
X6428572Y-23859580D01*
X6428572Y-23859580D02*
X6476191Y-23764342D01*
X6476191Y-23764342D02*
X6476191Y-23669104D01*
X6476191Y-23669104D02*
X6428572Y-23573866D01*
X6428572Y-23573866D02*
X6380953Y-23526247D01*
X6380953Y-23526247D02*
X6285715Y-23478628D01*
X6285715Y-23478628D02*
X6095239Y-23431009D01*
X6095239Y-23431009D02*
X6000001Y-23383390D01*
X6000001Y-23383390D02*
X5952382Y-23335771D01*
X5952382Y-23335771D02*
X5904763Y-23240533D01*
X5904763Y-23240533D02*
X5904763Y-23145295D01*
X5904763Y-23145295D02*
X5952382Y-23050057D01*
X5952382Y-23050057D02*
X6000001Y-23002438D01*
X6000001Y-23002438D02*
X6095239Y-22954819D01*
X6095239Y-22954819D02*
X6333334Y-22954819D01*
X6333334Y-22954819D02*
X6476191Y-23002438D01*
X6904763Y-23954819D02*
X6904763Y-22954819D01*
X6904763Y-22954819D02*
X7285715Y-22954819D01*
X7285715Y-22954819D02*
X7380953Y-23002438D01*
X7380953Y-23002438D02*
X7428572Y-23050057D01*
X7428572Y-23050057D02*
X7476191Y-23145295D01*
X7476191Y-23145295D02*
X7476191Y-23288152D01*
X7476191Y-23288152D02*
X7428572Y-23383390D01*
X7428572Y-23383390D02*
X7380953Y-23431009D01*
X7380953Y-23431009D02*
X7285715Y-23478628D01*
X7285715Y-23478628D02*
X6904763Y-23478628D01*
X7809525Y-22954819D02*
X8428572Y-22954819D01*
X8428572Y-22954819D02*
X8095239Y-23335771D01*
X8095239Y-23335771D02*
X8238096Y-23335771D01*
X8238096Y-23335771D02*
X8333334Y-23383390D01*
X8333334Y-23383390D02*
X8380953Y-23431009D01*
X8380953Y-23431009D02*
X8428572Y-23526247D01*
X8428572Y-23526247D02*
X8428572Y-23764342D01*
X8428572Y-23764342D02*
X8380953Y-23859580D01*
X8380953Y-23859580D02*
X8333334Y-23907200D01*
X8333334Y-23907200D02*
X8238096Y-23954819D01*
X8238096Y-23954819D02*
X7952382Y-23954819D01*
X7952382Y-23954819D02*
X7857144Y-23907200D01*
X7857144Y-23907200D02*
X7809525Y-23859580D01*
X8809525Y-23050057D02*
X8857144Y-23002438D01*
X8857144Y-23002438D02*
X8952382Y-22954819D01*
X8952382Y-22954819D02*
X9190477Y-22954819D01*
X9190477Y-22954819D02*
X9285715Y-23002438D01*
X9285715Y-23002438D02*
X9333334Y-23050057D01*
X9333334Y-23050057D02*
X9380953Y-23145295D01*
X9380953Y-23145295D02*
X9380953Y-23240533D01*
X9380953Y-23240533D02*
X9333334Y-23383390D01*
X9333334Y-23383390D02*
X8761906Y-23954819D01*
X8761906Y-23954819D02*
X9380953Y-23954819D01*
X9809525Y-23573866D02*
X10571430Y-23573866D01*
X11619048Y-23859580D02*
X11571429Y-23907200D01*
X11571429Y-23907200D02*
X11428572Y-23954819D01*
X11428572Y-23954819D02*
X11333334Y-23954819D01*
X11333334Y-23954819D02*
X11190477Y-23907200D01*
X11190477Y-23907200D02*
X11095239Y-23811961D01*
X11095239Y-23811961D02*
X11047620Y-23716723D01*
X11047620Y-23716723D02*
X11000001Y-23526247D01*
X11000001Y-23526247D02*
X11000001Y-23383390D01*
X11000001Y-23383390D02*
X11047620Y-23192914D01*
X11047620Y-23192914D02*
X11095239Y-23097676D01*
X11095239Y-23097676D02*
X11190477Y-23002438D01*
X11190477Y-23002438D02*
X11333334Y-22954819D01*
X11333334Y-22954819D02*
X11428572Y-22954819D01*
X11428572Y-22954819D02*
X11571429Y-23002438D01*
X11571429Y-23002438D02*
X11619048Y-23050057D01*
X11952382Y-22954819D02*
X12571429Y-22954819D01*
X12571429Y-22954819D02*
X12238096Y-23335771D01*
X12238096Y-23335771D02*
X12380953Y-23335771D01*
X12380953Y-23335771D02*
X12476191Y-23383390D01*
X12476191Y-23383390D02*
X12523810Y-23431009D01*
X12523810Y-23431009D02*
X12571429Y-23526247D01*
X12571429Y-23526247D02*
X12571429Y-23764342D01*
X12571429Y-23764342D02*
X12523810Y-23859580D01*
X12523810Y-23859580D02*
X12476191Y-23907200D01*
X12476191Y-23907200D02*
X12380953Y-23954819D01*
X12380953Y-23954819D02*
X12095239Y-23954819D01*
X12095239Y-23954819D02*
X12000001Y-23907200D01*
X12000001Y-23907200D02*
X11952382Y-23859580D01*
X13000001Y-23573866D02*
X13761906Y-23573866D01*
X14238096Y-23954819D02*
X14238096Y-22954819D01*
X14238096Y-22954819D02*
X14571429Y-23669104D01*
X14571429Y-23669104D02*
X14904762Y-22954819D01*
X14904762Y-22954819D02*
X14904762Y-23954819D01*
X15380953Y-23954819D02*
X15380953Y-23288152D01*
X15380953Y-22954819D02*
X15333334Y-23002438D01*
X15333334Y-23002438D02*
X15380953Y-23050057D01*
X15380953Y-23050057D02*
X15428572Y-23002438D01*
X15428572Y-23002438D02*
X15380953Y-22954819D01*
X15380953Y-22954819D02*
X15380953Y-23050057D01*
X15857143Y-23288152D02*
X15857143Y-23954819D01*
X15857143Y-23383390D02*
X15904762Y-23335771D01*
X15904762Y-23335771D02*
X16000000Y-23288152D01*
X16000000Y-23288152D02*
X16142857Y-23288152D01*
X16142857Y-23288152D02*
X16238095Y-23335771D01*
X16238095Y-23335771D02*
X16285714Y-23431009D01*
X16285714Y-23431009D02*
X16285714Y-23954819D01*
X16761905Y-23954819D02*
X16761905Y-23288152D01*
X16761905Y-22954819D02*
X16714286Y-23002438D01*
X16714286Y-23002438D02*
X16761905Y-23050057D01*
X16761905Y-23050057D02*
X16809524Y-23002438D01*
X16809524Y-23002438D02*
X16761905Y-22954819D01*
X16761905Y-22954819D02*
X16761905Y-23050057D01*
X17238095Y-23573866D02*
X18000000Y-23573866D01*
X18999999Y-23954819D02*
X18428571Y-23954819D01*
X18714285Y-23954819D02*
X18714285Y-22954819D01*
X18714285Y-22954819D02*
X18619047Y-23097676D01*
X18619047Y-23097676D02*
X18523809Y-23192914D01*
X18523809Y-23192914D02*
X18428571Y-23240533D01*
X33619047Y-32454819D02*
X33285714Y-31978628D01*
X33047619Y-32454819D02*
X33047619Y-31454819D01*
X33047619Y-31454819D02*
X33428571Y-31454819D01*
X33428571Y-31454819D02*
X33523809Y-31502438D01*
X33523809Y-31502438D02*
X33571428Y-31550057D01*
X33571428Y-31550057D02*
X33619047Y-31645295D01*
X33619047Y-31645295D02*
X33619047Y-31788152D01*
X33619047Y-31788152D02*
X33571428Y-31883390D01*
X33571428Y-31883390D02*
X33523809Y-31931009D01*
X33523809Y-31931009D02*
X33428571Y-31978628D01*
X33428571Y-31978628D02*
X33047619Y-31978628D01*
X34047619Y-32454819D02*
X34047619Y-31454819D01*
X34047619Y-31454819D02*
X34428571Y-31454819D01*
X34428571Y-31454819D02*
X34523809Y-31502438D01*
X34523809Y-31502438D02*
X34571428Y-31550057D01*
X34571428Y-31550057D02*
X34619047Y-31645295D01*
X34619047Y-31645295D02*
X34619047Y-31788152D01*
X34619047Y-31788152D02*
X34571428Y-31883390D01*
X34571428Y-31883390D02*
X34523809Y-31931009D01*
X34523809Y-31931009D02*
X34428571Y-31978628D01*
X34428571Y-31978628D02*
X34047619Y-31978628D01*
X35000000Y-31550057D02*
X35047619Y-31502438D01*
X35047619Y-31502438D02*
X35142857Y-31454819D01*
X35142857Y-31454819D02*
X35380952Y-31454819D01*
X35380952Y-31454819D02*
X35476190Y-31502438D01*
X35476190Y-31502438D02*
X35523809Y-31550057D01*
X35523809Y-31550057D02*
X35571428Y-31645295D01*
X35571428Y-31645295D02*
X35571428Y-31740533D01*
X35571428Y-31740533D02*
X35523809Y-31883390D01*
X35523809Y-31883390D02*
X34952381Y-32454819D01*
X34952381Y-32454819D02*
X35571428Y-32454819D01*
X36190476Y-31454819D02*
X36285714Y-31454819D01*
X36285714Y-31454819D02*
X36380952Y-31502438D01*
X36380952Y-31502438D02*
X36428571Y-31550057D01*
X36428571Y-31550057D02*
X36476190Y-31645295D01*
X36476190Y-31645295D02*
X36523809Y-31835771D01*
X36523809Y-31835771D02*
X36523809Y-32073866D01*
X36523809Y-32073866D02*
X36476190Y-32264342D01*
X36476190Y-32264342D02*
X36428571Y-32359580D01*
X36428571Y-32359580D02*
X36380952Y-32407200D01*
X36380952Y-32407200D02*
X36285714Y-32454819D01*
X36285714Y-32454819D02*
X36190476Y-32454819D01*
X36190476Y-32454819D02*
X36095238Y-32407200D01*
X36095238Y-32407200D02*
X36047619Y-32359580D01*
X36047619Y-32359580D02*
X36000000Y-32264342D01*
X36000000Y-32264342D02*
X35952381Y-32073866D01*
X35952381Y-32073866D02*
X35952381Y-31835771D01*
X35952381Y-31835771D02*
X36000000Y-31645295D01*
X36000000Y-31645295D02*
X36047619Y-31550057D01*
X36047619Y-31550057D02*
X36095238Y-31502438D01*
X36095238Y-31502438D02*
X36190476Y-31454819D01*
X37380952Y-31788152D02*
X37380952Y-32454819D01*
X37142857Y-31407200D02*
X36904762Y-32121485D01*
X36904762Y-32121485D02*
X37523809Y-32121485D01*
X38095238Y-31454819D02*
X38190476Y-31454819D01*
X38190476Y-31454819D02*
X38285714Y-31502438D01*
X38285714Y-31502438D02*
X38333333Y-31550057D01*
X38333333Y-31550057D02*
X38380952Y-31645295D01*
X38380952Y-31645295D02*
X38428571Y-31835771D01*
X38428571Y-31835771D02*
X38428571Y-32073866D01*
X38428571Y-32073866D02*
X38380952Y-32264342D01*
X38380952Y-32264342D02*
X38333333Y-32359580D01*
X38333333Y-32359580D02*
X38285714Y-32407200D01*
X38285714Y-32407200D02*
X38190476Y-32454819D01*
X38190476Y-32454819D02*
X38095238Y-32454819D01*
X38095238Y-32454819D02*
X38000000Y-32407200D01*
X38000000Y-32407200D02*
X37952381Y-32359580D01*
X37952381Y-32359580D02*
X37904762Y-32264342D01*
X37904762Y-32264342D02*
X37857143Y-32073866D01*
X37857143Y-32073866D02*
X37857143Y-31835771D01*
X37857143Y-31835771D02*
X37904762Y-31645295D01*
X37904762Y-31645295D02*
X37952381Y-31550057D01*
X37952381Y-31550057D02*
X38000000Y-31502438D01*
X38000000Y-31502438D02*
X38095238Y-31454819D01*
X38857143Y-32073866D02*
X39619048Y-32073866D01*
X40000000Y-31454819D02*
X40666666Y-31454819D01*
X40666666Y-31454819D02*
X40000000Y-32454819D01*
X40000000Y-32454819D02*
X40666666Y-32454819D01*
X41428571Y-32407200D02*
X41333333Y-32454819D01*
X41333333Y-32454819D02*
X41142857Y-32454819D01*
X41142857Y-32454819D02*
X41047619Y-32407200D01*
X41047619Y-32407200D02*
X41000000Y-32311961D01*
X41000000Y-32311961D02*
X41000000Y-31931009D01*
X41000000Y-31931009D02*
X41047619Y-31835771D01*
X41047619Y-31835771D02*
X41142857Y-31788152D01*
X41142857Y-31788152D02*
X41333333Y-31788152D01*
X41333333Y-31788152D02*
X41428571Y-31835771D01*
X41428571Y-31835771D02*
X41476190Y-31931009D01*
X41476190Y-31931009D02*
X41476190Y-32026247D01*
X41476190Y-32026247D02*
X41000000Y-32121485D01*
X41904762Y-32454819D02*
X41904762Y-31788152D01*
X41904762Y-31978628D02*
X41952381Y-31883390D01*
X41952381Y-31883390D02*
X42000000Y-31835771D01*
X42000000Y-31835771D02*
X42095238Y-31788152D01*
X42095238Y-31788152D02*
X42190476Y-31788152D01*
X42666667Y-32454819D02*
X42571429Y-32407200D01*
X42571429Y-32407200D02*
X42523810Y-32359580D01*
X42523810Y-32359580D02*
X42476191Y-32264342D01*
X42476191Y-32264342D02*
X42476191Y-31978628D01*
X42476191Y-31978628D02*
X42523810Y-31883390D01*
X42523810Y-31883390D02*
X42571429Y-31835771D01*
X42571429Y-31835771D02*
X42666667Y-31788152D01*
X42666667Y-31788152D02*
X42809524Y-31788152D01*
X42809524Y-31788152D02*
X42904762Y-31835771D01*
X42904762Y-31835771D02*
X42952381Y-31883390D01*
X42952381Y-31883390D02*
X43000000Y-31978628D01*
X43000000Y-31978628D02*
X43000000Y-32264342D01*
X43000000Y-32264342D02*
X42952381Y-32359580D01*
X42952381Y-32359580D02*
X42904762Y-32407200D01*
X42904762Y-32407200D02*
X42809524Y-32454819D01*
X42809524Y-32454819D02*
X42666667Y-32454819D01*
X21999999Y-34954819D02*
X21523809Y-34954819D01*
X21523809Y-34954819D02*
X21523809Y-33954819D01*
X22476190Y-34954819D02*
X22380952Y-34907200D01*
X22380952Y-34907200D02*
X22333333Y-34859580D01*
X22333333Y-34859580D02*
X22285714Y-34764342D01*
X22285714Y-34764342D02*
X22285714Y-34478628D01*
X22285714Y-34478628D02*
X22333333Y-34383390D01*
X22333333Y-34383390D02*
X22380952Y-34335771D01*
X22380952Y-34335771D02*
X22476190Y-34288152D01*
X22476190Y-34288152D02*
X22619047Y-34288152D01*
X22619047Y-34288152D02*
X22714285Y-34335771D01*
X22714285Y-34335771D02*
X22761904Y-34383390D01*
X22761904Y-34383390D02*
X22809523Y-34478628D01*
X22809523Y-34478628D02*
X22809523Y-34764342D01*
X22809523Y-34764342D02*
X22761904Y-34859580D01*
X22761904Y-34859580D02*
X22714285Y-34907200D01*
X22714285Y-34907200D02*
X22619047Y-34954819D01*
X22619047Y-34954819D02*
X22476190Y-34954819D01*
X23809523Y-34954819D02*
X23476190Y-34478628D01*
X23238095Y-34954819D02*
X23238095Y-33954819D01*
X23238095Y-33954819D02*
X23619047Y-33954819D01*
X23619047Y-33954819D02*
X23714285Y-34002438D01*
X23714285Y-34002438D02*
X23761904Y-34050057D01*
X23761904Y-34050057D02*
X23809523Y-34145295D01*
X23809523Y-34145295D02*
X23809523Y-34288152D01*
X23809523Y-34288152D02*
X23761904Y-34383390D01*
X23761904Y-34383390D02*
X23714285Y-34431009D01*
X23714285Y-34431009D02*
X23619047Y-34478628D01*
X23619047Y-34478628D02*
X23238095Y-34478628D01*
X24666666Y-34954819D02*
X24666666Y-34431009D01*
X24666666Y-34431009D02*
X24619047Y-34335771D01*
X24619047Y-34335771D02*
X24523809Y-34288152D01*
X24523809Y-34288152D02*
X24333333Y-34288152D01*
X24333333Y-34288152D02*
X24238095Y-34335771D01*
X24666666Y-34907200D02*
X24571428Y-34954819D01*
X24571428Y-34954819D02*
X24333333Y-34954819D01*
X24333333Y-34954819D02*
X24238095Y-34907200D01*
X24238095Y-34907200D02*
X24190476Y-34811961D01*
X24190476Y-34811961D02*
X24190476Y-34716723D01*
X24190476Y-34716723D02*
X24238095Y-34621485D01*
X24238095Y-34621485D02*
X24333333Y-34573866D01*
X24333333Y-34573866D02*
X24571428Y-34573866D01*
X24571428Y-34573866D02*
X24666666Y-34526247D01*
X25095238Y-34050057D02*
X25142857Y-34002438D01*
X25142857Y-34002438D02*
X25238095Y-33954819D01*
X25238095Y-33954819D02*
X25476190Y-33954819D01*
X25476190Y-33954819D02*
X25571428Y-34002438D01*
X25571428Y-34002438D02*
X25619047Y-34050057D01*
X25619047Y-34050057D02*
X25666666Y-34145295D01*
X25666666Y-34145295D02*
X25666666Y-34240533D01*
X25666666Y-34240533D02*
X25619047Y-34383390D01*
X25619047Y-34383390D02*
X25047619Y-34954819D01*
X25047619Y-34954819D02*
X25666666Y-34954819D01*
X26285714Y-33954819D02*
X26380952Y-33954819D01*
X26380952Y-33954819D02*
X26476190Y-34002438D01*
X26476190Y-34002438D02*
X26523809Y-34050057D01*
X26523809Y-34050057D02*
X26571428Y-34145295D01*
X26571428Y-34145295D02*
X26619047Y-34335771D01*
X26619047Y-34335771D02*
X26619047Y-34573866D01*
X26619047Y-34573866D02*
X26571428Y-34764342D01*
X26571428Y-34764342D02*
X26523809Y-34859580D01*
X26523809Y-34859580D02*
X26476190Y-34907200D01*
X26476190Y-34907200D02*
X26380952Y-34954819D01*
X26380952Y-34954819D02*
X26285714Y-34954819D01*
X26285714Y-34954819D02*
X26190476Y-34907200D01*
X26190476Y-34907200D02*
X26142857Y-34859580D01*
X26142857Y-34859580D02*
X26095238Y-34764342D01*
X26095238Y-34764342D02*
X26047619Y-34573866D01*
X26047619Y-34573866D02*
X26047619Y-34335771D01*
X26047619Y-34335771D02*
X26095238Y-34145295D01*
X26095238Y-34145295D02*
X26142857Y-34050057D01*
X26142857Y-34050057D02*
X26190476Y-34002438D01*
X26190476Y-34002438D02*
X26285714Y-33954819D01*
X27000000Y-34050057D02*
X27047619Y-34002438D01*
X27047619Y-34002438D02*
X27142857Y-33954819D01*
X27142857Y-33954819D02*
X27380952Y-33954819D01*
X27380952Y-33954819D02*
X27476190Y-34002438D01*
X27476190Y-34002438D02*
X27523809Y-34050057D01*
X27523809Y-34050057D02*
X27571428Y-34145295D01*
X27571428Y-34145295D02*
X27571428Y-34240533D01*
X27571428Y-34240533D02*
X27523809Y-34383390D01*
X27523809Y-34383390D02*
X26952381Y-34954819D01*
X26952381Y-34954819D02*
X27571428Y-34954819D01*
X28523809Y-34954819D02*
X27952381Y-34954819D01*
X28238095Y-34954819D02*
X28238095Y-33954819D01*
X28238095Y-33954819D02*
X28142857Y-34097676D01*
X28142857Y-34097676D02*
X28047619Y-34192914D01*
X28047619Y-34192914D02*
X27952381Y-34240533D01*
D11*
X2914285Y-41364895D02*
X2914285Y-40564895D01*
X2914285Y-40564895D02*
X3180951Y-41136323D01*
X3180951Y-41136323D02*
X3447618Y-40564895D01*
X3447618Y-40564895D02*
X3447618Y-41364895D01*
X3790475Y-41136323D02*
X4171428Y-41136323D01*
X3714285Y-41364895D02*
X3980952Y-40564895D01*
X3980952Y-40564895D02*
X4247618Y-41364895D01*
X4438094Y-40564895D02*
X4971428Y-41364895D01*
X4971428Y-40564895D02*
X4438094Y-41364895D01*
X5276190Y-41060133D02*
X5885714Y-41060133D01*
X6266666Y-41364895D02*
X6266666Y-40564895D01*
X6266666Y-40564895D02*
X6533332Y-41136323D01*
X6533332Y-41136323D02*
X6799999Y-40564895D01*
X6799999Y-40564895D02*
X6799999Y-41364895D01*
X7599999Y-41364895D02*
X7142856Y-41364895D01*
X7371428Y-41364895D02*
X7371428Y-40564895D01*
X7371428Y-40564895D02*
X7295237Y-40679180D01*
X7295237Y-40679180D02*
X7219047Y-40755371D01*
X7219047Y-40755371D02*
X7142856Y-40793466D01*
X8095238Y-40564895D02*
X8171428Y-40564895D01*
X8171428Y-40564895D02*
X8247619Y-40602990D01*
X8247619Y-40602990D02*
X8285714Y-40641085D01*
X8285714Y-40641085D02*
X8323809Y-40717276D01*
X8323809Y-40717276D02*
X8361904Y-40869657D01*
X8361904Y-40869657D02*
X8361904Y-41060133D01*
X8361904Y-41060133D02*
X8323809Y-41212514D01*
X8323809Y-41212514D02*
X8285714Y-41288704D01*
X8285714Y-41288704D02*
X8247619Y-41326800D01*
X8247619Y-41326800D02*
X8171428Y-41364895D01*
X8171428Y-41364895D02*
X8095238Y-41364895D01*
X8095238Y-41364895D02*
X8019047Y-41326800D01*
X8019047Y-41326800D02*
X7980952Y-41288704D01*
X7980952Y-41288704D02*
X7942857Y-41212514D01*
X7942857Y-41212514D02*
X7904761Y-41060133D01*
X7904761Y-41060133D02*
X7904761Y-40869657D01*
X7904761Y-40869657D02*
X7942857Y-40717276D01*
X7942857Y-40717276D02*
X7980952Y-40641085D01*
X7980952Y-40641085D02*
X8019047Y-40602990D01*
X8019047Y-40602990D02*
X8095238Y-40564895D01*
X8666666Y-41326800D02*
X8780952Y-41364895D01*
X8780952Y-41364895D02*
X8971428Y-41364895D01*
X8971428Y-41364895D02*
X9047619Y-41326800D01*
X9047619Y-41326800D02*
X9085714Y-41288704D01*
X9085714Y-41288704D02*
X9123809Y-41212514D01*
X9123809Y-41212514D02*
X9123809Y-41136323D01*
X9123809Y-41136323D02*
X9085714Y-41060133D01*
X9085714Y-41060133D02*
X9047619Y-41022038D01*
X9047619Y-41022038D02*
X8971428Y-40983942D01*
X8971428Y-40983942D02*
X8819047Y-40945847D01*
X8819047Y-40945847D02*
X8742857Y-40907752D01*
X8742857Y-40907752D02*
X8704762Y-40869657D01*
X8704762Y-40869657D02*
X8666666Y-40793466D01*
X8666666Y-40793466D02*
X8666666Y-40717276D01*
X8666666Y-40717276D02*
X8704762Y-40641085D01*
X8704762Y-40641085D02*
X8742857Y-40602990D01*
X8742857Y-40602990D02*
X8819047Y-40564895D01*
X8819047Y-40564895D02*
X9009524Y-40564895D01*
X9009524Y-40564895D02*
X9123809Y-40602990D01*
X41828571Y-41364895D02*
X41828571Y-40564895D01*
X41828571Y-40564895D02*
X42095237Y-41136323D01*
X42095237Y-41136323D02*
X42361904Y-40564895D01*
X42361904Y-40564895D02*
X42361904Y-41364895D01*
X42704761Y-41326800D02*
X42819047Y-41364895D01*
X42819047Y-41364895D02*
X43009523Y-41364895D01*
X43009523Y-41364895D02*
X43085714Y-41326800D01*
X43085714Y-41326800D02*
X43123809Y-41288704D01*
X43123809Y-41288704D02*
X43161904Y-41212514D01*
X43161904Y-41212514D02*
X43161904Y-41136323D01*
X43161904Y-41136323D02*
X43123809Y-41060133D01*
X43123809Y-41060133D02*
X43085714Y-41022038D01*
X43085714Y-41022038D02*
X43009523Y-40983942D01*
X43009523Y-40983942D02*
X42857142Y-40945847D01*
X42857142Y-40945847D02*
X42780952Y-40907752D01*
X42780952Y-40907752D02*
X42742857Y-40869657D01*
X42742857Y-40869657D02*
X42704761Y-40793466D01*
X42704761Y-40793466D02*
X42704761Y-40717276D01*
X42704761Y-40717276D02*
X42742857Y-40641085D01*
X42742857Y-40641085D02*
X42780952Y-40602990D01*
X42780952Y-40602990D02*
X42857142Y-40564895D01*
X42857142Y-40564895D02*
X43047619Y-40564895D01*
X43047619Y-40564895D02*
X43161904Y-40602990D01*
X43885714Y-40564895D02*
X43504762Y-40564895D01*
X43504762Y-40564895D02*
X43466666Y-40945847D01*
X43466666Y-40945847D02*
X43504762Y-40907752D01*
X43504762Y-40907752D02*
X43580952Y-40869657D01*
X43580952Y-40869657D02*
X43771428Y-40869657D01*
X43771428Y-40869657D02*
X43847619Y-40907752D01*
X43847619Y-40907752D02*
X43885714Y-40945847D01*
X43885714Y-40945847D02*
X43923809Y-41022038D01*
X43923809Y-41022038D02*
X43923809Y-41212514D01*
X43923809Y-41212514D02*
X43885714Y-41288704D01*
X43885714Y-41288704D02*
X43847619Y-41326800D01*
X43847619Y-41326800D02*
X43771428Y-41364895D01*
X43771428Y-41364895D02*
X43580952Y-41364895D01*
X43580952Y-41364895D02*
X43504762Y-41326800D01*
X43504762Y-41326800D02*
X43466666Y-41288704D01*
X44609524Y-40564895D02*
X44457143Y-40564895D01*
X44457143Y-40564895D02*
X44380952Y-40602990D01*
X44380952Y-40602990D02*
X44342857Y-40641085D01*
X44342857Y-40641085D02*
X44266667Y-40755371D01*
X44266667Y-40755371D02*
X44228571Y-40907752D01*
X44228571Y-40907752D02*
X44228571Y-41212514D01*
X44228571Y-41212514D02*
X44266667Y-41288704D01*
X44266667Y-41288704D02*
X44304762Y-41326800D01*
X44304762Y-41326800D02*
X44380952Y-41364895D01*
X44380952Y-41364895D02*
X44533333Y-41364895D01*
X44533333Y-41364895D02*
X44609524Y-41326800D01*
X44609524Y-41326800D02*
X44647619Y-41288704D01*
X44647619Y-41288704D02*
X44685714Y-41212514D01*
X44685714Y-41212514D02*
X44685714Y-41022038D01*
X44685714Y-41022038D02*
X44647619Y-40945847D01*
X44647619Y-40945847D02*
X44609524Y-40907752D01*
X44609524Y-40907752D02*
X44533333Y-40869657D01*
X44533333Y-40869657D02*
X44380952Y-40869657D01*
X44380952Y-40869657D02*
X44304762Y-40907752D01*
X44304762Y-40907752D02*
X44266667Y-40945847D01*
X44266667Y-40945847D02*
X44228571Y-41022038D01*
X45447619Y-41364895D02*
X44990476Y-41364895D01*
X45219048Y-41364895D02*
X45219048Y-40564895D01*
X45219048Y-40564895D02*
X45142857Y-40679180D01*
X45142857Y-40679180D02*
X45066667Y-40755371D01*
X45066667Y-40755371D02*
X44990476Y-40793466D01*
X46209524Y-41364895D02*
X45752381Y-41364895D01*
X45980953Y-41364895D02*
X45980953Y-40564895D01*
X45980953Y-40564895D02*
X45904762Y-40679180D01*
X45904762Y-40679180D02*
X45828572Y-40755371D01*
X45828572Y-40755371D02*
X45752381Y-40793466D01*
X3128570Y-24172371D02*
X3471428Y-24172371D01*
X3299999Y-24772371D02*
X3299999Y-24172371D01*
X3671428Y-24772371D02*
X3671428Y-24172371D01*
X3671428Y-24172371D02*
X3899999Y-24172371D01*
X3899999Y-24172371D02*
X3957142Y-24200942D01*
X3957142Y-24200942D02*
X3985713Y-24229514D01*
X3985713Y-24229514D02*
X4014285Y-24286657D01*
X4014285Y-24286657D02*
X4014285Y-24372371D01*
X4014285Y-24372371D02*
X3985713Y-24429514D01*
X3985713Y-24429514D02*
X3957142Y-24458085D01*
X3957142Y-24458085D02*
X3899999Y-24486657D01*
X3899999Y-24486657D02*
X3671428Y-24486657D01*
X4242856Y-24743800D02*
X4328571Y-24772371D01*
X4328571Y-24772371D02*
X4471428Y-24772371D01*
X4471428Y-24772371D02*
X4528571Y-24743800D01*
X4528571Y-24743800D02*
X4557142Y-24715228D01*
X4557142Y-24715228D02*
X4585713Y-24658085D01*
X4585713Y-24658085D02*
X4585713Y-24600942D01*
X4585713Y-24600942D02*
X4557142Y-24543800D01*
X4557142Y-24543800D02*
X4528571Y-24515228D01*
X4528571Y-24515228D02*
X4471428Y-24486657D01*
X4471428Y-24486657D02*
X4357142Y-24458085D01*
X4357142Y-24458085D02*
X4299999Y-24429514D01*
X4299999Y-24429514D02*
X4271428Y-24400942D01*
X4271428Y-24400942D02*
X4242856Y-24343800D01*
X4242856Y-24343800D02*
X4242856Y-24286657D01*
X4242856Y-24286657D02*
X4271428Y-24229514D01*
X4271428Y-24229514D02*
X4299999Y-24200942D01*
X4299999Y-24200942D02*
X4357142Y-24172371D01*
X4357142Y-24172371D02*
X4499999Y-24172371D01*
X4499999Y-24172371D02*
X4585713Y-24200942D01*
X4785714Y-24172371D02*
X5185714Y-24172371D01*
X5185714Y-24172371D02*
X4928571Y-24772371D01*
X5385714Y-24600942D02*
X5671429Y-24600942D01*
X5328571Y-24772371D02*
X5528571Y-24172371D01*
X5528571Y-24172371D02*
X5728571Y-24772371D01*
X6042857Y-24172371D02*
X6100000Y-24172371D01*
X6100000Y-24172371D02*
X6157143Y-24200942D01*
X6157143Y-24200942D02*
X6185715Y-24229514D01*
X6185715Y-24229514D02*
X6214286Y-24286657D01*
X6214286Y-24286657D02*
X6242857Y-24400942D01*
X6242857Y-24400942D02*
X6242857Y-24543800D01*
X6242857Y-24543800D02*
X6214286Y-24658085D01*
X6214286Y-24658085D02*
X6185715Y-24715228D01*
X6185715Y-24715228D02*
X6157143Y-24743800D01*
X6157143Y-24743800D02*
X6100000Y-24772371D01*
X6100000Y-24772371D02*
X6042857Y-24772371D01*
X6042857Y-24772371D02*
X5985715Y-24743800D01*
X5985715Y-24743800D02*
X5957143Y-24715228D01*
X5957143Y-24715228D02*
X5928572Y-24658085D01*
X5928572Y-24658085D02*
X5900000Y-24543800D01*
X5900000Y-24543800D02*
X5900000Y-24400942D01*
X5900000Y-24400942D02*
X5928572Y-24286657D01*
X5928572Y-24286657D02*
X5957143Y-24229514D01*
X5957143Y-24229514D02*
X5985715Y-24200942D01*
X5985715Y-24200942D02*
X6042857Y-24172371D01*
X6471429Y-24229514D02*
X6500001Y-24200942D01*
X6500001Y-24200942D02*
X6557144Y-24172371D01*
X6557144Y-24172371D02*
X6700001Y-24172371D01*
X6700001Y-24172371D02*
X6757144Y-24200942D01*
X6757144Y-24200942D02*
X6785715Y-24229514D01*
X6785715Y-24229514D02*
X6814286Y-24286657D01*
X6814286Y-24286657D02*
X6814286Y-24343800D01*
X6814286Y-24343800D02*
X6785715Y-24429514D01*
X6785715Y-24429514D02*
X6442858Y-24772371D01*
X6442858Y-24772371D02*
X6814286Y-24772371D01*
X2985714Y-20458085D02*
X3071428Y-20486657D01*
X3071428Y-20486657D02*
X3099999Y-20515228D01*
X3099999Y-20515228D02*
X3128571Y-20572371D01*
X3128571Y-20572371D02*
X3128571Y-20658085D01*
X3128571Y-20658085D02*
X3099999Y-20715228D01*
X3099999Y-20715228D02*
X3071428Y-20743800D01*
X3071428Y-20743800D02*
X3014285Y-20772371D01*
X3014285Y-20772371D02*
X2785714Y-20772371D01*
X2785714Y-20772371D02*
X2785714Y-20172371D01*
X2785714Y-20172371D02*
X2985714Y-20172371D01*
X2985714Y-20172371D02*
X3042857Y-20200942D01*
X3042857Y-20200942D02*
X3071428Y-20229514D01*
X3071428Y-20229514D02*
X3099999Y-20286657D01*
X3099999Y-20286657D02*
X3099999Y-20343800D01*
X3099999Y-20343800D02*
X3071428Y-20400942D01*
X3071428Y-20400942D02*
X3042857Y-20429514D01*
X3042857Y-20429514D02*
X2985714Y-20458085D01*
X2985714Y-20458085D02*
X2785714Y-20458085D01*
X3357142Y-20600942D02*
X3642857Y-20600942D01*
X3299999Y-20772371D02*
X3499999Y-20172371D01*
X3499999Y-20172371D02*
X3699999Y-20772371D01*
X3814285Y-20172371D02*
X4157143Y-20172371D01*
X3985714Y-20772371D02*
X3985714Y-20172371D01*
X4642857Y-20172371D02*
X4357143Y-20172371D01*
X4357143Y-20172371D02*
X4328571Y-20458085D01*
X4328571Y-20458085D02*
X4357143Y-20429514D01*
X4357143Y-20429514D02*
X4414286Y-20400942D01*
X4414286Y-20400942D02*
X4557143Y-20400942D01*
X4557143Y-20400942D02*
X4614286Y-20429514D01*
X4614286Y-20429514D02*
X4642857Y-20458085D01*
X4642857Y-20458085D02*
X4671428Y-20515228D01*
X4671428Y-20515228D02*
X4671428Y-20658085D01*
X4671428Y-20658085D02*
X4642857Y-20715228D01*
X4642857Y-20715228D02*
X4614286Y-20743800D01*
X4614286Y-20743800D02*
X4557143Y-20772371D01*
X4557143Y-20772371D02*
X4414286Y-20772371D01*
X4414286Y-20772371D02*
X4357143Y-20743800D01*
X4357143Y-20743800D02*
X4328571Y-20715228D01*
X5185715Y-20372371D02*
X5185715Y-20772371D01*
X5042857Y-20143800D02*
X4900000Y-20572371D01*
X4900000Y-20572371D02*
X5271429Y-20572371D01*
X6714284Y-42772371D02*
X6371427Y-42772371D01*
X6542856Y-42772371D02*
X6542856Y-42172371D01*
X6542856Y-42172371D02*
X6485713Y-42258085D01*
X6485713Y-42258085D02*
X6428570Y-42315228D01*
X6428570Y-42315228D02*
X6371427Y-42343800D01*
X7171428Y-42458085D02*
X6971428Y-42458085D01*
X6971428Y-42772371D02*
X6971428Y-42172371D01*
X6971428Y-42172371D02*
X7257142Y-42172371D01*
X8228571Y-42172371D02*
X7942857Y-42172371D01*
X7942857Y-42172371D02*
X7914285Y-42458085D01*
X7914285Y-42458085D02*
X7942857Y-42429514D01*
X7942857Y-42429514D02*
X8000000Y-42400942D01*
X8000000Y-42400942D02*
X8142857Y-42400942D01*
X8142857Y-42400942D02*
X8200000Y-42429514D01*
X8200000Y-42429514D02*
X8228571Y-42458085D01*
X8228571Y-42458085D02*
X8257142Y-42515228D01*
X8257142Y-42515228D02*
X8257142Y-42658085D01*
X8257142Y-42658085D02*
X8228571Y-42715228D01*
X8228571Y-42715228D02*
X8200000Y-42743800D01*
X8200000Y-42743800D02*
X8142857Y-42772371D01*
X8142857Y-42772371D02*
X8000000Y-42772371D01*
X8000000Y-42772371D02*
X7942857Y-42743800D01*
X7942857Y-42743800D02*
X7914285Y-42715228D01*
X8514286Y-42715228D02*
X8542857Y-42743800D01*
X8542857Y-42743800D02*
X8514286Y-42772371D01*
X8514286Y-42772371D02*
X8485714Y-42743800D01*
X8485714Y-42743800D02*
X8514286Y-42715228D01*
X8514286Y-42715228D02*
X8514286Y-42772371D01*
X9085714Y-42172371D02*
X8800000Y-42172371D01*
X8800000Y-42172371D02*
X8771428Y-42458085D01*
X8771428Y-42458085D02*
X8800000Y-42429514D01*
X8800000Y-42429514D02*
X8857143Y-42400942D01*
X8857143Y-42400942D02*
X9000000Y-42400942D01*
X9000000Y-42400942D02*
X9057143Y-42429514D01*
X9057143Y-42429514D02*
X9085714Y-42458085D01*
X9085714Y-42458085D02*
X9114285Y-42515228D01*
X9114285Y-42515228D02*
X9114285Y-42658085D01*
X9114285Y-42658085D02*
X9085714Y-42715228D01*
X9085714Y-42715228D02*
X9057143Y-42743800D01*
X9057143Y-42743800D02*
X9000000Y-42772371D01*
X9000000Y-42772371D02*
X8857143Y-42772371D01*
X8857143Y-42772371D02*
X8800000Y-42743800D01*
X8800000Y-42743800D02*
X8771428Y-42715228D01*
X9285714Y-42172371D02*
X9485714Y-42772371D01*
X9485714Y-42772371D02*
X9685714Y-42172371D01*
X1714285Y-42243800D02*
X1800000Y-42272371D01*
X1800000Y-42272371D02*
X1942857Y-42272371D01*
X1942857Y-42272371D02*
X2000000Y-42243800D01*
X2000000Y-42243800D02*
X2028571Y-42215228D01*
X2028571Y-42215228D02*
X2057142Y-42158085D01*
X2057142Y-42158085D02*
X2057142Y-42100942D01*
X2057142Y-42100942D02*
X2028571Y-42043800D01*
X2028571Y-42043800D02*
X2000000Y-42015228D01*
X2000000Y-42015228D02*
X1942857Y-41986657D01*
X1942857Y-41986657D02*
X1828571Y-41958085D01*
X1828571Y-41958085D02*
X1771428Y-41929514D01*
X1771428Y-41929514D02*
X1742857Y-41900942D01*
X1742857Y-41900942D02*
X1714285Y-41843800D01*
X1714285Y-41843800D02*
X1714285Y-41786657D01*
X1714285Y-41786657D02*
X1742857Y-41729514D01*
X1742857Y-41729514D02*
X1771428Y-41700942D01*
X1771428Y-41700942D02*
X1828571Y-41672371D01*
X1828571Y-41672371D02*
X1971428Y-41672371D01*
X1971428Y-41672371D02*
X2057142Y-41700942D01*
X2428571Y-41672371D02*
X2542857Y-41672371D01*
X2542857Y-41672371D02*
X2600000Y-41700942D01*
X2600000Y-41700942D02*
X2657143Y-41758085D01*
X2657143Y-41758085D02*
X2685714Y-41872371D01*
X2685714Y-41872371D02*
X2685714Y-42072371D01*
X2685714Y-42072371D02*
X2657143Y-42186657D01*
X2657143Y-42186657D02*
X2600000Y-42243800D01*
X2600000Y-42243800D02*
X2542857Y-42272371D01*
X2542857Y-42272371D02*
X2428571Y-42272371D01*
X2428571Y-42272371D02*
X2371429Y-42243800D01*
X2371429Y-42243800D02*
X2314286Y-42186657D01*
X2314286Y-42186657D02*
X2285714Y-42072371D01*
X2285714Y-42072371D02*
X2285714Y-41872371D01*
X2285714Y-41872371D02*
X2314286Y-41758085D01*
X2314286Y-41758085D02*
X2371429Y-41700942D01*
X2371429Y-41700942D02*
X2428571Y-41672371D01*
X3228571Y-42272371D02*
X2942857Y-42272371D01*
X2942857Y-42272371D02*
X2942857Y-41672371D01*
X3399999Y-42100942D02*
X3685714Y-42100942D01*
X3342856Y-42272371D02*
X3542856Y-41672371D01*
X3542856Y-41672371D02*
X3742856Y-42272371D01*
X4285714Y-42272371D02*
X4085714Y-41986657D01*
X3942857Y-42272371D02*
X3942857Y-41672371D01*
X3942857Y-41672371D02*
X4171428Y-41672371D01*
X4171428Y-41672371D02*
X4228571Y-41700942D01*
X4228571Y-41700942D02*
X4257142Y-41729514D01*
X4257142Y-41729514D02*
X4285714Y-41786657D01*
X4285714Y-41786657D02*
X4285714Y-41872371D01*
X4285714Y-41872371D02*
X4257142Y-41929514D01*
X4257142Y-41929514D02*
X4228571Y-41958085D01*
X4228571Y-41958085D02*
X4171428Y-41986657D01*
X4171428Y-41986657D02*
X3942857Y-41986657D01*
D12*
X14761906Y-5703340D02*
X14833334Y-5727149D01*
X14833334Y-5727149D02*
X14952382Y-5727149D01*
X14952382Y-5727149D02*
X15000001Y-5703340D01*
X15000001Y-5703340D02*
X15023810Y-5679530D01*
X15023810Y-5679530D02*
X15047620Y-5631911D01*
X15047620Y-5631911D02*
X15047620Y-5584292D01*
X15047620Y-5584292D02*
X15023810Y-5536673D01*
X15023810Y-5536673D02*
X15000001Y-5512863D01*
X15000001Y-5512863D02*
X14952382Y-5489054D01*
X14952382Y-5489054D02*
X14857144Y-5465244D01*
X14857144Y-5465244D02*
X14809525Y-5441435D01*
X14809525Y-5441435D02*
X14785715Y-5417625D01*
X14785715Y-5417625D02*
X14761906Y-5370006D01*
X14761906Y-5370006D02*
X14761906Y-5322387D01*
X14761906Y-5322387D02*
X14785715Y-5274768D01*
X14785715Y-5274768D02*
X14809525Y-5250959D01*
X14809525Y-5250959D02*
X14857144Y-5227149D01*
X14857144Y-5227149D02*
X14976191Y-5227149D01*
X14976191Y-5227149D02*
X15047620Y-5250959D01*
X15190477Y-5227149D02*
X15476191Y-5227149D01*
X15333334Y-5727149D02*
X15333334Y-5227149D01*
X15619048Y-5584292D02*
X15857143Y-5584292D01*
X15571429Y-5727149D02*
X15738095Y-5227149D01*
X15738095Y-5227149D02*
X15904762Y-5727149D01*
X16000000Y-5227149D02*
X16285714Y-5227149D01*
X16142857Y-5727149D02*
X16142857Y-5227149D01*
X16452380Y-5227149D02*
X16452380Y-5631911D01*
X16452380Y-5631911D02*
X16476190Y-5679530D01*
X16476190Y-5679530D02*
X16499999Y-5703340D01*
X16499999Y-5703340D02*
X16547618Y-5727149D01*
X16547618Y-5727149D02*
X16642856Y-5727149D01*
X16642856Y-5727149D02*
X16690475Y-5703340D01*
X16690475Y-5703340D02*
X16714285Y-5679530D01*
X16714285Y-5679530D02*
X16738094Y-5631911D01*
X16738094Y-5631911D02*
X16738094Y-5227149D01*
X16952381Y-5703340D02*
X17023809Y-5727149D01*
X17023809Y-5727149D02*
X17142857Y-5727149D01*
X17142857Y-5727149D02*
X17190476Y-5703340D01*
X17190476Y-5703340D02*
X17214285Y-5679530D01*
X17214285Y-5679530D02*
X17238095Y-5631911D01*
X17238095Y-5631911D02*
X17238095Y-5584292D01*
X17238095Y-5584292D02*
X17214285Y-5536673D01*
X17214285Y-5536673D02*
X17190476Y-5512863D01*
X17190476Y-5512863D02*
X17142857Y-5489054D01*
X17142857Y-5489054D02*
X17047619Y-5465244D01*
X17047619Y-5465244D02*
X17000000Y-5441435D01*
X17000000Y-5441435D02*
X16976190Y-5417625D01*
X16976190Y-5417625D02*
X16952381Y-5370006D01*
X16952381Y-5370006D02*
X16952381Y-5322387D01*
X16952381Y-5322387D02*
X16976190Y-5274768D01*
X16976190Y-5274768D02*
X17000000Y-5250959D01*
X17000000Y-5250959D02*
X17047619Y-5227149D01*
X17047619Y-5227149D02*
X17166666Y-5227149D01*
X17166666Y-5227149D02*
X17238095Y-5250959D01*
D13*
X17785714Y-4981927D02*
X18033333Y-4981927D01*
X18033333Y-4981927D02*
X17900000Y-5134308D01*
X17900000Y-5134308D02*
X17957143Y-5134308D01*
X17957143Y-5134308D02*
X17995238Y-5153356D01*
X17995238Y-5153356D02*
X18014286Y-5172403D01*
X18014286Y-5172403D02*
X18033333Y-5210499D01*
X18033333Y-5210499D02*
X18033333Y-5305737D01*
X18033333Y-5305737D02*
X18014286Y-5343832D01*
X18014286Y-5343832D02*
X17995238Y-5362880D01*
X17995238Y-5362880D02*
X17957143Y-5381927D01*
X17957143Y-5381927D02*
X17842857Y-5381927D01*
X17842857Y-5381927D02*
X17804762Y-5362880D01*
X17804762Y-5362880D02*
X17785714Y-5343832D01*
X18166666Y-4981927D02*
X18414285Y-4981927D01*
X18414285Y-4981927D02*
X18280952Y-5134308D01*
X18280952Y-5134308D02*
X18338095Y-5134308D01*
X18338095Y-5134308D02*
X18376190Y-5153356D01*
X18376190Y-5153356D02*
X18395238Y-5172403D01*
X18395238Y-5172403D02*
X18414285Y-5210499D01*
X18414285Y-5210499D02*
X18414285Y-5305737D01*
X18414285Y-5305737D02*
X18395238Y-5343832D01*
X18395238Y-5343832D02*
X18376190Y-5362880D01*
X18376190Y-5362880D02*
X18338095Y-5381927D01*
X18338095Y-5381927D02*
X18223809Y-5381927D01*
X18223809Y-5381927D02*
X18185714Y-5362880D01*
X18185714Y-5362880D02*
X18166666Y-5343832D01*
X18661904Y-4981927D02*
X18699999Y-4981927D01*
X18699999Y-4981927D02*
X18738095Y-5000975D01*
X18738095Y-5000975D02*
X18757142Y-5020022D01*
X18757142Y-5020022D02*
X18776190Y-5058118D01*
X18776190Y-5058118D02*
X18795237Y-5134308D01*
X18795237Y-5134308D02*
X18795237Y-5229546D01*
X18795237Y-5229546D02*
X18776190Y-5305737D01*
X18776190Y-5305737D02*
X18757142Y-5343832D01*
X18757142Y-5343832D02*
X18738095Y-5362880D01*
X18738095Y-5362880D02*
X18699999Y-5381927D01*
X18699999Y-5381927D02*
X18661904Y-5381927D01*
X18661904Y-5381927D02*
X18623809Y-5362880D01*
X18623809Y-5362880D02*
X18604761Y-5343832D01*
X18604761Y-5343832D02*
X18585714Y-5305737D01*
X18585714Y-5305737D02*
X18566666Y-5229546D01*
X18566666Y-5229546D02*
X18566666Y-5134308D01*
X18566666Y-5134308D02*
X18585714Y-5058118D01*
X18585714Y-5058118D02*
X18604761Y-5020022D01*
X18604761Y-5020022D02*
X18623809Y-5000975D01*
X18623809Y-5000975D02*
X18661904Y-4981927D01*
X19195237Y-5381927D02*
X19061904Y-5191451D01*
X18966666Y-5381927D02*
X18966666Y-4981927D01*
X18966666Y-4981927D02*
X19119047Y-4981927D01*
X19119047Y-4981927D02*
X19157142Y-5000975D01*
X19157142Y-5000975D02*
X19176189Y-5020022D01*
X19176189Y-5020022D02*
X19195237Y-5058118D01*
X19195237Y-5058118D02*
X19195237Y-5115260D01*
X19195237Y-5115260D02*
X19176189Y-5153356D01*
X19176189Y-5153356D02*
X19157142Y-5172403D01*
X19157142Y-5172403D02*
X19119047Y-5191451D01*
X19119047Y-5191451D02*
X18966666Y-5191451D01*
X23657143Y-39662880D02*
X23714286Y-39681927D01*
X23714286Y-39681927D02*
X23809524Y-39681927D01*
X23809524Y-39681927D02*
X23847619Y-39662880D01*
X23847619Y-39662880D02*
X23866667Y-39643832D01*
X23866667Y-39643832D02*
X23885714Y-39605737D01*
X23885714Y-39605737D02*
X23885714Y-39567641D01*
X23885714Y-39567641D02*
X23866667Y-39529546D01*
X23866667Y-39529546D02*
X23847619Y-39510499D01*
X23847619Y-39510499D02*
X23809524Y-39491451D01*
X23809524Y-39491451D02*
X23733333Y-39472403D01*
X23733333Y-39472403D02*
X23695238Y-39453356D01*
X23695238Y-39453356D02*
X23676191Y-39434308D01*
X23676191Y-39434308D02*
X23657143Y-39396213D01*
X23657143Y-39396213D02*
X23657143Y-39358118D01*
X23657143Y-39358118D02*
X23676191Y-39320022D01*
X23676191Y-39320022D02*
X23695238Y-39300975D01*
X23695238Y-39300975D02*
X23733333Y-39281927D01*
X23733333Y-39281927D02*
X23828572Y-39281927D01*
X23828572Y-39281927D02*
X23885714Y-39300975D01*
X24057143Y-39681927D02*
X24057143Y-39281927D01*
X24057143Y-39281927D02*
X24209524Y-39281927D01*
X24209524Y-39281927D02*
X24247619Y-39300975D01*
X24247619Y-39300975D02*
X24266666Y-39320022D01*
X24266666Y-39320022D02*
X24285714Y-39358118D01*
X24285714Y-39358118D02*
X24285714Y-39415260D01*
X24285714Y-39415260D02*
X24266666Y-39453356D01*
X24266666Y-39453356D02*
X24247619Y-39472403D01*
X24247619Y-39472403D02*
X24209524Y-39491451D01*
X24209524Y-39491451D02*
X24057143Y-39491451D01*
X24457143Y-39681927D02*
X24457143Y-39281927D01*
X24723809Y-39281927D02*
X24761904Y-39281927D01*
X24761904Y-39281927D02*
X24800000Y-39300975D01*
X24800000Y-39300975D02*
X24819047Y-39320022D01*
X24819047Y-39320022D02*
X24838095Y-39358118D01*
X24838095Y-39358118D02*
X24857142Y-39434308D01*
X24857142Y-39434308D02*
X24857142Y-39529546D01*
X24857142Y-39529546D02*
X24838095Y-39605737D01*
X24838095Y-39605737D02*
X24819047Y-39643832D01*
X24819047Y-39643832D02*
X24800000Y-39662880D01*
X24800000Y-39662880D02*
X24761904Y-39681927D01*
X24761904Y-39681927D02*
X24723809Y-39681927D01*
X24723809Y-39681927D02*
X24685714Y-39662880D01*
X24685714Y-39662880D02*
X24666666Y-39643832D01*
X24666666Y-39643832D02*
X24647619Y-39605737D01*
X24647619Y-39605737D02*
X24628571Y-39529546D01*
X24628571Y-39529546D02*
X24628571Y-39434308D01*
X24628571Y-39434308D02*
X24647619Y-39358118D01*
X24647619Y-39358118D02*
X24666666Y-39320022D01*
X24666666Y-39320022D02*
X24685714Y-39300975D01*
X24685714Y-39300975D02*
X24723809Y-39281927D01*
X24933333Y-39720022D02*
X25238094Y-39720022D01*
X25314285Y-39662880D02*
X25371428Y-39681927D01*
X25371428Y-39681927D02*
X25466666Y-39681927D01*
X25466666Y-39681927D02*
X25504761Y-39662880D01*
X25504761Y-39662880D02*
X25523809Y-39643832D01*
X25523809Y-39643832D02*
X25542856Y-39605737D01*
X25542856Y-39605737D02*
X25542856Y-39567641D01*
X25542856Y-39567641D02*
X25523809Y-39529546D01*
X25523809Y-39529546D02*
X25504761Y-39510499D01*
X25504761Y-39510499D02*
X25466666Y-39491451D01*
X25466666Y-39491451D02*
X25390475Y-39472403D01*
X25390475Y-39472403D02*
X25352380Y-39453356D01*
X25352380Y-39453356D02*
X25333333Y-39434308D01*
X25333333Y-39434308D02*
X25314285Y-39396213D01*
X25314285Y-39396213D02*
X25314285Y-39358118D01*
X25314285Y-39358118D02*
X25333333Y-39320022D01*
X25333333Y-39320022D02*
X25352380Y-39300975D01*
X25352380Y-39300975D02*
X25390475Y-39281927D01*
X25390475Y-39281927D02*
X25485714Y-39281927D01*
X25485714Y-39281927D02*
X25542856Y-39300975D01*
X25942856Y-39643832D02*
X25923808Y-39662880D01*
X25923808Y-39662880D02*
X25866666Y-39681927D01*
X25866666Y-39681927D02*
X25828570Y-39681927D01*
X25828570Y-39681927D02*
X25771427Y-39662880D01*
X25771427Y-39662880D02*
X25733332Y-39624784D01*
X25733332Y-39624784D02*
X25714285Y-39586689D01*
X25714285Y-39586689D02*
X25695237Y-39510499D01*
X25695237Y-39510499D02*
X25695237Y-39453356D01*
X25695237Y-39453356D02*
X25714285Y-39377165D01*
X25714285Y-39377165D02*
X25733332Y-39339070D01*
X25733332Y-39339070D02*
X25771427Y-39300975D01*
X25771427Y-39300975D02*
X25828570Y-39281927D01*
X25828570Y-39281927D02*
X25866666Y-39281927D01*
X25866666Y-39281927D02*
X25923808Y-39300975D01*
X25923808Y-39300975D02*
X25942856Y-39320022D01*
X26114285Y-39681927D02*
X26114285Y-39281927D01*
X26342856Y-39681927D02*
X26171427Y-39453356D01*
X26342856Y-39281927D02*
X26114285Y-39510499D01*
X27523810Y-39662880D02*
X27580953Y-39681927D01*
X27580953Y-39681927D02*
X27676191Y-39681927D01*
X27676191Y-39681927D02*
X27714286Y-39662880D01*
X27714286Y-39662880D02*
X27733334Y-39643832D01*
X27733334Y-39643832D02*
X27752381Y-39605737D01*
X27752381Y-39605737D02*
X27752381Y-39567641D01*
X27752381Y-39567641D02*
X27733334Y-39529546D01*
X27733334Y-39529546D02*
X27714286Y-39510499D01*
X27714286Y-39510499D02*
X27676191Y-39491451D01*
X27676191Y-39491451D02*
X27600000Y-39472403D01*
X27600000Y-39472403D02*
X27561905Y-39453356D01*
X27561905Y-39453356D02*
X27542858Y-39434308D01*
X27542858Y-39434308D02*
X27523810Y-39396213D01*
X27523810Y-39396213D02*
X27523810Y-39358118D01*
X27523810Y-39358118D02*
X27542858Y-39320022D01*
X27542858Y-39320022D02*
X27561905Y-39300975D01*
X27561905Y-39300975D02*
X27600000Y-39281927D01*
X27600000Y-39281927D02*
X27695239Y-39281927D01*
X27695239Y-39281927D02*
X27752381Y-39300975D01*
X27923810Y-39681927D02*
X27923810Y-39281927D01*
X27923810Y-39281927D02*
X28076191Y-39281927D01*
X28076191Y-39281927D02*
X28114286Y-39300975D01*
X28114286Y-39300975D02*
X28133333Y-39320022D01*
X28133333Y-39320022D02*
X28152381Y-39358118D01*
X28152381Y-39358118D02*
X28152381Y-39415260D01*
X28152381Y-39415260D02*
X28133333Y-39453356D01*
X28133333Y-39453356D02*
X28114286Y-39472403D01*
X28114286Y-39472403D02*
X28076191Y-39491451D01*
X28076191Y-39491451D02*
X27923810Y-39491451D01*
X28323810Y-39681927D02*
X28323810Y-39281927D01*
X28590476Y-39281927D02*
X28628571Y-39281927D01*
X28628571Y-39281927D02*
X28666667Y-39300975D01*
X28666667Y-39300975D02*
X28685714Y-39320022D01*
X28685714Y-39320022D02*
X28704762Y-39358118D01*
X28704762Y-39358118D02*
X28723809Y-39434308D01*
X28723809Y-39434308D02*
X28723809Y-39529546D01*
X28723809Y-39529546D02*
X28704762Y-39605737D01*
X28704762Y-39605737D02*
X28685714Y-39643832D01*
X28685714Y-39643832D02*
X28666667Y-39662880D01*
X28666667Y-39662880D02*
X28628571Y-39681927D01*
X28628571Y-39681927D02*
X28590476Y-39681927D01*
X28590476Y-39681927D02*
X28552381Y-39662880D01*
X28552381Y-39662880D02*
X28533333Y-39643832D01*
X28533333Y-39643832D02*
X28514286Y-39605737D01*
X28514286Y-39605737D02*
X28495238Y-39529546D01*
X28495238Y-39529546D02*
X28495238Y-39434308D01*
X28495238Y-39434308D02*
X28514286Y-39358118D01*
X28514286Y-39358118D02*
X28533333Y-39320022D01*
X28533333Y-39320022D02*
X28552381Y-39300975D01*
X28552381Y-39300975D02*
X28590476Y-39281927D01*
X28800000Y-39720022D02*
X29104761Y-39720022D01*
X29200000Y-39681927D02*
X29200000Y-39281927D01*
X29200000Y-39281927D02*
X29333333Y-39567641D01*
X29333333Y-39567641D02*
X29466666Y-39281927D01*
X29466666Y-39281927D02*
X29466666Y-39681927D01*
X29733333Y-39281927D02*
X29809524Y-39281927D01*
X29809524Y-39281927D02*
X29847619Y-39300975D01*
X29847619Y-39300975D02*
X29885714Y-39339070D01*
X29885714Y-39339070D02*
X29904762Y-39415260D01*
X29904762Y-39415260D02*
X29904762Y-39548594D01*
X29904762Y-39548594D02*
X29885714Y-39624784D01*
X29885714Y-39624784D02*
X29847619Y-39662880D01*
X29847619Y-39662880D02*
X29809524Y-39681927D01*
X29809524Y-39681927D02*
X29733333Y-39681927D01*
X29733333Y-39681927D02*
X29695238Y-39662880D01*
X29695238Y-39662880D02*
X29657143Y-39624784D01*
X29657143Y-39624784D02*
X29638095Y-39548594D01*
X29638095Y-39548594D02*
X29638095Y-39415260D01*
X29638095Y-39415260D02*
X29657143Y-39339070D01*
X29657143Y-39339070D02*
X29695238Y-39300975D01*
X29695238Y-39300975D02*
X29733333Y-39281927D01*
X30057143Y-39662880D02*
X30114286Y-39681927D01*
X30114286Y-39681927D02*
X30209524Y-39681927D01*
X30209524Y-39681927D02*
X30247619Y-39662880D01*
X30247619Y-39662880D02*
X30266667Y-39643832D01*
X30266667Y-39643832D02*
X30285714Y-39605737D01*
X30285714Y-39605737D02*
X30285714Y-39567641D01*
X30285714Y-39567641D02*
X30266667Y-39529546D01*
X30266667Y-39529546D02*
X30247619Y-39510499D01*
X30247619Y-39510499D02*
X30209524Y-39491451D01*
X30209524Y-39491451D02*
X30133333Y-39472403D01*
X30133333Y-39472403D02*
X30095238Y-39453356D01*
X30095238Y-39453356D02*
X30076191Y-39434308D01*
X30076191Y-39434308D02*
X30057143Y-39396213D01*
X30057143Y-39396213D02*
X30057143Y-39358118D01*
X30057143Y-39358118D02*
X30076191Y-39320022D01*
X30076191Y-39320022D02*
X30095238Y-39300975D01*
X30095238Y-39300975D02*
X30133333Y-39281927D01*
X30133333Y-39281927D02*
X30228572Y-39281927D01*
X30228572Y-39281927D02*
X30285714Y-39300975D01*
X30457143Y-39681927D02*
X30457143Y-39281927D01*
X32504762Y-39281927D02*
X32752381Y-39281927D01*
X32752381Y-39281927D02*
X32619048Y-39434308D01*
X32619048Y-39434308D02*
X32676191Y-39434308D01*
X32676191Y-39434308D02*
X32714286Y-39453356D01*
X32714286Y-39453356D02*
X32733334Y-39472403D01*
X32733334Y-39472403D02*
X32752381Y-39510499D01*
X32752381Y-39510499D02*
X32752381Y-39605737D01*
X32752381Y-39605737D02*
X32733334Y-39643832D01*
X32733334Y-39643832D02*
X32714286Y-39662880D01*
X32714286Y-39662880D02*
X32676191Y-39681927D01*
X32676191Y-39681927D02*
X32561905Y-39681927D01*
X32561905Y-39681927D02*
X32523810Y-39662880D01*
X32523810Y-39662880D02*
X32504762Y-39643832D01*
X32866667Y-39281927D02*
X33000000Y-39681927D01*
X33000000Y-39681927D02*
X33133333Y-39281927D01*
X33228571Y-39281927D02*
X33476190Y-39281927D01*
X33476190Y-39281927D02*
X33342857Y-39434308D01*
X33342857Y-39434308D02*
X33400000Y-39434308D01*
X33400000Y-39434308D02*
X33438095Y-39453356D01*
X33438095Y-39453356D02*
X33457143Y-39472403D01*
X33457143Y-39472403D02*
X33476190Y-39510499D01*
X33476190Y-39510499D02*
X33476190Y-39605737D01*
X33476190Y-39605737D02*
X33457143Y-39643832D01*
X33457143Y-39643832D02*
X33438095Y-39662880D01*
X33438095Y-39662880D02*
X33400000Y-39681927D01*
X33400000Y-39681927D02*
X33285714Y-39681927D01*
X33285714Y-39681927D02*
X33247619Y-39662880D01*
X33247619Y-39662880D02*
X33228571Y-39643832D01*
X36695237Y-39300975D02*
X36657142Y-39281927D01*
X36657142Y-39281927D02*
X36599999Y-39281927D01*
X36599999Y-39281927D02*
X36542856Y-39300975D01*
X36542856Y-39300975D02*
X36504761Y-39339070D01*
X36504761Y-39339070D02*
X36485714Y-39377165D01*
X36485714Y-39377165D02*
X36466666Y-39453356D01*
X36466666Y-39453356D02*
X36466666Y-39510499D01*
X36466666Y-39510499D02*
X36485714Y-39586689D01*
X36485714Y-39586689D02*
X36504761Y-39624784D01*
X36504761Y-39624784D02*
X36542856Y-39662880D01*
X36542856Y-39662880D02*
X36599999Y-39681927D01*
X36599999Y-39681927D02*
X36638095Y-39681927D01*
X36638095Y-39681927D02*
X36695237Y-39662880D01*
X36695237Y-39662880D02*
X36714285Y-39643832D01*
X36714285Y-39643832D02*
X36714285Y-39510499D01*
X36714285Y-39510499D02*
X36638095Y-39510499D01*
X36885714Y-39681927D02*
X36885714Y-39281927D01*
X36885714Y-39281927D02*
X37114285Y-39681927D01*
X37114285Y-39681927D02*
X37114285Y-39281927D01*
X37304762Y-39681927D02*
X37304762Y-39281927D01*
X37304762Y-39281927D02*
X37400000Y-39281927D01*
X37400000Y-39281927D02*
X37457143Y-39300975D01*
X37457143Y-39300975D02*
X37495238Y-39339070D01*
X37495238Y-39339070D02*
X37514285Y-39377165D01*
X37514285Y-39377165D02*
X37533333Y-39453356D01*
X37533333Y-39453356D02*
X37533333Y-39510499D01*
X37533333Y-39510499D02*
X37514285Y-39586689D01*
X37514285Y-39586689D02*
X37495238Y-39624784D01*
X37495238Y-39624784D02*
X37457143Y-39662880D01*
X37457143Y-39662880D02*
X37400000Y-39681927D01*
X37400000Y-39681927D02*
X37304762Y-39681927D01*
X8840952Y-4291927D02*
X8612381Y-4291927D01*
X8726667Y-4291927D02*
X8726667Y-3891927D01*
X8726667Y-3891927D02*
X8688571Y-3949070D01*
X8688571Y-3949070D02*
X8650476Y-3987165D01*
X8650476Y-3987165D02*
X8612381Y-4006213D01*
X9088571Y-3891927D02*
X9126666Y-3891927D01*
X9126666Y-3891927D02*
X9164762Y-3910975D01*
X9164762Y-3910975D02*
X9183809Y-3930022D01*
X9183809Y-3930022D02*
X9202857Y-3968118D01*
X9202857Y-3968118D02*
X9221904Y-4044308D01*
X9221904Y-4044308D02*
X9221904Y-4139546D01*
X9221904Y-4139546D02*
X9202857Y-4215737D01*
X9202857Y-4215737D02*
X9183809Y-4253832D01*
X9183809Y-4253832D02*
X9164762Y-4272880D01*
X9164762Y-4272880D02*
X9126666Y-4291927D01*
X9126666Y-4291927D02*
X9088571Y-4291927D01*
X9088571Y-4291927D02*
X9050476Y-4272880D01*
X9050476Y-4272880D02*
X9031428Y-4253832D01*
X9031428Y-4253832D02*
X9012381Y-4215737D01*
X9012381Y-4215737D02*
X8993333Y-4139546D01*
X8993333Y-4139546D02*
X8993333Y-4044308D01*
X8993333Y-4044308D02*
X9012381Y-3968118D01*
X9012381Y-3968118D02*
X9031428Y-3930022D01*
X9031428Y-3930022D02*
X9050476Y-3910975D01*
X9050476Y-3910975D02*
X9088571Y-3891927D01*
X9469523Y-3891927D02*
X9507618Y-3891927D01*
X9507618Y-3891927D02*
X9545714Y-3910975D01*
X9545714Y-3910975D02*
X9564761Y-3930022D01*
X9564761Y-3930022D02*
X9583809Y-3968118D01*
X9583809Y-3968118D02*
X9602856Y-4044308D01*
X9602856Y-4044308D02*
X9602856Y-4139546D01*
X9602856Y-4139546D02*
X9583809Y-4215737D01*
X9583809Y-4215737D02*
X9564761Y-4253832D01*
X9564761Y-4253832D02*
X9545714Y-4272880D01*
X9545714Y-4272880D02*
X9507618Y-4291927D01*
X9507618Y-4291927D02*
X9469523Y-4291927D01*
X9469523Y-4291927D02*
X9431428Y-4272880D01*
X9431428Y-4272880D02*
X9412380Y-4253832D01*
X9412380Y-4253832D02*
X9393333Y-4215737D01*
X9393333Y-4215737D02*
X9374285Y-4139546D01*
X9374285Y-4139546D02*
X9374285Y-4044308D01*
X9374285Y-4044308D02*
X9393333Y-3968118D01*
X9393333Y-3968118D02*
X9412380Y-3930022D01*
X9412380Y-3930022D02*
X9431428Y-3910975D01*
X9431428Y-3910975D02*
X9469523Y-3891927D01*
X9774285Y-4025260D02*
X9774285Y-4291927D01*
X9774285Y-4063356D02*
X9793332Y-4044308D01*
X9793332Y-4044308D02*
X9831427Y-4025260D01*
X9831427Y-4025260D02*
X9888570Y-4025260D01*
X9888570Y-4025260D02*
X9926666Y-4044308D01*
X9926666Y-4044308D02*
X9945713Y-4082403D01*
X9945713Y-4082403D02*
X9945713Y-4291927D01*
X10269523Y-4082403D02*
X10136190Y-4082403D01*
X10136190Y-4291927D02*
X10136190Y-3891927D01*
X10136190Y-3891927D02*
X10326666Y-3891927D01*
X37380952Y-4181927D02*
X37152381Y-4181927D01*
X37266667Y-4181927D02*
X37266667Y-3781927D01*
X37266667Y-3781927D02*
X37228571Y-3839070D01*
X37228571Y-3839070D02*
X37190476Y-3877165D01*
X37190476Y-3877165D02*
X37152381Y-3896213D01*
X37628571Y-3781927D02*
X37666666Y-3781927D01*
X37666666Y-3781927D02*
X37704762Y-3800975D01*
X37704762Y-3800975D02*
X37723809Y-3820022D01*
X37723809Y-3820022D02*
X37742857Y-3858118D01*
X37742857Y-3858118D02*
X37761904Y-3934308D01*
X37761904Y-3934308D02*
X37761904Y-4029546D01*
X37761904Y-4029546D02*
X37742857Y-4105737D01*
X37742857Y-4105737D02*
X37723809Y-4143832D01*
X37723809Y-4143832D02*
X37704762Y-4162880D01*
X37704762Y-4162880D02*
X37666666Y-4181927D01*
X37666666Y-4181927D02*
X37628571Y-4181927D01*
X37628571Y-4181927D02*
X37590476Y-4162880D01*
X37590476Y-4162880D02*
X37571428Y-4143832D01*
X37571428Y-4143832D02*
X37552381Y-4105737D01*
X37552381Y-4105737D02*
X37533333Y-4029546D01*
X37533333Y-4029546D02*
X37533333Y-3934308D01*
X37533333Y-3934308D02*
X37552381Y-3858118D01*
X37552381Y-3858118D02*
X37571428Y-3820022D01*
X37571428Y-3820022D02*
X37590476Y-3800975D01*
X37590476Y-3800975D02*
X37628571Y-3781927D01*
X38009523Y-3781927D02*
X38047618Y-3781927D01*
X38047618Y-3781927D02*
X38085714Y-3800975D01*
X38085714Y-3800975D02*
X38104761Y-3820022D01*
X38104761Y-3820022D02*
X38123809Y-3858118D01*
X38123809Y-3858118D02*
X38142856Y-3934308D01*
X38142856Y-3934308D02*
X38142856Y-4029546D01*
X38142856Y-4029546D02*
X38123809Y-4105737D01*
X38123809Y-4105737D02*
X38104761Y-4143832D01*
X38104761Y-4143832D02*
X38085714Y-4162880D01*
X38085714Y-4162880D02*
X38047618Y-4181927D01*
X38047618Y-4181927D02*
X38009523Y-4181927D01*
X38009523Y-4181927D02*
X37971428Y-4162880D01*
X37971428Y-4162880D02*
X37952380Y-4143832D01*
X37952380Y-4143832D02*
X37933333Y-4105737D01*
X37933333Y-4105737D02*
X37914285Y-4029546D01*
X37914285Y-4029546D02*
X37914285Y-3934308D01*
X37914285Y-3934308D02*
X37933333Y-3858118D01*
X37933333Y-3858118D02*
X37952380Y-3820022D01*
X37952380Y-3820022D02*
X37971428Y-3800975D01*
X37971428Y-3800975D02*
X38009523Y-3781927D01*
X38314285Y-3915260D02*
X38314285Y-4181927D01*
X38314285Y-3953356D02*
X38333332Y-3934308D01*
X38333332Y-3934308D02*
X38371427Y-3915260D01*
X38371427Y-3915260D02*
X38428570Y-3915260D01*
X38428570Y-3915260D02*
X38466666Y-3934308D01*
X38466666Y-3934308D02*
X38485713Y-3972403D01*
X38485713Y-3972403D02*
X38485713Y-4181927D01*
X38809523Y-3972403D02*
X38676190Y-3972403D01*
X38676190Y-4181927D02*
X38676190Y-3781927D01*
X38676190Y-3781927D02*
X38866666Y-3781927D01*
X14480952Y-31341927D02*
X14252381Y-31341927D01*
X14366667Y-31341927D02*
X14366667Y-30941927D01*
X14366667Y-30941927D02*
X14328571Y-30999070D01*
X14328571Y-30999070D02*
X14290476Y-31037165D01*
X14290476Y-31037165D02*
X14252381Y-31056213D01*
X14728571Y-30941927D02*
X14766666Y-30941927D01*
X14766666Y-30941927D02*
X14804762Y-30960975D01*
X14804762Y-30960975D02*
X14823809Y-30980022D01*
X14823809Y-30980022D02*
X14842857Y-31018118D01*
X14842857Y-31018118D02*
X14861904Y-31094308D01*
X14861904Y-31094308D02*
X14861904Y-31189546D01*
X14861904Y-31189546D02*
X14842857Y-31265737D01*
X14842857Y-31265737D02*
X14823809Y-31303832D01*
X14823809Y-31303832D02*
X14804762Y-31322880D01*
X14804762Y-31322880D02*
X14766666Y-31341927D01*
X14766666Y-31341927D02*
X14728571Y-31341927D01*
X14728571Y-31341927D02*
X14690476Y-31322880D01*
X14690476Y-31322880D02*
X14671428Y-31303832D01*
X14671428Y-31303832D02*
X14652381Y-31265737D01*
X14652381Y-31265737D02*
X14633333Y-31189546D01*
X14633333Y-31189546D02*
X14633333Y-31094308D01*
X14633333Y-31094308D02*
X14652381Y-31018118D01*
X14652381Y-31018118D02*
X14671428Y-30980022D01*
X14671428Y-30980022D02*
X14690476Y-30960975D01*
X14690476Y-30960975D02*
X14728571Y-30941927D01*
X15109523Y-30941927D02*
X15147618Y-30941927D01*
X15147618Y-30941927D02*
X15185714Y-30960975D01*
X15185714Y-30960975D02*
X15204761Y-30980022D01*
X15204761Y-30980022D02*
X15223809Y-31018118D01*
X15223809Y-31018118D02*
X15242856Y-31094308D01*
X15242856Y-31094308D02*
X15242856Y-31189546D01*
X15242856Y-31189546D02*
X15223809Y-31265737D01*
X15223809Y-31265737D02*
X15204761Y-31303832D01*
X15204761Y-31303832D02*
X15185714Y-31322880D01*
X15185714Y-31322880D02*
X15147618Y-31341927D01*
X15147618Y-31341927D02*
X15109523Y-31341927D01*
X15109523Y-31341927D02*
X15071428Y-31322880D01*
X15071428Y-31322880D02*
X15052380Y-31303832D01*
X15052380Y-31303832D02*
X15033333Y-31265737D01*
X15033333Y-31265737D02*
X15014285Y-31189546D01*
X15014285Y-31189546D02*
X15014285Y-31094308D01*
X15014285Y-31094308D02*
X15033333Y-31018118D01*
X15033333Y-31018118D02*
X15052380Y-30980022D01*
X15052380Y-30980022D02*
X15071428Y-30960975D01*
X15071428Y-30960975D02*
X15109523Y-30941927D01*
X15414285Y-31075260D02*
X15414285Y-31341927D01*
X15414285Y-31113356D02*
X15433332Y-31094308D01*
X15433332Y-31094308D02*
X15471427Y-31075260D01*
X15471427Y-31075260D02*
X15528570Y-31075260D01*
X15528570Y-31075260D02*
X15566666Y-31094308D01*
X15566666Y-31094308D02*
X15585713Y-31132403D01*
X15585713Y-31132403D02*
X15585713Y-31341927D01*
X15909523Y-31132403D02*
X15776190Y-31132403D01*
X15776190Y-31341927D02*
X15776190Y-30941927D01*
X15776190Y-30941927D02*
X15966666Y-30941927D01*
X14671428Y-33181927D02*
X14442857Y-33181927D01*
X14557143Y-33181927D02*
X14557143Y-32781927D01*
X14557143Y-32781927D02*
X14519047Y-32839070D01*
X14519047Y-32839070D02*
X14480952Y-32877165D01*
X14480952Y-32877165D02*
X14442857Y-32896213D01*
X14919047Y-32781927D02*
X14957142Y-32781927D01*
X14957142Y-32781927D02*
X14995238Y-32800975D01*
X14995238Y-32800975D02*
X15014285Y-32820022D01*
X15014285Y-32820022D02*
X15033333Y-32858118D01*
X15033333Y-32858118D02*
X15052380Y-32934308D01*
X15052380Y-32934308D02*
X15052380Y-33029546D01*
X15052380Y-33029546D02*
X15033333Y-33105737D01*
X15033333Y-33105737D02*
X15014285Y-33143832D01*
X15014285Y-33143832D02*
X14995238Y-33162880D01*
X14995238Y-33162880D02*
X14957142Y-33181927D01*
X14957142Y-33181927D02*
X14919047Y-33181927D01*
X14919047Y-33181927D02*
X14880952Y-33162880D01*
X14880952Y-33162880D02*
X14861904Y-33143832D01*
X14861904Y-33143832D02*
X14842857Y-33105737D01*
X14842857Y-33105737D02*
X14823809Y-33029546D01*
X14823809Y-33029546D02*
X14823809Y-32934308D01*
X14823809Y-32934308D02*
X14842857Y-32858118D01*
X14842857Y-32858118D02*
X14861904Y-32820022D01*
X14861904Y-32820022D02*
X14880952Y-32800975D01*
X14880952Y-32800975D02*
X14919047Y-32781927D01*
X15395237Y-32915260D02*
X15395237Y-33181927D01*
X15223809Y-32915260D02*
X15223809Y-33124784D01*
X15223809Y-33124784D02*
X15242856Y-33162880D01*
X15242856Y-33162880D02*
X15280951Y-33181927D01*
X15280951Y-33181927D02*
X15338094Y-33181927D01*
X15338094Y-33181927D02*
X15376190Y-33162880D01*
X15376190Y-33162880D02*
X15395237Y-33143832D01*
X15719047Y-32972403D02*
X15585714Y-32972403D01*
X15585714Y-33181927D02*
X15585714Y-32781927D01*
X15585714Y-32781927D02*
X15776190Y-32781927D01*
X5380952Y-31181927D02*
X5152381Y-31181927D01*
X5266667Y-31181927D02*
X5266667Y-30781927D01*
X5266667Y-30781927D02*
X5228571Y-30839070D01*
X5228571Y-30839070D02*
X5190476Y-30877165D01*
X5190476Y-30877165D02*
X5152381Y-30896213D01*
X5628571Y-30781927D02*
X5666666Y-30781927D01*
X5666666Y-30781927D02*
X5704762Y-30800975D01*
X5704762Y-30800975D02*
X5723809Y-30820022D01*
X5723809Y-30820022D02*
X5742857Y-30858118D01*
X5742857Y-30858118D02*
X5761904Y-30934308D01*
X5761904Y-30934308D02*
X5761904Y-31029546D01*
X5761904Y-31029546D02*
X5742857Y-31105737D01*
X5742857Y-31105737D02*
X5723809Y-31143832D01*
X5723809Y-31143832D02*
X5704762Y-31162880D01*
X5704762Y-31162880D02*
X5666666Y-31181927D01*
X5666666Y-31181927D02*
X5628571Y-31181927D01*
X5628571Y-31181927D02*
X5590476Y-31162880D01*
X5590476Y-31162880D02*
X5571428Y-31143832D01*
X5571428Y-31143832D02*
X5552381Y-31105737D01*
X5552381Y-31105737D02*
X5533333Y-31029546D01*
X5533333Y-31029546D02*
X5533333Y-30934308D01*
X5533333Y-30934308D02*
X5552381Y-30858118D01*
X5552381Y-30858118D02*
X5571428Y-30820022D01*
X5571428Y-30820022D02*
X5590476Y-30800975D01*
X5590476Y-30800975D02*
X5628571Y-30781927D01*
X6009523Y-30781927D02*
X6047618Y-30781927D01*
X6047618Y-30781927D02*
X6085714Y-30800975D01*
X6085714Y-30800975D02*
X6104761Y-30820022D01*
X6104761Y-30820022D02*
X6123809Y-30858118D01*
X6123809Y-30858118D02*
X6142856Y-30934308D01*
X6142856Y-30934308D02*
X6142856Y-31029546D01*
X6142856Y-31029546D02*
X6123809Y-31105737D01*
X6123809Y-31105737D02*
X6104761Y-31143832D01*
X6104761Y-31143832D02*
X6085714Y-31162880D01*
X6085714Y-31162880D02*
X6047618Y-31181927D01*
X6047618Y-31181927D02*
X6009523Y-31181927D01*
X6009523Y-31181927D02*
X5971428Y-31162880D01*
X5971428Y-31162880D02*
X5952380Y-31143832D01*
X5952380Y-31143832D02*
X5933333Y-31105737D01*
X5933333Y-31105737D02*
X5914285Y-31029546D01*
X5914285Y-31029546D02*
X5914285Y-30934308D01*
X5914285Y-30934308D02*
X5933333Y-30858118D01*
X5933333Y-30858118D02*
X5952380Y-30820022D01*
X5952380Y-30820022D02*
X5971428Y-30800975D01*
X5971428Y-30800975D02*
X6009523Y-30781927D01*
X6314285Y-30915260D02*
X6314285Y-31181927D01*
X6314285Y-30953356D02*
X6333332Y-30934308D01*
X6333332Y-30934308D02*
X6371427Y-30915260D01*
X6371427Y-30915260D02*
X6428570Y-30915260D01*
X6428570Y-30915260D02*
X6466666Y-30934308D01*
X6466666Y-30934308D02*
X6485713Y-30972403D01*
X6485713Y-30972403D02*
X6485713Y-31181927D01*
X6809523Y-30972403D02*
X6676190Y-30972403D01*
X6676190Y-31181927D02*
X6676190Y-30781927D01*
X6676190Y-30781927D02*
X6866666Y-30781927D01*
X43380952Y-31181927D02*
X43152381Y-31181927D01*
X43266667Y-31181927D02*
X43266667Y-30781927D01*
X43266667Y-30781927D02*
X43228571Y-30839070D01*
X43228571Y-30839070D02*
X43190476Y-30877165D01*
X43190476Y-30877165D02*
X43152381Y-30896213D01*
X43628571Y-30781927D02*
X43666666Y-30781927D01*
X43666666Y-30781927D02*
X43704762Y-30800975D01*
X43704762Y-30800975D02*
X43723809Y-30820022D01*
X43723809Y-30820022D02*
X43742857Y-30858118D01*
X43742857Y-30858118D02*
X43761904Y-30934308D01*
X43761904Y-30934308D02*
X43761904Y-31029546D01*
X43761904Y-31029546D02*
X43742857Y-31105737D01*
X43742857Y-31105737D02*
X43723809Y-31143832D01*
X43723809Y-31143832D02*
X43704762Y-31162880D01*
X43704762Y-31162880D02*
X43666666Y-31181927D01*
X43666666Y-31181927D02*
X43628571Y-31181927D01*
X43628571Y-31181927D02*
X43590476Y-31162880D01*
X43590476Y-31162880D02*
X43571428Y-31143832D01*
X43571428Y-31143832D02*
X43552381Y-31105737D01*
X43552381Y-31105737D02*
X43533333Y-31029546D01*
X43533333Y-31029546D02*
X43533333Y-30934308D01*
X43533333Y-30934308D02*
X43552381Y-30858118D01*
X43552381Y-30858118D02*
X43571428Y-30820022D01*
X43571428Y-30820022D02*
X43590476Y-30800975D01*
X43590476Y-30800975D02*
X43628571Y-30781927D01*
X44009523Y-30781927D02*
X44047618Y-30781927D01*
X44047618Y-30781927D02*
X44085714Y-30800975D01*
X44085714Y-30800975D02*
X44104761Y-30820022D01*
X44104761Y-30820022D02*
X44123809Y-30858118D01*
X44123809Y-30858118D02*
X44142856Y-30934308D01*
X44142856Y-30934308D02*
X44142856Y-31029546D01*
X44142856Y-31029546D02*
X44123809Y-31105737D01*
X44123809Y-31105737D02*
X44104761Y-31143832D01*
X44104761Y-31143832D02*
X44085714Y-31162880D01*
X44085714Y-31162880D02*
X44047618Y-31181927D01*
X44047618Y-31181927D02*
X44009523Y-31181927D01*
X44009523Y-31181927D02*
X43971428Y-31162880D01*
X43971428Y-31162880D02*
X43952380Y-31143832D01*
X43952380Y-31143832D02*
X43933333Y-31105737D01*
X43933333Y-31105737D02*
X43914285Y-31029546D01*
X43914285Y-31029546D02*
X43914285Y-30934308D01*
X43914285Y-30934308D02*
X43933333Y-30858118D01*
X43933333Y-30858118D02*
X43952380Y-30820022D01*
X43952380Y-30820022D02*
X43971428Y-30800975D01*
X43971428Y-30800975D02*
X44009523Y-30781927D01*
X44314285Y-30915260D02*
X44314285Y-31181927D01*
X44314285Y-30953356D02*
X44333332Y-30934308D01*
X44333332Y-30934308D02*
X44371427Y-30915260D01*
X44371427Y-30915260D02*
X44428570Y-30915260D01*
X44428570Y-30915260D02*
X44466666Y-30934308D01*
X44466666Y-30934308D02*
X44485713Y-30972403D01*
X44485713Y-30972403D02*
X44485713Y-31181927D01*
X44809523Y-30972403D02*
X44676190Y-30972403D01*
X44676190Y-31181927D02*
X44676190Y-30781927D01*
X44676190Y-30781927D02*
X44866666Y-30781927D01*
X5571428Y-25181927D02*
X5342857Y-25181927D01*
X5457143Y-25181927D02*
X5457143Y-24781927D01*
X5457143Y-24781927D02*
X5419047Y-24839070D01*
X5419047Y-24839070D02*
X5380952Y-24877165D01*
X5380952Y-24877165D02*
X5342857Y-24896213D01*
X5819047Y-24781927D02*
X5857142Y-24781927D01*
X5857142Y-24781927D02*
X5895238Y-24800975D01*
X5895238Y-24800975D02*
X5914285Y-24820022D01*
X5914285Y-24820022D02*
X5933333Y-24858118D01*
X5933333Y-24858118D02*
X5952380Y-24934308D01*
X5952380Y-24934308D02*
X5952380Y-25029546D01*
X5952380Y-25029546D02*
X5933333Y-25105737D01*
X5933333Y-25105737D02*
X5914285Y-25143832D01*
X5914285Y-25143832D02*
X5895238Y-25162880D01*
X5895238Y-25162880D02*
X5857142Y-25181927D01*
X5857142Y-25181927D02*
X5819047Y-25181927D01*
X5819047Y-25181927D02*
X5780952Y-25162880D01*
X5780952Y-25162880D02*
X5761904Y-25143832D01*
X5761904Y-25143832D02*
X5742857Y-25105737D01*
X5742857Y-25105737D02*
X5723809Y-25029546D01*
X5723809Y-25029546D02*
X5723809Y-24934308D01*
X5723809Y-24934308D02*
X5742857Y-24858118D01*
X5742857Y-24858118D02*
X5761904Y-24820022D01*
X5761904Y-24820022D02*
X5780952Y-24800975D01*
X5780952Y-24800975D02*
X5819047Y-24781927D01*
X6295237Y-24915260D02*
X6295237Y-25181927D01*
X6123809Y-24915260D02*
X6123809Y-25124784D01*
X6123809Y-25124784D02*
X6142856Y-25162880D01*
X6142856Y-25162880D02*
X6180951Y-25181927D01*
X6180951Y-25181927D02*
X6238094Y-25181927D01*
X6238094Y-25181927D02*
X6276190Y-25162880D01*
X6276190Y-25162880D02*
X6295237Y-25143832D01*
X6619047Y-24972403D02*
X6485714Y-24972403D01*
X6485714Y-25181927D02*
X6485714Y-24781927D01*
X6485714Y-24781927D02*
X6676190Y-24781927D01*
X41628571Y-30915260D02*
X41628571Y-31181927D01*
X41533333Y-30762880D02*
X41438095Y-31048594D01*
X41438095Y-31048594D02*
X41685714Y-31048594D01*
X41838095Y-31143832D02*
X41857142Y-31162880D01*
X41857142Y-31162880D02*
X41838095Y-31181927D01*
X41838095Y-31181927D02*
X41819047Y-31162880D01*
X41819047Y-31162880D02*
X41838095Y-31143832D01*
X41838095Y-31143832D02*
X41838095Y-31181927D01*
X41990475Y-30781927D02*
X42257142Y-30781927D01*
X42257142Y-30781927D02*
X42085713Y-31181927D01*
X42409523Y-31181927D02*
X42409523Y-30781927D01*
X42447618Y-31029546D02*
X42561904Y-31181927D01*
X42561904Y-30915260D02*
X42409523Y-31067641D01*
X42628571Y-33915260D02*
X42628571Y-34181927D01*
X42533333Y-33762880D02*
X42438095Y-34048594D01*
X42438095Y-34048594D02*
X42685714Y-34048594D01*
X42838095Y-34143832D02*
X42857142Y-34162880D01*
X42857142Y-34162880D02*
X42838095Y-34181927D01*
X42838095Y-34181927D02*
X42819047Y-34162880D01*
X42819047Y-34162880D02*
X42838095Y-34143832D01*
X42838095Y-34143832D02*
X42838095Y-34181927D01*
X42990475Y-33781927D02*
X43257142Y-33781927D01*
X43257142Y-33781927D02*
X43085713Y-34181927D01*
X43409523Y-34181927D02*
X43409523Y-33781927D01*
X43447618Y-34029546D02*
X43561904Y-34181927D01*
X43561904Y-33915260D02*
X43409523Y-34067641D01*
X2885714Y-16181927D02*
X2657143Y-16181927D01*
X2771429Y-16181927D02*
X2771429Y-15781927D01*
X2771429Y-15781927D02*
X2733333Y-15839070D01*
X2733333Y-15839070D02*
X2695238Y-15877165D01*
X2695238Y-15877165D02*
X2657143Y-15896213D01*
X3057143Y-16181927D02*
X3057143Y-15781927D01*
X3057143Y-15781927D02*
X3190476Y-16067641D01*
X3190476Y-16067641D02*
X3323809Y-15781927D01*
X3323809Y-15781927D02*
X3323809Y-16181927D01*
X4885714Y-16181927D02*
X4657143Y-16181927D01*
X4771429Y-16181927D02*
X4771429Y-15781927D01*
X4771429Y-15781927D02*
X4733333Y-15839070D01*
X4733333Y-15839070D02*
X4695238Y-15877165D01*
X4695238Y-15877165D02*
X4657143Y-15896213D01*
X5057143Y-16181927D02*
X5057143Y-15781927D01*
X5057143Y-15781927D02*
X5190476Y-16067641D01*
X5190476Y-16067641D02*
X5323809Y-15781927D01*
X5323809Y-15781927D02*
X5323809Y-16181927D01*
M02*
