%TF.GenerationSoftware,KiCad,Pcbnew,9.0.8+dfsg-1*%
%TF.CreationDate,2026-07-29T21:22:37+05:30*%
%TF.ProjectId,hub_board_v1,6875625f-626f-4617-9264-5f76312e6b69,rev?*%
%TF.SameCoordinates,Original*%
%TF.FileFunction,Legend,Bot*%
%TF.FilePolarity,Positive*%
%FSLAX46Y46*%
G04 Gerber Fmt 4.6, Leading zero omitted, Abs format (unit mm)*
G04 Created by KiCad (PCBNEW 9.0.8+dfsg-1) date 2026-07-29 21:22:37*
%MOMM*%
%LPD*%
G01*
G04 APERTURE LIST*
%ADD10C,0.150000*%
G04 APERTURE END LIST*
D10*
X33476190Y-37454819D02*
X33476190Y-38169104D01*
X33476190Y-38169104D02*
X33523809Y-38311961D01*
X33523809Y-38311961D02*
X33619047Y-38407200D01*
X33619047Y-38407200D02*
X33761904Y-38454819D01*
X33761904Y-38454819D02*
X33857142Y-38454819D01*
X32523809Y-38454819D02*
X32999999Y-38454819D01*
X32999999Y-38454819D02*
X32999999Y-37454819D01*
X31619047Y-38359580D02*
X31666666Y-38407200D01*
X31666666Y-38407200D02*
X31809523Y-38454819D01*
X31809523Y-38454819D02*
X31904761Y-38454819D01*
X31904761Y-38454819D02*
X32047618Y-38407200D01*
X32047618Y-38407200D02*
X32142856Y-38311961D01*
X32142856Y-38311961D02*
X32190475Y-38216723D01*
X32190475Y-38216723D02*
X32238094Y-38026247D01*
X32238094Y-38026247D02*
X32238094Y-37883390D01*
X32238094Y-37883390D02*
X32190475Y-37692914D01*
X32190475Y-37692914D02*
X32142856Y-37597676D01*
X32142856Y-37597676D02*
X32047618Y-37502438D01*
X32047618Y-37502438D02*
X31904761Y-37454819D01*
X31904761Y-37454819D02*
X31809523Y-37454819D01*
X31809523Y-37454819D02*
X31666666Y-37502438D01*
X31666666Y-37502438D02*
X31619047Y-37550057D01*
X31190475Y-38454819D02*
X31190475Y-37454819D01*
X31190475Y-37454819D02*
X30809523Y-37454819D01*
X30809523Y-37454819D02*
X30714285Y-37502438D01*
X30714285Y-37502438D02*
X30666666Y-37550057D01*
X30666666Y-37550057D02*
X30619047Y-37645295D01*
X30619047Y-37645295D02*
X30619047Y-37788152D01*
X30619047Y-37788152D02*
X30666666Y-37883390D01*
X30666666Y-37883390D02*
X30714285Y-37931009D01*
X30714285Y-37931009D02*
X30809523Y-37978628D01*
X30809523Y-37978628D02*
X31190475Y-37978628D01*
X29619047Y-38359580D02*
X29666666Y-38407200D01*
X29666666Y-38407200D02*
X29809523Y-38454819D01*
X29809523Y-38454819D02*
X29904761Y-38454819D01*
X29904761Y-38454819D02*
X30047618Y-38407200D01*
X30047618Y-38407200D02*
X30142856Y-38311961D01*
X30142856Y-38311961D02*
X30190475Y-38216723D01*
X30190475Y-38216723D02*
X30238094Y-38026247D01*
X30238094Y-38026247D02*
X30238094Y-37883390D01*
X30238094Y-37883390D02*
X30190475Y-37692914D01*
X30190475Y-37692914D02*
X30142856Y-37597676D01*
X30142856Y-37597676D02*
X30047618Y-37502438D01*
X30047618Y-37502438D02*
X29904761Y-37454819D01*
X29904761Y-37454819D02*
X29809523Y-37454819D01*
X29809523Y-37454819D02*
X29666666Y-37502438D01*
X29666666Y-37502438D02*
X29619047Y-37550057D01*
X28857142Y-37931009D02*
X28714285Y-37978628D01*
X28714285Y-37978628D02*
X28666666Y-38026247D01*
X28666666Y-38026247D02*
X28619047Y-38121485D01*
X28619047Y-38121485D02*
X28619047Y-38264342D01*
X28619047Y-38264342D02*
X28666666Y-38359580D01*
X28666666Y-38359580D02*
X28714285Y-38407200D01*
X28714285Y-38407200D02*
X28809523Y-38454819D01*
X28809523Y-38454819D02*
X29190475Y-38454819D01*
X29190475Y-38454819D02*
X29190475Y-37454819D01*
X29190475Y-37454819D02*
X28857142Y-37454819D01*
X28857142Y-37454819D02*
X28761904Y-37502438D01*
X28761904Y-37502438D02*
X28714285Y-37550057D01*
X28714285Y-37550057D02*
X28666666Y-37645295D01*
X28666666Y-37645295D02*
X28666666Y-37740533D01*
X28666666Y-37740533D02*
X28714285Y-37835771D01*
X28714285Y-37835771D02*
X28761904Y-37883390D01*
X28761904Y-37883390D02*
X28857142Y-37931009D01*
X28857142Y-37931009D02*
X29190475Y-37931009D01*
X27476189Y-37550057D02*
X27428570Y-37502438D01*
X27428570Y-37502438D02*
X27333332Y-37454819D01*
X27333332Y-37454819D02*
X27095237Y-37454819D01*
X27095237Y-37454819D02*
X26999999Y-37502438D01*
X26999999Y-37502438D02*
X26952380Y-37550057D01*
X26952380Y-37550057D02*
X26904761Y-37645295D01*
X26904761Y-37645295D02*
X26904761Y-37740533D01*
X26904761Y-37740533D02*
X26952380Y-37883390D01*
X26952380Y-37883390D02*
X27523808Y-38454819D01*
X27523808Y-38454819D02*
X26904761Y-38454819D01*
X26476189Y-38073866D02*
X25714285Y-38073866D01*
X25095237Y-38454819D02*
X25190475Y-38407200D01*
X25190475Y-38407200D02*
X25238094Y-38311961D01*
X25238094Y-38311961D02*
X25238094Y-37454819D01*
X24285713Y-38454819D02*
X24285713Y-37931009D01*
X24285713Y-37931009D02*
X24333332Y-37835771D01*
X24333332Y-37835771D02*
X24428570Y-37788152D01*
X24428570Y-37788152D02*
X24619046Y-37788152D01*
X24619046Y-37788152D02*
X24714284Y-37835771D01*
X24285713Y-38407200D02*
X24380951Y-38454819D01*
X24380951Y-38454819D02*
X24619046Y-38454819D01*
X24619046Y-38454819D02*
X24714284Y-38407200D01*
X24714284Y-38407200D02*
X24761903Y-38311961D01*
X24761903Y-38311961D02*
X24761903Y-38216723D01*
X24761903Y-38216723D02*
X24714284Y-38121485D01*
X24714284Y-38121485D02*
X24619046Y-38073866D01*
X24619046Y-38073866D02*
X24380951Y-38073866D01*
X24380951Y-38073866D02*
X24285713Y-38026247D01*
X23904760Y-37788152D02*
X23666665Y-38454819D01*
X23428570Y-37788152D02*
X23666665Y-38454819D01*
X23666665Y-38454819D02*
X23761903Y-38692914D01*
X23761903Y-38692914D02*
X23809522Y-38740533D01*
X23809522Y-38740533D02*
X23904760Y-38788152D01*
X22666665Y-38407200D02*
X22761903Y-38454819D01*
X22761903Y-38454819D02*
X22952379Y-38454819D01*
X22952379Y-38454819D02*
X23047617Y-38407200D01*
X23047617Y-38407200D02*
X23095236Y-38311961D01*
X23095236Y-38311961D02*
X23095236Y-37931009D01*
X23095236Y-37931009D02*
X23047617Y-37835771D01*
X23047617Y-37835771D02*
X22952379Y-37788152D01*
X22952379Y-37788152D02*
X22761903Y-37788152D01*
X22761903Y-37788152D02*
X22666665Y-37835771D01*
X22666665Y-37835771D02*
X22619046Y-37931009D01*
X22619046Y-37931009D02*
X22619046Y-38026247D01*
X22619046Y-38026247D02*
X23095236Y-38121485D01*
X22190474Y-38454819D02*
X22190474Y-37788152D01*
X22190474Y-37978628D02*
X22142855Y-37883390D01*
X22142855Y-37883390D02*
X22095236Y-37835771D01*
X22095236Y-37835771D02*
X21999998Y-37788152D01*
X21999998Y-37788152D02*
X21904760Y-37788152D01*
X20619045Y-37454819D02*
X20523807Y-37454819D01*
X20523807Y-37454819D02*
X20428569Y-37502438D01*
X20428569Y-37502438D02*
X20380950Y-37550057D01*
X20380950Y-37550057D02*
X20333331Y-37645295D01*
X20333331Y-37645295D02*
X20285712Y-37835771D01*
X20285712Y-37835771D02*
X20285712Y-38073866D01*
X20285712Y-38073866D02*
X20333331Y-38264342D01*
X20333331Y-38264342D02*
X20380950Y-38359580D01*
X20380950Y-38359580D02*
X20428569Y-38407200D01*
X20428569Y-38407200D02*
X20523807Y-38454819D01*
X20523807Y-38454819D02*
X20619045Y-38454819D01*
X20619045Y-38454819D02*
X20714283Y-38407200D01*
X20714283Y-38407200D02*
X20761902Y-38359580D01*
X20761902Y-38359580D02*
X20809521Y-38264342D01*
X20809521Y-38264342D02*
X20857140Y-38073866D01*
X20857140Y-38073866D02*
X20857140Y-37835771D01*
X20857140Y-37835771D02*
X20809521Y-37645295D01*
X20809521Y-37645295D02*
X20761902Y-37550057D01*
X20761902Y-37550057D02*
X20714283Y-37502438D01*
X20714283Y-37502438D02*
X20619045Y-37454819D01*
X19857140Y-38359580D02*
X19809521Y-38407200D01*
X19809521Y-38407200D02*
X19857140Y-38454819D01*
X19857140Y-38454819D02*
X19904759Y-38407200D01*
X19904759Y-38407200D02*
X19857140Y-38359580D01*
X19857140Y-38359580D02*
X19857140Y-38454819D01*
X18952379Y-37454819D02*
X19142855Y-37454819D01*
X19142855Y-37454819D02*
X19238093Y-37502438D01*
X19238093Y-37502438D02*
X19285712Y-37550057D01*
X19285712Y-37550057D02*
X19380950Y-37692914D01*
X19380950Y-37692914D02*
X19428569Y-37883390D01*
X19428569Y-37883390D02*
X19428569Y-38264342D01*
X19428569Y-38264342D02*
X19380950Y-38359580D01*
X19380950Y-38359580D02*
X19333331Y-38407200D01*
X19333331Y-38407200D02*
X19238093Y-38454819D01*
X19238093Y-38454819D02*
X19047617Y-38454819D01*
X19047617Y-38454819D02*
X18952379Y-38407200D01*
X18952379Y-38407200D02*
X18904760Y-38359580D01*
X18904760Y-38359580D02*
X18857141Y-38264342D01*
X18857141Y-38264342D02*
X18857141Y-38026247D01*
X18857141Y-38026247D02*
X18904760Y-37931009D01*
X18904760Y-37931009D02*
X18952379Y-37883390D01*
X18952379Y-37883390D02*
X19047617Y-37835771D01*
X19047617Y-37835771D02*
X19238093Y-37835771D01*
X19238093Y-37835771D02*
X19333331Y-37883390D01*
X19333331Y-37883390D02*
X19380950Y-37931009D01*
X19380950Y-37931009D02*
X19428569Y-38026247D01*
X18428569Y-38454819D02*
X18428569Y-37788152D01*
X18428569Y-37883390D02*
X18380950Y-37835771D01*
X18380950Y-37835771D02*
X18285712Y-37788152D01*
X18285712Y-37788152D02*
X18142855Y-37788152D01*
X18142855Y-37788152D02*
X18047617Y-37835771D01*
X18047617Y-37835771D02*
X17999998Y-37931009D01*
X17999998Y-37931009D02*
X17999998Y-38454819D01*
X17999998Y-37931009D02*
X17952379Y-37835771D01*
X17952379Y-37835771D02*
X17857141Y-37788152D01*
X17857141Y-37788152D02*
X17714284Y-37788152D01*
X17714284Y-37788152D02*
X17619045Y-37835771D01*
X17619045Y-37835771D02*
X17571426Y-37931009D01*
X17571426Y-37931009D02*
X17571426Y-38454819D01*
X17095236Y-38454819D02*
X17095236Y-37788152D01*
X17095236Y-37883390D02*
X17047617Y-37835771D01*
X17047617Y-37835771D02*
X16952379Y-37788152D01*
X16952379Y-37788152D02*
X16809522Y-37788152D01*
X16809522Y-37788152D02*
X16714284Y-37835771D01*
X16714284Y-37835771D02*
X16666665Y-37931009D01*
X16666665Y-37931009D02*
X16666665Y-38454819D01*
X16666665Y-37931009D02*
X16619046Y-37835771D01*
X16619046Y-37835771D02*
X16523808Y-37788152D01*
X16523808Y-37788152D02*
X16380951Y-37788152D01*
X16380951Y-37788152D02*
X16285712Y-37835771D01*
X16285712Y-37835771D02*
X16238093Y-37931009D01*
X16238093Y-37931009D02*
X16238093Y-38454819D01*
M02*
