%TF.GenerationSoftware,KiCad,Pcbnew,9.0.8+dfsg-1*%
%TF.CreationDate,2026-09-29T12:58:34+02:00*%
%TF.ProjectId,v8b_krt_routed,7638625f-6b72-4745-9f72-6f757465642e,rev?*%
%TF.SameCoordinates,Original*%
%TF.FileFunction,Copper,L3,Inr*%
%TF.FilePolarity,Positive*%
%FSLAX46Y46*%
G04 Gerber Fmt 4.6, Leading zero omitted, Abs format (unit mm)*
G04 Created by KiCad (PCBNEW 9.0.8+dfsg-1) date 2026-09-29 12:58:34*
%MOMM*%
%LPD*%
G01*
G04 APERTURE LIST*
G04 Aperture macros list*
%AMRoundRect*
0 Rectangle with rounded corners*
0 $1 Rounding radius*
0 $2 $3 $4 $5 $6 $7 $8 $9 X,Y pos of 4 corners*
0 Add a 4 corners polygon primitive as box body*
4,1,4,$2,$3,$4,$5,$6,$7,$8,$9,$2,$3,0*
0 Add four circle primitives for the rounded corners*
1,1,$1+$1,$2,$3*
1,1,$1+$1,$4,$5*
1,1,$1+$1,$6,$7*
1,1,$1+$1,$8,$9*
0 Add four rect primitives between the rounded corners*
20,1,$1+$1,$2,$3,$4,$5,0*
20,1,$1+$1,$4,$5,$6,$7,0*
20,1,$1+$1,$6,$7,$8,$9,0*
20,1,$1+$1,$8,$9,$2,$3,0*%
G04 Aperture macros list end*
%TA.AperFunction,ComponentPad*%
%ADD10RoundRect,0.250000X0.750000X-0.750000X0.750000X0.750000X-0.750000X0.750000X-0.750000X-0.750000X0*%
%TD*%
%TA.AperFunction,ComponentPad*%
%ADD11C,2.000000*%
%TD*%
%TA.AperFunction,ComponentPad*%
%ADD12R,1.700000X1.700000*%
%TD*%
%TA.AperFunction,ComponentPad*%
%ADD13C,1.700000*%
%TD*%
%TA.AperFunction,HeatsinkPad*%
%ADD14C,0.600000*%
%TD*%
%TA.AperFunction,ViaPad*%
%ADD15C,0.600000*%
%TD*%
%TA.AperFunction,ViaPad*%
%ADD16C,0.450000*%
%TD*%
%TA.AperFunction,Conductor*%
%ADD17C,0.300000*%
%TD*%
%TA.AperFunction,Conductor*%
%ADD18C,0.200000*%
%TD*%
G04 APERTURE END LIST*
D10*
%TO.N,VCAP*%
%TO.C,C_CAP*%
X6000000Y-30000000D03*
D11*
%TO.N,GND*%
X6000000Y-25000000D03*
%TD*%
D12*
%TO.N,GND*%
%TO.C,J2*%
X40000000Y-42000000D03*
D13*
%TO.N,+3V3*%
X42540000Y-42000000D03*
%TO.N,I2C_SDA*%
X45080000Y-42000000D03*
%TO.N,I2C_SCL*%
X47620000Y-42000000D03*
%TD*%
D12*
%TO.N,SOLAR_IN*%
%TO.C,SOLAR*%
X4000000Y-42000000D03*
D13*
%TO.N,GND*%
X6540000Y-42000000D03*
%TD*%
D14*
%TO.N,GND*%
%TO.C,U1*%
X12860000Y-11650000D03*
X12860000Y-12750000D03*
X13410000Y-11100000D03*
X13410000Y-12200000D03*
X13410000Y-13300000D03*
X13960000Y-11650000D03*
X13960000Y-12750000D03*
X14510000Y-11100000D03*
X14510000Y-12200000D03*
X14510000Y-13300000D03*
X15060000Y-11650000D03*
X15060000Y-12750000D03*
%TD*%
D12*
%TO.N,GND*%
%TO.C,J1*%
X20000000Y-42000000D03*
D13*
%TO.N,+3V3*%
X22540000Y-42000000D03*
%TO.N,EN*%
X25080000Y-42000000D03*
%TO.N,UART0_TX*%
X27620000Y-42000000D03*
%TO.N,UART0_RX*%
X30160000Y-42000000D03*
%TO.N,N/C*%
X32700000Y-42000000D03*
%TD*%
D15*
%TO.N,+3V3*%
X22200000Y-34100000D03*
X14000000Y-36500000D03*
X45500000Y-8000000D03*
X20400000Y-6600000D03*
X51000000Y-10500000D03*
X23100000Y-9000000D03*
X19000000Y-25500000D03*
X34200000Y-29200000D03*
%TO.N,GND*%
X38800000Y-36000000D03*
X19000000Y-24500000D03*
X30500000Y-2000000D03*
X17700000Y-30000000D03*
X43800000Y-31400000D03*
D16*
X22000000Y-35000000D03*
D15*
X4200000Y-18000000D03*
X49500000Y-22000000D03*
X24100000Y-37000000D03*
D16*
X22700000Y-36500000D03*
D15*
X51000000Y-11500000D03*
X45500000Y-14000000D03*
X25800000Y-9000000D03*
X30500000Y-16000000D03*
X34200000Y-22600000D03*
%TO.N,VCAP*%
X22400000Y-23400000D03*
X4500000Y-35900000D03*
X17100000Y-29000000D03*
%TO.N,SOLAR_IN*%
X25400000Y-23200000D03*
X8200000Y-40200000D03*
%TO.N,EN*%
X26300000Y-39900000D03*
X17500000Y-11400000D03*
%TO.N,GPS_TX*%
X32500000Y-13900000D03*
X24400000Y-7100000D03*
%TO.N,SPI_SCK*%
X23100000Y-12000000D03*
X20000000Y-12000000D03*
%TO.N,SPI_MOSI*%
X25400000Y-7900000D03*
X20000000Y-13300000D03*
%TO.N,SPI_NSS*%
X22400000Y-17800000D03*
X23300000Y-16900000D03*
%TO.N,LR_RST*%
X29100000Y-12000000D03*
X24000000Y-11200000D03*
%TO.N,LR_BUSY*%
X32300000Y-9000000D03*
X24800000Y-6400000D03*
%TO.N,LR_DIO0*%
X32600000Y-6500000D03*
X28400000Y-10700000D03*
D16*
%TO.N,I2C_SCL*%
X23975000Y-34975000D03*
D15*
X4250000Y-16500000D03*
%TO.N,LED_DRIVE*%
X20000000Y-14400000D03*
X23100000Y-13200000D03*
%TO.N,UART0_TX*%
X23100000Y-16100000D03*
%TO.N,UART0_RX*%
X28900000Y-23400000D03*
X30200000Y-39100000D03*
%TD*%
D17*
%TO.N,+3V3*%
X50985000Y-10505000D02*
X51000000Y-10500000D01*
X34185000Y-29225000D02*
X34200000Y-29200000D01*
X18985000Y-25465000D02*
X19000000Y-25500000D01*
X45545000Y-8025000D02*
X45500000Y-8000000D01*
X22665000Y-34825000D02*
X22200000Y-34360000D01*
X22200000Y-34360000D02*
X22200000Y-34100000D01*
X14025000Y-36505000D02*
X14000000Y-36500000D01*
D18*
%TO.N,SOLAR_IN*%
X8400000Y-40200000D02*
X8200000Y-40200000D01*
X25400000Y-23200000D02*
X8400000Y-40200000D01*
%TD*%
%TA.AperFunction,Conductor*%
%TO.N,+3V3*%
G36*
X54458691Y-519407D02*
G01*
X54494655Y-568907D01*
X54499500Y-599500D01*
X54499500Y-44400500D01*
X54480593Y-44458691D01*
X54431093Y-44494655D01*
X54400500Y-44499500D01*
X599500Y-44499500D01*
X541309Y-44480593D01*
X505345Y-44431093D01*
X500500Y-44400500D01*
X500500Y-41128278D01*
X2929500Y-41128278D01*
X2929500Y-42871714D01*
X2929501Y-42871724D01*
X2942292Y-42936033D01*
X2942293Y-42936036D01*
X2950729Y-42948661D01*
X2991028Y-43008972D01*
X3006651Y-43019411D01*
X3063964Y-43057707D01*
X3079933Y-43060883D01*
X3128281Y-43070500D01*
X4871718Y-43070499D01*
X4871722Y-43070498D01*
X4871724Y-43070498D01*
X4892757Y-43066314D01*
X4936035Y-43057707D01*
X5008972Y-43008972D01*
X5057707Y-42936035D01*
X5070500Y-42871719D01*
X5070499Y-41894562D01*
X5469500Y-41894562D01*
X5469500Y-42105437D01*
X5510637Y-42312251D01*
X5591334Y-42507070D01*
X5591338Y-42507079D01*
X5675113Y-42632455D01*
X5708488Y-42682404D01*
X5857596Y-42831512D01*
X5917763Y-42871714D01*
X6032920Y-42948661D01*
X6032926Y-42948663D01*
X6032928Y-42948665D01*
X6227747Y-43029362D01*
X6434565Y-43070500D01*
X6434566Y-43070500D01*
X6645434Y-43070500D01*
X6645435Y-43070500D01*
X6852253Y-43029362D01*
X7047072Y-42948665D01*
X7047075Y-42948662D01*
X7047079Y-42948661D01*
X7097704Y-42914833D01*
X7222404Y-42831512D01*
X7371512Y-42682404D01*
X7454833Y-42557704D01*
X7488661Y-42507079D01*
X7488662Y-42507075D01*
X7488665Y-42507072D01*
X7569362Y-42312253D01*
X7610500Y-42105435D01*
X7610500Y-41894565D01*
X7569362Y-41687747D01*
X7488665Y-41492928D01*
X7488663Y-41492926D01*
X7488661Y-41492920D01*
X7421459Y-41392347D01*
X7371512Y-41317596D01*
X7222404Y-41168488D01*
X7162236Y-41128285D01*
X7162226Y-41128278D01*
X18929500Y-41128278D01*
X18929500Y-42871714D01*
X18929501Y-42871724D01*
X18942292Y-42936033D01*
X18942293Y-42936036D01*
X18950729Y-42948661D01*
X18991028Y-43008972D01*
X19006651Y-43019411D01*
X19063964Y-43057707D01*
X19079933Y-43060883D01*
X19128281Y-43070500D01*
X20871718Y-43070499D01*
X20871722Y-43070498D01*
X20871724Y-43070498D01*
X20892757Y-43066314D01*
X20936035Y-43057707D01*
X21008972Y-43008972D01*
X21057707Y-42936035D01*
X21069003Y-42879244D01*
X21069004Y-42879243D01*
X21069004Y-42879241D01*
X21070499Y-42871724D01*
X21070500Y-42871719D01*
X21070499Y-41913424D01*
X21440000Y-41913424D01*
X21440000Y-42086575D01*
X21467084Y-42257579D01*
X21520588Y-42422248D01*
X21599196Y-42576524D01*
X21603708Y-42582735D01*
X22057036Y-42129406D01*
X22074075Y-42192993D01*
X22139901Y-42307007D01*
X22232993Y-42400099D01*
X22347007Y-42465925D01*
X22410589Y-42482962D01*
X21957262Y-42936289D01*
X21957262Y-42936290D01*
X21963469Y-42940800D01*
X21963475Y-42940804D01*
X22117751Y-43019411D01*
X22282420Y-43072915D01*
X22453425Y-43100000D01*
X22626575Y-43100000D01*
X22797579Y-43072915D01*
X22962248Y-43019411D01*
X23116523Y-42940804D01*
X23116530Y-42940800D01*
X23122736Y-42936290D01*
X22669408Y-42482962D01*
X22732993Y-42465925D01*
X22847007Y-42400099D01*
X22940099Y-42307007D01*
X23005925Y-42192993D01*
X23022962Y-42129408D01*
X23476290Y-42582736D01*
X23480800Y-42576530D01*
X23480804Y-42576523D01*
X23559411Y-42422248D01*
X23612915Y-42257579D01*
X23640000Y-42086575D01*
X23640000Y-41913427D01*
X23638695Y-41905186D01*
X23638695Y-41905184D01*
X23637013Y-41894562D01*
X24009500Y-41894562D01*
X24009500Y-42105437D01*
X24050637Y-42312251D01*
X24131334Y-42507070D01*
X24131338Y-42507079D01*
X24215113Y-42632455D01*
X24248488Y-42682404D01*
X24397596Y-42831512D01*
X24457763Y-42871714D01*
X24572920Y-42948661D01*
X24572926Y-42948663D01*
X24572928Y-42948665D01*
X24767747Y-43029362D01*
X24974565Y-43070500D01*
X24974566Y-43070500D01*
X25185434Y-43070500D01*
X25185435Y-43070500D01*
X25392253Y-43029362D01*
X25587072Y-42948665D01*
X25587075Y-42948662D01*
X25587079Y-42948661D01*
X25637704Y-42914833D01*
X25762404Y-42831512D01*
X25911512Y-42682404D01*
X25994833Y-42557704D01*
X26028661Y-42507079D01*
X26028662Y-42507075D01*
X26028665Y-42507072D01*
X26109362Y-42312253D01*
X26150500Y-42105435D01*
X26150500Y-41894565D01*
X26150499Y-41894562D01*
X26549500Y-41894562D01*
X26549500Y-42105437D01*
X26590637Y-42312251D01*
X26671334Y-42507070D01*
X26671338Y-42507079D01*
X26755113Y-42632455D01*
X26788488Y-42682404D01*
X26937596Y-42831512D01*
X26997763Y-42871714D01*
X27112920Y-42948661D01*
X27112926Y-42948663D01*
X27112928Y-42948665D01*
X27307747Y-43029362D01*
X27514565Y-43070500D01*
X27514566Y-43070500D01*
X27725434Y-43070500D01*
X27725435Y-43070500D01*
X27932253Y-43029362D01*
X28127072Y-42948665D01*
X28127075Y-42948662D01*
X28127079Y-42948661D01*
X28177704Y-42914833D01*
X28302404Y-42831512D01*
X28451512Y-42682404D01*
X28534833Y-42557704D01*
X28568661Y-42507079D01*
X28568662Y-42507075D01*
X28568665Y-42507072D01*
X28649362Y-42312253D01*
X28690500Y-42105435D01*
X28690500Y-41894565D01*
X28690499Y-41894562D01*
X29089500Y-41894562D01*
X29089500Y-42105437D01*
X29130637Y-42312251D01*
X29211334Y-42507070D01*
X29211338Y-42507079D01*
X29295113Y-42632455D01*
X29328488Y-42682404D01*
X29477596Y-42831512D01*
X29537763Y-42871714D01*
X29652920Y-42948661D01*
X29652926Y-42948663D01*
X29652928Y-42948665D01*
X29847747Y-43029362D01*
X30054565Y-43070500D01*
X30054566Y-43070500D01*
X30265434Y-43070500D01*
X30265435Y-43070500D01*
X30472253Y-43029362D01*
X30667072Y-42948665D01*
X30667075Y-42948662D01*
X30667079Y-42948661D01*
X30717704Y-42914833D01*
X30842404Y-42831512D01*
X30991512Y-42682404D01*
X31074833Y-42557704D01*
X31108661Y-42507079D01*
X31108662Y-42507075D01*
X31108665Y-42507072D01*
X31189362Y-42312253D01*
X31230500Y-42105435D01*
X31230500Y-41894565D01*
X31230499Y-41894562D01*
X31629500Y-41894562D01*
X31629500Y-42105437D01*
X31670637Y-42312251D01*
X31751334Y-42507070D01*
X31751338Y-42507079D01*
X31835113Y-42632455D01*
X31868488Y-42682404D01*
X32017596Y-42831512D01*
X32077763Y-42871714D01*
X32192920Y-42948661D01*
X32192926Y-42948663D01*
X32192928Y-42948665D01*
X32387747Y-43029362D01*
X32594565Y-43070500D01*
X32594566Y-43070500D01*
X32805434Y-43070500D01*
X32805435Y-43070500D01*
X33012253Y-43029362D01*
X33207072Y-42948665D01*
X33207075Y-42948662D01*
X33207079Y-42948661D01*
X33257704Y-42914833D01*
X33382404Y-42831512D01*
X33531512Y-42682404D01*
X33614833Y-42557704D01*
X33648661Y-42507079D01*
X33648662Y-42507075D01*
X33648665Y-42507072D01*
X33729362Y-42312253D01*
X33770500Y-42105435D01*
X33770500Y-41894565D01*
X33729362Y-41687747D01*
X33648665Y-41492928D01*
X33648663Y-41492926D01*
X33648661Y-41492920D01*
X33581459Y-41392347D01*
X33531512Y-41317596D01*
X33382404Y-41168488D01*
X33322236Y-41128285D01*
X33322226Y-41128278D01*
X38929500Y-41128278D01*
X38929500Y-42871714D01*
X38929501Y-42871724D01*
X38942292Y-42936033D01*
X38942293Y-42936036D01*
X38950729Y-42948661D01*
X38991028Y-43008972D01*
X39006651Y-43019411D01*
X39063964Y-43057707D01*
X39079933Y-43060883D01*
X39128281Y-43070500D01*
X40871718Y-43070499D01*
X40871722Y-43070498D01*
X40871724Y-43070498D01*
X40892757Y-43066314D01*
X40936035Y-43057707D01*
X41008972Y-43008972D01*
X41057707Y-42936035D01*
X41069003Y-42879244D01*
X41069004Y-42879243D01*
X41069004Y-42879241D01*
X41070499Y-42871724D01*
X41070500Y-42871719D01*
X41070499Y-41913424D01*
X41440000Y-41913424D01*
X41440000Y-42086575D01*
X41467084Y-42257579D01*
X41520588Y-42422248D01*
X41599196Y-42576524D01*
X41603708Y-42582735D01*
X42057036Y-42129406D01*
X42074075Y-42192993D01*
X42139901Y-42307007D01*
X42232993Y-42400099D01*
X42347007Y-42465925D01*
X42410589Y-42482962D01*
X41957262Y-42936289D01*
X41957262Y-42936290D01*
X41963469Y-42940800D01*
X41963475Y-42940804D01*
X42117751Y-43019411D01*
X42282420Y-43072915D01*
X42453425Y-43100000D01*
X42626575Y-43100000D01*
X42797579Y-43072915D01*
X42962248Y-43019411D01*
X43116523Y-42940804D01*
X43116530Y-42940800D01*
X43122736Y-42936290D01*
X42669408Y-42482962D01*
X42732993Y-42465925D01*
X42847007Y-42400099D01*
X42940099Y-42307007D01*
X43005925Y-42192993D01*
X43022962Y-42129408D01*
X43476290Y-42582736D01*
X43480800Y-42576530D01*
X43480804Y-42576523D01*
X43559411Y-42422248D01*
X43612915Y-42257579D01*
X43640000Y-42086575D01*
X43640000Y-41913427D01*
X43638695Y-41905186D01*
X43638695Y-41905184D01*
X43637013Y-41894562D01*
X44009500Y-41894562D01*
X44009500Y-42105437D01*
X44050637Y-42312251D01*
X44131334Y-42507070D01*
X44131338Y-42507079D01*
X44215113Y-42632455D01*
X44248488Y-42682404D01*
X44397596Y-42831512D01*
X44457763Y-42871714D01*
X44572920Y-42948661D01*
X44572926Y-42948663D01*
X44572928Y-42948665D01*
X44767747Y-43029362D01*
X44974565Y-43070500D01*
X44974566Y-43070500D01*
X45185434Y-43070500D01*
X45185435Y-43070500D01*
X45392253Y-43029362D01*
X45587072Y-42948665D01*
X45587075Y-42948662D01*
X45587079Y-42948661D01*
X45637704Y-42914833D01*
X45762404Y-42831512D01*
X45911512Y-42682404D01*
X45994833Y-42557704D01*
X46028661Y-42507079D01*
X46028662Y-42507075D01*
X46028665Y-42507072D01*
X46109362Y-42312253D01*
X46150500Y-42105435D01*
X46150500Y-41894565D01*
X46150499Y-41894562D01*
X46549500Y-41894562D01*
X46549500Y-42105437D01*
X46590637Y-42312251D01*
X46671334Y-42507070D01*
X46671338Y-42507079D01*
X46755113Y-42632455D01*
X46788488Y-42682404D01*
X46937596Y-42831512D01*
X46997763Y-42871714D01*
X47112920Y-42948661D01*
X47112926Y-42948663D01*
X47112928Y-42948665D01*
X47307747Y-43029362D01*
X47514565Y-43070500D01*
X47514566Y-43070500D01*
X47725434Y-43070500D01*
X47725435Y-43070500D01*
X47932253Y-43029362D01*
X48127072Y-42948665D01*
X48127075Y-42948662D01*
X48127079Y-42948661D01*
X48177704Y-42914833D01*
X48302404Y-42831512D01*
X48451512Y-42682404D01*
X48534833Y-42557704D01*
X48568661Y-42507079D01*
X48568662Y-42507075D01*
X48568665Y-42507072D01*
X48649362Y-42312253D01*
X48690500Y-42105435D01*
X48690500Y-41894565D01*
X48649362Y-41687747D01*
X48568665Y-41492928D01*
X48568663Y-41492926D01*
X48568661Y-41492920D01*
X48501459Y-41392347D01*
X48451512Y-41317596D01*
X48302404Y-41168488D01*
X48242236Y-41128285D01*
X48127079Y-41051338D01*
X48127070Y-41051334D01*
X47932251Y-40970637D01*
X47725437Y-40929500D01*
X47725435Y-40929500D01*
X47514565Y-40929500D01*
X47514562Y-40929500D01*
X47307748Y-40970637D01*
X47112929Y-41051334D01*
X47112920Y-41051338D01*
X46937596Y-41168488D01*
X46937592Y-41168491D01*
X46788491Y-41317592D01*
X46788488Y-41317596D01*
X46671338Y-41492920D01*
X46671334Y-41492929D01*
X46590637Y-41687748D01*
X46549500Y-41894562D01*
X46150499Y-41894562D01*
X46109362Y-41687747D01*
X46028665Y-41492928D01*
X46028663Y-41492926D01*
X46028661Y-41492920D01*
X45961459Y-41392347D01*
X45911512Y-41317596D01*
X45762404Y-41168488D01*
X45702236Y-41128285D01*
X45587079Y-41051338D01*
X45587070Y-41051334D01*
X45392251Y-40970637D01*
X45185437Y-40929500D01*
X45185435Y-40929500D01*
X44974565Y-40929500D01*
X44974562Y-40929500D01*
X44767748Y-40970637D01*
X44572929Y-41051334D01*
X44572920Y-41051338D01*
X44397596Y-41168488D01*
X44397592Y-41168491D01*
X44248491Y-41317592D01*
X44248488Y-41317596D01*
X44131338Y-41492920D01*
X44131334Y-41492929D01*
X44050637Y-41687748D01*
X44009500Y-41894562D01*
X43637013Y-41894562D01*
X43612915Y-41742420D01*
X43559411Y-41577751D01*
X43480804Y-41423475D01*
X43480800Y-41423469D01*
X43476290Y-41417262D01*
X43476289Y-41417262D01*
X43022962Y-41870589D01*
X43005925Y-41807007D01*
X42940099Y-41692993D01*
X42847007Y-41599901D01*
X42732993Y-41534075D01*
X42669407Y-41517036D01*
X43122736Y-41063708D01*
X43116524Y-41059196D01*
X42962248Y-40980588D01*
X42797579Y-40927084D01*
X42626575Y-40900000D01*
X42453425Y-40900000D01*
X42282420Y-40927084D01*
X42117751Y-40980588D01*
X41963478Y-41059194D01*
X41957262Y-41063708D01*
X42410591Y-41517037D01*
X42347007Y-41534075D01*
X42232993Y-41599901D01*
X42139901Y-41692993D01*
X42074075Y-41807007D01*
X42057037Y-41870591D01*
X41603708Y-41417262D01*
X41599194Y-41423478D01*
X41520588Y-41577751D01*
X41467084Y-41742420D01*
X41440000Y-41913424D01*
X41070499Y-41913424D01*
X41070499Y-41128282D01*
X41057707Y-41063965D01*
X41057535Y-41063708D01*
X41008973Y-40991030D01*
X41008972Y-40991028D01*
X41008639Y-40990805D01*
X40936035Y-40942292D01*
X40871720Y-40929500D01*
X39128285Y-40929500D01*
X39128275Y-40929501D01*
X39063966Y-40942292D01*
X39063963Y-40942293D01*
X38991030Y-40991026D01*
X38991026Y-40991030D01*
X38942292Y-41063964D01*
X38929500Y-41128278D01*
X33322226Y-41128278D01*
X33207079Y-41051338D01*
X33207070Y-41051334D01*
X33012251Y-40970637D01*
X32805437Y-40929500D01*
X32805435Y-40929500D01*
X32594565Y-40929500D01*
X32594562Y-40929500D01*
X32387748Y-40970637D01*
X32192929Y-41051334D01*
X32192920Y-41051338D01*
X32017596Y-41168488D01*
X32017592Y-41168491D01*
X31868491Y-41317592D01*
X31868488Y-41317596D01*
X31751338Y-41492920D01*
X31751334Y-41492929D01*
X31670637Y-41687748D01*
X31629500Y-41894562D01*
X31230499Y-41894562D01*
X31189362Y-41687747D01*
X31108665Y-41492928D01*
X31108663Y-41492926D01*
X31108661Y-41492920D01*
X31041459Y-41392347D01*
X30991512Y-41317596D01*
X30842404Y-41168488D01*
X30782236Y-41128285D01*
X30667079Y-41051338D01*
X30667070Y-41051334D01*
X30472251Y-40970637D01*
X30265437Y-40929500D01*
X30265435Y-40929500D01*
X30054565Y-40929500D01*
X30054562Y-40929500D01*
X29847748Y-40970637D01*
X29652929Y-41051334D01*
X29652920Y-41051338D01*
X29477596Y-41168488D01*
X29477592Y-41168491D01*
X29328491Y-41317592D01*
X29328488Y-41317596D01*
X29211338Y-41492920D01*
X29211334Y-41492929D01*
X29130637Y-41687748D01*
X29089500Y-41894562D01*
X28690499Y-41894562D01*
X28649362Y-41687747D01*
X28568665Y-41492928D01*
X28568663Y-41492926D01*
X28568661Y-41492920D01*
X28501459Y-41392347D01*
X28451512Y-41317596D01*
X28302404Y-41168488D01*
X28242236Y-41128285D01*
X28127079Y-41051338D01*
X28127070Y-41051334D01*
X27932251Y-40970637D01*
X27725437Y-40929500D01*
X27725435Y-40929500D01*
X27514565Y-40929500D01*
X27514562Y-40929500D01*
X27307748Y-40970637D01*
X27112929Y-41051334D01*
X27112920Y-41051338D01*
X26937596Y-41168488D01*
X26937592Y-41168491D01*
X26788491Y-41317592D01*
X26788488Y-41317596D01*
X26671338Y-41492920D01*
X26671334Y-41492929D01*
X26590637Y-41687748D01*
X26549500Y-41894562D01*
X26150499Y-41894562D01*
X26109362Y-41687747D01*
X26028665Y-41492928D01*
X26028663Y-41492926D01*
X26028661Y-41492920D01*
X25961459Y-41392347D01*
X25911512Y-41317596D01*
X25762404Y-41168488D01*
X25702236Y-41128285D01*
X25587079Y-41051338D01*
X25587070Y-41051334D01*
X25392251Y-40970637D01*
X25185437Y-40929500D01*
X25185435Y-40929500D01*
X24974565Y-40929500D01*
X24974562Y-40929500D01*
X24767748Y-40970637D01*
X24572929Y-41051334D01*
X24572920Y-41051338D01*
X24397596Y-41168488D01*
X24397592Y-41168491D01*
X24248491Y-41317592D01*
X24248488Y-41317596D01*
X24131338Y-41492920D01*
X24131334Y-41492929D01*
X24050637Y-41687748D01*
X24009500Y-41894562D01*
X23637013Y-41894562D01*
X23612915Y-41742420D01*
X23559411Y-41577751D01*
X23480804Y-41423475D01*
X23480800Y-41423469D01*
X23476290Y-41417262D01*
X23476289Y-41417262D01*
X23022962Y-41870589D01*
X23005925Y-41807007D01*
X22940099Y-41692993D01*
X22847007Y-41599901D01*
X22732993Y-41534075D01*
X22669407Y-41517036D01*
X23122736Y-41063708D01*
X23116524Y-41059196D01*
X22962248Y-40980588D01*
X22797579Y-40927084D01*
X22626575Y-40900000D01*
X22453425Y-40900000D01*
X22282420Y-40927084D01*
X22117751Y-40980588D01*
X21963478Y-41059194D01*
X21957262Y-41063708D01*
X22410591Y-41517037D01*
X22347007Y-41534075D01*
X22232993Y-41599901D01*
X22139901Y-41692993D01*
X22074075Y-41807007D01*
X22057037Y-41870591D01*
X21603708Y-41417262D01*
X21599194Y-41423478D01*
X21520588Y-41577751D01*
X21467084Y-41742420D01*
X21440000Y-41913424D01*
X21070499Y-41913424D01*
X21070499Y-41128282D01*
X21057707Y-41063965D01*
X21057535Y-41063708D01*
X21008973Y-40991030D01*
X21008972Y-40991028D01*
X21008639Y-40990805D01*
X20936035Y-40942292D01*
X20871720Y-40929500D01*
X19128285Y-40929500D01*
X19128275Y-40929501D01*
X19063966Y-40942292D01*
X19063963Y-40942293D01*
X18991030Y-40991026D01*
X18991026Y-40991030D01*
X18942292Y-41063964D01*
X18929500Y-41128278D01*
X7162226Y-41128278D01*
X7047079Y-41051338D01*
X7047070Y-41051334D01*
X6852251Y-40970637D01*
X6645437Y-40929500D01*
X6645435Y-40929500D01*
X6434565Y-40929500D01*
X6434562Y-40929500D01*
X6227748Y-40970637D01*
X6032929Y-41051334D01*
X6032920Y-41051338D01*
X5857596Y-41168488D01*
X5857592Y-41168491D01*
X5708491Y-41317592D01*
X5708488Y-41317596D01*
X5591338Y-41492920D01*
X5591334Y-41492929D01*
X5510637Y-41687748D01*
X5469500Y-41894562D01*
X5070499Y-41894562D01*
X5070499Y-41128282D01*
X5069001Y-41120752D01*
X5057707Y-41063966D01*
X5057706Y-41063963D01*
X5008973Y-40991030D01*
X5008972Y-40991028D01*
X5008639Y-40990805D01*
X4936035Y-40942292D01*
X4871720Y-40929500D01*
X3128285Y-40929500D01*
X3128275Y-40929501D01*
X3063966Y-40942292D01*
X3063963Y-40942293D01*
X2991030Y-40991026D01*
X2991026Y-40991030D01*
X2942292Y-41063964D01*
X2929500Y-41128278D01*
X500500Y-41128278D01*
X500500Y-40131472D01*
X7679500Y-40131472D01*
X7679500Y-40268527D01*
X7714971Y-40400904D01*
X7714973Y-40400908D01*
X7726285Y-40420500D01*
X7783497Y-40519594D01*
X7880406Y-40616503D01*
X7880408Y-40616504D01*
X7999091Y-40685026D01*
X7999095Y-40685028D01*
X8131472Y-40720499D01*
X8131474Y-40720500D01*
X8131475Y-40720500D01*
X8268526Y-40720500D01*
X8268526Y-40720499D01*
X8400905Y-40685028D01*
X8519594Y-40616503D01*
X8616503Y-40519594D01*
X8685028Y-40400905D01*
X8690123Y-40381888D01*
X8715743Y-40337510D01*
X9221781Y-39831472D01*
X25779500Y-39831472D01*
X25779500Y-39968527D01*
X25814971Y-40100904D01*
X25814973Y-40100908D01*
X25883495Y-40219591D01*
X25883497Y-40219594D01*
X25980406Y-40316503D01*
X25980408Y-40316504D01*
X26099091Y-40385026D01*
X26099095Y-40385028D01*
X26231472Y-40420499D01*
X26231474Y-40420500D01*
X26231475Y-40420500D01*
X26368526Y-40420500D01*
X26368526Y-40420499D01*
X26500905Y-40385028D01*
X26619594Y-40316503D01*
X26716503Y-40219594D01*
X26785028Y-40100905D01*
X26820500Y-39968525D01*
X26820500Y-39831475D01*
X26785028Y-39699095D01*
X26716503Y-39580406D01*
X26619594Y-39483497D01*
X26619591Y-39483495D01*
X26500908Y-39414973D01*
X26500904Y-39414971D01*
X26368527Y-39379500D01*
X26368525Y-39379500D01*
X26231475Y-39379500D01*
X26231472Y-39379500D01*
X26099095Y-39414971D01*
X26099091Y-39414973D01*
X25980408Y-39483495D01*
X25883495Y-39580408D01*
X25814973Y-39699091D01*
X25814971Y-39699095D01*
X25779500Y-39831472D01*
X9221781Y-39831472D01*
X10021781Y-39031472D01*
X29679500Y-39031472D01*
X29679500Y-39168527D01*
X29714971Y-39300904D01*
X29714973Y-39300908D01*
X29780828Y-39414971D01*
X29783497Y-39419594D01*
X29880406Y-39516503D01*
X29880408Y-39516504D01*
X29999091Y-39585026D01*
X29999095Y-39585028D01*
X30131472Y-39620499D01*
X30131474Y-39620500D01*
X30131475Y-39620500D01*
X30268526Y-39620500D01*
X30268526Y-39620499D01*
X30400905Y-39585028D01*
X30519594Y-39516503D01*
X30616503Y-39419594D01*
X30685028Y-39300905D01*
X30720500Y-39168525D01*
X30720500Y-39031475D01*
X30685028Y-38899095D01*
X30616503Y-38780406D01*
X30519594Y-38683497D01*
X30519591Y-38683495D01*
X30400908Y-38614973D01*
X30400904Y-38614971D01*
X30268527Y-38579500D01*
X30268525Y-38579500D01*
X30131475Y-38579500D01*
X30131472Y-38579500D01*
X29999095Y-38614971D01*
X29999091Y-38614973D01*
X29880408Y-38683495D01*
X29783495Y-38780408D01*
X29714973Y-38899091D01*
X29714971Y-38899095D01*
X29679500Y-39031472D01*
X10021781Y-39031472D01*
X12611905Y-36441349D01*
X22254500Y-36441349D01*
X22254500Y-36558651D01*
X22281274Y-36658574D01*
X22284861Y-36671961D01*
X22343507Y-36773538D01*
X22343509Y-36773540D01*
X22343511Y-36773543D01*
X22426457Y-36856489D01*
X22426459Y-36856490D01*
X22426461Y-36856492D01*
X22528039Y-36915138D01*
X22528037Y-36915138D01*
X22528041Y-36915139D01*
X22528043Y-36915140D01*
X22641349Y-36945500D01*
X22641351Y-36945500D01*
X22758649Y-36945500D01*
X22758651Y-36945500D01*
X22811005Y-36931472D01*
X23579500Y-36931472D01*
X23579500Y-37068527D01*
X23614971Y-37200904D01*
X23614973Y-37200908D01*
X23683495Y-37319591D01*
X23683497Y-37319594D01*
X23780406Y-37416503D01*
X23780408Y-37416504D01*
X23899091Y-37485026D01*
X23899095Y-37485028D01*
X24031472Y-37520499D01*
X24031474Y-37520500D01*
X24031475Y-37520500D01*
X24168526Y-37520500D01*
X24168526Y-37520499D01*
X24300905Y-37485028D01*
X24419594Y-37416503D01*
X24516503Y-37319594D01*
X24585028Y-37200905D01*
X24620500Y-37068525D01*
X24620500Y-36931475D01*
X24585028Y-36799095D01*
X24516503Y-36680406D01*
X24419594Y-36583497D01*
X24419591Y-36583495D01*
X24300908Y-36514973D01*
X24300904Y-36514971D01*
X24168527Y-36479500D01*
X24168525Y-36479500D01*
X24031475Y-36479500D01*
X24031472Y-36479500D01*
X23899095Y-36514971D01*
X23899091Y-36514973D01*
X23780408Y-36583495D01*
X23683495Y-36680408D01*
X23614973Y-36799091D01*
X23614971Y-36799095D01*
X23579500Y-36931472D01*
X22811005Y-36931472D01*
X22871957Y-36915140D01*
X22871959Y-36915138D01*
X22871961Y-36915138D01*
X22973538Y-36856492D01*
X22973538Y-36856491D01*
X22973543Y-36856489D01*
X23056489Y-36773543D01*
X23115140Y-36671957D01*
X23145500Y-36558651D01*
X23145500Y-36441349D01*
X23115140Y-36328043D01*
X23115138Y-36328040D01*
X23115138Y-36328038D01*
X23056492Y-36226461D01*
X23056490Y-36226459D01*
X23056489Y-36226457D01*
X22973543Y-36143511D01*
X22973540Y-36143509D01*
X22973538Y-36143507D01*
X22871960Y-36084861D01*
X22871962Y-36084861D01*
X22827997Y-36073081D01*
X22758651Y-36054500D01*
X22641349Y-36054500D01*
X22572002Y-36073081D01*
X22528038Y-36084861D01*
X22426461Y-36143507D01*
X22343507Y-36226461D01*
X22284861Y-36328038D01*
X22284860Y-36328043D01*
X22254500Y-36441349D01*
X12611905Y-36441349D01*
X13121782Y-35931472D01*
X38279500Y-35931472D01*
X38279500Y-36068527D01*
X38314971Y-36200904D01*
X38314973Y-36200908D01*
X38381712Y-36316503D01*
X38383497Y-36319594D01*
X38480406Y-36416503D01*
X38487329Y-36420500D01*
X38599091Y-36485026D01*
X38599095Y-36485028D01*
X38731472Y-36520499D01*
X38731474Y-36520500D01*
X38731475Y-36520500D01*
X38868526Y-36520500D01*
X38868526Y-36520499D01*
X39000905Y-36485028D01*
X39119594Y-36416503D01*
X39216503Y-36319594D01*
X39285028Y-36200905D01*
X39320500Y-36068525D01*
X39320500Y-35931475D01*
X39285028Y-35799095D01*
X39216503Y-35680406D01*
X39119594Y-35583497D01*
X39114244Y-35580408D01*
X39000908Y-35514973D01*
X39000904Y-35514971D01*
X38868527Y-35479500D01*
X38868525Y-35479500D01*
X38731475Y-35479500D01*
X38731472Y-35479500D01*
X38599095Y-35514971D01*
X38599091Y-35514973D01*
X38480408Y-35583495D01*
X38383495Y-35680408D01*
X38314973Y-35799091D01*
X38314971Y-35799095D01*
X38279500Y-35931472D01*
X13121782Y-35931472D01*
X14111905Y-34941349D01*
X21554500Y-34941349D01*
X21554500Y-35058651D01*
X21578161Y-35146957D01*
X21584861Y-35171961D01*
X21643507Y-35273538D01*
X21643509Y-35273540D01*
X21643511Y-35273543D01*
X21726457Y-35356489D01*
X21726459Y-35356490D01*
X21726461Y-35356492D01*
X21828039Y-35415138D01*
X21828037Y-35415138D01*
X21828041Y-35415139D01*
X21828043Y-35415140D01*
X21941349Y-35445500D01*
X21941351Y-35445500D01*
X22058649Y-35445500D01*
X22058651Y-35445500D01*
X22171957Y-35415140D01*
X22171959Y-35415138D01*
X22171961Y-35415138D01*
X22273538Y-35356492D01*
X22273538Y-35356491D01*
X22273543Y-35356489D01*
X22356489Y-35273543D01*
X22415140Y-35171957D01*
X22445500Y-35058651D01*
X22445500Y-34941349D01*
X22438801Y-34916349D01*
X23529500Y-34916349D01*
X23529500Y-35033651D01*
X23536199Y-35058651D01*
X23559861Y-35146961D01*
X23618507Y-35248538D01*
X23618509Y-35248540D01*
X23618511Y-35248543D01*
X23701457Y-35331489D01*
X23701459Y-35331490D01*
X23701461Y-35331492D01*
X23803039Y-35390138D01*
X23803037Y-35390138D01*
X23803041Y-35390139D01*
X23803043Y-35390140D01*
X23916349Y-35420500D01*
X23916351Y-35420500D01*
X24033649Y-35420500D01*
X24033651Y-35420500D01*
X24146957Y-35390140D01*
X24146959Y-35390138D01*
X24146961Y-35390138D01*
X24248538Y-35331492D01*
X24248538Y-35331491D01*
X24248543Y-35331489D01*
X24331489Y-35248543D01*
X24390140Y-35146957D01*
X24420500Y-35033651D01*
X24420500Y-34916349D01*
X24390140Y-34803043D01*
X24390138Y-34803040D01*
X24390138Y-34803038D01*
X24331492Y-34701461D01*
X24331490Y-34701459D01*
X24331489Y-34701457D01*
X24248543Y-34618511D01*
X24248540Y-34618509D01*
X24248538Y-34618507D01*
X24146960Y-34559861D01*
X24146962Y-34559861D01*
X24102997Y-34548081D01*
X24033651Y-34529500D01*
X23916349Y-34529500D01*
X23847002Y-34548081D01*
X23803038Y-34559861D01*
X23701461Y-34618507D01*
X23618507Y-34701461D01*
X23559861Y-34803038D01*
X23553161Y-34828043D01*
X23529500Y-34916349D01*
X22438801Y-34916349D01*
X22415140Y-34828043D01*
X22415138Y-34828040D01*
X22415138Y-34828038D01*
X22356492Y-34726461D01*
X22356490Y-34726459D01*
X22356489Y-34726457D01*
X22273543Y-34643511D01*
X22273540Y-34643509D01*
X22273538Y-34643507D01*
X22171960Y-34584861D01*
X22171962Y-34584861D01*
X22127997Y-34573081D01*
X22058651Y-34554500D01*
X21941349Y-34554500D01*
X21872002Y-34573081D01*
X21828038Y-34584861D01*
X21726461Y-34643507D01*
X21643507Y-34726461D01*
X21584861Y-34828038D01*
X21584860Y-34828043D01*
X21554500Y-34941349D01*
X14111905Y-34941349D01*
X17721782Y-31331472D01*
X43279500Y-31331472D01*
X43279500Y-31468527D01*
X43314971Y-31600904D01*
X43314973Y-31600908D01*
X43383495Y-31719591D01*
X43383497Y-31719594D01*
X43480406Y-31816503D01*
X43480408Y-31816504D01*
X43599091Y-31885026D01*
X43599095Y-31885028D01*
X43731472Y-31920499D01*
X43731474Y-31920500D01*
X43731475Y-31920500D01*
X43868526Y-31920500D01*
X43868526Y-31920499D01*
X44000905Y-31885028D01*
X44119594Y-31816503D01*
X44216503Y-31719594D01*
X44285028Y-31600905D01*
X44320500Y-31468525D01*
X44320500Y-31331475D01*
X44285028Y-31199095D01*
X44216503Y-31080406D01*
X44119594Y-30983497D01*
X44119591Y-30983495D01*
X44000908Y-30914973D01*
X44000904Y-30914971D01*
X43868527Y-30879500D01*
X43868525Y-30879500D01*
X43731475Y-30879500D01*
X43731472Y-30879500D01*
X43599095Y-30914971D01*
X43599091Y-30914973D01*
X43480408Y-30983495D01*
X43383495Y-31080408D01*
X43314973Y-31199091D01*
X43314971Y-31199095D01*
X43279500Y-31331472D01*
X17721782Y-31331472D01*
X25303759Y-23749496D01*
X25358276Y-23721719D01*
X25373763Y-23720500D01*
X25468526Y-23720500D01*
X25468526Y-23720499D01*
X25600905Y-23685028D01*
X25719594Y-23616503D01*
X25816503Y-23519594D01*
X25885028Y-23400905D01*
X25903633Y-23331472D01*
X28379500Y-23331472D01*
X28379500Y-23468527D01*
X28414971Y-23600904D01*
X28414973Y-23600908D01*
X28463539Y-23685026D01*
X28483497Y-23719594D01*
X28580406Y-23816503D01*
X28580408Y-23816504D01*
X28699091Y-23885026D01*
X28699095Y-23885028D01*
X28831472Y-23920499D01*
X28831474Y-23920500D01*
X28831475Y-23920500D01*
X28968526Y-23920500D01*
X28968526Y-23920499D01*
X29100905Y-23885028D01*
X29219594Y-23816503D01*
X29316503Y-23719594D01*
X29385028Y-23600905D01*
X29420500Y-23468525D01*
X29420500Y-23331475D01*
X29385028Y-23199095D01*
X29316503Y-23080406D01*
X29219594Y-22983497D01*
X29219591Y-22983495D01*
X29100908Y-22914973D01*
X29100904Y-22914971D01*
X28968527Y-22879500D01*
X28968525Y-22879500D01*
X28831475Y-22879500D01*
X28831472Y-22879500D01*
X28699095Y-22914971D01*
X28699091Y-22914973D01*
X28580408Y-22983495D01*
X28483495Y-23080408D01*
X28414973Y-23199091D01*
X28414971Y-23199095D01*
X28379500Y-23331472D01*
X25903633Y-23331472D01*
X25920500Y-23268525D01*
X25920500Y-23131475D01*
X25885028Y-22999095D01*
X25876021Y-22983495D01*
X25816504Y-22880408D01*
X25816503Y-22880406D01*
X25719594Y-22783497D01*
X25719591Y-22783495D01*
X25600908Y-22714973D01*
X25600904Y-22714971D01*
X25468527Y-22679500D01*
X25468525Y-22679500D01*
X25331475Y-22679500D01*
X25331472Y-22679500D01*
X25199095Y-22714971D01*
X25199091Y-22714973D01*
X25080408Y-22783495D01*
X24983495Y-22880408D01*
X24914973Y-22999091D01*
X24914971Y-22999095D01*
X24879500Y-23131472D01*
X24879500Y-23226236D01*
X24860593Y-23284427D01*
X24850504Y-23296240D01*
X18335782Y-29810961D01*
X18281265Y-29838738D01*
X18220833Y-29829167D01*
X18180042Y-29790457D01*
X18116504Y-29680408D01*
X18116503Y-29680406D01*
X18019594Y-29583497D01*
X18019591Y-29583495D01*
X17900908Y-29514973D01*
X17900904Y-29514971D01*
X17768527Y-29479500D01*
X17768525Y-29479500D01*
X17631475Y-29479500D01*
X17612866Y-29484486D01*
X17551765Y-29481283D01*
X17504215Y-29442778D01*
X17488380Y-29383677D01*
X17510307Y-29326556D01*
X17516083Y-29320141D01*
X17516502Y-29319595D01*
X17516505Y-29319591D01*
X17585028Y-29200905D01*
X17620500Y-29068525D01*
X17620500Y-28931475D01*
X17585028Y-28799095D01*
X17577193Y-28785525D01*
X17516504Y-28680408D01*
X17516503Y-28680406D01*
X17419594Y-28583497D01*
X17419591Y-28583495D01*
X17300908Y-28514973D01*
X17300904Y-28514971D01*
X17168527Y-28479500D01*
X17168525Y-28479500D01*
X17031475Y-28479500D01*
X17031472Y-28479500D01*
X16899095Y-28514971D01*
X16899091Y-28514973D01*
X16780408Y-28583495D01*
X16683495Y-28680408D01*
X16614973Y-28799091D01*
X16614971Y-28799095D01*
X16579500Y-28931472D01*
X16579500Y-29068527D01*
X16614971Y-29200904D01*
X16614973Y-29200908D01*
X16617336Y-29205000D01*
X16683497Y-29319594D01*
X16780406Y-29416503D01*
X16780408Y-29416504D01*
X16899091Y-29485026D01*
X16899095Y-29485028D01*
X17031472Y-29520499D01*
X17031474Y-29520500D01*
X17031475Y-29520500D01*
X17168523Y-29520500D01*
X17168525Y-29520500D01*
X17187131Y-29515514D01*
X17248230Y-29518714D01*
X17295781Y-29557218D01*
X17311620Y-29616317D01*
X17289695Y-29673440D01*
X17283917Y-29679856D01*
X17283497Y-29680404D01*
X17214973Y-29799091D01*
X17214971Y-29799095D01*
X17179500Y-29931472D01*
X17179500Y-30068527D01*
X17214971Y-30200904D01*
X17214973Y-30200908D01*
X17283495Y-30319591D01*
X17283497Y-30319594D01*
X17380406Y-30416503D01*
X17380408Y-30416504D01*
X17490457Y-30480042D01*
X17531398Y-30525512D01*
X17537793Y-30586362D01*
X17510961Y-30635782D01*
X8465665Y-39681078D01*
X8411148Y-39708855D01*
X8370038Y-39706701D01*
X8367919Y-39706133D01*
X8268525Y-39679500D01*
X8131475Y-39679500D01*
X8131472Y-39679500D01*
X7999095Y-39714971D01*
X7999091Y-39714973D01*
X7880408Y-39783495D01*
X7783495Y-39880408D01*
X7714973Y-39999091D01*
X7714971Y-39999095D01*
X7679500Y-40131472D01*
X500500Y-40131472D01*
X500500Y-35831472D01*
X3979500Y-35831472D01*
X3979500Y-35968527D01*
X4014971Y-36100904D01*
X4014973Y-36100908D01*
X4083495Y-36219591D01*
X4083497Y-36219594D01*
X4180406Y-36316503D01*
X4180408Y-36316504D01*
X4299091Y-36385026D01*
X4299095Y-36385028D01*
X4431472Y-36420499D01*
X4431474Y-36420500D01*
X4431475Y-36420500D01*
X4568526Y-36420500D01*
X4568526Y-36420499D01*
X4700905Y-36385028D01*
X4819594Y-36316503D01*
X4916503Y-36219594D01*
X4985028Y-36100905D01*
X5020500Y-35968525D01*
X5020500Y-35831475D01*
X4985028Y-35699095D01*
X4916503Y-35580406D01*
X4819594Y-35483497D01*
X4812671Y-35479500D01*
X4700908Y-35414973D01*
X4700904Y-35414971D01*
X4568527Y-35379500D01*
X4568525Y-35379500D01*
X4431475Y-35379500D01*
X4431472Y-35379500D01*
X4299095Y-35414971D01*
X4299091Y-35414973D01*
X4180408Y-35483495D01*
X4083495Y-35580408D01*
X4014973Y-35699091D01*
X4014971Y-35699095D01*
X3979500Y-35831472D01*
X500500Y-35831472D01*
X500500Y-29205000D01*
X4779500Y-29205000D01*
X4779500Y-30795000D01*
X4785525Y-30851040D01*
X4785526Y-30851042D01*
X4832805Y-30977804D01*
X4913882Y-31086112D01*
X4913887Y-31086117D01*
X5022195Y-31167194D01*
X5148960Y-31214475D01*
X5205000Y-31220500D01*
X5205003Y-31220500D01*
X6794997Y-31220500D01*
X6795000Y-31220500D01*
X6851040Y-31214475D01*
X6977805Y-31167194D01*
X7086115Y-31086115D01*
X7167194Y-30977805D01*
X7214475Y-30851040D01*
X7220500Y-30795000D01*
X7220500Y-29205000D01*
X7214475Y-29148960D01*
X7167194Y-29022195D01*
X7099282Y-28931474D01*
X7086117Y-28913887D01*
X7086112Y-28913882D01*
X6977804Y-28832805D01*
X6887591Y-28799158D01*
X6851040Y-28785525D01*
X6851036Y-28785524D01*
X6851034Y-28785524D01*
X6821676Y-28782368D01*
X6795000Y-28779500D01*
X5205000Y-28779500D01*
X5181977Y-28781975D01*
X5148965Y-28785524D01*
X5148961Y-28785524D01*
X5148960Y-28785525D01*
X5148957Y-28785525D01*
X5148957Y-28785526D01*
X5022195Y-28832805D01*
X4913887Y-28913882D01*
X4913882Y-28913887D01*
X4832805Y-29022195D01*
X4785526Y-29148957D01*
X4785525Y-29148960D01*
X4779500Y-29205000D01*
X500500Y-29205000D01*
X500500Y-24903941D01*
X4779500Y-24903941D01*
X4779500Y-25096058D01*
X4809552Y-25285798D01*
X4868915Y-25468502D01*
X4868917Y-25468505D01*
X4868918Y-25468509D01*
X4956135Y-25639681D01*
X5069055Y-25795102D01*
X5204898Y-25930945D01*
X5360319Y-26043865D01*
X5531491Y-26131082D01*
X5714199Y-26190447D01*
X5790097Y-26202468D01*
X5903942Y-26220500D01*
X5903945Y-26220500D01*
X6096058Y-26220500D01*
X6190928Y-26205473D01*
X6285801Y-26190447D01*
X6468509Y-26131082D01*
X6639681Y-26043865D01*
X6795102Y-25930945D01*
X6930945Y-25795102D01*
X7043865Y-25639681D01*
X7131082Y-25468509D01*
X7190447Y-25285801D01*
X7220500Y-25096055D01*
X7220500Y-24903945D01*
X7220500Y-24903941D01*
X7190447Y-24714201D01*
X7190447Y-24714199D01*
X7131082Y-24531491D01*
X7080119Y-24431472D01*
X18479500Y-24431472D01*
X18479500Y-24568527D01*
X18514971Y-24700904D01*
X18514973Y-24700908D01*
X18522647Y-24714199D01*
X18583497Y-24819594D01*
X18680406Y-24916503D01*
X18680408Y-24916504D01*
X18799091Y-24985026D01*
X18799095Y-24985028D01*
X18931472Y-25020499D01*
X18931474Y-25020500D01*
X18931475Y-25020500D01*
X19068526Y-25020500D01*
X19068526Y-25020499D01*
X19200905Y-24985028D01*
X19319594Y-24916503D01*
X19416503Y-24819594D01*
X19485028Y-24700905D01*
X19520500Y-24568525D01*
X19520500Y-24431475D01*
X19485028Y-24299095D01*
X19416503Y-24180406D01*
X19319594Y-24083497D01*
X19294580Y-24069055D01*
X19200908Y-24014973D01*
X19200904Y-24014971D01*
X19068527Y-23979500D01*
X19068525Y-23979500D01*
X18931475Y-23979500D01*
X18931472Y-23979500D01*
X18799095Y-24014971D01*
X18799091Y-24014973D01*
X18680408Y-24083495D01*
X18583495Y-24180408D01*
X18514973Y-24299091D01*
X18514971Y-24299095D01*
X18479500Y-24431472D01*
X7080119Y-24431472D01*
X7043865Y-24360319D01*
X6930945Y-24204898D01*
X6795102Y-24069055D01*
X6639681Y-23956135D01*
X6639680Y-23956134D01*
X6639678Y-23956133D01*
X6500126Y-23885028D01*
X6468509Y-23868918D01*
X6468505Y-23868917D01*
X6468502Y-23868915D01*
X6285798Y-23809552D01*
X6096058Y-23779500D01*
X6096055Y-23779500D01*
X5903945Y-23779500D01*
X5903942Y-23779500D01*
X5714201Y-23809552D01*
X5531497Y-23868915D01*
X5360321Y-23956133D01*
X5204899Y-24069054D01*
X5069054Y-24204899D01*
X4956133Y-24360321D01*
X4868915Y-24531497D01*
X4809552Y-24714201D01*
X4779500Y-24903941D01*
X500500Y-24903941D01*
X500500Y-23331472D01*
X21879500Y-23331472D01*
X21879500Y-23468527D01*
X21914971Y-23600904D01*
X21914973Y-23600908D01*
X21963539Y-23685026D01*
X21983497Y-23719594D01*
X22080406Y-23816503D01*
X22080408Y-23816504D01*
X22199091Y-23885026D01*
X22199095Y-23885028D01*
X22331472Y-23920499D01*
X22331474Y-23920500D01*
X22331475Y-23920500D01*
X22468526Y-23920500D01*
X22468526Y-23920499D01*
X22600905Y-23885028D01*
X22719594Y-23816503D01*
X22816503Y-23719594D01*
X22885028Y-23600905D01*
X22920500Y-23468525D01*
X22920500Y-23331475D01*
X22885028Y-23199095D01*
X22816503Y-23080406D01*
X22719594Y-22983497D01*
X22719591Y-22983495D01*
X22600908Y-22914973D01*
X22600904Y-22914971D01*
X22468527Y-22879500D01*
X22468525Y-22879500D01*
X22331475Y-22879500D01*
X22331472Y-22879500D01*
X22199095Y-22914971D01*
X22199091Y-22914973D01*
X22080408Y-22983495D01*
X21983495Y-23080408D01*
X21914973Y-23199091D01*
X21914971Y-23199095D01*
X21879500Y-23331472D01*
X500500Y-23331472D01*
X500500Y-22531472D01*
X33679500Y-22531472D01*
X33679500Y-22668527D01*
X33714971Y-22800904D01*
X33714973Y-22800908D01*
X33760873Y-22880408D01*
X33783497Y-22919594D01*
X33880406Y-23016503D01*
X33880408Y-23016504D01*
X33999091Y-23085026D01*
X33999095Y-23085028D01*
X34131472Y-23120499D01*
X34131474Y-23120500D01*
X34131475Y-23120500D01*
X34268526Y-23120500D01*
X34268526Y-23120499D01*
X34400905Y-23085028D01*
X34519594Y-23016503D01*
X34616503Y-22919594D01*
X34685028Y-22800905D01*
X34720500Y-22668525D01*
X34720500Y-22531475D01*
X34685028Y-22399095D01*
X34616503Y-22280406D01*
X34519594Y-22183497D01*
X34519591Y-22183495D01*
X34400908Y-22114973D01*
X34400904Y-22114971D01*
X34268527Y-22079500D01*
X34268525Y-22079500D01*
X34131475Y-22079500D01*
X34131472Y-22079500D01*
X33999095Y-22114971D01*
X33999091Y-22114973D01*
X33880408Y-22183495D01*
X33783495Y-22280408D01*
X33714973Y-22399091D01*
X33714971Y-22399095D01*
X33679500Y-22531472D01*
X500500Y-22531472D01*
X500500Y-21931472D01*
X48979500Y-21931472D01*
X48979500Y-22068527D01*
X49014971Y-22200904D01*
X49014973Y-22200908D01*
X49060873Y-22280408D01*
X49083497Y-22319594D01*
X49180406Y-22416503D01*
X49180408Y-22416504D01*
X49299091Y-22485026D01*
X49299095Y-22485028D01*
X49431472Y-22520499D01*
X49431474Y-22520500D01*
X49431475Y-22520500D01*
X49568526Y-22520500D01*
X49568526Y-22520499D01*
X49700905Y-22485028D01*
X49819594Y-22416503D01*
X49916503Y-22319594D01*
X49985028Y-22200905D01*
X50020500Y-22068525D01*
X50020500Y-21931475D01*
X49985028Y-21799095D01*
X49916503Y-21680406D01*
X49819594Y-21583497D01*
X49819591Y-21583495D01*
X49700908Y-21514973D01*
X49700904Y-21514971D01*
X49568527Y-21479500D01*
X49568525Y-21479500D01*
X49431475Y-21479500D01*
X49431472Y-21479500D01*
X49299095Y-21514971D01*
X49299091Y-21514973D01*
X49180408Y-21583495D01*
X49083495Y-21680408D01*
X49014973Y-21799091D01*
X49014971Y-21799095D01*
X48979500Y-21931472D01*
X500500Y-21931472D01*
X500500Y-17931472D01*
X3679500Y-17931472D01*
X3679500Y-18068527D01*
X3714971Y-18200904D01*
X3714973Y-18200908D01*
X3763539Y-18285026D01*
X3783497Y-18319594D01*
X3880406Y-18416503D01*
X3880408Y-18416504D01*
X3999091Y-18485026D01*
X3999095Y-18485028D01*
X4131472Y-18520499D01*
X4131474Y-18520500D01*
X4131475Y-18520500D01*
X4268526Y-18520500D01*
X4268526Y-18520499D01*
X4400905Y-18485028D01*
X4519594Y-18416503D01*
X4616503Y-18319594D01*
X4685028Y-18200905D01*
X4720500Y-18068525D01*
X4720500Y-17931475D01*
X4685028Y-17799095D01*
X4670819Y-17774485D01*
X4670819Y-17774483D01*
X4645986Y-17731472D01*
X21879500Y-17731472D01*
X21879500Y-17868527D01*
X21914971Y-18000904D01*
X21914973Y-18000908D01*
X21983495Y-18119591D01*
X21983497Y-18119594D01*
X22080406Y-18216503D01*
X22080408Y-18216504D01*
X22199091Y-18285026D01*
X22199095Y-18285028D01*
X22331472Y-18320499D01*
X22331474Y-18320500D01*
X22331475Y-18320500D01*
X22468526Y-18320500D01*
X22468526Y-18320499D01*
X22600905Y-18285028D01*
X22719594Y-18216503D01*
X22816503Y-18119594D01*
X22885028Y-18000905D01*
X22920500Y-17868525D01*
X22920500Y-17731475D01*
X22885028Y-17599095D01*
X22876021Y-17583495D01*
X22816504Y-17480408D01*
X22816503Y-17480406D01*
X22719594Y-17383497D01*
X22719591Y-17383495D01*
X22600908Y-17314973D01*
X22600904Y-17314971D01*
X22468527Y-17279500D01*
X22468525Y-17279500D01*
X22331475Y-17279500D01*
X22331472Y-17279500D01*
X22199095Y-17314971D01*
X22199091Y-17314973D01*
X22080408Y-17383495D01*
X21983495Y-17480408D01*
X21914973Y-17599091D01*
X21914971Y-17599095D01*
X21879500Y-17731472D01*
X4645986Y-17731472D01*
X4616504Y-17680408D01*
X4616503Y-17680406D01*
X4519594Y-17583497D01*
X4519591Y-17583495D01*
X4400908Y-17514973D01*
X4400904Y-17514971D01*
X4268527Y-17479500D01*
X4268525Y-17479500D01*
X4131475Y-17479500D01*
X4131472Y-17479500D01*
X3999095Y-17514971D01*
X3999091Y-17514973D01*
X3880408Y-17583495D01*
X3783495Y-17680408D01*
X3714973Y-17799091D01*
X3714971Y-17799095D01*
X3679500Y-17931472D01*
X500500Y-17931472D01*
X500500Y-16431472D01*
X3729500Y-16431472D01*
X3729500Y-16568527D01*
X3764971Y-16700904D01*
X3764973Y-16700908D01*
X3833495Y-16819591D01*
X3833497Y-16819594D01*
X3930406Y-16916503D01*
X3930408Y-16916504D01*
X4049091Y-16985026D01*
X4049095Y-16985028D01*
X4181472Y-17020499D01*
X4181474Y-17020500D01*
X4181475Y-17020500D01*
X4318526Y-17020500D01*
X4318526Y-17020499D01*
X4450905Y-16985028D01*
X4569594Y-16916503D01*
X4666503Y-16819594D01*
X4735028Y-16700905D01*
X4770500Y-16568525D01*
X4770500Y-16431475D01*
X4735028Y-16299095D01*
X4666503Y-16180406D01*
X4569594Y-16083497D01*
X4569591Y-16083495D01*
X4479485Y-16031472D01*
X22579500Y-16031472D01*
X22579500Y-16168527D01*
X22614971Y-16300904D01*
X22614973Y-16300908D01*
X22681712Y-16416503D01*
X22683497Y-16419594D01*
X22780406Y-16516503D01*
X22799657Y-16527617D01*
X22840599Y-16573086D01*
X22846995Y-16633936D01*
X22835895Y-16662853D01*
X22814972Y-16699093D01*
X22814971Y-16699095D01*
X22779500Y-16831472D01*
X22779500Y-16968527D01*
X22814971Y-17100904D01*
X22814973Y-17100908D01*
X22883495Y-17219591D01*
X22883497Y-17219594D01*
X22980406Y-17316503D01*
X22980408Y-17316504D01*
X23099091Y-17385026D01*
X23099095Y-17385028D01*
X23231472Y-17420499D01*
X23231474Y-17420500D01*
X23231475Y-17420500D01*
X23368526Y-17420500D01*
X23368526Y-17420499D01*
X23500905Y-17385028D01*
X23619594Y-17316503D01*
X23716503Y-17219594D01*
X23785028Y-17100905D01*
X23820500Y-16968525D01*
X23820500Y-16831475D01*
X23785028Y-16699095D01*
X23716503Y-16580406D01*
X23619594Y-16483497D01*
X23619591Y-16483495D01*
X23600341Y-16472381D01*
X23559400Y-16426912D01*
X23553004Y-16366061D01*
X23564105Y-16337144D01*
X23585028Y-16300905D01*
X23620500Y-16168525D01*
X23620500Y-16031475D01*
X23593704Y-15931472D01*
X29979500Y-15931472D01*
X29979500Y-16068527D01*
X30014971Y-16200904D01*
X30014973Y-16200908D01*
X30083495Y-16319591D01*
X30083497Y-16319594D01*
X30180406Y-16416503D01*
X30180408Y-16416504D01*
X30299091Y-16485026D01*
X30299095Y-16485028D01*
X30431472Y-16520499D01*
X30431474Y-16520500D01*
X30431475Y-16520500D01*
X30568526Y-16520500D01*
X30568526Y-16520499D01*
X30700905Y-16485028D01*
X30819594Y-16416503D01*
X30916503Y-16319594D01*
X30985028Y-16200905D01*
X31020500Y-16068525D01*
X31020500Y-15931475D01*
X30985028Y-15799095D01*
X30916503Y-15680406D01*
X30819594Y-15583497D01*
X30812671Y-15579500D01*
X30700908Y-15514973D01*
X30700904Y-15514971D01*
X30568527Y-15479500D01*
X30568525Y-15479500D01*
X30431475Y-15479500D01*
X30431472Y-15479500D01*
X30299095Y-15514971D01*
X30299091Y-15514973D01*
X30180408Y-15583495D01*
X30083495Y-15680408D01*
X30014973Y-15799091D01*
X30014971Y-15799095D01*
X29979500Y-15931472D01*
X23593704Y-15931472D01*
X23585028Y-15899095D01*
X23516503Y-15780406D01*
X23419594Y-15683497D01*
X23414244Y-15680408D01*
X23300908Y-15614973D01*
X23300904Y-15614971D01*
X23168527Y-15579500D01*
X23168525Y-15579500D01*
X23031475Y-15579500D01*
X23031472Y-15579500D01*
X22899095Y-15614971D01*
X22899091Y-15614973D01*
X22780408Y-15683495D01*
X22683495Y-15780408D01*
X22614973Y-15899091D01*
X22614971Y-15899095D01*
X22579500Y-16031472D01*
X4479485Y-16031472D01*
X4450908Y-16014973D01*
X4450904Y-16014971D01*
X4318527Y-15979500D01*
X4318525Y-15979500D01*
X4181475Y-15979500D01*
X4181472Y-15979500D01*
X4049095Y-16014971D01*
X4049091Y-16014973D01*
X3930408Y-16083495D01*
X3833495Y-16180408D01*
X3764973Y-16299091D01*
X3764971Y-16299095D01*
X3729500Y-16431472D01*
X500500Y-16431472D01*
X500500Y-11581472D01*
X12339500Y-11581472D01*
X12339500Y-11718527D01*
X12374971Y-11850904D01*
X12374973Y-11850908D01*
X12421487Y-11931472D01*
X12443497Y-11969594D01*
X12540406Y-12066503D01*
X12591130Y-12095788D01*
X12623130Y-12114264D01*
X12664070Y-12159734D01*
X12670465Y-12220584D01*
X12639872Y-12273572D01*
X12623130Y-12285736D01*
X12540407Y-12333496D01*
X12443495Y-12430408D01*
X12374973Y-12549091D01*
X12374971Y-12549095D01*
X12339500Y-12681472D01*
X12339500Y-12818527D01*
X12374971Y-12950904D01*
X12374973Y-12950908D01*
X12402792Y-12999091D01*
X12443497Y-13069594D01*
X12540406Y-13166503D01*
X12540408Y-13166504D01*
X12659091Y-13235026D01*
X12659095Y-13235028D01*
X12791475Y-13270500D01*
X12791480Y-13270500D01*
X12797908Y-13271347D01*
X12797711Y-13272842D01*
X12848691Y-13289407D01*
X12884655Y-13338907D01*
X12888333Y-13362134D01*
X12888653Y-13362092D01*
X12889500Y-13368527D01*
X12924971Y-13500904D01*
X12924973Y-13500908D01*
X12970873Y-13580408D01*
X12993497Y-13619594D01*
X13090406Y-13716503D01*
X13097329Y-13720500D01*
X13209091Y-13785026D01*
X13209095Y-13785028D01*
X13341472Y-13820499D01*
X13341474Y-13820500D01*
X13341475Y-13820500D01*
X13478526Y-13820500D01*
X13478526Y-13820499D01*
X13610905Y-13785028D01*
X13729594Y-13716503D01*
X13826503Y-13619594D01*
X13874264Y-13536870D01*
X13919733Y-13495929D01*
X13980583Y-13489533D01*
X14033571Y-13520126D01*
X14045736Y-13536870D01*
X14093497Y-13619594D01*
X14190406Y-13716503D01*
X14197329Y-13720500D01*
X14309091Y-13785026D01*
X14309095Y-13785028D01*
X14441472Y-13820499D01*
X14441474Y-13820500D01*
X14441475Y-13820500D01*
X14578526Y-13820500D01*
X14578526Y-13820499D01*
X14710905Y-13785028D01*
X14829594Y-13716503D01*
X14926503Y-13619594D01*
X14995028Y-13500905D01*
X15030500Y-13368525D01*
X15030500Y-13368519D01*
X15031347Y-13362092D01*
X15032842Y-13362288D01*
X15049407Y-13311309D01*
X15098907Y-13275345D01*
X15122134Y-13271666D01*
X15122092Y-13271347D01*
X15128519Y-13270500D01*
X15128525Y-13270500D01*
X15260905Y-13235028D01*
X15267064Y-13231472D01*
X19479500Y-13231472D01*
X19479500Y-13368527D01*
X19514971Y-13500904D01*
X19514973Y-13500908D01*
X19560873Y-13580408D01*
X19583497Y-13619594D01*
X19680406Y-13716503D01*
X19719819Y-13739258D01*
X19763130Y-13764264D01*
X19804070Y-13809734D01*
X19810465Y-13870584D01*
X19779872Y-13923572D01*
X19763130Y-13935736D01*
X19680407Y-13983496D01*
X19583495Y-14080408D01*
X19514973Y-14199091D01*
X19514971Y-14199095D01*
X19479500Y-14331472D01*
X19479500Y-14468527D01*
X19514971Y-14600904D01*
X19514973Y-14600908D01*
X19583495Y-14719591D01*
X19583497Y-14719594D01*
X19680406Y-14816503D01*
X19680408Y-14816504D01*
X19799091Y-14885026D01*
X19799095Y-14885028D01*
X19931472Y-14920499D01*
X19931474Y-14920500D01*
X19931475Y-14920500D01*
X20068526Y-14920500D01*
X20068526Y-14920499D01*
X20200905Y-14885028D01*
X20319594Y-14816503D01*
X20416503Y-14719594D01*
X20485028Y-14600905D01*
X20520500Y-14468525D01*
X20520500Y-14331475D01*
X20485028Y-14199095D01*
X20416503Y-14080406D01*
X20319594Y-13983497D01*
X20319591Y-13983495D01*
X20236870Y-13935736D01*
X20229792Y-13927875D01*
X20220126Y-13923572D01*
X20209775Y-13905645D01*
X20195929Y-13890267D01*
X20194823Y-13879746D01*
X20189533Y-13870584D01*
X20191696Y-13850000D01*
X20189749Y-13831472D01*
X31979500Y-13831472D01*
X31979500Y-13968527D01*
X32014971Y-14100904D01*
X32014973Y-14100908D01*
X32083495Y-14219591D01*
X32083497Y-14219594D01*
X32180406Y-14316503D01*
X32180408Y-14316504D01*
X32299091Y-14385026D01*
X32299095Y-14385028D01*
X32431472Y-14420499D01*
X32431474Y-14420500D01*
X32431475Y-14420500D01*
X32568526Y-14420500D01*
X32568526Y-14420499D01*
X32700905Y-14385028D01*
X32819594Y-14316503D01*
X32916503Y-14219594D01*
X32985028Y-14100905D01*
X33020500Y-13968525D01*
X33020500Y-13931472D01*
X44979500Y-13931472D01*
X44979500Y-14068527D01*
X45014971Y-14200904D01*
X45014973Y-14200908D01*
X45081712Y-14316503D01*
X45083497Y-14319594D01*
X45180406Y-14416503D01*
X45187329Y-14420500D01*
X45299091Y-14485026D01*
X45299095Y-14485028D01*
X45431472Y-14520499D01*
X45431474Y-14520500D01*
X45431475Y-14520500D01*
X45568526Y-14520500D01*
X45568526Y-14520499D01*
X45700905Y-14485028D01*
X45819594Y-14416503D01*
X45916503Y-14319594D01*
X45985028Y-14200905D01*
X46020500Y-14068525D01*
X46020500Y-13931475D01*
X45985028Y-13799095D01*
X45976906Y-13785028D01*
X45927291Y-13699091D01*
X45916503Y-13680406D01*
X45819594Y-13583497D01*
X45814244Y-13580408D01*
X45700908Y-13514973D01*
X45700904Y-13514971D01*
X45568527Y-13479500D01*
X45568525Y-13479500D01*
X45431475Y-13479500D01*
X45431472Y-13479500D01*
X45299095Y-13514971D01*
X45299091Y-13514973D01*
X45180408Y-13583495D01*
X45083495Y-13680408D01*
X45014973Y-13799091D01*
X45014971Y-13799095D01*
X44979500Y-13931472D01*
X33020500Y-13931472D01*
X33020500Y-13831475D01*
X32985028Y-13699095D01*
X32976906Y-13685028D01*
X32937344Y-13616503D01*
X32916503Y-13580406D01*
X32819594Y-13483497D01*
X32812671Y-13479500D01*
X32700908Y-13414973D01*
X32700904Y-13414971D01*
X32568527Y-13379500D01*
X32568525Y-13379500D01*
X32431475Y-13379500D01*
X32431472Y-13379500D01*
X32299095Y-13414971D01*
X32299091Y-13414973D01*
X32180408Y-13483495D01*
X32083495Y-13580408D01*
X32014973Y-13699091D01*
X32014971Y-13699095D01*
X31979500Y-13831472D01*
X20189749Y-13831472D01*
X20189533Y-13829417D01*
X20194823Y-13820254D01*
X20195929Y-13809734D01*
X20209776Y-13794354D01*
X20220126Y-13776429D01*
X20236870Y-13764264D01*
X20280181Y-13739258D01*
X20280180Y-13739258D01*
X20319594Y-13716503D01*
X20416503Y-13619594D01*
X20485028Y-13500905D01*
X20520500Y-13368525D01*
X20520500Y-13231475D01*
X20485028Y-13099095D01*
X20416503Y-12980406D01*
X20319594Y-12883497D01*
X20314244Y-12880408D01*
X20200908Y-12814973D01*
X20200904Y-12814971D01*
X20068527Y-12779500D01*
X20068525Y-12779500D01*
X19931475Y-12779500D01*
X19931472Y-12779500D01*
X19799095Y-12814971D01*
X19799091Y-12814973D01*
X19680408Y-12883495D01*
X19583495Y-12980408D01*
X19514973Y-13099091D01*
X19514971Y-13099095D01*
X19479500Y-13231472D01*
X15267064Y-13231472D01*
X15379594Y-13166503D01*
X15476503Y-13069594D01*
X15545028Y-12950905D01*
X15580500Y-12818525D01*
X15580500Y-12681475D01*
X15545028Y-12549095D01*
X15543287Y-12546080D01*
X15476504Y-12430408D01*
X15476503Y-12430406D01*
X15379594Y-12333497D01*
X15379591Y-12333495D01*
X15296870Y-12285736D01*
X15255929Y-12240267D01*
X15249533Y-12179417D01*
X15280126Y-12126429D01*
X15296870Y-12114264D01*
X15324352Y-12098396D01*
X15379594Y-12066503D01*
X15476503Y-11969594D01*
X15498513Y-11931472D01*
X19479500Y-11931472D01*
X19479500Y-12068527D01*
X19514971Y-12200904D01*
X19514973Y-12200908D01*
X19551961Y-12264972D01*
X19583497Y-12319594D01*
X19680406Y-12416503D01*
X19680408Y-12416504D01*
X19799091Y-12485026D01*
X19799095Y-12485028D01*
X19931472Y-12520499D01*
X19931474Y-12520500D01*
X19931475Y-12520500D01*
X20068526Y-12520500D01*
X20068526Y-12520499D01*
X20200905Y-12485028D01*
X20319594Y-12416503D01*
X20416503Y-12319594D01*
X20485028Y-12200905D01*
X20520500Y-12068525D01*
X20520500Y-11931475D01*
X20520499Y-11931472D01*
X22579500Y-11931472D01*
X22579500Y-12068527D01*
X22614971Y-12200904D01*
X22614973Y-12200908D01*
X22651961Y-12264972D01*
X22683497Y-12319594D01*
X22780406Y-12416503D01*
X22780408Y-12416504D01*
X22899091Y-12485026D01*
X22899095Y-12485028D01*
X22971292Y-12504374D01*
X23022606Y-12537698D01*
X23044532Y-12594819D01*
X23028696Y-12653920D01*
X22981146Y-12692425D01*
X22971292Y-12695626D01*
X22899095Y-12714971D01*
X22899091Y-12714973D01*
X22780408Y-12783495D01*
X22683495Y-12880408D01*
X22614973Y-12999091D01*
X22614971Y-12999095D01*
X22579500Y-13131472D01*
X22579500Y-13268527D01*
X22614971Y-13400904D01*
X22614973Y-13400908D01*
X22680828Y-13514971D01*
X22683497Y-13519594D01*
X22780406Y-13616503D01*
X22780408Y-13616504D01*
X22899091Y-13685026D01*
X22899095Y-13685028D01*
X23031472Y-13720499D01*
X23031474Y-13720500D01*
X23031475Y-13720500D01*
X23168526Y-13720500D01*
X23168526Y-13720499D01*
X23300905Y-13685028D01*
X23419594Y-13616503D01*
X23516503Y-13519594D01*
X23585028Y-13400905D01*
X23620500Y-13268525D01*
X23620500Y-13131475D01*
X23585028Y-12999095D01*
X23516503Y-12880406D01*
X23419594Y-12783497D01*
X23419591Y-12783495D01*
X23300910Y-12714974D01*
X23300907Y-12714973D01*
X23300905Y-12714972D01*
X23228704Y-12695625D01*
X23177393Y-12662302D01*
X23155467Y-12605181D01*
X23171303Y-12546080D01*
X23218853Y-12507575D01*
X23228691Y-12504378D01*
X23300905Y-12485028D01*
X23419594Y-12416503D01*
X23516503Y-12319594D01*
X23585028Y-12200905D01*
X23620500Y-12068525D01*
X23620500Y-11931475D01*
X23620499Y-11931472D01*
X28579500Y-11931472D01*
X28579500Y-12068527D01*
X28614971Y-12200904D01*
X28614973Y-12200908D01*
X28651961Y-12264972D01*
X28683497Y-12319594D01*
X28780406Y-12416503D01*
X28780408Y-12416504D01*
X28899091Y-12485026D01*
X28899095Y-12485028D01*
X29031472Y-12520499D01*
X29031474Y-12520500D01*
X29031475Y-12520500D01*
X29168526Y-12520500D01*
X29168526Y-12520499D01*
X29300905Y-12485028D01*
X29419594Y-12416503D01*
X29516503Y-12319594D01*
X29585028Y-12200905D01*
X29620500Y-12068525D01*
X29620500Y-11931475D01*
X29585028Y-11799095D01*
X29585026Y-11799091D01*
X29528338Y-11700905D01*
X29516503Y-11680406D01*
X29419594Y-11583497D01*
X29416092Y-11581475D01*
X29300908Y-11514973D01*
X29300904Y-11514971D01*
X29168527Y-11479500D01*
X29168525Y-11479500D01*
X29031475Y-11479500D01*
X29031472Y-11479500D01*
X28899095Y-11514971D01*
X28899091Y-11514973D01*
X28780408Y-11583495D01*
X28683495Y-11680408D01*
X28614973Y-11799091D01*
X28614971Y-11799095D01*
X28579500Y-11931472D01*
X23620499Y-11931472D01*
X23585028Y-11799095D01*
X23585028Y-11799094D01*
X23563946Y-11762580D01*
X23551224Y-11702731D01*
X23576110Y-11646836D01*
X23629098Y-11616243D01*
X23689948Y-11622638D01*
X23699169Y-11627336D01*
X23799095Y-11685028D01*
X23931472Y-11720499D01*
X23931474Y-11720500D01*
X23931475Y-11720500D01*
X24068526Y-11720500D01*
X24068526Y-11720499D01*
X24200905Y-11685028D01*
X24319594Y-11616503D01*
X24416503Y-11519594D01*
X24467380Y-11431472D01*
X50479500Y-11431472D01*
X50479500Y-11568527D01*
X50514971Y-11700904D01*
X50514973Y-11700908D01*
X50571661Y-11799094D01*
X50583497Y-11819594D01*
X50680406Y-11916503D01*
X50687329Y-11920500D01*
X50799091Y-11985026D01*
X50799095Y-11985028D01*
X50931472Y-12020499D01*
X50931474Y-12020500D01*
X50931475Y-12020500D01*
X51068526Y-12020500D01*
X51068526Y-12020499D01*
X51200905Y-11985028D01*
X51319594Y-11916503D01*
X51416503Y-11819594D01*
X51485028Y-11700905D01*
X51520500Y-11568525D01*
X51520500Y-11431475D01*
X51485028Y-11299095D01*
X51467378Y-11268525D01*
X51427291Y-11199091D01*
X51416503Y-11180406D01*
X51319594Y-11083497D01*
X51314244Y-11080408D01*
X51200908Y-11014973D01*
X51200904Y-11014971D01*
X51068527Y-10979500D01*
X51068525Y-10979500D01*
X50931475Y-10979500D01*
X50931472Y-10979500D01*
X50799095Y-11014971D01*
X50799091Y-11014973D01*
X50680408Y-11083495D01*
X50583495Y-11180408D01*
X50514973Y-11299091D01*
X50514971Y-11299095D01*
X50479500Y-11431472D01*
X24467380Y-11431472D01*
X24485028Y-11400905D01*
X24520500Y-11268525D01*
X24520500Y-11131475D01*
X24485028Y-10999095D01*
X24476021Y-10983495D01*
X24428338Y-10900905D01*
X24416503Y-10880406D01*
X24319594Y-10783497D01*
X24314242Y-10780407D01*
X24200908Y-10714973D01*
X24200904Y-10714971D01*
X24068527Y-10679500D01*
X24068525Y-10679500D01*
X23931475Y-10679500D01*
X23931472Y-10679500D01*
X23799095Y-10714971D01*
X23799091Y-10714973D01*
X23680408Y-10783495D01*
X23583495Y-10880408D01*
X23514973Y-10999091D01*
X23514971Y-10999095D01*
X23479500Y-11131472D01*
X23479500Y-11268527D01*
X23514971Y-11400903D01*
X23536054Y-11437420D01*
X23548775Y-11497268D01*
X23523888Y-11553164D01*
X23470900Y-11583757D01*
X23410050Y-11577361D01*
X23400817Y-11572656D01*
X23300908Y-11514973D01*
X23300904Y-11514971D01*
X23168527Y-11479500D01*
X23168525Y-11479500D01*
X23031475Y-11479500D01*
X23031472Y-11479500D01*
X22899095Y-11514971D01*
X22899091Y-11514973D01*
X22780408Y-11583495D01*
X22683495Y-11680408D01*
X22614973Y-11799091D01*
X22614971Y-11799095D01*
X22579500Y-11931472D01*
X20520499Y-11931472D01*
X20485028Y-11799095D01*
X20485026Y-11799091D01*
X20428338Y-11700905D01*
X20416503Y-11680406D01*
X20319594Y-11583497D01*
X20316092Y-11581475D01*
X20200908Y-11514973D01*
X20200904Y-11514971D01*
X20068527Y-11479500D01*
X20068525Y-11479500D01*
X19931475Y-11479500D01*
X19931472Y-11479500D01*
X19799095Y-11514971D01*
X19799091Y-11514973D01*
X19680408Y-11583495D01*
X19583495Y-11680408D01*
X19514973Y-11799091D01*
X19514971Y-11799095D01*
X19479500Y-11931472D01*
X15498513Y-11931472D01*
X15545028Y-11850905D01*
X15580500Y-11718525D01*
X15580500Y-11581475D01*
X15545028Y-11449095D01*
X15545026Y-11449091D01*
X15501953Y-11374486D01*
X15477120Y-11331475D01*
X15477118Y-11331472D01*
X16979500Y-11331472D01*
X16979500Y-11468527D01*
X17014971Y-11600904D01*
X17014973Y-11600908D01*
X17073761Y-11702731D01*
X17083497Y-11719594D01*
X17180406Y-11816503D01*
X17180408Y-11816504D01*
X17299091Y-11885026D01*
X17299095Y-11885028D01*
X17431472Y-11920499D01*
X17431474Y-11920500D01*
X17431475Y-11920500D01*
X17568526Y-11920500D01*
X17568526Y-11920499D01*
X17700905Y-11885028D01*
X17819594Y-11816503D01*
X17916503Y-11719594D01*
X17985028Y-11600905D01*
X18020500Y-11468525D01*
X18020500Y-11331475D01*
X17985028Y-11199095D01*
X17976906Y-11185028D01*
X17921286Y-11088691D01*
X17916503Y-11080406D01*
X17819594Y-10983497D01*
X17812671Y-10979500D01*
X17700908Y-10914973D01*
X17700904Y-10914971D01*
X17568527Y-10879500D01*
X17568525Y-10879500D01*
X17431475Y-10879500D01*
X17431472Y-10879500D01*
X17299095Y-10914971D01*
X17299091Y-10914973D01*
X17180408Y-10983495D01*
X17083495Y-11080408D01*
X17014973Y-11199091D01*
X17014971Y-11199095D01*
X16979500Y-11331472D01*
X15477118Y-11331472D01*
X15476503Y-11330406D01*
X15379594Y-11233497D01*
X15379591Y-11233495D01*
X15260908Y-11164973D01*
X15260904Y-11164971D01*
X15128527Y-11129500D01*
X15122092Y-11128653D01*
X15122288Y-11127157D01*
X15071309Y-11110593D01*
X15035345Y-11061093D01*
X15031666Y-11037865D01*
X15031347Y-11037908D01*
X15030500Y-11031479D01*
X15030500Y-11031475D01*
X14995028Y-10899095D01*
X14926503Y-10780406D01*
X14829594Y-10683497D01*
X14822671Y-10679500D01*
X14739485Y-10631472D01*
X27879500Y-10631472D01*
X27879500Y-10768527D01*
X27914971Y-10900904D01*
X27914973Y-10900908D01*
X27971662Y-10999095D01*
X27983497Y-11019594D01*
X28080406Y-11116503D01*
X28102918Y-11129500D01*
X28199091Y-11185026D01*
X28199095Y-11185028D01*
X28331472Y-11220499D01*
X28331474Y-11220500D01*
X28331475Y-11220500D01*
X28468526Y-11220500D01*
X28468526Y-11220499D01*
X28600905Y-11185028D01*
X28719594Y-11116503D01*
X28816503Y-11019594D01*
X28885028Y-10900905D01*
X28920500Y-10768525D01*
X28920500Y-10631475D01*
X28885028Y-10499095D01*
X28816503Y-10380406D01*
X28719594Y-10283497D01*
X28719591Y-10283495D01*
X28600908Y-10214973D01*
X28600904Y-10214971D01*
X28468527Y-10179500D01*
X28468525Y-10179500D01*
X28331475Y-10179500D01*
X28331472Y-10179500D01*
X28199095Y-10214971D01*
X28199091Y-10214973D01*
X28080408Y-10283495D01*
X27983495Y-10380408D01*
X27914973Y-10499091D01*
X27914971Y-10499095D01*
X27879500Y-10631472D01*
X14739485Y-10631472D01*
X14710908Y-10614973D01*
X14710904Y-10614971D01*
X14578527Y-10579500D01*
X14578525Y-10579500D01*
X14441475Y-10579500D01*
X14441472Y-10579500D01*
X14309095Y-10614971D01*
X14309091Y-10614973D01*
X14190408Y-10683495D01*
X14093496Y-10780407D01*
X14045736Y-10863130D01*
X14000266Y-10904070D01*
X13939416Y-10910465D01*
X13886428Y-10879872D01*
X13874264Y-10863130D01*
X13855788Y-10831130D01*
X13826503Y-10780406D01*
X13729594Y-10683497D01*
X13722671Y-10679500D01*
X13610908Y-10614973D01*
X13610904Y-10614971D01*
X13478527Y-10579500D01*
X13478525Y-10579500D01*
X13341475Y-10579500D01*
X13341472Y-10579500D01*
X13209095Y-10614971D01*
X13209091Y-10614973D01*
X13090408Y-10683495D01*
X12993495Y-10780408D01*
X12924973Y-10899091D01*
X12924971Y-10899095D01*
X12889500Y-11031472D01*
X12888653Y-11037908D01*
X12887157Y-11037711D01*
X12870593Y-11088691D01*
X12821093Y-11124655D01*
X12797865Y-11128333D01*
X12797908Y-11128653D01*
X12791472Y-11129500D01*
X12659095Y-11164971D01*
X12659091Y-11164973D01*
X12540408Y-11233495D01*
X12443495Y-11330408D01*
X12374973Y-11449091D01*
X12374971Y-11449095D01*
X12339500Y-11581472D01*
X500500Y-11581472D01*
X500500Y-7831472D01*
X24879500Y-7831472D01*
X24879500Y-7968527D01*
X24914971Y-8100904D01*
X24914973Y-8100908D01*
X24983495Y-8219591D01*
X24983497Y-8219594D01*
X25080406Y-8316503D01*
X25080408Y-8316504D01*
X25199091Y-8385026D01*
X25199095Y-8385028D01*
X25331472Y-8420499D01*
X25331474Y-8420500D01*
X25404396Y-8420500D01*
X25462587Y-8439407D01*
X25498551Y-8488907D01*
X25498551Y-8550093D01*
X25474401Y-8589501D01*
X25383497Y-8680406D01*
X25383495Y-8680408D01*
X25314973Y-8799091D01*
X25314971Y-8799095D01*
X25279500Y-8931472D01*
X25279500Y-9068527D01*
X25314971Y-9200904D01*
X25314973Y-9200908D01*
X25383495Y-9319591D01*
X25383497Y-9319594D01*
X25480406Y-9416503D01*
X25480408Y-9416504D01*
X25599091Y-9485026D01*
X25599095Y-9485028D01*
X25731472Y-9520499D01*
X25731474Y-9520500D01*
X25731475Y-9520500D01*
X25868526Y-9520500D01*
X25868526Y-9520499D01*
X26000905Y-9485028D01*
X26119594Y-9416503D01*
X26216503Y-9319594D01*
X26285028Y-9200905D01*
X26320500Y-9068525D01*
X26320500Y-8931475D01*
X26320499Y-8931472D01*
X31779500Y-8931472D01*
X31779500Y-9068527D01*
X31814971Y-9200904D01*
X31814973Y-9200908D01*
X31883495Y-9319591D01*
X31883497Y-9319594D01*
X31980406Y-9416503D01*
X31980408Y-9416504D01*
X32099091Y-9485026D01*
X32099095Y-9485028D01*
X32231472Y-9520499D01*
X32231474Y-9520500D01*
X32231475Y-9520500D01*
X32368526Y-9520500D01*
X32368526Y-9520499D01*
X32500905Y-9485028D01*
X32619594Y-9416503D01*
X32716503Y-9319594D01*
X32785028Y-9200905D01*
X32820500Y-9068525D01*
X32820500Y-8931475D01*
X32785028Y-8799095D01*
X32716503Y-8680406D01*
X32619594Y-8583497D01*
X32619591Y-8583495D01*
X32500908Y-8514973D01*
X32500904Y-8514971D01*
X32368527Y-8479500D01*
X32368525Y-8479500D01*
X32231475Y-8479500D01*
X32231472Y-8479500D01*
X32099095Y-8514971D01*
X32099091Y-8514973D01*
X31980408Y-8583495D01*
X31883495Y-8680408D01*
X31814973Y-8799091D01*
X31814971Y-8799095D01*
X31779500Y-8931472D01*
X26320499Y-8931472D01*
X26285028Y-8799095D01*
X26216503Y-8680406D01*
X26119594Y-8583497D01*
X26119591Y-8583495D01*
X26000908Y-8514973D01*
X26000904Y-8514971D01*
X25868527Y-8479500D01*
X25868525Y-8479500D01*
X25795604Y-8479500D01*
X25737413Y-8460593D01*
X25701449Y-8411093D01*
X25701449Y-8349907D01*
X25725598Y-8310498D01*
X25816503Y-8219594D01*
X25885028Y-8100905D01*
X25920500Y-7968525D01*
X25920500Y-7831475D01*
X25885028Y-7699095D01*
X25816503Y-7580406D01*
X25719594Y-7483497D01*
X25719591Y-7483495D01*
X25600908Y-7414973D01*
X25600904Y-7414971D01*
X25468527Y-7379500D01*
X25468525Y-7379500D01*
X25331475Y-7379500D01*
X25331472Y-7379500D01*
X25199095Y-7414971D01*
X25199091Y-7414973D01*
X25080408Y-7483495D01*
X24983495Y-7580408D01*
X24914973Y-7699091D01*
X24914971Y-7699095D01*
X24879500Y-7831472D01*
X500500Y-7831472D01*
X500500Y-7031472D01*
X23879500Y-7031472D01*
X23879500Y-7168527D01*
X23914971Y-7300904D01*
X23914973Y-7300908D01*
X23980828Y-7414971D01*
X23983497Y-7419594D01*
X24080406Y-7516503D01*
X24080408Y-7516504D01*
X24199091Y-7585026D01*
X24199095Y-7585028D01*
X24331472Y-7620499D01*
X24331474Y-7620500D01*
X24331475Y-7620500D01*
X24468526Y-7620500D01*
X24468526Y-7620499D01*
X24600905Y-7585028D01*
X24719594Y-7516503D01*
X24816503Y-7419594D01*
X24885028Y-7300905D01*
X24920500Y-7168525D01*
X24920500Y-7031475D01*
X24914897Y-7010565D01*
X24918097Y-6949467D01*
X24956601Y-6901915D01*
X24984895Y-6889317D01*
X25000905Y-6885028D01*
X25119594Y-6816503D01*
X25216503Y-6719594D01*
X25285028Y-6600905D01*
X25320500Y-6468525D01*
X25320500Y-6431472D01*
X32079500Y-6431472D01*
X32079500Y-6568527D01*
X32114971Y-6700904D01*
X32114973Y-6700908D01*
X32160873Y-6780408D01*
X32183497Y-6819594D01*
X32280406Y-6916503D01*
X32280408Y-6916504D01*
X32399091Y-6985026D01*
X32399095Y-6985028D01*
X32531472Y-7020499D01*
X32531474Y-7020500D01*
X32531475Y-7020500D01*
X32668526Y-7020500D01*
X32668526Y-7020499D01*
X32800905Y-6985028D01*
X32919594Y-6916503D01*
X33016503Y-6819594D01*
X33085028Y-6700905D01*
X33120500Y-6568525D01*
X33120500Y-6431475D01*
X33085028Y-6299095D01*
X33016503Y-6180406D01*
X32919594Y-6083497D01*
X32914244Y-6080408D01*
X32800908Y-6014973D01*
X32800904Y-6014971D01*
X32668527Y-5979500D01*
X32668525Y-5979500D01*
X32531475Y-5979500D01*
X32531472Y-5979500D01*
X32399095Y-6014971D01*
X32399091Y-6014973D01*
X32280408Y-6083495D01*
X32183495Y-6180408D01*
X32114973Y-6299091D01*
X32114971Y-6299095D01*
X32079500Y-6431472D01*
X25320500Y-6431472D01*
X25320500Y-6331475D01*
X25285028Y-6199095D01*
X25216503Y-6080406D01*
X25119594Y-5983497D01*
X25112671Y-5979500D01*
X25000908Y-5914973D01*
X25000904Y-5914971D01*
X24868527Y-5879500D01*
X24868525Y-5879500D01*
X24731475Y-5879500D01*
X24731472Y-5879500D01*
X24599095Y-5914971D01*
X24599091Y-5914973D01*
X24480408Y-5983495D01*
X24383495Y-6080408D01*
X24314973Y-6199091D01*
X24314971Y-6199095D01*
X24279500Y-6331472D01*
X24279500Y-6468525D01*
X24279499Y-6468525D01*
X24285102Y-6489431D01*
X24281901Y-6550533D01*
X24243397Y-6598083D01*
X24215103Y-6610682D01*
X24199093Y-6614972D01*
X24199091Y-6614973D01*
X24080408Y-6683495D01*
X23983495Y-6780408D01*
X23914973Y-6899091D01*
X23914971Y-6899095D01*
X23879500Y-7031472D01*
X500500Y-7031472D01*
X500500Y-4999000D01*
X519407Y-4940809D01*
X568907Y-4904845D01*
X599500Y-4900000D01*
X26999999Y-4900000D01*
X27000000Y-4900000D01*
X27000000Y-1931472D01*
X29979500Y-1931472D01*
X29979500Y-2068527D01*
X30014971Y-2200904D01*
X30014973Y-2200908D01*
X30083495Y-2319591D01*
X30083497Y-2319594D01*
X30180406Y-2416503D01*
X30180408Y-2416504D01*
X30299091Y-2485026D01*
X30299095Y-2485028D01*
X30431472Y-2520499D01*
X30431474Y-2520500D01*
X30431475Y-2520500D01*
X30568526Y-2520500D01*
X30568526Y-2520499D01*
X30700905Y-2485028D01*
X30819594Y-2416503D01*
X30916503Y-2319594D01*
X30985028Y-2200905D01*
X31020500Y-2068525D01*
X31020500Y-1931475D01*
X30985028Y-1799095D01*
X30916503Y-1680406D01*
X30819594Y-1583497D01*
X30819591Y-1583495D01*
X30700908Y-1514973D01*
X30700904Y-1514971D01*
X30568527Y-1479500D01*
X30568525Y-1479500D01*
X30431475Y-1479500D01*
X30431472Y-1479500D01*
X30299095Y-1514971D01*
X30299091Y-1514973D01*
X30180408Y-1583495D01*
X30083495Y-1680408D01*
X30014973Y-1799091D01*
X30014971Y-1799095D01*
X29979500Y-1931472D01*
X27000000Y-1931472D01*
X27000000Y-599500D01*
X27018907Y-541309D01*
X27068407Y-505345D01*
X27099000Y-500500D01*
X54400500Y-500500D01*
X54458691Y-519407D01*
G37*
%TD.AperFunction*%
%TD*%
M02*
