%TF.GenerationSoftware,KiCad,Pcbnew,9.0.8+dfsg-1*%
%TF.CreationDate,2026-09-29T12:58:34+02:00*%
%TF.ProjectId,v8b_krt_routed,7638625f-6b72-4745-9f72-6f757465642e,rev?*%
%TF.SameCoordinates,Original*%
%TF.FileFunction,Copper,L2,Inr*%
%TF.FilePolarity,Positive*%
%FSLAX46Y46*%
G04 Gerber Fmt 4.6, Leading zero omitted, Abs format (unit mm)*
G04 Created by KiCad (PCBNEW 9.0.8+dfsg-1) date 2026-09-29 12:58:34*
%MOMM*%
%LPD*%
G01*
G04 APERTURE LIST*
G04 Aperture macros list*
%AMRoundRect*
0 Rectangle with rounded corners*
0 $1 Rounding radius*
0 $2 $3 $4 $5 $6 $7 $8 $9 X,Y pos of 4 corners*
0 Add a 4 corners polygon primitive as box body*
4,1,4,$2,$3,$4,$5,$6,$7,$8,$9,$2,$3,0*
0 Add four circle primitives for the rounded corners*
1,1,$1+$1,$2,$3*
1,1,$1+$1,$4,$5*
1,1,$1+$1,$6,$7*
1,1,$1+$1,$8,$9*
0 Add four rect primitives between the rounded corners*
20,1,$1+$1,$2,$3,$4,$5,0*
20,1,$1+$1,$4,$5,$6,$7,0*
20,1,$1+$1,$6,$7,$8,$9,0*
20,1,$1+$1,$8,$9,$2,$3,0*%
G04 Aperture macros list end*
%TA.AperFunction,ComponentPad*%
%ADD10RoundRect,0.250000X0.750000X-0.750000X0.750000X0.750000X-0.750000X0.750000X-0.750000X-0.750000X0*%
%TD*%
%TA.AperFunction,ComponentPad*%
%ADD11C,2.000000*%
%TD*%
%TA.AperFunction,ComponentPad*%
%ADD12R,1.700000X1.700000*%
%TD*%
%TA.AperFunction,ComponentPad*%
%ADD13C,1.700000*%
%TD*%
%TA.AperFunction,HeatsinkPad*%
%ADD14C,0.600000*%
%TD*%
%TA.AperFunction,ViaPad*%
%ADD15C,0.600000*%
%TD*%
%TA.AperFunction,ViaPad*%
%ADD16C,0.450000*%
%TD*%
%TA.AperFunction,Conductor*%
%ADD17C,0.300000*%
%TD*%
%TA.AperFunction,Conductor*%
%ADD18C,0.200000*%
%TD*%
G04 APERTURE END LIST*
D10*
%TO.N,VCAP*%
%TO.C,C_CAP*%
X6000000Y-30000000D03*
D11*
%TO.N,GND*%
X6000000Y-25000000D03*
%TD*%
D12*
%TO.N,GND*%
%TO.C,J2*%
X40000000Y-42000000D03*
D13*
%TO.N,+3V3*%
X42540000Y-42000000D03*
%TO.N,I2C_SDA*%
X45080000Y-42000000D03*
%TO.N,I2C_SCL*%
X47620000Y-42000000D03*
%TD*%
D12*
%TO.N,SOLAR_IN*%
%TO.C,SOLAR*%
X4000000Y-42000000D03*
D13*
%TO.N,GND*%
X6540000Y-42000000D03*
%TD*%
D14*
%TO.N,GND*%
%TO.C,U1*%
X12860000Y-11650000D03*
X12860000Y-12750000D03*
X13410000Y-11100000D03*
X13410000Y-12200000D03*
X13410000Y-13300000D03*
X13960000Y-11650000D03*
X13960000Y-12750000D03*
X14510000Y-11100000D03*
X14510000Y-12200000D03*
X14510000Y-13300000D03*
X15060000Y-11650000D03*
X15060000Y-12750000D03*
%TD*%
D12*
%TO.N,GND*%
%TO.C,J1*%
X20000000Y-42000000D03*
D13*
%TO.N,+3V3*%
X22540000Y-42000000D03*
%TO.N,EN*%
X25080000Y-42000000D03*
%TO.N,UART0_TX*%
X27620000Y-42000000D03*
%TO.N,UART0_RX*%
X30160000Y-42000000D03*
%TO.N,N/C*%
X32700000Y-42000000D03*
%TD*%
D15*
%TO.N,+3V3*%
X22200000Y-34100000D03*
X14000000Y-36500000D03*
X45500000Y-8000000D03*
X20400000Y-6600000D03*
X51000000Y-10500000D03*
X23100000Y-9000000D03*
X19000000Y-25500000D03*
X34200000Y-29200000D03*
%TO.N,GND*%
X38800000Y-36000000D03*
X19000000Y-24500000D03*
X30500000Y-2000000D03*
X17700000Y-30000000D03*
X43800000Y-31400000D03*
D16*
X22000000Y-35000000D03*
D15*
X4200000Y-18000000D03*
X49500000Y-22000000D03*
X24100000Y-37000000D03*
D16*
X22700000Y-36500000D03*
D15*
X51000000Y-11500000D03*
X45500000Y-14000000D03*
X25800000Y-9000000D03*
X30500000Y-16000000D03*
X34200000Y-22600000D03*
%TO.N,VCAP*%
X22400000Y-23400000D03*
X4500000Y-35900000D03*
X17100000Y-29000000D03*
%TO.N,SOLAR_IN*%
X25400000Y-23200000D03*
X8200000Y-40200000D03*
%TO.N,EN*%
X26300000Y-39900000D03*
X17500000Y-11400000D03*
%TO.N,GPS_TX*%
X32500000Y-13900000D03*
X24400000Y-7100000D03*
%TO.N,SPI_SCK*%
X23100000Y-12000000D03*
X20000000Y-12000000D03*
%TO.N,SPI_MOSI*%
X25400000Y-7900000D03*
X20000000Y-13300000D03*
%TO.N,SPI_NSS*%
X22400000Y-17800000D03*
X23300000Y-16900000D03*
%TO.N,LR_RST*%
X29100000Y-12000000D03*
X24000000Y-11200000D03*
%TO.N,LR_BUSY*%
X32300000Y-9000000D03*
X24800000Y-6400000D03*
%TO.N,LR_DIO0*%
X32600000Y-6500000D03*
X28400000Y-10700000D03*
D16*
%TO.N,I2C_SCL*%
X23975000Y-34975000D03*
D15*
X4250000Y-16500000D03*
%TO.N,LED_DRIVE*%
X20000000Y-14400000D03*
X23100000Y-13200000D03*
%TO.N,UART0_TX*%
X23100000Y-16100000D03*
%TO.N,UART0_RX*%
X28900000Y-23400000D03*
X30200000Y-39100000D03*
%TD*%
D17*
%TO.N,GND*%
X4185000Y-18025000D02*
X4200000Y-18000000D01*
X17800000Y-30000000D02*
X17700000Y-30000000D01*
X50985000Y-11465000D02*
X51000000Y-11500000D01*
X45545000Y-14025000D02*
X45500000Y-14000000D01*
X38825000Y-36025000D02*
X38800000Y-36000000D01*
D18*
X22700000Y-36870000D02*
X22700000Y-36500000D01*
D17*
X30505000Y-2025000D02*
X30500000Y-2000000D01*
X49545000Y-22025000D02*
X49500000Y-22000000D01*
X30505000Y-16025000D02*
X30500000Y-16000000D01*
X34185000Y-22585000D02*
X34200000Y-22600000D01*
X22025000Y-34985000D02*
X22000000Y-35000000D01*
D18*
X22665000Y-36905000D02*
X22700000Y-36870000D01*
D17*
X43785000Y-31385000D02*
X43800000Y-31400000D01*
X24105000Y-36985000D02*
X24100000Y-37000000D01*
X17785000Y-30025000D02*
X17800000Y-30000000D01*
X17700000Y-30000000D02*
X17785000Y-30025000D01*
X25785000Y-8985000D02*
X25800000Y-9000000D01*
X18985000Y-24505000D02*
X19000000Y-24500000D01*
D18*
%TO.N,EN*%
X17500000Y-11400000D02*
X17700000Y-11600000D01*
X17700000Y-26200000D02*
X26300000Y-34800000D01*
X17700000Y-11600000D02*
X17700000Y-26200000D01*
X26300000Y-34800000D02*
X26300000Y-39900000D01*
%TO.N,SPI_SCK*%
X23100000Y-12000000D02*
X20000000Y-12000000D01*
%TO.N,SPI_NSS*%
X22400000Y-17800000D02*
X23300000Y-16900000D01*
%TO.N,LR_DIO0*%
X28400000Y-10700000D02*
X32600000Y-6500000D01*
%TO.N,I2C_SCL*%
X5500000Y-16500000D02*
X4200000Y-16500000D01*
X24000000Y-35000000D02*
X5500000Y-16500000D01*
%TO.N,UART0_RX*%
X28900000Y-23400000D02*
X30200000Y-24700000D01*
X30200000Y-24700000D02*
X30200000Y-39100000D01*
%TD*%
%TA.AperFunction,Conductor*%
%TO.N,GND*%
G36*
X54458691Y-519407D02*
G01*
X54494655Y-568907D01*
X54499500Y-599500D01*
X54499500Y-44400500D01*
X54480593Y-44458691D01*
X54431093Y-44494655D01*
X54400500Y-44499500D01*
X599500Y-44499500D01*
X541309Y-44480593D01*
X505345Y-44431093D01*
X500500Y-44400500D01*
X500500Y-41128278D01*
X2929500Y-41128278D01*
X2929500Y-42871714D01*
X2929501Y-42871724D01*
X2942292Y-42936033D01*
X2942293Y-42936036D01*
X2950729Y-42948661D01*
X2991028Y-43008972D01*
X3006651Y-43019411D01*
X3063964Y-43057707D01*
X3079933Y-43060883D01*
X3128281Y-43070500D01*
X4871718Y-43070499D01*
X4871722Y-43070498D01*
X4871724Y-43070498D01*
X4892757Y-43066314D01*
X4936035Y-43057707D01*
X5008972Y-43008972D01*
X5057707Y-42936035D01*
X5069003Y-42879244D01*
X5069004Y-42879243D01*
X5069004Y-42879241D01*
X5070499Y-42871724D01*
X5070500Y-42871719D01*
X5070499Y-41913424D01*
X5440000Y-41913424D01*
X5440000Y-42086575D01*
X5467084Y-42257579D01*
X5520588Y-42422248D01*
X5599196Y-42576524D01*
X5603708Y-42582735D01*
X6057036Y-42129406D01*
X6074075Y-42192993D01*
X6139901Y-42307007D01*
X6232993Y-42400099D01*
X6347007Y-42465925D01*
X6410589Y-42482962D01*
X5957262Y-42936289D01*
X5957262Y-42936290D01*
X5963469Y-42940800D01*
X5963475Y-42940804D01*
X6117751Y-43019411D01*
X6282420Y-43072915D01*
X6453425Y-43100000D01*
X6626575Y-43100000D01*
X6797579Y-43072915D01*
X6962248Y-43019411D01*
X7116523Y-42940804D01*
X7116530Y-42940800D01*
X7122736Y-42936290D01*
X6669408Y-42482962D01*
X6732993Y-42465925D01*
X6847007Y-42400099D01*
X6940099Y-42307007D01*
X7005925Y-42192993D01*
X7022962Y-42129408D01*
X7476290Y-42582736D01*
X7480800Y-42576530D01*
X7480804Y-42576523D01*
X7559411Y-42422248D01*
X7612914Y-42257580D01*
X7623064Y-42193505D01*
X7623064Y-42193504D01*
X7640000Y-42086575D01*
X7640000Y-41913427D01*
X7638695Y-41905186D01*
X7638695Y-41905184D01*
X7612915Y-41742420D01*
X7559411Y-41577751D01*
X7480804Y-41423475D01*
X7480800Y-41423469D01*
X7476290Y-41417262D01*
X7476289Y-41417262D01*
X7022962Y-41870589D01*
X7005925Y-41807007D01*
X6940099Y-41692993D01*
X6847007Y-41599901D01*
X6732993Y-41534075D01*
X6669407Y-41517036D01*
X7061069Y-41125375D01*
X18900000Y-41125375D01*
X18900000Y-41749999D01*
X18900001Y-41750000D01*
X19566988Y-41750000D01*
X19534075Y-41807007D01*
X19500000Y-41934174D01*
X19500000Y-42065826D01*
X19534075Y-42192993D01*
X19566988Y-42250000D01*
X18900001Y-42250000D01*
X18900000Y-42250001D01*
X18900000Y-42874624D01*
X18914506Y-42947546D01*
X18914507Y-42947548D01*
X18969758Y-43030237D01*
X18969762Y-43030241D01*
X19052451Y-43085492D01*
X19052453Y-43085493D01*
X19125375Y-43099999D01*
X19125377Y-43100000D01*
X19749999Y-43100000D01*
X19750000Y-43099999D01*
X19750000Y-42433012D01*
X19807007Y-42465925D01*
X19934174Y-42500000D01*
X20065826Y-42500000D01*
X20192993Y-42465925D01*
X20250000Y-42433012D01*
X20250000Y-43099999D01*
X20250001Y-43100000D01*
X20874623Y-43100000D01*
X20874624Y-43099999D01*
X20947546Y-43085493D01*
X20947548Y-43085492D01*
X21030237Y-43030241D01*
X21030241Y-43030237D01*
X21085492Y-42947548D01*
X21085493Y-42947546D01*
X21099999Y-42874624D01*
X21100000Y-42874622D01*
X21100000Y-42250001D01*
X21099999Y-42250000D01*
X20433012Y-42250000D01*
X20465925Y-42192993D01*
X20500000Y-42065826D01*
X20500000Y-41934174D01*
X20489386Y-41894562D01*
X21469500Y-41894562D01*
X21469500Y-42105437D01*
X21510637Y-42312251D01*
X21591334Y-42507070D01*
X21591338Y-42507079D01*
X21675113Y-42632455D01*
X21708488Y-42682404D01*
X21857596Y-42831512D01*
X21917763Y-42871714D01*
X22032920Y-42948661D01*
X22032926Y-42948663D01*
X22032928Y-42948665D01*
X22227747Y-43029362D01*
X22434565Y-43070500D01*
X22434566Y-43070500D01*
X22645434Y-43070500D01*
X22645435Y-43070500D01*
X22852253Y-43029362D01*
X23047072Y-42948665D01*
X23047075Y-42948662D01*
X23047079Y-42948661D01*
X23097704Y-42914833D01*
X23222404Y-42831512D01*
X23371512Y-42682404D01*
X23454833Y-42557704D01*
X23488661Y-42507079D01*
X23488662Y-42507075D01*
X23488665Y-42507072D01*
X23569362Y-42312253D01*
X23610500Y-42105435D01*
X23610500Y-41894565D01*
X23610499Y-41894562D01*
X24009500Y-41894562D01*
X24009500Y-42105437D01*
X24050637Y-42312251D01*
X24131334Y-42507070D01*
X24131338Y-42507079D01*
X24215113Y-42632455D01*
X24248488Y-42682404D01*
X24397596Y-42831512D01*
X24457763Y-42871714D01*
X24572920Y-42948661D01*
X24572926Y-42948663D01*
X24572928Y-42948665D01*
X24767747Y-43029362D01*
X24974565Y-43070500D01*
X24974566Y-43070500D01*
X25185434Y-43070500D01*
X25185435Y-43070500D01*
X25392253Y-43029362D01*
X25587072Y-42948665D01*
X25587075Y-42948662D01*
X25587079Y-42948661D01*
X25637704Y-42914833D01*
X25762404Y-42831512D01*
X25911512Y-42682404D01*
X25994833Y-42557704D01*
X26028661Y-42507079D01*
X26028662Y-42507075D01*
X26028665Y-42507072D01*
X26109362Y-42312253D01*
X26150500Y-42105435D01*
X26150500Y-41894565D01*
X26150499Y-41894562D01*
X26549500Y-41894562D01*
X26549500Y-42105437D01*
X26590637Y-42312251D01*
X26671334Y-42507070D01*
X26671338Y-42507079D01*
X26755113Y-42632455D01*
X26788488Y-42682404D01*
X26937596Y-42831512D01*
X26997763Y-42871714D01*
X27112920Y-42948661D01*
X27112926Y-42948663D01*
X27112928Y-42948665D01*
X27307747Y-43029362D01*
X27514565Y-43070500D01*
X27514566Y-43070500D01*
X27725434Y-43070500D01*
X27725435Y-43070500D01*
X27932253Y-43029362D01*
X28127072Y-42948665D01*
X28127075Y-42948662D01*
X28127079Y-42948661D01*
X28177704Y-42914833D01*
X28302404Y-42831512D01*
X28451512Y-42682404D01*
X28534833Y-42557704D01*
X28568661Y-42507079D01*
X28568662Y-42507075D01*
X28568665Y-42507072D01*
X28649362Y-42312253D01*
X28690500Y-42105435D01*
X28690500Y-41894565D01*
X28690499Y-41894562D01*
X29089500Y-41894562D01*
X29089500Y-42105437D01*
X29130637Y-42312251D01*
X29211334Y-42507070D01*
X29211338Y-42507079D01*
X29295113Y-42632455D01*
X29328488Y-42682404D01*
X29477596Y-42831512D01*
X29537763Y-42871714D01*
X29652920Y-42948661D01*
X29652926Y-42948663D01*
X29652928Y-42948665D01*
X29847747Y-43029362D01*
X30054565Y-43070500D01*
X30054566Y-43070500D01*
X30265434Y-43070500D01*
X30265435Y-43070500D01*
X30472253Y-43029362D01*
X30667072Y-42948665D01*
X30667075Y-42948662D01*
X30667079Y-42948661D01*
X30717704Y-42914833D01*
X30842404Y-42831512D01*
X30991512Y-42682404D01*
X31074833Y-42557704D01*
X31108661Y-42507079D01*
X31108662Y-42507075D01*
X31108665Y-42507072D01*
X31189362Y-42312253D01*
X31230500Y-42105435D01*
X31230500Y-41894565D01*
X31230499Y-41894562D01*
X31629500Y-41894562D01*
X31629500Y-42105437D01*
X31670637Y-42312251D01*
X31751334Y-42507070D01*
X31751338Y-42507079D01*
X31835113Y-42632455D01*
X31868488Y-42682404D01*
X32017596Y-42831512D01*
X32077763Y-42871714D01*
X32192920Y-42948661D01*
X32192926Y-42948663D01*
X32192928Y-42948665D01*
X32387747Y-43029362D01*
X32594565Y-43070500D01*
X32594566Y-43070500D01*
X32805434Y-43070500D01*
X32805435Y-43070500D01*
X33012253Y-43029362D01*
X33207072Y-42948665D01*
X33207075Y-42948662D01*
X33207079Y-42948661D01*
X33257704Y-42914833D01*
X33382404Y-42831512D01*
X33531512Y-42682404D01*
X33614833Y-42557704D01*
X33648661Y-42507079D01*
X33648662Y-42507075D01*
X33648665Y-42507072D01*
X33729362Y-42312253D01*
X33770500Y-42105435D01*
X33770500Y-41894565D01*
X33729362Y-41687747D01*
X33648665Y-41492928D01*
X33648663Y-41492926D01*
X33648661Y-41492920D01*
X33581459Y-41392347D01*
X33531512Y-41317596D01*
X33382404Y-41168488D01*
X33322236Y-41128285D01*
X33317881Y-41125375D01*
X38900000Y-41125375D01*
X38900000Y-41749999D01*
X38900001Y-41750000D01*
X39566988Y-41750000D01*
X39534075Y-41807007D01*
X39500000Y-41934174D01*
X39500000Y-42065826D01*
X39534075Y-42192993D01*
X39566988Y-42250000D01*
X38900001Y-42250000D01*
X38900000Y-42250001D01*
X38900000Y-42874624D01*
X38914506Y-42947546D01*
X38914507Y-42947548D01*
X38969758Y-43030237D01*
X38969762Y-43030241D01*
X39052451Y-43085492D01*
X39052453Y-43085493D01*
X39125375Y-43099999D01*
X39125377Y-43100000D01*
X39749999Y-43100000D01*
X39750000Y-43099999D01*
X39750000Y-42433012D01*
X39807007Y-42465925D01*
X39934174Y-42500000D01*
X40065826Y-42500000D01*
X40192993Y-42465925D01*
X40250000Y-42433012D01*
X40250000Y-43099999D01*
X40250001Y-43100000D01*
X40874623Y-43100000D01*
X40874624Y-43099999D01*
X40947546Y-43085493D01*
X40947548Y-43085492D01*
X41030237Y-43030241D01*
X41030241Y-43030237D01*
X41085492Y-42947548D01*
X41085493Y-42947546D01*
X41099999Y-42874624D01*
X41100000Y-42874622D01*
X41100000Y-42250001D01*
X41099999Y-42250000D01*
X40433012Y-42250000D01*
X40465925Y-42192993D01*
X40500000Y-42065826D01*
X40500000Y-41934174D01*
X40489386Y-41894562D01*
X41469500Y-41894562D01*
X41469500Y-42105437D01*
X41510637Y-42312251D01*
X41591334Y-42507070D01*
X41591338Y-42507079D01*
X41675113Y-42632455D01*
X41708488Y-42682404D01*
X41857596Y-42831512D01*
X41917763Y-42871714D01*
X42032920Y-42948661D01*
X42032926Y-42948663D01*
X42032928Y-42948665D01*
X42227747Y-43029362D01*
X42434565Y-43070500D01*
X42434566Y-43070500D01*
X42645434Y-43070500D01*
X42645435Y-43070500D01*
X42852253Y-43029362D01*
X43047072Y-42948665D01*
X43047075Y-42948662D01*
X43047079Y-42948661D01*
X43097704Y-42914833D01*
X43222404Y-42831512D01*
X43371512Y-42682404D01*
X43454833Y-42557704D01*
X43488661Y-42507079D01*
X43488662Y-42507075D01*
X43488665Y-42507072D01*
X43569362Y-42312253D01*
X43610500Y-42105435D01*
X43610500Y-41894565D01*
X43610499Y-41894562D01*
X44009500Y-41894562D01*
X44009500Y-42105437D01*
X44050637Y-42312251D01*
X44131334Y-42507070D01*
X44131338Y-42507079D01*
X44215113Y-42632455D01*
X44248488Y-42682404D01*
X44397596Y-42831512D01*
X44457763Y-42871714D01*
X44572920Y-42948661D01*
X44572926Y-42948663D01*
X44572928Y-42948665D01*
X44767747Y-43029362D01*
X44974565Y-43070500D01*
X44974566Y-43070500D01*
X45185434Y-43070500D01*
X45185435Y-43070500D01*
X45392253Y-43029362D01*
X45587072Y-42948665D01*
X45587075Y-42948662D01*
X45587079Y-42948661D01*
X45637704Y-42914833D01*
X45762404Y-42831512D01*
X45911512Y-42682404D01*
X45994833Y-42557704D01*
X46028661Y-42507079D01*
X46028662Y-42507075D01*
X46028665Y-42507072D01*
X46109362Y-42312253D01*
X46150500Y-42105435D01*
X46150500Y-41894565D01*
X46150499Y-41894562D01*
X46549500Y-41894562D01*
X46549500Y-42105437D01*
X46590637Y-42312251D01*
X46671334Y-42507070D01*
X46671338Y-42507079D01*
X46755113Y-42632455D01*
X46788488Y-42682404D01*
X46937596Y-42831512D01*
X46997763Y-42871714D01*
X47112920Y-42948661D01*
X47112926Y-42948663D01*
X47112928Y-42948665D01*
X47307747Y-43029362D01*
X47514565Y-43070500D01*
X47514566Y-43070500D01*
X47725434Y-43070500D01*
X47725435Y-43070500D01*
X47932253Y-43029362D01*
X48127072Y-42948665D01*
X48127075Y-42948662D01*
X48127079Y-42948661D01*
X48177704Y-42914833D01*
X48302404Y-42831512D01*
X48451512Y-42682404D01*
X48534833Y-42557704D01*
X48568661Y-42507079D01*
X48568662Y-42507075D01*
X48568665Y-42507072D01*
X48649362Y-42312253D01*
X48690500Y-42105435D01*
X48690500Y-41894565D01*
X48649362Y-41687747D01*
X48568665Y-41492928D01*
X48568663Y-41492926D01*
X48568661Y-41492920D01*
X48501459Y-41392347D01*
X48451512Y-41317596D01*
X48302404Y-41168488D01*
X48242236Y-41128285D01*
X48127079Y-41051338D01*
X48127070Y-41051334D01*
X47932251Y-40970637D01*
X47725437Y-40929500D01*
X47725435Y-40929500D01*
X47514565Y-40929500D01*
X47514562Y-40929500D01*
X47307748Y-40970637D01*
X47112929Y-41051334D01*
X47112920Y-41051338D01*
X46937596Y-41168488D01*
X46937592Y-41168491D01*
X46788491Y-41317592D01*
X46788488Y-41317596D01*
X46671338Y-41492920D01*
X46671334Y-41492929D01*
X46590637Y-41687748D01*
X46549500Y-41894562D01*
X46150499Y-41894562D01*
X46109362Y-41687747D01*
X46028665Y-41492928D01*
X46028663Y-41492926D01*
X46028661Y-41492920D01*
X45961459Y-41392347D01*
X45911512Y-41317596D01*
X45762404Y-41168488D01*
X45702236Y-41128285D01*
X45587079Y-41051338D01*
X45587070Y-41051334D01*
X45392251Y-40970637D01*
X45185437Y-40929500D01*
X45185435Y-40929500D01*
X44974565Y-40929500D01*
X44974562Y-40929500D01*
X44767748Y-40970637D01*
X44572929Y-41051334D01*
X44572920Y-41051338D01*
X44397596Y-41168488D01*
X44397592Y-41168491D01*
X44248491Y-41317592D01*
X44248488Y-41317596D01*
X44131338Y-41492920D01*
X44131334Y-41492929D01*
X44050637Y-41687748D01*
X44009500Y-41894562D01*
X43610499Y-41894562D01*
X43569362Y-41687747D01*
X43488665Y-41492928D01*
X43488663Y-41492926D01*
X43488661Y-41492920D01*
X43421459Y-41392347D01*
X43371512Y-41317596D01*
X43222404Y-41168488D01*
X43162236Y-41128285D01*
X43047079Y-41051338D01*
X43047070Y-41051334D01*
X42852251Y-40970637D01*
X42645437Y-40929500D01*
X42645435Y-40929500D01*
X42434565Y-40929500D01*
X42434562Y-40929500D01*
X42227748Y-40970637D01*
X42032929Y-41051334D01*
X42032920Y-41051338D01*
X41857596Y-41168488D01*
X41857592Y-41168491D01*
X41708491Y-41317592D01*
X41708488Y-41317596D01*
X41591338Y-41492920D01*
X41591334Y-41492929D01*
X41510637Y-41687748D01*
X41469500Y-41894562D01*
X40489386Y-41894562D01*
X40465925Y-41807007D01*
X40433012Y-41750000D01*
X41099999Y-41750000D01*
X41100000Y-41749999D01*
X41100000Y-41125377D01*
X41099999Y-41125375D01*
X41085493Y-41052453D01*
X41085492Y-41052451D01*
X41030241Y-40969762D01*
X41030237Y-40969758D01*
X40947548Y-40914507D01*
X40947546Y-40914506D01*
X40874624Y-40900000D01*
X40250001Y-40900000D01*
X40250000Y-40900001D01*
X40250000Y-41566988D01*
X40192993Y-41534075D01*
X40065826Y-41500000D01*
X39934174Y-41500000D01*
X39807007Y-41534075D01*
X39750000Y-41566988D01*
X39750000Y-40900001D01*
X39749999Y-40900000D01*
X39125375Y-40900000D01*
X39052453Y-40914506D01*
X39052451Y-40914507D01*
X38969762Y-40969758D01*
X38969758Y-40969762D01*
X38914507Y-41052451D01*
X38914506Y-41052453D01*
X38900000Y-41125375D01*
X33317881Y-41125375D01*
X33207079Y-41051338D01*
X33207070Y-41051334D01*
X33012251Y-40970637D01*
X32805437Y-40929500D01*
X32805435Y-40929500D01*
X32594565Y-40929500D01*
X32594562Y-40929500D01*
X32387748Y-40970637D01*
X32192929Y-41051334D01*
X32192920Y-41051338D01*
X32017596Y-41168488D01*
X32017592Y-41168491D01*
X31868491Y-41317592D01*
X31868488Y-41317596D01*
X31751338Y-41492920D01*
X31751334Y-41492929D01*
X31670637Y-41687748D01*
X31629500Y-41894562D01*
X31230499Y-41894562D01*
X31189362Y-41687747D01*
X31108665Y-41492928D01*
X31108663Y-41492926D01*
X31108661Y-41492920D01*
X31041459Y-41392347D01*
X30991512Y-41317596D01*
X30842404Y-41168488D01*
X30782236Y-41128285D01*
X30667079Y-41051338D01*
X30667070Y-41051334D01*
X30472251Y-40970637D01*
X30265437Y-40929500D01*
X30265435Y-40929500D01*
X30054565Y-40929500D01*
X30054562Y-40929500D01*
X29847748Y-40970637D01*
X29652929Y-41051334D01*
X29652920Y-41051338D01*
X29477596Y-41168488D01*
X29477592Y-41168491D01*
X29328491Y-41317592D01*
X29328488Y-41317596D01*
X29211338Y-41492920D01*
X29211334Y-41492929D01*
X29130637Y-41687748D01*
X29089500Y-41894562D01*
X28690499Y-41894562D01*
X28649362Y-41687747D01*
X28568665Y-41492928D01*
X28568663Y-41492926D01*
X28568661Y-41492920D01*
X28501459Y-41392347D01*
X28451512Y-41317596D01*
X28302404Y-41168488D01*
X28242236Y-41128285D01*
X28127079Y-41051338D01*
X28127070Y-41051334D01*
X27932251Y-40970637D01*
X27725437Y-40929500D01*
X27725435Y-40929500D01*
X27514565Y-40929500D01*
X27514562Y-40929500D01*
X27307748Y-40970637D01*
X27112929Y-41051334D01*
X27112920Y-41051338D01*
X26937596Y-41168488D01*
X26937592Y-41168491D01*
X26788491Y-41317592D01*
X26788488Y-41317596D01*
X26671338Y-41492920D01*
X26671334Y-41492929D01*
X26590637Y-41687748D01*
X26549500Y-41894562D01*
X26150499Y-41894562D01*
X26109362Y-41687747D01*
X26028665Y-41492928D01*
X26028663Y-41492926D01*
X26028661Y-41492920D01*
X25961459Y-41392347D01*
X25911512Y-41317596D01*
X25762404Y-41168488D01*
X25702236Y-41128285D01*
X25587079Y-41051338D01*
X25587070Y-41051334D01*
X25392251Y-40970637D01*
X25185437Y-40929500D01*
X25185435Y-40929500D01*
X24974565Y-40929500D01*
X24974562Y-40929500D01*
X24767748Y-40970637D01*
X24572929Y-41051334D01*
X24572920Y-41051338D01*
X24397596Y-41168488D01*
X24397592Y-41168491D01*
X24248491Y-41317592D01*
X24248488Y-41317596D01*
X24131338Y-41492920D01*
X24131334Y-41492929D01*
X24050637Y-41687748D01*
X24009500Y-41894562D01*
X23610499Y-41894562D01*
X23569362Y-41687747D01*
X23488665Y-41492928D01*
X23488663Y-41492926D01*
X23488661Y-41492920D01*
X23421459Y-41392347D01*
X23371512Y-41317596D01*
X23222404Y-41168488D01*
X23162236Y-41128285D01*
X23047079Y-41051338D01*
X23047070Y-41051334D01*
X22852251Y-40970637D01*
X22645437Y-40929500D01*
X22645435Y-40929500D01*
X22434565Y-40929500D01*
X22434562Y-40929500D01*
X22227748Y-40970637D01*
X22032929Y-41051334D01*
X22032920Y-41051338D01*
X21857596Y-41168488D01*
X21857592Y-41168491D01*
X21708491Y-41317592D01*
X21708488Y-41317596D01*
X21591338Y-41492920D01*
X21591334Y-41492929D01*
X21510637Y-41687748D01*
X21469500Y-41894562D01*
X20489386Y-41894562D01*
X20465925Y-41807007D01*
X20433012Y-41750000D01*
X21099999Y-41750000D01*
X21100000Y-41749999D01*
X21100000Y-41125377D01*
X21099999Y-41125375D01*
X21085493Y-41052453D01*
X21085492Y-41052451D01*
X21030241Y-40969762D01*
X21030237Y-40969758D01*
X20947548Y-40914507D01*
X20947546Y-40914506D01*
X20874624Y-40900000D01*
X20250001Y-40900000D01*
X20250000Y-40900001D01*
X20250000Y-41566988D01*
X20192993Y-41534075D01*
X20065826Y-41500000D01*
X19934174Y-41500000D01*
X19807007Y-41534075D01*
X19750000Y-41566988D01*
X19750000Y-40900001D01*
X19749999Y-40900000D01*
X19125375Y-40900000D01*
X19052453Y-40914506D01*
X19052451Y-40914507D01*
X18969762Y-40969758D01*
X18969758Y-40969762D01*
X18914507Y-41052451D01*
X18914506Y-41052453D01*
X18900000Y-41125375D01*
X7061069Y-41125375D01*
X7122736Y-41063708D01*
X7116524Y-41059196D01*
X6962248Y-40980588D01*
X6797579Y-40927084D01*
X6626575Y-40900000D01*
X6453425Y-40900000D01*
X6282420Y-40927084D01*
X6117751Y-40980588D01*
X5963478Y-41059194D01*
X5957262Y-41063708D01*
X6410591Y-41517037D01*
X6347007Y-41534075D01*
X6232993Y-41599901D01*
X6139901Y-41692993D01*
X6074075Y-41807007D01*
X6057037Y-41870591D01*
X5603708Y-41417262D01*
X5599194Y-41423478D01*
X5520588Y-41577751D01*
X5467084Y-41742420D01*
X5440000Y-41913424D01*
X5070499Y-41913424D01*
X5070499Y-41128282D01*
X5057707Y-41063965D01*
X5057535Y-41063708D01*
X5008973Y-40991030D01*
X5008972Y-40991028D01*
X5008639Y-40990805D01*
X4936035Y-40942292D01*
X4871720Y-40929500D01*
X3128285Y-40929500D01*
X3128275Y-40929501D01*
X3063966Y-40942292D01*
X3063963Y-40942293D01*
X2991030Y-40991026D01*
X2991026Y-40991030D01*
X2942292Y-41063964D01*
X2929500Y-41128278D01*
X500500Y-41128278D01*
X500500Y-40131472D01*
X7679500Y-40131472D01*
X7679500Y-40268527D01*
X7714971Y-40400904D01*
X7714973Y-40400908D01*
X7726285Y-40420500D01*
X7783497Y-40519594D01*
X7880406Y-40616503D01*
X7880408Y-40616504D01*
X7999091Y-40685026D01*
X7999095Y-40685028D01*
X8131472Y-40720499D01*
X8131474Y-40720500D01*
X8131475Y-40720500D01*
X8268526Y-40720500D01*
X8268526Y-40720499D01*
X8400905Y-40685028D01*
X8519594Y-40616503D01*
X8616503Y-40519594D01*
X8685028Y-40400905D01*
X8720500Y-40268525D01*
X8720500Y-40131475D01*
X8685028Y-39999095D01*
X8667378Y-39968525D01*
X8616504Y-39880408D01*
X8616503Y-39880406D01*
X8519594Y-39783497D01*
X8519591Y-39783495D01*
X8400908Y-39714973D01*
X8400904Y-39714971D01*
X8268527Y-39679500D01*
X8268525Y-39679500D01*
X8131475Y-39679500D01*
X8131472Y-39679500D01*
X7999095Y-39714971D01*
X7999091Y-39714973D01*
X7880408Y-39783495D01*
X7783495Y-39880408D01*
X7714973Y-39999091D01*
X7714971Y-39999095D01*
X7679500Y-40131472D01*
X500500Y-40131472D01*
X500500Y-36431472D01*
X13479500Y-36431472D01*
X13479500Y-36568527D01*
X13514971Y-36700904D01*
X13514973Y-36700908D01*
X13583495Y-36819591D01*
X13583497Y-36819594D01*
X13680406Y-36916503D01*
X13680408Y-36916504D01*
X13799091Y-36985026D01*
X13799095Y-36985028D01*
X13931472Y-37020499D01*
X13931474Y-37020500D01*
X13931475Y-37020500D01*
X14068526Y-37020500D01*
X14068526Y-37020499D01*
X14200905Y-36985028D01*
X14319594Y-36916503D01*
X14416503Y-36819594D01*
X14485028Y-36700905D01*
X14520500Y-36568525D01*
X14520500Y-36431475D01*
X14485028Y-36299095D01*
X14416503Y-36180406D01*
X14319594Y-36083497D01*
X14319591Y-36083495D01*
X14200908Y-36014973D01*
X14200904Y-36014971D01*
X14068527Y-35979500D01*
X14068525Y-35979500D01*
X13931475Y-35979500D01*
X13931472Y-35979500D01*
X13799095Y-36014971D01*
X13799091Y-36014973D01*
X13680408Y-36083495D01*
X13583495Y-36180408D01*
X13514973Y-36299091D01*
X13514971Y-36299095D01*
X13479500Y-36431472D01*
X500500Y-36431472D01*
X500500Y-35831472D01*
X3979500Y-35831472D01*
X3979500Y-35968527D01*
X4014971Y-36100904D01*
X4014973Y-36100908D01*
X4060873Y-36180408D01*
X4083497Y-36219594D01*
X4180406Y-36316503D01*
X4180408Y-36316504D01*
X4299091Y-36385026D01*
X4299095Y-36385028D01*
X4431472Y-36420499D01*
X4431474Y-36420500D01*
X4431475Y-36420500D01*
X4568526Y-36420500D01*
X4568526Y-36420499D01*
X4700905Y-36385028D01*
X4819594Y-36316503D01*
X4916503Y-36219594D01*
X4985028Y-36100905D01*
X5020500Y-35968525D01*
X5020500Y-35831475D01*
X4985028Y-35699095D01*
X4916503Y-35580406D01*
X4819594Y-35483497D01*
X4819591Y-35483495D01*
X4700908Y-35414973D01*
X4700904Y-35414971D01*
X4568527Y-35379500D01*
X4568525Y-35379500D01*
X4431475Y-35379500D01*
X4431472Y-35379500D01*
X4299095Y-35414971D01*
X4299091Y-35414973D01*
X4180408Y-35483495D01*
X4083495Y-35580408D01*
X4014973Y-35699091D01*
X4014971Y-35699095D01*
X3979500Y-35831472D01*
X500500Y-35831472D01*
X500500Y-29205000D01*
X4779500Y-29205000D01*
X4779500Y-30795000D01*
X4785525Y-30851040D01*
X4785526Y-30851042D01*
X4832805Y-30977804D01*
X4913882Y-31086112D01*
X4913887Y-31086117D01*
X5022195Y-31167194D01*
X5148960Y-31214475D01*
X5205000Y-31220500D01*
X5205003Y-31220500D01*
X6794997Y-31220500D01*
X6795000Y-31220500D01*
X6851040Y-31214475D01*
X6977805Y-31167194D01*
X7086115Y-31086115D01*
X7167194Y-30977805D01*
X7214475Y-30851040D01*
X7220500Y-30795000D01*
X7220500Y-29205000D01*
X7214475Y-29148960D01*
X7167194Y-29022195D01*
X7099283Y-28931475D01*
X7086117Y-28913887D01*
X7086112Y-28913882D01*
X6977804Y-28832805D01*
X6887591Y-28799158D01*
X6851040Y-28785525D01*
X6851036Y-28785524D01*
X6851034Y-28785524D01*
X6821676Y-28782368D01*
X6795000Y-28779500D01*
X5205000Y-28779500D01*
X5181977Y-28781975D01*
X5148965Y-28785524D01*
X5148961Y-28785524D01*
X5148960Y-28785525D01*
X5148957Y-28785525D01*
X5148957Y-28785526D01*
X5022195Y-28832805D01*
X4913887Y-28913882D01*
X4913882Y-28913887D01*
X4832805Y-29022195D01*
X4785526Y-29148957D01*
X4785525Y-29148960D01*
X4779500Y-29205000D01*
X500500Y-29205000D01*
X500500Y-24901619D01*
X4750000Y-24901619D01*
X4750000Y-25098380D01*
X4780778Y-25292710D01*
X4780779Y-25292714D01*
X4841576Y-25479826D01*
X4841578Y-25479829D01*
X4930907Y-25655148D01*
X4956319Y-25690125D01*
X5517036Y-25129407D01*
X5534075Y-25192993D01*
X5599901Y-25307007D01*
X5692993Y-25400099D01*
X5807007Y-25465925D01*
X5870590Y-25482962D01*
X5309874Y-26043678D01*
X5344860Y-26069097D01*
X5520170Y-26158421D01*
X5520173Y-26158423D01*
X5707285Y-26219220D01*
X5707289Y-26219221D01*
X5901620Y-26250000D01*
X6098380Y-26250000D01*
X6292710Y-26219221D01*
X6292714Y-26219220D01*
X6479826Y-26158423D01*
X6479829Y-26158421D01*
X6655142Y-26069096D01*
X6655148Y-26069092D01*
X6690125Y-26043679D01*
X6690125Y-26043678D01*
X6129409Y-25482962D01*
X6192993Y-25465925D01*
X6307007Y-25400099D01*
X6400099Y-25307007D01*
X6465925Y-25192993D01*
X6482962Y-25129409D01*
X7043678Y-25690125D01*
X7043679Y-25690125D01*
X7069092Y-25655148D01*
X7069096Y-25655142D01*
X7158421Y-25479829D01*
X7158423Y-25479826D01*
X7219220Y-25292714D01*
X7219221Y-25292710D01*
X7250000Y-25098380D01*
X7250000Y-24901619D01*
X7219221Y-24707289D01*
X7219220Y-24707285D01*
X7158423Y-24520173D01*
X7158421Y-24520170D01*
X7069097Y-24344860D01*
X7043678Y-24309874D01*
X6482962Y-24870590D01*
X6465925Y-24807007D01*
X6400099Y-24692993D01*
X6307007Y-24599901D01*
X6192993Y-24534075D01*
X6129407Y-24517036D01*
X6690125Y-23956319D01*
X6655148Y-23930907D01*
X6479829Y-23841578D01*
X6479826Y-23841576D01*
X6292714Y-23780779D01*
X6292710Y-23780778D01*
X6098380Y-23750000D01*
X5901620Y-23750000D01*
X5707289Y-23780778D01*
X5707285Y-23780779D01*
X5520173Y-23841576D01*
X5520170Y-23841578D01*
X5344856Y-23930904D01*
X5309873Y-23956319D01*
X5870591Y-24517037D01*
X5807007Y-24534075D01*
X5692993Y-24599901D01*
X5599901Y-24692993D01*
X5534075Y-24807007D01*
X5517037Y-24870591D01*
X4956319Y-24309873D01*
X4930904Y-24344856D01*
X4841578Y-24520170D01*
X4841576Y-24520173D01*
X4780779Y-24707285D01*
X4780778Y-24707289D01*
X4750000Y-24901619D01*
X500500Y-24901619D01*
X500500Y-16431472D01*
X3729500Y-16431472D01*
X3729500Y-16568527D01*
X3764971Y-16700904D01*
X3764973Y-16700908D01*
X3833495Y-16819591D01*
X3833497Y-16819594D01*
X3930406Y-16916503D01*
X3930408Y-16916504D01*
X4049091Y-16985026D01*
X4049095Y-16985028D01*
X4181472Y-17020499D01*
X4181474Y-17020500D01*
X4181475Y-17020500D01*
X4318526Y-17020500D01*
X4318526Y-17020499D01*
X4450905Y-16985028D01*
X4569594Y-16916503D01*
X4603097Y-16882999D01*
X4636602Y-16849496D01*
X4691119Y-16821719D01*
X4706605Y-16820500D01*
X5326237Y-16820500D01*
X5384428Y-16839407D01*
X5396241Y-16849496D01*
X16910962Y-28364217D01*
X16938739Y-28418734D01*
X16929168Y-28479166D01*
X16890459Y-28519957D01*
X16780407Y-28583496D01*
X16683495Y-28680408D01*
X16614973Y-28799091D01*
X16614971Y-28799095D01*
X16579500Y-28931472D01*
X16579500Y-29068527D01*
X16614971Y-29200904D01*
X16614973Y-29200908D01*
X16683495Y-29319591D01*
X16683497Y-29319594D01*
X16780406Y-29416503D01*
X16780408Y-29416504D01*
X16899091Y-29485026D01*
X16899095Y-29485028D01*
X17031472Y-29520499D01*
X17031474Y-29520500D01*
X17031475Y-29520500D01*
X17168526Y-29520500D01*
X17168526Y-29520499D01*
X17300905Y-29485028D01*
X17419594Y-29416503D01*
X17516503Y-29319594D01*
X17580043Y-29209539D01*
X17625511Y-29168600D01*
X17686361Y-29162204D01*
X17735782Y-29189037D01*
X22010962Y-33464217D01*
X22038739Y-33518734D01*
X22029168Y-33579166D01*
X21990459Y-33619957D01*
X21880407Y-33683496D01*
X21783495Y-33780408D01*
X21714973Y-33899091D01*
X21714971Y-33899095D01*
X21679500Y-34031472D01*
X21679500Y-34168527D01*
X21714971Y-34300904D01*
X21714973Y-34300908D01*
X21783495Y-34419591D01*
X21783497Y-34419594D01*
X21880406Y-34516503D01*
X21880408Y-34516504D01*
X21999091Y-34585026D01*
X21999095Y-34585028D01*
X22131472Y-34620499D01*
X22131474Y-34620500D01*
X22131475Y-34620500D01*
X22268526Y-34620500D01*
X22268526Y-34620499D01*
X22400905Y-34585028D01*
X22519594Y-34516503D01*
X22616503Y-34419594D01*
X22680043Y-34309539D01*
X22725511Y-34268600D01*
X22786361Y-34262204D01*
X22835782Y-34289037D01*
X23500504Y-34953759D01*
X23528281Y-35008276D01*
X23529500Y-35023763D01*
X23529500Y-35033651D01*
X23556274Y-35133574D01*
X23559861Y-35146961D01*
X23618507Y-35248538D01*
X23618509Y-35248540D01*
X23618511Y-35248543D01*
X23701457Y-35331489D01*
X23701459Y-35331490D01*
X23701461Y-35331492D01*
X23803039Y-35390138D01*
X23803037Y-35390138D01*
X23803041Y-35390139D01*
X23803043Y-35390140D01*
X23916349Y-35420500D01*
X23916351Y-35420500D01*
X24033649Y-35420500D01*
X24033651Y-35420500D01*
X24146957Y-35390140D01*
X24146959Y-35390138D01*
X24146961Y-35390138D01*
X24248538Y-35331492D01*
X24248538Y-35331491D01*
X24248543Y-35331489D01*
X24331489Y-35248543D01*
X24390140Y-35146957D01*
X24420500Y-35033651D01*
X24420500Y-34916349D01*
X24390140Y-34803043D01*
X24390138Y-34803040D01*
X24390138Y-34803038D01*
X24331492Y-34701461D01*
X24331490Y-34701459D01*
X24331489Y-34701457D01*
X24248543Y-34618511D01*
X24248540Y-34618509D01*
X24248538Y-34618507D01*
X24146960Y-34559861D01*
X24146962Y-34559861D01*
X24086027Y-34543534D01*
X24033651Y-34529500D01*
X24033649Y-34529500D01*
X24023763Y-34529500D01*
X23965572Y-34510593D01*
X23953759Y-34500504D01*
X5756465Y-16303210D01*
X5756464Y-16303208D01*
X5696792Y-16243536D01*
X5696789Y-16243534D01*
X5623712Y-16201342D01*
X5623709Y-16201341D01*
X5542195Y-16179500D01*
X5542193Y-16179500D01*
X4706605Y-16179500D01*
X4648414Y-16160593D01*
X4636602Y-16150504D01*
X4569593Y-16083496D01*
X4450908Y-16014973D01*
X4450904Y-16014971D01*
X4318527Y-15979500D01*
X4318525Y-15979500D01*
X4181475Y-15979500D01*
X4181472Y-15979500D01*
X4049095Y-16014971D01*
X4049091Y-16014973D01*
X3930408Y-16083495D01*
X3833495Y-16180408D01*
X3764973Y-16299091D01*
X3764971Y-16299095D01*
X3729500Y-16431472D01*
X500500Y-16431472D01*
X500500Y-11331472D01*
X16979500Y-11331472D01*
X16979500Y-11468527D01*
X17014971Y-11600904D01*
X17014973Y-11600908D01*
X17060873Y-11680408D01*
X17083497Y-11719594D01*
X17180406Y-11816503D01*
X17299095Y-11885028D01*
X17306122Y-11886910D01*
X17357436Y-11920232D01*
X17379364Y-11977353D01*
X17379500Y-11982537D01*
X17379500Y-26242195D01*
X17401341Y-26323709D01*
X17401342Y-26323712D01*
X17443534Y-26396789D01*
X17443536Y-26396792D01*
X17503208Y-26456464D01*
X17503210Y-26456465D01*
X25950504Y-34903759D01*
X25978281Y-34958276D01*
X25979500Y-34973763D01*
X25979500Y-39443395D01*
X25960593Y-39501586D01*
X25950504Y-39513398D01*
X25883496Y-39580406D01*
X25814973Y-39699091D01*
X25814971Y-39699095D01*
X25779500Y-39831472D01*
X25779500Y-39968527D01*
X25814971Y-40100904D01*
X25814973Y-40100908D01*
X25883495Y-40219591D01*
X25883497Y-40219594D01*
X25980406Y-40316503D01*
X25980408Y-40316504D01*
X26099091Y-40385026D01*
X26099095Y-40385028D01*
X26231472Y-40420499D01*
X26231474Y-40420500D01*
X26231475Y-40420500D01*
X26368526Y-40420500D01*
X26368526Y-40420499D01*
X26500905Y-40385028D01*
X26619594Y-40316503D01*
X26716503Y-40219594D01*
X26785028Y-40100905D01*
X26820500Y-39968525D01*
X26820500Y-39831475D01*
X26785028Y-39699095D01*
X26716503Y-39580406D01*
X26649496Y-39513398D01*
X26621719Y-39458881D01*
X26620500Y-39443395D01*
X26620500Y-34850182D01*
X26620501Y-34850169D01*
X26620501Y-34757807D01*
X26620501Y-34757806D01*
X26598660Y-34676292D01*
X26580826Y-34645404D01*
X26556464Y-34603208D01*
X26496792Y-34543536D01*
X26496789Y-34543534D01*
X18049496Y-26096241D01*
X18021719Y-26041724D01*
X18020500Y-26026237D01*
X18020500Y-25431472D01*
X18479500Y-25431472D01*
X18479500Y-25568527D01*
X18514971Y-25700904D01*
X18514973Y-25700908D01*
X18583495Y-25819591D01*
X18583497Y-25819594D01*
X18680406Y-25916503D01*
X18680408Y-25916504D01*
X18799091Y-25985026D01*
X18799095Y-25985028D01*
X18931472Y-26020499D01*
X18931474Y-26020500D01*
X18931475Y-26020500D01*
X19068526Y-26020500D01*
X19068526Y-26020499D01*
X19200905Y-25985028D01*
X19319594Y-25916503D01*
X19416503Y-25819594D01*
X19485028Y-25700905D01*
X19520500Y-25568525D01*
X19520500Y-25431475D01*
X19485028Y-25299095D01*
X19416503Y-25180406D01*
X19319594Y-25083497D01*
X19319591Y-25083495D01*
X19200908Y-25014973D01*
X19200904Y-25014971D01*
X19068527Y-24979500D01*
X19068525Y-24979500D01*
X18931475Y-24979500D01*
X18931472Y-24979500D01*
X18799095Y-25014971D01*
X18799091Y-25014973D01*
X18680408Y-25083495D01*
X18583495Y-25180408D01*
X18514973Y-25299091D01*
X18514971Y-25299095D01*
X18479500Y-25431472D01*
X18020500Y-25431472D01*
X18020500Y-23331472D01*
X21879500Y-23331472D01*
X21879500Y-23468527D01*
X21914971Y-23600904D01*
X21914973Y-23600908D01*
X21963539Y-23685026D01*
X21983497Y-23719594D01*
X22080406Y-23816503D01*
X22080408Y-23816504D01*
X22199091Y-23885026D01*
X22199095Y-23885028D01*
X22331472Y-23920499D01*
X22331474Y-23920500D01*
X22331475Y-23920500D01*
X22468526Y-23920500D01*
X22468526Y-23920499D01*
X22600905Y-23885028D01*
X22719594Y-23816503D01*
X22816503Y-23719594D01*
X22885028Y-23600905D01*
X22920500Y-23468525D01*
X22920500Y-23331475D01*
X22885028Y-23199095D01*
X22870819Y-23174485D01*
X22870819Y-23174483D01*
X22845986Y-23131472D01*
X24879500Y-23131472D01*
X24879500Y-23268527D01*
X24914971Y-23400904D01*
X24914973Y-23400908D01*
X24970014Y-23496241D01*
X24983497Y-23519594D01*
X25080406Y-23616503D01*
X25080408Y-23616504D01*
X25199091Y-23685026D01*
X25199095Y-23685028D01*
X25331472Y-23720499D01*
X25331474Y-23720500D01*
X25331475Y-23720500D01*
X25468526Y-23720500D01*
X25468526Y-23720499D01*
X25600905Y-23685028D01*
X25719594Y-23616503D01*
X25816503Y-23519594D01*
X25885028Y-23400905D01*
X25903633Y-23331472D01*
X28379500Y-23331472D01*
X28379500Y-23468527D01*
X28414971Y-23600904D01*
X28414973Y-23600908D01*
X28463539Y-23685026D01*
X28483497Y-23719594D01*
X28580406Y-23816503D01*
X28580408Y-23816504D01*
X28699091Y-23885026D01*
X28699095Y-23885028D01*
X28831472Y-23920499D01*
X28831474Y-23920500D01*
X28831475Y-23920500D01*
X28926237Y-23920500D01*
X28984428Y-23939407D01*
X28996241Y-23949496D01*
X29850504Y-24803759D01*
X29878281Y-24858276D01*
X29879500Y-24873763D01*
X29879500Y-38643395D01*
X29860593Y-38701586D01*
X29850504Y-38713398D01*
X29783496Y-38780406D01*
X29714973Y-38899091D01*
X29714971Y-38899095D01*
X29679500Y-39031472D01*
X29679500Y-39168527D01*
X29714971Y-39300904D01*
X29714973Y-39300908D01*
X29783495Y-39419591D01*
X29783497Y-39419594D01*
X29880406Y-39516503D01*
X29880408Y-39516504D01*
X29999091Y-39585026D01*
X29999095Y-39585028D01*
X30131472Y-39620499D01*
X30131474Y-39620500D01*
X30131475Y-39620500D01*
X30268526Y-39620500D01*
X30268526Y-39620499D01*
X30400905Y-39585028D01*
X30519594Y-39516503D01*
X30616503Y-39419594D01*
X30685028Y-39300905D01*
X30720500Y-39168525D01*
X30720500Y-39031475D01*
X30685028Y-38899095D01*
X30616503Y-38780406D01*
X30549496Y-38713398D01*
X30521719Y-38658881D01*
X30520500Y-38643395D01*
X30520500Y-29131472D01*
X33679500Y-29131472D01*
X33679500Y-29268527D01*
X33714971Y-29400904D01*
X33714973Y-29400908D01*
X33763539Y-29485026D01*
X33783497Y-29519594D01*
X33880406Y-29616503D01*
X33880408Y-29616504D01*
X33999091Y-29685026D01*
X33999095Y-29685028D01*
X34131472Y-29720499D01*
X34131474Y-29720500D01*
X34131475Y-29720500D01*
X34268526Y-29720500D01*
X34268526Y-29720499D01*
X34400905Y-29685028D01*
X34519594Y-29616503D01*
X34616503Y-29519594D01*
X34685028Y-29400905D01*
X34720500Y-29268525D01*
X34720500Y-29131475D01*
X34685028Y-28999095D01*
X34616503Y-28880406D01*
X34519594Y-28783497D01*
X34512671Y-28779500D01*
X34400908Y-28714973D01*
X34400904Y-28714971D01*
X34268527Y-28679500D01*
X34268525Y-28679500D01*
X34131475Y-28679500D01*
X34131472Y-28679500D01*
X33999095Y-28714971D01*
X33999091Y-28714973D01*
X33880408Y-28783495D01*
X33783495Y-28880408D01*
X33714973Y-28999091D01*
X33714971Y-28999095D01*
X33679500Y-29131472D01*
X30520500Y-29131472D01*
X30520500Y-24750182D01*
X30520501Y-24750169D01*
X30520501Y-24657807D01*
X30520501Y-24657806D01*
X30498660Y-24576292D01*
X30480826Y-24545404D01*
X30456464Y-24503208D01*
X30396792Y-24443536D01*
X30396789Y-24443534D01*
X29449496Y-23496241D01*
X29421719Y-23441724D01*
X29420500Y-23426237D01*
X29420500Y-23331474D01*
X29420499Y-23331472D01*
X29385028Y-23199095D01*
X29385026Y-23199091D01*
X29316504Y-23080408D01*
X29316503Y-23080406D01*
X29219594Y-22983497D01*
X29219591Y-22983495D01*
X29100908Y-22914973D01*
X29100904Y-22914971D01*
X28968527Y-22879500D01*
X28968525Y-22879500D01*
X28831475Y-22879500D01*
X28831472Y-22879500D01*
X28699095Y-22914971D01*
X28699091Y-22914973D01*
X28580408Y-22983495D01*
X28483495Y-23080408D01*
X28414973Y-23199091D01*
X28414971Y-23199095D01*
X28379500Y-23331472D01*
X25903633Y-23331472D01*
X25920500Y-23268525D01*
X25920500Y-23131475D01*
X25885028Y-22999095D01*
X25876021Y-22983495D01*
X25816504Y-22880408D01*
X25816503Y-22880406D01*
X25719594Y-22783497D01*
X25719591Y-22783495D01*
X25600908Y-22714973D01*
X25600904Y-22714971D01*
X25468527Y-22679500D01*
X25468525Y-22679500D01*
X25331475Y-22679500D01*
X25331472Y-22679500D01*
X25199095Y-22714971D01*
X25199091Y-22714973D01*
X25080408Y-22783495D01*
X24983495Y-22880408D01*
X24914973Y-22999091D01*
X24914971Y-22999095D01*
X24879500Y-23131472D01*
X22845986Y-23131472D01*
X22816504Y-23080408D01*
X22816503Y-23080406D01*
X22719594Y-22983497D01*
X22719591Y-22983495D01*
X22600908Y-22914973D01*
X22600904Y-22914971D01*
X22468527Y-22879500D01*
X22468525Y-22879500D01*
X22331475Y-22879500D01*
X22331472Y-22879500D01*
X22199095Y-22914971D01*
X22199091Y-22914973D01*
X22080408Y-22983495D01*
X21983495Y-23080408D01*
X21914973Y-23199091D01*
X21914971Y-23199095D01*
X21879500Y-23331472D01*
X18020500Y-23331472D01*
X18020500Y-17731472D01*
X21879500Y-17731472D01*
X21879500Y-17868527D01*
X21914971Y-18000904D01*
X21914973Y-18000908D01*
X21983495Y-18119591D01*
X21983497Y-18119594D01*
X22080406Y-18216503D01*
X22080408Y-18216504D01*
X22199091Y-18285026D01*
X22199095Y-18285028D01*
X22331472Y-18320499D01*
X22331474Y-18320500D01*
X22331475Y-18320500D01*
X22468526Y-18320500D01*
X22468526Y-18320499D01*
X22600905Y-18285028D01*
X22719594Y-18216503D01*
X22816503Y-18119594D01*
X22885028Y-18000905D01*
X22920500Y-17868525D01*
X22920500Y-17773763D01*
X22939407Y-17715572D01*
X22949496Y-17703759D01*
X23203759Y-17449496D01*
X23258276Y-17421719D01*
X23273763Y-17420500D01*
X23368526Y-17420500D01*
X23368526Y-17420499D01*
X23500905Y-17385028D01*
X23619594Y-17316503D01*
X23716503Y-17219594D01*
X23785028Y-17100905D01*
X23820500Y-16968525D01*
X23820500Y-16831475D01*
X23785028Y-16699095D01*
X23716503Y-16580406D01*
X23619594Y-16483497D01*
X23619591Y-16483495D01*
X23600341Y-16472381D01*
X23559400Y-16426912D01*
X23553004Y-16366061D01*
X23564105Y-16337144D01*
X23585026Y-16300908D01*
X23585028Y-16300905D01*
X23620500Y-16168525D01*
X23620500Y-16031475D01*
X23585028Y-15899095D01*
X23516503Y-15780406D01*
X23419594Y-15683497D01*
X23419591Y-15683495D01*
X23300908Y-15614973D01*
X23300904Y-15614971D01*
X23168527Y-15579500D01*
X23168525Y-15579500D01*
X23031475Y-15579500D01*
X23031472Y-15579500D01*
X22899095Y-15614971D01*
X22899091Y-15614973D01*
X22780408Y-15683495D01*
X22683495Y-15780408D01*
X22614973Y-15899091D01*
X22614971Y-15899095D01*
X22579500Y-16031472D01*
X22579500Y-16168527D01*
X22614971Y-16300904D01*
X22614973Y-16300908D01*
X22683495Y-16419591D01*
X22683497Y-16419594D01*
X22780406Y-16516503D01*
X22799657Y-16527617D01*
X22840599Y-16573086D01*
X22846995Y-16633936D01*
X22835895Y-16662853D01*
X22814972Y-16699093D01*
X22814971Y-16699095D01*
X22779500Y-16831472D01*
X22779500Y-16926237D01*
X22760593Y-16984428D01*
X22750504Y-16996241D01*
X22496241Y-17250504D01*
X22441724Y-17278281D01*
X22426237Y-17279500D01*
X22331472Y-17279500D01*
X22199095Y-17314971D01*
X22199091Y-17314973D01*
X22080408Y-17383495D01*
X21983495Y-17480408D01*
X21914973Y-17599091D01*
X21914971Y-17599095D01*
X21879500Y-17731472D01*
X18020500Y-17731472D01*
X18020500Y-13231472D01*
X19479500Y-13231472D01*
X19479500Y-13368527D01*
X19514971Y-13500904D01*
X19514973Y-13500908D01*
X19560873Y-13580408D01*
X19583497Y-13619594D01*
X19680406Y-13716503D01*
X19719819Y-13739258D01*
X19763130Y-13764264D01*
X19804070Y-13809734D01*
X19810465Y-13870584D01*
X19779872Y-13923572D01*
X19763130Y-13935736D01*
X19680407Y-13983496D01*
X19583495Y-14080408D01*
X19514973Y-14199091D01*
X19514971Y-14199095D01*
X19479500Y-14331472D01*
X19479500Y-14468527D01*
X19514971Y-14600904D01*
X19514973Y-14600908D01*
X19583495Y-14719591D01*
X19583497Y-14719594D01*
X19680406Y-14816503D01*
X19680408Y-14816504D01*
X19799091Y-14885026D01*
X19799095Y-14885028D01*
X19931472Y-14920499D01*
X19931474Y-14920500D01*
X19931475Y-14920500D01*
X20068526Y-14920500D01*
X20068526Y-14920499D01*
X20200905Y-14885028D01*
X20319594Y-14816503D01*
X20416503Y-14719594D01*
X20485028Y-14600905D01*
X20520500Y-14468525D01*
X20520500Y-14331475D01*
X20485028Y-14199095D01*
X20416503Y-14080406D01*
X20319594Y-13983497D01*
X20319591Y-13983495D01*
X20236870Y-13935736D01*
X20229792Y-13927875D01*
X20220126Y-13923572D01*
X20209775Y-13905645D01*
X20195929Y-13890267D01*
X20194823Y-13879746D01*
X20189533Y-13870584D01*
X20191696Y-13850000D01*
X20189749Y-13831472D01*
X31979500Y-13831472D01*
X31979500Y-13968527D01*
X32014971Y-14100904D01*
X32014973Y-14100908D01*
X32071662Y-14199095D01*
X32083497Y-14219594D01*
X32180406Y-14316503D01*
X32180408Y-14316504D01*
X32299091Y-14385026D01*
X32299095Y-14385028D01*
X32431472Y-14420499D01*
X32431474Y-14420500D01*
X32431475Y-14420500D01*
X32568526Y-14420500D01*
X32568526Y-14420499D01*
X32700905Y-14385028D01*
X32819594Y-14316503D01*
X32916503Y-14219594D01*
X32985028Y-14100905D01*
X33020500Y-13968525D01*
X33020500Y-13831475D01*
X32985028Y-13699095D01*
X32976906Y-13685028D01*
X32916504Y-13580408D01*
X32916503Y-13580406D01*
X32819594Y-13483497D01*
X32819591Y-13483495D01*
X32700908Y-13414973D01*
X32700904Y-13414971D01*
X32568527Y-13379500D01*
X32568525Y-13379500D01*
X32431475Y-13379500D01*
X32431472Y-13379500D01*
X32299095Y-13414971D01*
X32299091Y-13414973D01*
X32180408Y-13483495D01*
X32083495Y-13580408D01*
X32014973Y-13699091D01*
X32014971Y-13699095D01*
X31979500Y-13831472D01*
X20189749Y-13831472D01*
X20189533Y-13829417D01*
X20194823Y-13820254D01*
X20195929Y-13809734D01*
X20209776Y-13794354D01*
X20220126Y-13776429D01*
X20236870Y-13764264D01*
X20280181Y-13739258D01*
X20280180Y-13739258D01*
X20319594Y-13716503D01*
X20416503Y-13619594D01*
X20485028Y-13500905D01*
X20520500Y-13368525D01*
X20520500Y-13231475D01*
X20485028Y-13099095D01*
X20416503Y-12980406D01*
X20319594Y-12883497D01*
X20314244Y-12880408D01*
X20200908Y-12814973D01*
X20200904Y-12814971D01*
X20068527Y-12779500D01*
X20068525Y-12779500D01*
X19931475Y-12779500D01*
X19931472Y-12779500D01*
X19799095Y-12814971D01*
X19799091Y-12814973D01*
X19680408Y-12883495D01*
X19583495Y-12980408D01*
X19514973Y-13099091D01*
X19514971Y-13099095D01*
X19479500Y-13231472D01*
X18020500Y-13231472D01*
X18020500Y-11931472D01*
X19479500Y-11931472D01*
X19479500Y-12068527D01*
X19514971Y-12200904D01*
X19514973Y-12200908D01*
X19583495Y-12319591D01*
X19583497Y-12319594D01*
X19680406Y-12416503D01*
X19680408Y-12416504D01*
X19799091Y-12485026D01*
X19799095Y-12485028D01*
X19931472Y-12520499D01*
X19931474Y-12520500D01*
X19931475Y-12520500D01*
X20068526Y-12520500D01*
X20068526Y-12520499D01*
X20200905Y-12485028D01*
X20319594Y-12416503D01*
X20353097Y-12382999D01*
X20386602Y-12349496D01*
X20441119Y-12321719D01*
X20456605Y-12320500D01*
X22643395Y-12320500D01*
X22701586Y-12339407D01*
X22713398Y-12349496D01*
X22780406Y-12416503D01*
X22899091Y-12485026D01*
X22899095Y-12485028D01*
X22971292Y-12504374D01*
X23022606Y-12537698D01*
X23044532Y-12594819D01*
X23028696Y-12653920D01*
X22981146Y-12692425D01*
X22971292Y-12695626D01*
X22899095Y-12714971D01*
X22899091Y-12714973D01*
X22780408Y-12783495D01*
X22683495Y-12880408D01*
X22614973Y-12999091D01*
X22614971Y-12999095D01*
X22579500Y-13131472D01*
X22579500Y-13268527D01*
X22614971Y-13400904D01*
X22614973Y-13400908D01*
X22683495Y-13519591D01*
X22683497Y-13519594D01*
X22780406Y-13616503D01*
X22780408Y-13616504D01*
X22899091Y-13685026D01*
X22899095Y-13685028D01*
X23031472Y-13720499D01*
X23031474Y-13720500D01*
X23031475Y-13720500D01*
X23168526Y-13720500D01*
X23168526Y-13720499D01*
X23300905Y-13685028D01*
X23419594Y-13616503D01*
X23516503Y-13519594D01*
X23585028Y-13400905D01*
X23620500Y-13268525D01*
X23620500Y-13131475D01*
X23585028Y-12999095D01*
X23516503Y-12880406D01*
X23419594Y-12783497D01*
X23419591Y-12783495D01*
X23300910Y-12714974D01*
X23300907Y-12714973D01*
X23300905Y-12714972D01*
X23228704Y-12695625D01*
X23177393Y-12662302D01*
X23155467Y-12605181D01*
X23171303Y-12546080D01*
X23218853Y-12507575D01*
X23228691Y-12504378D01*
X23300905Y-12485028D01*
X23419594Y-12416503D01*
X23516503Y-12319594D01*
X23585028Y-12200905D01*
X23620500Y-12068525D01*
X23620500Y-11931475D01*
X23620499Y-11931472D01*
X28579500Y-11931472D01*
X28579500Y-12068527D01*
X28614971Y-12200904D01*
X28614973Y-12200908D01*
X28683495Y-12319591D01*
X28683497Y-12319594D01*
X28780406Y-12416503D01*
X28780408Y-12416504D01*
X28899091Y-12485026D01*
X28899095Y-12485028D01*
X29031472Y-12520499D01*
X29031474Y-12520500D01*
X29031475Y-12520500D01*
X29168526Y-12520500D01*
X29168526Y-12520499D01*
X29300905Y-12485028D01*
X29419594Y-12416503D01*
X29516503Y-12319594D01*
X29585028Y-12200905D01*
X29620500Y-12068525D01*
X29620500Y-11931475D01*
X29585028Y-11799095D01*
X29585026Y-11799091D01*
X29529392Y-11702731D01*
X29516503Y-11680406D01*
X29419594Y-11583497D01*
X29419591Y-11583495D01*
X29300908Y-11514973D01*
X29300904Y-11514971D01*
X29168527Y-11479500D01*
X29168525Y-11479500D01*
X29031475Y-11479500D01*
X29031472Y-11479500D01*
X28899095Y-11514971D01*
X28899091Y-11514973D01*
X28780408Y-11583495D01*
X28683495Y-11680408D01*
X28614973Y-11799091D01*
X28614971Y-11799095D01*
X28579500Y-11931472D01*
X23620499Y-11931472D01*
X23585028Y-11799095D01*
X23585028Y-11799094D01*
X23563946Y-11762580D01*
X23551224Y-11702731D01*
X23576110Y-11646836D01*
X23629098Y-11616243D01*
X23689948Y-11622638D01*
X23699169Y-11627336D01*
X23799095Y-11685028D01*
X23931472Y-11720499D01*
X23931474Y-11720500D01*
X23931475Y-11720500D01*
X24068526Y-11720500D01*
X24068526Y-11720499D01*
X24200905Y-11685028D01*
X24319594Y-11616503D01*
X24416503Y-11519594D01*
X24485028Y-11400905D01*
X24520500Y-11268525D01*
X24520500Y-11131475D01*
X24485028Y-10999095D01*
X24476906Y-10985028D01*
X24428338Y-10900905D01*
X24416503Y-10880406D01*
X24319594Y-10783497D01*
X24319591Y-10783495D01*
X24200908Y-10714973D01*
X24200904Y-10714971D01*
X24068527Y-10679500D01*
X24068525Y-10679500D01*
X23931475Y-10679500D01*
X23931472Y-10679500D01*
X23799095Y-10714971D01*
X23799091Y-10714973D01*
X23680408Y-10783495D01*
X23583495Y-10880408D01*
X23514973Y-10999091D01*
X23514971Y-10999095D01*
X23479500Y-11131472D01*
X23479500Y-11268527D01*
X23514971Y-11400903D01*
X23536054Y-11437420D01*
X23548775Y-11497268D01*
X23523888Y-11553164D01*
X23470900Y-11583757D01*
X23410050Y-11577361D01*
X23400817Y-11572656D01*
X23300908Y-11514973D01*
X23300904Y-11514971D01*
X23168527Y-11479500D01*
X23168525Y-11479500D01*
X23031475Y-11479500D01*
X23031472Y-11479500D01*
X22899095Y-11514971D01*
X22899091Y-11514973D01*
X22780406Y-11583496D01*
X22713398Y-11650504D01*
X22658881Y-11678281D01*
X22643395Y-11679500D01*
X20456605Y-11679500D01*
X20398414Y-11660593D01*
X20386602Y-11650504D01*
X20319593Y-11583496D01*
X20200908Y-11514973D01*
X20200904Y-11514971D01*
X20068527Y-11479500D01*
X20068525Y-11479500D01*
X19931475Y-11479500D01*
X19931472Y-11479500D01*
X19799095Y-11514971D01*
X19799091Y-11514973D01*
X19680408Y-11583495D01*
X19583495Y-11680408D01*
X19514973Y-11799091D01*
X19514971Y-11799095D01*
X19479500Y-11931472D01*
X18020500Y-11931472D01*
X18020500Y-11653231D01*
X18020500Y-11642198D01*
X18020501Y-11642195D01*
X18020501Y-11557806D01*
X18012833Y-11529191D01*
X18012220Y-11519270D01*
X18015405Y-11506921D01*
X18015405Y-11487536D01*
X18020500Y-11468525D01*
X18020500Y-11331475D01*
X17985028Y-11199095D01*
X17976906Y-11185028D01*
X17916504Y-11080408D01*
X17916503Y-11080406D01*
X17819594Y-10983497D01*
X17819591Y-10983495D01*
X17700908Y-10914973D01*
X17700904Y-10914971D01*
X17568527Y-10879500D01*
X17568525Y-10879500D01*
X17431475Y-10879500D01*
X17431472Y-10879500D01*
X17299095Y-10914971D01*
X17299091Y-10914973D01*
X17180408Y-10983495D01*
X17083495Y-11080408D01*
X17014973Y-11199091D01*
X17014971Y-11199095D01*
X16979500Y-11331472D01*
X500500Y-11331472D01*
X500500Y-10631472D01*
X27879500Y-10631472D01*
X27879500Y-10768527D01*
X27914971Y-10900904D01*
X27914973Y-10900908D01*
X27971662Y-10999095D01*
X27983497Y-11019594D01*
X28080406Y-11116503D01*
X28080408Y-11116504D01*
X28199091Y-11185026D01*
X28199095Y-11185028D01*
X28331472Y-11220499D01*
X28331474Y-11220500D01*
X28331475Y-11220500D01*
X28468526Y-11220500D01*
X28468526Y-11220499D01*
X28600905Y-11185028D01*
X28719594Y-11116503D01*
X28816503Y-11019594D01*
X28885028Y-10900905D01*
X28920500Y-10768525D01*
X28920500Y-10673763D01*
X28939407Y-10615572D01*
X28949496Y-10603759D01*
X29121783Y-10431472D01*
X50479500Y-10431472D01*
X50479500Y-10568527D01*
X50514971Y-10700904D01*
X50514973Y-10700908D01*
X50562655Y-10783495D01*
X50583497Y-10819594D01*
X50680406Y-10916503D01*
X50680408Y-10916504D01*
X50799091Y-10985026D01*
X50799095Y-10985028D01*
X50931472Y-11020499D01*
X50931474Y-11020500D01*
X50931475Y-11020500D01*
X51068526Y-11020500D01*
X51068526Y-11020499D01*
X51200905Y-10985028D01*
X51319594Y-10916503D01*
X51416503Y-10819594D01*
X51485028Y-10700905D01*
X51520500Y-10568525D01*
X51520500Y-10431475D01*
X51485028Y-10299095D01*
X51476021Y-10283495D01*
X51416504Y-10180408D01*
X51416503Y-10180406D01*
X51319594Y-10083497D01*
X51319591Y-10083495D01*
X51200908Y-10014973D01*
X51200904Y-10014971D01*
X51068527Y-9979500D01*
X51068525Y-9979500D01*
X50931475Y-9979500D01*
X50931472Y-9979500D01*
X50799095Y-10014971D01*
X50799091Y-10014973D01*
X50680408Y-10083495D01*
X50583495Y-10180408D01*
X50514973Y-10299091D01*
X50514971Y-10299095D01*
X50479500Y-10431472D01*
X29121783Y-10431472D01*
X30621783Y-8931472D01*
X31779500Y-8931472D01*
X31779500Y-9068527D01*
X31814971Y-9200904D01*
X31814973Y-9200908D01*
X31883495Y-9319591D01*
X31883497Y-9319594D01*
X31980406Y-9416503D01*
X31980408Y-9416504D01*
X32099091Y-9485026D01*
X32099095Y-9485028D01*
X32231472Y-9520499D01*
X32231474Y-9520500D01*
X32231475Y-9520500D01*
X32368526Y-9520500D01*
X32368526Y-9520499D01*
X32500905Y-9485028D01*
X32619594Y-9416503D01*
X32716503Y-9319594D01*
X32785028Y-9200905D01*
X32820500Y-9068525D01*
X32820500Y-8931475D01*
X32785028Y-8799095D01*
X32716503Y-8680406D01*
X32619594Y-8583497D01*
X32619591Y-8583495D01*
X32500908Y-8514973D01*
X32500904Y-8514971D01*
X32368527Y-8479500D01*
X32368525Y-8479500D01*
X32231475Y-8479500D01*
X32231472Y-8479500D01*
X32099095Y-8514971D01*
X32099091Y-8514973D01*
X31980408Y-8583495D01*
X31883495Y-8680408D01*
X31814973Y-8799091D01*
X31814971Y-8799095D01*
X31779500Y-8931472D01*
X30621783Y-8931472D01*
X31621783Y-7931472D01*
X44979500Y-7931472D01*
X44979500Y-8068527D01*
X45014971Y-8200904D01*
X45014973Y-8200908D01*
X45081712Y-8316503D01*
X45083497Y-8319594D01*
X45180406Y-8416503D01*
X45187329Y-8420500D01*
X45299091Y-8485026D01*
X45299095Y-8485028D01*
X45431472Y-8520499D01*
X45431474Y-8520500D01*
X45431475Y-8520500D01*
X45568526Y-8520500D01*
X45568526Y-8520499D01*
X45700905Y-8485028D01*
X45819594Y-8416503D01*
X45916503Y-8319594D01*
X45985028Y-8200905D01*
X46020500Y-8068525D01*
X46020500Y-7931475D01*
X45985028Y-7799095D01*
X45916503Y-7680406D01*
X45819594Y-7583497D01*
X45814244Y-7580408D01*
X45700908Y-7514973D01*
X45700904Y-7514971D01*
X45568527Y-7479500D01*
X45568525Y-7479500D01*
X45431475Y-7479500D01*
X45431472Y-7479500D01*
X45299095Y-7514971D01*
X45299091Y-7514973D01*
X45180408Y-7583495D01*
X45083495Y-7680408D01*
X45014973Y-7799091D01*
X45014971Y-7799095D01*
X44979500Y-7931472D01*
X31621783Y-7931472D01*
X32503759Y-7049496D01*
X32558276Y-7021719D01*
X32573763Y-7020500D01*
X32668526Y-7020500D01*
X32668526Y-7020499D01*
X32800905Y-6985028D01*
X32919594Y-6916503D01*
X33016503Y-6819594D01*
X33085028Y-6700905D01*
X33120500Y-6568525D01*
X33120500Y-6431475D01*
X33085028Y-6299095D01*
X33016503Y-6180406D01*
X32919594Y-6083497D01*
X32914244Y-6080408D01*
X32800908Y-6014973D01*
X32800904Y-6014971D01*
X32668527Y-5979500D01*
X32668525Y-5979500D01*
X32531475Y-5979500D01*
X32531472Y-5979500D01*
X32399095Y-6014971D01*
X32399091Y-6014973D01*
X32280408Y-6083495D01*
X32183495Y-6180408D01*
X32114973Y-6299091D01*
X32114971Y-6299095D01*
X32079500Y-6431472D01*
X32079500Y-6526237D01*
X32060593Y-6584428D01*
X32050504Y-6596241D01*
X28496241Y-10150504D01*
X28441724Y-10178281D01*
X28426237Y-10179500D01*
X28331472Y-10179500D01*
X28199095Y-10214971D01*
X28199091Y-10214973D01*
X28080408Y-10283495D01*
X27983495Y-10380408D01*
X27914973Y-10499091D01*
X27914971Y-10499095D01*
X27879500Y-10631472D01*
X500500Y-10631472D01*
X500500Y-8931472D01*
X22579500Y-8931472D01*
X22579500Y-9068527D01*
X22614971Y-9200904D01*
X22614973Y-9200908D01*
X22683495Y-9319591D01*
X22683497Y-9319594D01*
X22780406Y-9416503D01*
X22780408Y-9416504D01*
X22899091Y-9485026D01*
X22899095Y-9485028D01*
X23031472Y-9520499D01*
X23031474Y-9520500D01*
X23031475Y-9520500D01*
X23168526Y-9520500D01*
X23168526Y-9520499D01*
X23300905Y-9485028D01*
X23419594Y-9416503D01*
X23516503Y-9319594D01*
X23585028Y-9200905D01*
X23620500Y-9068525D01*
X23620500Y-8931475D01*
X23585028Y-8799095D01*
X23516503Y-8680406D01*
X23419594Y-8583497D01*
X23419591Y-8583495D01*
X23300908Y-8514973D01*
X23300904Y-8514971D01*
X23168527Y-8479500D01*
X23168525Y-8479500D01*
X23031475Y-8479500D01*
X23031472Y-8479500D01*
X22899095Y-8514971D01*
X22899091Y-8514973D01*
X22780408Y-8583495D01*
X22683495Y-8680408D01*
X22614973Y-8799091D01*
X22614971Y-8799095D01*
X22579500Y-8931472D01*
X500500Y-8931472D01*
X500500Y-7831472D01*
X24879500Y-7831472D01*
X24879500Y-7968527D01*
X24914971Y-8100904D01*
X24914973Y-8100908D01*
X24983495Y-8219591D01*
X24983497Y-8219594D01*
X25080406Y-8316503D01*
X25080408Y-8316504D01*
X25199091Y-8385026D01*
X25199095Y-8385028D01*
X25331472Y-8420499D01*
X25331474Y-8420500D01*
X25331475Y-8420500D01*
X25468526Y-8420500D01*
X25468526Y-8420499D01*
X25600905Y-8385028D01*
X25719594Y-8316503D01*
X25816503Y-8219594D01*
X25885028Y-8100905D01*
X25920500Y-7968525D01*
X25920500Y-7831475D01*
X25885028Y-7699095D01*
X25816503Y-7580406D01*
X25719594Y-7483497D01*
X25712671Y-7479500D01*
X25600908Y-7414973D01*
X25600904Y-7414971D01*
X25468527Y-7379500D01*
X25468525Y-7379500D01*
X25331475Y-7379500D01*
X25331472Y-7379500D01*
X25199095Y-7414971D01*
X25199091Y-7414973D01*
X25080408Y-7483495D01*
X24983495Y-7580408D01*
X24914973Y-7699091D01*
X24914971Y-7699095D01*
X24879500Y-7831472D01*
X500500Y-7831472D01*
X500500Y-6531472D01*
X19879500Y-6531472D01*
X19879500Y-6668527D01*
X19914971Y-6800904D01*
X19914973Y-6800908D01*
X19971662Y-6899095D01*
X19983497Y-6919594D01*
X20080406Y-7016503D01*
X20106333Y-7031472D01*
X20199091Y-7085026D01*
X20199095Y-7085028D01*
X20331472Y-7120499D01*
X20331474Y-7120500D01*
X20331475Y-7120500D01*
X20468526Y-7120500D01*
X20468526Y-7120499D01*
X20600905Y-7085028D01*
X20693667Y-7031472D01*
X23879500Y-7031472D01*
X23879500Y-7168527D01*
X23914971Y-7300904D01*
X23914973Y-7300908D01*
X23980828Y-7414971D01*
X23983497Y-7419594D01*
X24080406Y-7516503D01*
X24080408Y-7516504D01*
X24199091Y-7585026D01*
X24199095Y-7585028D01*
X24331472Y-7620499D01*
X24331474Y-7620500D01*
X24331475Y-7620500D01*
X24468526Y-7620500D01*
X24468526Y-7620499D01*
X24600905Y-7585028D01*
X24719594Y-7516503D01*
X24816503Y-7419594D01*
X24885028Y-7300905D01*
X24920500Y-7168525D01*
X24920500Y-7031475D01*
X24914897Y-7010565D01*
X24918097Y-6949467D01*
X24956601Y-6901915D01*
X24984895Y-6889317D01*
X25000905Y-6885028D01*
X25119594Y-6816503D01*
X25216503Y-6719594D01*
X25285028Y-6600905D01*
X25320500Y-6468525D01*
X25320500Y-6331475D01*
X25285028Y-6199095D01*
X25276021Y-6183495D01*
X25236459Y-6114971D01*
X25216503Y-6080406D01*
X25119594Y-5983497D01*
X25112671Y-5979500D01*
X25000908Y-5914973D01*
X25000904Y-5914971D01*
X24868527Y-5879500D01*
X24868525Y-5879500D01*
X24731475Y-5879500D01*
X24731472Y-5879500D01*
X24599095Y-5914971D01*
X24599091Y-5914973D01*
X24480408Y-5983495D01*
X24383495Y-6080408D01*
X24314973Y-6199091D01*
X24314971Y-6199095D01*
X24279500Y-6331472D01*
X24279500Y-6468525D01*
X24279499Y-6468525D01*
X24285102Y-6489431D01*
X24281901Y-6550533D01*
X24243397Y-6598083D01*
X24215103Y-6610682D01*
X24199093Y-6614972D01*
X24199091Y-6614973D01*
X24080408Y-6683495D01*
X23983495Y-6780408D01*
X23914973Y-6899091D01*
X23914971Y-6899095D01*
X23879500Y-7031472D01*
X20693667Y-7031472D01*
X20719594Y-7016503D01*
X20816503Y-6919594D01*
X20885028Y-6800905D01*
X20920500Y-6668525D01*
X20920500Y-6531475D01*
X20885028Y-6399095D01*
X20816503Y-6280406D01*
X20719594Y-6183497D01*
X20714244Y-6180408D01*
X20600908Y-6114973D01*
X20600904Y-6114971D01*
X20468527Y-6079500D01*
X20468525Y-6079500D01*
X20331475Y-6079500D01*
X20331472Y-6079500D01*
X20199095Y-6114971D01*
X20199091Y-6114973D01*
X20080408Y-6183495D01*
X19983495Y-6280408D01*
X19914973Y-6399091D01*
X19914971Y-6399095D01*
X19879500Y-6531472D01*
X500500Y-6531472D01*
X500500Y-4999000D01*
X519407Y-4940809D01*
X568907Y-4904845D01*
X599500Y-4900000D01*
X26999999Y-4900000D01*
X27000000Y-4900000D01*
X27000000Y-599500D01*
X27018907Y-541309D01*
X27068407Y-505345D01*
X27099000Y-500500D01*
X54400500Y-500500D01*
X54458691Y-519407D01*
G37*
%TD.AperFunction*%
%TD*%
M02*
