%TF.GenerationSoftware,KiCad,Pcbnew,9.0.8+dfsg-1*%
%TF.CreationDate,2026-09-29T12:58:34+02:00*%
%TF.ProjectId,v8b_krt_routed,7638625f-6b72-4745-9f72-6f757465642e,rev?*%
%TF.SameCoordinates,Original*%
%TF.FileFunction,Other,User*%
%FSLAX46Y46*%
G04 Gerber Fmt 4.6, Leading zero omitted, Abs format (unit mm)*
G04 Created by KiCad (PCBNEW 9.0.8+dfsg-1) date 2026-09-29 12:58:34*
%MOMM*%
%LPD*%
G01*
G04 APERTURE LIST*
%ADD10C,0.050000*%
G04 APERTURE END LIST*
D10*
%TO.C,ANT1*%
X48500000Y-19400000D02*
X48500000Y-24400000D01*
X48500000Y-24400000D02*
X53500000Y-24400000D01*
X53500000Y-19400000D02*
X48500000Y-19400000D01*
X53500000Y-24400000D02*
X53500000Y-19400000D01*
%TO.C,R_LED*%
X30470000Y-31070000D02*
X29530000Y-31070000D01*
X29530000Y-32930000D01*
X30470000Y-32930000D01*
X30470000Y-31070000D01*
%TO.C,R_DIV1*%
X4930000Y-36470000D02*
X3070000Y-36470000D01*
X3070000Y-35530000D01*
X4930000Y-35530000D01*
X4930000Y-36470000D01*
%TO.C,U2*%
X28750000Y-750000D02*
X47250000Y-750000D01*
X28750000Y-17250000D02*
X28750000Y-750000D01*
X28750000Y-17250000D02*
X47250000Y-17250000D01*
X47250000Y-750000D02*
X47250000Y-17250000D01*
%TO.C,U4*%
X16950000Y-28500000D02*
X17950000Y-28500000D01*
X16950000Y-31500000D02*
X16950000Y-28500000D01*
X17950000Y-28300000D02*
X20050000Y-28300000D01*
X17950000Y-28500000D02*
X17950000Y-28300000D01*
X17950000Y-31500000D02*
X16950000Y-31500000D01*
X17950000Y-31700000D02*
X17950000Y-31500000D01*
X20050000Y-28300000D02*
X20050000Y-28500000D01*
X20050000Y-28500000D02*
X21050000Y-28500000D01*
X20050000Y-29610000D02*
X20050000Y-30390000D01*
X20050000Y-30390000D02*
X21050000Y-30390000D01*
X20050000Y-31500000D02*
X20050000Y-31700000D01*
X20050000Y-31700000D02*
X17950000Y-31700000D01*
X21050000Y-28500000D02*
X21050000Y-29610000D01*
X21050000Y-29610000D02*
X20050000Y-29610000D01*
X21050000Y-30390000D02*
X21050000Y-31500000D01*
X21050000Y-31500000D02*
X20050000Y-31500000D01*
%TO.C,U5*%
X21590000Y-34460000D02*
X24410000Y-34460000D01*
X21590000Y-37540000D02*
X21590000Y-34460000D01*
X24410000Y-34460000D02*
X24410000Y-37540000D01*
X24410000Y-37540000D02*
X21590000Y-37540000D01*
%TO.C,D1*%
X21650000Y-21850000D02*
X26350000Y-21850000D01*
X21650000Y-24150000D02*
X21650000Y-21850000D01*
X26350000Y-24150000D02*
X21650000Y-24150000D01*
X26350000Y-24150000D02*
X26350000Y-21850000D01*
%TO.C,C_CAP*%
X11250000Y-27500000D02*
G75*
G02*
X750000Y-27500000I-5250000J0D01*
G01*
X750000Y-27500000D02*
G75*
G02*
X11250000Y-27500000I5250000J0D01*
G01*
%TO.C,C2*%
X23520000Y-8270000D02*
X26480000Y-8270000D01*
X26480000Y-9730000D01*
X23520000Y-9730000D01*
X23520000Y-8270000D01*
%TO.C,J2*%
X38230000Y-43770000D02*
X49390000Y-43770000D01*
X49390000Y-40230000D01*
X38230000Y-40230000D01*
X38230000Y-43770000D01*
%TO.C,R_PD*%
X14470000Y-35070000D02*
X13530000Y-35070000D01*
X13530000Y-36930000D01*
X14470000Y-36930000D01*
X14470000Y-35070000D01*
%TO.C,C3*%
X18540000Y-25910000D02*
X19460000Y-25910000D01*
X19460000Y-24090000D01*
X18540000Y-24090000D01*
X18540000Y-25910000D01*
%TO.C,SOLAR*%
X2230000Y-43770000D02*
X8320000Y-43770000D01*
X8320000Y-40230000D01*
X2230000Y-40230000D01*
X2230000Y-43770000D01*
%TO.C,C1*%
X13520000Y-22270000D02*
X16480000Y-22270000D01*
X16480000Y-23730000D01*
X13520000Y-23730000D01*
X13520000Y-22270000D01*
%TO.C,LED1*%
X36520000Y-35270000D02*
X39480000Y-35270000D01*
X39480000Y-36730000D01*
X36520000Y-36730000D01*
X36520000Y-35270000D01*
%TO.C,R_DIV2*%
X8070000Y-37530000D02*
X9930000Y-37530000D01*
X9930000Y-38470000D01*
X8070000Y-38470000D01*
X8070000Y-37530000D01*
%TO.C,C4*%
X51460000Y-10090000D02*
X50540000Y-10090000D01*
X50540000Y-11910000D01*
X51460000Y-11910000D01*
X51460000Y-10090000D01*
%TO.C,U1*%
X-1250000Y6350000D02*
X-1250000Y-5150000D01*
X-1250000Y6350000D02*
X27250000Y6350000D01*
X-1250000Y-5150000D02*
X3250000Y-5150000D01*
X3250000Y-19150000D02*
X3250000Y-5150000D01*
X3250000Y-19150000D02*
X22750000Y-19150000D01*
X22750000Y-5150000D02*
X22750000Y-19150000D01*
X22750000Y-5150000D02*
X27250000Y-5150000D01*
X27250000Y6350000D02*
X27250000Y-5150000D01*
%TO.C,J1*%
X18230000Y-43770000D02*
X34470000Y-43770000D01*
X34470000Y-40230000D01*
X18230000Y-40230000D01*
X18230000Y-43770000D01*
%TO.C,U3*%
X33100000Y-21700000D02*
X33100000Y-32300000D01*
X33100000Y-21700000D02*
X44900000Y-21700000D01*
X33100000Y-32300000D02*
X44900000Y-32300000D01*
X44900000Y-21700000D02*
X44900000Y-32300000D01*
%TD*%
M02*
