%TF.GenerationSoftware,KiCad,Pcbnew,9.0.8+dfsg-1*%
%TF.CreationDate,2026-09-29T12:58:34+02:00*%
%TF.ProjectId,v8b_krt_routed,7638625f-6b72-4745-9f72-6f757465642e,rev?*%
%TF.SameCoordinates,Original*%
%TF.FileFunction,Copper,L4,Bot*%
%TF.FilePolarity,Positive*%
%FSLAX46Y46*%
G04 Gerber Fmt 4.6, Leading zero omitted, Abs format (unit mm)*
G04 Created by KiCad (PCBNEW 9.0.8+dfsg-1) date 2026-09-29 12:58:34*
%MOMM*%
%LPD*%
G01*
G04 APERTURE LIST*
G04 Aperture macros list*
%AMRoundRect*
0 Rectangle with rounded corners*
0 $1 Rounding radius*
0 $2 $3 $4 $5 $6 $7 $8 $9 X,Y pos of 4 corners*
0 Add a 4 corners polygon primitive as box body*
4,1,4,$2,$3,$4,$5,$6,$7,$8,$9,$2,$3,0*
0 Add four circle primitives for the rounded corners*
1,1,$1+$1,$2,$3*
1,1,$1+$1,$4,$5*
1,1,$1+$1,$6,$7*
1,1,$1+$1,$8,$9*
0 Add four rect primitives between the rounded corners*
20,1,$1+$1,$2,$3,$4,$5,0*
20,1,$1+$1,$4,$5,$6,$7,0*
20,1,$1+$1,$6,$7,$8,$9,0*
20,1,$1+$1,$8,$9,$2,$3,0*%
G04 Aperture macros list end*
%TA.AperFunction,ComponentPad*%
%ADD10RoundRect,0.250000X0.750000X-0.750000X0.750000X0.750000X-0.750000X0.750000X-0.750000X-0.750000X0*%
%TD*%
%TA.AperFunction,ComponentPad*%
%ADD11C,2.000000*%
%TD*%
%TA.AperFunction,ComponentPad*%
%ADD12R,1.700000X1.700000*%
%TD*%
%TA.AperFunction,ComponentPad*%
%ADD13C,1.700000*%
%TD*%
%TA.AperFunction,HeatsinkPad*%
%ADD14C,0.600000*%
%TD*%
%TA.AperFunction,ViaPad*%
%ADD15C,0.600000*%
%TD*%
%TA.AperFunction,ViaPad*%
%ADD16C,0.450000*%
%TD*%
%TA.AperFunction,Conductor*%
%ADD17C,0.300000*%
%TD*%
%TA.AperFunction,Conductor*%
%ADD18C,0.200000*%
%TD*%
G04 APERTURE END LIST*
D10*
%TO.P,C_CAP,1*%
%TO.N,VCAP*%
X6000000Y-30000000D03*
D11*
%TO.P,C_CAP,2*%
%TO.N,GND*%
X6000000Y-25000000D03*
%TD*%
D12*
%TO.P,J2,1*%
%TO.N,GND*%
X40000000Y-42000000D03*
D13*
%TO.P,J2,2*%
%TO.N,+3V3*%
X42540000Y-42000000D03*
%TO.P,J2,3*%
%TO.N,I2C_SDA*%
X45080000Y-42000000D03*
%TO.P,J2,4*%
%TO.N,I2C_SCL*%
X47620000Y-42000000D03*
%TD*%
D12*
%TO.P,SOLAR,1*%
%TO.N,SOLAR_IN*%
X4000000Y-42000000D03*
D13*
%TO.P,SOLAR,2*%
%TO.N,GND*%
X6540000Y-42000000D03*
%TD*%
D14*
%TO.P,U1,19*%
%TO.N,GND*%
X12860000Y-11650000D03*
X12860000Y-12750000D03*
X13410000Y-11100000D03*
X13410000Y-12200000D03*
X13410000Y-13300000D03*
X13960000Y-11650000D03*
X13960000Y-12750000D03*
X14510000Y-11100000D03*
X14510000Y-12200000D03*
X14510000Y-13300000D03*
X15060000Y-11650000D03*
X15060000Y-12750000D03*
%TD*%
D12*
%TO.P,J1,1*%
%TO.N,GND*%
X20000000Y-42000000D03*
D13*
%TO.P,J1,2*%
%TO.N,+3V3*%
X22540000Y-42000000D03*
%TO.P,J1,3*%
%TO.N,EN*%
X25080000Y-42000000D03*
%TO.P,J1,4*%
%TO.N,UART0_TX*%
X27620000Y-42000000D03*
%TO.P,J1,5*%
%TO.N,UART0_RX*%
X30160000Y-42000000D03*
%TO.P,J1,6*%
%TO.N,N/C*%
X32700000Y-42000000D03*
%TD*%
D15*
%TO.N,+3V3*%
X22200000Y-34100000D03*
X14000000Y-36500000D03*
X45500000Y-8000000D03*
X20400000Y-6600000D03*
X51000000Y-10500000D03*
X23100000Y-9000000D03*
X19000000Y-25500000D03*
X34200000Y-29200000D03*
%TO.N,GND*%
X38800000Y-36000000D03*
X19000000Y-24500000D03*
X30500000Y-2000000D03*
X17700000Y-30000000D03*
X43800000Y-31400000D03*
D16*
X22000000Y-35000000D03*
D15*
X4200000Y-18000000D03*
X49500000Y-22000000D03*
X24100000Y-37000000D03*
D16*
X22700000Y-36500000D03*
D15*
X51000000Y-11500000D03*
X45500000Y-14000000D03*
X25800000Y-9000000D03*
X30500000Y-16000000D03*
X34200000Y-22600000D03*
%TO.N,VCAP*%
X22400000Y-23400000D03*
X4500000Y-35900000D03*
X17100000Y-29000000D03*
%TO.N,SOLAR_IN*%
X25400000Y-23200000D03*
X8200000Y-40200000D03*
%TO.N,EN*%
X26300000Y-39900000D03*
X17500000Y-11400000D03*
%TO.N,GPS_TX*%
X32500000Y-13900000D03*
X24400000Y-7100000D03*
%TO.N,SPI_SCK*%
X23100000Y-12000000D03*
X20000000Y-12000000D03*
%TO.N,SPI_MOSI*%
X25400000Y-7900000D03*
X20000000Y-13300000D03*
%TO.N,SPI_NSS*%
X22400000Y-17800000D03*
X23300000Y-16900000D03*
%TO.N,LR_RST*%
X29100000Y-12000000D03*
X24000000Y-11200000D03*
%TO.N,LR_BUSY*%
X32300000Y-9000000D03*
X24800000Y-6400000D03*
%TO.N,LR_DIO0*%
X32600000Y-6500000D03*
X28400000Y-10700000D03*
D16*
%TO.N,I2C_SCL*%
X23975000Y-34975000D03*
D15*
X4250000Y-16500000D03*
%TO.N,LED_DRIVE*%
X20000000Y-14400000D03*
X23100000Y-13200000D03*
%TO.N,UART0_TX*%
X23100000Y-16100000D03*
%TO.N,UART0_RX*%
X28900000Y-23400000D03*
X30200000Y-39100000D03*
%TD*%
D17*
%TO.N,+3V3*%
X22800000Y-9000000D02*
X23100000Y-9000000D01*
X20400000Y-6600000D02*
X22800000Y-9000000D01*
D18*
%TO.N,VCAP*%
X17100000Y-29000000D02*
X22400000Y-23700000D01*
X4500000Y-31500000D02*
X4500000Y-35900000D01*
X6000000Y-30000000D02*
X4500000Y-31500000D01*
%TO.N,GPS_TX*%
X24500000Y-7200000D02*
X25800000Y-7200000D01*
X25800000Y-7200000D02*
X32500000Y-13900000D01*
X24400000Y-7100000D02*
X24500000Y-7200000D01*
%TO.N,SPI_MOSI*%
X25400000Y-7900000D02*
X20000000Y-13300000D01*
%TO.N,LR_RST*%
X24800000Y-12000000D02*
X29100000Y-12000000D01*
X24000000Y-11200000D02*
X24800000Y-12000000D01*
%TO.N,LR_BUSY*%
X32300000Y-9000000D02*
X29700000Y-6400000D01*
X29700000Y-6400000D02*
X24800000Y-6400000D01*
%TO.N,LED_DRIVE*%
X22400000Y-13900000D02*
X23100000Y-13200000D01*
X20000000Y-14400000D02*
X21800000Y-14400000D01*
X21800000Y-14400000D02*
X22300000Y-13900000D01*
X22300000Y-13900000D02*
X22400000Y-13900000D01*
%TO.N,UART0_TX*%
X23400000Y-16100000D02*
X27600000Y-20300000D01*
X27600000Y-20300000D02*
X27600000Y-42000000D01*
%TD*%
M02*
