M48
; DRILL file {KiCad 9.0.8+dfsg-1} date 2026-09-29T12:58:52+0200
; FORMAT={-:-/ absolute / metric / decimal}
; #@! TF.CreationDate,2026-09-29T12:58:52+02:00
; #@! TF.GenerationSoftware,Kicad,Pcbnew,9.0.8+dfsg-1
; #@! TF.FileFunction,MixedPlating,1,4
FMAT,2
METRIC
; #@! TA.AperFunction,Plated,PTH,ViaDrill
T1C0.200
; #@! TA.AperFunction,Plated,PTH,ComponentDrill
T2C0.200
; #@! TA.AperFunction,Plated,PTH,ViaDrill
T3C0.300
; #@! TA.AperFunction,Plated,PTH,ComponentDrill
T4C1.000
%
G90
G05
T1
X22.0Y-35.0
X22.7Y-36.5
X23.975Y-34.975
T2
X12.86Y-11.65
X12.86Y-12.75
X13.41Y-11.1
X13.41Y-12.2
X13.41Y-13.3
X13.96Y-11.65
X13.96Y-12.75
X14.51Y-11.1
X14.51Y-12.2
X14.51Y-13.3
X15.06Y-11.65
X15.06Y-12.75
T3
X4.2Y-18.0
X4.25Y-16.5
X4.5Y-35.9
X8.2Y-40.2
X14.0Y-36.5
X17.1Y-29.0
X17.5Y-11.4
X17.7Y-30.0
X19.0Y-24.5
X19.0Y-25.5
X20.0Y-12.0
X20.0Y-13.3
X20.0Y-14.4
X20.4Y-6.6
X22.2Y-34.1
X22.4Y-17.8
X22.4Y-23.4
X23.1Y-9.0
X23.1Y-12.0
X23.1Y-13.2
X23.1Y-16.1
X23.3Y-16.9
X24.0Y-11.2
X24.1Y-37.0
X24.4Y-7.1
X24.8Y-6.4
X25.4Y-7.9
X25.4Y-23.2
X25.8Y-9.0
X26.3Y-39.9
X28.4Y-10.7
X28.9Y-23.4
X29.1Y-12.0
X30.2Y-39.1
X30.5Y-2.0
X30.5Y-16.0
X32.3Y-9.0
X32.5Y-13.9
X32.6Y-6.5
X34.2Y-22.6
X34.2Y-29.2
X38.8Y-36.0
X43.8Y-31.4
X45.5Y-8.0
X45.5Y-14.0
X49.5Y-22.0
X51.0Y-10.5
X51.0Y-11.5
T4
X4.0Y-42.0
X6.0Y-25.0
X6.0Y-30.0
X6.54Y-42.0
X20.0Y-42.0
X22.54Y-42.0
X25.08Y-42.0
X27.62Y-42.0
X30.16Y-42.0
X32.7Y-42.0
X40.0Y-42.0
X42.54Y-42.0
X45.08Y-42.0
X47.62Y-42.0
M30
