#VRML V2.0 utf8
# balloon-fresh -- parametric 3D model (plain-text VRML 2.0)
# generator  : scripts/gen_3d_models_wing.py  (regenerate: python3 scripts/gen_3d_models_wing.py)
# part       : FID1 / FID2 / FID3 -- 1 mm fiducial (marker, not a part)
# dims_mm    : dia 1.0 mm x 0.035 mm copper dot on the top face, centred on the footprint origin
# frame      : X = footprint-local +x, Y = -(footprint-local +y), Z = up, Z=0 at the board TOP face
# units      : 1 VRML unit = 2.54 mm (0.1 in) -- KiCad VRML convention; assign with (scale (xyz 1 1 1))
# source     : tracker/hardware/wing_board/wing_board_v9.kicad_pcb (pad "1" smd circle, size 1 x 1) and footprint name "WingV9:Fiducial_1mm_Mask2mm" (1 mm copper, 2 mm mask opening), F.Cu 0.035 mm from the stackup.
# note       : NO PART EXISTS here; the 2 mm solder-mask opening is not modelled (it is a mask aperture, not geometry)
DEF fiducial_dot Transform {
  children [
    Shape {
      appearance Appearance {
        material DEF fiducial_dot_mat Material {
          diffuseColor 0.87 0.72 0.25
          emissiveColor 0 0 0
          specularColor 0.6 0.6 0.6
          ambientIntensity 0.4
          transparency 0.0
          shininess 0.2
        }
      }
      geometry IndexedFaceSet {
        coord Coordinate { point [
          0.196850 0.000000 0.000000,
          0.196850 0.000000 0.013780,
          0.184979 0.067327 0.013780,
          0.184979 0.067327 0.000000,
          0.184979 0.067327 0.000000,
          0.184979 0.067327 0.013780,
          0.150796 0.126533 0.013780,
          0.150796 0.126533 0.000000,
          0.150796 0.126533 0.000000,
          0.150796 0.126533 0.013780,
          0.098425 0.170477 0.013780,
          0.098425 0.170477 0.000000,
          0.098425 0.170477 0.000000,
          0.098425 0.170477 0.013780,
          0.034183 0.193860 0.013780,
          0.034183 0.193860 0.000000,
          0.034183 0.193860 0.000000,
          0.034183 0.193860 0.013780,
          -0.034183 0.193860 0.013780,
          -0.034183 0.193860 0.000000,
          -0.034183 0.193860 0.000000,
          -0.034183 0.193860 0.013780,
          -0.098425 0.170477 0.013780,
          -0.098425 0.170477 0.000000,
          -0.098425 0.170477 0.000000,
          -0.098425 0.170477 0.013780,
          -0.150796 0.126533 0.013780,
          -0.150796 0.126533 0.000000,
          -0.150796 0.126533 0.000000,
          -0.150796 0.126533 0.013780,
          -0.184979 0.067327 0.013780,
          -0.184979 0.067327 0.000000,
          -0.184979 0.067327 0.000000,
          -0.184979 0.067327 0.013780,
          -0.196850 0.000000 0.013780,
          -0.196850 0.000000 0.000000,
          -0.196850 0.000000 0.000000,
          -0.196850 0.000000 0.013780,
          -0.184979 -0.067327 0.013780,
          -0.184979 -0.067327 0.000000,
          -0.184979 -0.067327 0.000000,
          -0.184979 -0.067327 0.013780,
          -0.150796 -0.126533 0.013780,
          -0.150796 -0.126533 0.000000,
          -0.150796 -0.126533 0.000000,
          -0.150796 -0.126533 0.013780,
          -0.098425 -0.170477 0.013780,
          -0.098425 -0.170477 0.000000,
          -0.098425 -0.170477 0.000000,
          -0.098425 -0.170477 0.013780,
          -0.034183 -0.193860 0.013780,
          -0.034183 -0.193860 0.000000,
          -0.034183 -0.193860 0.000000,
          -0.034183 -0.193860 0.013780,
          0.034183 -0.193860 0.013780,
          0.034183 -0.193860 0.000000,
          0.034183 -0.193860 0.000000,
          0.034183 -0.193860 0.013780,
          0.098425 -0.170477 0.013780,
          0.098425 -0.170477 0.000000,
          0.098425 -0.170477 0.000000,
          0.098425 -0.170477 0.013780,
          0.150796 -0.126533 0.013780,
          0.150796 -0.126533 0.000000,
          0.150796 -0.126533 0.000000,
          0.150796 -0.126533 0.013780,
          0.184979 -0.067327 0.013780,
          0.184979 -0.067327 0.000000,
          0.184979 -0.067327 0.000000,
          0.184979 -0.067327 0.013780,
          0.196850 -0.000000 0.013780,
          0.196850 -0.000000 0.000000,
          0.196850 0.000000 0.013780,
          0.184979 0.067327 0.013780,
          0.150796 0.126533 0.013780,
          0.098425 0.170477 0.013780,
          0.034183 0.193860 0.013780,
          -0.034183 0.193860 0.013780,
          -0.098425 0.170477 0.013780,
          -0.150796 0.126533 0.013780,
          -0.184979 0.067327 0.013780,
          -0.196850 0.000000 0.013780,
          -0.184979 -0.067327 0.013780,
          -0.150796 -0.126533 0.013780,
          -0.098425 -0.170477 0.013780,
          -0.034183 -0.193860 0.013780,
          0.034183 -0.193860 0.013780,
          0.098425 -0.170477 0.013780,
          0.150796 -0.126533 0.013780,
          0.184979 -0.067327 0.013780,
          0.196850 -0.000000 0.000000,
          0.184979 -0.067327 0.000000,
          0.150796 -0.126533 0.000000,
          0.098425 -0.170477 0.000000,
          0.034183 -0.193860 0.000000,
          -0.034183 -0.193860 0.000000,
          -0.098425 -0.170477 0.000000,
          -0.150796 -0.126533 0.000000,
          -0.184979 -0.067327 0.000000,
          -0.196850 -0.000000 0.000000,
          -0.184979 0.067327 0.000000,
          -0.150796 0.126533 0.000000,
          -0.098425 0.170477 0.000000,
          -0.034183 0.193860 0.000000,
          0.034183 0.193860 0.000000,
          0.098425 0.170477 0.000000,
          0.150796 0.126533 0.000000,
          0.184979 0.067327 0.000000
        ] }
        coordIndex [
          0, 1, 2, 3, -1,
          4, 5, 6, 7, -1,
          8, 9, 10, 11, -1,
          12, 13, 14, 15, -1,
          16, 17, 18, 19, -1,
          20, 21, 22, 23, -1,
          24, 25, 26, 27, -1,
          28, 29, 30, 31, -1,
          32, 33, 34, 35, -1,
          36, 37, 38, 39, -1,
          40, 41, 42, 43, -1,
          44, 45, 46, 47, -1,
          48, 49, 50, 51, -1,
          52, 53, 54, 55, -1,
          56, 57, 58, 59, -1,
          60, 61, 62, 63, -1,
          64, 65, 66, 67, -1,
          68, 69, 70, 71, -1,
          72, 73, 74, 75, 76, 77, 78, 79, 80, 81, 82, 83, 84, 85, 86, 87, 88, 89, -1,
          90, 91, 92, 93, 94, 95, 96, 97, 98, 99, 100, 101, 102, 103, 104, 105, 106, 107, -1,
        ]
      }
    }
  ]
}
