%TF.GenerationSoftware,KiCad,Pcbnew,9.0.8+dfsg-1*%
%TF.CreationDate,2026-08-05T20:06:01+05:30*%
%TF.ProjectId,v2_adc_fab_candidate,76325f61-6463-45f6-9661-625f63616e64,rev?*%
%TF.SameCoordinates,Original*%
%TF.FileFunction,Copper,L1,Top*%
%TF.FilePolarity,Positive*%
%FSLAX46Y46*%
G04 Gerber Fmt 4.6, Leading zero omitted, Abs format (unit mm)*
G04 Created by KiCad (PCBNEW 9.0.8+dfsg-1) date 2026-08-05 20:06:01*
%MOMM*%
%LPD*%
G01*
G04 APERTURE LIST*
%TA.AperFunction,SMDPad,CuDef*%
%ADD10R,1.200000X0.800000*%
%TD*%
%TA.AperFunction,SMDPad,CuDef*%
%ADD11R,1.500000X0.800000*%
%TD*%
%TA.AperFunction,SMDPad,CuDef*%
%ADD12R,1.000000X1.000000*%
%TD*%
%TA.AperFunction,ComponentPad*%
%ADD13R,1.000000X1.000000*%
%TD*%
%TA.AperFunction,SMDPad,CuDef*%
%ADD14R,0.600000X0.500000*%
%TD*%
%TA.AperFunction,SMDPad,CuDef*%
%ADD15R,0.800000X0.600000*%
%TD*%
%TA.AperFunction,ComponentPad*%
%ADD16R,1.600000X1.600000*%
%TD*%
%TA.AperFunction,SMDPad,CuDef*%
%ADD17R,1.000000X0.800000*%
%TD*%
%TA.AperFunction,SMDPad,CuDef*%
%ADD18R,0.700000X0.600000*%
%TD*%
%TA.AperFunction,SMDPad,CuDef*%
%ADD19R,0.600000X0.400000*%
%TD*%
%TA.AperFunction,SMDPad,CuDef*%
%ADD20R,1.000000X0.600000*%
%TD*%
%TA.AperFunction,ViaPad*%
%ADD21C,0.600000*%
%TD*%
%TA.AperFunction,Conductor*%
%ADD22C,0.799800*%
%TD*%
%TA.AperFunction,Conductor*%
%ADD23C,2.000000*%
%TD*%
%TA.AperFunction,Conductor*%
%ADD24C,0.499800*%
%TD*%
%TA.AperFunction,Conductor*%
%ADD25C,0.599800*%
%TD*%
%TA.AperFunction,Conductor*%
%ADD26C,0.399800*%
%TD*%
%TA.AperFunction,Conductor*%
%ADD27C,0.400000*%
%TD*%
%TA.AperFunction,Conductor*%
%ADD28C,0.999800*%
%TD*%
%TA.AperFunction,Conductor*%
%ADD29C,0.250000*%
%TD*%
%TA.AperFunction,Conductor*%
%ADD30C,0.760000*%
%TD*%
G04 APERTURE END LIST*
D10*
%TO.P,U2,1*%
%TO.N,3V3*%
X15100000Y-17000000D03*
%TO.P,U2,2*%
%TO.N,GND*%
X15100000Y-19000000D03*
%TO.P,U2,3*%
%TO.N,SPI_MISO*%
X15100000Y-21000000D03*
%TO.P,U2,4*%
%TO.N,SPI_MOSI*%
X15100000Y-23000000D03*
%TO.P,U2,5*%
%TO.N,SPI_SCK*%
X15100000Y-25000000D03*
%TO.P,U2,6*%
%TO.N,SPI_NSS*%
X15100000Y-27000000D03*
%TO.P,U2,7*%
%TO.N,LR2021_BUSY*%
X15100000Y-29000000D03*
%TO.P,U2,8*%
%TO.N,GND*%
X15100000Y-31000000D03*
D11*
%TO.P,U2,9*%
%TO.N,RF_SUB_868*%
X15100000Y-33000000D03*
D10*
%TO.P,U2,10*%
%TO.N,GND*%
X34900000Y-17000000D03*
%TO.P,U2,11*%
X34900000Y-19000000D03*
%TO.P,U2,13*%
%TO.N,LR2021_DIO9*%
X34900000Y-23000000D03*
%TO.P,U2,14*%
%TO.N,LR2021_RST*%
X34900000Y-25000000D03*
%TO.P,U2,16*%
%TO.N,GND*%
X34900000Y-29000000D03*
%TO.P,U2,17*%
X34900000Y-31000000D03*
D11*
%TO.P,U2,18*%
%TO.N,RF_2G4_2400*%
X34900000Y-33000000D03*
%TD*%
D12*
%TO.P,ANT2,1*%
%TO.N,RF_2G4_2400*%
X46000000Y-30000000D03*
D13*
%TO.P,ANT2,2*%
%TO.N,GND*%
X44500000Y-30000000D03*
%TO.P,ANT2,3*%
X47500000Y-30000000D03*
%TD*%
D14*
%TO.P,R_DIV2,1*%
%TO.N,VDIV_MID*%
X2500000Y-32000000D03*
%TO.P,R_DIV2,2*%
%TO.N,GND*%
X3500000Y-32000000D03*
%TD*%
D15*
%TO.P,D1,A*%
%TO.N,SOLAR_IN*%
X3000000Y-18000000D03*
%TO.P,D1,K*%
%TO.N,VCAP*%
X5000000Y-18000000D03*
%TD*%
D16*
%TO.P,SOLAR,1*%
%TO.N,SOLAR_IN*%
X1730000Y-37000000D03*
%TO.P,SOLAR,2*%
%TO.N,GND*%
X4270000Y-37000000D03*
%TD*%
D14*
%TO.P,R_PD,1*%
%TO.N,GND*%
X9500000Y-14000000D03*
%TO.P,R_PD,2*%
%TO.N,SPI_MISO*%
X10500000Y-14000000D03*
%TD*%
D17*
%TO.P,U3,1*%
%TO.N,3V3*%
X4000000Y-33000000D03*
%TO.P,U3,2*%
%TO.N,GND*%
X5300000Y-33000000D03*
%TO.P,U3,3*%
%TO.N,GPS_RX*%
X6700000Y-33000000D03*
%TD*%
D12*
%TO.P,ANT1,1*%
%TO.N,RF_SUB_868*%
X46000000Y-25000000D03*
D13*
%TO.P,ANT1,2*%
%TO.N,GND*%
X44500000Y-25000000D03*
%TO.P,ANT1,3*%
X47500000Y-25000000D03*
%TD*%
D14*
%TO.P,R_LED,1*%
%TO.N,STATUS_LED*%
X18500000Y-4000000D03*
%TO.P,R_LED,2*%
%TO.N,LED_ANODE*%
X19500000Y-4000000D03*
%TD*%
%TO.P,R_DIV1,1*%
%TO.N,3V3*%
X2500000Y-30000000D03*
%TO.P,R_DIV1,2*%
%TO.N,VDIV_MID*%
X3500000Y-30000000D03*
%TD*%
D18*
%TO.P,LED1,A*%
%TO.N,LED_ANODE*%
X15500000Y-4000000D03*
%TO.P,LED1,K*%
%TO.N,GND*%
X16500000Y-4000000D03*
%TD*%
%TO.P,C1,1*%
%TO.N,VCAP*%
X7500000Y-22000000D03*
%TO.P,C1,2*%
%TO.N,GND*%
X8500000Y-22000000D03*
%TD*%
%TO.P,C2,1*%
%TO.N,3V3*%
X6500000Y-24000000D03*
%TO.P,C2,2*%
%TO.N,GND*%
X7500000Y-24000000D03*
%TD*%
D16*
%TO.P,C_CAP,1*%
%TO.N,VCAP*%
X7500000Y-37000000D03*
%TO.P,C_CAP,2*%
%TO.N,GND*%
X12500000Y-37000000D03*
%TD*%
D17*
%TO.P,FEM,GND*%
%TO.N,GND*%
X41500000Y-25000000D03*
%TO.P,FEM,TX*%
%TO.N,FEM_TX*%
X38500000Y-25000000D03*
%TO.P,FEM,VCC*%
%TO.N,3V3*%
X40000000Y-25000000D03*
%TD*%
D19*
%TO.P,U4,1*%
%TO.N,VCAP*%
X4050000Y-21250000D03*
%TO.P,U4,2*%
%TO.N,GND*%
X5000000Y-21250000D03*
%TO.P,U4,3*%
%TO.N,VCAP*%
X5950000Y-21250000D03*
%TO.P,U4,4*%
%TO.N,3V3*%
X5950000Y-22750000D03*
%TD*%
D20*
%TO.P,U1,GND*%
%TO.N,GND*%
X15500000Y-9750000D03*
%TO.P,U1,GPIO0*%
%TO.N,VDIV_MID*%
X8500000Y-8250000D03*
%TO.P,U1,GPIO1*%
%TO.N,GPS_RX*%
X8500000Y-9750000D03*
%TO.P,U1,GPIO2*%
%TO.N,SPI_MISO*%
X8500000Y-11250000D03*
%TO.P,U1,GPIO3*%
%TO.N,LR2021_RST*%
X8500000Y-12750000D03*
%TO.P,U1,GPIO4*%
%TO.N,LR2021_BUSY*%
X8500000Y-14250000D03*
%TO.P,U1,GPIO5*%
%TO.N,LR2021_DIO9*%
X8500000Y-15750000D03*
%TO.P,U1,GPIO6*%
%TO.N,SPI_SCK*%
X10500000Y-15500000D03*
%TO.P,U1,GPIO7*%
%TO.N,SPI_MOSI*%
X12000000Y-15500000D03*
%TO.P,U1,GPIO9*%
%TO.N,STATUS_LED*%
X15000000Y-15500000D03*
%TO.P,U1,GPIO10*%
%TO.N,SPI_NSS*%
X16500000Y-15500000D03*
%TO.P,U1,GPIO19*%
%TO.N,FEM_TX*%
X15500000Y-12750000D03*
%TO.P,U1,VCC*%
%TO.N,3V3*%
X15500000Y-8250000D03*
%TD*%
D21*
%TO.N,3V3*%
X13188500Y-17837700D03*
X12898300Y-28072600D03*
%TO.N,GND*%
X3500000Y-32000000D03*
X15500000Y-9750000D03*
X16500000Y-4000000D03*
X9437600Y-23162100D03*
X5000000Y-21250000D03*
X9500000Y-14000000D03*
%TO.N,SPI_MISO*%
X9586300Y-11250000D03*
X18822300Y-21000000D03*
X11402100Y-13375100D03*
%TO.N,SPI_NSS*%
X17694000Y-15000100D03*
X17700000Y-27000000D03*
%TO.N,LR2021_RST*%
X31200000Y-24600200D03*
X31200000Y-2485900D03*
%TO.N,FEM_TX*%
X37443300Y-25000000D03*
X37443300Y-12750000D03*
%TD*%
D22*
%TO.N,3V3*%
X13298100Y-17837700D02*
X14262300Y-17837700D01*
D23*
X13188500Y-17837700D02*
X13298100Y-17837700D01*
D22*
X14262300Y-17837700D02*
X15100000Y-17000000D01*
D24*
X2500000Y-28548100D02*
X2500000Y-30000000D01*
D23*
X5950000Y-23100000D02*
X5950000Y-23200500D01*
D25*
X5825100Y-24674900D02*
X6500000Y-24000000D01*
D23*
X5825100Y-24674900D02*
X5735800Y-24764200D01*
X5735800Y-25312200D02*
X5735900Y-25312200D01*
D26*
X6500000Y-24000000D02*
X5950000Y-23450000D01*
X5950000Y-23100000D02*
X5950000Y-22750000D01*
D27*
X15500000Y-8250000D02*
X4000000Y-33000000D01*
D23*
X5735900Y-25312200D02*
X8496200Y-28072600D01*
X2500000Y-28548100D02*
X5735900Y-25312200D01*
D27*
X4000000Y-33000000D02*
X40000000Y-25000000D01*
D23*
X5735800Y-24764200D02*
X5735800Y-25312200D01*
X8496200Y-28072600D02*
X12898300Y-28072600D01*
D26*
X5950000Y-23450000D02*
X5950000Y-23200500D01*
D23*
%TO.N,GND*%
X34900000Y-19000000D02*
X37500000Y-19000000D01*
X34900000Y-17000000D02*
X34900000Y-19000000D01*
D22*
X41700200Y-23398100D02*
X41700200Y-24799800D01*
D23*
X9475100Y-22374600D02*
X9475100Y-23124600D01*
D25*
X7548300Y-24000000D02*
X7500000Y-24000000D01*
D22*
X5350000Y-33050000D02*
X5300000Y-33000000D01*
X34500200Y-31399800D02*
X34900000Y-31000000D01*
D28*
X42500100Y-25000000D02*
X41500000Y-25000000D01*
D23*
X34900000Y-29000000D02*
X34900000Y-31000000D01*
X17053700Y-31399800D02*
X17053700Y-35246300D01*
X21024000Y-31399800D02*
X21024000Y-18600200D01*
D25*
X8074000Y-24525700D02*
X7548300Y-24000000D01*
D23*
X17053700Y-35246300D02*
X15300000Y-37000000D01*
X16653900Y-31000000D02*
X15100000Y-31000000D01*
X17053700Y-31399800D02*
X16653900Y-31000000D01*
X17053700Y-31399800D02*
X21024000Y-31399800D01*
D25*
X9100500Y-22000000D02*
X8500000Y-22000000D01*
D23*
X5350000Y-35920000D02*
X4270000Y-37000000D01*
X21024000Y-31399800D02*
X32948100Y-31399800D01*
D25*
X9475100Y-22374600D02*
X9100500Y-22000000D01*
D23*
X12500000Y-37000000D02*
X15300000Y-37000000D01*
D28*
X44500000Y-25000000D02*
X42500100Y-25000000D01*
D22*
X5350000Y-34601900D02*
X5350000Y-33050000D01*
D23*
X9437600Y-23162100D02*
X8074000Y-24525700D01*
X9475100Y-23124600D02*
X9437600Y-23162100D01*
D22*
X41700200Y-24799800D02*
X41500000Y-25000000D01*
X32948100Y-31399800D02*
X34500200Y-31399800D01*
X16901900Y-18600200D02*
X15499800Y-18600200D01*
D23*
X34900000Y-17000000D02*
X32300000Y-17000000D01*
X5350000Y-34601900D02*
X5350000Y-35920000D01*
X21024000Y-18600200D02*
X16901900Y-18600200D01*
X37500000Y-19000000D02*
X37500000Y-19197900D01*
D22*
X15499800Y-18600200D02*
X15100000Y-19000000D01*
D23*
X32300000Y-17000000D02*
X30699800Y-18600200D01*
X30699800Y-18600200D02*
X21024000Y-18600200D01*
X37500000Y-19197900D02*
X41700200Y-23398100D01*
D25*
%TO.N,SPI_SCK*%
X10500000Y-17001900D02*
X10500000Y-15500000D01*
D23*
X11710200Y-22873100D02*
X11710200Y-19632100D01*
D22*
X13738100Y-24901000D02*
X15001000Y-24901000D01*
D23*
X13738100Y-24901000D02*
X11710200Y-22873100D01*
D22*
X15001000Y-24901000D02*
X15100000Y-25000000D01*
D23*
X10500000Y-18421900D02*
X10500000Y-17001900D01*
X11710200Y-19632100D02*
X10500000Y-18421900D01*
D29*
%TO.N,SPI_MOSI*%
X12000000Y-15500000D02*
X15100000Y-23000000D01*
D24*
%TO.N,SPI_MISO*%
X11124900Y-13375100D02*
X10500000Y-14000000D01*
D23*
X15100000Y-21000000D02*
X17700000Y-21000000D01*
D25*
X8500000Y-11250000D02*
X9586300Y-11250000D01*
D23*
X11124900Y-13375100D02*
X11402100Y-13375100D01*
X17700000Y-21000000D02*
X18822300Y-21000000D01*
%TO.N,SPI_NSS*%
X15100000Y-27000000D02*
X17700000Y-27000000D01*
D25*
X16999900Y-15000100D02*
X16500000Y-15500000D01*
D23*
X16999900Y-15000100D02*
X17694000Y-15000100D01*
D29*
%TO.N,LR2021_BUSY*%
X8500000Y-14250000D02*
X15100000Y-29000000D01*
D22*
%TO.N,LR2021_RST*%
X34500200Y-24600200D02*
X34900000Y-25000000D01*
D23*
X11753800Y-2485900D02*
X31200000Y-2485900D01*
X31200000Y-24600200D02*
X33098100Y-24600200D01*
X6715400Y-7524300D02*
X11753800Y-2485900D01*
X6715400Y-12665600D02*
X6715400Y-7524300D01*
D25*
X6799800Y-12750000D02*
X8500000Y-12750000D01*
D23*
X6799800Y-12750000D02*
X6715400Y-12665600D01*
D22*
X33098100Y-24600200D02*
X34500200Y-24600200D01*
D29*
%TO.N,LR2021_DIO9*%
X8500000Y-15750000D02*
X34900000Y-23000000D01*
%TO.N,GPS_RX*%
X8500000Y-9750000D02*
X6700000Y-33000000D01*
%TO.N,STATUS_LED*%
X15000000Y-15500000D02*
X18500000Y-4000000D01*
D23*
%TO.N,LED_ANODE*%
X15027900Y-5578300D02*
X19873800Y-5578300D01*
X14949800Y-5500200D02*
X15027900Y-5578300D01*
D24*
X20000200Y-4500200D02*
X19500000Y-4000000D01*
D25*
X14949800Y-5500200D02*
X14949800Y-4550200D01*
X14949800Y-4550200D02*
X15500000Y-4000000D01*
D24*
X20000200Y-5451900D02*
X20000200Y-4500200D01*
D23*
X19873800Y-5578300D02*
X20000200Y-5451900D01*
D25*
%TO.N,VCAP*%
X6949800Y-21250000D02*
X6949800Y-21449800D01*
D26*
X7449900Y-20797800D02*
X7449900Y-21250000D01*
D23*
X5000000Y-18000000D02*
X5000000Y-18347900D01*
D25*
X6949800Y-21449800D02*
X7500000Y-22000000D01*
D26*
X6949800Y-21250000D02*
X7449900Y-21250000D01*
D27*
X4050000Y-21250000D02*
X7500000Y-37000000D01*
D23*
X5000000Y-18347900D02*
X6500200Y-19848100D01*
D26*
X6500200Y-19848100D02*
X7449900Y-20797800D01*
X5950000Y-21250000D02*
X6949800Y-21250000D01*
D27*
%TO.N,SOLAR_IN*%
X3000000Y-18000000D02*
X1730000Y-37000000D01*
D23*
%TO.N,FEM_TX*%
X15500000Y-12750000D02*
X37443300Y-12750000D01*
D22*
X38298100Y-25000000D02*
X38500000Y-25000000D01*
D23*
X37443300Y-25000000D02*
X38298100Y-25000000D01*
D30*
%TO.N,RF_SUB_868*%
X15100000Y-33000000D02*
X46000000Y-25000000D01*
%TO.N,RF_2G4_2400*%
X34900000Y-33000000D02*
X46000000Y-30000000D01*
D29*
%TO.N,VDIV_MID*%
X3500000Y-30000000D02*
X8500000Y-8250000D01*
X2500000Y-32000000D02*
X3500000Y-30000000D01*
%TD*%
M02*
