%TF.GenerationSoftware,KiCad,Pcbnew,9.0.8+dfsg-1*%
%TF.CreationDate,2026-08-05T23:36:53+05:30*%
%TF.ProjectId,v_c3_4layer,765f6333-5f34-46c6-9179-65722e6b6963,rev?*%
%TF.SameCoordinates,Original*%
%TF.FileFunction,Soldermask,Bot*%
%TF.FilePolarity,Negative*%
%FSLAX46Y46*%
G04 Gerber Fmt 4.6, Leading zero omitted, Abs format (unit mm)*
G04 Created by KiCad (PCBNEW 9.0.8+dfsg-1) date 2026-08-05 23:36:53*
%MOMM*%
%LPD*%
G01*
G04 APERTURE LIST*
G04 APERTURE END LIST*
G36*
X2300000Y-28800000D02*
G01*
X700000Y-28800000D01*
X700000Y-27200000D01*
X2300000Y-27200000D01*
X2300000Y-28800000D01*
G37*
G36*
X7300000Y-28800000D02*
G01*
X5700000Y-28800000D01*
X5700000Y-27200000D01*
X7300000Y-27200000D01*
X7300000Y-28800000D01*
G37*
G36*
X9800000Y-28800000D02*
G01*
X8200000Y-28800000D01*
X8200000Y-27200000D01*
X9800000Y-27200000D01*
X9800000Y-28800000D01*
G37*
G36*
X11800000Y-28800000D02*
G01*
X10200000Y-28800000D01*
X10200000Y-27200000D01*
X11800000Y-27200000D01*
X11800000Y-28800000D01*
G37*
G36*
X31000000Y-26500000D02*
G01*
X30000000Y-26500000D01*
X30000000Y-25500000D01*
X31000000Y-25500000D01*
X31000000Y-26500000D01*
G37*
G36*
X34000000Y-26500000D02*
G01*
X33000000Y-26500000D01*
X33000000Y-25500000D01*
X34000000Y-25500000D01*
X34000000Y-26500000D01*
G37*
G36*
X12000000Y-4500000D02*
G01*
X11000000Y-4500000D01*
X11000000Y-3500000D01*
X12000000Y-3500000D01*
X12000000Y-4500000D01*
G37*
G36*
X15000000Y-4500000D02*
G01*
X14000000Y-4500000D01*
X14000000Y-3500000D01*
X15000000Y-3500000D01*
X15000000Y-4500000D01*
G37*
M02*
