%TF.GenerationSoftware,KiCad,Pcbnew,9.0.8+dfsg-1*%
%TF.CreationDate,2026-08-05T23:36:53+05:30*%
%TF.ProjectId,v_c3_4layer,765f6333-5f34-46c6-9179-65722e6b6963,rev?*%
%TF.SameCoordinates,Original*%
%TF.FileFunction,Copper,L1,Top*%
%TF.FilePolarity,Positive*%
%FSLAX46Y46*%
G04 Gerber Fmt 4.6, Leading zero omitted, Abs format (unit mm)*
G04 Created by KiCad (PCBNEW 9.0.8+dfsg-1) date 2026-08-05 23:36:53*
%MOMM*%
%LPD*%
G01*
G04 APERTURE LIST*
%TA.AperFunction,SMDPad,CuDef*%
%ADD10R,0.600000X0.500000*%
%TD*%
%TA.AperFunction,ComponentPad*%
%ADD11R,1.600000X1.600000*%
%TD*%
%TA.AperFunction,SMDPad,CuDef*%
%ADD12R,0.900000X0.600000*%
%TD*%
%TA.AperFunction,SMDPad,CuDef*%
%ADD13R,1.000000X0.700000*%
%TD*%
%TA.AperFunction,SMDPad,CuDef*%
%ADD14R,1.000000X0.800000*%
%TD*%
%TA.AperFunction,SMDPad,CuDef*%
%ADD15R,0.600000X0.400000*%
%TD*%
%TA.AperFunction,SMDPad,CuDef*%
%ADD16R,0.700000X0.600000*%
%TD*%
%TA.AperFunction,SMDPad,CuDef*%
%ADD17R,1.200000X0.800000*%
%TD*%
%TA.AperFunction,SMDPad,CuDef*%
%ADD18R,1.500000X0.800000*%
%TD*%
%TA.AperFunction,SMDPad,CuDef*%
%ADD19R,0.800000X0.600000*%
%TD*%
%TA.AperFunction,SMDPad,CuDef*%
%ADD20R,1.000000X1.000000*%
%TD*%
%TA.AperFunction,ComponentPad*%
%ADD21R,1.000000X1.000000*%
%TD*%
%TA.AperFunction,Conductor*%
%ADD22C,0.499800*%
%TD*%
%TA.AperFunction,Conductor*%
%ADD23C,2.000000*%
%TD*%
%TA.AperFunction,Conductor*%
%ADD24C,0.799800*%
%TD*%
%TA.AperFunction,Conductor*%
%ADD25C,0.599800*%
%TD*%
%TA.AperFunction,Conductor*%
%ADD26C,0.760000*%
%TD*%
G04 APERTURE END LIST*
D10*
%TO.P,R_PD,1*%
%TO.N,GND*%
X10500000Y-11000000D03*
%TO.P,R_PD,2*%
%TO.N,SPI_MISO*%
X11500000Y-11000000D03*
%TD*%
D11*
%TO.P,C_CAP,1*%
%TO.N,VCAP*%
X1500000Y-28000000D03*
%TO.P,C_CAP,2*%
%TO.N,GND*%
X6500000Y-28000000D03*
%TD*%
D12*
%TO.P,U1,GND*%
%TO.N,GND*%
X8250000Y-12000000D03*
%TO.P,U1,GPIO0*%
%TO.N,GPS_TX*%
X2500000Y-12000000D03*
%TO.P,U1,GPIO1*%
%TO.N,GPS_RX*%
X2500000Y-13200000D03*
%TO.P,U1,GPIO2*%
%TO.N,SPI_MISO*%
X2500000Y-14400000D03*
%TO.P,U1,GPIO3*%
%TO.N,LR2021_RST*%
X2500000Y-15600000D03*
%TO.P,U1,GPIO4*%
%TO.N,LR2021_BUSY*%
X2500000Y-16800000D03*
%TO.P,U1,GPIO5*%
%TO.N,LR2021_DIO9*%
X2500000Y-18000000D03*
%TO.P,U1,GPIO6*%
%TO.N,SPI_SCK*%
X5250000Y-18000000D03*
%TO.P,U1,GPIO7*%
%TO.N,SPI_MOSI*%
X6750000Y-18000000D03*
%TO.P,U1,GPIO8*%
%TO.N,FEM_RX*%
X9500000Y-12000000D03*
%TO.P,U1,GPIO9*%
%TO.N,STATUS_LED*%
X9500000Y-13500000D03*
%TO.P,U1,GPIO10*%
%TO.N,SPI_NSS*%
X9500000Y-15000000D03*
%TO.P,U1,GPIO18*%
%TO.N,LED*%
X9500000Y-16500000D03*
%TO.P,U1,GPIO19*%
%TO.N,FEM_TX*%
X9500000Y-18000000D03*
%TO.P,U1,GPIO20*%
%TO.N,UART0_RX*%
X3750000Y-12000000D03*
%TO.P,U1,GPIO21*%
%TO.N,UART0_TX*%
X5250000Y-12000000D03*
%TO.P,U1,VCC*%
%TO.N,3V3*%
X6750000Y-12000000D03*
%TD*%
D13*
%TO.P,FEM,GND*%
%TO.N,GND*%
X28000000Y-5000000D03*
%TO.P,FEM,RX*%
%TO.N,FEM_RX*%
X29500000Y-4000000D03*
%TO.P,FEM,TX*%
%TO.N,FEM_TX*%
X26500000Y-4000000D03*
%TO.P,FEM,VCC*%
%TO.N,3V3*%
X28000000Y-3000000D03*
%TD*%
D10*
%TO.P,R_DIV2,1*%
%TO.N,VDIV_MID*%
X10500000Y-22000000D03*
%TO.P,R_DIV2,2*%
%TO.N,GND*%
X11500000Y-22000000D03*
%TD*%
D14*
%TO.P,U3,1*%
%TO.N,3V3*%
X4000000Y-5000000D03*
%TO.P,U3,2*%
%TO.N,GND*%
X5300000Y-5000000D03*
%TO.P,U3,3*%
%TO.N,GPS_RX*%
X6700000Y-5000000D03*
%TO.P,U3,4*%
%TO.N,GPS_TX*%
X8000000Y-5000000D03*
%TD*%
D10*
%TO.P,R_LED,1*%
%TO.N,LED*%
X19500000Y-4000000D03*
%TO.P,R_LED,2*%
%TO.N,LED_ANODE*%
X20500000Y-4000000D03*
%TD*%
D15*
%TO.P,U4,1*%
%TO.N,VCAP*%
X3050000Y-24250000D03*
%TO.P,U4,2*%
%TO.N,GND*%
X4000000Y-24250000D03*
%TO.P,U4,3*%
%TO.N,VCAP*%
X4950000Y-24250000D03*
%TO.P,U4,4*%
%TO.N,3V3*%
X4950000Y-25750000D03*
%TD*%
D16*
%TO.P,C1,1*%
%TO.N,VCAP*%
X3500000Y-22000000D03*
%TO.P,C1,2*%
%TO.N,GND*%
X4500000Y-22000000D03*
%TD*%
%TO.P,C2,1*%
%TO.N,3V3*%
X7000000Y-22000000D03*
%TO.P,C2,2*%
%TO.N,GND*%
X8000000Y-22000000D03*
%TD*%
D17*
%TO.P,U2,1*%
%TO.N,3V3*%
X13100000Y-7000000D03*
%TO.P,U2,2*%
%TO.N,GND*%
X13100000Y-9000000D03*
%TO.P,U2,3*%
%TO.N,SPI_MISO*%
X13100000Y-11000000D03*
%TO.P,U2,4*%
%TO.N,SPI_MOSI*%
X13100000Y-13000000D03*
%TO.P,U2,5*%
%TO.N,SPI_SCK*%
X13100000Y-15000000D03*
%TO.P,U2,6*%
%TO.N,SPI_NSS*%
X13100000Y-17000000D03*
%TO.P,U2,7*%
%TO.N,LR2021_BUSY*%
X13100000Y-19000000D03*
%TO.P,U2,8*%
%TO.N,GND*%
X13100000Y-21000000D03*
D18*
%TO.P,U2,9*%
%TO.N,RF_SUB_868*%
X13100000Y-23000000D03*
D17*
%TO.P,U2,10*%
%TO.N,GND*%
X32900000Y-7000000D03*
%TO.P,U2,11*%
X32900000Y-9000000D03*
%TO.P,U2,13*%
%TO.N,LR2021_DIO9*%
X32900000Y-13000000D03*
%TO.P,U2,14*%
%TO.N,LR2021_RST*%
X32900000Y-15000000D03*
%TO.P,U2,16*%
%TO.N,GND*%
X32900000Y-19000000D03*
%TO.P,U2,17*%
X32900000Y-21000000D03*
D18*
%TO.P,U2,18*%
%TO.N,RF_2G4_2400*%
X32900000Y-23000000D03*
%TD*%
D11*
%TO.P,SOLAR,1*%
%TO.N,SOLAR_IN*%
X9000000Y-28000000D03*
%TO.P,SOLAR,2*%
%TO.N,GND*%
X11000000Y-28000000D03*
%TD*%
D19*
%TO.P,D1,A*%
%TO.N,SOLAR_IN*%
X6500000Y-25000000D03*
%TO.P,D1,K*%
%TO.N,VCAP*%
X8500000Y-25000000D03*
%TD*%
D20*
%TO.P,ANT1,1*%
%TO.N,RF_SUB_868*%
X13000000Y-4000000D03*
D21*
%TO.P,ANT1,2*%
%TO.N,GND*%
X11500000Y-4000000D03*
%TO.P,ANT1,3*%
X14500000Y-4000000D03*
%TD*%
D20*
%TO.P,ANT2,1*%
%TO.N,RF_2G4_2400*%
X32000000Y-26000000D03*
D21*
%TO.P,ANT2,2*%
%TO.N,GND*%
X30500000Y-26000000D03*
%TO.P,ANT2,3*%
X33500000Y-26000000D03*
%TD*%
D16*
%TO.P,LED1,A*%
%TO.N,LED_ANODE*%
X17500000Y-4000000D03*
%TO.P,LED1,K*%
%TO.N,GND*%
X18500000Y-4000000D03*
%TD*%
D10*
%TO.P,R_DIV1,1*%
%TO.N,3V3*%
X10500000Y-25000000D03*
%TO.P,R_DIV1,2*%
%TO.N,VDIV_MID*%
X11500000Y-25000000D03*
%TD*%
D22*
%TO.N,VDIV_MID*%
X10155700Y-21655700D02*
X10155700Y-21204600D01*
X12001900Y-25105700D02*
X11605700Y-25105700D01*
D23*
X12001900Y-25105700D02*
X13918700Y-25105700D01*
D22*
X11605700Y-25105700D02*
X11500000Y-25000000D01*
X10500000Y-22000000D02*
X10155700Y-21655700D01*
D24*
%TO.N,SPI_MISO*%
X11500000Y-11000000D02*
X13100000Y-11000000D01*
D23*
%TO.N,LR2021_RST*%
X32900000Y-15000000D02*
X29743600Y-18156400D01*
X7248000Y-15600000D02*
X7802200Y-15045800D01*
X29743600Y-18156400D02*
X18988700Y-18156400D01*
D25*
X4151900Y-15600000D02*
X2500000Y-15600000D01*
D23*
X4151900Y-15600000D02*
X7248000Y-15600000D01*
%TO.N,LR2021_DIO9*%
X31098100Y-13399800D02*
X19247100Y-13399800D01*
X2405000Y-18301900D02*
X2960600Y-18857500D01*
X19247100Y-13399800D02*
X14901700Y-17745200D01*
D24*
X31497900Y-13000000D02*
X31098100Y-13399800D01*
D25*
X2405000Y-18301900D02*
X2405000Y-18095000D01*
D23*
X2960600Y-18857500D02*
X3517300Y-18857500D01*
D24*
X32900000Y-13000000D02*
X31497900Y-13000000D01*
D25*
X2405000Y-18095000D02*
X2500000Y-18000000D01*
D23*
%TO.N,GPS_TX*%
X2099800Y-10499800D02*
X5997700Y-6601900D01*
X5997700Y-6601900D02*
X8000000Y-6601900D01*
D25*
X2099800Y-11599800D02*
X2500000Y-12000000D01*
X2099800Y-10499800D02*
X2099800Y-11599800D01*
D24*
X8000000Y-6601900D02*
X8000000Y-5000000D01*
D23*
%TO.N,LED_ANODE*%
X17030400Y-2419200D02*
X20871300Y-2419200D01*
D22*
X21000200Y-3499800D02*
X20500000Y-4000000D01*
X21000200Y-2548100D02*
X21000200Y-3499800D01*
D23*
X20871300Y-2419200D02*
X21000200Y-2548100D01*
D25*
X16949800Y-2499800D02*
X16949800Y-3449800D01*
D23*
X16949800Y-2499800D02*
X17030400Y-2419200D01*
D25*
X16949800Y-3449800D02*
X17500000Y-4000000D01*
D26*
%TO.N,RF_SUB_868*%
X13000000Y-2299800D02*
X13000000Y-4000000D01*
X14901900Y-22478900D02*
X13621100Y-22478900D01*
X13621100Y-22478900D02*
X13100000Y-23000000D01*
X13972300Y-1327500D02*
X14609900Y-1327500D01*
X13000000Y-2299800D02*
X13972300Y-1327500D01*
X14901900Y-22478900D02*
X21223600Y-22478900D01*
%TO.N,RF_2G4_2400*%
X32000000Y-26000000D02*
X32000000Y-23900000D01*
X32900000Y-23000000D02*
X32000000Y-23900000D01*
%TD*%
M02*
