%TF.GenerationSoftware,KiCad,Pcbnew,9.0.8+dfsg-1*%
%TF.CreationDate,2026-08-05T23:58:11+05:30*%
%TF.ProjectId,v_c3_4layer,765f6333-5f34-46c6-9179-65722e6b6963,rev?*%
%TF.SameCoordinates,Original*%
%TF.FileFunction,Copper,L4,Bot*%
%TF.FilePolarity,Positive*%
%FSLAX46Y46*%
G04 Gerber Fmt 4.6, Leading zero omitted, Abs format (unit mm)*
G04 Created by KiCad (PCBNEW 9.0.8+dfsg-1) date 2026-08-05 23:58:11*
%MOMM*%
%LPD*%
G01*
G04 APERTURE LIST*
%TA.AperFunction,ViaPad*%
%ADD10C,0.600000*%
%TD*%
%TA.AperFunction,ViaPad*%
%ADD11C,0.760000*%
%TD*%
%TA.AperFunction,Conductor*%
%ADD12C,2.000000*%
%TD*%
%TA.AperFunction,Conductor*%
%ADD13C,0.760000*%
%TD*%
G04 APERTURE END LIST*
D10*
%TO.N,3V3*%
X28000000Y-3000000D03*
X10500000Y-25000000D03*
X7000000Y-22000000D03*
X4950000Y-25750000D03*
X13100000Y-7000000D03*
X6750000Y-12000000D03*
X4000000Y-5000000D03*
%TO.N,GND*%
X6500000Y-28000000D03*
X30200000Y-26000000D03*
X32900000Y-21000000D03*
X10500000Y-11000000D03*
X28000000Y-5000000D03*
X13100000Y-21000000D03*
X11000000Y-28000000D03*
X32900000Y-7000000D03*
X32900000Y-9000000D03*
X4000000Y-24250000D03*
X32900000Y-19000000D03*
X13100000Y-9000000D03*
X8250000Y-12000000D03*
X11200000Y-4000000D03*
X14800000Y-4000000D03*
X33800000Y-26000000D03*
X4500000Y-22000000D03*
X5300000Y-5000000D03*
X11500000Y-22000000D03*
X8000000Y-22000000D03*
X18500000Y-4000000D03*
%TO.N,VDIV_MID*%
X15301700Y-17745200D03*
X9999800Y-20672700D03*
D11*
%TO.N,RF_SUB_868*%
X20497800Y-23236200D03*
X14811000Y-1500000D03*
%TD*%
D12*
%TO.N,VDIV_MID*%
X12927300Y-17745200D02*
X9999800Y-20672700D01*
X15301700Y-17745200D02*
X12927300Y-17745200D01*
D13*
%TO.N,RF_SUB_868*%
X14811000Y-1500000D02*
X18172000Y-1500000D01*
X18172000Y-1500000D02*
X20497800Y-3825800D01*
X20497800Y-3825800D02*
X20497800Y-23236200D01*
%TD*%
M02*
