M48
; DRILL file {KiCad 9.0.8+dfsg-1} date 2026-08-06T00:08:07+0530
; FORMAT={-:-/ absolute / metric / decimal}
; #@! TF.CreationDate,2026-08-06T00:08:07+05:30
; #@! TF.GenerationSoftware,Kicad,Pcbnew,9.0.8+dfsg-1
; #@! TF.FileFunction,MixedPlating,1,4
FMAT,2
METRIC
; #@! TA.AperFunction,Plated,PTH,ViaDrill
T1C0.300
%
G90
G05
T1
X1.5Y-28.0
X2.5Y-13.2
X2.5Y-14.4
X2.5Y-15.6
X2.5Y-16.8
X2.5Y-18.0
X3.05Y-24.25
X3.05Y-24.25
X3.5Y-22.0
X4.0Y-5.0
X4.0Y-24.25
X4.5Y-22.0
X4.95Y-24.25
X4.95Y-25.75
X5.25Y-18.0
X5.3Y-5.0
X6.5Y-25.0
X6.5Y-28.0
X6.7Y-5.0
X6.75Y-12.0
X6.75Y-18.0
X7.0Y-22.0
X8.0Y-22.0
X8.25Y-12.0
X8.5Y-25.0
X9.0Y-28.0
X9.5Y-12.0
X9.5Y-16.5
X9.5Y-18.0
X10.0Y-20.673
X10.5Y-11.0
X10.5Y-25.0
X11.0Y-28.0
X11.2Y-4.0
X11.5Y-11.0
X11.5Y-22.0
X13.1Y-7.0
X13.1Y-9.0
X13.1Y-11.0
X13.1Y-13.0
X13.1Y-15.0
X13.1Y-19.0
X13.1Y-21.0
X14.637Y-25.106
X14.8Y-4.0
X18.5Y-4.0
X19.5Y-4.0
X26.5Y-4.0
X28.0Y-3.0
X28.0Y-5.0
X29.5Y-4.0
X30.2Y-26.0
X32.9Y-7.0
X32.9Y-9.0
X32.9Y-13.0
X32.9Y-15.0
X32.9Y-19.0
X32.9Y-21.0
X33.8Y-26.0
M30
