M48
; DRILL file {KiCad 9.0.8+dfsg-1} date 2026-08-06T00:05:19+0530
; FORMAT={-:-/ absolute / metric / decimal}
; #@! TF.CreationDate,2026-08-06T00:05:19+05:30
; #@! TF.GenerationSoftware,Kicad,Pcbnew,9.0.8+dfsg-1
; #@! TF.FileFunction,MixedPlating,1,4
FMAT,2
METRIC
; #@! TA.AperFunction,Plated,PTH,ViaDrill
T1C0.300
%
G90
G05
T1
X2.5Y-14.4
X2.5Y-15.6
X2.5Y-18.0
X3.512Y-18.5
X4.0Y-5.0
X4.0Y-24.25
X4.5Y-22.0
X4.95Y-25.75
X5.3Y-5.0
X6.5Y-28.0
X6.75Y-12.0
X7.0Y-22.0
X7.848Y-15.0
X8.0Y-22.0
X8.25Y-12.0
X10.5Y-11.0
X10.5Y-25.0
X11.0Y-28.0
X11.2Y-4.0
X11.298Y-19.469
X11.5Y-11.0
X11.5Y-22.0
X13.1Y-7.0
X13.1Y-9.0
X13.1Y-11.0
X13.1Y-21.0
X14.8Y-4.0
X14.925Y-15.046
X18.5Y-4.0
X20.379Y-12.3
X25.567Y-4.733
X28.0Y-3.0
X28.0Y-5.0
X29.502Y-1.327
X29.502Y-23.236
X30.2Y-26.0
X32.9Y-7.0
X32.9Y-9.0
X32.9Y-13.0
X32.9Y-15.0
X32.9Y-19.0
X32.9Y-21.0
X33.8Y-26.0
M30
