%TF.GenerationSoftware,KiCad,Pcbnew,9.0.8+dfsg-1*%
%TF.CreationDate,2026-08-06T00:05:19+05:30*%
%TF.ProjectId,v_c3_4layer,765f6333-5f34-46c6-9179-65722e6b6963,rev?*%
%TF.SameCoordinates,Original*%
%TF.FileFunction,Copper,L4,Bot*%
%TF.FilePolarity,Positive*%
%FSLAX46Y46*%
G04 Gerber Fmt 4.6, Leading zero omitted, Abs format (unit mm)*
G04 Created by KiCad (PCBNEW 9.0.8+dfsg-1) date 2026-08-06 00:05:19*
%MOMM*%
%LPD*%
G01*
G04 APERTURE LIST*
%TA.AperFunction,ViaPad*%
%ADD10C,0.600000*%
%TD*%
%TA.AperFunction,ViaPad*%
%ADD11C,0.760000*%
%TD*%
%TA.AperFunction,Conductor*%
%ADD12C,0.250000*%
%TD*%
%TA.AperFunction,Conductor*%
%ADD13C,2.000000*%
%TD*%
%TA.AperFunction,Conductor*%
%ADD14C,0.760000*%
%TD*%
G04 APERTURE END LIST*
D10*
%TO.N,3V3*%
X4000000Y-5000000D03*
X28000000Y-3000000D03*
X7000000Y-22000000D03*
X13100000Y-7000000D03*
X10500000Y-25000000D03*
X6750000Y-12000000D03*
X4950000Y-25750000D03*
%TO.N,GND*%
X32900000Y-7000000D03*
X13100000Y-9000000D03*
X4000000Y-24250000D03*
X8000000Y-22000000D03*
X11500000Y-22000000D03*
X32900000Y-9000000D03*
X28000000Y-5000000D03*
X32900000Y-19000000D03*
X6500000Y-28000000D03*
X30200000Y-26000000D03*
X4500000Y-22000000D03*
X14800000Y-4000000D03*
X5300000Y-5000000D03*
X33800000Y-26000000D03*
X11000000Y-28000000D03*
X10500000Y-11000000D03*
X32900000Y-21000000D03*
X18500000Y-4000000D03*
X8250000Y-12000000D03*
X13100000Y-21000000D03*
X11200000Y-4000000D03*
%TO.N,SPI_MISO*%
X11500000Y-11000000D03*
X2500000Y-14400000D03*
X13100000Y-11000000D03*
%TO.N,LR2021_RST*%
X14924900Y-15045900D03*
X2500000Y-15600000D03*
X32900000Y-15000000D03*
X7848300Y-14999700D03*
%TO.N,LR2021_DIO9*%
X20379200Y-12300500D03*
X2500000Y-18000000D03*
X3512400Y-18500000D03*
X32900000Y-13000000D03*
%TO.N,FEM_TX*%
X11298300Y-19469100D03*
X25567000Y-4733000D03*
D11*
%TO.N,RF_SUB_868*%
X29501700Y-1327500D03*
X29501700Y-23236200D03*
%TD*%
D12*
%TO.N,SPI_MISO*%
X11500000Y-11000000D02*
X13100000Y-11000000D01*
X2500000Y-14400000D02*
X11500000Y-11000000D01*
D13*
%TO.N,LR2021_RST*%
X7848300Y-14999700D02*
X14878700Y-14999700D01*
D12*
X2500000Y-15600000D02*
X32900000Y-15000000D01*
D13*
X14878700Y-14999700D02*
X14924900Y-15045900D01*
%TO.N,LR2021_DIO9*%
X20379200Y-12722200D02*
X15834100Y-17267300D01*
X4745100Y-17267300D02*
X3512400Y-18500000D01*
X20379200Y-12300500D02*
X20379200Y-12722200D01*
X15834100Y-17267300D02*
X4745100Y-17267300D01*
D12*
X2500000Y-18000000D02*
X32900000Y-13000000D01*
D13*
%TO.N,FEM_TX*%
X11298300Y-19469100D02*
X16746400Y-19469100D01*
X25567000Y-10648500D02*
X25567000Y-4733000D01*
X16746400Y-19469100D02*
X25567000Y-10648500D01*
D14*
%TO.N,RF_SUB_868*%
X29501700Y-1327500D02*
X29501700Y-23236200D01*
%TD*%
M02*
