M48
; DRILL file {KiCad 9.0.8+dfsg-1} date 2026-10-02T12:54:18+0200
; FORMAT={-:-/ absolute / metric / decimal}
; #@! TF.CreationDate,2026-10-02T12:54:18+02:00
; #@! TF.GenerationSoftware,Kicad,Pcbnew,9.0.8+dfsg-1
; #@! TF.FileFunction,Plated,1,4,PTH
FMAT,2
METRIC
; #@! TA.AperFunction,Plated,PTH,ComponentDrill
T1C0.200
; #@! TA.AperFunction,Plated,PTH,ViaDrill
T2C0.300
; #@! TA.AperFunction,Plated,PTH,ComponentDrill
T3C1.000
%
G90
G05
T1
X12.86Y-11.65
X12.86Y-12.75
X13.41Y-11.1
X13.41Y-12.2
X13.41Y-13.3
X13.96Y-11.65
X13.96Y-12.75
X14.51Y-11.1
X14.51Y-12.2
X14.51Y-13.3
X15.06Y-11.65
X15.06Y-12.75
T2
X4.4Y-19.0
X5.6Y-17.0
X7.0Y-39.0
X13.1Y-36.5
X14.6Y-31.4
X15.4Y-31.0
X17.5Y-11.4
X19.5Y-23.6
X19.9Y-24.5
X20.0Y-12.0
X20.0Y-13.3
X20.0Y-14.4
X20.0Y-26.7
X20.1Y-29.9
X20.4Y-6.6
X20.7Y-27.2
X22.075Y-35.7
X22.2Y-39.1
X22.7Y-36.3
X23.1Y-9.0
X23.1Y-12.0
X23.1Y-13.2
X23.1Y-18.5
X23.5Y-24.1
X23.8Y-16.8
X24.0Y-17.6
X24.4Y-7.1
X24.7Y-35.5
X24.7Y-37.0
X24.8Y-6.4
X24.8Y-21.9
X24.9Y-11.0
X25.4Y-7.9
X26.8Y-9.0
X28.0Y-12.7
X28.9Y-23.4
X30.2Y-39.1
X30.5Y-17.2
X32.3Y-3.0
X32.3Y-11.0
X32.5Y-13.6
X32.6Y-8.1
X32.6Y-9.0
X32.8Y-29.2
X39.8Y-36.0
X43.3Y-40.2
X47.6Y-8.0
X50.6Y-22.0
X51.0Y-12.4
T3
X4.0Y-42.0
X6.0Y-25.0
X6.0Y-30.0
X6.54Y-42.0
X20.0Y-42.0
X22.54Y-42.0
X25.08Y-42.0
X27.62Y-42.0
X30.16Y-42.0
X32.7Y-42.0
X40.0Y-42.0
X42.54Y-42.0
X45.08Y-42.0
X47.62Y-42.0
M30
