%TF.GenerationSoftware,KiCad,Pcbnew,9.0.8+dfsg-1*%
%TF.CreationDate,2026-10-02T12:54:17+02:00*%
%TF.ProjectId,v8f_krt_margin_escaped,7638665f-6b72-4745-9f6d-617267696e5f,rev?*%
%TF.SameCoordinates,Original*%
%TF.FileFunction,Copper,L1,Top*%
%TF.FilePolarity,Positive*%
%FSLAX46Y46*%
G04 Gerber Fmt 4.6, Leading zero omitted, Abs format (unit mm)*
G04 Created by KiCad (PCBNEW 9.0.8+dfsg-1) date 2026-10-02 12:54:17*
%MOMM*%
%LPD*%
G01*
G04 APERTURE LIST*
G04 Aperture macros list*
%AMRoundRect*
0 Rectangle with rounded corners*
0 $1 Rounding radius*
0 $2 $3 $4 $5 $6 $7 $8 $9 X,Y pos of 4 corners*
0 Add a 4 corners polygon primitive as box body*
4,1,4,$2,$3,$4,$5,$6,$7,$8,$9,$2,$3,0*
0 Add four circle primitives for the rounded corners*
1,1,$1+$1,$2,$3*
1,1,$1+$1,$4,$5*
1,1,$1+$1,$6,$7*
1,1,$1+$1,$8,$9*
0 Add four rect primitives between the rounded corners*
20,1,$1+$1,$2,$3,$4,$5,0*
20,1,$1+$1,$4,$5,$6,$7,0*
20,1,$1+$1,$6,$7,$8,$9,0*
20,1,$1+$1,$8,$9,$2,$3,0*%
G04 Aperture macros list end*
%TA.AperFunction,SMDPad,CuDef*%
%ADD10RoundRect,0.100000X0.400000X0.400000X-0.400000X0.400000X-0.400000X-0.400000X0.400000X-0.400000X0*%
%TD*%
%TA.AperFunction,SMDPad,CuDef*%
%ADD11RoundRect,0.105000X0.420000X0.995000X-0.420000X0.995000X-0.420000X-0.995000X0.420000X-0.995000X0*%
%TD*%
%TA.AperFunction,SMDPad,CuDef*%
%ADD12RoundRect,0.135000X-0.185000X0.135000X-0.185000X-0.135000X0.185000X-0.135000X0.185000X0.135000X0*%
%TD*%
%TA.AperFunction,SMDPad,CuDef*%
%ADD13RoundRect,0.135000X0.135000X0.185000X-0.135000X0.185000X-0.135000X-0.185000X0.135000X-0.185000X0*%
%TD*%
%TA.AperFunction,SMDPad,CuDef*%
%ADD14RoundRect,0.317500X-1.157500X-0.317500X1.157500X-0.317500X1.157500X0.317500X-1.157500X0.317500X0*%
%TD*%
%TA.AperFunction,SMDPad,CuDef*%
%ADD15RoundRect,0.150000X-0.512500X-0.150000X0.512500X-0.150000X0.512500X0.150000X-0.512500X0.150000X0*%
%TD*%
%TA.AperFunction,SMDPad,CuDef*%
%ADD16R,0.350000X0.500000*%
%TD*%
%TA.AperFunction,SMDPad,CuDef*%
%ADD17RoundRect,0.225000X0.225000X0.375000X-0.225000X0.375000X-0.225000X-0.375000X0.225000X-0.375000X0*%
%TD*%
%TA.AperFunction,ComponentPad*%
%ADD18RoundRect,0.250000X0.750000X-0.750000X0.750000X0.750000X-0.750000X0.750000X-0.750000X-0.750000X0*%
%TD*%
%TA.AperFunction,ComponentPad*%
%ADD19C,2.000000*%
%TD*%
%TA.AperFunction,SMDPad,CuDef*%
%ADD20RoundRect,0.225000X-0.225000X-0.250000X0.225000X-0.250000X0.225000X0.250000X-0.225000X0.250000X0*%
%TD*%
%TA.AperFunction,ComponentPad*%
%ADD21R,1.700000X1.700000*%
%TD*%
%TA.AperFunction,ComponentPad*%
%ADD22C,1.700000*%
%TD*%
%TA.AperFunction,SMDPad,CuDef*%
%ADD23RoundRect,0.140000X0.170000X-0.140000X0.170000X0.140000X-0.170000X0.140000X-0.170000X-0.140000X0*%
%TD*%
%TA.AperFunction,SMDPad,CuDef*%
%ADD24RoundRect,0.218750X-0.218750X-0.256250X0.218750X-0.256250X0.218750X0.256250X-0.218750X0.256250X0*%
%TD*%
%TA.AperFunction,SMDPad,CuDef*%
%ADD25RoundRect,0.135000X-0.135000X-0.185000X0.135000X-0.185000X0.135000X0.185000X-0.135000X0.185000X0*%
%TD*%
%TA.AperFunction,SMDPad,CuDef*%
%ADD26RoundRect,0.140000X-0.170000X0.140000X-0.170000X-0.140000X0.170000X-0.140000X0.170000X0.140000X0*%
%TD*%
%TA.AperFunction,SMDPad,CuDef*%
%ADD27R,1.500000X0.900000*%
%TD*%
%TA.AperFunction,HeatsinkPad*%
%ADD28C,0.600000*%
%TD*%
%TA.AperFunction,HeatsinkPad*%
%ADD29R,2.900000X2.900000*%
%TD*%
%TA.AperFunction,SMDPad,CuDef*%
%ADD30RoundRect,0.175000X-0.725000X-0.175000X0.725000X-0.175000X0.725000X0.175000X-0.725000X0.175000X0*%
%TD*%
%TA.AperFunction,SMDPad,CuDef*%
%ADD31RoundRect,0.200000X-0.700000X-0.200000X0.700000X-0.200000X0.700000X0.200000X-0.700000X0.200000X0*%
%TD*%
%TA.AperFunction,ViaPad*%
%ADD32C,0.600000*%
%TD*%
%TA.AperFunction,Conductor*%
%ADD33C,0.300000*%
%TD*%
%TA.AperFunction,Conductor*%
%ADD34C,0.200000*%
%TD*%
G04 APERTURE END LIST*
D10*
%TO.P,ANT1,1*%
%TO.N,RF_OUT*%
X51000000Y-23500000D03*
D11*
%TO.P,ANT1,2*%
%TO.N,GND*%
X49525000Y-22000000D03*
D10*
X51000000Y-20500000D03*
D11*
X52475000Y-22000000D03*
%TD*%
D12*
%TO.P,R_LED,1*%
%TO.N,LED_DRIVE*%
X30000000Y-31490000D03*
%TO.P,R_LED,2*%
%TO.N,LED_A*%
X30000000Y-32510000D03*
%TD*%
D13*
%TO.P,R_DIV1,1*%
%TO.N,VCAP*%
X4510000Y-36000000D03*
%TO.P,R_DIV1,2*%
%TO.N,VDIV_MID*%
X3490000Y-36000000D03*
%TD*%
D14*
%TO.P,U2,1*%
%TO.N,GND*%
X30475000Y-2000000D03*
%TO.P,U2,2*%
%TO.N,SPI_MISO*%
X30475000Y-4000000D03*
%TO.P,U2,3*%
%TO.N,SPI_MOSI*%
X30475000Y-6000000D03*
%TO.P,U2,4*%
%TO.N,SPI_SCK*%
X30475000Y-8000000D03*
%TO.P,U2,5*%
%TO.N,SPI_NSS*%
X30475000Y-10000000D03*
%TO.P,U2,6*%
%TO.N,LR_RST*%
X30475000Y-12000000D03*
%TO.P,U2,7*%
%TO.N,N/C*%
X30475000Y-14000000D03*
%TO.P,U2,8*%
%TO.N,GND*%
X30475000Y-16000000D03*
%TO.P,U2,9*%
%TO.N,RF_OUT*%
X45525000Y-16000000D03*
%TO.P,U2,10*%
%TO.N,GND*%
X45525000Y-14000000D03*
%TO.P,U2,11*%
%TO.N,N/C*%
X45525000Y-12000000D03*
%TO.P,U2,12*%
%TO.N,LR_BUSY*%
X45525000Y-10000000D03*
%TO.P,U2,13*%
%TO.N,+3V3*%
X45525000Y-8000000D03*
%TO.P,U2,14*%
%TO.N,LR_DIO0*%
X45525000Y-6000000D03*
%TO.P,U2,15*%
%TO.N,N/C*%
X45525000Y-4000000D03*
%TO.P,U2,16*%
X45525000Y-2000000D03*
%TD*%
D15*
%TO.P,U4,1*%
%TO.N,VCAP*%
X17862500Y-29050000D03*
%TO.P,U4,2*%
%TO.N,GND*%
X17862500Y-30000000D03*
%TO.P,U4,3*%
%TO.N,VCAP*%
X17862500Y-30950000D03*
%TO.P,U4,4*%
%TO.N,N/C*%
X20137500Y-30950000D03*
%TO.P,U4,5*%
%TO.N,+3V3*%
X20137500Y-29050000D03*
%TD*%
D16*
%TO.P,U5,1*%
%TO.N,GND*%
X22025000Y-34975000D03*
%TO.P,U5,2*%
%TO.N,+3V3*%
X22675000Y-34975000D03*
%TO.P,U5,3*%
%TO.N,I2C_SDA*%
X23325000Y-34975000D03*
%TO.P,U5,4*%
%TO.N,I2C_SCL*%
X23975000Y-34975000D03*
%TO.P,U5,5*%
%TO.N,GND*%
X23975000Y-37025000D03*
%TO.P,U5,6*%
%TO.N,+3V3*%
X23325000Y-37025000D03*
%TO.P,U5,7*%
%TO.N,GND*%
X22675000Y-37025000D03*
%TO.P,U5,8*%
%TO.N,+3V3*%
X22025000Y-37025000D03*
%TD*%
D17*
%TO.P,D1,1*%
%TO.N,SOLAR_IN*%
X25650000Y-23000000D03*
%TO.P,D1,2*%
%TO.N,VCAP*%
X22350000Y-23000000D03*
%TD*%
D18*
%TO.P,C_CAP,1*%
%TO.N,VCAP*%
X6000000Y-30000000D03*
D19*
%TO.P,C_CAP,2*%
%TO.N,GND*%
X6000000Y-25000000D03*
%TD*%
D20*
%TO.P,C2,1*%
%TO.N,+3V3*%
X24225000Y-9000000D03*
%TO.P,C2,2*%
%TO.N,GND*%
X25775000Y-9000000D03*
%TD*%
D21*
%TO.P,J2,1*%
%TO.N,GND*%
X40000000Y-42000000D03*
D22*
%TO.P,J2,2*%
%TO.N,+3V3*%
X42540000Y-42000000D03*
%TO.P,J2,3*%
%TO.N,I2C_SDA*%
X45080000Y-42000000D03*
%TO.P,J2,4*%
%TO.N,I2C_SCL*%
X47620000Y-42000000D03*
%TD*%
D12*
%TO.P,R_PD,1*%
%TO.N,I2C_SDA*%
X14000000Y-35490000D03*
%TO.P,R_PD,2*%
%TO.N,+3V3*%
X14000000Y-36510000D03*
%TD*%
D23*
%TO.P,C3,1*%
%TO.N,+3V3*%
X19000000Y-25480000D03*
%TO.P,C3,2*%
%TO.N,GND*%
X19000000Y-24520000D03*
%TD*%
D21*
%TO.P,SOLAR,1*%
%TO.N,SOLAR_IN*%
X4000000Y-42000000D03*
D22*
%TO.P,SOLAR,2*%
%TO.N,GND*%
X6540000Y-42000000D03*
%TD*%
D20*
%TO.P,C1,1*%
%TO.N,+3V3*%
X14225000Y-23000000D03*
%TO.P,C1,2*%
%TO.N,GND*%
X15775000Y-23000000D03*
%TD*%
D24*
%TO.P,LED1,1*%
%TO.N,LED_A*%
X37212500Y-36000000D03*
%TO.P,LED1,2*%
%TO.N,GND*%
X38787500Y-36000000D03*
%TD*%
D25*
%TO.P,R_DIV2,1*%
%TO.N,VDIV_MID*%
X8490000Y-38000000D03*
%TO.P,R_DIV2,2*%
%TO.N,GND*%
X9510000Y-38000000D03*
%TD*%
D26*
%TO.P,C4,1*%
%TO.N,+3V3*%
X51000000Y-10520000D03*
%TO.P,C4,2*%
%TO.N,GND*%
X51000000Y-11480000D03*
%TD*%
D27*
%TO.P,U1,1*%
%TO.N,+3V3*%
X4250000Y-6000000D03*
%TO.P,U1,2*%
%TO.N,EN*%
X4250000Y-7500000D03*
%TO.P,U1,3*%
%TO.N,LR_BUSY*%
X4250000Y-9000000D03*
%TO.P,U1,4*%
%TO.N,VDIV_MID*%
X4250000Y-10500000D03*
%TO.P,U1,5*%
%TO.N,SPI_SCK*%
X4250000Y-12000000D03*
%TO.P,U1,6*%
%TO.N,SPI_MOSI*%
X4250000Y-13500000D03*
%TO.P,U1,7*%
%TO.N,I2C_SDA*%
X4250000Y-15000000D03*
%TO.P,U1,8*%
%TO.N,I2C_SCL*%
X4250000Y-16500000D03*
%TO.P,U1,9*%
%TO.N,GND*%
X4250000Y-18000000D03*
%TO.P,U1,10*%
%TO.N,SPI_NSS*%
X21750000Y-18000000D03*
%TO.P,U1,11*%
%TO.N,UART0_RX*%
X21750000Y-16500000D03*
%TO.P,U1,12*%
%TO.N,UART0_TX*%
X21750000Y-15000000D03*
%TO.P,U1,13*%
%TO.N,LR_DIO0*%
X21750000Y-13500000D03*
%TO.P,U1,14*%
%TO.N,LED_DRIVE*%
X21750000Y-12000000D03*
%TO.P,U1,15*%
%TO.N,LR_RST*%
X21750000Y-10500000D03*
%TO.P,U1,16*%
%TO.N,SPI_MISO*%
X21750000Y-9000000D03*
%TO.P,U1,17*%
%TO.N,GPS_RX*%
X21750000Y-7500000D03*
%TO.P,U1,18*%
%TO.N,GPS_TX*%
X21750000Y-6000000D03*
D28*
%TO.P,U1,19*%
%TO.N,GND*%
X12860000Y-11650000D03*
X12860000Y-12750000D03*
X13410000Y-11100000D03*
X13410000Y-12200000D03*
X13410000Y-13300000D03*
X13960000Y-11650000D03*
D29*
X13960000Y-12200000D03*
D28*
X13960000Y-12750000D03*
X14510000Y-11100000D03*
X14510000Y-12200000D03*
X14510000Y-13300000D03*
X15060000Y-11650000D03*
X15060000Y-12750000D03*
%TD*%
D21*
%TO.P,J1,1*%
%TO.N,GND*%
X20000000Y-42000000D03*
D22*
%TO.P,J1,2*%
%TO.N,+3V3*%
X22540000Y-42000000D03*
%TO.P,J1,3*%
%TO.N,EN*%
X25080000Y-42000000D03*
%TO.P,J1,4*%
%TO.N,UART0_TX*%
X27620000Y-42000000D03*
%TO.P,J1,5*%
%TO.N,UART0_RX*%
X30160000Y-42000000D03*
%TO.P,J1,6*%
%TO.N,N/C*%
X32700000Y-42000000D03*
%TD*%
D30*
%TO.P,U3,1*%
%TO.N,GND*%
X34250000Y-22600000D03*
D31*
%TO.P,U3,2*%
%TO.N,GPS_RX*%
X34250000Y-23700000D03*
%TO.P,U3,3*%
%TO.N,GPS_TX*%
X34250000Y-24800000D03*
%TO.P,U3,4*%
%TO.N,N/C*%
X34250000Y-25900000D03*
%TO.P,U3,5*%
X34250000Y-27000000D03*
%TO.P,U3,6*%
%TO.N,+3V3*%
X34250000Y-28100000D03*
%TO.P,U3,7*%
X34250000Y-29200000D03*
%TO.P,U3,8*%
X34250000Y-30300000D03*
D30*
%TO.P,U3,9*%
X34250000Y-31400000D03*
%TO.P,U3,10*%
%TO.N,GND*%
X43750000Y-31400000D03*
D31*
%TO.P,U3,11*%
%TO.N,N/C*%
X43750000Y-30300000D03*
%TO.P,U3,12*%
%TO.N,GND*%
X43750000Y-29200000D03*
%TO.P,U3,13*%
%TO.N,N/C*%
X43750000Y-28100000D03*
%TO.P,U3,14*%
X43750000Y-27000000D03*
%TO.P,U3,15*%
X43750000Y-25900000D03*
%TO.P,U3,16*%
X43750000Y-24800000D03*
%TO.P,U3,17*%
X43750000Y-23700000D03*
D30*
%TO.P,U3,18*%
X43750000Y-22600000D03*
%TD*%
D32*
%TO.N,+3V3*%
X32800000Y-29200000D03*
X20400000Y-6600000D03*
X19900000Y-24500000D03*
X13100000Y-36500000D03*
X23100000Y-9000000D03*
X47600000Y-8000000D03*
X20100000Y-29900000D03*
%TO.N,GND*%
X26800000Y-9000000D03*
X22700000Y-36300000D03*
X24700000Y-37000000D03*
X39800000Y-36000000D03*
X50600000Y-22000000D03*
X30500000Y-17200000D03*
X22075000Y-35700000D03*
X19500000Y-23600000D03*
X4400000Y-19000000D03*
X51000000Y-12400000D03*
X32300000Y-3000000D03*
%TO.N,VCAP*%
X20700000Y-27200000D03*
X23500000Y-24100000D03*
X15400000Y-31000000D03*
%TO.N,SOLAR_IN*%
X14600000Y-31400000D03*
X7000000Y-39000000D03*
X24800000Y-21900000D03*
X20000000Y-26700000D03*
%TO.N,EN*%
X22200000Y-39100000D03*
X17500000Y-11400000D03*
%TO.N,GPS_TX*%
X24400000Y-7100000D03*
X32500000Y-13600000D03*
%TO.N,SPI_SCK*%
X23100000Y-12000000D03*
X20000000Y-12000000D03*
%TO.N,SPI_MOSI*%
X25400000Y-7900000D03*
X20000000Y-13300000D03*
%TO.N,SPI_NSS*%
X24000000Y-17600000D03*
X23100000Y-18500000D03*
%TO.N,LR_RST*%
X32300000Y-11000000D03*
X24900000Y-11000000D03*
%TO.N,LR_BUSY*%
X32600000Y-9000000D03*
X24800000Y-6400000D03*
%TO.N,LR_DIO0*%
X28000000Y-12700000D03*
X32600000Y-8100000D03*
%TO.N,I2C_SDA*%
X43300000Y-40200000D03*
%TO.N,I2C_SCL*%
X24700000Y-35500000D03*
X5600000Y-17000000D03*
%TO.N,LED_DRIVE*%
X20000000Y-14400000D03*
X23100000Y-13200000D03*
%TO.N,UART0_TX*%
X23800000Y-16800000D03*
%TO.N,UART0_RX*%
X30200000Y-39100000D03*
X28900000Y-23400000D03*
%TD*%
D33*
%TO.N,+3V3*%
X20100000Y-29900000D02*
X20100000Y-29000000D01*
X22700000Y-34200000D02*
X21700000Y-34200000D01*
X23300000Y-37000000D02*
X23325000Y-37025000D01*
X4200000Y-6000000D02*
X4800000Y-6600000D01*
X18800000Y-25300000D02*
X16500000Y-25300000D01*
X23000000Y-37800000D02*
X23300000Y-37500000D01*
X23300000Y-37500000D02*
X23300000Y-37000000D01*
X34200000Y-30300000D02*
X34250000Y-30300000D01*
X19000000Y-25500000D02*
X19000000Y-25480000D01*
X20100000Y-29000000D02*
X20137500Y-29050000D01*
X45500000Y-8000000D02*
X45525000Y-8000000D01*
X20900000Y-30200000D02*
X22700000Y-32000000D01*
X20400000Y-30200000D02*
X20900000Y-30200000D01*
X22400000Y-37800000D02*
X23000000Y-37800000D01*
X34200000Y-31400000D02*
X34250000Y-31400000D01*
X34200000Y-29200000D02*
X34200000Y-30300000D01*
X51000000Y-10500000D02*
X51000000Y-10520000D01*
X19900000Y-24800000D02*
X19200000Y-25500000D01*
X21800000Y-37500000D02*
X22100000Y-37500000D01*
X4250000Y-6000000D02*
X4200000Y-6000000D01*
X22700000Y-32000000D02*
X22700000Y-35000000D01*
X22000000Y-37000000D02*
X21820000Y-37000000D01*
X19900000Y-24500000D02*
X19900000Y-24800000D01*
X34200000Y-29200000D02*
X34250000Y-29200000D01*
X23100000Y-9000000D02*
X24225000Y-9000000D01*
X47600000Y-8000000D02*
X50100000Y-10500000D01*
X47600000Y-8000000D02*
X45500000Y-8000000D01*
X34200000Y-28100000D02*
X34250000Y-28100000D01*
X50100000Y-10500000D02*
X51000000Y-10500000D01*
X14200000Y-23000000D02*
X14225000Y-23000000D01*
X13100000Y-36500000D02*
X14000000Y-36500000D01*
X16500000Y-25300000D02*
X14200000Y-23000000D01*
X21400000Y-34500000D02*
X21400000Y-37100000D01*
X22700000Y-35000000D02*
X22675000Y-34975000D01*
X22025000Y-37025000D02*
X22000000Y-37000000D01*
X19000000Y-25500000D02*
X18800000Y-25300000D01*
X21700000Y-34200000D02*
X21400000Y-34500000D01*
X21820000Y-37000000D02*
X21560000Y-37260000D01*
X34200000Y-30300000D02*
X34200000Y-31400000D01*
X19200000Y-25500000D02*
X19000000Y-25500000D01*
X22100000Y-37500000D02*
X22400000Y-37800000D01*
X20100000Y-29900000D02*
X20400000Y-30200000D01*
X4800000Y-6600000D02*
X20400000Y-6600000D01*
X32800000Y-29200000D02*
X34200000Y-29200000D01*
X34200000Y-29200000D02*
X34200000Y-28100000D01*
X21400000Y-37100000D02*
X21800000Y-37500000D01*
%TO.N,GND*%
X14300000Y-38000000D02*
X19000000Y-33300000D01*
X49400000Y-14000000D02*
X45500000Y-14000000D01*
X30500000Y-17200000D02*
X30500000Y-16000000D01*
X19000000Y-30600000D02*
X18400000Y-30000000D01*
X33700000Y-21100000D02*
X34200000Y-21600000D01*
X24000000Y-37000000D02*
X23975000Y-37025000D01*
X39800000Y-36000000D02*
X43800000Y-32000000D01*
X39800000Y-36000000D02*
X38787500Y-36000000D01*
X6500000Y-42000000D02*
X9500000Y-39000000D01*
X43800000Y-31400000D02*
X44000000Y-31200000D01*
D34*
X22700000Y-37000000D02*
X22675000Y-37025000D01*
D33*
X43800000Y-32000000D02*
X43800000Y-31400000D01*
X51400000Y-22000000D02*
X52500000Y-22000000D01*
X43800000Y-31400000D02*
X43750000Y-31400000D01*
X51000000Y-21600000D02*
X51400000Y-22000000D01*
X44500000Y-29200000D02*
X43750000Y-29200000D01*
X45100000Y-30800000D02*
X45100000Y-29800000D01*
X6540000Y-42000000D02*
X6500000Y-42000000D01*
X45100000Y-29800000D02*
X44500000Y-29200000D01*
X24700000Y-37000000D02*
X24000000Y-37000000D01*
X30500000Y-17200000D02*
X33700000Y-20400000D01*
X34200000Y-21600000D02*
X34200000Y-22600000D01*
D34*
X22700000Y-36900000D02*
X22700000Y-36300000D01*
D33*
X49500000Y-22000000D02*
X49525000Y-22000000D01*
X34200000Y-22600000D02*
X34250000Y-22600000D01*
X9500000Y-39000000D02*
X9500000Y-38000000D01*
X51000000Y-21600000D02*
X51000000Y-20500000D01*
D34*
X22000000Y-35100000D02*
X22000000Y-35000000D01*
D33*
X44700000Y-31200000D02*
X45100000Y-30800000D01*
X26800000Y-9000000D02*
X25775000Y-9000000D01*
X45500000Y-14000000D02*
X45525000Y-14000000D01*
X4200000Y-18000000D02*
X4250000Y-18000000D01*
X19000000Y-24100000D02*
X19000000Y-24520000D01*
X18400000Y-30000000D02*
X17862500Y-30000000D01*
X19000000Y-24100000D02*
X17900000Y-23000000D01*
X44000000Y-31200000D02*
X44700000Y-31200000D01*
X31300000Y-2000000D02*
X30475000Y-2000000D01*
X19500000Y-23600000D02*
X19000000Y-24100000D01*
X4400000Y-19000000D02*
X4200000Y-18800000D01*
D34*
X22700000Y-36900000D02*
X22700000Y-37000000D01*
D33*
X32300000Y-3000000D02*
X31300000Y-2000000D01*
D34*
X22000000Y-35000000D02*
X22025000Y-34975000D01*
D33*
X50600000Y-22000000D02*
X51000000Y-21600000D01*
X19000000Y-33300000D02*
X19000000Y-30600000D01*
X51000000Y-12400000D02*
X49400000Y-14000000D01*
X50600000Y-22000000D02*
X49500000Y-22000000D01*
X17900000Y-23000000D02*
X15775000Y-23000000D01*
X51000000Y-12400000D02*
X51000000Y-11480000D01*
X52500000Y-22000000D02*
X52475000Y-22000000D01*
D34*
X22000000Y-35100000D02*
X22075000Y-35700000D01*
D33*
X30500000Y-16000000D02*
X30475000Y-16000000D01*
X9500000Y-38000000D02*
X14300000Y-38000000D01*
X4200000Y-18800000D02*
X4200000Y-18000000D01*
X33700000Y-20400000D02*
X33700000Y-21100000D01*
D34*
%TO.N,VCAP*%
X18100000Y-28800000D02*
X19000000Y-28800000D01*
X4500000Y-35600000D02*
X4500000Y-36000000D01*
X17300000Y-29300000D02*
X16800000Y-29300000D01*
X19000000Y-28800000D02*
X20600000Y-27200000D01*
X16500000Y-29600000D02*
X16500000Y-30100000D01*
X16500000Y-30100000D02*
X17400000Y-31000000D01*
X4600000Y-31400000D02*
X4600000Y-35500000D01*
X16800000Y-29300000D02*
X15400000Y-30700000D01*
X6000000Y-30000000D02*
X4600000Y-31400000D01*
X4600000Y-35500000D02*
X4500000Y-35600000D01*
X23500000Y-24100000D02*
X22400000Y-23000000D01*
%TO.N,SOLAR_IN*%
X14600000Y-30900000D02*
X14600000Y-31400000D01*
X20000000Y-26700000D02*
X18800000Y-26700000D01*
X25600000Y-23000000D02*
X24800000Y-22200000D01*
X18800000Y-26700000D02*
X14600000Y-30900000D01*
X7000000Y-39000000D02*
X4000000Y-42000000D01*
%TO.N,VDIV_MID*%
X5500000Y-38000000D02*
X8500000Y-38000000D01*
X3100000Y-34200000D02*
X3100000Y-11400000D01*
X4200000Y-35300000D02*
X3100000Y-34200000D01*
X3800000Y-35700000D02*
X3800000Y-36300000D01*
X3500000Y-36000000D02*
X4200000Y-35300000D01*
X3100000Y-11400000D02*
X4000000Y-10500000D01*
X3800000Y-36300000D02*
X5500000Y-38000000D01*
%TO.N,EN*%
X5200000Y-8200000D02*
X7000000Y-10000000D01*
X7000000Y-10000000D02*
X15800000Y-10000000D01*
X22200000Y-39100000D02*
X25100000Y-42000000D01*
X4200000Y-7500000D02*
X4900000Y-8200000D01*
X4900000Y-8200000D02*
X5200000Y-8200000D01*
X15800000Y-10000000D02*
X17200000Y-11400000D01*
%TO.N,GPS_TX*%
X35500000Y-16600000D02*
X32500000Y-13600000D01*
X23100000Y-7100000D02*
X24400000Y-7100000D01*
X34900000Y-24800000D02*
X35500000Y-24200000D01*
X21800000Y-6000000D02*
X22500000Y-6700000D01*
X22500000Y-6700000D02*
X22700000Y-6700000D01*
X35500000Y-24200000D02*
X35500000Y-16600000D01*
X22700000Y-6700000D02*
X23100000Y-7100000D01*
%TO.N,GPS_RX*%
X20600000Y-8500000D02*
X20600000Y-18600000D01*
X25200000Y-24000000D02*
X33900000Y-24000000D01*
X20600000Y-18600000D02*
X24800000Y-22800000D01*
X21600000Y-7500000D02*
X20600000Y-8500000D01*
X24800000Y-23600000D02*
X25200000Y-24000000D01*
X24800000Y-22800000D02*
X24800000Y-23600000D01*
%TO.N,SPI_MISO*%
X28400000Y-4000000D02*
X24300000Y-8100000D01*
X22900000Y-8100000D02*
X22000000Y-9000000D01*
X30500000Y-4000000D02*
X28400000Y-4000000D01*
X24300000Y-8100000D02*
X22900000Y-8100000D01*
%TO.N,SPI_SCK*%
X15600000Y-10400000D02*
X6100000Y-10400000D01*
X28900000Y-8000000D02*
X24900000Y-12000000D01*
X6100000Y-10400000D02*
X4500000Y-12000000D01*
X30500000Y-8000000D02*
X28900000Y-8000000D01*
X17200000Y-12000000D02*
X15600000Y-10400000D01*
X20000000Y-12000000D02*
X17200000Y-12000000D01*
X24900000Y-12000000D02*
X23100000Y-12000000D01*
%TO.N,SPI_MOSI*%
X15600000Y-14000000D02*
X4700000Y-14000000D01*
X4700000Y-14000000D02*
X4200000Y-13500000D01*
X19800000Y-13500000D02*
X16100000Y-13500000D01*
X30500000Y-6000000D02*
X27300000Y-6000000D01*
X16100000Y-13500000D02*
X15600000Y-14000000D01*
X27300000Y-6000000D02*
X25400000Y-7900000D01*
%TO.N,SPI_NSS*%
X28700000Y-12900000D02*
X28700000Y-11300000D01*
X22000000Y-18000000D02*
X22500000Y-18500000D01*
X24000000Y-17600000D02*
X28700000Y-12900000D01*
X22500000Y-18500000D02*
X23100000Y-18500000D01*
X28700000Y-11300000D02*
X30000000Y-10000000D01*
%TO.N,LR_RST*%
X31500000Y-11000000D02*
X32300000Y-11000000D01*
X30500000Y-12000000D02*
X31500000Y-11000000D01*
X24400000Y-10500000D02*
X21750000Y-10500000D01*
X24900000Y-11000000D02*
X24400000Y-10500000D01*
%TO.N,LR_BUSY*%
X4000000Y-9000000D02*
X3100000Y-8100000D01*
X44500000Y-9000000D02*
X32600000Y-9000000D01*
X23800000Y-6300000D02*
X24700000Y-6300000D01*
X3100000Y-8100000D02*
X3100000Y-5400000D01*
X3300000Y-5200000D02*
X22700000Y-5200000D01*
X22700000Y-5200000D02*
X23800000Y-6300000D01*
X3100000Y-5400000D02*
X3300000Y-5200000D01*
X45500000Y-10000000D02*
X44500000Y-9000000D01*
%TO.N,LR_DIO0*%
X34700000Y-6000000D02*
X45525000Y-6000000D01*
X32600000Y-8100000D02*
X34700000Y-6000000D01*
X22500000Y-13700000D02*
X22700000Y-13900000D01*
X22700000Y-13900000D02*
X26800000Y-13900000D01*
X26800000Y-13900000D02*
X28000000Y-12700000D01*
%TO.N,I2C_SDA*%
X31200000Y-34300000D02*
X37100000Y-40200000D01*
X23300000Y-34300000D02*
X31200000Y-34300000D01*
X4200000Y-15000000D02*
X4900000Y-15700000D01*
X4900000Y-15700000D02*
X5200000Y-15700000D01*
X20400000Y-26000000D02*
X23300000Y-28900000D01*
X14600000Y-26200000D02*
X19400000Y-26200000D01*
X19400000Y-26200000D02*
X19600000Y-26000000D01*
X37100000Y-40200000D02*
X43300000Y-40200000D01*
X23300000Y-28900000D02*
X23300000Y-35000000D01*
X19600000Y-26000000D02*
X20400000Y-26000000D01*
X14000000Y-24500000D02*
X14000000Y-35500000D01*
X5200000Y-15700000D02*
X14000000Y-24500000D01*
X14000000Y-26800000D02*
X14600000Y-26200000D01*
%TO.N,I2C_SCL*%
X5100000Y-16500000D02*
X4200000Y-16500000D01*
X29800000Y-40800000D02*
X46400000Y-40800000D01*
X46400000Y-40800000D02*
X47600000Y-42000000D01*
X5600000Y-17000000D02*
X5100000Y-16500000D01*
X23975000Y-34975000D02*
X29800000Y-40800000D01*
%TO.N,LED_DRIVE*%
X29400000Y-31500000D02*
X20000000Y-22100000D01*
X22900000Y-13000000D02*
X22900000Y-12900000D01*
X22900000Y-12900000D02*
X22000000Y-12000000D01*
X20000000Y-22100000D02*
X20000000Y-14400000D01*
X30000000Y-31500000D02*
X29400000Y-31500000D01*
%TO.N,LED_A*%
X33500000Y-36000000D02*
X37200000Y-36000000D01*
X30000000Y-32500000D02*
X33500000Y-36000000D01*
%TO.N,UART0_TX*%
X21800000Y-15000000D02*
X22500000Y-15700000D01*
X22500000Y-15700000D02*
X22700000Y-15700000D01*
X22700000Y-15700000D02*
X23800000Y-16800000D01*
%TO.N,UART0_RX*%
X22500000Y-17200000D02*
X22700000Y-17200000D01*
X22700000Y-17200000D02*
X28900000Y-23400000D01*
X21800000Y-16500000D02*
X22500000Y-17200000D01*
%TO.N,RF_OUT*%
X48900000Y-23500000D02*
X45500000Y-20100000D01*
X45500000Y-20100000D02*
X45500000Y-16000000D01*
X51000000Y-23500000D02*
X48900000Y-23500000D01*
%TD*%
M02*
