%TF.GenerationSoftware,KiCad,Pcbnew,9.0.8+dfsg-1*%
%TF.CreationDate,2026-10-02T12:54:17+02:00*%
%TF.ProjectId,v8f_krt_margin_escaped,7638665f-6b72-4745-9f6d-617267696e5f,rev?*%
%TF.SameCoordinates,Original*%
%TF.FileFunction,Copper,L2,Inr*%
%TF.FilePolarity,Positive*%
%FSLAX46Y46*%
G04 Gerber Fmt 4.6, Leading zero omitted, Abs format (unit mm)*
G04 Created by KiCad (PCBNEW 9.0.8+dfsg-1) date 2026-10-02 12:54:17*
%MOMM*%
%LPD*%
G01*
G04 APERTURE LIST*
G04 Aperture macros list*
%AMRoundRect*
0 Rectangle with rounded corners*
0 $1 Rounding radius*
0 $2 $3 $4 $5 $6 $7 $8 $9 X,Y pos of 4 corners*
0 Add a 4 corners polygon primitive as box body*
4,1,4,$2,$3,$4,$5,$6,$7,$8,$9,$2,$3,0*
0 Add four circle primitives for the rounded corners*
1,1,$1+$1,$2,$3*
1,1,$1+$1,$4,$5*
1,1,$1+$1,$6,$7*
1,1,$1+$1,$8,$9*
0 Add four rect primitives between the rounded corners*
20,1,$1+$1,$2,$3,$4,$5,0*
20,1,$1+$1,$4,$5,$6,$7,0*
20,1,$1+$1,$6,$7,$8,$9,0*
20,1,$1+$1,$8,$9,$2,$3,0*%
G04 Aperture macros list end*
%TA.AperFunction,ComponentPad*%
%ADD10RoundRect,0.250000X0.750000X-0.750000X0.750000X0.750000X-0.750000X0.750000X-0.750000X-0.750000X0*%
%TD*%
%TA.AperFunction,ComponentPad*%
%ADD11C,2.000000*%
%TD*%
%TA.AperFunction,ComponentPad*%
%ADD12R,1.700000X1.700000*%
%TD*%
%TA.AperFunction,ComponentPad*%
%ADD13C,1.700000*%
%TD*%
%TA.AperFunction,HeatsinkPad*%
%ADD14C,0.600000*%
%TD*%
%TA.AperFunction,ViaPad*%
%ADD15C,0.600000*%
%TD*%
%TA.AperFunction,Conductor*%
%ADD16C,0.300000*%
%TD*%
%TA.AperFunction,Conductor*%
%ADD17C,0.200000*%
%TD*%
G04 APERTURE END LIST*
D10*
%TO.N,VCAP*%
%TO.C,C_CAP*%
X6000000Y-30000000D03*
D11*
%TO.N,GND*%
X6000000Y-25000000D03*
%TD*%
D12*
%TO.N,GND*%
%TO.C,J2*%
X40000000Y-42000000D03*
D13*
%TO.N,+3V3*%
X42540000Y-42000000D03*
%TO.N,I2C_SDA*%
X45080000Y-42000000D03*
%TO.N,I2C_SCL*%
X47620000Y-42000000D03*
%TD*%
D12*
%TO.N,SOLAR_IN*%
%TO.C,SOLAR*%
X4000000Y-42000000D03*
D13*
%TO.N,GND*%
X6540000Y-42000000D03*
%TD*%
D14*
%TO.N,GND*%
%TO.C,U1*%
X12860000Y-11650000D03*
X12860000Y-12750000D03*
X13410000Y-11100000D03*
X13410000Y-12200000D03*
X13410000Y-13300000D03*
X13960000Y-11650000D03*
X13960000Y-12750000D03*
X14510000Y-11100000D03*
X14510000Y-12200000D03*
X14510000Y-13300000D03*
X15060000Y-11650000D03*
X15060000Y-12750000D03*
%TD*%
D12*
%TO.N,GND*%
%TO.C,J1*%
X20000000Y-42000000D03*
D13*
%TO.N,+3V3*%
X22540000Y-42000000D03*
%TO.N,EN*%
X25080000Y-42000000D03*
%TO.N,UART0_TX*%
X27620000Y-42000000D03*
%TO.N,UART0_RX*%
X30160000Y-42000000D03*
%TO.N,N/C*%
X32700000Y-42000000D03*
%TD*%
D15*
%TO.N,+3V3*%
X32800000Y-29200000D03*
X20400000Y-6600000D03*
X19900000Y-24500000D03*
X13100000Y-36500000D03*
X23100000Y-9000000D03*
X47600000Y-8000000D03*
X20100000Y-29900000D03*
%TO.N,GND*%
X26800000Y-9000000D03*
X22700000Y-36300000D03*
X24700000Y-37000000D03*
X39800000Y-36000000D03*
X50600000Y-22000000D03*
X30500000Y-17200000D03*
X22075000Y-35700000D03*
X19500000Y-23600000D03*
X4400000Y-19000000D03*
X51000000Y-12400000D03*
X32300000Y-3000000D03*
%TO.N,VCAP*%
X20700000Y-27200000D03*
X23500000Y-24100000D03*
X15400000Y-31000000D03*
%TO.N,SOLAR_IN*%
X14600000Y-31400000D03*
X7000000Y-39000000D03*
X24800000Y-21900000D03*
X20000000Y-26700000D03*
%TO.N,EN*%
X22200000Y-39100000D03*
X17500000Y-11400000D03*
%TO.N,GPS_TX*%
X24400000Y-7100000D03*
X32500000Y-13600000D03*
%TO.N,SPI_SCK*%
X23100000Y-12000000D03*
X20000000Y-12000000D03*
%TO.N,SPI_MOSI*%
X25400000Y-7900000D03*
X20000000Y-13300000D03*
%TO.N,SPI_NSS*%
X24000000Y-17600000D03*
X23100000Y-18500000D03*
%TO.N,LR_RST*%
X32300000Y-11000000D03*
X24900000Y-11000000D03*
%TO.N,LR_BUSY*%
X32600000Y-9000000D03*
X24800000Y-6400000D03*
%TO.N,LR_DIO0*%
X28000000Y-12700000D03*
X32600000Y-8100000D03*
%TO.N,I2C_SDA*%
X43300000Y-40200000D03*
%TO.N,I2C_SCL*%
X24700000Y-35500000D03*
X5600000Y-17000000D03*
%TO.N,LED_DRIVE*%
X20000000Y-14400000D03*
X23100000Y-13200000D03*
%TO.N,UART0_TX*%
X23800000Y-16800000D03*
%TO.N,UART0_RX*%
X30200000Y-39100000D03*
X28900000Y-23400000D03*
%TD*%
D16*
%TO.N,GND*%
X22000000Y-35100000D02*
X22075000Y-35700000D01*
X25900000Y-9000000D02*
X26800000Y-9000000D01*
X24105000Y-36985000D02*
X24120000Y-37000000D01*
X30500000Y-16100000D02*
X30500000Y-17200000D01*
X25865000Y-8985000D02*
X25900000Y-9000000D01*
X22700000Y-36900000D02*
X22700000Y-36300000D01*
X19500000Y-23900000D02*
X19500000Y-23600000D01*
X22700000Y-36900000D02*
X22675000Y-36925000D01*
X4265000Y-18105000D02*
X4400000Y-18240000D01*
X22025000Y-34975000D02*
X22021900Y-35064893D01*
X18985000Y-24425000D02*
X19000000Y-24400000D01*
X22025000Y-35065000D02*
X22021900Y-35064893D01*
X38930000Y-36000000D02*
X39800000Y-36000000D01*
X38905000Y-36025000D02*
X38930000Y-36000000D01*
X30500000Y-2100000D02*
X31400000Y-3000000D01*
X31400000Y-3000000D02*
X32300000Y-3000000D01*
X24120000Y-37000000D02*
X24700000Y-37000000D01*
X22675000Y-36925000D02*
X22675000Y-37025000D01*
X50600000Y-22000000D02*
X49625000Y-22000000D01*
X22025000Y-35065000D02*
X22000000Y-35100000D01*
X19000000Y-24400000D02*
X19500000Y-23900000D01*
X51000000Y-12400000D02*
X51000000Y-11625000D01*
X4400000Y-18240000D02*
X4400000Y-19000000D01*
X22075000Y-35700000D02*
X22025000Y-34975000D01*
X22700000Y-36300000D02*
X22675000Y-37025000D01*
D17*
%TO.N,SOLAR_IN*%
X24800000Y-21900000D02*
X20000000Y-26700000D01*
X14600000Y-31400000D02*
X7000000Y-39000000D01*
%TO.N,EN*%
X17700000Y-11600000D02*
X17700000Y-34600000D01*
X17700000Y-34600000D02*
X22200000Y-39100000D01*
%TO.N,SPI_SCK*%
X23100000Y-12000000D02*
X20000000Y-12000000D01*
%TO.N,SPI_NSS*%
X23100000Y-18500000D02*
X24000000Y-17600000D01*
%TO.N,LR_DIO0*%
X28000000Y-12700000D02*
X32600000Y-8100000D01*
%TO.N,UART0_RX*%
X30200000Y-24700000D02*
X30200000Y-39100000D01*
X28900000Y-23400000D02*
X30200000Y-24700000D01*
%TD*%
%TA.AperFunction,Conductor*%
%TO.N,GND*%
G36*
X54458691Y-519407D02*
G01*
X54494655Y-568907D01*
X54499500Y-599500D01*
X54499500Y-44400500D01*
X54480593Y-44458691D01*
X54431093Y-44494655D01*
X54400500Y-44499500D01*
X599500Y-44499500D01*
X541309Y-44480593D01*
X505345Y-44431093D01*
X500500Y-44400500D01*
X500500Y-41128278D01*
X2929500Y-41128278D01*
X2929500Y-42871714D01*
X2929501Y-42871724D01*
X2942292Y-42936033D01*
X2942293Y-42936036D01*
X2950729Y-42948661D01*
X2991028Y-43008972D01*
X3006651Y-43019411D01*
X3063964Y-43057707D01*
X3079933Y-43060883D01*
X3128281Y-43070500D01*
X4871718Y-43070499D01*
X4871722Y-43070498D01*
X4871724Y-43070498D01*
X4892757Y-43066314D01*
X4936035Y-43057707D01*
X5008972Y-43008972D01*
X5057707Y-42936035D01*
X5069003Y-42879244D01*
X5069004Y-42879243D01*
X5069004Y-42879241D01*
X5070499Y-42871724D01*
X5070500Y-42871719D01*
X5070499Y-41913424D01*
X5440000Y-41913424D01*
X5440000Y-42086575D01*
X5467084Y-42257579D01*
X5520588Y-42422248D01*
X5599196Y-42576524D01*
X5603708Y-42582735D01*
X6057036Y-42129406D01*
X6074075Y-42192993D01*
X6139901Y-42307007D01*
X6232993Y-42400099D01*
X6347007Y-42465925D01*
X6410589Y-42482962D01*
X5957262Y-42936289D01*
X5957262Y-42936290D01*
X5963469Y-42940800D01*
X5963475Y-42940804D01*
X6117751Y-43019411D01*
X6282420Y-43072915D01*
X6453425Y-43100000D01*
X6626575Y-43100000D01*
X6797579Y-43072915D01*
X6962248Y-43019411D01*
X7116523Y-42940804D01*
X7116530Y-42940800D01*
X7122736Y-42936290D01*
X6669408Y-42482962D01*
X6732993Y-42465925D01*
X6847007Y-42400099D01*
X6940099Y-42307007D01*
X7005925Y-42192993D01*
X7022962Y-42129408D01*
X7476290Y-42582736D01*
X7480800Y-42576530D01*
X7480804Y-42576523D01*
X7559411Y-42422248D01*
X7612914Y-42257580D01*
X7623064Y-42193505D01*
X7623064Y-42193504D01*
X7640000Y-42086575D01*
X7640000Y-41913427D01*
X7638695Y-41905186D01*
X7638695Y-41905184D01*
X7612915Y-41742420D01*
X7559411Y-41577751D01*
X7480804Y-41423475D01*
X7480800Y-41423469D01*
X7476290Y-41417262D01*
X7476289Y-41417262D01*
X7022962Y-41870589D01*
X7005925Y-41807007D01*
X6940099Y-41692993D01*
X6847007Y-41599901D01*
X6732993Y-41534075D01*
X6669407Y-41517036D01*
X7061069Y-41125375D01*
X18900000Y-41125375D01*
X18900000Y-41749999D01*
X18900001Y-41750000D01*
X19566988Y-41750000D01*
X19534075Y-41807007D01*
X19500000Y-41934174D01*
X19500000Y-42065826D01*
X19534075Y-42192993D01*
X19566988Y-42250000D01*
X18900001Y-42250000D01*
X18900000Y-42250001D01*
X18900000Y-42874624D01*
X18914506Y-42947546D01*
X18914507Y-42947548D01*
X18969758Y-43030237D01*
X18969762Y-43030241D01*
X19052451Y-43085492D01*
X19052453Y-43085493D01*
X19125375Y-43099999D01*
X19125377Y-43100000D01*
X19749999Y-43100000D01*
X19750000Y-43099999D01*
X19750000Y-42433012D01*
X19807007Y-42465925D01*
X19934174Y-42500000D01*
X20065826Y-42500000D01*
X20192993Y-42465925D01*
X20250000Y-42433012D01*
X20250000Y-43099999D01*
X20250001Y-43100000D01*
X20874623Y-43100000D01*
X20874624Y-43099999D01*
X20947546Y-43085493D01*
X20947548Y-43085492D01*
X21030237Y-43030241D01*
X21030241Y-43030237D01*
X21085492Y-42947548D01*
X21085493Y-42947546D01*
X21099999Y-42874624D01*
X21100000Y-42874622D01*
X21100000Y-42250001D01*
X21099999Y-42250000D01*
X20433012Y-42250000D01*
X20465925Y-42192993D01*
X20500000Y-42065826D01*
X20500000Y-41934174D01*
X20489386Y-41894562D01*
X21469500Y-41894562D01*
X21469500Y-42105437D01*
X21510637Y-42312251D01*
X21591334Y-42507070D01*
X21591338Y-42507079D01*
X21675113Y-42632455D01*
X21708488Y-42682404D01*
X21857596Y-42831512D01*
X21917763Y-42871714D01*
X22032920Y-42948661D01*
X22032926Y-42948663D01*
X22032928Y-42948665D01*
X22227747Y-43029362D01*
X22434565Y-43070500D01*
X22434566Y-43070500D01*
X22645434Y-43070500D01*
X22645435Y-43070500D01*
X22852253Y-43029362D01*
X23047072Y-42948665D01*
X23047075Y-42948662D01*
X23047079Y-42948661D01*
X23097704Y-42914833D01*
X23222404Y-42831512D01*
X23371512Y-42682404D01*
X23454833Y-42557704D01*
X23488661Y-42507079D01*
X23488662Y-42507075D01*
X23488665Y-42507072D01*
X23569362Y-42312253D01*
X23610500Y-42105435D01*
X23610500Y-41894565D01*
X23610499Y-41894562D01*
X24009500Y-41894562D01*
X24009500Y-42105437D01*
X24050637Y-42312251D01*
X24131334Y-42507070D01*
X24131338Y-42507079D01*
X24215113Y-42632455D01*
X24248488Y-42682404D01*
X24397596Y-42831512D01*
X24457763Y-42871714D01*
X24572920Y-42948661D01*
X24572926Y-42948663D01*
X24572928Y-42948665D01*
X24767747Y-43029362D01*
X24974565Y-43070500D01*
X24974566Y-43070500D01*
X25185434Y-43070500D01*
X25185435Y-43070500D01*
X25392253Y-43029362D01*
X25587072Y-42948665D01*
X25587075Y-42948662D01*
X25587079Y-42948661D01*
X25637704Y-42914833D01*
X25762404Y-42831512D01*
X25911512Y-42682404D01*
X25994833Y-42557704D01*
X26028661Y-42507079D01*
X26028662Y-42507075D01*
X26028665Y-42507072D01*
X26109362Y-42312253D01*
X26150500Y-42105435D01*
X26150500Y-41894565D01*
X26150499Y-41894562D01*
X26549500Y-41894562D01*
X26549500Y-42105437D01*
X26590637Y-42312251D01*
X26671334Y-42507070D01*
X26671338Y-42507079D01*
X26755113Y-42632455D01*
X26788488Y-42682404D01*
X26937596Y-42831512D01*
X26997763Y-42871714D01*
X27112920Y-42948661D01*
X27112926Y-42948663D01*
X27112928Y-42948665D01*
X27307747Y-43029362D01*
X27514565Y-43070500D01*
X27514566Y-43070500D01*
X27725434Y-43070500D01*
X27725435Y-43070500D01*
X27932253Y-43029362D01*
X28127072Y-42948665D01*
X28127075Y-42948662D01*
X28127079Y-42948661D01*
X28177704Y-42914833D01*
X28302404Y-42831512D01*
X28451512Y-42682404D01*
X28534833Y-42557704D01*
X28568661Y-42507079D01*
X28568662Y-42507075D01*
X28568665Y-42507072D01*
X28649362Y-42312253D01*
X28690500Y-42105435D01*
X28690500Y-41894565D01*
X28690499Y-41894562D01*
X29089500Y-41894562D01*
X29089500Y-42105437D01*
X29130637Y-42312251D01*
X29211334Y-42507070D01*
X29211338Y-42507079D01*
X29295113Y-42632455D01*
X29328488Y-42682404D01*
X29477596Y-42831512D01*
X29537763Y-42871714D01*
X29652920Y-42948661D01*
X29652926Y-42948663D01*
X29652928Y-42948665D01*
X29847747Y-43029362D01*
X30054565Y-43070500D01*
X30054566Y-43070500D01*
X30265434Y-43070500D01*
X30265435Y-43070500D01*
X30472253Y-43029362D01*
X30667072Y-42948665D01*
X30667075Y-42948662D01*
X30667079Y-42948661D01*
X30717704Y-42914833D01*
X30842404Y-42831512D01*
X30991512Y-42682404D01*
X31074833Y-42557704D01*
X31108661Y-42507079D01*
X31108662Y-42507075D01*
X31108665Y-42507072D01*
X31189362Y-42312253D01*
X31230500Y-42105435D01*
X31230500Y-41894565D01*
X31230499Y-41894562D01*
X31629500Y-41894562D01*
X31629500Y-42105437D01*
X31670637Y-42312251D01*
X31751334Y-42507070D01*
X31751338Y-42507079D01*
X31835113Y-42632455D01*
X31868488Y-42682404D01*
X32017596Y-42831512D01*
X32077763Y-42871714D01*
X32192920Y-42948661D01*
X32192926Y-42948663D01*
X32192928Y-42948665D01*
X32387747Y-43029362D01*
X32594565Y-43070500D01*
X32594566Y-43070500D01*
X32805434Y-43070500D01*
X32805435Y-43070500D01*
X33012253Y-43029362D01*
X33207072Y-42948665D01*
X33207075Y-42948662D01*
X33207079Y-42948661D01*
X33257704Y-42914833D01*
X33382404Y-42831512D01*
X33531512Y-42682404D01*
X33614833Y-42557704D01*
X33648661Y-42507079D01*
X33648662Y-42507075D01*
X33648665Y-42507072D01*
X33729362Y-42312253D01*
X33770500Y-42105435D01*
X33770500Y-41894565D01*
X33729362Y-41687747D01*
X33648665Y-41492928D01*
X33648663Y-41492926D01*
X33648661Y-41492920D01*
X33581459Y-41392347D01*
X33531512Y-41317596D01*
X33382404Y-41168488D01*
X33322236Y-41128285D01*
X33317881Y-41125375D01*
X38900000Y-41125375D01*
X38900000Y-41749999D01*
X38900001Y-41750000D01*
X39566988Y-41750000D01*
X39534075Y-41807007D01*
X39500000Y-41934174D01*
X39500000Y-42065826D01*
X39534075Y-42192993D01*
X39566988Y-42250000D01*
X38900001Y-42250000D01*
X38900000Y-42250001D01*
X38900000Y-42874624D01*
X38914506Y-42947546D01*
X38914507Y-42947548D01*
X38969758Y-43030237D01*
X38969762Y-43030241D01*
X39052451Y-43085492D01*
X39052453Y-43085493D01*
X39125375Y-43099999D01*
X39125377Y-43100000D01*
X39749999Y-43100000D01*
X39750000Y-43099999D01*
X39750000Y-42433012D01*
X39807007Y-42465925D01*
X39934174Y-42500000D01*
X40065826Y-42500000D01*
X40192993Y-42465925D01*
X40250000Y-42433012D01*
X40250000Y-43099999D01*
X40250001Y-43100000D01*
X40874623Y-43100000D01*
X40874624Y-43099999D01*
X40947546Y-43085493D01*
X40947548Y-43085492D01*
X41030237Y-43030241D01*
X41030241Y-43030237D01*
X41085492Y-42947548D01*
X41085493Y-42947546D01*
X41099999Y-42874624D01*
X41100000Y-42874622D01*
X41100000Y-42250001D01*
X41099999Y-42250000D01*
X40433012Y-42250000D01*
X40465925Y-42192993D01*
X40500000Y-42065826D01*
X40500000Y-41934174D01*
X40489386Y-41894562D01*
X41469500Y-41894562D01*
X41469500Y-42105437D01*
X41510637Y-42312251D01*
X41591334Y-42507070D01*
X41591338Y-42507079D01*
X41675113Y-42632455D01*
X41708488Y-42682404D01*
X41857596Y-42831512D01*
X41917763Y-42871714D01*
X42032920Y-42948661D01*
X42032926Y-42948663D01*
X42032928Y-42948665D01*
X42227747Y-43029362D01*
X42434565Y-43070500D01*
X42434566Y-43070500D01*
X42645434Y-43070500D01*
X42645435Y-43070500D01*
X42852253Y-43029362D01*
X43047072Y-42948665D01*
X43047075Y-42948662D01*
X43047079Y-42948661D01*
X43097704Y-42914833D01*
X43222404Y-42831512D01*
X43371512Y-42682404D01*
X43454833Y-42557704D01*
X43488661Y-42507079D01*
X43488662Y-42507075D01*
X43488665Y-42507072D01*
X43569362Y-42312253D01*
X43610500Y-42105435D01*
X43610500Y-41894565D01*
X43610499Y-41894562D01*
X44009500Y-41894562D01*
X44009500Y-42105437D01*
X44050637Y-42312251D01*
X44131334Y-42507070D01*
X44131338Y-42507079D01*
X44215113Y-42632455D01*
X44248488Y-42682404D01*
X44397596Y-42831512D01*
X44457763Y-42871714D01*
X44572920Y-42948661D01*
X44572926Y-42948663D01*
X44572928Y-42948665D01*
X44767747Y-43029362D01*
X44974565Y-43070500D01*
X44974566Y-43070500D01*
X45185434Y-43070500D01*
X45185435Y-43070500D01*
X45392253Y-43029362D01*
X45587072Y-42948665D01*
X45587075Y-42948662D01*
X45587079Y-42948661D01*
X45637704Y-42914833D01*
X45762404Y-42831512D01*
X45911512Y-42682404D01*
X45994833Y-42557704D01*
X46028661Y-42507079D01*
X46028662Y-42507075D01*
X46028665Y-42507072D01*
X46109362Y-42312253D01*
X46150500Y-42105435D01*
X46150500Y-41894565D01*
X46150499Y-41894562D01*
X46549500Y-41894562D01*
X46549500Y-42105437D01*
X46590637Y-42312251D01*
X46671334Y-42507070D01*
X46671338Y-42507079D01*
X46755113Y-42632455D01*
X46788488Y-42682404D01*
X46937596Y-42831512D01*
X46997763Y-42871714D01*
X47112920Y-42948661D01*
X47112926Y-42948663D01*
X47112928Y-42948665D01*
X47307747Y-43029362D01*
X47514565Y-43070500D01*
X47514566Y-43070500D01*
X47725434Y-43070500D01*
X47725435Y-43070500D01*
X47932253Y-43029362D01*
X48127072Y-42948665D01*
X48127075Y-42948662D01*
X48127079Y-42948661D01*
X48177704Y-42914833D01*
X48302404Y-42831512D01*
X48451512Y-42682404D01*
X48534833Y-42557704D01*
X48568661Y-42507079D01*
X48568662Y-42507075D01*
X48568665Y-42507072D01*
X48649362Y-42312253D01*
X48690500Y-42105435D01*
X48690500Y-41894565D01*
X48649362Y-41687747D01*
X48568665Y-41492928D01*
X48568663Y-41492926D01*
X48568661Y-41492920D01*
X48501459Y-41392347D01*
X48451512Y-41317596D01*
X48302404Y-41168488D01*
X48242236Y-41128285D01*
X48127079Y-41051338D01*
X48127070Y-41051334D01*
X47932251Y-40970637D01*
X47725437Y-40929500D01*
X47725435Y-40929500D01*
X47514565Y-40929500D01*
X47514562Y-40929500D01*
X47307748Y-40970637D01*
X47112929Y-41051334D01*
X47112920Y-41051338D01*
X46937596Y-41168488D01*
X46937592Y-41168491D01*
X46788491Y-41317592D01*
X46788488Y-41317596D01*
X46671338Y-41492920D01*
X46671334Y-41492929D01*
X46590637Y-41687748D01*
X46549500Y-41894562D01*
X46150499Y-41894562D01*
X46109362Y-41687747D01*
X46028665Y-41492928D01*
X46028663Y-41492926D01*
X46028661Y-41492920D01*
X45961459Y-41392347D01*
X45911512Y-41317596D01*
X45762404Y-41168488D01*
X45702236Y-41128285D01*
X45587079Y-41051338D01*
X45587070Y-41051334D01*
X45392251Y-40970637D01*
X45185437Y-40929500D01*
X45185435Y-40929500D01*
X44974565Y-40929500D01*
X44974562Y-40929500D01*
X44767748Y-40970637D01*
X44572929Y-41051334D01*
X44572920Y-41051338D01*
X44397596Y-41168488D01*
X44397592Y-41168491D01*
X44248491Y-41317592D01*
X44248488Y-41317596D01*
X44131338Y-41492920D01*
X44131334Y-41492929D01*
X44050637Y-41687748D01*
X44009500Y-41894562D01*
X43610499Y-41894562D01*
X43569362Y-41687747D01*
X43488665Y-41492928D01*
X43488663Y-41492926D01*
X43488661Y-41492920D01*
X43421459Y-41392347D01*
X43371512Y-41317596D01*
X43222404Y-41168488D01*
X43162236Y-41128285D01*
X43047079Y-41051338D01*
X43047070Y-41051334D01*
X42852251Y-40970637D01*
X42645437Y-40929500D01*
X42645435Y-40929500D01*
X42434565Y-40929500D01*
X42434562Y-40929500D01*
X42227748Y-40970637D01*
X42032929Y-41051334D01*
X42032920Y-41051338D01*
X41857596Y-41168488D01*
X41857592Y-41168491D01*
X41708491Y-41317592D01*
X41708488Y-41317596D01*
X41591338Y-41492920D01*
X41591334Y-41492929D01*
X41510637Y-41687748D01*
X41469500Y-41894562D01*
X40489386Y-41894562D01*
X40465925Y-41807007D01*
X40433012Y-41750000D01*
X41099999Y-41750000D01*
X41100000Y-41749999D01*
X41100000Y-41125377D01*
X41099999Y-41125375D01*
X41085493Y-41052453D01*
X41085492Y-41052451D01*
X41030241Y-40969762D01*
X41030237Y-40969758D01*
X40947548Y-40914507D01*
X40947546Y-40914506D01*
X40874624Y-40900000D01*
X40250001Y-40900000D01*
X40250000Y-40900001D01*
X40250000Y-41566988D01*
X40192993Y-41534075D01*
X40065826Y-41500000D01*
X39934174Y-41500000D01*
X39807007Y-41534075D01*
X39750000Y-41566988D01*
X39750000Y-40900001D01*
X39749999Y-40900000D01*
X39125375Y-40900000D01*
X39052453Y-40914506D01*
X39052451Y-40914507D01*
X38969762Y-40969758D01*
X38969758Y-40969762D01*
X38914507Y-41052451D01*
X38914506Y-41052453D01*
X38900000Y-41125375D01*
X33317881Y-41125375D01*
X33207079Y-41051338D01*
X33207070Y-41051334D01*
X33012251Y-40970637D01*
X32805437Y-40929500D01*
X32805435Y-40929500D01*
X32594565Y-40929500D01*
X32594562Y-40929500D01*
X32387748Y-40970637D01*
X32192929Y-41051334D01*
X32192920Y-41051338D01*
X32017596Y-41168488D01*
X32017592Y-41168491D01*
X31868491Y-41317592D01*
X31868488Y-41317596D01*
X31751338Y-41492920D01*
X31751334Y-41492929D01*
X31670637Y-41687748D01*
X31629500Y-41894562D01*
X31230499Y-41894562D01*
X31189362Y-41687747D01*
X31108665Y-41492928D01*
X31108663Y-41492926D01*
X31108661Y-41492920D01*
X31041459Y-41392347D01*
X30991512Y-41317596D01*
X30842404Y-41168488D01*
X30782236Y-41128285D01*
X30667079Y-41051338D01*
X30667070Y-41051334D01*
X30472251Y-40970637D01*
X30265437Y-40929500D01*
X30265435Y-40929500D01*
X30054565Y-40929500D01*
X30054562Y-40929500D01*
X29847748Y-40970637D01*
X29652929Y-41051334D01*
X29652920Y-41051338D01*
X29477596Y-41168488D01*
X29477592Y-41168491D01*
X29328491Y-41317592D01*
X29328488Y-41317596D01*
X29211338Y-41492920D01*
X29211334Y-41492929D01*
X29130637Y-41687748D01*
X29089500Y-41894562D01*
X28690499Y-41894562D01*
X28649362Y-41687747D01*
X28568665Y-41492928D01*
X28568663Y-41492926D01*
X28568661Y-41492920D01*
X28501459Y-41392347D01*
X28451512Y-41317596D01*
X28302404Y-41168488D01*
X28242236Y-41128285D01*
X28127079Y-41051338D01*
X28127070Y-41051334D01*
X27932251Y-40970637D01*
X27725437Y-40929500D01*
X27725435Y-40929500D01*
X27514565Y-40929500D01*
X27514562Y-40929500D01*
X27307748Y-40970637D01*
X27112929Y-41051334D01*
X27112920Y-41051338D01*
X26937596Y-41168488D01*
X26937592Y-41168491D01*
X26788491Y-41317592D01*
X26788488Y-41317596D01*
X26671338Y-41492920D01*
X26671334Y-41492929D01*
X26590637Y-41687748D01*
X26549500Y-41894562D01*
X26150499Y-41894562D01*
X26109362Y-41687747D01*
X26028665Y-41492928D01*
X26028663Y-41492926D01*
X26028661Y-41492920D01*
X25961459Y-41392347D01*
X25911512Y-41317596D01*
X25762404Y-41168488D01*
X25702236Y-41128285D01*
X25587079Y-41051338D01*
X25587070Y-41051334D01*
X25392251Y-40970637D01*
X25185437Y-40929500D01*
X25185435Y-40929500D01*
X24974565Y-40929500D01*
X24974562Y-40929500D01*
X24767748Y-40970637D01*
X24572929Y-41051334D01*
X24572920Y-41051338D01*
X24397596Y-41168488D01*
X24397592Y-41168491D01*
X24248491Y-41317592D01*
X24248488Y-41317596D01*
X24131338Y-41492920D01*
X24131334Y-41492929D01*
X24050637Y-41687748D01*
X24009500Y-41894562D01*
X23610499Y-41894562D01*
X23569362Y-41687747D01*
X23488665Y-41492928D01*
X23488663Y-41492926D01*
X23488661Y-41492920D01*
X23421459Y-41392347D01*
X23371512Y-41317596D01*
X23222404Y-41168488D01*
X23162236Y-41128285D01*
X23047079Y-41051338D01*
X23047070Y-41051334D01*
X22852251Y-40970637D01*
X22645437Y-40929500D01*
X22645435Y-40929500D01*
X22434565Y-40929500D01*
X22434562Y-40929500D01*
X22227748Y-40970637D01*
X22032929Y-41051334D01*
X22032920Y-41051338D01*
X21857596Y-41168488D01*
X21857592Y-41168491D01*
X21708491Y-41317592D01*
X21708488Y-41317596D01*
X21591338Y-41492920D01*
X21591334Y-41492929D01*
X21510637Y-41687748D01*
X21469500Y-41894562D01*
X20489386Y-41894562D01*
X20465925Y-41807007D01*
X20433012Y-41750000D01*
X21099999Y-41750000D01*
X21100000Y-41749999D01*
X21100000Y-41125377D01*
X21099999Y-41125375D01*
X21085493Y-41052453D01*
X21085492Y-41052451D01*
X21030241Y-40969762D01*
X21030237Y-40969758D01*
X20947548Y-40914507D01*
X20947546Y-40914506D01*
X20874624Y-40900000D01*
X20250001Y-40900000D01*
X20250000Y-40900001D01*
X20250000Y-41566988D01*
X20192993Y-41534075D01*
X20065826Y-41500000D01*
X19934174Y-41500000D01*
X19807007Y-41534075D01*
X19750000Y-41566988D01*
X19750000Y-40900001D01*
X19749999Y-40900000D01*
X19125375Y-40900000D01*
X19052453Y-40914506D01*
X19052451Y-40914507D01*
X18969762Y-40969758D01*
X18969758Y-40969762D01*
X18914507Y-41052451D01*
X18914506Y-41052453D01*
X18900000Y-41125375D01*
X7061069Y-41125375D01*
X7122736Y-41063708D01*
X7116524Y-41059196D01*
X6962248Y-40980588D01*
X6797579Y-40927084D01*
X6626575Y-40900000D01*
X6453425Y-40900000D01*
X6282420Y-40927084D01*
X6117751Y-40980588D01*
X5963478Y-41059194D01*
X5957262Y-41063708D01*
X6410591Y-41517037D01*
X6347007Y-41534075D01*
X6232993Y-41599901D01*
X6139901Y-41692993D01*
X6074075Y-41807007D01*
X6057037Y-41870591D01*
X5603708Y-41417262D01*
X5599194Y-41423478D01*
X5520588Y-41577751D01*
X5467084Y-41742420D01*
X5440000Y-41913424D01*
X5070499Y-41913424D01*
X5070499Y-41128282D01*
X5057707Y-41063965D01*
X5057535Y-41063708D01*
X5008973Y-40991030D01*
X5008972Y-40991028D01*
X5008639Y-40990805D01*
X4936035Y-40942292D01*
X4871720Y-40929500D01*
X3128285Y-40929500D01*
X3128275Y-40929501D01*
X3063966Y-40942292D01*
X3063963Y-40942293D01*
X2991030Y-40991026D01*
X2991026Y-40991030D01*
X2942292Y-41063964D01*
X2929500Y-41128278D01*
X500500Y-41128278D01*
X500500Y-40131472D01*
X42779500Y-40131472D01*
X42779500Y-40268527D01*
X42814971Y-40400904D01*
X42814973Y-40400908D01*
X42883495Y-40519591D01*
X42883497Y-40519594D01*
X42980406Y-40616503D01*
X42980408Y-40616504D01*
X43099091Y-40685026D01*
X43099095Y-40685028D01*
X43231472Y-40720499D01*
X43231474Y-40720500D01*
X43231475Y-40720500D01*
X43368526Y-40720500D01*
X43368526Y-40720499D01*
X43500905Y-40685028D01*
X43619594Y-40616503D01*
X43716503Y-40519594D01*
X43785028Y-40400905D01*
X43820500Y-40268525D01*
X43820500Y-40131475D01*
X43785028Y-39999095D01*
X43716503Y-39880406D01*
X43619594Y-39783497D01*
X43619591Y-39783495D01*
X43500908Y-39714973D01*
X43500904Y-39714971D01*
X43368527Y-39679500D01*
X43368525Y-39679500D01*
X43231475Y-39679500D01*
X43231472Y-39679500D01*
X43099095Y-39714971D01*
X43099091Y-39714973D01*
X42980408Y-39783495D01*
X42883495Y-39880408D01*
X42814973Y-39999091D01*
X42814971Y-39999095D01*
X42779500Y-40131472D01*
X500500Y-40131472D01*
X500500Y-38931472D01*
X6479500Y-38931472D01*
X6479500Y-39068527D01*
X6514971Y-39200904D01*
X6514973Y-39200908D01*
X6583495Y-39319591D01*
X6583497Y-39319594D01*
X6680406Y-39416503D01*
X6680408Y-39416504D01*
X6799091Y-39485026D01*
X6799095Y-39485028D01*
X6931472Y-39520499D01*
X6931474Y-39520500D01*
X6931475Y-39520500D01*
X7068526Y-39520500D01*
X7068526Y-39520499D01*
X7200905Y-39485028D01*
X7319594Y-39416503D01*
X7416503Y-39319594D01*
X7485028Y-39200905D01*
X7520500Y-39068525D01*
X7520500Y-38973763D01*
X7539407Y-38915572D01*
X7549496Y-38903759D01*
X10021783Y-36431472D01*
X12579500Y-36431472D01*
X12579500Y-36568527D01*
X12614971Y-36700904D01*
X12614973Y-36700908D01*
X12683495Y-36819591D01*
X12683497Y-36819594D01*
X12780406Y-36916503D01*
X12780408Y-36916504D01*
X12899091Y-36985026D01*
X12899095Y-36985028D01*
X13031472Y-37020499D01*
X13031474Y-37020500D01*
X13031475Y-37020500D01*
X13168526Y-37020500D01*
X13168526Y-37020499D01*
X13300905Y-36985028D01*
X13419594Y-36916503D01*
X13516503Y-36819594D01*
X13585028Y-36700905D01*
X13620500Y-36568525D01*
X13620500Y-36431475D01*
X13585028Y-36299095D01*
X13516503Y-36180406D01*
X13419594Y-36083497D01*
X13419591Y-36083495D01*
X13300908Y-36014973D01*
X13300904Y-36014971D01*
X13168527Y-35979500D01*
X13168525Y-35979500D01*
X13031475Y-35979500D01*
X13031472Y-35979500D01*
X12899095Y-36014971D01*
X12899091Y-36014973D01*
X12780408Y-36083495D01*
X12683495Y-36180408D01*
X12614973Y-36299091D01*
X12614971Y-36299095D01*
X12579500Y-36431472D01*
X10021783Y-36431472D01*
X14503759Y-31949496D01*
X14558276Y-31921719D01*
X14573763Y-31920500D01*
X14668526Y-31920500D01*
X14668526Y-31920499D01*
X14800905Y-31885028D01*
X14919594Y-31816503D01*
X15016503Y-31719594D01*
X15085028Y-31600905D01*
X15096016Y-31559896D01*
X15129340Y-31508585D01*
X15186461Y-31486659D01*
X15217265Y-31489896D01*
X15331472Y-31520499D01*
X15331474Y-31520500D01*
X15331475Y-31520500D01*
X15468526Y-31520500D01*
X15468526Y-31520499D01*
X15600905Y-31485028D01*
X15719594Y-31416503D01*
X15816503Y-31319594D01*
X15885028Y-31200905D01*
X15920500Y-31068525D01*
X15920500Y-30931475D01*
X15885028Y-30799095D01*
X15816503Y-30680406D01*
X15719594Y-30583497D01*
X15719591Y-30583495D01*
X15600908Y-30514973D01*
X15600904Y-30514971D01*
X15468527Y-30479500D01*
X15468525Y-30479500D01*
X15331475Y-30479500D01*
X15331472Y-30479500D01*
X15199095Y-30514971D01*
X15199091Y-30514973D01*
X15080408Y-30583495D01*
X14983495Y-30680408D01*
X14914973Y-30799091D01*
X14914972Y-30799092D01*
X14903983Y-30840102D01*
X14870657Y-30891415D01*
X14813535Y-30913340D01*
X14782734Y-30910103D01*
X14712991Y-30891415D01*
X14668525Y-30879500D01*
X14531475Y-30879500D01*
X14531472Y-30879500D01*
X14399095Y-30914971D01*
X14399091Y-30914973D01*
X14280408Y-30983495D01*
X14183495Y-31080408D01*
X14114973Y-31199091D01*
X14114971Y-31199095D01*
X14079500Y-31331472D01*
X14079500Y-31426237D01*
X14060593Y-31484428D01*
X14050504Y-31496241D01*
X7096241Y-38450504D01*
X7041724Y-38478281D01*
X7026237Y-38479500D01*
X6931472Y-38479500D01*
X6799095Y-38514971D01*
X6799091Y-38514973D01*
X6680408Y-38583495D01*
X6583495Y-38680408D01*
X6514973Y-38799091D01*
X6514971Y-38799095D01*
X6479500Y-38931472D01*
X500500Y-38931472D01*
X500500Y-29205000D01*
X4779500Y-29205000D01*
X4779500Y-30795000D01*
X4785525Y-30851040D01*
X4785526Y-30851042D01*
X4832805Y-30977804D01*
X4913882Y-31086112D01*
X4913887Y-31086117D01*
X5022195Y-31167194D01*
X5148960Y-31214475D01*
X5205000Y-31220500D01*
X5205003Y-31220500D01*
X6794997Y-31220500D01*
X6795000Y-31220500D01*
X6851040Y-31214475D01*
X6977805Y-31167194D01*
X7086115Y-31086115D01*
X7167194Y-30977805D01*
X7214475Y-30851040D01*
X7220500Y-30795000D01*
X7220500Y-29205000D01*
X7214475Y-29148960D01*
X7167194Y-29022195D01*
X7149899Y-28999091D01*
X7086117Y-28913887D01*
X7086112Y-28913882D01*
X6977804Y-28832805D01*
X6887591Y-28799158D01*
X6851040Y-28785525D01*
X6851036Y-28785524D01*
X6851034Y-28785524D01*
X6821676Y-28782368D01*
X6795000Y-28779500D01*
X5205000Y-28779500D01*
X5181977Y-28781975D01*
X5148965Y-28785524D01*
X5148961Y-28785524D01*
X5148960Y-28785525D01*
X5148957Y-28785525D01*
X5148957Y-28785526D01*
X5022195Y-28832805D01*
X4913887Y-28913882D01*
X4913882Y-28913887D01*
X4832805Y-29022195D01*
X4785526Y-29148957D01*
X4785525Y-29148960D01*
X4779500Y-29205000D01*
X500500Y-29205000D01*
X500500Y-24901619D01*
X4750000Y-24901619D01*
X4750000Y-25098380D01*
X4780778Y-25292710D01*
X4780779Y-25292714D01*
X4841576Y-25479826D01*
X4841578Y-25479829D01*
X4930907Y-25655148D01*
X4956319Y-25690125D01*
X5517036Y-25129407D01*
X5534075Y-25192993D01*
X5599901Y-25307007D01*
X5692993Y-25400099D01*
X5807007Y-25465925D01*
X5870590Y-25482962D01*
X5309874Y-26043678D01*
X5344860Y-26069097D01*
X5520170Y-26158421D01*
X5520173Y-26158423D01*
X5707285Y-26219220D01*
X5707289Y-26219221D01*
X5901620Y-26250000D01*
X6098380Y-26250000D01*
X6292710Y-26219221D01*
X6292714Y-26219220D01*
X6479826Y-26158423D01*
X6479829Y-26158421D01*
X6655142Y-26069096D01*
X6655148Y-26069092D01*
X6690125Y-26043679D01*
X6690125Y-26043678D01*
X6129409Y-25482962D01*
X6192993Y-25465925D01*
X6307007Y-25400099D01*
X6400099Y-25307007D01*
X6465925Y-25192993D01*
X6482962Y-25129409D01*
X7043678Y-25690125D01*
X7043679Y-25690125D01*
X7069092Y-25655148D01*
X7069096Y-25655142D01*
X7158421Y-25479829D01*
X7158423Y-25479826D01*
X7219220Y-25292714D01*
X7219221Y-25292710D01*
X7250000Y-25098380D01*
X7250000Y-24901619D01*
X7219221Y-24707289D01*
X7219220Y-24707285D01*
X7158423Y-24520173D01*
X7158421Y-24520170D01*
X7069097Y-24344860D01*
X7043678Y-24309874D01*
X6482962Y-24870590D01*
X6465925Y-24807007D01*
X6400099Y-24692993D01*
X6307007Y-24599901D01*
X6192993Y-24534075D01*
X6129407Y-24517036D01*
X6690125Y-23956319D01*
X6655148Y-23930907D01*
X6479829Y-23841578D01*
X6479826Y-23841576D01*
X6292714Y-23780779D01*
X6292710Y-23780778D01*
X6098380Y-23750000D01*
X5901620Y-23750000D01*
X5707289Y-23780778D01*
X5707285Y-23780779D01*
X5520173Y-23841576D01*
X5520170Y-23841578D01*
X5344856Y-23930904D01*
X5309873Y-23956319D01*
X5870591Y-24517037D01*
X5807007Y-24534075D01*
X5692993Y-24599901D01*
X5599901Y-24692993D01*
X5534075Y-24807007D01*
X5517037Y-24870591D01*
X4956319Y-24309873D01*
X4930904Y-24344856D01*
X4841578Y-24520170D01*
X4841576Y-24520173D01*
X4780779Y-24707285D01*
X4780778Y-24707289D01*
X4750000Y-24901619D01*
X500500Y-24901619D01*
X500500Y-16931472D01*
X5079500Y-16931472D01*
X5079500Y-17068527D01*
X5114971Y-17200904D01*
X5114973Y-17200908D01*
X5160873Y-17280408D01*
X5183497Y-17319594D01*
X5280406Y-17416503D01*
X5280408Y-17416504D01*
X5399091Y-17485026D01*
X5399095Y-17485028D01*
X5531472Y-17520499D01*
X5531474Y-17520500D01*
X5531475Y-17520500D01*
X5668526Y-17520500D01*
X5668526Y-17520499D01*
X5800905Y-17485028D01*
X5919594Y-17416503D01*
X6016503Y-17319594D01*
X6085028Y-17200905D01*
X6120500Y-17068525D01*
X6120500Y-16931475D01*
X6085028Y-16799095D01*
X6016503Y-16680406D01*
X5919594Y-16583497D01*
X5919591Y-16583495D01*
X5800908Y-16514973D01*
X5800904Y-16514971D01*
X5668527Y-16479500D01*
X5668525Y-16479500D01*
X5531475Y-16479500D01*
X5531472Y-16479500D01*
X5399095Y-16514971D01*
X5399091Y-16514973D01*
X5280408Y-16583495D01*
X5183495Y-16680408D01*
X5114973Y-16799091D01*
X5114971Y-16799095D01*
X5079500Y-16931472D01*
X500500Y-16931472D01*
X500500Y-11331472D01*
X16979500Y-11331472D01*
X16979500Y-11468527D01*
X17014971Y-11600904D01*
X17014973Y-11600908D01*
X17060873Y-11680408D01*
X17083497Y-11719594D01*
X17180406Y-11816503D01*
X17299095Y-11885028D01*
X17306122Y-11886910D01*
X17357436Y-11920232D01*
X17379364Y-11977353D01*
X17379500Y-11982537D01*
X17379500Y-34642195D01*
X17401341Y-34723709D01*
X17401342Y-34723712D01*
X17443534Y-34796789D01*
X17443536Y-34796792D01*
X17503208Y-34856464D01*
X17503210Y-34856465D01*
X21650504Y-39003759D01*
X21678281Y-39058276D01*
X21679500Y-39073763D01*
X21679500Y-39168527D01*
X21714971Y-39300904D01*
X21714973Y-39300908D01*
X21781712Y-39416503D01*
X21783497Y-39419594D01*
X21880406Y-39516503D01*
X21887329Y-39520500D01*
X21999091Y-39585026D01*
X21999095Y-39585028D01*
X22131472Y-39620499D01*
X22131474Y-39620500D01*
X22131475Y-39620500D01*
X22268526Y-39620500D01*
X22268526Y-39620499D01*
X22400905Y-39585028D01*
X22519594Y-39516503D01*
X22616503Y-39419594D01*
X22685028Y-39300905D01*
X22720500Y-39168525D01*
X22720500Y-39031475D01*
X22685028Y-38899095D01*
X22616503Y-38780406D01*
X22519594Y-38683497D01*
X22514244Y-38680408D01*
X22400908Y-38614973D01*
X22400904Y-38614971D01*
X22268527Y-38579500D01*
X22268525Y-38579500D01*
X22173763Y-38579500D01*
X22115572Y-38560593D01*
X22103759Y-38550504D01*
X18984727Y-35431472D01*
X24179500Y-35431472D01*
X24179500Y-35568527D01*
X24214971Y-35700904D01*
X24214973Y-35700908D01*
X24283495Y-35819591D01*
X24283497Y-35819594D01*
X24380406Y-35916503D01*
X24380408Y-35916504D01*
X24499091Y-35985026D01*
X24499095Y-35985028D01*
X24631472Y-36020499D01*
X24631474Y-36020500D01*
X24631475Y-36020500D01*
X24768526Y-36020500D01*
X24768526Y-36020499D01*
X24900905Y-35985028D01*
X25019594Y-35916503D01*
X25116503Y-35819594D01*
X25185028Y-35700905D01*
X25220500Y-35568525D01*
X25220500Y-35431475D01*
X25185028Y-35299095D01*
X25116503Y-35180406D01*
X25019594Y-35083497D01*
X25019591Y-35083495D01*
X24900908Y-35014973D01*
X24900904Y-35014971D01*
X24768527Y-34979500D01*
X24768525Y-34979500D01*
X24631475Y-34979500D01*
X24631472Y-34979500D01*
X24499095Y-35014971D01*
X24499091Y-35014973D01*
X24380408Y-35083495D01*
X24283495Y-35180408D01*
X24214973Y-35299091D01*
X24214971Y-35299095D01*
X24179500Y-35431472D01*
X18984727Y-35431472D01*
X18049496Y-34496241D01*
X18021719Y-34441724D01*
X18020500Y-34426237D01*
X18020500Y-29831472D01*
X19579500Y-29831472D01*
X19579500Y-29968527D01*
X19614971Y-30100904D01*
X19614973Y-30100908D01*
X19683495Y-30219591D01*
X19683497Y-30219594D01*
X19780406Y-30316503D01*
X19780408Y-30316504D01*
X19899091Y-30385026D01*
X19899095Y-30385028D01*
X20031472Y-30420499D01*
X20031474Y-30420500D01*
X20031475Y-30420500D01*
X20168526Y-30420500D01*
X20168526Y-30420499D01*
X20300905Y-30385028D01*
X20419594Y-30316503D01*
X20516503Y-30219594D01*
X20585028Y-30100905D01*
X20620500Y-29968525D01*
X20620500Y-29831475D01*
X20585028Y-29699095D01*
X20576906Y-29685028D01*
X20516504Y-29580408D01*
X20516503Y-29580406D01*
X20419594Y-29483497D01*
X20419591Y-29483495D01*
X20300908Y-29414973D01*
X20300904Y-29414971D01*
X20168527Y-29379500D01*
X20168525Y-29379500D01*
X20031475Y-29379500D01*
X20031472Y-29379500D01*
X19899095Y-29414971D01*
X19899091Y-29414973D01*
X19780408Y-29483495D01*
X19683495Y-29580408D01*
X19614973Y-29699091D01*
X19614971Y-29699095D01*
X19579500Y-29831472D01*
X18020500Y-29831472D01*
X18020500Y-26631472D01*
X19479500Y-26631472D01*
X19479500Y-26768527D01*
X19514971Y-26900904D01*
X19514973Y-26900908D01*
X19571662Y-26999095D01*
X19583497Y-27019594D01*
X19680406Y-27116503D01*
X19680408Y-27116504D01*
X19799091Y-27185026D01*
X19799095Y-27185028D01*
X19931472Y-27220499D01*
X19931474Y-27220500D01*
X19931475Y-27220500D01*
X20068526Y-27220500D01*
X20074959Y-27219653D01*
X20075290Y-27222167D01*
X20125526Y-27224795D01*
X20173080Y-27263296D01*
X20185682Y-27291599D01*
X20214971Y-27400904D01*
X20214973Y-27400908D01*
X20283495Y-27519591D01*
X20283497Y-27519594D01*
X20380406Y-27616503D01*
X20380408Y-27616504D01*
X20499091Y-27685026D01*
X20499095Y-27685028D01*
X20631472Y-27720499D01*
X20631474Y-27720500D01*
X20631475Y-27720500D01*
X20768526Y-27720500D01*
X20768526Y-27720499D01*
X20900905Y-27685028D01*
X21019594Y-27616503D01*
X21116503Y-27519594D01*
X21185028Y-27400905D01*
X21220500Y-27268525D01*
X21220500Y-27131475D01*
X21185028Y-26999095D01*
X21116503Y-26880406D01*
X21019594Y-26783497D01*
X21019591Y-26783495D01*
X20900908Y-26714973D01*
X20900904Y-26714971D01*
X20768527Y-26679500D01*
X20768525Y-26679500D01*
X20712763Y-26679500D01*
X20654572Y-26660593D01*
X20618608Y-26611093D01*
X20618608Y-26549907D01*
X20642759Y-26510496D01*
X21109577Y-26043678D01*
X22864219Y-24289034D01*
X22918734Y-24261259D01*
X22979166Y-24270830D01*
X23019957Y-24309540D01*
X23020150Y-24309874D01*
X23083497Y-24419594D01*
X23180406Y-24516503D01*
X23186763Y-24520173D01*
X23299091Y-24585026D01*
X23299095Y-24585028D01*
X23431472Y-24620499D01*
X23431474Y-24620500D01*
X23431475Y-24620500D01*
X23568526Y-24620500D01*
X23568526Y-24620499D01*
X23700905Y-24585028D01*
X23819594Y-24516503D01*
X23916503Y-24419594D01*
X23985028Y-24300905D01*
X24020500Y-24168525D01*
X24020500Y-24031475D01*
X23985028Y-23899095D01*
X23976906Y-23885028D01*
X23916504Y-23780408D01*
X23916503Y-23780406D01*
X23819594Y-23683497D01*
X23819591Y-23683495D01*
X23709540Y-23619957D01*
X23668599Y-23574488D01*
X23662203Y-23513638D01*
X23689034Y-23464219D01*
X23821781Y-23331472D01*
X28379500Y-23331472D01*
X28379500Y-23468527D01*
X28414971Y-23600904D01*
X28414973Y-23600908D01*
X28462655Y-23683495D01*
X28483497Y-23719594D01*
X28580406Y-23816503D01*
X28580408Y-23816504D01*
X28699091Y-23885026D01*
X28699095Y-23885028D01*
X28831472Y-23920499D01*
X28831474Y-23920500D01*
X28831475Y-23920500D01*
X28926237Y-23920500D01*
X28984428Y-23939407D01*
X28996241Y-23949496D01*
X29850504Y-24803759D01*
X29878281Y-24858276D01*
X29879500Y-24873763D01*
X29879500Y-38643395D01*
X29860593Y-38701586D01*
X29850504Y-38713398D01*
X29783496Y-38780406D01*
X29714973Y-38899091D01*
X29714971Y-38899095D01*
X29679500Y-39031472D01*
X29679500Y-39168527D01*
X29714971Y-39300904D01*
X29714973Y-39300908D01*
X29781712Y-39416503D01*
X29783497Y-39419594D01*
X29880406Y-39516503D01*
X29887329Y-39520500D01*
X29999091Y-39585026D01*
X29999095Y-39585028D01*
X30131472Y-39620499D01*
X30131474Y-39620500D01*
X30131475Y-39620500D01*
X30268526Y-39620500D01*
X30268526Y-39620499D01*
X30400905Y-39585028D01*
X30519594Y-39516503D01*
X30616503Y-39419594D01*
X30685028Y-39300905D01*
X30720500Y-39168525D01*
X30720500Y-39031475D01*
X30685028Y-38899095D01*
X30616503Y-38780406D01*
X30549496Y-38713398D01*
X30521719Y-38658881D01*
X30520500Y-38643395D01*
X30520500Y-29131472D01*
X32279500Y-29131472D01*
X32279500Y-29268527D01*
X32314971Y-29400904D01*
X32314973Y-29400908D01*
X32362655Y-29483495D01*
X32383497Y-29519594D01*
X32480406Y-29616503D01*
X32480408Y-29616504D01*
X32599091Y-29685026D01*
X32599095Y-29685028D01*
X32731472Y-29720499D01*
X32731474Y-29720500D01*
X32731475Y-29720500D01*
X32868526Y-29720500D01*
X32868526Y-29720499D01*
X33000905Y-29685028D01*
X33119594Y-29616503D01*
X33216503Y-29519594D01*
X33285028Y-29400905D01*
X33320500Y-29268525D01*
X33320500Y-29131475D01*
X33285028Y-28999095D01*
X33216503Y-28880406D01*
X33119594Y-28783497D01*
X33112671Y-28779500D01*
X33000908Y-28714973D01*
X33000904Y-28714971D01*
X32868527Y-28679500D01*
X32868525Y-28679500D01*
X32731475Y-28679500D01*
X32731472Y-28679500D01*
X32599095Y-28714971D01*
X32599091Y-28714973D01*
X32480408Y-28783495D01*
X32383495Y-28880408D01*
X32314973Y-28999091D01*
X32314971Y-28999095D01*
X32279500Y-29131472D01*
X30520500Y-29131472D01*
X30520500Y-24750182D01*
X30520501Y-24750169D01*
X30520501Y-24657807D01*
X30520501Y-24657806D01*
X30498660Y-24576292D01*
X30464140Y-24516503D01*
X30456464Y-24503208D01*
X30396792Y-24443536D01*
X30396789Y-24443534D01*
X29449496Y-23496241D01*
X29421719Y-23441724D01*
X29420500Y-23426237D01*
X29420500Y-23331474D01*
X29420499Y-23331472D01*
X29385028Y-23199095D01*
X29385026Y-23199091D01*
X29316504Y-23080408D01*
X29316503Y-23080406D01*
X29219594Y-22983497D01*
X29219591Y-22983495D01*
X29100908Y-22914973D01*
X29100904Y-22914971D01*
X28968527Y-22879500D01*
X28968525Y-22879500D01*
X28831475Y-22879500D01*
X28831472Y-22879500D01*
X28699095Y-22914971D01*
X28699091Y-22914973D01*
X28580408Y-22983495D01*
X28483495Y-23080408D01*
X28414973Y-23199091D01*
X28414971Y-23199095D01*
X28379500Y-23331472D01*
X23821781Y-23331472D01*
X24345679Y-22807575D01*
X24703760Y-22449496D01*
X24758276Y-22421719D01*
X24773763Y-22420500D01*
X24868526Y-22420500D01*
X24868526Y-22420499D01*
X25000905Y-22385028D01*
X25119594Y-22316503D01*
X25216503Y-22219594D01*
X25285028Y-22100905D01*
X25320500Y-21968525D01*
X25320500Y-21831475D01*
X25285028Y-21699095D01*
X25216503Y-21580406D01*
X25119594Y-21483497D01*
X25119591Y-21483495D01*
X25000908Y-21414973D01*
X25000904Y-21414971D01*
X24868527Y-21379500D01*
X24868525Y-21379500D01*
X24731475Y-21379500D01*
X24731472Y-21379500D01*
X24599095Y-21414971D01*
X24599091Y-21414973D01*
X24480408Y-21483495D01*
X24383495Y-21580408D01*
X24314973Y-21699091D01*
X24314971Y-21699095D01*
X24279500Y-21831472D01*
X24279500Y-21926237D01*
X24260593Y-21984428D01*
X24250504Y-21996241D01*
X20096241Y-26150504D01*
X20041724Y-26178281D01*
X20026237Y-26179500D01*
X19931472Y-26179500D01*
X19799095Y-26214971D01*
X19799091Y-26214973D01*
X19680408Y-26283495D01*
X19583495Y-26380408D01*
X19514973Y-26499091D01*
X19514971Y-26499095D01*
X19479500Y-26631472D01*
X18020500Y-26631472D01*
X18020500Y-24431472D01*
X19379500Y-24431472D01*
X19379500Y-24568527D01*
X19414971Y-24700904D01*
X19414973Y-24700908D01*
X19476230Y-24807007D01*
X19483497Y-24819594D01*
X19580406Y-24916503D01*
X19580408Y-24916504D01*
X19699091Y-24985026D01*
X19699095Y-24985028D01*
X19831472Y-25020499D01*
X19831474Y-25020500D01*
X19831475Y-25020500D01*
X19968526Y-25020500D01*
X19968526Y-25020499D01*
X20100905Y-24985028D01*
X20219594Y-24916503D01*
X20316503Y-24819594D01*
X20385028Y-24700905D01*
X20420500Y-24568525D01*
X20420500Y-24431475D01*
X20385028Y-24299095D01*
X20379220Y-24289036D01*
X20316504Y-24180408D01*
X20316503Y-24180406D01*
X20219594Y-24083497D01*
X20219591Y-24083495D01*
X20100908Y-24014973D01*
X20100904Y-24014971D01*
X19968527Y-23979500D01*
X19968525Y-23979500D01*
X19831475Y-23979500D01*
X19831472Y-23979500D01*
X19699095Y-24014971D01*
X19699091Y-24014973D01*
X19580408Y-24083495D01*
X19483495Y-24180408D01*
X19414973Y-24299091D01*
X19414971Y-24299095D01*
X19379500Y-24431472D01*
X18020500Y-24431472D01*
X18020500Y-18431472D01*
X22579500Y-18431472D01*
X22579500Y-18568527D01*
X22614971Y-18700904D01*
X22614973Y-18700908D01*
X22683495Y-18819591D01*
X22683497Y-18819594D01*
X22780406Y-18916503D01*
X22780408Y-18916504D01*
X22899091Y-18985026D01*
X22899095Y-18985028D01*
X23031472Y-19020499D01*
X23031474Y-19020500D01*
X23031475Y-19020500D01*
X23168526Y-19020500D01*
X23168526Y-19020499D01*
X23300905Y-18985028D01*
X23419594Y-18916503D01*
X23516503Y-18819594D01*
X23585028Y-18700905D01*
X23620500Y-18568525D01*
X23620500Y-18473763D01*
X23639407Y-18415572D01*
X23649496Y-18403759D01*
X23903759Y-18149496D01*
X23958276Y-18121719D01*
X23973763Y-18120500D01*
X24068526Y-18120500D01*
X24068526Y-18120499D01*
X24200905Y-18085028D01*
X24319594Y-18016503D01*
X24416503Y-17919594D01*
X24485028Y-17800905D01*
X24520500Y-17668525D01*
X24520500Y-17531475D01*
X24485028Y-17399095D01*
X24416503Y-17280406D01*
X24319594Y-17183497D01*
X24319591Y-17183495D01*
X24300341Y-17172381D01*
X24259400Y-17126912D01*
X24253004Y-17066061D01*
X24264105Y-17037144D01*
X24285026Y-17000908D01*
X24285028Y-17000905D01*
X24320500Y-16868525D01*
X24320500Y-16731475D01*
X24285028Y-16599095D01*
X24276021Y-16583495D01*
X24216504Y-16480408D01*
X24216503Y-16480406D01*
X24119594Y-16383497D01*
X24119591Y-16383495D01*
X24000908Y-16314973D01*
X24000904Y-16314971D01*
X23868527Y-16279500D01*
X23868525Y-16279500D01*
X23731475Y-16279500D01*
X23731472Y-16279500D01*
X23599095Y-16314971D01*
X23599091Y-16314973D01*
X23480408Y-16383495D01*
X23383495Y-16480408D01*
X23314973Y-16599091D01*
X23314971Y-16599095D01*
X23279500Y-16731472D01*
X23279500Y-16868527D01*
X23314971Y-17000904D01*
X23314973Y-17000908D01*
X23383495Y-17119591D01*
X23383497Y-17119594D01*
X23480406Y-17216503D01*
X23499657Y-17227617D01*
X23540599Y-17273086D01*
X23546995Y-17333936D01*
X23535895Y-17362853D01*
X23514972Y-17399093D01*
X23514971Y-17399095D01*
X23479500Y-17531472D01*
X23479500Y-17626237D01*
X23460593Y-17684428D01*
X23450504Y-17696241D01*
X23196241Y-17950504D01*
X23141724Y-17978281D01*
X23126237Y-17979500D01*
X23031472Y-17979500D01*
X22899095Y-18014971D01*
X22899091Y-18014973D01*
X22780408Y-18083495D01*
X22683495Y-18180408D01*
X22614973Y-18299091D01*
X22614971Y-18299095D01*
X22579500Y-18431472D01*
X18020500Y-18431472D01*
X18020500Y-13231472D01*
X19479500Y-13231472D01*
X19479500Y-13368527D01*
X19514971Y-13500904D01*
X19514973Y-13500908D01*
X19581712Y-13616503D01*
X19583497Y-13619594D01*
X19680406Y-13716503D01*
X19731130Y-13745788D01*
X19763130Y-13764264D01*
X19804070Y-13809734D01*
X19810465Y-13870584D01*
X19779872Y-13923572D01*
X19763130Y-13935736D01*
X19680407Y-13983496D01*
X19583495Y-14080408D01*
X19514973Y-14199091D01*
X19514971Y-14199095D01*
X19479500Y-14331472D01*
X19479500Y-14468527D01*
X19514971Y-14600904D01*
X19514973Y-14600908D01*
X19583495Y-14719591D01*
X19583497Y-14719594D01*
X19680406Y-14816503D01*
X19680408Y-14816504D01*
X19799091Y-14885026D01*
X19799095Y-14885028D01*
X19931472Y-14920499D01*
X19931474Y-14920500D01*
X19931475Y-14920500D01*
X20068526Y-14920500D01*
X20068526Y-14920499D01*
X20200905Y-14885028D01*
X20319594Y-14816503D01*
X20416503Y-14719594D01*
X20485028Y-14600905D01*
X20520500Y-14468525D01*
X20520500Y-14331475D01*
X20485028Y-14199095D01*
X20416503Y-14080406D01*
X20319594Y-13983497D01*
X20319591Y-13983495D01*
X20236870Y-13935736D01*
X20195929Y-13890267D01*
X20189533Y-13829417D01*
X20220126Y-13776429D01*
X20236870Y-13764264D01*
X20264352Y-13748396D01*
X20319594Y-13716503D01*
X20416503Y-13619594D01*
X20485028Y-13500905D01*
X20520500Y-13368525D01*
X20520500Y-13231475D01*
X20485028Y-13099095D01*
X20416503Y-12980406D01*
X20319594Y-12883497D01*
X20314244Y-12880408D01*
X20200908Y-12814973D01*
X20200904Y-12814971D01*
X20068527Y-12779500D01*
X20068525Y-12779500D01*
X19931475Y-12779500D01*
X19931472Y-12779500D01*
X19799095Y-12814971D01*
X19799091Y-12814973D01*
X19680408Y-12883495D01*
X19583495Y-12980408D01*
X19514973Y-13099091D01*
X19514971Y-13099095D01*
X19479500Y-13231472D01*
X18020500Y-13231472D01*
X18020500Y-11931472D01*
X19479500Y-11931472D01*
X19479500Y-12068527D01*
X19514971Y-12200904D01*
X19514973Y-12200908D01*
X19562655Y-12283495D01*
X19583497Y-12319594D01*
X19680406Y-12416503D01*
X19680408Y-12416504D01*
X19799091Y-12485026D01*
X19799095Y-12485028D01*
X19931472Y-12520499D01*
X19931474Y-12520500D01*
X19931475Y-12520500D01*
X20068526Y-12520500D01*
X20068526Y-12520499D01*
X20200905Y-12485028D01*
X20319594Y-12416503D01*
X20355691Y-12380406D01*
X20386602Y-12349496D01*
X20441119Y-12321719D01*
X20456605Y-12320500D01*
X22643395Y-12320500D01*
X22701586Y-12339407D01*
X22713398Y-12349496D01*
X22780406Y-12416503D01*
X22899091Y-12485026D01*
X22899095Y-12485028D01*
X22971292Y-12504374D01*
X23022606Y-12537698D01*
X23044532Y-12594819D01*
X23028696Y-12653920D01*
X22981146Y-12692425D01*
X22971292Y-12695626D01*
X22899095Y-12714971D01*
X22899091Y-12714973D01*
X22780408Y-12783495D01*
X22683495Y-12880408D01*
X22614973Y-12999091D01*
X22614971Y-12999095D01*
X22579500Y-13131472D01*
X22579500Y-13268527D01*
X22614971Y-13400904D01*
X22614973Y-13400908D01*
X22683495Y-13519591D01*
X22683497Y-13519594D01*
X22780406Y-13616503D01*
X22780408Y-13616504D01*
X22899091Y-13685026D01*
X22899095Y-13685028D01*
X23031472Y-13720499D01*
X23031474Y-13720500D01*
X23031475Y-13720500D01*
X23168526Y-13720500D01*
X23168526Y-13720499D01*
X23300905Y-13685028D01*
X23419594Y-13616503D01*
X23504625Y-13531472D01*
X31979500Y-13531472D01*
X31979500Y-13668527D01*
X32014971Y-13800904D01*
X32014973Y-13800908D01*
X32066565Y-13890267D01*
X32083497Y-13919594D01*
X32180406Y-14016503D01*
X32180408Y-14016504D01*
X32299091Y-14085026D01*
X32299095Y-14085028D01*
X32431472Y-14120499D01*
X32431474Y-14120500D01*
X32431475Y-14120500D01*
X32568526Y-14120500D01*
X32568526Y-14120499D01*
X32700905Y-14085028D01*
X32819594Y-14016503D01*
X32916503Y-13919594D01*
X32985028Y-13800905D01*
X33020500Y-13668525D01*
X33020500Y-13531475D01*
X32985028Y-13399095D01*
X32967378Y-13368525D01*
X32916504Y-13280408D01*
X32916503Y-13280406D01*
X32819594Y-13183497D01*
X32819591Y-13183495D01*
X32700908Y-13114973D01*
X32700904Y-13114971D01*
X32568527Y-13079500D01*
X32568525Y-13079500D01*
X32431475Y-13079500D01*
X32431472Y-13079500D01*
X32299095Y-13114971D01*
X32299091Y-13114973D01*
X32180408Y-13183495D01*
X32083495Y-13280408D01*
X32014973Y-13399091D01*
X32014971Y-13399095D01*
X31979500Y-13531472D01*
X23504625Y-13531472D01*
X23516503Y-13519594D01*
X23585028Y-13400905D01*
X23620500Y-13268525D01*
X23620500Y-13131475D01*
X23585028Y-12999095D01*
X23516503Y-12880406D01*
X23419594Y-12783497D01*
X23412671Y-12779500D01*
X23304853Y-12717251D01*
X23304851Y-12717250D01*
X23300905Y-12714972D01*
X23227981Y-12695431D01*
X23227299Y-12695238D01*
X23202480Y-12678594D01*
X23177393Y-12662302D01*
X23177118Y-12661586D01*
X23176482Y-12661160D01*
X23166178Y-12633087D01*
X23165558Y-12631472D01*
X27479500Y-12631472D01*
X27479500Y-12768527D01*
X27514971Y-12900904D01*
X27514973Y-12900908D01*
X27571662Y-12999095D01*
X27583497Y-13019594D01*
X27680406Y-13116503D01*
X27680408Y-13116504D01*
X27799091Y-13185026D01*
X27799095Y-13185028D01*
X27931472Y-13220499D01*
X27931474Y-13220500D01*
X27931475Y-13220500D01*
X28068526Y-13220500D01*
X28068526Y-13220499D01*
X28200905Y-13185028D01*
X28319594Y-13116503D01*
X28416503Y-13019594D01*
X28485028Y-12900905D01*
X28520500Y-12768525D01*
X28520500Y-12673763D01*
X28539407Y-12615572D01*
X28549496Y-12603759D01*
X29354164Y-11799091D01*
X30221783Y-10931472D01*
X31779500Y-10931472D01*
X31779500Y-11068527D01*
X31814971Y-11200904D01*
X31814973Y-11200908D01*
X31883495Y-11319591D01*
X31883497Y-11319594D01*
X31980406Y-11416503D01*
X31980408Y-11416504D01*
X32099091Y-11485026D01*
X32099095Y-11485028D01*
X32231472Y-11520499D01*
X32231474Y-11520500D01*
X32231475Y-11520500D01*
X32368526Y-11520500D01*
X32368526Y-11520499D01*
X32500905Y-11485028D01*
X32619594Y-11416503D01*
X32716503Y-11319594D01*
X32785028Y-11200905D01*
X32820500Y-11068525D01*
X32820500Y-10931475D01*
X32785028Y-10799095D01*
X32716503Y-10680406D01*
X32619594Y-10583497D01*
X32619591Y-10583495D01*
X32500908Y-10514973D01*
X32500904Y-10514971D01*
X32368527Y-10479500D01*
X32368525Y-10479500D01*
X32231475Y-10479500D01*
X32231472Y-10479500D01*
X32099095Y-10514971D01*
X32099091Y-10514973D01*
X31980408Y-10583495D01*
X31883495Y-10680408D01*
X31814973Y-10799091D01*
X31814971Y-10799095D01*
X31779500Y-10931472D01*
X30221783Y-10931472D01*
X31964219Y-9189035D01*
X32018734Y-9161260D01*
X32079166Y-9170831D01*
X32119957Y-9209541D01*
X32183495Y-9319591D01*
X32183497Y-9319594D01*
X32280406Y-9416503D01*
X32280408Y-9416504D01*
X32399091Y-9485026D01*
X32399095Y-9485028D01*
X32531472Y-9520499D01*
X32531474Y-9520500D01*
X32531475Y-9520500D01*
X32668526Y-9520500D01*
X32668526Y-9520499D01*
X32800905Y-9485028D01*
X32919594Y-9416503D01*
X33016503Y-9319594D01*
X33085028Y-9200905D01*
X33120500Y-9068525D01*
X33120500Y-8931475D01*
X33085028Y-8799095D01*
X33016503Y-8680406D01*
X32956098Y-8620001D01*
X32928323Y-8565487D01*
X32937894Y-8505055D01*
X32956097Y-8479999D01*
X33016503Y-8419594D01*
X33085028Y-8300905D01*
X33120500Y-8168525D01*
X33120500Y-8031475D01*
X33093704Y-7931472D01*
X47079500Y-7931472D01*
X47079500Y-8068527D01*
X47114971Y-8200904D01*
X47114973Y-8200908D01*
X47181712Y-8316503D01*
X47183497Y-8319594D01*
X47280406Y-8416503D01*
X47287329Y-8420500D01*
X47399091Y-8485026D01*
X47399095Y-8485028D01*
X47531472Y-8520499D01*
X47531474Y-8520500D01*
X47531475Y-8520500D01*
X47668526Y-8520500D01*
X47668526Y-8520499D01*
X47800905Y-8485028D01*
X47919594Y-8416503D01*
X48016503Y-8319594D01*
X48085028Y-8200905D01*
X48120500Y-8068525D01*
X48120500Y-7931475D01*
X48085028Y-7799095D01*
X48016503Y-7680406D01*
X47919594Y-7583497D01*
X47914244Y-7580408D01*
X47800908Y-7514973D01*
X47800904Y-7514971D01*
X47668527Y-7479500D01*
X47668525Y-7479500D01*
X47531475Y-7479500D01*
X47531472Y-7479500D01*
X47399095Y-7514971D01*
X47399091Y-7514973D01*
X47280408Y-7583495D01*
X47183495Y-7680408D01*
X47114973Y-7799091D01*
X47114971Y-7799095D01*
X47079500Y-7931472D01*
X33093704Y-7931472D01*
X33085028Y-7899095D01*
X33016503Y-7780406D01*
X32919594Y-7683497D01*
X32914244Y-7680408D01*
X32800908Y-7614973D01*
X32800904Y-7614971D01*
X32668527Y-7579500D01*
X32668525Y-7579500D01*
X32531475Y-7579500D01*
X32531472Y-7579500D01*
X32399095Y-7614971D01*
X32399091Y-7614973D01*
X32280408Y-7683495D01*
X32183495Y-7780408D01*
X32114973Y-7899091D01*
X32114971Y-7899095D01*
X32079500Y-8031472D01*
X32079500Y-8126236D01*
X32060593Y-8184427D01*
X32050504Y-8196240D01*
X28096241Y-12150504D01*
X28041724Y-12178281D01*
X28026237Y-12179500D01*
X27931472Y-12179500D01*
X27799095Y-12214971D01*
X27799091Y-12214973D01*
X27680408Y-12283495D01*
X27583495Y-12380408D01*
X27514973Y-12499091D01*
X27514971Y-12499095D01*
X27479500Y-12631472D01*
X23165558Y-12631472D01*
X23155467Y-12605181D01*
X23155665Y-12604441D01*
X23155401Y-12603721D01*
X23163565Y-12574956D01*
X23171303Y-12546080D01*
X23171898Y-12545597D01*
X23172108Y-12544861D01*
X23195592Y-12526411D01*
X23218853Y-12507575D01*
X23220072Y-12507178D01*
X23220221Y-12507062D01*
X23220459Y-12507053D01*
X23228691Y-12504378D01*
X23300905Y-12485028D01*
X23419594Y-12416503D01*
X23516503Y-12319594D01*
X23585028Y-12200905D01*
X23620500Y-12068525D01*
X23620500Y-11931475D01*
X23585028Y-11799095D01*
X23516503Y-11680406D01*
X23419594Y-11583497D01*
X23419591Y-11583495D01*
X23300908Y-11514973D01*
X23300904Y-11514971D01*
X23168527Y-11479500D01*
X23168525Y-11479500D01*
X23031475Y-11479500D01*
X23031472Y-11479500D01*
X22899095Y-11514971D01*
X22899091Y-11514973D01*
X22780406Y-11583496D01*
X22713398Y-11650504D01*
X22658881Y-11678281D01*
X22643395Y-11679500D01*
X20456605Y-11679500D01*
X20398414Y-11660593D01*
X20386602Y-11650504D01*
X20319593Y-11583496D01*
X20200908Y-11514973D01*
X20200904Y-11514971D01*
X20068527Y-11479500D01*
X20068525Y-11479500D01*
X19931475Y-11479500D01*
X19931472Y-11479500D01*
X19799095Y-11514971D01*
X19799091Y-11514973D01*
X19680408Y-11583495D01*
X19583495Y-11680408D01*
X19514973Y-11799091D01*
X19514971Y-11799095D01*
X19479500Y-11931472D01*
X18020500Y-11931472D01*
X18020500Y-11557804D01*
X18015404Y-11538785D01*
X18015405Y-11487536D01*
X18020500Y-11468525D01*
X18020500Y-11331475D01*
X17985028Y-11199095D01*
X17916503Y-11080406D01*
X17819594Y-10983497D01*
X17819591Y-10983495D01*
X17729485Y-10931472D01*
X24379500Y-10931472D01*
X24379500Y-11068527D01*
X24414971Y-11200904D01*
X24414973Y-11200908D01*
X24483495Y-11319591D01*
X24483497Y-11319594D01*
X24580406Y-11416503D01*
X24580408Y-11416504D01*
X24699091Y-11485026D01*
X24699095Y-11485028D01*
X24831472Y-11520499D01*
X24831474Y-11520500D01*
X24831475Y-11520500D01*
X24968526Y-11520500D01*
X24968526Y-11520499D01*
X25100905Y-11485028D01*
X25219594Y-11416503D01*
X25316503Y-11319594D01*
X25385028Y-11200905D01*
X25420500Y-11068525D01*
X25420500Y-10931475D01*
X25385028Y-10799095D01*
X25316503Y-10680406D01*
X25219594Y-10583497D01*
X25219591Y-10583495D01*
X25100908Y-10514973D01*
X25100904Y-10514971D01*
X24968527Y-10479500D01*
X24968525Y-10479500D01*
X24831475Y-10479500D01*
X24831472Y-10479500D01*
X24699095Y-10514971D01*
X24699091Y-10514973D01*
X24580408Y-10583495D01*
X24483495Y-10680408D01*
X24414973Y-10799091D01*
X24414971Y-10799095D01*
X24379500Y-10931472D01*
X17729485Y-10931472D01*
X17700908Y-10914973D01*
X17700904Y-10914971D01*
X17568527Y-10879500D01*
X17568525Y-10879500D01*
X17431475Y-10879500D01*
X17431472Y-10879500D01*
X17299095Y-10914971D01*
X17299091Y-10914973D01*
X17180408Y-10983495D01*
X17083495Y-11080408D01*
X17014973Y-11199091D01*
X17014971Y-11199095D01*
X16979500Y-11331472D01*
X500500Y-11331472D01*
X500500Y-8931472D01*
X22579500Y-8931472D01*
X22579500Y-9068527D01*
X22614971Y-9200904D01*
X22614973Y-9200908D01*
X22683495Y-9319591D01*
X22683497Y-9319594D01*
X22780406Y-9416503D01*
X22780408Y-9416504D01*
X22899091Y-9485026D01*
X22899095Y-9485028D01*
X23031472Y-9520499D01*
X23031474Y-9520500D01*
X23031475Y-9520500D01*
X23168526Y-9520500D01*
X23168526Y-9520499D01*
X23300905Y-9485028D01*
X23419594Y-9416503D01*
X23516503Y-9319594D01*
X23585028Y-9200905D01*
X23620500Y-9068525D01*
X23620500Y-8931475D01*
X23585028Y-8799095D01*
X23516503Y-8680406D01*
X23419594Y-8583497D01*
X23388400Y-8565487D01*
X23300908Y-8514973D01*
X23300904Y-8514971D01*
X23168527Y-8479500D01*
X23168525Y-8479500D01*
X23031475Y-8479500D01*
X23031472Y-8479500D01*
X22899095Y-8514971D01*
X22899091Y-8514973D01*
X22780408Y-8583495D01*
X22683495Y-8680408D01*
X22614973Y-8799091D01*
X22614971Y-8799095D01*
X22579500Y-8931472D01*
X500500Y-8931472D01*
X500500Y-7831472D01*
X24879500Y-7831472D01*
X24879500Y-7968527D01*
X24914971Y-8100904D01*
X24914973Y-8100908D01*
X24983495Y-8219591D01*
X24983497Y-8219594D01*
X25080406Y-8316503D01*
X25080408Y-8316504D01*
X25199091Y-8385026D01*
X25199095Y-8385028D01*
X25331472Y-8420499D01*
X25331474Y-8420500D01*
X25331475Y-8420500D01*
X25468526Y-8420500D01*
X25468526Y-8420499D01*
X25600905Y-8385028D01*
X25719594Y-8316503D01*
X25816503Y-8219594D01*
X25885028Y-8100905D01*
X25920500Y-7968525D01*
X25920500Y-7831475D01*
X25885028Y-7699095D01*
X25876021Y-7683495D01*
X25836459Y-7614971D01*
X25816503Y-7580406D01*
X25719594Y-7483497D01*
X25712671Y-7479500D01*
X25600908Y-7414973D01*
X25600904Y-7414971D01*
X25468527Y-7379500D01*
X25468525Y-7379500D01*
X25331475Y-7379500D01*
X25331472Y-7379500D01*
X25199095Y-7414971D01*
X25199091Y-7414973D01*
X25080408Y-7483495D01*
X24983495Y-7580408D01*
X24914973Y-7699091D01*
X24914971Y-7699095D01*
X24879500Y-7831472D01*
X500500Y-7831472D01*
X500500Y-6531472D01*
X19879500Y-6531472D01*
X19879500Y-6668527D01*
X19914971Y-6800904D01*
X19914973Y-6800908D01*
X19971662Y-6899095D01*
X19983497Y-6919594D01*
X20080406Y-7016503D01*
X20080408Y-7016504D01*
X20199091Y-7085026D01*
X20199095Y-7085028D01*
X20331472Y-7120499D01*
X20331474Y-7120500D01*
X20331475Y-7120500D01*
X20468526Y-7120500D01*
X20468526Y-7120499D01*
X20600905Y-7085028D01*
X20693667Y-7031472D01*
X23879500Y-7031472D01*
X23879500Y-7168527D01*
X23914971Y-7300904D01*
X23914973Y-7300908D01*
X23980828Y-7414971D01*
X23983497Y-7419594D01*
X24080406Y-7516503D01*
X24080408Y-7516504D01*
X24199091Y-7585026D01*
X24199095Y-7585028D01*
X24331472Y-7620499D01*
X24331474Y-7620500D01*
X24331475Y-7620500D01*
X24468526Y-7620500D01*
X24468526Y-7620499D01*
X24600905Y-7585028D01*
X24719594Y-7516503D01*
X24816503Y-7419594D01*
X24885028Y-7300905D01*
X24920500Y-7168525D01*
X24920500Y-7031475D01*
X24914897Y-7010565D01*
X24918097Y-6949467D01*
X24956601Y-6901915D01*
X24984895Y-6889317D01*
X25000905Y-6885028D01*
X25119594Y-6816503D01*
X25216503Y-6719594D01*
X25285028Y-6600905D01*
X25320500Y-6468525D01*
X25320500Y-6331475D01*
X25285028Y-6199095D01*
X25276021Y-6183495D01*
X25216504Y-6080408D01*
X25216503Y-6080406D01*
X25119594Y-5983497D01*
X25119591Y-5983495D01*
X25000908Y-5914973D01*
X25000904Y-5914971D01*
X24868527Y-5879500D01*
X24868525Y-5879500D01*
X24731475Y-5879500D01*
X24731472Y-5879500D01*
X24599095Y-5914971D01*
X24599091Y-5914973D01*
X24480408Y-5983495D01*
X24383495Y-6080408D01*
X24314973Y-6199091D01*
X24314971Y-6199095D01*
X24279500Y-6331472D01*
X24279500Y-6468525D01*
X24279499Y-6468525D01*
X24285102Y-6489431D01*
X24281901Y-6550533D01*
X24243397Y-6598083D01*
X24215103Y-6610682D01*
X24199093Y-6614972D01*
X24199091Y-6614973D01*
X24080408Y-6683495D01*
X23983495Y-6780408D01*
X23914973Y-6899091D01*
X23914971Y-6899095D01*
X23879500Y-7031472D01*
X20693667Y-7031472D01*
X20719594Y-7016503D01*
X20816503Y-6919594D01*
X20885028Y-6800905D01*
X20920500Y-6668525D01*
X20920500Y-6531475D01*
X20885028Y-6399095D01*
X20816503Y-6280406D01*
X20719594Y-6183497D01*
X20719591Y-6183495D01*
X20600908Y-6114973D01*
X20600904Y-6114971D01*
X20468527Y-6079500D01*
X20468525Y-6079500D01*
X20331475Y-6079500D01*
X20331472Y-6079500D01*
X20199095Y-6114971D01*
X20199091Y-6114973D01*
X20080408Y-6183495D01*
X19983495Y-6280408D01*
X19914973Y-6399091D01*
X19914971Y-6399095D01*
X19879500Y-6531472D01*
X500500Y-6531472D01*
X500500Y-4999000D01*
X519407Y-4940809D01*
X568907Y-4904845D01*
X599500Y-4900000D01*
X26999999Y-4900000D01*
X27000000Y-4900000D01*
X27000000Y-599500D01*
X27018907Y-541309D01*
X27068407Y-505345D01*
X27099000Y-500500D01*
X54400500Y-500500D01*
X54458691Y-519407D01*
G37*
%TD.AperFunction*%
%TD*%
M02*
