%TF.GenerationSoftware,KiCad,Pcbnew,9.0.8+dfsg-1*%
%TF.CreationDate,2026-10-02T12:54:17+02:00*%
%TF.ProjectId,v8f_krt_margin_escaped,7638665f-6b72-4745-9f6d-617267696e5f,rev?*%
%TF.SameCoordinates,Original*%
%TF.FileFunction,Paste,Top*%
%TF.FilePolarity,Positive*%
%FSLAX46Y46*%
G04 Gerber Fmt 4.6, Leading zero omitted, Abs format (unit mm)*
G04 Created by KiCad (PCBNEW 9.0.8+dfsg-1) date 2026-10-02 12:54:17*
%MOMM*%
%LPD*%
G01*
G04 APERTURE LIST*
G04 Aperture macros list*
%AMRoundRect*
0 Rectangle with rounded corners*
0 $1 Rounding radius*
0 $2 $3 $4 $5 $6 $7 $8 $9 X,Y pos of 4 corners*
0 Add a 4 corners polygon primitive as box body*
4,1,4,$2,$3,$4,$5,$6,$7,$8,$9,$2,$3,0*
0 Add four circle primitives for the rounded corners*
1,1,$1+$1,$2,$3*
1,1,$1+$1,$4,$5*
1,1,$1+$1,$6,$7*
1,1,$1+$1,$8,$9*
0 Add four rect primitives between the rounded corners*
20,1,$1+$1,$2,$3,$4,$5,0*
20,1,$1+$1,$4,$5,$6,$7,0*
20,1,$1+$1,$6,$7,$8,$9,0*
20,1,$1+$1,$8,$9,$2,$3,0*%
G04 Aperture macros list end*
%ADD10RoundRect,0.100000X0.400000X0.400000X-0.400000X0.400000X-0.400000X-0.400000X0.400000X-0.400000X0*%
%ADD11RoundRect,0.105000X0.420000X0.995000X-0.420000X0.995000X-0.420000X-0.995000X0.420000X-0.995000X0*%
%ADD12RoundRect,0.135000X-0.185000X0.135000X-0.185000X-0.135000X0.185000X-0.135000X0.185000X0.135000X0*%
%ADD13RoundRect,0.135000X0.135000X0.185000X-0.135000X0.185000X-0.135000X-0.185000X0.135000X-0.185000X0*%
%ADD14RoundRect,0.317500X-1.157500X-0.317500X1.157500X-0.317500X1.157500X0.317500X-1.157500X0.317500X0*%
%ADD15RoundRect,0.150000X-0.512500X-0.150000X0.512500X-0.150000X0.512500X0.150000X-0.512500X0.150000X0*%
%ADD16R,0.350000X0.500000*%
%ADD17RoundRect,0.225000X0.225000X0.375000X-0.225000X0.375000X-0.225000X-0.375000X0.225000X-0.375000X0*%
%ADD18RoundRect,0.225000X-0.225000X-0.250000X0.225000X-0.250000X0.225000X0.250000X-0.225000X0.250000X0*%
%ADD19RoundRect,0.140000X0.170000X-0.140000X0.170000X0.140000X-0.170000X0.140000X-0.170000X-0.140000X0*%
%ADD20RoundRect,0.218750X-0.218750X-0.256250X0.218750X-0.256250X0.218750X0.256250X-0.218750X0.256250X0*%
%ADD21RoundRect,0.135000X-0.135000X-0.185000X0.135000X-0.185000X0.135000X0.185000X-0.135000X0.185000X0*%
%ADD22RoundRect,0.140000X-0.170000X0.140000X-0.170000X-0.140000X0.170000X-0.140000X0.170000X0.140000X0*%
%ADD23R,0.700000X0.700000*%
%ADD24R,1.500000X0.900000*%
%ADD25RoundRect,0.175000X-0.725000X-0.175000X0.725000X-0.175000X0.725000X0.175000X-0.725000X0.175000X0*%
%ADD26RoundRect,0.200000X-0.700000X-0.200000X0.700000X-0.200000X0.700000X0.200000X-0.700000X0.200000X0*%
G04 APERTURE END LIST*
D10*
%TO.C,ANT1*%
X51000000Y-23500000D03*
D11*
X49525000Y-22000000D03*
D10*
X51000000Y-20500000D03*
D11*
X52475000Y-22000000D03*
%TD*%
D12*
%TO.C,R_LED*%
X30000000Y-31490000D03*
X30000000Y-32510000D03*
%TD*%
D13*
%TO.C,R_DIV1*%
X4510000Y-36000000D03*
X3490000Y-36000000D03*
%TD*%
D14*
%TO.C,U2*%
X30475000Y-2000000D03*
X30475000Y-4000000D03*
X30475000Y-6000000D03*
X30475000Y-8000000D03*
X30475000Y-10000000D03*
X30475000Y-12000000D03*
X30475000Y-14000000D03*
X30475000Y-16000000D03*
X45525000Y-16000000D03*
X45525000Y-14000000D03*
X45525000Y-12000000D03*
X45525000Y-10000000D03*
X45525000Y-8000000D03*
X45525000Y-6000000D03*
X45525000Y-4000000D03*
X45525000Y-2000000D03*
%TD*%
D15*
%TO.C,U4*%
X17862500Y-29050000D03*
X17862500Y-30000000D03*
X17862500Y-30950000D03*
X20137500Y-30950000D03*
X20137500Y-29050000D03*
%TD*%
D16*
%TO.C,U5*%
X22025000Y-34975000D03*
X22675000Y-34975000D03*
X23325000Y-34975000D03*
X23975000Y-34975000D03*
X23975000Y-37025000D03*
X23325000Y-37025000D03*
X22675000Y-37025000D03*
X22025000Y-37025000D03*
%TD*%
D17*
%TO.C,D1*%
X25650000Y-23000000D03*
X22350000Y-23000000D03*
%TD*%
D18*
%TO.C,C2*%
X24225000Y-9000000D03*
X25775000Y-9000000D03*
%TD*%
D12*
%TO.C,R_PD*%
X14000000Y-35490000D03*
X14000000Y-36510000D03*
%TD*%
D19*
%TO.C,C3*%
X19000000Y-25480000D03*
X19000000Y-24520000D03*
%TD*%
D18*
%TO.C,C1*%
X14225000Y-23000000D03*
X15775000Y-23000000D03*
%TD*%
D20*
%TO.C,LED1*%
X37212500Y-36000000D03*
X38787500Y-36000000D03*
%TD*%
D21*
%TO.C,R_DIV2*%
X8490000Y-38000000D03*
X9510000Y-38000000D03*
%TD*%
D22*
%TO.C,C4*%
X51000000Y-10520000D03*
X51000000Y-11480000D03*
%TD*%
D23*
%TO.C,U1*%
X12860000Y-11100000D03*
X12860000Y-12200000D03*
X12860000Y-13300000D03*
X13960000Y-11100000D03*
X13960000Y-12200000D03*
X13960000Y-13300000D03*
X15060000Y-11100000D03*
X15060000Y-12200000D03*
X15060000Y-13300000D03*
D24*
X4250000Y-6000000D03*
X4250000Y-7500000D03*
X4250000Y-9000000D03*
X4250000Y-10500000D03*
X4250000Y-12000000D03*
X4250000Y-13500000D03*
X4250000Y-15000000D03*
X4250000Y-16500000D03*
X4250000Y-18000000D03*
X21750000Y-18000000D03*
X21750000Y-16500000D03*
X21750000Y-15000000D03*
X21750000Y-13500000D03*
X21750000Y-12000000D03*
X21750000Y-10500000D03*
X21750000Y-9000000D03*
X21750000Y-7500000D03*
X21750000Y-6000000D03*
%TD*%
D25*
%TO.C,U3*%
X34250000Y-22600000D03*
D26*
X34250000Y-23700000D03*
X34250000Y-24800000D03*
X34250000Y-25900000D03*
X34250000Y-27000000D03*
X34250000Y-28100000D03*
X34250000Y-29200000D03*
X34250000Y-30300000D03*
D25*
X34250000Y-31400000D03*
X43750000Y-31400000D03*
D26*
X43750000Y-30300000D03*
X43750000Y-29200000D03*
X43750000Y-28100000D03*
X43750000Y-27000000D03*
X43750000Y-25900000D03*
X43750000Y-24800000D03*
X43750000Y-23700000D03*
D25*
X43750000Y-22600000D03*
%TD*%
M02*
