%TF.GenerationSoftware,KiCad,Pcbnew,9.0.8+dfsg-1*%
%TF.CreationDate,2026-08-05T20:37:08+05:30*%
%TF.ProjectId,v2_2LAYER_FINAL,76325f32-4c41-4594-9552-5f46494e414c,rev?*%
%TF.SameCoordinates,Original*%
%TF.FileFunction,Copper,L1,Top*%
%TF.FilePolarity,Positive*%
%FSLAX46Y46*%
G04 Gerber Fmt 4.6, Leading zero omitted, Abs format (unit mm)*
G04 Created by KiCad (PCBNEW 9.0.8+dfsg-1) date 2026-08-05 20:37:08*
%MOMM*%
%LPD*%
G01*
G04 APERTURE LIST*
%TA.AperFunction,ComponentPad*%
%ADD10R,1.600000X1.600000*%
%TD*%
%TA.AperFunction,SMDPad,CuDef*%
%ADD11R,0.700000X0.600000*%
%TD*%
%TA.AperFunction,SMDPad,CuDef*%
%ADD12R,0.600000X0.500000*%
%TD*%
%TA.AperFunction,SMDPad,CuDef*%
%ADD13R,1.000000X1.000000*%
%TD*%
%TA.AperFunction,ComponentPad*%
%ADD14R,1.000000X1.000000*%
%TD*%
%TA.AperFunction,SMDPad,CuDef*%
%ADD15R,1.000000X0.800000*%
%TD*%
%TA.AperFunction,SMDPad,CuDef*%
%ADD16R,0.600000X0.400000*%
%TD*%
%TA.AperFunction,SMDPad,CuDef*%
%ADD17R,0.800000X0.600000*%
%TD*%
%TA.AperFunction,SMDPad,CuDef*%
%ADD18R,1.200000X0.800000*%
%TD*%
%TA.AperFunction,SMDPad,CuDef*%
%ADD19R,1.500000X0.800000*%
%TD*%
%TA.AperFunction,SMDPad,CuDef*%
%ADD20R,1.000000X0.600000*%
%TD*%
%TA.AperFunction,ViaPad*%
%ADD21C,0.600000*%
%TD*%
%TA.AperFunction,Conductor*%
%ADD22C,0.599800*%
%TD*%
%TA.AperFunction,Conductor*%
%ADD23C,0.799800*%
%TD*%
%TA.AperFunction,Conductor*%
%ADD24C,2.000000*%
%TD*%
%TA.AperFunction,Conductor*%
%ADD25C,0.399800*%
%TD*%
%TA.AperFunction,Conductor*%
%ADD26C,0.400000*%
%TD*%
%TA.AperFunction,Conductor*%
%ADD27C,0.499800*%
%TD*%
%TA.AperFunction,Conductor*%
%ADD28C,0.999800*%
%TD*%
G04 APERTURE END LIST*
D10*
%TO.P,SOLAR,1*%
%TO.N,SOLAR_IN*%
X1730000Y-37000000D03*
%TO.P,SOLAR,2*%
%TO.N,GND*%
X4270000Y-37000000D03*
%TD*%
D11*
%TO.P,LED1,A*%
%TO.N,LED_ANODE*%
X15500000Y-4000000D03*
%TO.P,LED1,K*%
%TO.N,GND*%
X16500000Y-4000000D03*
%TD*%
D12*
%TO.P,R_DIV1,1*%
%TO.N,3V3*%
X2500000Y-30000000D03*
%TO.P,R_DIV1,2*%
%TO.N,VDIV_MID*%
X3500000Y-30000000D03*
%TD*%
D13*
%TO.P,ANT1,1*%
%TO.N,RF_SUB_868*%
X46000000Y-25000000D03*
D14*
%TO.P,ANT1,2*%
%TO.N,GND*%
X44500000Y-25000000D03*
%TO.P,ANT1,3*%
X47500000Y-25000000D03*
%TD*%
D15*
%TO.P,U3,1*%
%TO.N,3V3*%
X2000000Y-28000000D03*
%TO.P,U3,2*%
%TO.N,GND*%
X3300000Y-28000000D03*
%TO.P,U3,3*%
%TO.N,GPS_RX*%
X4700000Y-28000000D03*
%TD*%
%TO.P,FEM,GND*%
%TO.N,GND*%
X41500000Y-25000000D03*
%TO.P,FEM,TX*%
%TO.N,FEM_TX*%
X38500000Y-25000000D03*
%TO.P,FEM,VCC*%
%TO.N,3V3*%
X40000000Y-25000000D03*
%TD*%
D11*
%TO.P,C2,1*%
%TO.N,3V3*%
X9500000Y-22000000D03*
%TO.P,C2,2*%
%TO.N,GND*%
X10500000Y-22000000D03*
%TD*%
D12*
%TO.P,R_LED,1*%
%TO.N,STATUS_LED*%
X18500000Y-4000000D03*
%TO.P,R_LED,2*%
%TO.N,LED_ANODE*%
X19500000Y-4000000D03*
%TD*%
D11*
%TO.P,C1,1*%
%TO.N,VCAP*%
X9500000Y-20000000D03*
%TO.P,C1,2*%
%TO.N,GND*%
X10500000Y-20000000D03*
%TD*%
D12*
%TO.P,R_DIV2,1*%
%TO.N,VDIV_MID*%
X2500000Y-32000000D03*
%TO.P,R_DIV2,2*%
%TO.N,GND*%
X3500000Y-32000000D03*
%TD*%
D16*
%TO.P,U4,1*%
%TO.N,VCAP*%
X7050000Y-17250000D03*
%TO.P,U4,2*%
%TO.N,GND*%
X8000000Y-17250000D03*
%TO.P,U4,3*%
%TO.N,VCAP*%
X8950000Y-17250000D03*
%TO.P,U4,4*%
%TO.N,3V3*%
X8950000Y-18750000D03*
%TD*%
D10*
%TO.P,C_CAP,1*%
%TO.N,VCAP*%
X7500000Y-37000000D03*
%TO.P,C_CAP,2*%
%TO.N,GND*%
X12500000Y-37000000D03*
%TD*%
D17*
%TO.P,D1,A*%
%TO.N,SOLAR_IN*%
X5000000Y-18000000D03*
%TO.P,D1,K*%
%TO.N,VCAP*%
X7000000Y-18000000D03*
%TD*%
D12*
%TO.P,R_PD,1*%
%TO.N,GND*%
X9500000Y-14000000D03*
%TO.P,R_PD,2*%
%TO.N,SPI_MISO*%
X10500000Y-14000000D03*
%TD*%
D18*
%TO.P,U2,1*%
%TO.N,3V3*%
X15100000Y-17000000D03*
%TO.P,U2,2*%
%TO.N,GND*%
X15100000Y-19000000D03*
%TO.P,U2,3*%
%TO.N,SPI_MISO*%
X15100000Y-21000000D03*
%TO.P,U2,4*%
%TO.N,SPI_MOSI*%
X15100000Y-23000000D03*
%TO.P,U2,5*%
%TO.N,SPI_SCK*%
X15100000Y-25000000D03*
%TO.P,U2,6*%
%TO.N,SPI_NSS*%
X15100000Y-27000000D03*
%TO.P,U2,7*%
%TO.N,LR2021_BUSY*%
X15100000Y-29000000D03*
%TO.P,U2,8*%
%TO.N,GND*%
X15100000Y-31000000D03*
D19*
%TO.P,U2,9*%
%TO.N,RF_SUB_868*%
X15100000Y-33000000D03*
D18*
%TO.P,U2,10*%
%TO.N,GND*%
X34900000Y-17000000D03*
%TO.P,U2,11*%
X34900000Y-19000000D03*
%TO.P,U2,13*%
%TO.N,LR2021_DIO9*%
X34900000Y-23000000D03*
%TO.P,U2,14*%
%TO.N,LR2021_RST*%
X34900000Y-25000000D03*
%TO.P,U2,16*%
%TO.N,GND*%
X34900000Y-29000000D03*
%TO.P,U2,17*%
X34900000Y-31000000D03*
D19*
%TO.P,U2,18*%
%TO.N,RF_2G4_2400*%
X34900000Y-33000000D03*
%TD*%
D13*
%TO.P,ANT2,1*%
%TO.N,RF_2G4_2400*%
X46000000Y-30000000D03*
D14*
%TO.P,ANT2,2*%
%TO.N,GND*%
X44500000Y-30000000D03*
%TO.P,ANT2,3*%
X47500000Y-30000000D03*
%TD*%
D20*
%TO.P,U1,GND*%
%TO.N,GND*%
X15500000Y-9750000D03*
%TO.P,U1,GPIO0*%
%TO.N,VDIV_MID*%
X8500000Y-8250000D03*
%TO.P,U1,GPIO1*%
%TO.N,GPS_RX*%
X8500000Y-9750000D03*
%TO.P,U1,GPIO2*%
%TO.N,SPI_MISO*%
X8500000Y-11250000D03*
%TO.P,U1,GPIO3*%
%TO.N,LR2021_RST*%
X8500000Y-12750000D03*
%TO.P,U1,GPIO4*%
%TO.N,LR2021_BUSY*%
X8500000Y-14250000D03*
%TO.P,U1,GPIO5*%
%TO.N,LR2021_DIO9*%
X8500000Y-15750000D03*
%TO.P,U1,GPIO6*%
%TO.N,SPI_SCK*%
X10500000Y-15500000D03*
%TO.P,U1,GPIO7*%
%TO.N,SPI_MOSI*%
X12000000Y-15500000D03*
%TO.P,U1,GPIO9*%
%TO.N,STATUS_LED*%
X15000000Y-15500000D03*
%TO.P,U1,GPIO10*%
%TO.N,SPI_NSS*%
X16500000Y-15500000D03*
%TO.P,U1,GPIO19*%
%TO.N,FEM_TX*%
X15500000Y-12750000D03*
%TO.P,U1,VCC*%
%TO.N,3V3*%
X15500000Y-8250000D03*
%TD*%
D21*
%TO.N,3V3*%
X13226800Y-9421700D03*
X10481000Y-22838800D03*
X10481000Y-18414000D03*
%TO.N,SPI_MOSI*%
X13106000Y-23399800D03*
X13106000Y-16092300D03*
%TO.N,SPI_MISO*%
X19547400Y-21638700D03*
X13298300Y-13450200D03*
%TO.N,SPI_NSS*%
X17099900Y-16426300D03*
X17099900Y-27000000D03*
%TO.N,LR2021_RST*%
X12801100Y-6690300D03*
X22355700Y-24600200D03*
%TO.N,GPS_RX*%
X5745300Y-10041000D03*
X5745300Y-28000000D03*
%TO.N,VCAP*%
X3535800Y-21435200D03*
%TO.N,FEM_TX*%
X37948700Y-11672700D03*
X37948700Y-25959700D03*
%TD*%
D22*
%TO.N,3V3*%
X9925400Y-22838800D02*
X10481000Y-22838800D01*
D23*
X1599800Y-27599800D02*
X2000000Y-28000000D01*
D22*
X8948100Y-22000000D02*
X9500000Y-22000000D01*
D24*
X6887200Y-24060900D02*
X3937000Y-24060900D01*
D25*
X8950000Y-18750000D02*
X10449900Y-18750000D01*
D22*
X14275600Y-8372900D02*
X15377100Y-8372900D01*
X15377100Y-8372900D02*
X15500000Y-8250000D01*
D24*
X1599800Y-29600200D02*
X1624900Y-29625300D01*
D26*
X2000000Y-28000000D02*
X9500000Y-22000000D01*
D24*
X3937000Y-24060900D02*
X1599800Y-26398100D01*
D25*
X10449900Y-18416000D02*
X10449900Y-18750000D01*
D27*
X1999600Y-30000000D02*
X2500000Y-30000000D01*
D26*
X8950000Y-18750000D02*
X15100000Y-17000000D01*
D22*
X9500000Y-22000000D02*
X9500000Y-22413400D01*
D24*
X10481000Y-18414000D02*
X10451900Y-18414000D01*
X13226800Y-9421700D02*
X14275600Y-8372900D01*
D27*
X1624900Y-29625300D02*
X1999600Y-30000000D01*
D26*
X2500000Y-30000000D02*
X2000000Y-28000000D01*
D23*
X1599800Y-26398100D02*
X1599800Y-27599800D01*
D22*
X9500000Y-22413400D02*
X9925400Y-22838800D01*
D25*
X10451900Y-18414000D02*
X10449900Y-18416000D01*
D24*
X8948100Y-22000000D02*
X6887200Y-24060900D01*
D23*
X1599800Y-29600200D02*
X1599800Y-28400200D01*
D26*
X15100000Y-17000000D02*
X15500000Y-8250000D01*
X15500000Y-8250000D02*
X40000000Y-25000000D01*
D23*
X1599800Y-28400200D02*
X2000000Y-28000000D01*
D26*
X9500000Y-22000000D02*
X8950000Y-18750000D01*
%TO.N,GND*%
X16500000Y-4000000D02*
X15100000Y-19000000D01*
D24*
X4375000Y-32374800D02*
X6155800Y-34155600D01*
D22*
X16500000Y-5500000D02*
X16500000Y-4000000D01*
D26*
X12500000Y-37000000D02*
X34900000Y-31000000D01*
D24*
X40211800Y-14288200D02*
X40211800Y-10745200D01*
X17081900Y-31000000D02*
X15100000Y-31000000D01*
D26*
X3500000Y-32000000D02*
X3300000Y-28000000D01*
X15100000Y-31000000D02*
X12500000Y-37000000D01*
X41500000Y-25000000D02*
X44500000Y-25000000D01*
X15100000Y-19000000D02*
X15100000Y-31000000D01*
D24*
X34900000Y-31000000D02*
X34900000Y-29000000D01*
D28*
X41703600Y-25000000D02*
X44500000Y-25000000D01*
D23*
X13298100Y-19399800D02*
X14700200Y-19399800D01*
D26*
X4270000Y-37000000D02*
X3500000Y-32000000D01*
X9500000Y-14000000D02*
X15500000Y-9750000D01*
X47500000Y-30000000D02*
X44500000Y-30000000D01*
D24*
X9700000Y-37000000D02*
X9700000Y-35874000D01*
X8824300Y-34998300D02*
X6155800Y-34998300D01*
D22*
X11174900Y-20674900D02*
X10500000Y-20000000D01*
D26*
X8000000Y-17250000D02*
X9500000Y-14000000D01*
D24*
X17341200Y-9427700D02*
X17341200Y-6341200D01*
X6155800Y-34155600D02*
X6155800Y-34998300D01*
D22*
X17018900Y-9750000D02*
X15500000Y-9750000D01*
D28*
X41500000Y-25000000D02*
X41703600Y-25000000D01*
D24*
X12500000Y-37000000D02*
X15300000Y-37000000D01*
X17081900Y-31000000D02*
X17081900Y-35218100D01*
X17341200Y-6341200D02*
X16500000Y-5500000D01*
D27*
X4187600Y-32187400D02*
X4000200Y-32000000D01*
D24*
X6155800Y-34998300D02*
X4270000Y-36884100D01*
D26*
X3300000Y-28000000D02*
X10500000Y-22000000D01*
D23*
X14700200Y-19399800D02*
X15100000Y-19000000D01*
D26*
X34900000Y-31000000D02*
X34900000Y-29000000D01*
D24*
X34900000Y-31000000D02*
X17081900Y-31000000D01*
D26*
X47500000Y-25000000D02*
X47500000Y-30000000D01*
D27*
X4000200Y-32000000D02*
X3500000Y-32000000D01*
D24*
X34900000Y-17000000D02*
X34900000Y-19000000D01*
X40211800Y-10745200D02*
X38894300Y-9427700D01*
X11174900Y-20674900D02*
X12023000Y-20674900D01*
X17081900Y-35218100D02*
X15300000Y-37000000D01*
X41703600Y-25000000D02*
X41703600Y-23203600D01*
X41703600Y-23203600D02*
X37500000Y-19000000D01*
D26*
X10500000Y-20000000D02*
X8000000Y-17250000D01*
D24*
X4187600Y-32187400D02*
X4375000Y-32187400D01*
X9700000Y-35874000D02*
X8824300Y-34998300D01*
D26*
X34900000Y-19000000D02*
X34900000Y-17000000D01*
D24*
X12500000Y-37000000D02*
X9700000Y-37000000D01*
X34900000Y-17000000D02*
X37500000Y-17000000D01*
X34900000Y-19000000D02*
X37500000Y-19000000D01*
X34900000Y-19000000D02*
X15100000Y-19000000D01*
D27*
X4375000Y-32374800D02*
X4375000Y-32187400D01*
D24*
X38894300Y-9427700D02*
X17341200Y-9427700D01*
D22*
X10500000Y-20000000D02*
X10500000Y-22000000D01*
D24*
X4270000Y-36884100D02*
X4270000Y-37000000D01*
X12023000Y-20674900D02*
X13298100Y-19399800D01*
D26*
X10500000Y-22000000D02*
X10500000Y-20000000D01*
X44500000Y-30000000D02*
X34900000Y-19000000D01*
X34900000Y-29000000D02*
X41500000Y-25000000D01*
D24*
X17341200Y-9427700D02*
X17018900Y-9750000D01*
X37500000Y-17000000D02*
X40211800Y-14288200D01*
D26*
X44500000Y-25000000D02*
X47500000Y-25000000D01*
X15500000Y-9750000D02*
X16500000Y-4000000D01*
D23*
%TO.N,SPI_MOSI*%
X14700200Y-23399800D02*
X13106000Y-23399800D01*
X15100000Y-23000000D02*
X14700200Y-23399800D01*
D22*
X12000000Y-15500000D02*
X12592300Y-16092300D01*
X12592300Y-16092300D02*
X13106000Y-16092300D01*
D24*
%TO.N,SPI_MISO*%
X11001900Y-12051700D02*
X11001900Y-13450200D01*
D22*
X10200200Y-11250000D02*
X8500000Y-11250000D01*
D24*
X11001900Y-13450200D02*
X11001900Y-13498100D01*
D23*
X15738700Y-21638700D02*
X15100000Y-21000000D01*
D27*
X11049800Y-13450200D02*
X11001900Y-13450200D01*
D24*
X11049800Y-13450200D02*
X13298300Y-13450200D01*
X10200200Y-11250000D02*
X11001900Y-12051700D01*
X16900200Y-21638700D02*
X19547400Y-21638700D01*
D23*
X16900200Y-21638700D02*
X15738700Y-21638700D01*
D27*
X11001900Y-13498100D02*
X10500000Y-14000000D01*
D24*
%TO.N,SPI_NSS*%
X16701900Y-15500000D02*
X17099900Y-15898000D01*
D22*
X16701900Y-15500000D02*
X16500000Y-15500000D01*
D24*
X17099900Y-15898000D02*
X17099900Y-16426300D01*
D23*
X15100000Y-27000000D02*
X17099900Y-27000000D01*
D24*
%TO.N,LR2021_RST*%
X4218800Y-9381300D02*
X6909800Y-6690300D01*
D23*
X33098100Y-24600200D02*
X33497900Y-25000000D01*
X33497900Y-25000000D02*
X34900000Y-25000000D01*
D24*
X6909800Y-6690300D02*
X12801100Y-6690300D01*
X6798100Y-12750000D02*
X6285900Y-12750000D01*
D22*
X6798100Y-12750000D02*
X8500000Y-12750000D01*
D24*
X4218800Y-10682900D02*
X4218800Y-9381300D01*
X6285900Y-12750000D02*
X4218800Y-10682900D01*
X33098100Y-24600200D02*
X22355700Y-24600200D01*
D23*
%TO.N,GPS_RX*%
X5001900Y-28000000D02*
X4700000Y-28000000D01*
D22*
X6700100Y-9750000D02*
X6409100Y-10041000D01*
D24*
X5001900Y-28000000D02*
X5745300Y-28000000D01*
D22*
X6409100Y-10041000D02*
X5745300Y-10041000D01*
X8500000Y-9750000D02*
X6700100Y-9750000D01*
D27*
%TO.N,LED_ANODE*%
X20000000Y-4500000D02*
X19500000Y-4000000D01*
D24*
X20070400Y-3316100D02*
X19252600Y-2498300D01*
X14951300Y-2498300D02*
X14949800Y-2499800D01*
X20000000Y-4679600D02*
X20000100Y-4679600D01*
D22*
X14949800Y-3449800D02*
X15500000Y-4000000D01*
D24*
X20070400Y-4609300D02*
X20070400Y-3316100D01*
X19252600Y-2498300D02*
X14951300Y-2498300D01*
D27*
X20000000Y-4679600D02*
X20000000Y-4500000D01*
D24*
X20000100Y-4679600D02*
X20070400Y-4609300D01*
D22*
X14949800Y-2499800D02*
X14949800Y-3449800D01*
D24*
%TO.N,VCAP*%
X6775100Y-19229800D02*
X7448100Y-19902800D01*
D26*
X7000000Y-18000000D02*
X7500000Y-37000000D01*
D22*
X9500000Y-20000000D02*
X7850100Y-20000000D01*
D24*
X6775100Y-19229800D02*
X4569700Y-21435200D01*
X6775100Y-18224900D02*
X6775100Y-19229800D01*
D22*
X6775100Y-18224900D02*
X7000000Y-18000000D01*
D26*
X8950000Y-17250000D02*
X7050000Y-17250000D01*
D22*
X7752900Y-19902800D02*
X7850100Y-20000000D01*
D24*
X4569700Y-21435200D02*
X3535800Y-21435200D01*
D25*
X7000000Y-17300000D02*
X7050000Y-17250000D01*
D22*
X7448100Y-19902800D02*
X7752900Y-19902800D01*
D25*
X7000000Y-18000000D02*
X7000000Y-17300000D01*
D26*
X9500000Y-20000000D02*
X8950000Y-17250000D01*
X7050000Y-17250000D02*
X7000000Y-18000000D01*
%TO.N,SOLAR_IN*%
X1730000Y-37000000D02*
X5000000Y-18000000D01*
D24*
%TO.N,FEM_TX*%
X19077300Y-11672700D02*
X37948700Y-11672700D01*
X15500000Y-12750000D02*
X18000000Y-12750000D01*
D23*
X38300000Y-24428900D02*
X38300000Y-24800000D01*
D24*
X37948700Y-24692400D02*
X37948700Y-25959700D01*
X38300000Y-24428900D02*
X38212200Y-24428900D01*
D23*
X38300000Y-24800000D02*
X38500000Y-25000000D01*
D24*
X38212200Y-24428900D02*
X37948700Y-24692400D01*
X18000000Y-12750000D02*
X19077300Y-11672700D01*
%TD*%
M02*
