%TF.GenerationSoftware,KiCad,Pcbnew,9.0.8+dfsg-1*%
%TF.CreationDate,2026-07-29T21:08:03+05:30*%
%TF.ProjectId,hub_board_f33,6875625f-626f-4617-9264-5f6633332e6b,rev?*%
%TF.SameCoordinates,Original*%
%TF.FileFunction,AssemblyDrawing,Top*%
%FSLAX46Y46*%
G04 Gerber Fmt 4.6, Leading zero omitted, Abs format (unit mm)*
G04 Created by KiCad (PCBNEW 9.0.8+dfsg-1) date 2026-07-29 21:08:03*
%MOMM*%
%LPD*%
G01*
G04 APERTURE LIST*
%ADD10C,0.150000*%
%ADD11C,0.100000*%
%ADD12C,0.060000*%
G04 APERTURE END LIST*
D10*
X31047618Y-40954819D02*
X30571428Y-40954819D01*
X30571428Y-40954819D02*
X30571428Y-39954819D01*
X31523809Y-40954819D02*
X31428571Y-40907200D01*
X31428571Y-40907200D02*
X31380952Y-40859580D01*
X31380952Y-40859580D02*
X31333333Y-40764342D01*
X31333333Y-40764342D02*
X31333333Y-40478628D01*
X31333333Y-40478628D02*
X31380952Y-40383390D01*
X31380952Y-40383390D02*
X31428571Y-40335771D01*
X31428571Y-40335771D02*
X31523809Y-40288152D01*
X31523809Y-40288152D02*
X31666666Y-40288152D01*
X31666666Y-40288152D02*
X31761904Y-40335771D01*
X31761904Y-40335771D02*
X31809523Y-40383390D01*
X31809523Y-40383390D02*
X31857142Y-40478628D01*
X31857142Y-40478628D02*
X31857142Y-40764342D01*
X31857142Y-40764342D02*
X31809523Y-40859580D01*
X31809523Y-40859580D02*
X31761904Y-40907200D01*
X31761904Y-40907200D02*
X31666666Y-40954819D01*
X31666666Y-40954819D02*
X31523809Y-40954819D01*
X32857142Y-40954819D02*
X32523809Y-40478628D01*
X32285714Y-40954819D02*
X32285714Y-39954819D01*
X32285714Y-39954819D02*
X32666666Y-39954819D01*
X32666666Y-39954819D02*
X32761904Y-40002438D01*
X32761904Y-40002438D02*
X32809523Y-40050057D01*
X32809523Y-40050057D02*
X32857142Y-40145295D01*
X32857142Y-40145295D02*
X32857142Y-40288152D01*
X32857142Y-40288152D02*
X32809523Y-40383390D01*
X32809523Y-40383390D02*
X32761904Y-40431009D01*
X32761904Y-40431009D02*
X32666666Y-40478628D01*
X32666666Y-40478628D02*
X32285714Y-40478628D01*
X33714285Y-40954819D02*
X33714285Y-40431009D01*
X33714285Y-40431009D02*
X33666666Y-40335771D01*
X33666666Y-40335771D02*
X33571428Y-40288152D01*
X33571428Y-40288152D02*
X33380952Y-40288152D01*
X33380952Y-40288152D02*
X33285714Y-40335771D01*
X33714285Y-40907200D02*
X33619047Y-40954819D01*
X33619047Y-40954819D02*
X33380952Y-40954819D01*
X33380952Y-40954819D02*
X33285714Y-40907200D01*
X33285714Y-40907200D02*
X33238095Y-40811961D01*
X33238095Y-40811961D02*
X33238095Y-40716723D01*
X33238095Y-40716723D02*
X33285714Y-40621485D01*
X33285714Y-40621485D02*
X33380952Y-40573866D01*
X33380952Y-40573866D02*
X33619047Y-40573866D01*
X33619047Y-40573866D02*
X33714285Y-40526247D01*
X34142857Y-40050057D02*
X34190476Y-40002438D01*
X34190476Y-40002438D02*
X34285714Y-39954819D01*
X34285714Y-39954819D02*
X34523809Y-39954819D01*
X34523809Y-39954819D02*
X34619047Y-40002438D01*
X34619047Y-40002438D02*
X34666666Y-40050057D01*
X34666666Y-40050057D02*
X34714285Y-40145295D01*
X34714285Y-40145295D02*
X34714285Y-40240533D01*
X34714285Y-40240533D02*
X34666666Y-40383390D01*
X34666666Y-40383390D02*
X34095238Y-40954819D01*
X34095238Y-40954819D02*
X34714285Y-40954819D01*
X35333333Y-39954819D02*
X35428571Y-39954819D01*
X35428571Y-39954819D02*
X35523809Y-40002438D01*
X35523809Y-40002438D02*
X35571428Y-40050057D01*
X35571428Y-40050057D02*
X35619047Y-40145295D01*
X35619047Y-40145295D02*
X35666666Y-40335771D01*
X35666666Y-40335771D02*
X35666666Y-40573866D01*
X35666666Y-40573866D02*
X35619047Y-40764342D01*
X35619047Y-40764342D02*
X35571428Y-40859580D01*
X35571428Y-40859580D02*
X35523809Y-40907200D01*
X35523809Y-40907200D02*
X35428571Y-40954819D01*
X35428571Y-40954819D02*
X35333333Y-40954819D01*
X35333333Y-40954819D02*
X35238095Y-40907200D01*
X35238095Y-40907200D02*
X35190476Y-40859580D01*
X35190476Y-40859580D02*
X35142857Y-40764342D01*
X35142857Y-40764342D02*
X35095238Y-40573866D01*
X35095238Y-40573866D02*
X35095238Y-40335771D01*
X35095238Y-40335771D02*
X35142857Y-40145295D01*
X35142857Y-40145295D02*
X35190476Y-40050057D01*
X35190476Y-40050057D02*
X35238095Y-40002438D01*
X35238095Y-40002438D02*
X35333333Y-39954819D01*
X36047619Y-40050057D02*
X36095238Y-40002438D01*
X36095238Y-40002438D02*
X36190476Y-39954819D01*
X36190476Y-39954819D02*
X36428571Y-39954819D01*
X36428571Y-39954819D02*
X36523809Y-40002438D01*
X36523809Y-40002438D02*
X36571428Y-40050057D01*
X36571428Y-40050057D02*
X36619047Y-40145295D01*
X36619047Y-40145295D02*
X36619047Y-40240533D01*
X36619047Y-40240533D02*
X36571428Y-40383390D01*
X36571428Y-40383390D02*
X36000000Y-40954819D01*
X36000000Y-40954819D02*
X36619047Y-40954819D01*
X37571428Y-40954819D02*
X37000000Y-40954819D01*
X37285714Y-40954819D02*
X37285714Y-39954819D01*
X37285714Y-39954819D02*
X37190476Y-40097676D01*
X37190476Y-40097676D02*
X37095238Y-40192914D01*
X37095238Y-40192914D02*
X37000000Y-40240533D01*
X38333333Y-40431009D02*
X38000000Y-40431009D01*
X38000000Y-40954819D02*
X38000000Y-39954819D01*
X38000000Y-39954819D02*
X38476190Y-39954819D01*
X38761905Y-39954819D02*
X39380952Y-39954819D01*
X39380952Y-39954819D02*
X39047619Y-40335771D01*
X39047619Y-40335771D02*
X39190476Y-40335771D01*
X39190476Y-40335771D02*
X39285714Y-40383390D01*
X39285714Y-40383390D02*
X39333333Y-40431009D01*
X39333333Y-40431009D02*
X39380952Y-40526247D01*
X39380952Y-40526247D02*
X39380952Y-40764342D01*
X39380952Y-40764342D02*
X39333333Y-40859580D01*
X39333333Y-40859580D02*
X39285714Y-40907200D01*
X39285714Y-40907200D02*
X39190476Y-40954819D01*
X39190476Y-40954819D02*
X38904762Y-40954819D01*
X38904762Y-40954819D02*
X38809524Y-40907200D01*
X38809524Y-40907200D02*
X38761905Y-40859580D01*
X39714286Y-39954819D02*
X40333333Y-39954819D01*
X40333333Y-39954819D02*
X40000000Y-40335771D01*
X40000000Y-40335771D02*
X40142857Y-40335771D01*
X40142857Y-40335771D02*
X40238095Y-40383390D01*
X40238095Y-40383390D02*
X40285714Y-40431009D01*
X40285714Y-40431009D02*
X40333333Y-40526247D01*
X40333333Y-40526247D02*
X40333333Y-40764342D01*
X40333333Y-40764342D02*
X40285714Y-40859580D01*
X40285714Y-40859580D02*
X40238095Y-40907200D01*
X40238095Y-40907200D02*
X40142857Y-40954819D01*
X40142857Y-40954819D02*
X39857143Y-40954819D01*
X39857143Y-40954819D02*
X39761905Y-40907200D01*
X39761905Y-40907200D02*
X39714286Y-40859580D01*
X40761905Y-40573866D02*
X41523810Y-40573866D01*
X41952381Y-40050057D02*
X42000000Y-40002438D01*
X42000000Y-40002438D02*
X42095238Y-39954819D01*
X42095238Y-39954819D02*
X42333333Y-39954819D01*
X42333333Y-39954819D02*
X42428571Y-40002438D01*
X42428571Y-40002438D02*
X42476190Y-40050057D01*
X42476190Y-40050057D02*
X42523809Y-40145295D01*
X42523809Y-40145295D02*
X42523809Y-40240533D01*
X42523809Y-40240533D02*
X42476190Y-40383390D01*
X42476190Y-40383390D02*
X41904762Y-40954819D01*
X41904762Y-40954819D02*
X42523809Y-40954819D01*
X43476190Y-40002438D02*
X43380952Y-39954819D01*
X43380952Y-39954819D02*
X43238095Y-39954819D01*
X43238095Y-39954819D02*
X43095238Y-40002438D01*
X43095238Y-40002438D02*
X43000000Y-40097676D01*
X43000000Y-40097676D02*
X42952381Y-40192914D01*
X42952381Y-40192914D02*
X42904762Y-40383390D01*
X42904762Y-40383390D02*
X42904762Y-40526247D01*
X42904762Y-40526247D02*
X42952381Y-40716723D01*
X42952381Y-40716723D02*
X43000000Y-40811961D01*
X43000000Y-40811961D02*
X43095238Y-40907200D01*
X43095238Y-40907200D02*
X43238095Y-40954819D01*
X43238095Y-40954819D02*
X43333333Y-40954819D01*
X43333333Y-40954819D02*
X43476190Y-40907200D01*
X43476190Y-40907200D02*
X43523809Y-40859580D01*
X43523809Y-40859580D02*
X43523809Y-40526247D01*
X43523809Y-40526247D02*
X43333333Y-40526247D01*
X44380952Y-40288152D02*
X44380952Y-40954819D01*
X44142857Y-39907200D02*
X43904762Y-40621485D01*
X43904762Y-40621485D02*
X44523809Y-40621485D01*
X5047620Y-26431009D02*
X5380953Y-26431009D01*
X5523810Y-26954819D02*
X5047620Y-26954819D01*
X5047620Y-26954819D02*
X5047620Y-25954819D01*
X5047620Y-25954819D02*
X5523810Y-25954819D01*
X5904763Y-26907200D02*
X6047620Y-26954819D01*
X6047620Y-26954819D02*
X6285715Y-26954819D01*
X6285715Y-26954819D02*
X6380953Y-26907200D01*
X6380953Y-26907200D02*
X6428572Y-26859580D01*
X6428572Y-26859580D02*
X6476191Y-26764342D01*
X6476191Y-26764342D02*
X6476191Y-26669104D01*
X6476191Y-26669104D02*
X6428572Y-26573866D01*
X6428572Y-26573866D02*
X6380953Y-26526247D01*
X6380953Y-26526247D02*
X6285715Y-26478628D01*
X6285715Y-26478628D02*
X6095239Y-26431009D01*
X6095239Y-26431009D02*
X6000001Y-26383390D01*
X6000001Y-26383390D02*
X5952382Y-26335771D01*
X5952382Y-26335771D02*
X5904763Y-26240533D01*
X5904763Y-26240533D02*
X5904763Y-26145295D01*
X5904763Y-26145295D02*
X5952382Y-26050057D01*
X5952382Y-26050057D02*
X6000001Y-26002438D01*
X6000001Y-26002438D02*
X6095239Y-25954819D01*
X6095239Y-25954819D02*
X6333334Y-25954819D01*
X6333334Y-25954819D02*
X6476191Y-26002438D01*
X6904763Y-26954819D02*
X6904763Y-25954819D01*
X6904763Y-25954819D02*
X7285715Y-25954819D01*
X7285715Y-25954819D02*
X7380953Y-26002438D01*
X7380953Y-26002438D02*
X7428572Y-26050057D01*
X7428572Y-26050057D02*
X7476191Y-26145295D01*
X7476191Y-26145295D02*
X7476191Y-26288152D01*
X7476191Y-26288152D02*
X7428572Y-26383390D01*
X7428572Y-26383390D02*
X7380953Y-26431009D01*
X7380953Y-26431009D02*
X7285715Y-26478628D01*
X7285715Y-26478628D02*
X6904763Y-26478628D01*
X7809525Y-25954819D02*
X8428572Y-25954819D01*
X8428572Y-25954819D02*
X8095239Y-26335771D01*
X8095239Y-26335771D02*
X8238096Y-26335771D01*
X8238096Y-26335771D02*
X8333334Y-26383390D01*
X8333334Y-26383390D02*
X8380953Y-26431009D01*
X8380953Y-26431009D02*
X8428572Y-26526247D01*
X8428572Y-26526247D02*
X8428572Y-26764342D01*
X8428572Y-26764342D02*
X8380953Y-26859580D01*
X8380953Y-26859580D02*
X8333334Y-26907200D01*
X8333334Y-26907200D02*
X8238096Y-26954819D01*
X8238096Y-26954819D02*
X7952382Y-26954819D01*
X7952382Y-26954819D02*
X7857144Y-26907200D01*
X7857144Y-26907200D02*
X7809525Y-26859580D01*
X8809525Y-26050057D02*
X8857144Y-26002438D01*
X8857144Y-26002438D02*
X8952382Y-25954819D01*
X8952382Y-25954819D02*
X9190477Y-25954819D01*
X9190477Y-25954819D02*
X9285715Y-26002438D01*
X9285715Y-26002438D02*
X9333334Y-26050057D01*
X9333334Y-26050057D02*
X9380953Y-26145295D01*
X9380953Y-26145295D02*
X9380953Y-26240533D01*
X9380953Y-26240533D02*
X9333334Y-26383390D01*
X9333334Y-26383390D02*
X8761906Y-26954819D01*
X8761906Y-26954819D02*
X9380953Y-26954819D01*
X9809525Y-26573866D02*
X10571430Y-26573866D01*
X11619048Y-26859580D02*
X11571429Y-26907200D01*
X11571429Y-26907200D02*
X11428572Y-26954819D01*
X11428572Y-26954819D02*
X11333334Y-26954819D01*
X11333334Y-26954819D02*
X11190477Y-26907200D01*
X11190477Y-26907200D02*
X11095239Y-26811961D01*
X11095239Y-26811961D02*
X11047620Y-26716723D01*
X11047620Y-26716723D02*
X11000001Y-26526247D01*
X11000001Y-26526247D02*
X11000001Y-26383390D01*
X11000001Y-26383390D02*
X11047620Y-26192914D01*
X11047620Y-26192914D02*
X11095239Y-26097676D01*
X11095239Y-26097676D02*
X11190477Y-26002438D01*
X11190477Y-26002438D02*
X11333334Y-25954819D01*
X11333334Y-25954819D02*
X11428572Y-25954819D01*
X11428572Y-25954819D02*
X11571429Y-26002438D01*
X11571429Y-26002438D02*
X11619048Y-26050057D01*
X11952382Y-25954819D02*
X12571429Y-25954819D01*
X12571429Y-25954819D02*
X12238096Y-26335771D01*
X12238096Y-26335771D02*
X12380953Y-26335771D01*
X12380953Y-26335771D02*
X12476191Y-26383390D01*
X12476191Y-26383390D02*
X12523810Y-26431009D01*
X12523810Y-26431009D02*
X12571429Y-26526247D01*
X12571429Y-26526247D02*
X12571429Y-26764342D01*
X12571429Y-26764342D02*
X12523810Y-26859580D01*
X12523810Y-26859580D02*
X12476191Y-26907200D01*
X12476191Y-26907200D02*
X12380953Y-26954819D01*
X12380953Y-26954819D02*
X12095239Y-26954819D01*
X12095239Y-26954819D02*
X12000001Y-26907200D01*
X12000001Y-26907200D02*
X11952382Y-26859580D01*
X13000001Y-26573866D02*
X13761906Y-26573866D01*
X14238096Y-26954819D02*
X14238096Y-25954819D01*
X14238096Y-25954819D02*
X14571429Y-26669104D01*
X14571429Y-26669104D02*
X14904762Y-25954819D01*
X14904762Y-25954819D02*
X14904762Y-26954819D01*
X15380953Y-26954819D02*
X15380953Y-26288152D01*
X15380953Y-25954819D02*
X15333334Y-26002438D01*
X15333334Y-26002438D02*
X15380953Y-26050057D01*
X15380953Y-26050057D02*
X15428572Y-26002438D01*
X15428572Y-26002438D02*
X15380953Y-25954819D01*
X15380953Y-25954819D02*
X15380953Y-26050057D01*
X15857143Y-26288152D02*
X15857143Y-26954819D01*
X15857143Y-26383390D02*
X15904762Y-26335771D01*
X15904762Y-26335771D02*
X16000000Y-26288152D01*
X16000000Y-26288152D02*
X16142857Y-26288152D01*
X16142857Y-26288152D02*
X16238095Y-26335771D01*
X16238095Y-26335771D02*
X16285714Y-26431009D01*
X16285714Y-26431009D02*
X16285714Y-26954819D01*
X16761905Y-26954819D02*
X16761905Y-26288152D01*
X16761905Y-25954819D02*
X16714286Y-26002438D01*
X16714286Y-26002438D02*
X16761905Y-26050057D01*
X16761905Y-26050057D02*
X16809524Y-26002438D01*
X16809524Y-26002438D02*
X16761905Y-25954819D01*
X16761905Y-25954819D02*
X16761905Y-26050057D01*
X17238095Y-26573866D02*
X18000000Y-26573866D01*
X18999999Y-26954819D02*
X18428571Y-26954819D01*
X18714285Y-26954819D02*
X18714285Y-25954819D01*
X18714285Y-25954819D02*
X18619047Y-26097676D01*
X18619047Y-26097676D02*
X18523809Y-26192914D01*
X18523809Y-26192914D02*
X18428571Y-26240533D01*
X58619047Y-37454819D02*
X58285714Y-36978628D01*
X58047619Y-37454819D02*
X58047619Y-36454819D01*
X58047619Y-36454819D02*
X58428571Y-36454819D01*
X58428571Y-36454819D02*
X58523809Y-36502438D01*
X58523809Y-36502438D02*
X58571428Y-36550057D01*
X58571428Y-36550057D02*
X58619047Y-36645295D01*
X58619047Y-36645295D02*
X58619047Y-36788152D01*
X58619047Y-36788152D02*
X58571428Y-36883390D01*
X58571428Y-36883390D02*
X58523809Y-36931009D01*
X58523809Y-36931009D02*
X58428571Y-36978628D01*
X58428571Y-36978628D02*
X58047619Y-36978628D01*
X59047619Y-37454819D02*
X59047619Y-36454819D01*
X59047619Y-36454819D02*
X59428571Y-36454819D01*
X59428571Y-36454819D02*
X59523809Y-36502438D01*
X59523809Y-36502438D02*
X59571428Y-36550057D01*
X59571428Y-36550057D02*
X59619047Y-36645295D01*
X59619047Y-36645295D02*
X59619047Y-36788152D01*
X59619047Y-36788152D02*
X59571428Y-36883390D01*
X59571428Y-36883390D02*
X59523809Y-36931009D01*
X59523809Y-36931009D02*
X59428571Y-36978628D01*
X59428571Y-36978628D02*
X59047619Y-36978628D01*
X60000000Y-36550057D02*
X60047619Y-36502438D01*
X60047619Y-36502438D02*
X60142857Y-36454819D01*
X60142857Y-36454819D02*
X60380952Y-36454819D01*
X60380952Y-36454819D02*
X60476190Y-36502438D01*
X60476190Y-36502438D02*
X60523809Y-36550057D01*
X60523809Y-36550057D02*
X60571428Y-36645295D01*
X60571428Y-36645295D02*
X60571428Y-36740533D01*
X60571428Y-36740533D02*
X60523809Y-36883390D01*
X60523809Y-36883390D02*
X59952381Y-37454819D01*
X59952381Y-37454819D02*
X60571428Y-37454819D01*
X61190476Y-36454819D02*
X61285714Y-36454819D01*
X61285714Y-36454819D02*
X61380952Y-36502438D01*
X61380952Y-36502438D02*
X61428571Y-36550057D01*
X61428571Y-36550057D02*
X61476190Y-36645295D01*
X61476190Y-36645295D02*
X61523809Y-36835771D01*
X61523809Y-36835771D02*
X61523809Y-37073866D01*
X61523809Y-37073866D02*
X61476190Y-37264342D01*
X61476190Y-37264342D02*
X61428571Y-37359580D01*
X61428571Y-37359580D02*
X61380952Y-37407200D01*
X61380952Y-37407200D02*
X61285714Y-37454819D01*
X61285714Y-37454819D02*
X61190476Y-37454819D01*
X61190476Y-37454819D02*
X61095238Y-37407200D01*
X61095238Y-37407200D02*
X61047619Y-37359580D01*
X61047619Y-37359580D02*
X61000000Y-37264342D01*
X61000000Y-37264342D02*
X60952381Y-37073866D01*
X60952381Y-37073866D02*
X60952381Y-36835771D01*
X60952381Y-36835771D02*
X61000000Y-36645295D01*
X61000000Y-36645295D02*
X61047619Y-36550057D01*
X61047619Y-36550057D02*
X61095238Y-36502438D01*
X61095238Y-36502438D02*
X61190476Y-36454819D01*
X62380952Y-36788152D02*
X62380952Y-37454819D01*
X62142857Y-36407200D02*
X61904762Y-37121485D01*
X61904762Y-37121485D02*
X62523809Y-37121485D01*
X63095238Y-36454819D02*
X63190476Y-36454819D01*
X63190476Y-36454819D02*
X63285714Y-36502438D01*
X63285714Y-36502438D02*
X63333333Y-36550057D01*
X63333333Y-36550057D02*
X63380952Y-36645295D01*
X63380952Y-36645295D02*
X63428571Y-36835771D01*
X63428571Y-36835771D02*
X63428571Y-37073866D01*
X63428571Y-37073866D02*
X63380952Y-37264342D01*
X63380952Y-37264342D02*
X63333333Y-37359580D01*
X63333333Y-37359580D02*
X63285714Y-37407200D01*
X63285714Y-37407200D02*
X63190476Y-37454819D01*
X63190476Y-37454819D02*
X63095238Y-37454819D01*
X63095238Y-37454819D02*
X63000000Y-37407200D01*
X63000000Y-37407200D02*
X62952381Y-37359580D01*
X62952381Y-37359580D02*
X62904762Y-37264342D01*
X62904762Y-37264342D02*
X62857143Y-37073866D01*
X62857143Y-37073866D02*
X62857143Y-36835771D01*
X62857143Y-36835771D02*
X62904762Y-36645295D01*
X62904762Y-36645295D02*
X62952381Y-36550057D01*
X62952381Y-36550057D02*
X63000000Y-36502438D01*
X63000000Y-36502438D02*
X63095238Y-36454819D01*
X63857143Y-37073866D02*
X64619048Y-37073866D01*
X65000000Y-36454819D02*
X65666666Y-36454819D01*
X65666666Y-36454819D02*
X65000000Y-37454819D01*
X65000000Y-37454819D02*
X65666666Y-37454819D01*
X66428571Y-37407200D02*
X66333333Y-37454819D01*
X66333333Y-37454819D02*
X66142857Y-37454819D01*
X66142857Y-37454819D02*
X66047619Y-37407200D01*
X66047619Y-37407200D02*
X66000000Y-37311961D01*
X66000000Y-37311961D02*
X66000000Y-36931009D01*
X66000000Y-36931009D02*
X66047619Y-36835771D01*
X66047619Y-36835771D02*
X66142857Y-36788152D01*
X66142857Y-36788152D02*
X66333333Y-36788152D01*
X66333333Y-36788152D02*
X66428571Y-36835771D01*
X66428571Y-36835771D02*
X66476190Y-36931009D01*
X66476190Y-36931009D02*
X66476190Y-37026247D01*
X66476190Y-37026247D02*
X66000000Y-37121485D01*
X66904762Y-37454819D02*
X66904762Y-36788152D01*
X66904762Y-36978628D02*
X66952381Y-36883390D01*
X66952381Y-36883390D02*
X67000000Y-36835771D01*
X67000000Y-36835771D02*
X67095238Y-36788152D01*
X67095238Y-36788152D02*
X67190476Y-36788152D01*
X67666667Y-37454819D02*
X67571429Y-37407200D01*
X67571429Y-37407200D02*
X67523810Y-37359580D01*
X67523810Y-37359580D02*
X67476191Y-37264342D01*
X67476191Y-37264342D02*
X67476191Y-36978628D01*
X67476191Y-36978628D02*
X67523810Y-36883390D01*
X67523810Y-36883390D02*
X67571429Y-36835771D01*
X67571429Y-36835771D02*
X67666667Y-36788152D01*
X67666667Y-36788152D02*
X67809524Y-36788152D01*
X67809524Y-36788152D02*
X67904762Y-36835771D01*
X67904762Y-36835771D02*
X67952381Y-36883390D01*
X67952381Y-36883390D02*
X68000000Y-36978628D01*
X68000000Y-36978628D02*
X68000000Y-37264342D01*
X68000000Y-37264342D02*
X67952381Y-37359580D01*
X67952381Y-37359580D02*
X67904762Y-37407200D01*
X67904762Y-37407200D02*
X67809524Y-37454819D01*
X67809524Y-37454819D02*
X67666667Y-37454819D01*
D11*
X2914285Y-53364895D02*
X2914285Y-52564895D01*
X2914285Y-52564895D02*
X3180951Y-53136323D01*
X3180951Y-53136323D02*
X3447618Y-52564895D01*
X3447618Y-52564895D02*
X3447618Y-53364895D01*
X3790475Y-53136323D02*
X4171428Y-53136323D01*
X3714285Y-53364895D02*
X3980952Y-52564895D01*
X3980952Y-52564895D02*
X4247618Y-53364895D01*
X4438094Y-52564895D02*
X4971428Y-53364895D01*
X4971428Y-52564895D02*
X4438094Y-53364895D01*
X5276190Y-53060133D02*
X5885714Y-53060133D01*
X6266666Y-53364895D02*
X6266666Y-52564895D01*
X6266666Y-52564895D02*
X6533332Y-53136323D01*
X6533332Y-53136323D02*
X6799999Y-52564895D01*
X6799999Y-52564895D02*
X6799999Y-53364895D01*
X7599999Y-53364895D02*
X7142856Y-53364895D01*
X7371428Y-53364895D02*
X7371428Y-52564895D01*
X7371428Y-52564895D02*
X7295237Y-52679180D01*
X7295237Y-52679180D02*
X7219047Y-52755371D01*
X7219047Y-52755371D02*
X7142856Y-52793466D01*
X8095238Y-52564895D02*
X8171428Y-52564895D01*
X8171428Y-52564895D02*
X8247619Y-52602990D01*
X8247619Y-52602990D02*
X8285714Y-52641085D01*
X8285714Y-52641085D02*
X8323809Y-52717276D01*
X8323809Y-52717276D02*
X8361904Y-52869657D01*
X8361904Y-52869657D02*
X8361904Y-53060133D01*
X8361904Y-53060133D02*
X8323809Y-53212514D01*
X8323809Y-53212514D02*
X8285714Y-53288704D01*
X8285714Y-53288704D02*
X8247619Y-53326800D01*
X8247619Y-53326800D02*
X8171428Y-53364895D01*
X8171428Y-53364895D02*
X8095238Y-53364895D01*
X8095238Y-53364895D02*
X8019047Y-53326800D01*
X8019047Y-53326800D02*
X7980952Y-53288704D01*
X7980952Y-53288704D02*
X7942857Y-53212514D01*
X7942857Y-53212514D02*
X7904761Y-53060133D01*
X7904761Y-53060133D02*
X7904761Y-52869657D01*
X7904761Y-52869657D02*
X7942857Y-52717276D01*
X7942857Y-52717276D02*
X7980952Y-52641085D01*
X7980952Y-52641085D02*
X8019047Y-52602990D01*
X8019047Y-52602990D02*
X8095238Y-52564895D01*
X8666666Y-53326800D02*
X8780952Y-53364895D01*
X8780952Y-53364895D02*
X8971428Y-53364895D01*
X8971428Y-53364895D02*
X9047619Y-53326800D01*
X9047619Y-53326800D02*
X9085714Y-53288704D01*
X9085714Y-53288704D02*
X9123809Y-53212514D01*
X9123809Y-53212514D02*
X9123809Y-53136323D01*
X9123809Y-53136323D02*
X9085714Y-53060133D01*
X9085714Y-53060133D02*
X9047619Y-53022038D01*
X9047619Y-53022038D02*
X8971428Y-52983942D01*
X8971428Y-52983942D02*
X8819047Y-52945847D01*
X8819047Y-52945847D02*
X8742857Y-52907752D01*
X8742857Y-52907752D02*
X8704762Y-52869657D01*
X8704762Y-52869657D02*
X8666666Y-52793466D01*
X8666666Y-52793466D02*
X8666666Y-52717276D01*
X8666666Y-52717276D02*
X8704762Y-52641085D01*
X8704762Y-52641085D02*
X8742857Y-52602990D01*
X8742857Y-52602990D02*
X8819047Y-52564895D01*
X8819047Y-52564895D02*
X9009524Y-52564895D01*
X9009524Y-52564895D02*
X9123809Y-52602990D01*
X65828571Y-53364895D02*
X65828571Y-52564895D01*
X65828571Y-52564895D02*
X66095237Y-53136323D01*
X66095237Y-53136323D02*
X66361904Y-52564895D01*
X66361904Y-52564895D02*
X66361904Y-53364895D01*
X66704761Y-53326800D02*
X66819047Y-53364895D01*
X66819047Y-53364895D02*
X67009523Y-53364895D01*
X67009523Y-53364895D02*
X67085714Y-53326800D01*
X67085714Y-53326800D02*
X67123809Y-53288704D01*
X67123809Y-53288704D02*
X67161904Y-53212514D01*
X67161904Y-53212514D02*
X67161904Y-53136323D01*
X67161904Y-53136323D02*
X67123809Y-53060133D01*
X67123809Y-53060133D02*
X67085714Y-53022038D01*
X67085714Y-53022038D02*
X67009523Y-52983942D01*
X67009523Y-52983942D02*
X66857142Y-52945847D01*
X66857142Y-52945847D02*
X66780952Y-52907752D01*
X66780952Y-52907752D02*
X66742857Y-52869657D01*
X66742857Y-52869657D02*
X66704761Y-52793466D01*
X66704761Y-52793466D02*
X66704761Y-52717276D01*
X66704761Y-52717276D02*
X66742857Y-52641085D01*
X66742857Y-52641085D02*
X66780952Y-52602990D01*
X66780952Y-52602990D02*
X66857142Y-52564895D01*
X66857142Y-52564895D02*
X67047619Y-52564895D01*
X67047619Y-52564895D02*
X67161904Y-52602990D01*
X67885714Y-52564895D02*
X67504762Y-52564895D01*
X67504762Y-52564895D02*
X67466666Y-52945847D01*
X67466666Y-52945847D02*
X67504762Y-52907752D01*
X67504762Y-52907752D02*
X67580952Y-52869657D01*
X67580952Y-52869657D02*
X67771428Y-52869657D01*
X67771428Y-52869657D02*
X67847619Y-52907752D01*
X67847619Y-52907752D02*
X67885714Y-52945847D01*
X67885714Y-52945847D02*
X67923809Y-53022038D01*
X67923809Y-53022038D02*
X67923809Y-53212514D01*
X67923809Y-53212514D02*
X67885714Y-53288704D01*
X67885714Y-53288704D02*
X67847619Y-53326800D01*
X67847619Y-53326800D02*
X67771428Y-53364895D01*
X67771428Y-53364895D02*
X67580952Y-53364895D01*
X67580952Y-53364895D02*
X67504762Y-53326800D01*
X67504762Y-53326800D02*
X67466666Y-53288704D01*
X68609524Y-52564895D02*
X68457143Y-52564895D01*
X68457143Y-52564895D02*
X68380952Y-52602990D01*
X68380952Y-52602990D02*
X68342857Y-52641085D01*
X68342857Y-52641085D02*
X68266667Y-52755371D01*
X68266667Y-52755371D02*
X68228571Y-52907752D01*
X68228571Y-52907752D02*
X68228571Y-53212514D01*
X68228571Y-53212514D02*
X68266667Y-53288704D01*
X68266667Y-53288704D02*
X68304762Y-53326800D01*
X68304762Y-53326800D02*
X68380952Y-53364895D01*
X68380952Y-53364895D02*
X68533333Y-53364895D01*
X68533333Y-53364895D02*
X68609524Y-53326800D01*
X68609524Y-53326800D02*
X68647619Y-53288704D01*
X68647619Y-53288704D02*
X68685714Y-53212514D01*
X68685714Y-53212514D02*
X68685714Y-53022038D01*
X68685714Y-53022038D02*
X68647619Y-52945847D01*
X68647619Y-52945847D02*
X68609524Y-52907752D01*
X68609524Y-52907752D02*
X68533333Y-52869657D01*
X68533333Y-52869657D02*
X68380952Y-52869657D01*
X68380952Y-52869657D02*
X68304762Y-52907752D01*
X68304762Y-52907752D02*
X68266667Y-52945847D01*
X68266667Y-52945847D02*
X68228571Y-53022038D01*
X69447619Y-53364895D02*
X68990476Y-53364895D01*
X69219048Y-53364895D02*
X69219048Y-52564895D01*
X69219048Y-52564895D02*
X69142857Y-52679180D01*
X69142857Y-52679180D02*
X69066667Y-52755371D01*
X69066667Y-52755371D02*
X68990476Y-52793466D01*
X70209524Y-53364895D02*
X69752381Y-53364895D01*
X69980953Y-53364895D02*
X69980953Y-52564895D01*
X69980953Y-52564895D02*
X69904762Y-52679180D01*
X69904762Y-52679180D02*
X69828572Y-52755371D01*
X69828572Y-52755371D02*
X69752381Y-52793466D01*
X6128570Y-42172371D02*
X6471428Y-42172371D01*
X6299999Y-42772371D02*
X6299999Y-42172371D01*
X6671428Y-42772371D02*
X6671428Y-42172371D01*
X6671428Y-42172371D02*
X6899999Y-42172371D01*
X6899999Y-42172371D02*
X6957142Y-42200942D01*
X6957142Y-42200942D02*
X6985713Y-42229514D01*
X6985713Y-42229514D02*
X7014285Y-42286657D01*
X7014285Y-42286657D02*
X7014285Y-42372371D01*
X7014285Y-42372371D02*
X6985713Y-42429514D01*
X6985713Y-42429514D02*
X6957142Y-42458085D01*
X6957142Y-42458085D02*
X6899999Y-42486657D01*
X6899999Y-42486657D02*
X6671428Y-42486657D01*
X7242856Y-42743800D02*
X7328571Y-42772371D01*
X7328571Y-42772371D02*
X7471428Y-42772371D01*
X7471428Y-42772371D02*
X7528571Y-42743800D01*
X7528571Y-42743800D02*
X7557142Y-42715228D01*
X7557142Y-42715228D02*
X7585713Y-42658085D01*
X7585713Y-42658085D02*
X7585713Y-42600942D01*
X7585713Y-42600942D02*
X7557142Y-42543800D01*
X7557142Y-42543800D02*
X7528571Y-42515228D01*
X7528571Y-42515228D02*
X7471428Y-42486657D01*
X7471428Y-42486657D02*
X7357142Y-42458085D01*
X7357142Y-42458085D02*
X7299999Y-42429514D01*
X7299999Y-42429514D02*
X7271428Y-42400942D01*
X7271428Y-42400942D02*
X7242856Y-42343800D01*
X7242856Y-42343800D02*
X7242856Y-42286657D01*
X7242856Y-42286657D02*
X7271428Y-42229514D01*
X7271428Y-42229514D02*
X7299999Y-42200942D01*
X7299999Y-42200942D02*
X7357142Y-42172371D01*
X7357142Y-42172371D02*
X7499999Y-42172371D01*
X7499999Y-42172371D02*
X7585713Y-42200942D01*
X7785714Y-42172371D02*
X8185714Y-42172371D01*
X8185714Y-42172371D02*
X7928571Y-42772371D01*
X8385714Y-42600942D02*
X8671429Y-42600942D01*
X8328571Y-42772371D02*
X8528571Y-42172371D01*
X8528571Y-42172371D02*
X8728571Y-42772371D01*
X9042857Y-42172371D02*
X9100000Y-42172371D01*
X9100000Y-42172371D02*
X9157143Y-42200942D01*
X9157143Y-42200942D02*
X9185715Y-42229514D01*
X9185715Y-42229514D02*
X9214286Y-42286657D01*
X9214286Y-42286657D02*
X9242857Y-42400942D01*
X9242857Y-42400942D02*
X9242857Y-42543800D01*
X9242857Y-42543800D02*
X9214286Y-42658085D01*
X9214286Y-42658085D02*
X9185715Y-42715228D01*
X9185715Y-42715228D02*
X9157143Y-42743800D01*
X9157143Y-42743800D02*
X9100000Y-42772371D01*
X9100000Y-42772371D02*
X9042857Y-42772371D01*
X9042857Y-42772371D02*
X8985715Y-42743800D01*
X8985715Y-42743800D02*
X8957143Y-42715228D01*
X8957143Y-42715228D02*
X8928572Y-42658085D01*
X8928572Y-42658085D02*
X8900000Y-42543800D01*
X8900000Y-42543800D02*
X8900000Y-42400942D01*
X8900000Y-42400942D02*
X8928572Y-42286657D01*
X8928572Y-42286657D02*
X8957143Y-42229514D01*
X8957143Y-42229514D02*
X8985715Y-42200942D01*
X8985715Y-42200942D02*
X9042857Y-42172371D01*
X9471429Y-42229514D02*
X9500001Y-42200942D01*
X9500001Y-42200942D02*
X9557144Y-42172371D01*
X9557144Y-42172371D02*
X9700001Y-42172371D01*
X9700001Y-42172371D02*
X9757144Y-42200942D01*
X9757144Y-42200942D02*
X9785715Y-42229514D01*
X9785715Y-42229514D02*
X9814286Y-42286657D01*
X9814286Y-42286657D02*
X9814286Y-42343800D01*
X9814286Y-42343800D02*
X9785715Y-42429514D01*
X9785715Y-42429514D02*
X9442858Y-42772371D01*
X9442858Y-42772371D02*
X9814286Y-42772371D01*
X3985714Y-42458085D02*
X4071428Y-42486657D01*
X4071428Y-42486657D02*
X4099999Y-42515228D01*
X4099999Y-42515228D02*
X4128571Y-42572371D01*
X4128571Y-42572371D02*
X4128571Y-42658085D01*
X4128571Y-42658085D02*
X4099999Y-42715228D01*
X4099999Y-42715228D02*
X4071428Y-42743800D01*
X4071428Y-42743800D02*
X4014285Y-42772371D01*
X4014285Y-42772371D02*
X3785714Y-42772371D01*
X3785714Y-42772371D02*
X3785714Y-42172371D01*
X3785714Y-42172371D02*
X3985714Y-42172371D01*
X3985714Y-42172371D02*
X4042857Y-42200942D01*
X4042857Y-42200942D02*
X4071428Y-42229514D01*
X4071428Y-42229514D02*
X4099999Y-42286657D01*
X4099999Y-42286657D02*
X4099999Y-42343800D01*
X4099999Y-42343800D02*
X4071428Y-42400942D01*
X4071428Y-42400942D02*
X4042857Y-42429514D01*
X4042857Y-42429514D02*
X3985714Y-42458085D01*
X3985714Y-42458085D02*
X3785714Y-42458085D01*
X4357142Y-42600942D02*
X4642857Y-42600942D01*
X4299999Y-42772371D02*
X4499999Y-42172371D01*
X4499999Y-42172371D02*
X4699999Y-42772371D01*
X4814285Y-42172371D02*
X5157143Y-42172371D01*
X4985714Y-42772371D02*
X4985714Y-42172371D01*
X5642857Y-42172371D02*
X5357143Y-42172371D01*
X5357143Y-42172371D02*
X5328571Y-42458085D01*
X5328571Y-42458085D02*
X5357143Y-42429514D01*
X5357143Y-42429514D02*
X5414286Y-42400942D01*
X5414286Y-42400942D02*
X5557143Y-42400942D01*
X5557143Y-42400942D02*
X5614286Y-42429514D01*
X5614286Y-42429514D02*
X5642857Y-42458085D01*
X5642857Y-42458085D02*
X5671428Y-42515228D01*
X5671428Y-42515228D02*
X5671428Y-42658085D01*
X5671428Y-42658085D02*
X5642857Y-42715228D01*
X5642857Y-42715228D02*
X5614286Y-42743800D01*
X5614286Y-42743800D02*
X5557143Y-42772371D01*
X5557143Y-42772371D02*
X5414286Y-42772371D01*
X5414286Y-42772371D02*
X5357143Y-42743800D01*
X5357143Y-42743800D02*
X5328571Y-42715228D01*
X6185715Y-42372371D02*
X6185715Y-42772371D01*
X6042857Y-42143800D02*
X5900000Y-42572371D01*
X5900000Y-42572371D02*
X6271429Y-42572371D01*
X17071427Y-38772371D02*
X16728570Y-38772371D01*
X16899999Y-38772371D02*
X16899999Y-38172371D01*
X16899999Y-38172371D02*
X16842856Y-38258085D01*
X16842856Y-38258085D02*
X16785713Y-38315228D01*
X16785713Y-38315228D02*
X16728570Y-38343800D01*
X17442856Y-38172371D02*
X17499999Y-38172371D01*
X17499999Y-38172371D02*
X17557142Y-38200942D01*
X17557142Y-38200942D02*
X17585714Y-38229514D01*
X17585714Y-38229514D02*
X17614285Y-38286657D01*
X17614285Y-38286657D02*
X17642856Y-38400942D01*
X17642856Y-38400942D02*
X17642856Y-38543800D01*
X17642856Y-38543800D02*
X17614285Y-38658085D01*
X17614285Y-38658085D02*
X17585714Y-38715228D01*
X17585714Y-38715228D02*
X17557142Y-38743800D01*
X17557142Y-38743800D02*
X17499999Y-38772371D01*
X17499999Y-38772371D02*
X17442856Y-38772371D01*
X17442856Y-38772371D02*
X17385714Y-38743800D01*
X17385714Y-38743800D02*
X17357142Y-38715228D01*
X17357142Y-38715228D02*
X17328571Y-38658085D01*
X17328571Y-38658085D02*
X17299999Y-38543800D01*
X17299999Y-38543800D02*
X17299999Y-38400942D01*
X17299999Y-38400942D02*
X17328571Y-38286657D01*
X17328571Y-38286657D02*
X17357142Y-38229514D01*
X17357142Y-38229514D02*
X17385714Y-38200942D01*
X17385714Y-38200942D02*
X17442856Y-38172371D01*
X18014285Y-38172371D02*
X18071428Y-38172371D01*
X18071428Y-38172371D02*
X18128571Y-38200942D01*
X18128571Y-38200942D02*
X18157143Y-38229514D01*
X18157143Y-38229514D02*
X18185714Y-38286657D01*
X18185714Y-38286657D02*
X18214285Y-38400942D01*
X18214285Y-38400942D02*
X18214285Y-38543800D01*
X18214285Y-38543800D02*
X18185714Y-38658085D01*
X18185714Y-38658085D02*
X18157143Y-38715228D01*
X18157143Y-38715228D02*
X18128571Y-38743800D01*
X18128571Y-38743800D02*
X18071428Y-38772371D01*
X18071428Y-38772371D02*
X18014285Y-38772371D01*
X18014285Y-38772371D02*
X17957143Y-38743800D01*
X17957143Y-38743800D02*
X17928571Y-38715228D01*
X17928571Y-38715228D02*
X17900000Y-38658085D01*
X17900000Y-38658085D02*
X17871428Y-38543800D01*
X17871428Y-38543800D02*
X17871428Y-38400942D01*
X17871428Y-38400942D02*
X17900000Y-38286657D01*
X17900000Y-38286657D02*
X17928571Y-38229514D01*
X17928571Y-38229514D02*
X17957143Y-38200942D01*
X17957143Y-38200942D02*
X18014285Y-38172371D01*
X18728572Y-38372371D02*
X18728572Y-38772371D01*
X18471429Y-38372371D02*
X18471429Y-38686657D01*
X18471429Y-38686657D02*
X18500000Y-38743800D01*
X18500000Y-38743800D02*
X18557143Y-38772371D01*
X18557143Y-38772371D02*
X18642857Y-38772371D01*
X18642857Y-38772371D02*
X18700000Y-38743800D01*
X18700000Y-38743800D02*
X18728572Y-38715228D01*
X19214286Y-38458085D02*
X19014286Y-38458085D01*
X19014286Y-38772371D02*
X19014286Y-38172371D01*
X19014286Y-38172371D02*
X19300000Y-38172371D01*
X17357142Y-20272371D02*
X17014285Y-20272371D01*
X17185714Y-20272371D02*
X17185714Y-19672371D01*
X17185714Y-19672371D02*
X17128571Y-19758085D01*
X17128571Y-19758085D02*
X17071428Y-19815228D01*
X17071428Y-19815228D02*
X17014285Y-19843800D01*
X17728571Y-19672371D02*
X17785714Y-19672371D01*
X17785714Y-19672371D02*
X17842857Y-19700942D01*
X17842857Y-19700942D02*
X17871429Y-19729514D01*
X17871429Y-19729514D02*
X17900000Y-19786657D01*
X17900000Y-19786657D02*
X17928571Y-19900942D01*
X17928571Y-19900942D02*
X17928571Y-20043800D01*
X17928571Y-20043800D02*
X17900000Y-20158085D01*
X17900000Y-20158085D02*
X17871429Y-20215228D01*
X17871429Y-20215228D02*
X17842857Y-20243800D01*
X17842857Y-20243800D02*
X17785714Y-20272371D01*
X17785714Y-20272371D02*
X17728571Y-20272371D01*
X17728571Y-20272371D02*
X17671429Y-20243800D01*
X17671429Y-20243800D02*
X17642857Y-20215228D01*
X17642857Y-20215228D02*
X17614286Y-20158085D01*
X17614286Y-20158085D02*
X17585714Y-20043800D01*
X17585714Y-20043800D02*
X17585714Y-19900942D01*
X17585714Y-19900942D02*
X17614286Y-19786657D01*
X17614286Y-19786657D02*
X17642857Y-19729514D01*
X17642857Y-19729514D02*
X17671429Y-19700942D01*
X17671429Y-19700942D02*
X17728571Y-19672371D01*
X18442858Y-19872371D02*
X18442858Y-20272371D01*
X18185715Y-19872371D02*
X18185715Y-20186657D01*
X18185715Y-20186657D02*
X18214286Y-20243800D01*
X18214286Y-20243800D02*
X18271429Y-20272371D01*
X18271429Y-20272371D02*
X18357143Y-20272371D01*
X18357143Y-20272371D02*
X18414286Y-20243800D01*
X18414286Y-20243800D02*
X18442858Y-20215228D01*
X18928572Y-19958085D02*
X18728572Y-19958085D01*
X18728572Y-20272371D02*
X18728572Y-19672371D01*
X18728572Y-19672371D02*
X19014286Y-19672371D01*
D12*
X15380952Y-20181927D02*
X15152381Y-20181927D01*
X15266667Y-20181927D02*
X15266667Y-19781927D01*
X15266667Y-19781927D02*
X15228571Y-19839070D01*
X15228571Y-19839070D02*
X15190476Y-19877165D01*
X15190476Y-19877165D02*
X15152381Y-19896213D01*
X15628571Y-19781927D02*
X15666666Y-19781927D01*
X15666666Y-19781927D02*
X15704762Y-19800975D01*
X15704762Y-19800975D02*
X15723809Y-19820022D01*
X15723809Y-19820022D02*
X15742857Y-19858118D01*
X15742857Y-19858118D02*
X15761904Y-19934308D01*
X15761904Y-19934308D02*
X15761904Y-20029546D01*
X15761904Y-20029546D02*
X15742857Y-20105737D01*
X15742857Y-20105737D02*
X15723809Y-20143832D01*
X15723809Y-20143832D02*
X15704762Y-20162880D01*
X15704762Y-20162880D02*
X15666666Y-20181927D01*
X15666666Y-20181927D02*
X15628571Y-20181927D01*
X15628571Y-20181927D02*
X15590476Y-20162880D01*
X15590476Y-20162880D02*
X15571428Y-20143832D01*
X15571428Y-20143832D02*
X15552381Y-20105737D01*
X15552381Y-20105737D02*
X15533333Y-20029546D01*
X15533333Y-20029546D02*
X15533333Y-19934308D01*
X15533333Y-19934308D02*
X15552381Y-19858118D01*
X15552381Y-19858118D02*
X15571428Y-19820022D01*
X15571428Y-19820022D02*
X15590476Y-19800975D01*
X15590476Y-19800975D02*
X15628571Y-19781927D01*
X16009523Y-19781927D02*
X16047618Y-19781927D01*
X16047618Y-19781927D02*
X16085714Y-19800975D01*
X16085714Y-19800975D02*
X16104761Y-19820022D01*
X16104761Y-19820022D02*
X16123809Y-19858118D01*
X16123809Y-19858118D02*
X16142856Y-19934308D01*
X16142856Y-19934308D02*
X16142856Y-20029546D01*
X16142856Y-20029546D02*
X16123809Y-20105737D01*
X16123809Y-20105737D02*
X16104761Y-20143832D01*
X16104761Y-20143832D02*
X16085714Y-20162880D01*
X16085714Y-20162880D02*
X16047618Y-20181927D01*
X16047618Y-20181927D02*
X16009523Y-20181927D01*
X16009523Y-20181927D02*
X15971428Y-20162880D01*
X15971428Y-20162880D02*
X15952380Y-20143832D01*
X15952380Y-20143832D02*
X15933333Y-20105737D01*
X15933333Y-20105737D02*
X15914285Y-20029546D01*
X15914285Y-20029546D02*
X15914285Y-19934308D01*
X15914285Y-19934308D02*
X15933333Y-19858118D01*
X15933333Y-19858118D02*
X15952380Y-19820022D01*
X15952380Y-19820022D02*
X15971428Y-19800975D01*
X15971428Y-19800975D02*
X16009523Y-19781927D01*
X16314285Y-19915260D02*
X16314285Y-20181927D01*
X16314285Y-19953356D02*
X16333332Y-19934308D01*
X16333332Y-19934308D02*
X16371427Y-19915260D01*
X16371427Y-19915260D02*
X16428570Y-19915260D01*
X16428570Y-19915260D02*
X16466666Y-19934308D01*
X16466666Y-19934308D02*
X16485713Y-19972403D01*
X16485713Y-19972403D02*
X16485713Y-20181927D01*
X16809523Y-19972403D02*
X16676190Y-19972403D01*
X16676190Y-20181927D02*
X16676190Y-19781927D01*
X16676190Y-19781927D02*
X16866666Y-19781927D01*
D11*
X2714285Y-53243800D02*
X2800000Y-53272371D01*
X2800000Y-53272371D02*
X2942857Y-53272371D01*
X2942857Y-53272371D02*
X3000000Y-53243800D01*
X3000000Y-53243800D02*
X3028571Y-53215228D01*
X3028571Y-53215228D02*
X3057142Y-53158085D01*
X3057142Y-53158085D02*
X3057142Y-53100942D01*
X3057142Y-53100942D02*
X3028571Y-53043800D01*
X3028571Y-53043800D02*
X3000000Y-53015228D01*
X3000000Y-53015228D02*
X2942857Y-52986657D01*
X2942857Y-52986657D02*
X2828571Y-52958085D01*
X2828571Y-52958085D02*
X2771428Y-52929514D01*
X2771428Y-52929514D02*
X2742857Y-52900942D01*
X2742857Y-52900942D02*
X2714285Y-52843800D01*
X2714285Y-52843800D02*
X2714285Y-52786657D01*
X2714285Y-52786657D02*
X2742857Y-52729514D01*
X2742857Y-52729514D02*
X2771428Y-52700942D01*
X2771428Y-52700942D02*
X2828571Y-52672371D01*
X2828571Y-52672371D02*
X2971428Y-52672371D01*
X2971428Y-52672371D02*
X3057142Y-52700942D01*
X3428571Y-52672371D02*
X3542857Y-52672371D01*
X3542857Y-52672371D02*
X3600000Y-52700942D01*
X3600000Y-52700942D02*
X3657143Y-52758085D01*
X3657143Y-52758085D02*
X3685714Y-52872371D01*
X3685714Y-52872371D02*
X3685714Y-53072371D01*
X3685714Y-53072371D02*
X3657143Y-53186657D01*
X3657143Y-53186657D02*
X3600000Y-53243800D01*
X3600000Y-53243800D02*
X3542857Y-53272371D01*
X3542857Y-53272371D02*
X3428571Y-53272371D01*
X3428571Y-53272371D02*
X3371429Y-53243800D01*
X3371429Y-53243800D02*
X3314286Y-53186657D01*
X3314286Y-53186657D02*
X3285714Y-53072371D01*
X3285714Y-53072371D02*
X3285714Y-52872371D01*
X3285714Y-52872371D02*
X3314286Y-52758085D01*
X3314286Y-52758085D02*
X3371429Y-52700942D01*
X3371429Y-52700942D02*
X3428571Y-52672371D01*
X4228571Y-53272371D02*
X3942857Y-53272371D01*
X3942857Y-53272371D02*
X3942857Y-52672371D01*
X4399999Y-53100942D02*
X4685714Y-53100942D01*
X4342856Y-53272371D02*
X4542856Y-52672371D01*
X4542856Y-52672371D02*
X4742856Y-53272371D01*
X5285714Y-53272371D02*
X5085714Y-52986657D01*
X4942857Y-53272371D02*
X4942857Y-52672371D01*
X4942857Y-52672371D02*
X5171428Y-52672371D01*
X5171428Y-52672371D02*
X5228571Y-52700942D01*
X5228571Y-52700942D02*
X5257142Y-52729514D01*
X5257142Y-52729514D02*
X5285714Y-52786657D01*
X5285714Y-52786657D02*
X5285714Y-52872371D01*
X5285714Y-52872371D02*
X5257142Y-52929514D01*
X5257142Y-52929514D02*
X5228571Y-52958085D01*
X5228571Y-52958085D02*
X5171428Y-52986657D01*
X5171428Y-52986657D02*
X4942857Y-52986657D01*
X8714284Y-53772371D02*
X8371427Y-53772371D01*
X8542856Y-53772371D02*
X8542856Y-53172371D01*
X8542856Y-53172371D02*
X8485713Y-53258085D01*
X8485713Y-53258085D02*
X8428570Y-53315228D01*
X8428570Y-53315228D02*
X8371427Y-53343800D01*
X9171428Y-53458085D02*
X8971428Y-53458085D01*
X8971428Y-53772371D02*
X8971428Y-53172371D01*
X8971428Y-53172371D02*
X9257142Y-53172371D01*
X10228571Y-53172371D02*
X9942857Y-53172371D01*
X9942857Y-53172371D02*
X9914285Y-53458085D01*
X9914285Y-53458085D02*
X9942857Y-53429514D01*
X9942857Y-53429514D02*
X10000000Y-53400942D01*
X10000000Y-53400942D02*
X10142857Y-53400942D01*
X10142857Y-53400942D02*
X10200000Y-53429514D01*
X10200000Y-53429514D02*
X10228571Y-53458085D01*
X10228571Y-53458085D02*
X10257142Y-53515228D01*
X10257142Y-53515228D02*
X10257142Y-53658085D01*
X10257142Y-53658085D02*
X10228571Y-53715228D01*
X10228571Y-53715228D02*
X10200000Y-53743800D01*
X10200000Y-53743800D02*
X10142857Y-53772371D01*
X10142857Y-53772371D02*
X10000000Y-53772371D01*
X10000000Y-53772371D02*
X9942857Y-53743800D01*
X9942857Y-53743800D02*
X9914285Y-53715228D01*
X10514286Y-53715228D02*
X10542857Y-53743800D01*
X10542857Y-53743800D02*
X10514286Y-53772371D01*
X10514286Y-53772371D02*
X10485714Y-53743800D01*
X10485714Y-53743800D02*
X10514286Y-53715228D01*
X10514286Y-53715228D02*
X10514286Y-53772371D01*
X11085714Y-53172371D02*
X10800000Y-53172371D01*
X10800000Y-53172371D02*
X10771428Y-53458085D01*
X10771428Y-53458085D02*
X10800000Y-53429514D01*
X10800000Y-53429514D02*
X10857143Y-53400942D01*
X10857143Y-53400942D02*
X11000000Y-53400942D01*
X11000000Y-53400942D02*
X11057143Y-53429514D01*
X11057143Y-53429514D02*
X11085714Y-53458085D01*
X11085714Y-53458085D02*
X11114285Y-53515228D01*
X11114285Y-53515228D02*
X11114285Y-53658085D01*
X11114285Y-53658085D02*
X11085714Y-53715228D01*
X11085714Y-53715228D02*
X11057143Y-53743800D01*
X11057143Y-53743800D02*
X11000000Y-53772371D01*
X11000000Y-53772371D02*
X10857143Y-53772371D01*
X10857143Y-53772371D02*
X10800000Y-53743800D01*
X10800000Y-53743800D02*
X10771428Y-53715228D01*
X11285714Y-53172371D02*
X11485714Y-53772371D01*
X11485714Y-53772371D02*
X11685714Y-53172371D01*
M02*
