%TF.GenerationSoftware,KiCad,Pcbnew,9.0.8+dfsg-1*%
%TF.CreationDate,2026-07-29T21:28:27+05:30*%
%TF.ProjectId,hub_board_f33,6875625f-626f-4617-9264-5f6633332e6b,rev?*%
%TF.SameCoordinates,Original*%
%TF.FileFunction,Copper,L2,Bot*%
%TF.FilePolarity,Positive*%
%FSLAX46Y46*%
G04 Gerber Fmt 4.6, Leading zero omitted, Abs format (unit mm)*
G04 Created by KiCad (PCBNEW 9.0.8+dfsg-1) date 2026-07-29 21:28:27*
%MOMM*%
%LPD*%
G01*
G04 APERTURE LIST*
%TA.AperFunction,ComponentPad*%
%ADD10R,1.700000X1.700000*%
%TD*%
%TA.AperFunction,ComponentPad*%
%ADD11O,1.700000X1.700000*%
%TD*%
%TA.AperFunction,ComponentPad*%
%ADD12R,1.500000X1.500000*%
%TD*%
%TA.AperFunction,ComponentPad*%
%ADD13O,1.500000X1.500000*%
%TD*%
%TA.AperFunction,ViaPad*%
%ADD14C,0.600000*%
%TD*%
%TA.AperFunction,Conductor*%
%ADD15C,0.250000*%
%TD*%
G04 APERTURE END LIST*
D10*
%TO.P,U,1*%
%TO.N,3V3*%
X9460000Y-6110000D03*
D11*
%TO.P,U,2*%
%TO.N,GND*%
X9460000Y-8650000D03*
%TO.P,U,3*%
%TO.N,ESP_TX_RP2040_RX*%
X9460000Y-11190000D03*
%TO.P,U,4*%
%TO.N,RP2040_TX_ESP_RX*%
X9460000Y-13730000D03*
%TO.P,U,5*%
%TO.N,GPS_TX_ESP_RX*%
X9460000Y-16270000D03*
%TO.P,U,6*%
%TO.N,VDIV_MID*%
X9460000Y-18810000D03*
%TO.P,U,7*%
%TO.N,I2C_SDA*%
X9460000Y-21350000D03*
%TO.P,U,8*%
%TO.N,I2C_SCL*%
X9460000Y-23890000D03*
%TO.P,U,9*%
%TO.N,STATUS_LED*%
X14540000Y-23890000D03*
%TO.P,U,10*%
%TO.N,N/C*%
X14540000Y-21350000D03*
%TD*%
D10*
%TO.P,U1,1*%
%TO.N,3V3*%
X63000000Y-6110000D03*
D11*
%TO.P,U1,2*%
%TO.N,GND*%
X63000000Y-7610000D03*
%TO.P,U1,3*%
%TO.N,SPI0_SCK*%
X63000000Y-9110000D03*
%TO.P,U1,4*%
%TO.N,SPI0_MOSI*%
X63000000Y-10610000D03*
%TO.P,U1,5*%
%TO.N,SPI0_MISO*%
X63000000Y-12110000D03*
%TO.P,U1,6*%
%TO.N,SPI0_NSS*%
X63000000Y-13610000D03*
%TO.P,U1,7*%
%TO.N,LR2021_BUSY*%
X63000000Y-15110000D03*
%TO.P,U1,8*%
%TO.N,LR2021_IRQ*%
X63000000Y-16610000D03*
%TO.P,U1,9*%
%TO.N,LR2021_RST*%
X63000000Y-18110000D03*
%TO.P,U1,10*%
%TO.N,N/C*%
X63000000Y-19610000D03*
%TO.P,U1,11*%
%TO.N,LR2021_CE*%
X63000000Y-21110000D03*
%TO.P,U1,12*%
%TO.N,RP2040_TX_ESP_RX*%
X63000000Y-22610000D03*
%TO.P,U1,13*%
%TO.N,ESP_TX_RP2040_RX*%
X63000000Y-24110000D03*
%TO.P,U1,14*%
%TO.N,GND*%
X63000000Y-25610000D03*
%TD*%
%TO.P,U3,1*%
%TO.N,3V3*%
X6000000Y-41190000D03*
%TO.P,U3,2*%
%TO.N,GND*%
X6000000Y-43730000D03*
%TO.P,U3,3*%
%TO.N,GPS_TX_ESP_RX*%
X6000000Y-46270000D03*
%TO.P,U3,4*%
%TO.N,N/C*%
X6000000Y-48810000D03*
%TD*%
%TO.P,U4,1*%
%TO.N,3V3*%
X68000000Y-41190000D03*
%TO.P,U4,2*%
%TO.N,GND*%
X68000000Y-43730000D03*
%TO.P,U4,3*%
%TO.N,I2C_SDA*%
X68000000Y-46270000D03*
%TO.P,U4,4*%
%TO.N,I2C_SCL*%
X68000000Y-48810000D03*
%TD*%
D10*
%TO.P,J3,1*%
%TO.N,SOLAR_IN*%
X4000000Y-46730000D03*
D11*
%TO.P,J3,2*%
%TO.N,GND*%
X4000000Y-49270000D03*
%TD*%
D12*
%TO.P,SC,1*%
%TO.N,VCAP*%
X8250000Y-48000000D03*
D13*
%TO.P,SC,2*%
%TO.N,GND*%
X11750000Y-48000000D03*
%TD*%
D14*
%TO.N,GND*%
X19000000Y-35000000D03*
X19000000Y-33000000D03*
X19000000Y-31000000D03*
X19000000Y-27000000D03*
X19000000Y-25000000D03*
X19000000Y-23000000D03*
X56000000Y-31000000D03*
%TO.N,LR2021_CE*%
X14000000Y-29000000D03*
X14000000Y-21110000D03*
%TO.N,SPI0_SCK*%
X60000000Y-33000000D03*
X60000000Y-9610000D03*
%TO.N,SPI0_NSS*%
X59000000Y-31000000D03*
X59000000Y-13610000D03*
%TO.N,LR2021_BUSY*%
X58000000Y-29000000D03*
X58000000Y-15110000D03*
%TO.N,SPI0_MOSI*%
X57000000Y-27000000D03*
X57000000Y-10610000D03*
%TO.N,SPI0_MISO*%
X56000000Y-25000000D03*
X56000000Y-12110000D03*
%TO.N,LR2021_RST*%
X55000000Y-23000000D03*
X55000000Y-18110000D03*
%TO.N,LR2021_IRQ*%
X54000000Y-21000000D03*
X54000000Y-16610000D03*
%TO.N,ESP_TX_RP2040_RX*%
X8000000Y-11190000D03*
X8000000Y-24110000D03*
%TO.N,RP2040_TX_ESP_RX*%
X52000000Y-22610000D03*
X9460000Y-13730000D03*
%TO.N,GPS_TX_ESP_RX*%
X4000000Y-46270000D03*
X4000000Y-16270000D03*
%TO.N,I2C_SDA*%
X7000000Y-21350000D03*
X68000000Y-46270000D03*
%TO.N,I2C_SCL*%
X6000000Y-23890000D03*
X68000000Y-48810000D03*
%TO.N,GND*%
X15000000Y-10000000D03*
X60000000Y-10000000D03*
X30000000Y-50000000D03*
X70000000Y-50000000D03*
X5000000Y-50000000D03*
X40000000Y-45000000D03*
%TD*%
D15*
%TO.N,LR2021_CE*%
X14000000Y-29000000D02*
X14000000Y-21110000D01*
%TO.N,SPI0_SCK*%
X60000000Y-33000000D02*
X60000000Y-9610000D01*
%TO.N,SPI0_NSS*%
X59000000Y-31000000D02*
X59000000Y-13610000D01*
%TO.N,LR2021_BUSY*%
X58000000Y-29000000D02*
X58000000Y-15110000D01*
%TO.N,SPI0_MOSI*%
X57000000Y-27000000D02*
X57000000Y-10610000D01*
%TO.N,SPI0_MISO*%
X56000000Y-25000000D02*
X56000000Y-12110000D01*
%TO.N,LR2021_RST*%
X55000000Y-23000000D02*
X55000000Y-18110000D01*
%TO.N,LR2021_IRQ*%
X54000000Y-21000000D02*
X54000000Y-16610000D01*
%TO.N,ESP_TX_RP2040_RX*%
X8000000Y-11190000D02*
X8000000Y-24110000D01*
%TO.N,RP2040_TX_ESP_RX*%
X52000000Y-22610000D02*
X52000000Y-13730000D01*
X52000000Y-13730000D02*
X9460000Y-13730000D01*
%TO.N,GPS_TX_ESP_RX*%
X4000000Y-46270000D02*
X4000000Y-16270000D01*
%TO.N,I2C_SDA*%
X7000000Y-21350000D02*
X7000000Y-46270000D01*
X7000000Y-46270000D02*
X68000000Y-46270000D01*
%TO.N,I2C_SCL*%
X6000000Y-23890000D02*
X6000000Y-48810000D01*
X6000000Y-48810000D02*
X68000000Y-48810000D01*
%TD*%
M02*
