%TF.GenerationSoftware,KiCad,Pcbnew,9.0.8+dfsg-1*%
%TF.CreationDate,2026-07-29T21:28:28+05:30*%
%TF.ProjectId,hub_board_f33,6875625f-626f-4617-9264-5f6633332e6b,rev?*%
%TF.SameCoordinates,Original*%
%TF.FileFunction,Soldermask,Top*%
%TF.FilePolarity,Negative*%
%FSLAX46Y46*%
G04 Gerber Fmt 4.6, Leading zero omitted, Abs format (unit mm)*
G04 Created by KiCad (PCBNEW 9.0.8+dfsg-1) date 2026-07-29 21:28:28*
%MOMM*%
%LPD*%
G01*
G04 APERTURE LIST*
%ADD10R,2.000000X1.000000*%
%ADD11R,1.700000X1.700000*%
%ADD12O,1.700000X1.700000*%
%ADD13R,2.000000X1.500000*%
%ADD14R,2.000000X2.000000*%
%ADD15R,0.600000X0.600000*%
%ADD16R,1.000000X0.800000*%
%ADD17R,1.500000X1.600000*%
%ADD18R,0.800000X0.800000*%
%ADD19R,0.500000X0.500000*%
%ADD20R,1.500000X1.500000*%
%ADD21O,1.500000X1.500000*%
G04 APERTURE END LIST*
D10*
%TO.C,U2*%
X18000000Y-37000000D03*
X18000000Y-35000000D03*
X18000000Y-33000000D03*
X18000000Y-31000000D03*
X18000000Y-29000000D03*
X18000000Y-27000000D03*
X18000000Y-25000000D03*
X18000000Y-23000000D03*
X18000000Y-21000000D03*
X57000000Y-37000000D03*
X57000000Y-35000000D03*
X57000000Y-33000000D03*
X57000000Y-31000000D03*
X57000000Y-29000000D03*
X57000000Y-27000000D03*
X57000000Y-25000000D03*
X57000000Y-23000000D03*
X57000000Y-21000000D03*
%TD*%
D11*
%TO.C,U*%
X9460000Y-6110000D03*
D12*
X9460000Y-8650000D03*
X9460000Y-11190000D03*
X9460000Y-13730000D03*
X9460000Y-16270000D03*
X9460000Y-18810000D03*
X9460000Y-21350000D03*
X9460000Y-23890000D03*
X14540000Y-23890000D03*
X14540000Y-21350000D03*
%TD*%
D11*
%TO.C,U1*%
X63000000Y-6110000D03*
D12*
X63000000Y-7610000D03*
X63000000Y-9110000D03*
X63000000Y-10610000D03*
X63000000Y-12110000D03*
X63000000Y-13610000D03*
X63000000Y-15110000D03*
X63000000Y-16610000D03*
X63000000Y-18110000D03*
X63000000Y-19610000D03*
X63000000Y-21110000D03*
X63000000Y-22610000D03*
X63000000Y-24110000D03*
X63000000Y-25610000D03*
%TD*%
D13*
%TO.C,J1*%
X4000000Y-28000000D03*
D14*
X4000000Y-25500000D03*
X4000000Y-30500000D03*
%TD*%
D13*
%TO.C,J2*%
X71000000Y-28000000D03*
D14*
X71000000Y-25500000D03*
X71000000Y-30500000D03*
%TD*%
D12*
%TO.C,U3*%
X6000000Y-41190000D03*
X6000000Y-43730000D03*
X6000000Y-46270000D03*
X6000000Y-48810000D03*
%TD*%
%TO.C,U4*%
X68000000Y-41190000D03*
X68000000Y-43730000D03*
X68000000Y-46270000D03*
X68000000Y-48810000D03*
%TD*%
D15*
%TO.C,U5*%
X7050000Y-39050000D03*
X8950000Y-39050000D03*
X8950000Y-40000000D03*
X8950000Y-40950000D03*
%TD*%
D16*
%TO.C,D1*%
X3500000Y-40000000D03*
X6500000Y-40000000D03*
%TD*%
D17*
%TO.C,C8*%
X16400000Y-37000000D03*
X19600000Y-37000000D03*
%TD*%
D18*
%TO.C,C9*%
X17150000Y-19000000D03*
X18850000Y-19000000D03*
%TD*%
D19*
%TO.C,C10*%
X15500000Y-19000000D03*
X16500000Y-19000000D03*
%TD*%
D11*
%TO.C,J3*%
X4000000Y-46730000D03*
D12*
X4000000Y-49270000D03*
%TD*%
D20*
%TO.C,SC*%
X8250000Y-48000000D03*
D21*
X11750000Y-48000000D03*
%TD*%
M02*
