%TF.GenerationSoftware,KiCad,Pcbnew,9.0.8+dfsg-1*%
%TF.CreationDate,2026-07-29T21:28:27+05:30*%
%TF.ProjectId,hub_board_f33,6875625f-626f-4617-9264-5f6633332e6b,rev?*%
%TF.SameCoordinates,Original*%
%TF.FileFunction,Legend,Top*%
%TF.FilePolarity,Positive*%
%FSLAX46Y46*%
G04 Gerber Fmt 4.6, Leading zero omitted, Abs format (unit mm)*
G04 Created by KiCad (PCBNEW 9.0.8+dfsg-1) date 2026-07-29 21:28:27*
%MOMM*%
%LPD*%
G01*
G04 APERTURE LIST*
%ADD10C,0.250000*%
%ADD11C,0.150000*%
%ADD12C,0.100000*%
%ADD13C,0.060000*%
%ADD14C,0.120000*%
G04 APERTURE END LIST*
D10*
X21285715Y-2895214D02*
X21500001Y-2966642D01*
X21500001Y-2966642D02*
X21571430Y-3038071D01*
X21571430Y-3038071D02*
X21642858Y-3180928D01*
X21642858Y-3180928D02*
X21642858Y-3395214D01*
X21642858Y-3395214D02*
X21571430Y-3538071D01*
X21571430Y-3538071D02*
X21500001Y-3609500D01*
X21500001Y-3609500D02*
X21357144Y-3680928D01*
X21357144Y-3680928D02*
X20785715Y-3680928D01*
X20785715Y-3680928D02*
X20785715Y-2180928D01*
X20785715Y-2180928D02*
X21285715Y-2180928D01*
X21285715Y-2180928D02*
X21428573Y-2252357D01*
X21428573Y-2252357D02*
X21500001Y-2323785D01*
X21500001Y-2323785D02*
X21571430Y-2466642D01*
X21571430Y-2466642D02*
X21571430Y-2609500D01*
X21571430Y-2609500D02*
X21500001Y-2752357D01*
X21500001Y-2752357D02*
X21428573Y-2823785D01*
X21428573Y-2823785D02*
X21285715Y-2895214D01*
X21285715Y-2895214D02*
X20785715Y-2895214D01*
X22928573Y-3680928D02*
X22928573Y-2895214D01*
X22928573Y-2895214D02*
X22857144Y-2752357D01*
X22857144Y-2752357D02*
X22714287Y-2680928D01*
X22714287Y-2680928D02*
X22428573Y-2680928D01*
X22428573Y-2680928D02*
X22285715Y-2752357D01*
X22928573Y-3609500D02*
X22785715Y-3680928D01*
X22785715Y-3680928D02*
X22428573Y-3680928D01*
X22428573Y-3680928D02*
X22285715Y-3609500D01*
X22285715Y-3609500D02*
X22214287Y-3466642D01*
X22214287Y-3466642D02*
X22214287Y-3323785D01*
X22214287Y-3323785D02*
X22285715Y-3180928D01*
X22285715Y-3180928D02*
X22428573Y-3109500D01*
X22428573Y-3109500D02*
X22785715Y-3109500D01*
X22785715Y-3109500D02*
X22928573Y-3038071D01*
X23857144Y-3680928D02*
X23714287Y-3609500D01*
X23714287Y-3609500D02*
X23642858Y-3466642D01*
X23642858Y-3466642D02*
X23642858Y-2180928D01*
X24642858Y-3680928D02*
X24500001Y-3609500D01*
X24500001Y-3609500D02*
X24428572Y-3466642D01*
X24428572Y-3466642D02*
X24428572Y-2180928D01*
X25428572Y-3680928D02*
X25285715Y-3609500D01*
X25285715Y-3609500D02*
X25214286Y-3538071D01*
X25214286Y-3538071D02*
X25142858Y-3395214D01*
X25142858Y-3395214D02*
X25142858Y-2966642D01*
X25142858Y-2966642D02*
X25214286Y-2823785D01*
X25214286Y-2823785D02*
X25285715Y-2752357D01*
X25285715Y-2752357D02*
X25428572Y-2680928D01*
X25428572Y-2680928D02*
X25642858Y-2680928D01*
X25642858Y-2680928D02*
X25785715Y-2752357D01*
X25785715Y-2752357D02*
X25857144Y-2823785D01*
X25857144Y-2823785D02*
X25928572Y-2966642D01*
X25928572Y-2966642D02*
X25928572Y-3395214D01*
X25928572Y-3395214D02*
X25857144Y-3538071D01*
X25857144Y-3538071D02*
X25785715Y-3609500D01*
X25785715Y-3609500D02*
X25642858Y-3680928D01*
X25642858Y-3680928D02*
X25428572Y-3680928D01*
X26785715Y-3680928D02*
X26642858Y-3609500D01*
X26642858Y-3609500D02*
X26571429Y-3538071D01*
X26571429Y-3538071D02*
X26500001Y-3395214D01*
X26500001Y-3395214D02*
X26500001Y-2966642D01*
X26500001Y-2966642D02*
X26571429Y-2823785D01*
X26571429Y-2823785D02*
X26642858Y-2752357D01*
X26642858Y-2752357D02*
X26785715Y-2680928D01*
X26785715Y-2680928D02*
X27000001Y-2680928D01*
X27000001Y-2680928D02*
X27142858Y-2752357D01*
X27142858Y-2752357D02*
X27214287Y-2823785D01*
X27214287Y-2823785D02*
X27285715Y-2966642D01*
X27285715Y-2966642D02*
X27285715Y-3395214D01*
X27285715Y-3395214D02*
X27214287Y-3538071D01*
X27214287Y-3538071D02*
X27142858Y-3609500D01*
X27142858Y-3609500D02*
X27000001Y-3680928D01*
X27000001Y-3680928D02*
X26785715Y-3680928D01*
X27928572Y-2680928D02*
X27928572Y-3680928D01*
X27928572Y-2823785D02*
X28000001Y-2752357D01*
X28000001Y-2752357D02*
X28142858Y-2680928D01*
X28142858Y-2680928D02*
X28357144Y-2680928D01*
X28357144Y-2680928D02*
X28500001Y-2752357D01*
X28500001Y-2752357D02*
X28571430Y-2895214D01*
X28571430Y-2895214D02*
X28571430Y-3680928D01*
X30428572Y-3680928D02*
X30428572Y-2180928D01*
X30428572Y-2895214D02*
X31285715Y-2895214D01*
X31285715Y-3680928D02*
X31285715Y-2180928D01*
X32642859Y-2680928D02*
X32642859Y-3680928D01*
X32000001Y-2680928D02*
X32000001Y-3466642D01*
X32000001Y-3466642D02*
X32071430Y-3609500D01*
X32071430Y-3609500D02*
X32214287Y-3680928D01*
X32214287Y-3680928D02*
X32428573Y-3680928D01*
X32428573Y-3680928D02*
X32571430Y-3609500D01*
X32571430Y-3609500D02*
X32642859Y-3538071D01*
X33357144Y-3680928D02*
X33357144Y-2180928D01*
X33357144Y-2752357D02*
X33500002Y-2680928D01*
X33500002Y-2680928D02*
X33785716Y-2680928D01*
X33785716Y-2680928D02*
X33928573Y-2752357D01*
X33928573Y-2752357D02*
X34000002Y-2823785D01*
X34000002Y-2823785D02*
X34071430Y-2966642D01*
X34071430Y-2966642D02*
X34071430Y-3395214D01*
X34071430Y-3395214D02*
X34000002Y-3538071D01*
X34000002Y-3538071D02*
X33928573Y-3609500D01*
X33928573Y-3609500D02*
X33785716Y-3680928D01*
X33785716Y-3680928D02*
X33500002Y-3680928D01*
X33500002Y-3680928D02*
X33357144Y-3609500D01*
X35642859Y-2180928D02*
X36142859Y-3680928D01*
X36142859Y-3680928D02*
X36642859Y-2180928D01*
X37071430Y-2323785D02*
X37142858Y-2252357D01*
X37142858Y-2252357D02*
X37285716Y-2180928D01*
X37285716Y-2180928D02*
X37642858Y-2180928D01*
X37642858Y-2180928D02*
X37785716Y-2252357D01*
X37785716Y-2252357D02*
X37857144Y-2323785D01*
X37857144Y-2323785D02*
X37928573Y-2466642D01*
X37928573Y-2466642D02*
X37928573Y-2609500D01*
X37928573Y-2609500D02*
X37857144Y-2823785D01*
X37857144Y-2823785D02*
X37000001Y-3680928D01*
X37000001Y-3680928D02*
X37928573Y-3680928D01*
X39571429Y-3180928D02*
X40857144Y-3180928D01*
X43071429Y-2895214D02*
X42571429Y-2895214D01*
X42571429Y-3680928D02*
X42571429Y-2180928D01*
X42571429Y-2180928D02*
X43285715Y-2180928D01*
X43714286Y-2180928D02*
X44642858Y-2180928D01*
X44642858Y-2180928D02*
X44142858Y-2752357D01*
X44142858Y-2752357D02*
X44357143Y-2752357D01*
X44357143Y-2752357D02*
X44500001Y-2823785D01*
X44500001Y-2823785D02*
X44571429Y-2895214D01*
X44571429Y-2895214D02*
X44642858Y-3038071D01*
X44642858Y-3038071D02*
X44642858Y-3395214D01*
X44642858Y-3395214D02*
X44571429Y-3538071D01*
X44571429Y-3538071D02*
X44500001Y-3609500D01*
X44500001Y-3609500D02*
X44357143Y-3680928D01*
X44357143Y-3680928D02*
X43928572Y-3680928D01*
X43928572Y-3680928D02*
X43785715Y-3609500D01*
X43785715Y-3609500D02*
X43714286Y-3538071D01*
X45142857Y-2180928D02*
X46071429Y-2180928D01*
X46071429Y-2180928D02*
X45571429Y-2752357D01*
X45571429Y-2752357D02*
X45785714Y-2752357D01*
X45785714Y-2752357D02*
X45928572Y-2823785D01*
X45928572Y-2823785D02*
X46000000Y-2895214D01*
X46000000Y-2895214D02*
X46071429Y-3038071D01*
X46071429Y-3038071D02*
X46071429Y-3395214D01*
X46071429Y-3395214D02*
X46000000Y-3538071D01*
X46000000Y-3538071D02*
X45928572Y-3609500D01*
X45928572Y-3609500D02*
X45785714Y-3680928D01*
X45785714Y-3680928D02*
X45357143Y-3680928D01*
X45357143Y-3680928D02*
X45214286Y-3609500D01*
X45214286Y-3609500D02*
X45142857Y-3538071D01*
X47785714Y-2323785D02*
X47857142Y-2252357D01*
X47857142Y-2252357D02*
X48000000Y-2180928D01*
X48000000Y-2180928D02*
X48357142Y-2180928D01*
X48357142Y-2180928D02*
X48500000Y-2252357D01*
X48500000Y-2252357D02*
X48571428Y-2323785D01*
X48571428Y-2323785D02*
X48642857Y-2466642D01*
X48642857Y-2466642D02*
X48642857Y-2609500D01*
X48642857Y-2609500D02*
X48571428Y-2823785D01*
X48571428Y-2823785D02*
X47714285Y-3680928D01*
X47714285Y-3680928D02*
X48642857Y-3680928D01*
X49142856Y-2180928D02*
X49499999Y-3680928D01*
X49499999Y-3680928D02*
X49785713Y-2609500D01*
X49785713Y-2609500D02*
X50071428Y-3680928D01*
X50071428Y-3680928D02*
X50428571Y-2180928D01*
X52142856Y-3680928D02*
X52142856Y-2180928D01*
X52142856Y-2180928D02*
X52714285Y-2180928D01*
X52714285Y-2180928D02*
X52857142Y-2252357D01*
X52857142Y-2252357D02*
X52928571Y-2323785D01*
X52928571Y-2323785D02*
X52999999Y-2466642D01*
X52999999Y-2466642D02*
X52999999Y-2680928D01*
X52999999Y-2680928D02*
X52928571Y-2823785D01*
X52928571Y-2823785D02*
X52857142Y-2895214D01*
X52857142Y-2895214D02*
X52714285Y-2966642D01*
X52714285Y-2966642D02*
X52142856Y-2966642D01*
X53571428Y-3252357D02*
X54285714Y-3252357D01*
X53428571Y-3680928D02*
X53928571Y-2180928D01*
X53928571Y-2180928D02*
X54428571Y-3680928D01*
D11*
X36738095Y-15454819D02*
X36738095Y-16264342D01*
X36738095Y-16264342D02*
X36785714Y-16359580D01*
X36785714Y-16359580D02*
X36833333Y-16407200D01*
X36833333Y-16407200D02*
X36928571Y-16454819D01*
X36928571Y-16454819D02*
X37119047Y-16454819D01*
X37119047Y-16454819D02*
X37214285Y-16407200D01*
X37214285Y-16407200D02*
X37261904Y-16359580D01*
X37261904Y-16359580D02*
X37309523Y-16264342D01*
X37309523Y-16264342D02*
X37309523Y-15454819D01*
X37738095Y-15550057D02*
X37785714Y-15502438D01*
X37785714Y-15502438D02*
X37880952Y-15454819D01*
X37880952Y-15454819D02*
X38119047Y-15454819D01*
X38119047Y-15454819D02*
X38214285Y-15502438D01*
X38214285Y-15502438D02*
X38261904Y-15550057D01*
X38261904Y-15550057D02*
X38309523Y-15645295D01*
X38309523Y-15645295D02*
X38309523Y-15740533D01*
X38309523Y-15740533D02*
X38261904Y-15883390D01*
X38261904Y-15883390D02*
X37690476Y-16454819D01*
X37690476Y-16454819D02*
X38309523Y-16454819D01*
X11714286Y-2954819D02*
X11714286Y-3764342D01*
X11714286Y-3764342D02*
X11761905Y-3859580D01*
X11761905Y-3859580D02*
X11809524Y-3907200D01*
X11809524Y-3907200D02*
X11904762Y-3954819D01*
X11904762Y-3954819D02*
X12095238Y-3954819D01*
X12095238Y-3954819D02*
X12190476Y-3907200D01*
X12190476Y-3907200D02*
X12238095Y-3859580D01*
X12238095Y-3859580D02*
X12285714Y-3764342D01*
X12285714Y-3764342D02*
X12285714Y-2954819D01*
X62238095Y-12454819D02*
X62238095Y-13264342D01*
X62238095Y-13264342D02*
X62285714Y-13359580D01*
X62285714Y-13359580D02*
X62333333Y-13407200D01*
X62333333Y-13407200D02*
X62428571Y-13454819D01*
X62428571Y-13454819D02*
X62619047Y-13454819D01*
X62619047Y-13454819D02*
X62714285Y-13407200D01*
X62714285Y-13407200D02*
X62761904Y-13359580D01*
X62761904Y-13359580D02*
X62809523Y-13264342D01*
X62809523Y-13264342D02*
X62809523Y-12454819D01*
X63809523Y-13454819D02*
X63238095Y-13454819D01*
X63523809Y-13454819D02*
X63523809Y-12454819D01*
X63523809Y-12454819D02*
X63428571Y-12597676D01*
X63428571Y-12597676D02*
X63333333Y-12692914D01*
X63333333Y-12692914D02*
X63238095Y-12740533D01*
X6666666Y-24454819D02*
X6666666Y-25169104D01*
X6666666Y-25169104D02*
X6619047Y-25311961D01*
X6619047Y-25311961D02*
X6523809Y-25407200D01*
X6523809Y-25407200D02*
X6380952Y-25454819D01*
X6380952Y-25454819D02*
X6285714Y-25454819D01*
X7666666Y-25454819D02*
X7095238Y-25454819D01*
X7380952Y-25454819D02*
X7380952Y-24454819D01*
X7380952Y-24454819D02*
X7285714Y-24597676D01*
X7285714Y-24597676D02*
X7190476Y-24692914D01*
X7190476Y-24692914D02*
X7095238Y-24740533D01*
X3666667Y-32407200D02*
X3809524Y-32454819D01*
X3809524Y-32454819D02*
X4047619Y-32454819D01*
X4047619Y-32454819D02*
X4142857Y-32407200D01*
X4142857Y-32407200D02*
X4190476Y-32359580D01*
X4190476Y-32359580D02*
X4238095Y-32264342D01*
X4238095Y-32264342D02*
X4238095Y-32169104D01*
X4238095Y-32169104D02*
X4190476Y-32073866D01*
X4190476Y-32073866D02*
X4142857Y-32026247D01*
X4142857Y-32026247D02*
X4047619Y-31978628D01*
X4047619Y-31978628D02*
X3857143Y-31931009D01*
X3857143Y-31931009D02*
X3761905Y-31883390D01*
X3761905Y-31883390D02*
X3714286Y-31835771D01*
X3714286Y-31835771D02*
X3666667Y-31740533D01*
X3666667Y-31740533D02*
X3666667Y-31645295D01*
X3666667Y-31645295D02*
X3714286Y-31550057D01*
X3714286Y-31550057D02*
X3761905Y-31502438D01*
X3761905Y-31502438D02*
X3857143Y-31454819D01*
X3857143Y-31454819D02*
X4095238Y-31454819D01*
X4095238Y-31454819D02*
X4238095Y-31502438D01*
X4666667Y-32454819D02*
X4666667Y-31454819D01*
X4666667Y-31454819D02*
X5000000Y-32169104D01*
X5000000Y-32169104D02*
X5333333Y-31454819D01*
X5333333Y-31454819D02*
X5333333Y-32454819D01*
X5761905Y-32169104D02*
X6238095Y-32169104D01*
X5666667Y-32454819D02*
X6000000Y-31454819D01*
X6000000Y-31454819D02*
X6333333Y-32454819D01*
X6666667Y-32073866D02*
X7428572Y-32073866D01*
X8047619Y-31883390D02*
X7952381Y-31835771D01*
X7952381Y-31835771D02*
X7904762Y-31788152D01*
X7904762Y-31788152D02*
X7857143Y-31692914D01*
X7857143Y-31692914D02*
X7857143Y-31645295D01*
X7857143Y-31645295D02*
X7904762Y-31550057D01*
X7904762Y-31550057D02*
X7952381Y-31502438D01*
X7952381Y-31502438D02*
X8047619Y-31454819D01*
X8047619Y-31454819D02*
X8238095Y-31454819D01*
X8238095Y-31454819D02*
X8333333Y-31502438D01*
X8333333Y-31502438D02*
X8380952Y-31550057D01*
X8380952Y-31550057D02*
X8428571Y-31645295D01*
X8428571Y-31645295D02*
X8428571Y-31692914D01*
X8428571Y-31692914D02*
X8380952Y-31788152D01*
X8380952Y-31788152D02*
X8333333Y-31835771D01*
X8333333Y-31835771D02*
X8238095Y-31883390D01*
X8238095Y-31883390D02*
X8047619Y-31883390D01*
X8047619Y-31883390D02*
X7952381Y-31931009D01*
X7952381Y-31931009D02*
X7904762Y-31978628D01*
X7904762Y-31978628D02*
X7857143Y-32073866D01*
X7857143Y-32073866D02*
X7857143Y-32264342D01*
X7857143Y-32264342D02*
X7904762Y-32359580D01*
X7904762Y-32359580D02*
X7952381Y-32407200D01*
X7952381Y-32407200D02*
X8047619Y-32454819D01*
X8047619Y-32454819D02*
X8238095Y-32454819D01*
X8238095Y-32454819D02*
X8333333Y-32407200D01*
X8333333Y-32407200D02*
X8380952Y-32359580D01*
X8380952Y-32359580D02*
X8428571Y-32264342D01*
X8428571Y-32264342D02*
X8428571Y-32073866D01*
X8428571Y-32073866D02*
X8380952Y-31978628D01*
X8380952Y-31978628D02*
X8333333Y-31931009D01*
X8333333Y-31931009D02*
X8238095Y-31883390D01*
X9285714Y-31454819D02*
X9095238Y-31454819D01*
X9095238Y-31454819D02*
X9000000Y-31502438D01*
X9000000Y-31502438D02*
X8952381Y-31550057D01*
X8952381Y-31550057D02*
X8857143Y-31692914D01*
X8857143Y-31692914D02*
X8809524Y-31883390D01*
X8809524Y-31883390D02*
X8809524Y-32264342D01*
X8809524Y-32264342D02*
X8857143Y-32359580D01*
X8857143Y-32359580D02*
X8904762Y-32407200D01*
X8904762Y-32407200D02*
X9000000Y-32454819D01*
X9000000Y-32454819D02*
X9190476Y-32454819D01*
X9190476Y-32454819D02*
X9285714Y-32407200D01*
X9285714Y-32407200D02*
X9333333Y-32359580D01*
X9333333Y-32359580D02*
X9380952Y-32264342D01*
X9380952Y-32264342D02*
X9380952Y-32026247D01*
X9380952Y-32026247D02*
X9333333Y-31931009D01*
X9333333Y-31931009D02*
X9285714Y-31883390D01*
X9285714Y-31883390D02*
X9190476Y-31835771D01*
X9190476Y-31835771D02*
X9000000Y-31835771D01*
X9000000Y-31835771D02*
X8904762Y-31883390D01*
X8904762Y-31883390D02*
X8857143Y-31931009D01*
X8857143Y-31931009D02*
X8809524Y-32026247D01*
X9952381Y-31883390D02*
X9857143Y-31835771D01*
X9857143Y-31835771D02*
X9809524Y-31788152D01*
X9809524Y-31788152D02*
X9761905Y-31692914D01*
X9761905Y-31692914D02*
X9761905Y-31645295D01*
X9761905Y-31645295D02*
X9809524Y-31550057D01*
X9809524Y-31550057D02*
X9857143Y-31502438D01*
X9857143Y-31502438D02*
X9952381Y-31454819D01*
X9952381Y-31454819D02*
X10142857Y-31454819D01*
X10142857Y-31454819D02*
X10238095Y-31502438D01*
X10238095Y-31502438D02*
X10285714Y-31550057D01*
X10285714Y-31550057D02*
X10333333Y-31645295D01*
X10333333Y-31645295D02*
X10333333Y-31692914D01*
X10333333Y-31692914D02*
X10285714Y-31788152D01*
X10285714Y-31788152D02*
X10238095Y-31835771D01*
X10238095Y-31835771D02*
X10142857Y-31883390D01*
X10142857Y-31883390D02*
X9952381Y-31883390D01*
X9952381Y-31883390D02*
X9857143Y-31931009D01*
X9857143Y-31931009D02*
X9809524Y-31978628D01*
X9809524Y-31978628D02*
X9761905Y-32073866D01*
X9761905Y-32073866D02*
X9761905Y-32264342D01*
X9761905Y-32264342D02*
X9809524Y-32359580D01*
X9809524Y-32359580D02*
X9857143Y-32407200D01*
X9857143Y-32407200D02*
X9952381Y-32454819D01*
X9952381Y-32454819D02*
X10142857Y-32454819D01*
X10142857Y-32454819D02*
X10238095Y-32407200D01*
X10238095Y-32407200D02*
X10285714Y-32359580D01*
X10285714Y-32359580D02*
X10333333Y-32264342D01*
X10333333Y-32264342D02*
X10333333Y-32073866D01*
X10333333Y-32073866D02*
X10285714Y-31978628D01*
X10285714Y-31978628D02*
X10238095Y-31931009D01*
X10238095Y-31931009D02*
X10142857Y-31883390D01*
X67666666Y-24454819D02*
X67666666Y-25169104D01*
X67666666Y-25169104D02*
X67619047Y-25311961D01*
X67619047Y-25311961D02*
X67523809Y-25407200D01*
X67523809Y-25407200D02*
X67380952Y-25454819D01*
X67380952Y-25454819D02*
X67285714Y-25454819D01*
X68095238Y-24550057D02*
X68142857Y-24502438D01*
X68142857Y-24502438D02*
X68238095Y-24454819D01*
X68238095Y-24454819D02*
X68476190Y-24454819D01*
X68476190Y-24454819D02*
X68571428Y-24502438D01*
X68571428Y-24502438D02*
X68619047Y-24550057D01*
X68619047Y-24550057D02*
X68666666Y-24645295D01*
X68666666Y-24645295D02*
X68666666Y-24740533D01*
X68666666Y-24740533D02*
X68619047Y-24883390D01*
X68619047Y-24883390D02*
X68047619Y-25454819D01*
X68047619Y-25454819D02*
X68666666Y-25454819D01*
X64642857Y-32407200D02*
X64785714Y-32454819D01*
X64785714Y-32454819D02*
X65023809Y-32454819D01*
X65023809Y-32454819D02*
X65119047Y-32407200D01*
X65119047Y-32407200D02*
X65166666Y-32359580D01*
X65166666Y-32359580D02*
X65214285Y-32264342D01*
X65214285Y-32264342D02*
X65214285Y-32169104D01*
X65214285Y-32169104D02*
X65166666Y-32073866D01*
X65166666Y-32073866D02*
X65119047Y-32026247D01*
X65119047Y-32026247D02*
X65023809Y-31978628D01*
X65023809Y-31978628D02*
X64833333Y-31931009D01*
X64833333Y-31931009D02*
X64738095Y-31883390D01*
X64738095Y-31883390D02*
X64690476Y-31835771D01*
X64690476Y-31835771D02*
X64642857Y-31740533D01*
X64642857Y-31740533D02*
X64642857Y-31645295D01*
X64642857Y-31645295D02*
X64690476Y-31550057D01*
X64690476Y-31550057D02*
X64738095Y-31502438D01*
X64738095Y-31502438D02*
X64833333Y-31454819D01*
X64833333Y-31454819D02*
X65071428Y-31454819D01*
X65071428Y-31454819D02*
X65214285Y-31502438D01*
X65642857Y-32454819D02*
X65642857Y-31454819D01*
X65642857Y-31454819D02*
X65976190Y-32169104D01*
X65976190Y-32169104D02*
X66309523Y-31454819D01*
X66309523Y-31454819D02*
X66309523Y-32454819D01*
X66738095Y-32169104D02*
X67214285Y-32169104D01*
X66642857Y-32454819D02*
X66976190Y-31454819D01*
X66976190Y-31454819D02*
X67309523Y-32454819D01*
X67642857Y-32073866D02*
X68404762Y-32073866D01*
X68833333Y-31550057D02*
X68880952Y-31502438D01*
X68880952Y-31502438D02*
X68976190Y-31454819D01*
X68976190Y-31454819D02*
X69214285Y-31454819D01*
X69214285Y-31454819D02*
X69309523Y-31502438D01*
X69309523Y-31502438D02*
X69357142Y-31550057D01*
X69357142Y-31550057D02*
X69404761Y-31645295D01*
X69404761Y-31645295D02*
X69404761Y-31740533D01*
X69404761Y-31740533D02*
X69357142Y-31883390D01*
X69357142Y-31883390D02*
X68785714Y-32454819D01*
X68785714Y-32454819D02*
X69404761Y-32454819D01*
X70357142Y-31502438D02*
X70261904Y-31454819D01*
X70261904Y-31454819D02*
X70119047Y-31454819D01*
X70119047Y-31454819D02*
X69976190Y-31502438D01*
X69976190Y-31502438D02*
X69880952Y-31597676D01*
X69880952Y-31597676D02*
X69833333Y-31692914D01*
X69833333Y-31692914D02*
X69785714Y-31883390D01*
X69785714Y-31883390D02*
X69785714Y-32026247D01*
X69785714Y-32026247D02*
X69833333Y-32216723D01*
X69833333Y-32216723D02*
X69880952Y-32311961D01*
X69880952Y-32311961D02*
X69976190Y-32407200D01*
X69976190Y-32407200D02*
X70119047Y-32454819D01*
X70119047Y-32454819D02*
X70214285Y-32454819D01*
X70214285Y-32454819D02*
X70357142Y-32407200D01*
X70357142Y-32407200D02*
X70404761Y-32359580D01*
X70404761Y-32359580D02*
X70404761Y-32026247D01*
X70404761Y-32026247D02*
X70214285Y-32026247D01*
X71261904Y-31788152D02*
X71261904Y-32454819D01*
X71023809Y-31407200D02*
X70785714Y-32121485D01*
X70785714Y-32121485D02*
X71404761Y-32121485D01*
X5238095Y-39454819D02*
X5238095Y-40264342D01*
X5238095Y-40264342D02*
X5285714Y-40359580D01*
X5285714Y-40359580D02*
X5333333Y-40407200D01*
X5333333Y-40407200D02*
X5428571Y-40454819D01*
X5428571Y-40454819D02*
X5619047Y-40454819D01*
X5619047Y-40454819D02*
X5714285Y-40407200D01*
X5714285Y-40407200D02*
X5761904Y-40359580D01*
X5761904Y-40359580D02*
X5809523Y-40264342D01*
X5809523Y-40264342D02*
X5809523Y-39454819D01*
X6190476Y-39454819D02*
X6809523Y-39454819D01*
X6809523Y-39454819D02*
X6476190Y-39835771D01*
X6476190Y-39835771D02*
X6619047Y-39835771D01*
X6619047Y-39835771D02*
X6714285Y-39883390D01*
X6714285Y-39883390D02*
X6761904Y-39931009D01*
X6761904Y-39931009D02*
X6809523Y-40026247D01*
X6809523Y-40026247D02*
X6809523Y-40264342D01*
X6809523Y-40264342D02*
X6761904Y-40359580D01*
X6761904Y-40359580D02*
X6714285Y-40407200D01*
X6714285Y-40407200D02*
X6619047Y-40454819D01*
X6619047Y-40454819D02*
X6333333Y-40454819D01*
X6333333Y-40454819D02*
X6238095Y-40407200D01*
X6238095Y-40407200D02*
X6190476Y-40359580D01*
X67238095Y-39454819D02*
X67238095Y-40264342D01*
X67238095Y-40264342D02*
X67285714Y-40359580D01*
X67285714Y-40359580D02*
X67333333Y-40407200D01*
X67333333Y-40407200D02*
X67428571Y-40454819D01*
X67428571Y-40454819D02*
X67619047Y-40454819D01*
X67619047Y-40454819D02*
X67714285Y-40407200D01*
X67714285Y-40407200D02*
X67761904Y-40359580D01*
X67761904Y-40359580D02*
X67809523Y-40264342D01*
X67809523Y-40264342D02*
X67809523Y-39454819D01*
X68714285Y-39788152D02*
X68714285Y-40454819D01*
X68476190Y-39407200D02*
X68238095Y-40121485D01*
X68238095Y-40121485D02*
X68857142Y-40121485D01*
D12*
X7542857Y-37672371D02*
X7542857Y-38158085D01*
X7542857Y-38158085D02*
X7571428Y-38215228D01*
X7571428Y-38215228D02*
X7600000Y-38243800D01*
X7600000Y-38243800D02*
X7657142Y-38272371D01*
X7657142Y-38272371D02*
X7771428Y-38272371D01*
X7771428Y-38272371D02*
X7828571Y-38243800D01*
X7828571Y-38243800D02*
X7857142Y-38215228D01*
X7857142Y-38215228D02*
X7885714Y-38158085D01*
X7885714Y-38158085D02*
X7885714Y-37672371D01*
X8457142Y-37672371D02*
X8171428Y-37672371D01*
X8171428Y-37672371D02*
X8142856Y-37958085D01*
X8142856Y-37958085D02*
X8171428Y-37929514D01*
X8171428Y-37929514D02*
X8228571Y-37900942D01*
X8228571Y-37900942D02*
X8371428Y-37900942D01*
X8371428Y-37900942D02*
X8428571Y-37929514D01*
X8428571Y-37929514D02*
X8457142Y-37958085D01*
X8457142Y-37958085D02*
X8485713Y-38015228D01*
X8485713Y-38015228D02*
X8485713Y-38158085D01*
X8485713Y-38158085D02*
X8457142Y-38215228D01*
X8457142Y-38215228D02*
X8428571Y-38243800D01*
X8428571Y-38243800D02*
X8371428Y-38272371D01*
X8371428Y-38272371D02*
X8228571Y-38272371D01*
X8228571Y-38272371D02*
X8171428Y-38243800D01*
X8171428Y-38243800D02*
X8142856Y-38215228D01*
X4557143Y-38272371D02*
X4557143Y-37672371D01*
X4557143Y-37672371D02*
X4700000Y-37672371D01*
X4700000Y-37672371D02*
X4785714Y-37700942D01*
X4785714Y-37700942D02*
X4842857Y-37758085D01*
X4842857Y-37758085D02*
X4871428Y-37815228D01*
X4871428Y-37815228D02*
X4900000Y-37929514D01*
X4900000Y-37929514D02*
X4900000Y-38015228D01*
X4900000Y-38015228D02*
X4871428Y-38129514D01*
X4871428Y-38129514D02*
X4842857Y-38186657D01*
X4842857Y-38186657D02*
X4785714Y-38243800D01*
X4785714Y-38243800D02*
X4700000Y-38272371D01*
X4700000Y-38272371D02*
X4557143Y-38272371D01*
X5471428Y-38272371D02*
X5128571Y-38272371D01*
X5300000Y-38272371D02*
X5300000Y-37672371D01*
X5300000Y-37672371D02*
X5242857Y-37758085D01*
X5242857Y-37758085D02*
X5185714Y-37815228D01*
X5185714Y-37815228D02*
X5128571Y-37843800D01*
X17900000Y-35715228D02*
X17871428Y-35743800D01*
X17871428Y-35743800D02*
X17785714Y-35772371D01*
X17785714Y-35772371D02*
X17728571Y-35772371D01*
X17728571Y-35772371D02*
X17642857Y-35743800D01*
X17642857Y-35743800D02*
X17585714Y-35686657D01*
X17585714Y-35686657D02*
X17557143Y-35629514D01*
X17557143Y-35629514D02*
X17528571Y-35515228D01*
X17528571Y-35515228D02*
X17528571Y-35429514D01*
X17528571Y-35429514D02*
X17557143Y-35315228D01*
X17557143Y-35315228D02*
X17585714Y-35258085D01*
X17585714Y-35258085D02*
X17642857Y-35200942D01*
X17642857Y-35200942D02*
X17728571Y-35172371D01*
X17728571Y-35172371D02*
X17785714Y-35172371D01*
X17785714Y-35172371D02*
X17871428Y-35200942D01*
X17871428Y-35200942D02*
X17900000Y-35229514D01*
X18242857Y-35429514D02*
X18185714Y-35400942D01*
X18185714Y-35400942D02*
X18157143Y-35372371D01*
X18157143Y-35372371D02*
X18128571Y-35315228D01*
X18128571Y-35315228D02*
X18128571Y-35286657D01*
X18128571Y-35286657D02*
X18157143Y-35229514D01*
X18157143Y-35229514D02*
X18185714Y-35200942D01*
X18185714Y-35200942D02*
X18242857Y-35172371D01*
X18242857Y-35172371D02*
X18357143Y-35172371D01*
X18357143Y-35172371D02*
X18414286Y-35200942D01*
X18414286Y-35200942D02*
X18442857Y-35229514D01*
X18442857Y-35229514D02*
X18471428Y-35286657D01*
X18471428Y-35286657D02*
X18471428Y-35315228D01*
X18471428Y-35315228D02*
X18442857Y-35372371D01*
X18442857Y-35372371D02*
X18414286Y-35400942D01*
X18414286Y-35400942D02*
X18357143Y-35429514D01*
X18357143Y-35429514D02*
X18242857Y-35429514D01*
X18242857Y-35429514D02*
X18185714Y-35458085D01*
X18185714Y-35458085D02*
X18157143Y-35486657D01*
X18157143Y-35486657D02*
X18128571Y-35543800D01*
X18128571Y-35543800D02*
X18128571Y-35658085D01*
X18128571Y-35658085D02*
X18157143Y-35715228D01*
X18157143Y-35715228D02*
X18185714Y-35743800D01*
X18185714Y-35743800D02*
X18242857Y-35772371D01*
X18242857Y-35772371D02*
X18357143Y-35772371D01*
X18357143Y-35772371D02*
X18414286Y-35743800D01*
X18414286Y-35743800D02*
X18442857Y-35715228D01*
X18442857Y-35715228D02*
X18471428Y-35658085D01*
X18471428Y-35658085D02*
X18471428Y-35543800D01*
X18471428Y-35543800D02*
X18442857Y-35486657D01*
X18442857Y-35486657D02*
X18414286Y-35458085D01*
X18414286Y-35458085D02*
X18357143Y-35429514D01*
X17900000Y-18215228D02*
X17871428Y-18243800D01*
X17871428Y-18243800D02*
X17785714Y-18272371D01*
X17785714Y-18272371D02*
X17728571Y-18272371D01*
X17728571Y-18272371D02*
X17642857Y-18243800D01*
X17642857Y-18243800D02*
X17585714Y-18186657D01*
X17585714Y-18186657D02*
X17557143Y-18129514D01*
X17557143Y-18129514D02*
X17528571Y-18015228D01*
X17528571Y-18015228D02*
X17528571Y-17929514D01*
X17528571Y-17929514D02*
X17557143Y-17815228D01*
X17557143Y-17815228D02*
X17585714Y-17758085D01*
X17585714Y-17758085D02*
X17642857Y-17700942D01*
X17642857Y-17700942D02*
X17728571Y-17672371D01*
X17728571Y-17672371D02*
X17785714Y-17672371D01*
X17785714Y-17672371D02*
X17871428Y-17700942D01*
X17871428Y-17700942D02*
X17900000Y-17729514D01*
X18185714Y-18272371D02*
X18300000Y-18272371D01*
X18300000Y-18272371D02*
X18357143Y-18243800D01*
X18357143Y-18243800D02*
X18385714Y-18215228D01*
X18385714Y-18215228D02*
X18442857Y-18129514D01*
X18442857Y-18129514D02*
X18471428Y-18015228D01*
X18471428Y-18015228D02*
X18471428Y-17786657D01*
X18471428Y-17786657D02*
X18442857Y-17729514D01*
X18442857Y-17729514D02*
X18414286Y-17700942D01*
X18414286Y-17700942D02*
X18357143Y-17672371D01*
X18357143Y-17672371D02*
X18242857Y-17672371D01*
X18242857Y-17672371D02*
X18185714Y-17700942D01*
X18185714Y-17700942D02*
X18157143Y-17729514D01*
X18157143Y-17729514D02*
X18128571Y-17786657D01*
X18128571Y-17786657D02*
X18128571Y-17929514D01*
X18128571Y-17929514D02*
X18157143Y-17986657D01*
X18157143Y-17986657D02*
X18185714Y-18015228D01*
X18185714Y-18015228D02*
X18242857Y-18043800D01*
X18242857Y-18043800D02*
X18357143Y-18043800D01*
X18357143Y-18043800D02*
X18414286Y-18015228D01*
X18414286Y-18015228D02*
X18442857Y-17986657D01*
X18442857Y-17986657D02*
X18471428Y-17929514D01*
D13*
X15742857Y-18143832D02*
X15723809Y-18162880D01*
X15723809Y-18162880D02*
X15666667Y-18181927D01*
X15666667Y-18181927D02*
X15628571Y-18181927D01*
X15628571Y-18181927D02*
X15571428Y-18162880D01*
X15571428Y-18162880D02*
X15533333Y-18124784D01*
X15533333Y-18124784D02*
X15514286Y-18086689D01*
X15514286Y-18086689D02*
X15495238Y-18010499D01*
X15495238Y-18010499D02*
X15495238Y-17953356D01*
X15495238Y-17953356D02*
X15514286Y-17877165D01*
X15514286Y-17877165D02*
X15533333Y-17839070D01*
X15533333Y-17839070D02*
X15571428Y-17800975D01*
X15571428Y-17800975D02*
X15628571Y-17781927D01*
X15628571Y-17781927D02*
X15666667Y-17781927D01*
X15666667Y-17781927D02*
X15723809Y-17800975D01*
X15723809Y-17800975D02*
X15742857Y-17820022D01*
X16123809Y-18181927D02*
X15895238Y-18181927D01*
X16009524Y-18181927D02*
X16009524Y-17781927D01*
X16009524Y-17781927D02*
X15971428Y-17839070D01*
X15971428Y-17839070D02*
X15933333Y-17877165D01*
X15933333Y-17877165D02*
X15895238Y-17896213D01*
X16371428Y-17781927D02*
X16409523Y-17781927D01*
X16409523Y-17781927D02*
X16447619Y-17800975D01*
X16447619Y-17800975D02*
X16466666Y-17820022D01*
X16466666Y-17820022D02*
X16485714Y-17858118D01*
X16485714Y-17858118D02*
X16504761Y-17934308D01*
X16504761Y-17934308D02*
X16504761Y-18029546D01*
X16504761Y-18029546D02*
X16485714Y-18105737D01*
X16485714Y-18105737D02*
X16466666Y-18143832D01*
X16466666Y-18143832D02*
X16447619Y-18162880D01*
X16447619Y-18162880D02*
X16409523Y-18181927D01*
X16409523Y-18181927D02*
X16371428Y-18181927D01*
X16371428Y-18181927D02*
X16333333Y-18162880D01*
X16333333Y-18162880D02*
X16314285Y-18143832D01*
X16314285Y-18143832D02*
X16295238Y-18105737D01*
X16295238Y-18105737D02*
X16276190Y-18029546D01*
X16276190Y-18029546D02*
X16276190Y-17934308D01*
X16276190Y-17934308D02*
X16295238Y-17858118D01*
X16295238Y-17858118D02*
X16314285Y-17820022D01*
X16314285Y-17820022D02*
X16333333Y-17800975D01*
X16333333Y-17800975D02*
X16371428Y-17781927D01*
D12*
X3799999Y-44672371D02*
X3799999Y-45100942D01*
X3799999Y-45100942D02*
X3771428Y-45186657D01*
X3771428Y-45186657D02*
X3714285Y-45243800D01*
X3714285Y-45243800D02*
X3628571Y-45272371D01*
X3628571Y-45272371D02*
X3571428Y-45272371D01*
X4028571Y-44672371D02*
X4399999Y-44672371D01*
X4399999Y-44672371D02*
X4199999Y-44900942D01*
X4199999Y-44900942D02*
X4285714Y-44900942D01*
X4285714Y-44900942D02*
X4342857Y-44929514D01*
X4342857Y-44929514D02*
X4371428Y-44958085D01*
X4371428Y-44958085D02*
X4399999Y-45015228D01*
X4399999Y-45015228D02*
X4399999Y-45158085D01*
X4399999Y-45158085D02*
X4371428Y-45215228D01*
X4371428Y-45215228D02*
X4342857Y-45243800D01*
X4342857Y-45243800D02*
X4285714Y-45272371D01*
X4285714Y-45272371D02*
X4114285Y-45272371D01*
X4114285Y-45272371D02*
X4057142Y-45243800D01*
X4057142Y-45243800D02*
X4028571Y-45215228D01*
X9528571Y-43243800D02*
X9614286Y-43272371D01*
X9614286Y-43272371D02*
X9757143Y-43272371D01*
X9757143Y-43272371D02*
X9814286Y-43243800D01*
X9814286Y-43243800D02*
X9842857Y-43215228D01*
X9842857Y-43215228D02*
X9871428Y-43158085D01*
X9871428Y-43158085D02*
X9871428Y-43100942D01*
X9871428Y-43100942D02*
X9842857Y-43043800D01*
X9842857Y-43043800D02*
X9814286Y-43015228D01*
X9814286Y-43015228D02*
X9757143Y-42986657D01*
X9757143Y-42986657D02*
X9642857Y-42958085D01*
X9642857Y-42958085D02*
X9585714Y-42929514D01*
X9585714Y-42929514D02*
X9557143Y-42900942D01*
X9557143Y-42900942D02*
X9528571Y-42843800D01*
X9528571Y-42843800D02*
X9528571Y-42786657D01*
X9528571Y-42786657D02*
X9557143Y-42729514D01*
X9557143Y-42729514D02*
X9585714Y-42700942D01*
X9585714Y-42700942D02*
X9642857Y-42672371D01*
X9642857Y-42672371D02*
X9785714Y-42672371D01*
X9785714Y-42672371D02*
X9871428Y-42700942D01*
X10471429Y-43215228D02*
X10442857Y-43243800D01*
X10442857Y-43243800D02*
X10357143Y-43272371D01*
X10357143Y-43272371D02*
X10300000Y-43272371D01*
X10300000Y-43272371D02*
X10214286Y-43243800D01*
X10214286Y-43243800D02*
X10157143Y-43186657D01*
X10157143Y-43186657D02*
X10128572Y-43129514D01*
X10128572Y-43129514D02*
X10100000Y-43015228D01*
X10100000Y-43015228D02*
X10100000Y-42929514D01*
X10100000Y-42929514D02*
X10128572Y-42815228D01*
X10128572Y-42815228D02*
X10157143Y-42758085D01*
X10157143Y-42758085D02*
X10214286Y-42700942D01*
X10214286Y-42700942D02*
X10300000Y-42672371D01*
X10300000Y-42672371D02*
X10357143Y-42672371D01*
X10357143Y-42672371D02*
X10442857Y-42700942D01*
X10442857Y-42700942D02*
X10471429Y-42729514D01*
D14*
%TO.C,U2*%
X18000000Y-17500000D02*
X57000000Y-17500000D01*
X57000000Y-17500000D02*
X57000000Y-38500000D01*
X57000000Y-38500000D02*
X18000000Y-38500000D01*
X18000000Y-38500000D02*
X18000000Y-17500000D01*
X19800000Y-37000000D02*
G75*
G02*
X19200000Y-37000000I-300000J0D01*
G01*
X19200000Y-37000000D02*
G75*
G02*
X19800000Y-37000000I300000J0D01*
G01*
%TO.C,U*%
X3000000Y-3740000D02*
X21000000Y-3740000D01*
X21000000Y-3740000D02*
X21000000Y-26260000D01*
X21000000Y-26260000D02*
X3000000Y-26260000D01*
X3000000Y-26260000D02*
X3000000Y-3740000D01*
%TO.C,U1*%
X61730000Y-13730000D02*
X64270000Y-13730000D01*
X64270000Y-13730000D02*
X64270000Y-47770000D01*
X64270000Y-47770000D02*
X61730000Y-47770000D01*
X61730000Y-47770000D02*
X61730000Y-13730000D01*
%TD*%
M02*
