%TF.GenerationSoftware,KiCad,Pcbnew,9.0.8+dfsg-1*%
%TF.CreationDate,2026-07-29T21:08:03+05:30*%
%TF.ProjectId,hub_board_f33,6875625f-626f-4617-9264-5f6633332e6b,rev?*%
%TF.SameCoordinates,Original*%
%TF.FileFunction,Copper,L1,Top*%
%TF.FilePolarity,Positive*%
%FSLAX46Y46*%
G04 Gerber Fmt 4.6, Leading zero omitted, Abs format (unit mm)*
G04 Created by KiCad (PCBNEW 9.0.8+dfsg-1) date 2026-07-29 21:08:03*
%MOMM*%
%LPD*%
G01*
G04 APERTURE LIST*
%TA.AperFunction,SMDPad,CuDef*%
%ADD10R,2.000000X1.000000*%
%TD*%
%TA.AperFunction,ComponentPad*%
%ADD11R,1.700000X1.700000*%
%TD*%
%TA.AperFunction,ComponentPad*%
%ADD12O,1.700000X1.700000*%
%TD*%
%TA.AperFunction,SMDPad,CuDef*%
%ADD13R,2.000000X1.500000*%
%TD*%
%TA.AperFunction,SMDPad,CuDef*%
%ADD14R,2.000000X2.000000*%
%TD*%
%TA.AperFunction,SMDPad,CuDef*%
%ADD15R,0.600000X0.600000*%
%TD*%
%TA.AperFunction,SMDPad,CuDef*%
%ADD16R,1.000000X0.800000*%
%TD*%
%TA.AperFunction,SMDPad,CuDef*%
%ADD17R,1.500000X1.600000*%
%TD*%
%TA.AperFunction,SMDPad,CuDef*%
%ADD18R,0.800000X0.800000*%
%TD*%
%TA.AperFunction,SMDPad,CuDef*%
%ADD19R,0.500000X0.500000*%
%TD*%
%TA.AperFunction,ComponentPad*%
%ADD20R,1.500000X1.500000*%
%TD*%
%TA.AperFunction,ComponentPad*%
%ADD21O,1.500000X1.500000*%
%TD*%
G04 APERTURE END LIST*
D10*
%TO.P,U2,1*%
%TO.N,VCAP*%
X18000000Y-37000000D03*
%TO.P,U2,2*%
%TO.N,GND*%
X18000000Y-35000000D03*
%TO.P,U2,3*%
X18000000Y-33000000D03*
%TO.P,U2,4*%
X18000000Y-31000000D03*
%TO.P,U2,5*%
%TO.N,LR2021_CE*%
X18000000Y-29000000D03*
%TO.P,U2,6*%
%TO.N,GND*%
X18000000Y-27000000D03*
%TO.P,U2,7*%
X18000000Y-25000000D03*
%TO.P,U2,8*%
X18000000Y-23000000D03*
%TO.P,U2,9*%
%TO.N,RF_SUB_868*%
X18000000Y-21000000D03*
%TO.P,U2,10*%
%TO.N,RF_2G4_2400*%
X57000000Y-37000000D03*
%TO.P,U2,11*%
%TO.N,GND*%
X57000000Y-35000000D03*
%TO.P,U2,12*%
%TO.N,SPI0_SCK*%
X57000000Y-33000000D03*
%TO.P,U2,13*%
%TO.N,SPI0_NSS*%
X57000000Y-31000000D03*
%TO.P,U2,14*%
%TO.N,LR2021_BUSY*%
X57000000Y-29000000D03*
%TO.P,U2,15*%
%TO.N,SPI0_MOSI*%
X57000000Y-27000000D03*
%TO.P,U2,16*%
%TO.N,SPI0_MISO*%
X57000000Y-25000000D03*
%TO.P,U2,17*%
%TO.N,LR2021_RST*%
X57000000Y-23000000D03*
%TO.P,U2,18*%
%TO.N,LR2021_IRQ*%
X57000000Y-21000000D03*
%TD*%
D11*
%TO.P,U,1*%
%TO.N,3V3*%
X9460000Y-6110000D03*
D12*
%TO.P,U,2*%
%TO.N,GND*%
X9460000Y-8650000D03*
%TO.P,U,3*%
%TO.N,ESP_TX_RP2040_RX*%
X9460000Y-11190000D03*
%TO.P,U,4*%
%TO.N,RP2040_TX_ESP_RX*%
X9460000Y-13730000D03*
%TO.P,U,5*%
%TO.N,GPS_TX_ESP_RX*%
X9460000Y-16270000D03*
%TO.P,U,6*%
%TO.N,VDIV_MID*%
X9460000Y-18810000D03*
%TO.P,U,7*%
%TO.N,I2C_SDA*%
X9460000Y-21350000D03*
%TO.P,U,8*%
%TO.N,I2C_SCL*%
X9460000Y-23890000D03*
%TO.P,U,9*%
%TO.N,STATUS_LED*%
X14540000Y-23890000D03*
%TO.P,U,10*%
%TO.N,N/C*%
X14540000Y-21350000D03*
%TD*%
D11*
%TO.P,U1,1*%
%TO.N,3V3*%
X63000000Y-6110000D03*
D12*
%TO.P,U1,2*%
%TO.N,GND*%
X63000000Y-7610000D03*
%TO.P,U1,3*%
%TO.N,SPI0_SCK*%
X63000000Y-9110000D03*
%TO.P,U1,4*%
%TO.N,SPI0_MOSI*%
X63000000Y-10610000D03*
%TO.P,U1,5*%
%TO.N,SPI0_MISO*%
X63000000Y-12110000D03*
%TO.P,U1,6*%
%TO.N,SPI0_NSS*%
X63000000Y-13610000D03*
%TO.P,U1,7*%
%TO.N,LR2021_BUSY*%
X63000000Y-15110000D03*
%TO.P,U1,8*%
%TO.N,LR2021_IRQ*%
X63000000Y-16610000D03*
%TO.P,U1,9*%
%TO.N,LR2021_RST*%
X63000000Y-18110000D03*
%TO.P,U1,10*%
%TO.N,N/C*%
X63000000Y-19610000D03*
%TO.P,U1,11*%
%TO.N,LR2021_CE*%
X63000000Y-21110000D03*
%TO.P,U1,12*%
%TO.N,RP2040_TX_ESP_RX*%
X63000000Y-22610000D03*
%TO.P,U1,13*%
%TO.N,ESP_TX_RP2040_RX*%
X63000000Y-24110000D03*
%TO.P,U1,14*%
%TO.N,GND*%
X63000000Y-25610000D03*
%TD*%
D13*
%TO.P,J1,1*%
%TO.N,RF_SUB_868*%
X4000000Y-28000000D03*
D14*
%TO.P,J1,2*%
%TO.N,GND*%
X4000000Y-25500000D03*
%TO.P,J1,3*%
X4000000Y-30500000D03*
%TD*%
D13*
%TO.P,J2,1*%
%TO.N,RF_2G4_2400*%
X71000000Y-28000000D03*
D14*
%TO.P,J2,2*%
%TO.N,GND*%
X71000000Y-25500000D03*
%TO.P,J2,3*%
X71000000Y-30500000D03*
%TD*%
D12*
%TO.P,U3,1*%
%TO.N,3V3*%
X6000000Y-41190000D03*
%TO.P,U3,2*%
%TO.N,GND*%
X6000000Y-43730000D03*
%TO.P,U3,3*%
%TO.N,GPS_TX_ESP_RX*%
X6000000Y-46270000D03*
%TO.P,U3,4*%
%TO.N,N/C*%
X6000000Y-48810000D03*
%TD*%
%TO.P,U4,1*%
%TO.N,3V3*%
X68000000Y-41190000D03*
%TO.P,U4,2*%
%TO.N,GND*%
X68000000Y-43730000D03*
%TO.P,U4,3*%
%TO.N,I2C_SDA*%
X68000000Y-46270000D03*
%TO.P,U4,4*%
%TO.N,I2C_SCL*%
X68000000Y-48810000D03*
%TD*%
D15*
%TO.P,U5,1*%
%TO.N,VCAP*%
X7050000Y-39050000D03*
%TO.P,U5,2*%
%TO.N,GND*%
X8950000Y-39050000D03*
%TO.P,U5,3*%
%TO.N,VCAP*%
X8950000Y-40000000D03*
%TO.P,U5,5*%
%TO.N,3V3*%
X8950000Y-40950000D03*
%TD*%
D16*
%TO.P,D1,1*%
%TO.N,SOLAR_IN*%
X3500000Y-40000000D03*
%TO.P,D1,2*%
%TO.N,VCAP*%
X6500000Y-40000000D03*
%TD*%
D17*
%TO.P,C8,1*%
%TO.N,VCAP*%
X16400000Y-37000000D03*
%TO.P,C8,2*%
%TO.N,GND*%
X19600000Y-37000000D03*
%TD*%
D18*
%TO.P,C9,1*%
%TO.N,VCAP*%
X17150000Y-19000000D03*
%TO.P,C9,2*%
%TO.N,GND*%
X18850000Y-19000000D03*
%TD*%
D19*
%TO.P,C10,1*%
%TO.N,VCAP*%
X15500000Y-19000000D03*
%TO.P,C10,2*%
%TO.N,GND*%
X16500000Y-19000000D03*
%TD*%
D11*
%TO.P,J3,1*%
%TO.N,SOLAR_IN*%
X4000000Y-46730000D03*
D12*
%TO.P,J3,2*%
%TO.N,GND*%
X4000000Y-49270000D03*
%TD*%
D20*
%TO.P,SC,1*%
%TO.N,VCAP*%
X8250000Y-48000000D03*
D21*
%TO.P,SC,2*%
%TO.N,GND*%
X11750000Y-48000000D03*
%TD*%
M02*
