%TF.GenerationSoftware,KiCad,Pcbnew,9.0.8+dfsg-1*%
%TF.CreationDate,2026-10-04T02:54:24+02:00*%
%TF.ProjectId,v8h_krt_u2_lora2021,7638685f-6b72-4745-9f75-325f6c6f7261,rev?*%
%TF.SameCoordinates,Original*%
%TF.FileFunction,Copper,L2,Inr*%
%TF.FilePolarity,Positive*%
%FSLAX46Y46*%
G04 Gerber Fmt 4.6, Leading zero omitted, Abs format (unit mm)*
G04 Created by KiCad (PCBNEW 9.0.8+dfsg-1) date 2026-10-04 02:54:24*
%MOMM*%
%LPD*%
G01*
G04 APERTURE LIST*
G04 Aperture macros list*
%AMRoundRect*
0 Rectangle with rounded corners*
0 $1 Rounding radius*
0 $2 $3 $4 $5 $6 $7 $8 $9 X,Y pos of 4 corners*
0 Add a 4 corners polygon primitive as box body*
4,1,4,$2,$3,$4,$5,$6,$7,$8,$9,$2,$3,0*
0 Add four circle primitives for the rounded corners*
1,1,$1+$1,$2,$3*
1,1,$1+$1,$4,$5*
1,1,$1+$1,$6,$7*
1,1,$1+$1,$8,$9*
0 Add four rect primitives between the rounded corners*
20,1,$1+$1,$2,$3,$4,$5,0*
20,1,$1+$1,$4,$5,$6,$7,0*
20,1,$1+$1,$6,$7,$8,$9,0*
20,1,$1+$1,$8,$9,$2,$3,0*%
G04 Aperture macros list end*
%TA.AperFunction,ComponentPad*%
%ADD10RoundRect,0.250000X0.750000X-0.750000X0.750000X0.750000X-0.750000X0.750000X-0.750000X-0.750000X0*%
%TD*%
%TA.AperFunction,ComponentPad*%
%ADD11C,2.000000*%
%TD*%
%TA.AperFunction,ComponentPad*%
%ADD12R,1.700000X1.700000*%
%TD*%
%TA.AperFunction,ComponentPad*%
%ADD13C,1.700000*%
%TD*%
%TA.AperFunction,HeatsinkPad*%
%ADD14C,0.600000*%
%TD*%
%TA.AperFunction,ViaPad*%
%ADD15C,0.600000*%
%TD*%
%TA.AperFunction,Conductor*%
%ADD16C,0.300000*%
%TD*%
%TA.AperFunction,Conductor*%
%ADD17C,0.200000*%
%TD*%
G04 APERTURE END LIST*
D10*
%TO.N,VCAP*%
%TO.C,C_CAP*%
X6000000Y-30000000D03*
D11*
%TO.N,GND*%
X6000000Y-25000000D03*
%TD*%
D12*
%TO.N,GND*%
%TO.C,J2*%
X40000000Y-42000000D03*
D13*
%TO.N,+3V3*%
X42540000Y-42000000D03*
%TO.N,I2C_SDA*%
X45080000Y-42000000D03*
%TO.N,I2C_SCL*%
X47620000Y-42000000D03*
%TD*%
D12*
%TO.N,SOLAR_IN*%
%TO.C,SOLAR*%
X4000000Y-42000000D03*
D13*
%TO.N,GND*%
X6540000Y-42000000D03*
%TD*%
D14*
%TO.N,GND*%
%TO.C,U1*%
X12860000Y-11650000D03*
X12860000Y-12750000D03*
X13410000Y-11100000D03*
X13410000Y-12200000D03*
X13410000Y-13300000D03*
X13960000Y-11650000D03*
X13960000Y-12750000D03*
X14510000Y-11100000D03*
X14510000Y-12200000D03*
X14510000Y-13300000D03*
X15060000Y-11650000D03*
X15060000Y-12750000D03*
%TD*%
D12*
%TO.N,GND*%
%TO.C,J1*%
X20000000Y-42000000D03*
D13*
%TO.N,+3V3*%
X22540000Y-42000000D03*
%TO.N,EN*%
X25080000Y-42000000D03*
%TO.N,UART0_TX*%
X27620000Y-42000000D03*
%TO.N,UART0_RX*%
X30160000Y-42000000D03*
%TO.N,N/C*%
X32700000Y-42000000D03*
%TD*%
D15*
%TO.N,+3V3*%
X32800000Y-29200000D03*
X13200000Y-22800000D03*
X46300000Y-12800000D03*
X19900000Y-25500000D03*
X2900000Y-6100000D03*
X22000000Y-36300000D03*
X47900000Y-2900000D03*
X23400000Y-35800000D03*
X51900000Y-11200000D03*
X13100000Y-36500000D03*
%TO.N,GND*%
X19000000Y-23600000D03*
X50100000Y-11800000D03*
X21300000Y-35000000D03*
X46300000Y-5800000D03*
X27900000Y-2900000D03*
X26400000Y-10000000D03*
X4400000Y-19000000D03*
X15000000Y-23900000D03*
%TO.N,VCAP*%
X4500000Y-35900000D03*
X18300000Y-29200000D03*
X17900000Y-30900000D03*
X23400000Y-24200000D03*
X4500000Y-34700000D03*
%TO.N,SOLAR_IN*%
X7200000Y-39200000D03*
X24800000Y-21900000D03*
%TO.N,GPS_TX*%
X23100000Y-7300000D03*
X24500000Y-11400000D03*
X32800000Y-24600000D03*
X32800000Y-23200000D03*
%TO.N,SPI_MISO*%
X26500000Y-6400000D03*
X29600000Y-6400000D03*
%TO.N,SPI_SCK*%
X5600000Y-12400000D03*
X5900000Y-10400000D03*
X20000000Y-12000000D03*
X29600000Y-9700000D03*
%TO.N,SPI_MOSI*%
X30500000Y-8300000D03*
X6700000Y-13500000D03*
%TO.N,SPI_NSS*%
X29600000Y-10900000D03*
X23100000Y-18500000D03*
%TO.N,LR_BUSY*%
X2900000Y-8700000D03*
X29700000Y-11700000D03*
%TO.N,LR_IRQ*%
X26500000Y-7600000D03*
X24000000Y-10100000D03*
%TO.N,I2C_SDA*%
X43300000Y-40200000D03*
X15700000Y-35000000D03*
X19000000Y-35000000D03*
%TO.N,I2C_SCL*%
X9100000Y-14100000D03*
X24700000Y-35500000D03*
X23100000Y-33700000D03*
X5600000Y-17000000D03*
%TO.N,LED_DRIVE*%
X20000000Y-13800000D03*
X23100000Y-12000000D03*
%TO.N,UART0_TX*%
X29800000Y-23400000D03*
%TO.N,UART0_RX*%
X28900000Y-23400000D03*
X30200000Y-39100000D03*
%TD*%
D16*
%TO.N,+3V3*%
X50400000Y-12800000D02*
X51900000Y-11300000D01*
X46300000Y-12800000D02*
X50400000Y-12800000D01*
X51900000Y-11300000D02*
X51900000Y-11200000D01*
%TO.N,GND*%
X46800000Y-7600000D02*
X46800000Y-7500000D01*
X15700000Y-23100000D02*
X15700000Y-23200000D01*
X27400000Y-3400000D02*
X27900000Y-2900000D01*
X50600000Y-11500000D02*
X50900000Y-11500000D01*
X18985000Y-24425000D02*
X19000000Y-24400000D01*
X46700000Y-7400000D02*
X46700000Y-7300000D01*
X19000000Y-24400000D02*
X19000000Y-23600000D01*
X46500000Y-7000000D02*
X46500000Y-6900000D01*
X47500000Y-9200000D02*
X47500000Y-8800000D01*
X4300000Y-18100000D02*
X4300000Y-18900000D01*
X47200000Y-8400000D02*
X47200000Y-8300000D01*
X46900000Y-7700000D02*
X46800000Y-7600000D01*
X47500000Y-8800000D02*
X47300000Y-8600000D01*
X50100000Y-11800000D02*
X50300000Y-11800000D01*
X46700000Y-7300000D02*
X46600000Y-7200000D01*
X46600000Y-7200000D02*
X46600000Y-7100000D01*
X46600000Y-7100000D02*
X46500000Y-7000000D01*
X27385000Y-3385000D02*
X27400000Y-3400000D01*
X47000000Y-8000000D02*
X47000000Y-7900000D01*
X15705000Y-23065000D02*
X15700000Y-23100000D01*
X46800000Y-7500000D02*
X46700000Y-7400000D01*
X4265000Y-18105000D02*
X4300000Y-18100000D01*
X4300000Y-18900000D02*
X4400000Y-19000000D01*
X50300000Y-11800000D02*
X50600000Y-11500000D01*
X47200000Y-8300000D02*
X47100000Y-8200000D01*
X50100000Y-11800000D02*
X47500000Y-9200000D01*
X47300000Y-8600000D02*
X47300000Y-8500000D01*
X47000000Y-7900000D02*
X46900000Y-7800000D01*
X46300000Y-6700000D02*
X46300000Y-5800000D01*
X47100000Y-8100000D02*
X47000000Y-8000000D01*
X47300000Y-8500000D02*
X47200000Y-8400000D01*
X50900000Y-11500000D02*
X50905000Y-11465000D01*
X46900000Y-7800000D02*
X46900000Y-7700000D01*
X46500000Y-6900000D02*
X46300000Y-6700000D01*
X47100000Y-8200000D02*
X47100000Y-8100000D01*
X15700000Y-23200000D02*
X15000000Y-23900000D01*
D17*
%TO.N,VCAP*%
X4500000Y-34700000D02*
X4500000Y-35900000D01*
X18300000Y-29200000D02*
X23300000Y-24200000D01*
%TO.N,SOLAR_IN*%
X17829289Y-28729289D02*
X7500000Y-39200000D01*
X24800000Y-21900000D02*
X17829289Y-28729289D01*
%TO.N,GPS_TX*%
X32800000Y-23200000D02*
X32800000Y-24600000D01*
%TO.N,SPI_SCK*%
X5900000Y-10400000D02*
X5600000Y-10700000D01*
X5600000Y-10700000D02*
X5600000Y-12400000D01*
%TO.N,SPI_NSS*%
X29600000Y-10900000D02*
X23100000Y-17400000D01*
X23100000Y-17400000D02*
X23100000Y-18500000D01*
%TO.N,I2C_SDA*%
X15700000Y-35000000D02*
X19000000Y-35000000D01*
%TO.N,I2C_SCL*%
X24700000Y-35500000D02*
X23100000Y-33900000D01*
X6000000Y-16500000D02*
X5600000Y-16900000D01*
X6700000Y-16500000D02*
X6000000Y-16500000D01*
X9100000Y-14100000D02*
X6700000Y-16500000D01*
%TO.N,UART0_RX*%
X30200000Y-24700000D02*
X30200000Y-39100000D01*
X28900000Y-23400000D02*
X30200000Y-24700000D01*
%TD*%
%TA.AperFunction,Conductor*%
%TO.N,GND*%
G36*
X54458691Y-519407D02*
G01*
X54494655Y-568907D01*
X54499500Y-599500D01*
X54499500Y-44400500D01*
X54480593Y-44458691D01*
X54431093Y-44494655D01*
X54400500Y-44499500D01*
X599500Y-44499500D01*
X541309Y-44480593D01*
X505345Y-44431093D01*
X500500Y-44400500D01*
X500500Y-41128278D01*
X2929500Y-41128278D01*
X2929500Y-42871714D01*
X2929501Y-42871724D01*
X2942292Y-42936033D01*
X2942293Y-42936036D01*
X2950729Y-42948661D01*
X2991028Y-43008972D01*
X3006651Y-43019411D01*
X3063964Y-43057707D01*
X3079933Y-43060883D01*
X3128281Y-43070500D01*
X4871718Y-43070499D01*
X4871722Y-43070498D01*
X4871724Y-43070498D01*
X4892757Y-43066314D01*
X4936035Y-43057707D01*
X5008972Y-43008972D01*
X5057707Y-42936035D01*
X5069003Y-42879244D01*
X5069004Y-42879243D01*
X5069004Y-42879241D01*
X5070499Y-42871724D01*
X5070500Y-42871719D01*
X5070499Y-41913424D01*
X5440000Y-41913424D01*
X5440000Y-42086575D01*
X5467084Y-42257579D01*
X5520588Y-42422248D01*
X5599196Y-42576524D01*
X5603708Y-42582735D01*
X6057036Y-42129406D01*
X6074075Y-42192993D01*
X6139901Y-42307007D01*
X6232993Y-42400099D01*
X6347007Y-42465925D01*
X6410589Y-42482962D01*
X5957262Y-42936289D01*
X5957262Y-42936290D01*
X5963469Y-42940800D01*
X5963475Y-42940804D01*
X6117751Y-43019411D01*
X6282420Y-43072915D01*
X6453425Y-43100000D01*
X6626575Y-43100000D01*
X6797579Y-43072915D01*
X6962248Y-43019411D01*
X7116523Y-42940804D01*
X7116530Y-42940800D01*
X7122736Y-42936290D01*
X6669408Y-42482962D01*
X6732993Y-42465925D01*
X6847007Y-42400099D01*
X6940099Y-42307007D01*
X7005925Y-42192993D01*
X7022962Y-42129408D01*
X7476290Y-42582736D01*
X7480800Y-42576530D01*
X7480804Y-42576523D01*
X7559411Y-42422248D01*
X7612914Y-42257580D01*
X7623064Y-42193505D01*
X7623064Y-42193504D01*
X7640000Y-42086575D01*
X7640000Y-41913427D01*
X7638695Y-41905186D01*
X7638695Y-41905184D01*
X7612915Y-41742420D01*
X7559411Y-41577751D01*
X7480804Y-41423475D01*
X7480800Y-41423469D01*
X7476290Y-41417262D01*
X7476289Y-41417262D01*
X7022962Y-41870589D01*
X7005925Y-41807007D01*
X6940099Y-41692993D01*
X6847007Y-41599901D01*
X6732993Y-41534075D01*
X6669407Y-41517036D01*
X7061069Y-41125375D01*
X18900000Y-41125375D01*
X18900000Y-41749999D01*
X18900001Y-41750000D01*
X19566988Y-41750000D01*
X19534075Y-41807007D01*
X19500000Y-41934174D01*
X19500000Y-42065826D01*
X19534075Y-42192993D01*
X19566988Y-42250000D01*
X18900001Y-42250000D01*
X18900000Y-42250001D01*
X18900000Y-42874624D01*
X18914506Y-42947546D01*
X18914507Y-42947548D01*
X18969758Y-43030237D01*
X18969762Y-43030241D01*
X19052451Y-43085492D01*
X19052453Y-43085493D01*
X19125375Y-43099999D01*
X19125377Y-43100000D01*
X19749999Y-43100000D01*
X19750000Y-43099999D01*
X19750000Y-42433012D01*
X19807007Y-42465925D01*
X19934174Y-42500000D01*
X20065826Y-42500000D01*
X20192993Y-42465925D01*
X20250000Y-42433012D01*
X20250000Y-43099999D01*
X20250001Y-43100000D01*
X20874623Y-43100000D01*
X20874624Y-43099999D01*
X20947546Y-43085493D01*
X20947548Y-43085492D01*
X21030237Y-43030241D01*
X21030241Y-43030237D01*
X21085492Y-42947548D01*
X21085493Y-42947546D01*
X21099999Y-42874624D01*
X21100000Y-42874622D01*
X21100000Y-42250001D01*
X21099999Y-42250000D01*
X20433012Y-42250000D01*
X20465925Y-42192993D01*
X20500000Y-42065826D01*
X20500000Y-41934174D01*
X20489386Y-41894562D01*
X21469500Y-41894562D01*
X21469500Y-42105437D01*
X21510637Y-42312251D01*
X21591334Y-42507070D01*
X21591338Y-42507079D01*
X21675113Y-42632455D01*
X21708488Y-42682404D01*
X21857596Y-42831512D01*
X21917763Y-42871714D01*
X22032920Y-42948661D01*
X22032926Y-42948663D01*
X22032928Y-42948665D01*
X22227747Y-43029362D01*
X22434565Y-43070500D01*
X22434566Y-43070500D01*
X22645434Y-43070500D01*
X22645435Y-43070500D01*
X22852253Y-43029362D01*
X23047072Y-42948665D01*
X23047075Y-42948662D01*
X23047079Y-42948661D01*
X23097704Y-42914833D01*
X23222404Y-42831512D01*
X23371512Y-42682404D01*
X23454833Y-42557704D01*
X23488661Y-42507079D01*
X23488662Y-42507075D01*
X23488665Y-42507072D01*
X23569362Y-42312253D01*
X23610500Y-42105435D01*
X23610500Y-41894565D01*
X23610499Y-41894562D01*
X24009500Y-41894562D01*
X24009500Y-42105437D01*
X24050637Y-42312251D01*
X24131334Y-42507070D01*
X24131338Y-42507079D01*
X24215113Y-42632455D01*
X24248488Y-42682404D01*
X24397596Y-42831512D01*
X24457763Y-42871714D01*
X24572920Y-42948661D01*
X24572926Y-42948663D01*
X24572928Y-42948665D01*
X24767747Y-43029362D01*
X24974565Y-43070500D01*
X24974566Y-43070500D01*
X25185434Y-43070500D01*
X25185435Y-43070500D01*
X25392253Y-43029362D01*
X25587072Y-42948665D01*
X25587075Y-42948662D01*
X25587079Y-42948661D01*
X25637704Y-42914833D01*
X25762404Y-42831512D01*
X25911512Y-42682404D01*
X25994833Y-42557704D01*
X26028661Y-42507079D01*
X26028662Y-42507075D01*
X26028665Y-42507072D01*
X26109362Y-42312253D01*
X26150500Y-42105435D01*
X26150500Y-41894565D01*
X26150499Y-41894562D01*
X26549500Y-41894562D01*
X26549500Y-42105437D01*
X26590637Y-42312251D01*
X26671334Y-42507070D01*
X26671338Y-42507079D01*
X26755113Y-42632455D01*
X26788488Y-42682404D01*
X26937596Y-42831512D01*
X26997763Y-42871714D01*
X27112920Y-42948661D01*
X27112926Y-42948663D01*
X27112928Y-42948665D01*
X27307747Y-43029362D01*
X27514565Y-43070500D01*
X27514566Y-43070500D01*
X27725434Y-43070500D01*
X27725435Y-43070500D01*
X27932253Y-43029362D01*
X28127072Y-42948665D01*
X28127075Y-42948662D01*
X28127079Y-42948661D01*
X28177704Y-42914833D01*
X28302404Y-42831512D01*
X28451512Y-42682404D01*
X28534833Y-42557704D01*
X28568661Y-42507079D01*
X28568662Y-42507075D01*
X28568665Y-42507072D01*
X28649362Y-42312253D01*
X28690500Y-42105435D01*
X28690500Y-41894565D01*
X28690499Y-41894562D01*
X29089500Y-41894562D01*
X29089500Y-42105437D01*
X29130637Y-42312251D01*
X29211334Y-42507070D01*
X29211338Y-42507079D01*
X29295113Y-42632455D01*
X29328488Y-42682404D01*
X29477596Y-42831512D01*
X29537763Y-42871714D01*
X29652920Y-42948661D01*
X29652926Y-42948663D01*
X29652928Y-42948665D01*
X29847747Y-43029362D01*
X30054565Y-43070500D01*
X30054566Y-43070500D01*
X30265434Y-43070500D01*
X30265435Y-43070500D01*
X30472253Y-43029362D01*
X30667072Y-42948665D01*
X30667075Y-42948662D01*
X30667079Y-42948661D01*
X30717704Y-42914833D01*
X30842404Y-42831512D01*
X30991512Y-42682404D01*
X31074833Y-42557704D01*
X31108661Y-42507079D01*
X31108662Y-42507075D01*
X31108665Y-42507072D01*
X31189362Y-42312253D01*
X31230500Y-42105435D01*
X31230500Y-41894565D01*
X31230499Y-41894562D01*
X31629500Y-41894562D01*
X31629500Y-42105437D01*
X31670637Y-42312251D01*
X31751334Y-42507070D01*
X31751338Y-42507079D01*
X31835113Y-42632455D01*
X31868488Y-42682404D01*
X32017596Y-42831512D01*
X32077763Y-42871714D01*
X32192920Y-42948661D01*
X32192926Y-42948663D01*
X32192928Y-42948665D01*
X32387747Y-43029362D01*
X32594565Y-43070500D01*
X32594566Y-43070500D01*
X32805434Y-43070500D01*
X32805435Y-43070500D01*
X33012253Y-43029362D01*
X33207072Y-42948665D01*
X33207075Y-42948662D01*
X33207079Y-42948661D01*
X33257704Y-42914833D01*
X33382404Y-42831512D01*
X33531512Y-42682404D01*
X33614833Y-42557704D01*
X33648661Y-42507079D01*
X33648662Y-42507075D01*
X33648665Y-42507072D01*
X33729362Y-42312253D01*
X33770500Y-42105435D01*
X33770500Y-41894565D01*
X33729362Y-41687747D01*
X33648665Y-41492928D01*
X33648663Y-41492926D01*
X33648661Y-41492920D01*
X33581459Y-41392347D01*
X33531512Y-41317596D01*
X33382404Y-41168488D01*
X33322236Y-41128285D01*
X33317881Y-41125375D01*
X38900000Y-41125375D01*
X38900000Y-41749999D01*
X38900001Y-41750000D01*
X39566988Y-41750000D01*
X39534075Y-41807007D01*
X39500000Y-41934174D01*
X39500000Y-42065826D01*
X39534075Y-42192993D01*
X39566988Y-42250000D01*
X38900001Y-42250000D01*
X38900000Y-42250001D01*
X38900000Y-42874624D01*
X38914506Y-42947546D01*
X38914507Y-42947548D01*
X38969758Y-43030237D01*
X38969762Y-43030241D01*
X39052451Y-43085492D01*
X39052453Y-43085493D01*
X39125375Y-43099999D01*
X39125377Y-43100000D01*
X39749999Y-43100000D01*
X39750000Y-43099999D01*
X39750000Y-42433012D01*
X39807007Y-42465925D01*
X39934174Y-42500000D01*
X40065826Y-42500000D01*
X40192993Y-42465925D01*
X40250000Y-42433012D01*
X40250000Y-43099999D01*
X40250001Y-43100000D01*
X40874623Y-43100000D01*
X40874624Y-43099999D01*
X40947546Y-43085493D01*
X40947548Y-43085492D01*
X41030237Y-43030241D01*
X41030241Y-43030237D01*
X41085492Y-42947548D01*
X41085493Y-42947546D01*
X41099999Y-42874624D01*
X41100000Y-42874622D01*
X41100000Y-42250001D01*
X41099999Y-42250000D01*
X40433012Y-42250000D01*
X40465925Y-42192993D01*
X40500000Y-42065826D01*
X40500000Y-41934174D01*
X40489386Y-41894562D01*
X41469500Y-41894562D01*
X41469500Y-42105437D01*
X41510637Y-42312251D01*
X41591334Y-42507070D01*
X41591338Y-42507079D01*
X41675113Y-42632455D01*
X41708488Y-42682404D01*
X41857596Y-42831512D01*
X41917763Y-42871714D01*
X42032920Y-42948661D01*
X42032926Y-42948663D01*
X42032928Y-42948665D01*
X42227747Y-43029362D01*
X42434565Y-43070500D01*
X42434566Y-43070500D01*
X42645434Y-43070500D01*
X42645435Y-43070500D01*
X42852253Y-43029362D01*
X43047072Y-42948665D01*
X43047075Y-42948662D01*
X43047079Y-42948661D01*
X43097704Y-42914833D01*
X43222404Y-42831512D01*
X43371512Y-42682404D01*
X43454833Y-42557704D01*
X43488661Y-42507079D01*
X43488662Y-42507075D01*
X43488665Y-42507072D01*
X43569362Y-42312253D01*
X43610500Y-42105435D01*
X43610500Y-41894565D01*
X43610499Y-41894562D01*
X44009500Y-41894562D01*
X44009500Y-42105437D01*
X44050637Y-42312251D01*
X44131334Y-42507070D01*
X44131338Y-42507079D01*
X44215113Y-42632455D01*
X44248488Y-42682404D01*
X44397596Y-42831512D01*
X44457763Y-42871714D01*
X44572920Y-42948661D01*
X44572926Y-42948663D01*
X44572928Y-42948665D01*
X44767747Y-43029362D01*
X44974565Y-43070500D01*
X44974566Y-43070500D01*
X45185434Y-43070500D01*
X45185435Y-43070500D01*
X45392253Y-43029362D01*
X45587072Y-42948665D01*
X45587075Y-42948662D01*
X45587079Y-42948661D01*
X45637704Y-42914833D01*
X45762404Y-42831512D01*
X45911512Y-42682404D01*
X45994833Y-42557704D01*
X46028661Y-42507079D01*
X46028662Y-42507075D01*
X46028665Y-42507072D01*
X46109362Y-42312253D01*
X46150500Y-42105435D01*
X46150500Y-41894565D01*
X46150499Y-41894562D01*
X46549500Y-41894562D01*
X46549500Y-42105437D01*
X46590637Y-42312251D01*
X46671334Y-42507070D01*
X46671338Y-42507079D01*
X46755113Y-42632455D01*
X46788488Y-42682404D01*
X46937596Y-42831512D01*
X46997763Y-42871714D01*
X47112920Y-42948661D01*
X47112926Y-42948663D01*
X47112928Y-42948665D01*
X47307747Y-43029362D01*
X47514565Y-43070500D01*
X47514566Y-43070500D01*
X47725434Y-43070500D01*
X47725435Y-43070500D01*
X47932253Y-43029362D01*
X48127072Y-42948665D01*
X48127075Y-42948662D01*
X48127079Y-42948661D01*
X48177704Y-42914833D01*
X48302404Y-42831512D01*
X48451512Y-42682404D01*
X48534833Y-42557704D01*
X48568661Y-42507079D01*
X48568662Y-42507075D01*
X48568665Y-42507072D01*
X48649362Y-42312253D01*
X48690500Y-42105435D01*
X48690500Y-41894565D01*
X48649362Y-41687747D01*
X48568665Y-41492928D01*
X48568663Y-41492926D01*
X48568661Y-41492920D01*
X48501459Y-41392347D01*
X48451512Y-41317596D01*
X48302404Y-41168488D01*
X48242236Y-41128285D01*
X48127079Y-41051338D01*
X48127070Y-41051334D01*
X47932251Y-40970637D01*
X47725437Y-40929500D01*
X47725435Y-40929500D01*
X47514565Y-40929500D01*
X47514562Y-40929500D01*
X47307748Y-40970637D01*
X47112929Y-41051334D01*
X47112920Y-41051338D01*
X46937596Y-41168488D01*
X46937592Y-41168491D01*
X46788491Y-41317592D01*
X46788488Y-41317596D01*
X46671338Y-41492920D01*
X46671334Y-41492929D01*
X46590637Y-41687748D01*
X46549500Y-41894562D01*
X46150499Y-41894562D01*
X46109362Y-41687747D01*
X46028665Y-41492928D01*
X46028663Y-41492926D01*
X46028661Y-41492920D01*
X45961459Y-41392347D01*
X45911512Y-41317596D01*
X45762404Y-41168488D01*
X45702236Y-41128285D01*
X45587079Y-41051338D01*
X45587070Y-41051334D01*
X45392251Y-40970637D01*
X45185437Y-40929500D01*
X45185435Y-40929500D01*
X44974565Y-40929500D01*
X44974562Y-40929500D01*
X44767748Y-40970637D01*
X44572929Y-41051334D01*
X44572920Y-41051338D01*
X44397596Y-41168488D01*
X44397592Y-41168491D01*
X44248491Y-41317592D01*
X44248488Y-41317596D01*
X44131338Y-41492920D01*
X44131334Y-41492929D01*
X44050637Y-41687748D01*
X44009500Y-41894562D01*
X43610499Y-41894562D01*
X43569362Y-41687747D01*
X43488665Y-41492928D01*
X43488663Y-41492926D01*
X43488661Y-41492920D01*
X43421459Y-41392347D01*
X43371512Y-41317596D01*
X43222404Y-41168488D01*
X43162236Y-41128285D01*
X43047079Y-41051338D01*
X43047070Y-41051334D01*
X42852251Y-40970637D01*
X42645437Y-40929500D01*
X42645435Y-40929500D01*
X42434565Y-40929500D01*
X42434562Y-40929500D01*
X42227748Y-40970637D01*
X42032929Y-41051334D01*
X42032920Y-41051338D01*
X41857596Y-41168488D01*
X41857592Y-41168491D01*
X41708491Y-41317592D01*
X41708488Y-41317596D01*
X41591338Y-41492920D01*
X41591334Y-41492929D01*
X41510637Y-41687748D01*
X41469500Y-41894562D01*
X40489386Y-41894562D01*
X40465925Y-41807007D01*
X40433012Y-41750000D01*
X41099999Y-41750000D01*
X41100000Y-41749999D01*
X41100000Y-41125377D01*
X41099999Y-41125375D01*
X41085493Y-41052453D01*
X41085492Y-41052451D01*
X41030241Y-40969762D01*
X41030237Y-40969758D01*
X40947548Y-40914507D01*
X40947546Y-40914506D01*
X40874624Y-40900000D01*
X40250001Y-40900000D01*
X40250000Y-40900001D01*
X40250000Y-41566988D01*
X40192993Y-41534075D01*
X40065826Y-41500000D01*
X39934174Y-41500000D01*
X39807007Y-41534075D01*
X39750000Y-41566988D01*
X39750000Y-40900001D01*
X39749999Y-40900000D01*
X39125375Y-40900000D01*
X39052453Y-40914506D01*
X39052451Y-40914507D01*
X38969762Y-40969758D01*
X38969758Y-40969762D01*
X38914507Y-41052451D01*
X38914506Y-41052453D01*
X38900000Y-41125375D01*
X33317881Y-41125375D01*
X33207079Y-41051338D01*
X33207070Y-41051334D01*
X33012251Y-40970637D01*
X32805437Y-40929500D01*
X32805435Y-40929500D01*
X32594565Y-40929500D01*
X32594562Y-40929500D01*
X32387748Y-40970637D01*
X32192929Y-41051334D01*
X32192920Y-41051338D01*
X32017596Y-41168488D01*
X32017592Y-41168491D01*
X31868491Y-41317592D01*
X31868488Y-41317596D01*
X31751338Y-41492920D01*
X31751334Y-41492929D01*
X31670637Y-41687748D01*
X31629500Y-41894562D01*
X31230499Y-41894562D01*
X31189362Y-41687747D01*
X31108665Y-41492928D01*
X31108663Y-41492926D01*
X31108661Y-41492920D01*
X31041459Y-41392347D01*
X30991512Y-41317596D01*
X30842404Y-41168488D01*
X30782236Y-41128285D01*
X30667079Y-41051338D01*
X30667070Y-41051334D01*
X30472251Y-40970637D01*
X30265437Y-40929500D01*
X30265435Y-40929500D01*
X30054565Y-40929500D01*
X30054562Y-40929500D01*
X29847748Y-40970637D01*
X29652929Y-41051334D01*
X29652920Y-41051338D01*
X29477596Y-41168488D01*
X29477592Y-41168491D01*
X29328491Y-41317592D01*
X29328488Y-41317596D01*
X29211338Y-41492920D01*
X29211334Y-41492929D01*
X29130637Y-41687748D01*
X29089500Y-41894562D01*
X28690499Y-41894562D01*
X28649362Y-41687747D01*
X28568665Y-41492928D01*
X28568663Y-41492926D01*
X28568661Y-41492920D01*
X28501459Y-41392347D01*
X28451512Y-41317596D01*
X28302404Y-41168488D01*
X28242236Y-41128285D01*
X28127079Y-41051338D01*
X28127070Y-41051334D01*
X27932251Y-40970637D01*
X27725437Y-40929500D01*
X27725435Y-40929500D01*
X27514565Y-40929500D01*
X27514562Y-40929500D01*
X27307748Y-40970637D01*
X27112929Y-41051334D01*
X27112920Y-41051338D01*
X26937596Y-41168488D01*
X26937592Y-41168491D01*
X26788491Y-41317592D01*
X26788488Y-41317596D01*
X26671338Y-41492920D01*
X26671334Y-41492929D01*
X26590637Y-41687748D01*
X26549500Y-41894562D01*
X26150499Y-41894562D01*
X26109362Y-41687747D01*
X26028665Y-41492928D01*
X26028663Y-41492926D01*
X26028661Y-41492920D01*
X25961459Y-41392347D01*
X25911512Y-41317596D01*
X25762404Y-41168488D01*
X25702236Y-41128285D01*
X25587079Y-41051338D01*
X25587070Y-41051334D01*
X25392251Y-40970637D01*
X25185437Y-40929500D01*
X25185435Y-40929500D01*
X24974565Y-40929500D01*
X24974562Y-40929500D01*
X24767748Y-40970637D01*
X24572929Y-41051334D01*
X24572920Y-41051338D01*
X24397596Y-41168488D01*
X24397592Y-41168491D01*
X24248491Y-41317592D01*
X24248488Y-41317596D01*
X24131338Y-41492920D01*
X24131334Y-41492929D01*
X24050637Y-41687748D01*
X24009500Y-41894562D01*
X23610499Y-41894562D01*
X23569362Y-41687747D01*
X23488665Y-41492928D01*
X23488663Y-41492926D01*
X23488661Y-41492920D01*
X23421459Y-41392347D01*
X23371512Y-41317596D01*
X23222404Y-41168488D01*
X23162236Y-41128285D01*
X23047079Y-41051338D01*
X23047070Y-41051334D01*
X22852251Y-40970637D01*
X22645437Y-40929500D01*
X22645435Y-40929500D01*
X22434565Y-40929500D01*
X22434562Y-40929500D01*
X22227748Y-40970637D01*
X22032929Y-41051334D01*
X22032920Y-41051338D01*
X21857596Y-41168488D01*
X21857592Y-41168491D01*
X21708491Y-41317592D01*
X21708488Y-41317596D01*
X21591338Y-41492920D01*
X21591334Y-41492929D01*
X21510637Y-41687748D01*
X21469500Y-41894562D01*
X20489386Y-41894562D01*
X20465925Y-41807007D01*
X20433012Y-41750000D01*
X21099999Y-41750000D01*
X21100000Y-41749999D01*
X21100000Y-41125377D01*
X21099999Y-41125375D01*
X21085493Y-41052453D01*
X21085492Y-41052451D01*
X21030241Y-40969762D01*
X21030237Y-40969758D01*
X20947548Y-40914507D01*
X20947546Y-40914506D01*
X20874624Y-40900000D01*
X20250001Y-40900000D01*
X20250000Y-40900001D01*
X20250000Y-41566988D01*
X20192993Y-41534075D01*
X20065826Y-41500000D01*
X19934174Y-41500000D01*
X19807007Y-41534075D01*
X19750000Y-41566988D01*
X19750000Y-40900001D01*
X19749999Y-40900000D01*
X19125375Y-40900000D01*
X19052453Y-40914506D01*
X19052451Y-40914507D01*
X18969762Y-40969758D01*
X18969758Y-40969762D01*
X18914507Y-41052451D01*
X18914506Y-41052453D01*
X18900000Y-41125375D01*
X7061069Y-41125375D01*
X7122736Y-41063708D01*
X7116524Y-41059196D01*
X6962248Y-40980588D01*
X6797579Y-40927084D01*
X6626575Y-40900000D01*
X6453425Y-40900000D01*
X6282420Y-40927084D01*
X6117751Y-40980588D01*
X5963478Y-41059194D01*
X5957262Y-41063708D01*
X6410591Y-41517037D01*
X6347007Y-41534075D01*
X6232993Y-41599901D01*
X6139901Y-41692993D01*
X6074075Y-41807007D01*
X6057037Y-41870591D01*
X5603708Y-41417262D01*
X5599194Y-41423478D01*
X5520588Y-41577751D01*
X5467084Y-41742420D01*
X5440000Y-41913424D01*
X5070499Y-41913424D01*
X5070499Y-41128282D01*
X5057707Y-41063965D01*
X5057535Y-41063708D01*
X5008973Y-40991030D01*
X5008972Y-40991028D01*
X5008639Y-40990805D01*
X4936035Y-40942292D01*
X4871720Y-40929500D01*
X3128285Y-40929500D01*
X3128275Y-40929501D01*
X3063966Y-40942292D01*
X3063963Y-40942293D01*
X2991030Y-40991026D01*
X2991026Y-40991030D01*
X2942292Y-41063964D01*
X2929500Y-41128278D01*
X500500Y-41128278D01*
X500500Y-40131472D01*
X42779500Y-40131472D01*
X42779500Y-40268527D01*
X42814971Y-40400904D01*
X42814973Y-40400908D01*
X42883495Y-40519591D01*
X42883497Y-40519594D01*
X42980406Y-40616503D01*
X42980408Y-40616504D01*
X43099091Y-40685026D01*
X43099095Y-40685028D01*
X43231472Y-40720499D01*
X43231474Y-40720500D01*
X43231475Y-40720500D01*
X43368526Y-40720500D01*
X43368526Y-40720499D01*
X43500905Y-40685028D01*
X43619594Y-40616503D01*
X43716503Y-40519594D01*
X43785028Y-40400905D01*
X43820500Y-40268525D01*
X43820500Y-40131475D01*
X43785028Y-39999095D01*
X43716503Y-39880406D01*
X43619594Y-39783497D01*
X43619591Y-39783495D01*
X43500908Y-39714973D01*
X43500904Y-39714971D01*
X43368527Y-39679500D01*
X43368525Y-39679500D01*
X43231475Y-39679500D01*
X43231472Y-39679500D01*
X43099095Y-39714971D01*
X43099091Y-39714973D01*
X42980408Y-39783495D01*
X42883495Y-39880408D01*
X42814973Y-39999091D01*
X42814971Y-39999095D01*
X42779500Y-40131472D01*
X500500Y-40131472D01*
X500500Y-39131472D01*
X6679500Y-39131472D01*
X6679500Y-39268527D01*
X6714971Y-39400904D01*
X6714973Y-39400908D01*
X6781712Y-39516503D01*
X6783497Y-39519594D01*
X6880406Y-39616503D01*
X6887329Y-39620500D01*
X6999091Y-39685026D01*
X6999095Y-39685028D01*
X7131472Y-39720499D01*
X7131474Y-39720500D01*
X7131475Y-39720500D01*
X7268526Y-39720500D01*
X7268526Y-39720499D01*
X7400905Y-39685028D01*
X7519594Y-39616503D01*
X7616503Y-39519594D01*
X7617703Y-39517514D01*
X7619443Y-39515762D01*
X7620452Y-39514448D01*
X7620620Y-39514577D01*
X7653362Y-39481608D01*
X7698530Y-39455120D01*
X10681339Y-36431472D01*
X12579500Y-36431472D01*
X12579500Y-36568527D01*
X12614971Y-36700904D01*
X12614973Y-36700908D01*
X12663539Y-36785026D01*
X12683497Y-36819594D01*
X12780406Y-36916503D01*
X12780408Y-36916504D01*
X12899091Y-36985026D01*
X12899095Y-36985028D01*
X13031472Y-37020499D01*
X13031474Y-37020500D01*
X13031475Y-37020500D01*
X13168526Y-37020500D01*
X13168526Y-37020499D01*
X13300905Y-36985028D01*
X13419594Y-36916503D01*
X13516503Y-36819594D01*
X13585028Y-36700905D01*
X13620500Y-36568525D01*
X13620500Y-36431475D01*
X13585028Y-36299095D01*
X13570819Y-36274485D01*
X13570819Y-36274483D01*
X13545986Y-36231472D01*
X21479500Y-36231472D01*
X21479500Y-36368527D01*
X21514971Y-36500904D01*
X21514973Y-36500908D01*
X21583495Y-36619591D01*
X21583497Y-36619594D01*
X21680406Y-36716503D01*
X21680408Y-36716504D01*
X21799091Y-36785026D01*
X21799095Y-36785028D01*
X21931472Y-36820499D01*
X21931474Y-36820500D01*
X21931475Y-36820500D01*
X22068526Y-36820500D01*
X22068526Y-36820499D01*
X22200905Y-36785028D01*
X22319594Y-36716503D01*
X22416503Y-36619594D01*
X22485028Y-36500905D01*
X22520500Y-36368525D01*
X22520500Y-36231475D01*
X22485028Y-36099095D01*
X22476021Y-36083495D01*
X22428338Y-36000905D01*
X22416503Y-35980406D01*
X22319594Y-35883497D01*
X22319591Y-35883495D01*
X22200908Y-35814973D01*
X22200904Y-35814971D01*
X22068527Y-35779500D01*
X22068525Y-35779500D01*
X21931475Y-35779500D01*
X21931472Y-35779500D01*
X21799095Y-35814971D01*
X21799091Y-35814973D01*
X21680408Y-35883495D01*
X21583495Y-35980408D01*
X21514973Y-36099091D01*
X21514971Y-36099095D01*
X21479500Y-36231472D01*
X13545986Y-36231472D01*
X13516504Y-36180408D01*
X13516503Y-36180406D01*
X13419594Y-36083497D01*
X13419591Y-36083495D01*
X13300908Y-36014973D01*
X13300904Y-36014971D01*
X13168527Y-35979500D01*
X13168525Y-35979500D01*
X13031475Y-35979500D01*
X13031472Y-35979500D01*
X12899095Y-36014971D01*
X12899091Y-36014973D01*
X12780408Y-36083495D01*
X12683495Y-36180408D01*
X12614973Y-36299091D01*
X12614971Y-36299095D01*
X12579500Y-36431472D01*
X10681339Y-36431472D01*
X11371884Y-35731472D01*
X22879500Y-35731472D01*
X22879500Y-35868527D01*
X22914971Y-36000904D01*
X22914973Y-36000908D01*
X22983495Y-36119591D01*
X22983497Y-36119594D01*
X23080406Y-36216503D01*
X23080408Y-36216504D01*
X23199091Y-36285026D01*
X23199095Y-36285028D01*
X23331472Y-36320499D01*
X23331474Y-36320500D01*
X23331475Y-36320500D01*
X23468526Y-36320500D01*
X23468526Y-36320499D01*
X23600905Y-36285028D01*
X23719594Y-36216503D01*
X23816503Y-36119594D01*
X23885028Y-36000905D01*
X23920500Y-35868525D01*
X23920500Y-35731475D01*
X23885028Y-35599095D01*
X23867378Y-35568525D01*
X23828731Y-35501586D01*
X23816503Y-35480406D01*
X23719594Y-35383497D01*
X23719591Y-35383495D01*
X23600908Y-35314973D01*
X23600904Y-35314971D01*
X23468527Y-35279500D01*
X23468525Y-35279500D01*
X23331475Y-35279500D01*
X23331472Y-35279500D01*
X23199095Y-35314971D01*
X23199091Y-35314973D01*
X23080408Y-35383495D01*
X22983495Y-35480408D01*
X22914973Y-35599091D01*
X22914971Y-35599095D01*
X22879500Y-35731472D01*
X11371884Y-35731472D01*
X12161079Y-34931472D01*
X15179500Y-34931472D01*
X15179500Y-35068527D01*
X15214971Y-35200904D01*
X15214973Y-35200908D01*
X15271662Y-35299095D01*
X15283497Y-35319594D01*
X15380406Y-35416503D01*
X15380408Y-35416504D01*
X15499091Y-35485026D01*
X15499095Y-35485028D01*
X15631472Y-35520499D01*
X15631474Y-35520500D01*
X15631475Y-35520500D01*
X15768526Y-35520500D01*
X15768526Y-35520499D01*
X15900905Y-35485028D01*
X16019594Y-35416503D01*
X16053097Y-35382999D01*
X16086602Y-35349496D01*
X16141119Y-35321719D01*
X16156605Y-35320500D01*
X18543395Y-35320500D01*
X18601586Y-35339407D01*
X18613398Y-35349496D01*
X18680406Y-35416503D01*
X18799091Y-35485026D01*
X18799095Y-35485028D01*
X18931472Y-35520499D01*
X18931474Y-35520500D01*
X18931475Y-35520500D01*
X19068526Y-35520500D01*
X19068526Y-35520499D01*
X19200905Y-35485028D01*
X19319594Y-35416503D01*
X19416503Y-35319594D01*
X19485028Y-35200905D01*
X19520500Y-35068525D01*
X19520500Y-34931475D01*
X19485028Y-34799095D01*
X19467378Y-34768525D01*
X19416504Y-34680408D01*
X19416503Y-34680406D01*
X19319594Y-34583497D01*
X19319591Y-34583495D01*
X19200908Y-34514973D01*
X19200904Y-34514971D01*
X19068527Y-34479500D01*
X19068525Y-34479500D01*
X18931475Y-34479500D01*
X18931472Y-34479500D01*
X18799095Y-34514971D01*
X18799091Y-34514973D01*
X18680406Y-34583496D01*
X18613398Y-34650504D01*
X18558881Y-34678281D01*
X18543395Y-34679500D01*
X16156605Y-34679500D01*
X16098414Y-34660593D01*
X16086602Y-34650504D01*
X16019593Y-34583496D01*
X15900908Y-34514973D01*
X15900904Y-34514971D01*
X15768527Y-34479500D01*
X15768525Y-34479500D01*
X15631475Y-34479500D01*
X15631472Y-34479500D01*
X15499095Y-34514971D01*
X15499091Y-34514973D01*
X15380408Y-34583495D01*
X15283495Y-34680408D01*
X15214973Y-34799091D01*
X15214971Y-34799095D01*
X15179500Y-34931472D01*
X12161079Y-34931472D01*
X13443520Y-33631472D01*
X22579500Y-33631472D01*
X22579500Y-33768527D01*
X22614971Y-33900904D01*
X22614973Y-33900908D01*
X22683495Y-34019591D01*
X22683497Y-34019594D01*
X22780406Y-34116503D01*
X22899095Y-34185028D01*
X22918109Y-34190122D01*
X22962490Y-34215745D01*
X24150504Y-35403759D01*
X24178281Y-35458276D01*
X24179500Y-35473763D01*
X24179500Y-35568527D01*
X24214971Y-35700904D01*
X24214973Y-35700908D01*
X24280828Y-35814971D01*
X24283497Y-35819594D01*
X24380406Y-35916503D01*
X24380408Y-35916504D01*
X24499091Y-35985026D01*
X24499095Y-35985028D01*
X24631472Y-36020499D01*
X24631474Y-36020500D01*
X24631475Y-36020500D01*
X24768526Y-36020500D01*
X24768526Y-36020499D01*
X24900905Y-35985028D01*
X25019594Y-35916503D01*
X25116503Y-35819594D01*
X25185028Y-35700905D01*
X25220500Y-35568525D01*
X25220500Y-35431475D01*
X25185028Y-35299095D01*
X25116503Y-35180406D01*
X25019594Y-35083497D01*
X25019591Y-35083495D01*
X24900908Y-35014973D01*
X24900904Y-35014971D01*
X24768527Y-34979500D01*
X24768525Y-34979500D01*
X24673763Y-34979500D01*
X24615572Y-34960593D01*
X24603759Y-34950504D01*
X23618921Y-33965666D01*
X23591144Y-33911149D01*
X23593299Y-33870038D01*
X23620499Y-33768527D01*
X23620500Y-33768525D01*
X23620500Y-33631474D01*
X23620499Y-33631472D01*
X23585028Y-33499095D01*
X23585026Y-33499091D01*
X23516504Y-33380408D01*
X23516503Y-33380406D01*
X23419594Y-33283497D01*
X23419591Y-33283495D01*
X23300908Y-33214973D01*
X23300904Y-33214971D01*
X23168527Y-33179500D01*
X23168525Y-33179500D01*
X23031475Y-33179500D01*
X23031472Y-33179500D01*
X22899095Y-33214971D01*
X22899091Y-33214973D01*
X22780408Y-33283495D01*
X22683495Y-33380408D01*
X22614973Y-33499091D01*
X22614971Y-33499095D01*
X22579500Y-33631472D01*
X13443520Y-33631472D01*
X16205702Y-30831472D01*
X17379500Y-30831472D01*
X17379500Y-30968527D01*
X17414971Y-31100904D01*
X17414973Y-31100908D01*
X17483495Y-31219591D01*
X17483497Y-31219594D01*
X17580406Y-31316503D01*
X17580408Y-31316504D01*
X17699091Y-31385026D01*
X17699095Y-31385028D01*
X17831472Y-31420499D01*
X17831474Y-31420500D01*
X17831475Y-31420500D01*
X17968526Y-31420500D01*
X17968526Y-31420499D01*
X18100905Y-31385028D01*
X18219594Y-31316503D01*
X18316503Y-31219594D01*
X18385028Y-31100905D01*
X18420500Y-30968525D01*
X18420500Y-30831475D01*
X18385028Y-30699095D01*
X18316503Y-30580406D01*
X18219594Y-30483497D01*
X18219591Y-30483495D01*
X18100908Y-30414973D01*
X18100904Y-30414971D01*
X17968527Y-30379500D01*
X17968525Y-30379500D01*
X17831475Y-30379500D01*
X17831472Y-30379500D01*
X17699095Y-30414971D01*
X17699091Y-30414973D01*
X17580408Y-30483495D01*
X17483495Y-30580408D01*
X17414973Y-30699091D01*
X17414971Y-30699095D01*
X17379500Y-30831472D01*
X16205702Y-30831472D01*
X17651592Y-29365786D01*
X17705917Y-29337640D01*
X17766412Y-29346801D01*
X17809970Y-29389770D01*
X17813534Y-29397432D01*
X17814975Y-29400912D01*
X17883495Y-29519591D01*
X17883497Y-29519594D01*
X17980406Y-29616503D01*
X17980408Y-29616504D01*
X18099091Y-29685026D01*
X18099095Y-29685028D01*
X18231472Y-29720499D01*
X18231474Y-29720500D01*
X18231475Y-29720500D01*
X18368526Y-29720500D01*
X18368526Y-29720499D01*
X18500905Y-29685028D01*
X18619594Y-29616503D01*
X18716503Y-29519594D01*
X18785028Y-29400905D01*
X18820500Y-29268525D01*
X18820500Y-29173762D01*
X18839407Y-29115571D01*
X18849490Y-29103764D01*
X23213202Y-24740051D01*
X23267717Y-24712276D01*
X23308825Y-24714430D01*
X23331475Y-24720500D01*
X23331477Y-24720500D01*
X23468526Y-24720500D01*
X23468526Y-24720499D01*
X23600905Y-24685028D01*
X23719594Y-24616503D01*
X23816503Y-24519594D01*
X23885028Y-24400905D01*
X23920500Y-24268525D01*
X23920500Y-24131475D01*
X23885028Y-23999095D01*
X23816503Y-23880406D01*
X23719594Y-23783497D01*
X23719591Y-23783495D01*
X23595286Y-23711727D01*
X23596060Y-23710385D01*
X23555399Y-23675662D01*
X23541112Y-23616168D01*
X23564523Y-23559638D01*
X23570512Y-23553224D01*
X23796856Y-23331472D01*
X28379500Y-23331472D01*
X28379500Y-23468527D01*
X28414971Y-23600904D01*
X28414973Y-23600908D01*
X28478180Y-23710385D01*
X28483497Y-23719594D01*
X28580406Y-23816503D01*
X28580408Y-23816504D01*
X28699091Y-23885026D01*
X28699095Y-23885028D01*
X28831472Y-23920499D01*
X28831474Y-23920500D01*
X28831475Y-23920500D01*
X28926237Y-23920500D01*
X28984428Y-23939407D01*
X28996241Y-23949496D01*
X29850504Y-24803759D01*
X29878281Y-24858276D01*
X29879500Y-24873763D01*
X29879500Y-38643395D01*
X29860593Y-38701586D01*
X29850504Y-38713398D01*
X29783496Y-38780406D01*
X29714973Y-38899091D01*
X29714971Y-38899095D01*
X29679500Y-39031472D01*
X29679500Y-39168527D01*
X29714971Y-39300904D01*
X29714973Y-39300908D01*
X29783495Y-39419591D01*
X29783497Y-39419594D01*
X29880406Y-39516503D01*
X29919969Y-39539344D01*
X29999091Y-39585026D01*
X29999095Y-39585028D01*
X30131472Y-39620499D01*
X30131474Y-39620500D01*
X30131475Y-39620500D01*
X30268526Y-39620500D01*
X30268526Y-39620499D01*
X30400905Y-39585028D01*
X30519594Y-39516503D01*
X30616503Y-39419594D01*
X30685028Y-39300905D01*
X30720500Y-39168525D01*
X30720500Y-39031475D01*
X30685028Y-38899095D01*
X30616503Y-38780406D01*
X30597920Y-38761823D01*
X30549496Y-38713398D01*
X30521719Y-38658881D01*
X30520500Y-38643395D01*
X30520500Y-29131472D01*
X32279500Y-29131472D01*
X32279500Y-29268527D01*
X32314971Y-29400904D01*
X32314973Y-29400908D01*
X32383495Y-29519591D01*
X32383497Y-29519594D01*
X32480406Y-29616503D01*
X32480408Y-29616504D01*
X32599091Y-29685026D01*
X32599095Y-29685028D01*
X32731472Y-29720499D01*
X32731474Y-29720500D01*
X32731475Y-29720500D01*
X32868526Y-29720500D01*
X32868526Y-29720499D01*
X33000905Y-29685028D01*
X33119594Y-29616503D01*
X33216503Y-29519594D01*
X33285028Y-29400905D01*
X33320500Y-29268525D01*
X33320500Y-29131475D01*
X33285028Y-28999095D01*
X33216503Y-28880406D01*
X33119594Y-28783497D01*
X33112671Y-28779500D01*
X33000908Y-28714973D01*
X33000904Y-28714971D01*
X32868527Y-28679500D01*
X32868525Y-28679500D01*
X32731475Y-28679500D01*
X32731472Y-28679500D01*
X32599095Y-28714971D01*
X32599091Y-28714973D01*
X32480408Y-28783495D01*
X32383495Y-28880408D01*
X32314973Y-28999091D01*
X32314971Y-28999095D01*
X32279500Y-29131472D01*
X30520500Y-29131472D01*
X30520500Y-24750182D01*
X30520501Y-24750169D01*
X30520501Y-24657807D01*
X30520501Y-24657806D01*
X30498660Y-24576292D01*
X30472784Y-24531475D01*
X30456464Y-24503208D01*
X30396792Y-24443536D01*
X30396789Y-24443534D01*
X29989037Y-24035782D01*
X29961260Y-23981265D01*
X29970831Y-23920833D01*
X30009538Y-23880043D01*
X30119594Y-23816503D01*
X30216503Y-23719594D01*
X30285028Y-23600905D01*
X30320500Y-23468525D01*
X30320500Y-23331475D01*
X30285028Y-23199095D01*
X30270819Y-23174485D01*
X30270819Y-23174483D01*
X30245986Y-23131472D01*
X32279500Y-23131472D01*
X32279500Y-23268527D01*
X32314971Y-23400904D01*
X32314973Y-23400908D01*
X32383495Y-23519591D01*
X32383497Y-23519594D01*
X32450505Y-23586602D01*
X32478281Y-23641117D01*
X32479500Y-23656604D01*
X32479500Y-24143395D01*
X32460593Y-24201586D01*
X32450504Y-24213398D01*
X32383496Y-24280406D01*
X32314973Y-24399091D01*
X32314971Y-24399095D01*
X32279500Y-24531472D01*
X32279500Y-24668527D01*
X32314971Y-24800904D01*
X32314973Y-24800908D01*
X32373119Y-24901619D01*
X32383497Y-24919594D01*
X32480406Y-25016503D01*
X32480408Y-25016504D01*
X32599091Y-25085026D01*
X32599095Y-25085028D01*
X32731472Y-25120499D01*
X32731474Y-25120500D01*
X32731475Y-25120500D01*
X32868526Y-25120500D01*
X32868526Y-25120499D01*
X33000905Y-25085028D01*
X33119594Y-25016503D01*
X33216503Y-24919594D01*
X33285028Y-24800905D01*
X33320500Y-24668525D01*
X33320500Y-24531475D01*
X33320500Y-24531472D01*
X33285028Y-24399095D01*
X33285026Y-24399091D01*
X33216503Y-24280406D01*
X33149496Y-24213398D01*
X33121719Y-24158881D01*
X33120500Y-24143395D01*
X33120500Y-23656604D01*
X33139407Y-23598413D01*
X33149490Y-23586606D01*
X33216503Y-23519594D01*
X33285028Y-23400905D01*
X33320500Y-23268525D01*
X33320500Y-23131475D01*
X33285028Y-22999095D01*
X33276021Y-22983495D01*
X33216504Y-22880408D01*
X33216503Y-22880406D01*
X33119594Y-22783497D01*
X33119591Y-22783495D01*
X33000908Y-22714973D01*
X33000904Y-22714971D01*
X32868527Y-22679500D01*
X32868525Y-22679500D01*
X32731475Y-22679500D01*
X32731472Y-22679500D01*
X32599095Y-22714971D01*
X32599091Y-22714973D01*
X32480408Y-22783495D01*
X32383495Y-22880408D01*
X32314973Y-22999091D01*
X32314971Y-22999095D01*
X32279500Y-23131472D01*
X30245986Y-23131472D01*
X30216504Y-23080408D01*
X30216503Y-23080406D01*
X30119594Y-22983497D01*
X30119591Y-22983495D01*
X30000908Y-22914973D01*
X30000904Y-22914971D01*
X29868527Y-22879500D01*
X29868525Y-22879500D01*
X29731475Y-22879500D01*
X29731472Y-22879500D01*
X29599095Y-22914971D01*
X29599091Y-22914973D01*
X29480408Y-22983495D01*
X29480406Y-22983496D01*
X29480406Y-22983497D01*
X29420001Y-23043901D01*
X29365487Y-23071677D01*
X29305055Y-23062106D01*
X29279999Y-23043902D01*
X29219594Y-22983497D01*
X29219591Y-22983495D01*
X29100908Y-22914973D01*
X29100904Y-22914971D01*
X28968527Y-22879500D01*
X28968525Y-22879500D01*
X28831475Y-22879500D01*
X28831472Y-22879500D01*
X28699095Y-22914971D01*
X28699091Y-22914973D01*
X28580408Y-22983495D01*
X28483495Y-23080408D01*
X28414973Y-23199091D01*
X28414971Y-23199095D01*
X28379500Y-23331472D01*
X23796856Y-23331472D01*
X24697823Y-22448782D01*
X24752622Y-22421565D01*
X24767106Y-22420500D01*
X24868526Y-22420500D01*
X24868526Y-22420499D01*
X25000905Y-22385028D01*
X25119594Y-22316503D01*
X25216503Y-22219594D01*
X25285028Y-22100905D01*
X25320500Y-21968525D01*
X25320500Y-21831475D01*
X25285028Y-21699095D01*
X25216503Y-21580406D01*
X25119594Y-21483497D01*
X25119591Y-21483495D01*
X25000908Y-21414973D01*
X25000904Y-21414971D01*
X24868527Y-21379500D01*
X24868525Y-21379500D01*
X24731475Y-21379500D01*
X24731472Y-21379500D01*
X24599095Y-21414971D01*
X24599091Y-21414973D01*
X24480408Y-21483495D01*
X24383495Y-21580408D01*
X24314973Y-21699091D01*
X24314971Y-21699095D01*
X24279500Y-21831472D01*
X24279500Y-21919656D01*
X24260593Y-21977847D01*
X24249783Y-21990373D01*
X20588783Y-25577098D01*
X20533984Y-25604316D01*
X20473653Y-25594125D01*
X20430834Y-25550420D01*
X20420500Y-25506381D01*
X20420500Y-25431474D01*
X20420499Y-25431472D01*
X20412092Y-25400099D01*
X20385028Y-25299095D01*
X20316503Y-25180406D01*
X20219594Y-25083497D01*
X20219591Y-25083495D01*
X20100908Y-25014973D01*
X20100904Y-25014971D01*
X19968527Y-24979500D01*
X19968525Y-24979500D01*
X19831475Y-24979500D01*
X19831472Y-24979500D01*
X19699095Y-25014971D01*
X19699091Y-25014973D01*
X19580408Y-25083495D01*
X19483495Y-25180408D01*
X19414973Y-25299091D01*
X19414971Y-25299095D01*
X19379500Y-25431472D01*
X19379500Y-25568527D01*
X19414971Y-25700904D01*
X19414973Y-25700908D01*
X19483495Y-25819591D01*
X19483497Y-25819594D01*
X19580406Y-25916503D01*
X19580408Y-25916504D01*
X19699091Y-25985026D01*
X19699095Y-25985028D01*
X19831472Y-26020499D01*
X19831474Y-26020500D01*
X19893685Y-26020500D01*
X19951876Y-26039407D01*
X19987840Y-26088907D01*
X19987840Y-26150093D01*
X19962968Y-26190217D01*
X17639453Y-28466591D01*
X17639452Y-28466592D01*
X17633149Y-28472766D01*
X17630759Y-28474169D01*
X17603085Y-28502219D01*
X17602463Y-28502830D01*
X17574849Y-28529884D01*
X17574674Y-28530109D01*
X17567241Y-28538555D01*
X7535778Y-38707361D01*
X7481451Y-38735509D01*
X7420956Y-38726348D01*
X7415799Y-38723571D01*
X7400904Y-38714971D01*
X7268527Y-38679500D01*
X7268525Y-38679500D01*
X7131475Y-38679500D01*
X7131472Y-38679500D01*
X6999095Y-38714971D01*
X6999091Y-38714973D01*
X6880408Y-38783495D01*
X6783495Y-38880408D01*
X6714973Y-38999091D01*
X6714971Y-38999095D01*
X6679500Y-39131472D01*
X500500Y-39131472D01*
X500500Y-34631472D01*
X3979500Y-34631472D01*
X3979500Y-34768527D01*
X4014971Y-34900904D01*
X4014973Y-34900908D01*
X4080828Y-35014971D01*
X4083497Y-35019594D01*
X4150505Y-35086602D01*
X4178281Y-35141117D01*
X4179500Y-35156604D01*
X4179500Y-35443395D01*
X4160593Y-35501586D01*
X4150504Y-35513398D01*
X4083496Y-35580406D01*
X4014973Y-35699091D01*
X4014971Y-35699095D01*
X3979500Y-35831472D01*
X3979500Y-35968527D01*
X4014971Y-36100904D01*
X4014973Y-36100908D01*
X4060873Y-36180408D01*
X4083497Y-36219594D01*
X4180406Y-36316503D01*
X4187329Y-36320500D01*
X4299091Y-36385026D01*
X4299095Y-36385028D01*
X4431472Y-36420499D01*
X4431474Y-36420500D01*
X4431475Y-36420500D01*
X4568526Y-36420500D01*
X4568526Y-36420499D01*
X4700905Y-36385028D01*
X4819594Y-36316503D01*
X4916503Y-36219594D01*
X4985028Y-36100905D01*
X5020500Y-35968525D01*
X5020500Y-35831475D01*
X4985028Y-35699095D01*
X4916503Y-35580406D01*
X4904622Y-35568525D01*
X4849496Y-35513398D01*
X4821719Y-35458881D01*
X4820500Y-35443395D01*
X4820500Y-35156604D01*
X4839407Y-35098413D01*
X4849490Y-35086606D01*
X4916503Y-35019594D01*
X4985028Y-34900905D01*
X5020500Y-34768525D01*
X5020500Y-34631475D01*
X4985028Y-34499095D01*
X4916503Y-34380406D01*
X4819594Y-34283497D01*
X4819591Y-34283495D01*
X4700908Y-34214973D01*
X4700904Y-34214971D01*
X4568527Y-34179500D01*
X4568525Y-34179500D01*
X4431475Y-34179500D01*
X4431472Y-34179500D01*
X4299095Y-34214971D01*
X4299091Y-34214973D01*
X4180408Y-34283495D01*
X4083495Y-34380408D01*
X4014973Y-34499091D01*
X4014971Y-34499095D01*
X3979500Y-34631472D01*
X500500Y-34631472D01*
X500500Y-29205002D01*
X4779500Y-29205002D01*
X4779500Y-30794997D01*
X4783421Y-30831475D01*
X4785525Y-30851040D01*
X4785526Y-30851042D01*
X4832805Y-30977804D01*
X4913882Y-31086112D01*
X4913887Y-31086117D01*
X4933642Y-31100905D01*
X5022195Y-31167194D01*
X5148960Y-31214475D01*
X5205000Y-31220500D01*
X5205003Y-31220500D01*
X6794997Y-31220500D01*
X6795000Y-31220500D01*
X6851040Y-31214475D01*
X6977805Y-31167194D01*
X7086115Y-31086115D01*
X7167194Y-30977805D01*
X7214475Y-30851040D01*
X7220500Y-30795000D01*
X7220500Y-29205000D01*
X7214475Y-29148960D01*
X7167194Y-29022195D01*
X7149899Y-28999091D01*
X7086117Y-28913887D01*
X7086112Y-28913882D01*
X6977804Y-28832805D01*
X6887591Y-28799158D01*
X6851040Y-28785525D01*
X6851036Y-28785524D01*
X6851034Y-28785524D01*
X6821676Y-28782368D01*
X6795000Y-28779500D01*
X5205000Y-28779500D01*
X5181977Y-28781975D01*
X5148965Y-28785524D01*
X5148961Y-28785524D01*
X5148960Y-28785525D01*
X5148957Y-28785525D01*
X5148957Y-28785526D01*
X5022195Y-28832805D01*
X4913887Y-28913882D01*
X4913882Y-28913887D01*
X4832805Y-29022195D01*
X4785526Y-29148957D01*
X4785524Y-29148965D01*
X4779500Y-29205002D01*
X500500Y-29205002D01*
X500500Y-24901619D01*
X4750000Y-24901619D01*
X4750000Y-25098380D01*
X4780778Y-25292710D01*
X4780779Y-25292714D01*
X4841576Y-25479826D01*
X4841578Y-25479829D01*
X4930907Y-25655148D01*
X4956319Y-25690125D01*
X5517036Y-25129407D01*
X5534075Y-25192993D01*
X5599901Y-25307007D01*
X5692993Y-25400099D01*
X5807007Y-25465925D01*
X5870590Y-25482962D01*
X5309874Y-26043678D01*
X5344860Y-26069097D01*
X5520170Y-26158421D01*
X5520173Y-26158423D01*
X5707285Y-26219220D01*
X5707289Y-26219221D01*
X5901620Y-26250000D01*
X6098380Y-26250000D01*
X6292710Y-26219221D01*
X6292714Y-26219220D01*
X6479826Y-26158423D01*
X6479829Y-26158421D01*
X6655142Y-26069096D01*
X6655148Y-26069092D01*
X6690125Y-26043679D01*
X6690125Y-26043678D01*
X6129409Y-25482962D01*
X6192993Y-25465925D01*
X6307007Y-25400099D01*
X6400099Y-25307007D01*
X6465925Y-25192993D01*
X6482962Y-25129409D01*
X7043678Y-25690125D01*
X7043679Y-25690125D01*
X7069092Y-25655148D01*
X7069096Y-25655142D01*
X7158421Y-25479829D01*
X7158423Y-25479826D01*
X7219220Y-25292714D01*
X7219221Y-25292710D01*
X7250000Y-25098380D01*
X7250000Y-24901619D01*
X7219221Y-24707289D01*
X7219220Y-24707285D01*
X7158423Y-24520173D01*
X7158421Y-24520170D01*
X7069097Y-24344860D01*
X7043678Y-24309874D01*
X6482962Y-24870590D01*
X6465925Y-24807007D01*
X6400099Y-24692993D01*
X6307007Y-24599901D01*
X6192993Y-24534075D01*
X6129407Y-24517036D01*
X6690125Y-23956319D01*
X6655148Y-23930907D01*
X6479829Y-23841578D01*
X6479826Y-23841576D01*
X6292714Y-23780779D01*
X6292710Y-23780778D01*
X6098380Y-23750000D01*
X5901620Y-23750000D01*
X5707289Y-23780778D01*
X5707285Y-23780779D01*
X5520173Y-23841576D01*
X5520170Y-23841578D01*
X5344856Y-23930904D01*
X5309873Y-23956319D01*
X5870591Y-24517037D01*
X5807007Y-24534075D01*
X5692993Y-24599901D01*
X5599901Y-24692993D01*
X5534075Y-24807007D01*
X5517037Y-24870591D01*
X4956319Y-24309873D01*
X4930904Y-24344856D01*
X4841578Y-24520170D01*
X4841576Y-24520173D01*
X4780779Y-24707285D01*
X4780778Y-24707289D01*
X4750000Y-24901619D01*
X500500Y-24901619D01*
X500500Y-22731472D01*
X12679500Y-22731472D01*
X12679500Y-22868527D01*
X12714971Y-23000904D01*
X12714973Y-23000908D01*
X12760873Y-23080408D01*
X12783497Y-23119594D01*
X12880406Y-23216503D01*
X12880408Y-23216504D01*
X12999091Y-23285026D01*
X12999095Y-23285028D01*
X13131472Y-23320499D01*
X13131474Y-23320500D01*
X13131475Y-23320500D01*
X13268526Y-23320500D01*
X13268526Y-23320499D01*
X13400905Y-23285028D01*
X13519594Y-23216503D01*
X13616503Y-23119594D01*
X13685028Y-23000905D01*
X13720500Y-22868525D01*
X13720500Y-22731475D01*
X13685028Y-22599095D01*
X13616503Y-22480406D01*
X13519594Y-22383497D01*
X13519591Y-22383495D01*
X13400908Y-22314973D01*
X13400904Y-22314971D01*
X13268527Y-22279500D01*
X13268525Y-22279500D01*
X13131475Y-22279500D01*
X13131472Y-22279500D01*
X12999095Y-22314971D01*
X12999091Y-22314973D01*
X12880408Y-22383495D01*
X12783495Y-22480408D01*
X12714973Y-22599091D01*
X12714971Y-22599095D01*
X12679500Y-22731472D01*
X500500Y-22731472D01*
X500500Y-18431472D01*
X22579500Y-18431472D01*
X22579500Y-18568527D01*
X22614971Y-18700904D01*
X22614973Y-18700908D01*
X22683495Y-18819591D01*
X22683497Y-18819594D01*
X22780406Y-18916503D01*
X22780408Y-18916504D01*
X22899091Y-18985026D01*
X22899095Y-18985028D01*
X23031472Y-19020499D01*
X23031474Y-19020500D01*
X23031475Y-19020500D01*
X23168526Y-19020500D01*
X23168526Y-19020499D01*
X23300905Y-18985028D01*
X23419594Y-18916503D01*
X23516503Y-18819594D01*
X23585028Y-18700905D01*
X23620500Y-18568525D01*
X23620500Y-18431475D01*
X23585028Y-18299095D01*
X23516503Y-18180406D01*
X23449496Y-18113398D01*
X23421719Y-18058881D01*
X23420500Y-18043395D01*
X23420500Y-17573762D01*
X23439407Y-17515571D01*
X23449490Y-17503764D01*
X28221781Y-12731472D01*
X45779500Y-12731472D01*
X45779500Y-12868527D01*
X45814971Y-13000904D01*
X45814973Y-13000908D01*
X45870149Y-13096475D01*
X45883497Y-13119594D01*
X45980406Y-13216503D01*
X45980408Y-13216504D01*
X46099091Y-13285026D01*
X46099095Y-13285028D01*
X46231472Y-13320499D01*
X46231474Y-13320500D01*
X46231475Y-13320500D01*
X46368526Y-13320500D01*
X46368526Y-13320499D01*
X46500905Y-13285028D01*
X46619594Y-13216503D01*
X46636602Y-13199494D01*
X46691117Y-13171719D01*
X46706604Y-13170500D01*
X50448777Y-13170500D01*
X50448778Y-13170500D01*
X50507561Y-13154749D01*
X50543008Y-13145251D01*
X50587447Y-13119594D01*
X50627493Y-13096474D01*
X51997500Y-11726464D01*
X52041877Y-11700844D01*
X52100905Y-11685028D01*
X52219594Y-11616503D01*
X52316503Y-11519594D01*
X52385028Y-11400905D01*
X52420500Y-11268525D01*
X52420500Y-11131475D01*
X52385028Y-10999095D01*
X52376559Y-10984427D01*
X52335729Y-10913706D01*
X52316503Y-10880406D01*
X52219594Y-10783497D01*
X52219591Y-10783495D01*
X52100908Y-10714973D01*
X52100904Y-10714971D01*
X51968527Y-10679500D01*
X51968525Y-10679500D01*
X51831475Y-10679500D01*
X51831472Y-10679500D01*
X51699095Y-10714971D01*
X51699091Y-10714973D01*
X51580408Y-10783495D01*
X51483495Y-10880408D01*
X51414973Y-10999091D01*
X51414971Y-10999095D01*
X51379500Y-11131472D01*
X51379500Y-11255525D01*
X51360593Y-11313716D01*
X51350504Y-11325529D01*
X50275529Y-12400504D01*
X50221012Y-12428281D01*
X50205525Y-12429500D01*
X46706604Y-12429500D01*
X46648413Y-12410593D01*
X46636606Y-12400509D01*
X46619594Y-12383497D01*
X46619591Y-12383495D01*
X46500908Y-12314973D01*
X46500904Y-12314971D01*
X46368527Y-12279500D01*
X46368525Y-12279500D01*
X46231475Y-12279500D01*
X46231472Y-12279500D01*
X46099095Y-12314971D01*
X46099091Y-12314973D01*
X45980408Y-12383495D01*
X45883495Y-12480408D01*
X45814973Y-12599091D01*
X45814971Y-12599095D01*
X45779500Y-12731472D01*
X28221781Y-12731472D01*
X29064219Y-11889034D01*
X29118734Y-11861259D01*
X29179166Y-11870830D01*
X29219957Y-11909540D01*
X29283495Y-12019591D01*
X29283497Y-12019594D01*
X29380406Y-12116503D01*
X29380408Y-12116504D01*
X29499091Y-12185026D01*
X29499095Y-12185028D01*
X29631472Y-12220499D01*
X29631474Y-12220500D01*
X29631475Y-12220500D01*
X29768526Y-12220500D01*
X29768526Y-12220499D01*
X29900905Y-12185028D01*
X30019594Y-12116503D01*
X30116503Y-12019594D01*
X30185028Y-11900905D01*
X30220500Y-11768525D01*
X30220500Y-11631475D01*
X30185028Y-11499095D01*
X30167378Y-11468525D01*
X30128338Y-11400905D01*
X30116503Y-11380406D01*
X30047957Y-11311860D01*
X30020182Y-11257346D01*
X30029753Y-11196914D01*
X30032216Y-11192377D01*
X30085028Y-11100905D01*
X30120500Y-10968525D01*
X30120500Y-10831475D01*
X30085028Y-10699095D01*
X30016503Y-10580406D01*
X29919594Y-10483497D01*
X29919591Y-10483495D01*
X29800910Y-10414974D01*
X29800907Y-10414973D01*
X29800905Y-10414972D01*
X29728704Y-10395625D01*
X29677393Y-10362302D01*
X29655467Y-10305181D01*
X29671303Y-10246080D01*
X29718853Y-10207575D01*
X29728691Y-10204378D01*
X29800905Y-10185028D01*
X29919594Y-10116503D01*
X30016503Y-10019594D01*
X30085028Y-9900905D01*
X30120500Y-9768525D01*
X30120500Y-9631475D01*
X30085028Y-9499095D01*
X30016503Y-9380406D01*
X29919594Y-9283497D01*
X29919591Y-9283495D01*
X29800908Y-9214973D01*
X29800904Y-9214971D01*
X29668527Y-9179500D01*
X29668525Y-9179500D01*
X29531475Y-9179500D01*
X29531472Y-9179500D01*
X29399095Y-9214971D01*
X29399091Y-9214973D01*
X29280408Y-9283495D01*
X29183495Y-9380408D01*
X29114973Y-9499091D01*
X29114971Y-9499095D01*
X29079500Y-9631472D01*
X29079500Y-9768527D01*
X29114971Y-9900904D01*
X29114973Y-9900908D01*
X29162655Y-9983495D01*
X29183497Y-10019594D01*
X29280406Y-10116503D01*
X29280408Y-10116504D01*
X29399091Y-10185026D01*
X29399095Y-10185028D01*
X29471292Y-10204374D01*
X29522606Y-10237698D01*
X29544532Y-10294819D01*
X29528696Y-10353920D01*
X29481146Y-10392425D01*
X29471292Y-10395626D01*
X29399095Y-10414971D01*
X29399091Y-10414973D01*
X29280408Y-10483495D01*
X29183495Y-10580408D01*
X29114973Y-10699091D01*
X29114971Y-10699095D01*
X29079500Y-10831472D01*
X29079500Y-10926236D01*
X29060593Y-10984427D01*
X29050504Y-10996240D01*
X22903208Y-17143536D01*
X22903207Y-17143535D01*
X22843536Y-17203207D01*
X22843534Y-17203209D01*
X22801342Y-17276287D01*
X22779500Y-17357806D01*
X22779500Y-18043395D01*
X22760593Y-18101586D01*
X22750504Y-18113398D01*
X22683496Y-18180406D01*
X22614973Y-18299091D01*
X22614971Y-18299095D01*
X22579500Y-18431472D01*
X500500Y-18431472D01*
X500500Y-16931472D01*
X5079500Y-16931472D01*
X5079500Y-17068527D01*
X5114971Y-17200904D01*
X5114973Y-17200908D01*
X5158496Y-17276291D01*
X5183497Y-17319594D01*
X5280406Y-17416503D01*
X5280408Y-17416504D01*
X5399091Y-17485026D01*
X5399095Y-17485028D01*
X5531472Y-17520499D01*
X5531474Y-17520500D01*
X5531475Y-17520500D01*
X5668526Y-17520500D01*
X5668526Y-17520499D01*
X5800905Y-17485028D01*
X5919594Y-17416503D01*
X6016503Y-17319594D01*
X6085028Y-17200905D01*
X6120500Y-17068525D01*
X6120500Y-16931475D01*
X6120500Y-16924986D01*
X6122002Y-16924986D01*
X6131777Y-16872257D01*
X6176161Y-16830142D01*
X6218778Y-16820500D01*
X6742193Y-16820500D01*
X6742194Y-16820500D01*
X6742195Y-16820500D01*
X6823709Y-16798659D01*
X6896792Y-16756464D01*
X6956464Y-16696792D01*
X6956465Y-16696789D01*
X9003759Y-14649496D01*
X9058276Y-14621719D01*
X9073763Y-14620500D01*
X9168526Y-14620500D01*
X9168526Y-14620499D01*
X9300905Y-14585028D01*
X9419594Y-14516503D01*
X9516503Y-14419594D01*
X9585028Y-14300905D01*
X9620500Y-14168525D01*
X9620500Y-14031475D01*
X9585028Y-13899095D01*
X9567378Y-13868525D01*
X9516505Y-13780409D01*
X9516504Y-13780408D01*
X9516503Y-13780406D01*
X9467569Y-13731472D01*
X19479500Y-13731472D01*
X19479500Y-13868527D01*
X19514971Y-14000904D01*
X19514973Y-14000908D01*
X19583495Y-14119591D01*
X19583497Y-14119594D01*
X19680406Y-14216503D01*
X19680408Y-14216504D01*
X19799091Y-14285026D01*
X19799095Y-14285028D01*
X19931472Y-14320499D01*
X19931474Y-14320500D01*
X19931475Y-14320500D01*
X20068526Y-14320500D01*
X20068526Y-14320499D01*
X20200905Y-14285028D01*
X20319594Y-14216503D01*
X20416503Y-14119594D01*
X20485028Y-14000905D01*
X20520500Y-13868525D01*
X20520500Y-13731475D01*
X20485028Y-13599095D01*
X20467378Y-13568525D01*
X20416504Y-13480408D01*
X20416503Y-13480406D01*
X20319594Y-13383497D01*
X20319591Y-13383495D01*
X20200908Y-13314973D01*
X20200904Y-13314971D01*
X20068527Y-13279500D01*
X20068525Y-13279500D01*
X19931475Y-13279500D01*
X19931472Y-13279500D01*
X19799095Y-13314971D01*
X19799091Y-13314973D01*
X19680408Y-13383495D01*
X19583495Y-13480408D01*
X19514973Y-13599091D01*
X19514971Y-13599095D01*
X19479500Y-13731472D01*
X9467569Y-13731472D01*
X9419594Y-13683497D01*
X9419591Y-13683495D01*
X9300908Y-13614973D01*
X9300904Y-13614971D01*
X9168527Y-13579500D01*
X9168525Y-13579500D01*
X9031475Y-13579500D01*
X9031472Y-13579500D01*
X8899095Y-13614971D01*
X8899091Y-13614973D01*
X8780408Y-13683495D01*
X8683495Y-13780408D01*
X8614973Y-13899091D01*
X8614971Y-13899095D01*
X8579500Y-14031472D01*
X8579500Y-14126237D01*
X8560593Y-14184428D01*
X8550504Y-14196241D01*
X6596241Y-16150504D01*
X6541724Y-16178281D01*
X6526237Y-16179500D01*
X6042194Y-16179500D01*
X5957805Y-16179500D01*
X5885914Y-16198762D01*
X5876287Y-16201342D01*
X5803206Y-16243536D01*
X5596242Y-16450503D01*
X5541725Y-16478281D01*
X5537898Y-16478582D01*
X5537908Y-16478653D01*
X5531472Y-16479500D01*
X5399095Y-16514971D01*
X5399091Y-16514973D01*
X5280408Y-16583495D01*
X5183495Y-16680408D01*
X5114973Y-16799091D01*
X5114971Y-16799095D01*
X5079500Y-16931472D01*
X500500Y-16931472D01*
X500500Y-13431472D01*
X6179500Y-13431472D01*
X6179500Y-13568527D01*
X6214971Y-13700904D01*
X6214973Y-13700908D01*
X6283495Y-13819591D01*
X6283497Y-13819594D01*
X6380406Y-13916503D01*
X6380408Y-13916504D01*
X6499091Y-13985026D01*
X6499095Y-13985028D01*
X6631472Y-14020499D01*
X6631474Y-14020500D01*
X6631475Y-14020500D01*
X6768526Y-14020500D01*
X6768526Y-14020499D01*
X6900905Y-13985028D01*
X7019594Y-13916503D01*
X7116503Y-13819594D01*
X7185028Y-13700905D01*
X7220500Y-13568525D01*
X7220500Y-13431475D01*
X7185028Y-13299095D01*
X7176906Y-13285028D01*
X7116504Y-13180408D01*
X7116503Y-13180406D01*
X7019594Y-13083497D01*
X7019591Y-13083495D01*
X6900908Y-13014973D01*
X6900904Y-13014971D01*
X6768527Y-12979500D01*
X6768525Y-12979500D01*
X6631475Y-12979500D01*
X6631472Y-12979500D01*
X6499095Y-13014971D01*
X6499091Y-13014973D01*
X6380408Y-13083495D01*
X6283495Y-13180408D01*
X6214973Y-13299091D01*
X6214971Y-13299095D01*
X6179500Y-13431472D01*
X500500Y-13431472D01*
X500500Y-12331472D01*
X5079500Y-12331472D01*
X5079500Y-12468527D01*
X5114971Y-12600904D01*
X5114973Y-12600908D01*
X5146193Y-12654982D01*
X5183497Y-12719594D01*
X5280406Y-12816503D01*
X5280408Y-12816504D01*
X5399091Y-12885026D01*
X5399095Y-12885028D01*
X5531472Y-12920499D01*
X5531474Y-12920500D01*
X5531475Y-12920500D01*
X5668526Y-12920500D01*
X5668526Y-12920499D01*
X5800905Y-12885028D01*
X5919594Y-12816503D01*
X6016503Y-12719594D01*
X6085028Y-12600905D01*
X6120500Y-12468525D01*
X6120500Y-12331475D01*
X6085028Y-12199095D01*
X6076906Y-12185028D01*
X6016503Y-12080406D01*
X5949496Y-12013398D01*
X5945870Y-12006281D01*
X5939407Y-12001586D01*
X5932242Y-11979534D01*
X5921719Y-11958881D01*
X5920500Y-11943395D01*
X5920500Y-11931472D01*
X19479500Y-11931472D01*
X19479500Y-12068527D01*
X19514971Y-12200904D01*
X19514973Y-12200908D01*
X19580828Y-12314971D01*
X19583497Y-12319594D01*
X19680406Y-12416503D01*
X19680408Y-12416504D01*
X19799091Y-12485026D01*
X19799095Y-12485028D01*
X19931472Y-12520499D01*
X19931474Y-12520500D01*
X19931475Y-12520500D01*
X20068526Y-12520500D01*
X20068526Y-12520499D01*
X20200905Y-12485028D01*
X20319594Y-12416503D01*
X20416503Y-12319594D01*
X20485028Y-12200905D01*
X20520500Y-12068525D01*
X20520500Y-11931475D01*
X20520499Y-11931472D01*
X22579500Y-11931472D01*
X22579500Y-12068527D01*
X22614971Y-12200904D01*
X22614973Y-12200908D01*
X22680828Y-12314971D01*
X22683497Y-12319594D01*
X22780406Y-12416503D01*
X22780408Y-12416504D01*
X22899091Y-12485026D01*
X22899095Y-12485028D01*
X23031472Y-12520499D01*
X23031474Y-12520500D01*
X23031475Y-12520500D01*
X23168526Y-12520500D01*
X23168526Y-12520499D01*
X23300905Y-12485028D01*
X23419594Y-12416503D01*
X23516503Y-12319594D01*
X23585028Y-12200905D01*
X23620500Y-12068525D01*
X23620500Y-11931475D01*
X23585028Y-11799095D01*
X23569759Y-11772649D01*
X23528302Y-11700843D01*
X23516503Y-11680406D01*
X23419594Y-11583497D01*
X23419591Y-11583495D01*
X23300908Y-11514973D01*
X23300904Y-11514971D01*
X23168527Y-11479500D01*
X23168525Y-11479500D01*
X23031475Y-11479500D01*
X23031472Y-11479500D01*
X22899095Y-11514971D01*
X22899091Y-11514973D01*
X22780408Y-11583495D01*
X22683495Y-11680408D01*
X22614973Y-11799091D01*
X22614971Y-11799095D01*
X22579500Y-11931472D01*
X20520499Y-11931472D01*
X20485028Y-11799095D01*
X20469759Y-11772649D01*
X20428302Y-11700843D01*
X20416503Y-11680406D01*
X20319594Y-11583497D01*
X20319591Y-11583495D01*
X20200908Y-11514973D01*
X20200904Y-11514971D01*
X20068527Y-11479500D01*
X20068525Y-11479500D01*
X19931475Y-11479500D01*
X19931472Y-11479500D01*
X19799095Y-11514971D01*
X19799091Y-11514973D01*
X19680408Y-11583495D01*
X19583495Y-11680408D01*
X19514973Y-11799091D01*
X19514971Y-11799095D01*
X19479500Y-11931472D01*
X5920500Y-11931472D01*
X5920500Y-11331472D01*
X23979500Y-11331472D01*
X23979500Y-11468527D01*
X24014971Y-11600904D01*
X24014973Y-11600908D01*
X24083495Y-11719591D01*
X24083497Y-11719594D01*
X24180406Y-11816503D01*
X24180408Y-11816504D01*
X24299091Y-11885026D01*
X24299095Y-11885028D01*
X24431472Y-11920499D01*
X24431474Y-11920500D01*
X24431475Y-11920500D01*
X24568526Y-11920500D01*
X24568526Y-11920499D01*
X24700905Y-11885028D01*
X24819594Y-11816503D01*
X24916503Y-11719594D01*
X24985028Y-11600905D01*
X25020500Y-11468525D01*
X25020500Y-11331475D01*
X24985028Y-11199095D01*
X24981138Y-11192358D01*
X24928338Y-11100905D01*
X24916503Y-11080406D01*
X24819594Y-10983497D01*
X24819591Y-10983495D01*
X24700908Y-10914973D01*
X24700904Y-10914971D01*
X24568527Y-10879500D01*
X24568525Y-10879500D01*
X24431475Y-10879500D01*
X24431472Y-10879500D01*
X24299095Y-10914971D01*
X24299091Y-10914973D01*
X24180408Y-10983495D01*
X24083495Y-11080408D01*
X24014973Y-11199091D01*
X24014971Y-11199095D01*
X23979500Y-11331472D01*
X5920500Y-11331472D01*
X5920500Y-11009333D01*
X5939407Y-10951142D01*
X5988907Y-10915178D01*
X5993849Y-10913714D01*
X6100905Y-10885028D01*
X6100907Y-10885026D01*
X6100909Y-10885026D01*
X6136167Y-10864669D01*
X6219594Y-10816503D01*
X6316503Y-10719594D01*
X6385028Y-10600905D01*
X6420500Y-10468525D01*
X6420500Y-10331475D01*
X6385028Y-10199095D01*
X6376906Y-10185028D01*
X6316505Y-10080409D01*
X6316504Y-10080408D01*
X6316503Y-10080406D01*
X6267569Y-10031472D01*
X23479500Y-10031472D01*
X23479500Y-10168527D01*
X23514971Y-10300904D01*
X23514973Y-10300908D01*
X23583495Y-10419591D01*
X23583497Y-10419594D01*
X23680406Y-10516503D01*
X23680408Y-10516504D01*
X23799091Y-10585026D01*
X23799095Y-10585028D01*
X23931472Y-10620499D01*
X23931474Y-10620500D01*
X23931475Y-10620500D01*
X24068526Y-10620500D01*
X24068526Y-10620499D01*
X24200905Y-10585028D01*
X24319594Y-10516503D01*
X24416503Y-10419594D01*
X24485028Y-10300905D01*
X24520500Y-10168525D01*
X24520500Y-10031475D01*
X24485028Y-9899095D01*
X24416503Y-9780406D01*
X24319594Y-9683497D01*
X24319591Y-9683495D01*
X24200908Y-9614973D01*
X24200904Y-9614971D01*
X24068527Y-9579500D01*
X24068525Y-9579500D01*
X23931475Y-9579500D01*
X23931472Y-9579500D01*
X23799095Y-9614971D01*
X23799091Y-9614973D01*
X23680408Y-9683495D01*
X23583495Y-9780408D01*
X23514973Y-9899091D01*
X23514971Y-9899095D01*
X23479500Y-10031472D01*
X6267569Y-10031472D01*
X6219594Y-9983497D01*
X6219591Y-9983495D01*
X6100908Y-9914973D01*
X6100904Y-9914971D01*
X5968527Y-9879500D01*
X5968525Y-9879500D01*
X5831475Y-9879500D01*
X5831472Y-9879500D01*
X5699095Y-9914971D01*
X5699091Y-9914973D01*
X5580408Y-9983495D01*
X5483495Y-10080408D01*
X5414973Y-10199091D01*
X5414971Y-10199095D01*
X5379500Y-10331472D01*
X5379500Y-10426236D01*
X5360593Y-10484427D01*
X5350507Y-10496237D01*
X5343534Y-10503209D01*
X5301342Y-10576287D01*
X5279500Y-10657806D01*
X5279500Y-11943395D01*
X5260593Y-12001586D01*
X5250504Y-12013398D01*
X5183496Y-12080406D01*
X5114973Y-12199091D01*
X5114971Y-12199095D01*
X5079500Y-12331472D01*
X500500Y-12331472D01*
X500500Y-8631472D01*
X2379500Y-8631472D01*
X2379500Y-8768527D01*
X2414971Y-8900904D01*
X2414973Y-8900908D01*
X2483495Y-9019591D01*
X2483497Y-9019594D01*
X2580406Y-9116503D01*
X2580408Y-9116504D01*
X2699091Y-9185026D01*
X2699095Y-9185028D01*
X2831472Y-9220499D01*
X2831474Y-9220500D01*
X2831475Y-9220500D01*
X2968526Y-9220500D01*
X2968526Y-9220499D01*
X3100905Y-9185028D01*
X3219594Y-9116503D01*
X3316503Y-9019594D01*
X3385028Y-8900905D01*
X3420500Y-8768525D01*
X3420500Y-8631475D01*
X3385028Y-8499095D01*
X3316503Y-8380406D01*
X3219594Y-8283497D01*
X3219591Y-8283495D01*
X3129485Y-8231472D01*
X29979500Y-8231472D01*
X29979500Y-8368527D01*
X30014971Y-8500904D01*
X30014973Y-8500908D01*
X30083495Y-8619591D01*
X30083497Y-8619594D01*
X30180406Y-8716503D01*
X30180408Y-8716504D01*
X30299091Y-8785026D01*
X30299095Y-8785028D01*
X30431472Y-8820499D01*
X30431474Y-8820500D01*
X30431475Y-8820500D01*
X30568526Y-8820500D01*
X30568526Y-8820499D01*
X30700905Y-8785028D01*
X30819594Y-8716503D01*
X30916503Y-8619594D01*
X30985028Y-8500905D01*
X31020500Y-8368525D01*
X31020500Y-8231475D01*
X30985028Y-8099095D01*
X30976906Y-8085028D01*
X30916504Y-7980408D01*
X30916503Y-7980406D01*
X30819594Y-7883497D01*
X30819591Y-7883495D01*
X30700908Y-7814973D01*
X30700904Y-7814971D01*
X30568527Y-7779500D01*
X30568525Y-7779500D01*
X30431475Y-7779500D01*
X30431472Y-7779500D01*
X30299095Y-7814971D01*
X30299091Y-7814973D01*
X30180408Y-7883495D01*
X30083495Y-7980408D01*
X30014973Y-8099091D01*
X30014971Y-8099095D01*
X29979500Y-8231472D01*
X3129485Y-8231472D01*
X3100908Y-8214973D01*
X3100904Y-8214971D01*
X2968527Y-8179500D01*
X2968525Y-8179500D01*
X2831475Y-8179500D01*
X2831472Y-8179500D01*
X2699095Y-8214971D01*
X2699091Y-8214973D01*
X2580408Y-8283495D01*
X2483495Y-8380408D01*
X2414973Y-8499091D01*
X2414971Y-8499095D01*
X2379500Y-8631472D01*
X500500Y-8631472D01*
X500500Y-7231472D01*
X22579500Y-7231472D01*
X22579500Y-7368527D01*
X22614971Y-7500904D01*
X22614973Y-7500908D01*
X22683495Y-7619591D01*
X22683497Y-7619594D01*
X22780406Y-7716503D01*
X22780408Y-7716504D01*
X22899091Y-7785026D01*
X22899095Y-7785028D01*
X23031472Y-7820499D01*
X23031474Y-7820500D01*
X23031475Y-7820500D01*
X23168526Y-7820500D01*
X23168526Y-7820499D01*
X23300905Y-7785028D01*
X23419594Y-7716503D01*
X23516503Y-7619594D01*
X23585028Y-7500905D01*
X23620500Y-7368525D01*
X23620500Y-7231475D01*
X23585028Y-7099095D01*
X23516503Y-6980406D01*
X23419594Y-6883497D01*
X23419591Y-6883495D01*
X23300908Y-6814973D01*
X23300904Y-6814971D01*
X23168527Y-6779500D01*
X23168525Y-6779500D01*
X23031475Y-6779500D01*
X23031472Y-6779500D01*
X22899095Y-6814971D01*
X22899091Y-6814973D01*
X22780408Y-6883495D01*
X22683495Y-6980408D01*
X22614973Y-7099091D01*
X22614971Y-7099095D01*
X22579500Y-7231472D01*
X500500Y-7231472D01*
X500500Y-6031472D01*
X2379500Y-6031472D01*
X2379500Y-6168527D01*
X2414971Y-6300904D01*
X2414973Y-6300908D01*
X2483495Y-6419591D01*
X2483497Y-6419594D01*
X2580406Y-6516503D01*
X2580408Y-6516504D01*
X2699091Y-6585026D01*
X2699095Y-6585028D01*
X2831472Y-6620499D01*
X2831474Y-6620500D01*
X2831475Y-6620500D01*
X2968526Y-6620500D01*
X2968526Y-6620499D01*
X3100905Y-6585028D01*
X3219594Y-6516503D01*
X3316503Y-6419594D01*
X3367380Y-6331472D01*
X25979500Y-6331472D01*
X25979500Y-6468527D01*
X26014971Y-6600904D01*
X26014973Y-6600908D01*
X26026285Y-6620500D01*
X26083497Y-6719594D01*
X26180406Y-6816503D01*
X26180408Y-6816504D01*
X26299091Y-6885026D01*
X26299095Y-6885028D01*
X26371292Y-6904374D01*
X26422606Y-6937698D01*
X26444532Y-6994819D01*
X26428696Y-7053920D01*
X26381146Y-7092425D01*
X26371292Y-7095626D01*
X26299095Y-7114971D01*
X26299091Y-7114973D01*
X26180408Y-7183495D01*
X26083495Y-7280408D01*
X26014973Y-7399091D01*
X26014971Y-7399095D01*
X25979500Y-7531472D01*
X25979500Y-7668527D01*
X26014971Y-7800904D01*
X26014973Y-7800908D01*
X26026285Y-7820500D01*
X26083497Y-7919594D01*
X26180406Y-8016503D01*
X26180408Y-8016504D01*
X26299091Y-8085026D01*
X26299095Y-8085028D01*
X26431472Y-8120499D01*
X26431474Y-8120500D01*
X26431475Y-8120500D01*
X26568526Y-8120500D01*
X26568526Y-8120499D01*
X26700905Y-8085028D01*
X26819594Y-8016503D01*
X26916503Y-7919594D01*
X26985028Y-7800905D01*
X27020500Y-7668525D01*
X27020500Y-7531475D01*
X26985028Y-7399095D01*
X26967378Y-7368525D01*
X26916504Y-7280408D01*
X26916503Y-7280406D01*
X26819594Y-7183497D01*
X26819591Y-7183495D01*
X26700910Y-7114974D01*
X26700907Y-7114973D01*
X26700905Y-7114972D01*
X26628704Y-7095625D01*
X26577393Y-7062302D01*
X26555467Y-7005181D01*
X26571303Y-6946080D01*
X26618853Y-6907575D01*
X26628691Y-6904378D01*
X26700905Y-6885028D01*
X26819594Y-6816503D01*
X26916503Y-6719594D01*
X26985028Y-6600905D01*
X27020500Y-6468525D01*
X27020500Y-6331475D01*
X27020499Y-6331472D01*
X29079500Y-6331472D01*
X29079500Y-6468527D01*
X29114971Y-6600904D01*
X29114973Y-6600908D01*
X29126285Y-6620500D01*
X29183497Y-6719594D01*
X29280406Y-6816503D01*
X29280408Y-6816504D01*
X29399091Y-6885026D01*
X29399095Y-6885028D01*
X29531472Y-6920499D01*
X29531474Y-6920500D01*
X29531475Y-6920500D01*
X29668526Y-6920500D01*
X29668526Y-6920499D01*
X29800905Y-6885028D01*
X29919594Y-6816503D01*
X30016503Y-6719594D01*
X30085028Y-6600905D01*
X30120500Y-6468525D01*
X30120500Y-6331475D01*
X30085028Y-6199095D01*
X30067378Y-6168525D01*
X30016504Y-6080408D01*
X30016503Y-6080406D01*
X29919594Y-5983497D01*
X29919591Y-5983495D01*
X29800908Y-5914973D01*
X29800904Y-5914971D01*
X29668527Y-5879500D01*
X29668525Y-5879500D01*
X29531475Y-5879500D01*
X29531472Y-5879500D01*
X29399095Y-5914971D01*
X29399091Y-5914973D01*
X29280408Y-5983495D01*
X29183495Y-6080408D01*
X29114973Y-6199091D01*
X29114971Y-6199095D01*
X29079500Y-6331472D01*
X27020499Y-6331472D01*
X26985028Y-6199095D01*
X26967378Y-6168525D01*
X26916504Y-6080408D01*
X26916503Y-6080406D01*
X26819594Y-5983497D01*
X26819591Y-5983495D01*
X26700908Y-5914973D01*
X26700904Y-5914971D01*
X26568527Y-5879500D01*
X26568525Y-5879500D01*
X26431475Y-5879500D01*
X26431472Y-5879500D01*
X26299095Y-5914971D01*
X26299091Y-5914973D01*
X26180408Y-5983495D01*
X26083495Y-6080408D01*
X26014973Y-6199091D01*
X26014971Y-6199095D01*
X25979500Y-6331472D01*
X3367380Y-6331472D01*
X3385028Y-6300905D01*
X3420500Y-6168525D01*
X3420500Y-6031475D01*
X3385028Y-5899095D01*
X3316503Y-5780406D01*
X3219594Y-5683497D01*
X3219591Y-5683495D01*
X3100908Y-5614973D01*
X3100904Y-5614971D01*
X2968527Y-5579500D01*
X2968525Y-5579500D01*
X2831475Y-5579500D01*
X2831472Y-5579500D01*
X2699095Y-5614971D01*
X2699091Y-5614973D01*
X2580408Y-5683495D01*
X2483495Y-5780408D01*
X2414973Y-5899091D01*
X2414971Y-5899095D01*
X2379500Y-6031472D01*
X500500Y-6031472D01*
X500500Y-4999000D01*
X519407Y-4940809D01*
X568907Y-4904845D01*
X599500Y-4900000D01*
X26999999Y-4900000D01*
X27000000Y-4900000D01*
X27000000Y-2831472D01*
X47379500Y-2831472D01*
X47379500Y-2968527D01*
X47414971Y-3100904D01*
X47414973Y-3100908D01*
X47483495Y-3219591D01*
X47483497Y-3219594D01*
X47580406Y-3316503D01*
X47580408Y-3316504D01*
X47699091Y-3385026D01*
X47699095Y-3385028D01*
X47831472Y-3420499D01*
X47831474Y-3420500D01*
X47831475Y-3420500D01*
X47968526Y-3420500D01*
X47968526Y-3420499D01*
X48100905Y-3385028D01*
X48219594Y-3316503D01*
X48316503Y-3219594D01*
X48385028Y-3100905D01*
X48420500Y-2968525D01*
X48420500Y-2831475D01*
X48385028Y-2699095D01*
X48316503Y-2580406D01*
X48219594Y-2483497D01*
X48219591Y-2483495D01*
X48100908Y-2414973D01*
X48100904Y-2414971D01*
X47968527Y-2379500D01*
X47968525Y-2379500D01*
X47831475Y-2379500D01*
X47831472Y-2379500D01*
X47699095Y-2414971D01*
X47699091Y-2414973D01*
X47580408Y-2483495D01*
X47483495Y-2580408D01*
X47414973Y-2699091D01*
X47414971Y-2699095D01*
X47379500Y-2831472D01*
X27000000Y-2831472D01*
X27000000Y-599500D01*
X27018907Y-541309D01*
X27068407Y-505345D01*
X27099000Y-500500D01*
X54400500Y-500500D01*
X54458691Y-519407D01*
G37*
%TD.AperFunction*%
%TD*%
M02*
