%TF.GenerationSoftware,KiCad,Pcbnew,9.0.8+dfsg-1*%
%TF.CreationDate,2026-10-07T12:14:18+02:00*%
%TF.ProjectId,wing_board_v9,77696e67-5f62-46f6-9172-645f76392e6b,rev?*%
%TF.SameCoordinates,Original*%
%TF.FileFunction,Legend,Top*%
%TF.FilePolarity,Positive*%
%FSLAX46Y46*%
G04 Gerber Fmt 4.6, Leading zero omitted, Abs format (unit mm)*
G04 Created by KiCad (PCBNEW 9.0.8+dfsg-1) date 2026-10-07 12:14:18*
%MOMM*%
%LPD*%
G01*
G04 APERTURE LIST*
%ADD10C,0.120000*%
%ADD11C,0.100000*%
G04 APERTURE END LIST*
D10*
X68404761Y-23656379D02*
X68642856Y-24656379D01*
X68642856Y-24656379D02*
X68833332Y-23942093D01*
X68833332Y-23942093D02*
X69023808Y-24656379D01*
X69023808Y-24656379D02*
X69261904Y-23656379D01*
X69642856Y-24656379D02*
X69642856Y-23656379D01*
X70119046Y-24656379D02*
X70119046Y-23656379D01*
X70119046Y-23656379D02*
X70690474Y-24656379D01*
X70690474Y-24656379D02*
X70690474Y-23656379D01*
X71690474Y-23703998D02*
X71595236Y-23656379D01*
X71595236Y-23656379D02*
X71452379Y-23656379D01*
X71452379Y-23656379D02*
X71309522Y-23703998D01*
X71309522Y-23703998D02*
X71214284Y-23799236D01*
X71214284Y-23799236D02*
X71166665Y-23894474D01*
X71166665Y-23894474D02*
X71119046Y-24084950D01*
X71119046Y-24084950D02*
X71119046Y-24227807D01*
X71119046Y-24227807D02*
X71166665Y-24418283D01*
X71166665Y-24418283D02*
X71214284Y-24513521D01*
X71214284Y-24513521D02*
X71309522Y-24608760D01*
X71309522Y-24608760D02*
X71452379Y-24656379D01*
X71452379Y-24656379D02*
X71547617Y-24656379D01*
X71547617Y-24656379D02*
X71690474Y-24608760D01*
X71690474Y-24608760D02*
X71738093Y-24561140D01*
X71738093Y-24561140D02*
X71738093Y-24227807D01*
X71738093Y-24227807D02*
X71547617Y-24227807D01*
X72833332Y-23989712D02*
X73071427Y-24656379D01*
X73071427Y-24656379D02*
X73309522Y-23989712D01*
X73738094Y-24656379D02*
X73928570Y-24656379D01*
X73928570Y-24656379D02*
X74023808Y-24608760D01*
X74023808Y-24608760D02*
X74071427Y-24561140D01*
X74071427Y-24561140D02*
X74166665Y-24418283D01*
X74166665Y-24418283D02*
X74214284Y-24227807D01*
X74214284Y-24227807D02*
X74214284Y-23846855D01*
X74214284Y-23846855D02*
X74166665Y-23751617D01*
X74166665Y-23751617D02*
X74119046Y-23703998D01*
X74119046Y-23703998D02*
X74023808Y-23656379D01*
X74023808Y-23656379D02*
X73833332Y-23656379D01*
X73833332Y-23656379D02*
X73738094Y-23703998D01*
X73738094Y-23703998D02*
X73690475Y-23751617D01*
X73690475Y-23751617D02*
X73642856Y-23846855D01*
X73642856Y-23846855D02*
X73642856Y-24084950D01*
X73642856Y-24084950D02*
X73690475Y-24180188D01*
X73690475Y-24180188D02*
X73738094Y-24227807D01*
X73738094Y-24227807D02*
X73833332Y-24275426D01*
X73833332Y-24275426D02*
X74023808Y-24275426D01*
X74023808Y-24275426D02*
X74119046Y-24227807D01*
X74119046Y-24227807D02*
X74166665Y-24180188D01*
X74166665Y-24180188D02*
X74214284Y-24084950D01*
X76119047Y-24608760D02*
X76261904Y-24656379D01*
X76261904Y-24656379D02*
X76499999Y-24656379D01*
X76499999Y-24656379D02*
X76595237Y-24608760D01*
X76595237Y-24608760D02*
X76642856Y-24561140D01*
X76642856Y-24561140D02*
X76690475Y-24465902D01*
X76690475Y-24465902D02*
X76690475Y-24370664D01*
X76690475Y-24370664D02*
X76642856Y-24275426D01*
X76642856Y-24275426D02*
X76595237Y-24227807D01*
X76595237Y-24227807D02*
X76499999Y-24180188D01*
X76499999Y-24180188D02*
X76309523Y-24132569D01*
X76309523Y-24132569D02*
X76214285Y-24084950D01*
X76214285Y-24084950D02*
X76166666Y-24037331D01*
X76166666Y-24037331D02*
X76119047Y-23942093D01*
X76119047Y-23942093D02*
X76119047Y-23846855D01*
X76119047Y-23846855D02*
X76166666Y-23751617D01*
X76166666Y-23751617D02*
X76214285Y-23703998D01*
X76214285Y-23703998D02*
X76309523Y-23656379D01*
X76309523Y-23656379D02*
X76547618Y-23656379D01*
X76547618Y-23656379D02*
X76690475Y-23703998D01*
X77309523Y-23656379D02*
X77499999Y-23656379D01*
X77499999Y-23656379D02*
X77595237Y-23703998D01*
X77595237Y-23703998D02*
X77690475Y-23799236D01*
X77690475Y-23799236D02*
X77738094Y-23989712D01*
X77738094Y-23989712D02*
X77738094Y-24323045D01*
X77738094Y-24323045D02*
X77690475Y-24513521D01*
X77690475Y-24513521D02*
X77595237Y-24608760D01*
X77595237Y-24608760D02*
X77499999Y-24656379D01*
X77499999Y-24656379D02*
X77309523Y-24656379D01*
X77309523Y-24656379D02*
X77214285Y-24608760D01*
X77214285Y-24608760D02*
X77119047Y-24513521D01*
X77119047Y-24513521D02*
X77071428Y-24323045D01*
X77071428Y-24323045D02*
X77071428Y-23989712D01*
X77071428Y-23989712D02*
X77119047Y-23799236D01*
X77119047Y-23799236D02*
X77214285Y-23703998D01*
X77214285Y-23703998D02*
X77309523Y-23656379D01*
X78642856Y-24656379D02*
X78166666Y-24656379D01*
X78166666Y-24656379D02*
X78166666Y-23656379D01*
X78928571Y-24370664D02*
X79404761Y-24370664D01*
X78833333Y-24656379D02*
X79166666Y-23656379D01*
X79166666Y-23656379D02*
X79499999Y-24656379D01*
X80404761Y-24656379D02*
X80071428Y-24180188D01*
X79833333Y-24656379D02*
X79833333Y-23656379D01*
X79833333Y-23656379D02*
X80214285Y-23656379D01*
X80214285Y-23656379D02*
X80309523Y-23703998D01*
X80309523Y-23703998D02*
X80357142Y-23751617D01*
X80357142Y-23751617D02*
X80404761Y-23846855D01*
X80404761Y-23846855D02*
X80404761Y-23989712D01*
X80404761Y-23989712D02*
X80357142Y-24084950D01*
X80357142Y-24084950D02*
X80309523Y-24132569D01*
X80309523Y-24132569D02*
X80214285Y-24180188D01*
X80214285Y-24180188D02*
X79833333Y-24180188D01*
X82119047Y-24656379D02*
X81547619Y-24656379D01*
X81833333Y-24656379D02*
X81833333Y-23656379D01*
X81833333Y-23656379D02*
X81738095Y-23799236D01*
X81738095Y-23799236D02*
X81642857Y-23894474D01*
X81642857Y-23894474D02*
X81547619Y-23942093D01*
X82452381Y-23656379D02*
X83119047Y-23656379D01*
X83119047Y-23656379D02*
X82690476Y-24656379D01*
X83928571Y-23656379D02*
X83738095Y-23656379D01*
X83738095Y-23656379D02*
X83642857Y-23703998D01*
X83642857Y-23703998D02*
X83595238Y-23751617D01*
X83595238Y-23751617D02*
X83500000Y-23894474D01*
X83500000Y-23894474D02*
X83452381Y-24084950D01*
X83452381Y-24084950D02*
X83452381Y-24465902D01*
X83452381Y-24465902D02*
X83500000Y-24561140D01*
X83500000Y-24561140D02*
X83547619Y-24608760D01*
X83547619Y-24608760D02*
X83642857Y-24656379D01*
X83642857Y-24656379D02*
X83833333Y-24656379D01*
X83833333Y-24656379D02*
X83928571Y-24608760D01*
X83928571Y-24608760D02*
X83976190Y-24561140D01*
X83976190Y-24561140D02*
X84023809Y-24465902D01*
X84023809Y-24465902D02*
X84023809Y-24227807D01*
X84023809Y-24227807D02*
X83976190Y-24132569D01*
X83976190Y-24132569D02*
X83928571Y-24084950D01*
X83928571Y-24084950D02*
X83833333Y-24037331D01*
X83833333Y-24037331D02*
X83642857Y-24037331D01*
X83642857Y-24037331D02*
X83547619Y-24084950D01*
X83547619Y-24084950D02*
X83500000Y-24132569D01*
X83500000Y-24132569D02*
X83452381Y-24227807D01*
X84357143Y-24656379D02*
X84880952Y-23989712D01*
X84357143Y-23989712D02*
X84880952Y-24656379D01*
X85214286Y-23751617D02*
X85261905Y-23703998D01*
X85261905Y-23703998D02*
X85357143Y-23656379D01*
X85357143Y-23656379D02*
X85595238Y-23656379D01*
X85595238Y-23656379D02*
X85690476Y-23703998D01*
X85690476Y-23703998D02*
X85738095Y-23751617D01*
X85738095Y-23751617D02*
X85785714Y-23846855D01*
X85785714Y-23846855D02*
X85785714Y-23942093D01*
X85785714Y-23942093D02*
X85738095Y-24084950D01*
X85738095Y-24084950D02*
X85166667Y-24656379D01*
X85166667Y-24656379D02*
X85785714Y-24656379D01*
X86690476Y-23656379D02*
X86214286Y-23656379D01*
X86214286Y-23656379D02*
X86166667Y-24132569D01*
X86166667Y-24132569D02*
X86214286Y-24084950D01*
X86214286Y-24084950D02*
X86309524Y-24037331D01*
X86309524Y-24037331D02*
X86547619Y-24037331D01*
X86547619Y-24037331D02*
X86642857Y-24084950D01*
X86642857Y-24084950D02*
X86690476Y-24132569D01*
X86690476Y-24132569D02*
X86738095Y-24227807D01*
X86738095Y-24227807D02*
X86738095Y-24465902D01*
X86738095Y-24465902D02*
X86690476Y-24561140D01*
X86690476Y-24561140D02*
X86642857Y-24608760D01*
X86642857Y-24608760D02*
X86547619Y-24656379D01*
X86547619Y-24656379D02*
X86309524Y-24656379D01*
X86309524Y-24656379D02*
X86214286Y-24608760D01*
X86214286Y-24608760D02*
X86166667Y-24561140D01*
X87071429Y-24656379D02*
X87595238Y-23989712D01*
X87071429Y-23989712D02*
X87595238Y-24656379D01*
X88166667Y-23656379D02*
X88261905Y-23656379D01*
X88261905Y-23656379D02*
X88357143Y-23703998D01*
X88357143Y-23703998D02*
X88404762Y-23751617D01*
X88404762Y-23751617D02*
X88452381Y-23846855D01*
X88452381Y-23846855D02*
X88500000Y-24037331D01*
X88500000Y-24037331D02*
X88500000Y-24275426D01*
X88500000Y-24275426D02*
X88452381Y-24465902D01*
X88452381Y-24465902D02*
X88404762Y-24561140D01*
X88404762Y-24561140D02*
X88357143Y-24608760D01*
X88357143Y-24608760D02*
X88261905Y-24656379D01*
X88261905Y-24656379D02*
X88166667Y-24656379D01*
X88166667Y-24656379D02*
X88071429Y-24608760D01*
X88071429Y-24608760D02*
X88023810Y-24561140D01*
X88023810Y-24561140D02*
X87976191Y-24465902D01*
X87976191Y-24465902D02*
X87928572Y-24275426D01*
X87928572Y-24275426D02*
X87928572Y-24037331D01*
X87928572Y-24037331D02*
X87976191Y-23846855D01*
X87976191Y-23846855D02*
X88023810Y-23751617D01*
X88023810Y-23751617D02*
X88071429Y-23703998D01*
X88071429Y-23703998D02*
X88166667Y-23656379D01*
X88928572Y-24561140D02*
X88976191Y-24608760D01*
X88976191Y-24608760D02*
X88928572Y-24656379D01*
X88928572Y-24656379D02*
X88880953Y-24608760D01*
X88880953Y-24608760D02*
X88928572Y-24561140D01*
X88928572Y-24561140D02*
X88928572Y-24656379D01*
X89833333Y-23656379D02*
X89642857Y-23656379D01*
X89642857Y-23656379D02*
X89547619Y-23703998D01*
X89547619Y-23703998D02*
X89500000Y-23751617D01*
X89500000Y-23751617D02*
X89404762Y-23894474D01*
X89404762Y-23894474D02*
X89357143Y-24084950D01*
X89357143Y-24084950D02*
X89357143Y-24465902D01*
X89357143Y-24465902D02*
X89404762Y-24561140D01*
X89404762Y-24561140D02*
X89452381Y-24608760D01*
X89452381Y-24608760D02*
X89547619Y-24656379D01*
X89547619Y-24656379D02*
X89738095Y-24656379D01*
X89738095Y-24656379D02*
X89833333Y-24608760D01*
X89833333Y-24608760D02*
X89880952Y-24561140D01*
X89880952Y-24561140D02*
X89928571Y-24465902D01*
X89928571Y-24465902D02*
X89928571Y-24227807D01*
X89928571Y-24227807D02*
X89880952Y-24132569D01*
X89880952Y-24132569D02*
X89833333Y-24084950D01*
X89833333Y-24084950D02*
X89738095Y-24037331D01*
X89738095Y-24037331D02*
X89547619Y-24037331D01*
X89547619Y-24037331D02*
X89452381Y-24084950D01*
X89452381Y-24084950D02*
X89404762Y-24132569D01*
X89404762Y-24132569D02*
X89357143Y-24227807D01*
X92309524Y-23989712D02*
X92309524Y-24656379D01*
X92071429Y-23608760D02*
X91833334Y-24323045D01*
X91833334Y-24323045D02*
X92452381Y-24323045D01*
X92833334Y-24275426D02*
X93595239Y-24275426D01*
X94071429Y-23989712D02*
X94071429Y-24989712D01*
X94071429Y-24037331D02*
X94166667Y-23989712D01*
X94166667Y-23989712D02*
X94357143Y-23989712D01*
X94357143Y-23989712D02*
X94452381Y-24037331D01*
X94452381Y-24037331D02*
X94500000Y-24084950D01*
X94500000Y-24084950D02*
X94547619Y-24180188D01*
X94547619Y-24180188D02*
X94547619Y-24465902D01*
X94547619Y-24465902D02*
X94500000Y-24561140D01*
X94500000Y-24561140D02*
X94452381Y-24608760D01*
X94452381Y-24608760D02*
X94357143Y-24656379D01*
X94357143Y-24656379D02*
X94166667Y-24656379D01*
X94166667Y-24656379D02*
X94071429Y-24608760D01*
X94976191Y-24656379D02*
X94976191Y-23989712D01*
X94976191Y-23656379D02*
X94928572Y-23703998D01*
X94928572Y-23703998D02*
X94976191Y-23751617D01*
X94976191Y-23751617D02*
X95023810Y-23703998D01*
X95023810Y-23703998D02*
X94976191Y-23656379D01*
X94976191Y-23656379D02*
X94976191Y-23751617D01*
X95452381Y-23989712D02*
X95452381Y-24656379D01*
X95452381Y-24084950D02*
X95500000Y-24037331D01*
X95500000Y-24037331D02*
X95595238Y-23989712D01*
X95595238Y-23989712D02*
X95738095Y-23989712D01*
X95738095Y-23989712D02*
X95833333Y-24037331D01*
X95833333Y-24037331D02*
X95880952Y-24132569D01*
X95880952Y-24132569D02*
X95880952Y-24656379D01*
X96976191Y-23989712D02*
X97357143Y-23989712D01*
X97119048Y-23656379D02*
X97119048Y-24513521D01*
X97119048Y-24513521D02*
X97166667Y-24608760D01*
X97166667Y-24608760D02*
X97261905Y-24656379D01*
X97261905Y-24656379D02*
X97357143Y-24656379D01*
X98119048Y-24656379D02*
X98119048Y-24132569D01*
X98119048Y-24132569D02*
X98071429Y-24037331D01*
X98071429Y-24037331D02*
X97976191Y-23989712D01*
X97976191Y-23989712D02*
X97785715Y-23989712D01*
X97785715Y-23989712D02*
X97690477Y-24037331D01*
X98119048Y-24608760D02*
X98023810Y-24656379D01*
X98023810Y-24656379D02*
X97785715Y-24656379D01*
X97785715Y-24656379D02*
X97690477Y-24608760D01*
X97690477Y-24608760D02*
X97642858Y-24513521D01*
X97642858Y-24513521D02*
X97642858Y-24418283D01*
X97642858Y-24418283D02*
X97690477Y-24323045D01*
X97690477Y-24323045D02*
X97785715Y-24275426D01*
X97785715Y-24275426D02*
X98023810Y-24275426D01*
X98023810Y-24275426D02*
X98119048Y-24227807D01*
X98595239Y-24656379D02*
X98595239Y-23656379D01*
X98595239Y-24037331D02*
X98690477Y-23989712D01*
X98690477Y-23989712D02*
X98880953Y-23989712D01*
X98880953Y-23989712D02*
X98976191Y-24037331D01*
X98976191Y-24037331D02*
X99023810Y-24084950D01*
X99023810Y-24084950D02*
X99071429Y-24180188D01*
X99071429Y-24180188D02*
X99071429Y-24465902D01*
X99071429Y-24465902D02*
X99023810Y-24561140D01*
X99023810Y-24561140D02*
X98976191Y-24608760D01*
X98976191Y-24608760D02*
X98880953Y-24656379D01*
X98880953Y-24656379D02*
X98690477Y-24656379D01*
X98690477Y-24656379D02*
X98595239Y-24608760D01*
X100976192Y-24370664D02*
X101452382Y-24370664D01*
X100880954Y-24656379D02*
X101214287Y-23656379D01*
X101214287Y-23656379D02*
X101547620Y-24656379D01*
X101880954Y-24656379D02*
X101880954Y-23656379D01*
X101880954Y-23656379D02*
X102119049Y-23656379D01*
X102119049Y-23656379D02*
X102261906Y-23703998D01*
X102261906Y-23703998D02*
X102357144Y-23799236D01*
X102357144Y-23799236D02*
X102404763Y-23894474D01*
X102404763Y-23894474D02*
X102452382Y-24084950D01*
X102452382Y-24084950D02*
X102452382Y-24227807D01*
X102452382Y-24227807D02*
X102404763Y-24418283D01*
X102404763Y-24418283D02*
X102357144Y-24513521D01*
X102357144Y-24513521D02*
X102261906Y-24608760D01*
X102261906Y-24608760D02*
X102119049Y-24656379D01*
X102119049Y-24656379D02*
X101880954Y-24656379D01*
X103452382Y-24656379D02*
X103119049Y-24180188D01*
X102880954Y-24656379D02*
X102880954Y-23656379D01*
X102880954Y-23656379D02*
X103261906Y-23656379D01*
X103261906Y-23656379D02*
X103357144Y-23703998D01*
X103357144Y-23703998D02*
X103404763Y-23751617D01*
X103404763Y-23751617D02*
X103452382Y-23846855D01*
X103452382Y-23846855D02*
X103452382Y-23989712D01*
X103452382Y-23989712D02*
X103404763Y-24084950D01*
X103404763Y-24084950D02*
X103357144Y-24132569D01*
X103357144Y-24132569D02*
X103261906Y-24180188D01*
X103261906Y-24180188D02*
X102880954Y-24180188D01*
X103880954Y-24275426D02*
X104642859Y-24275426D01*
X105309525Y-23656379D02*
X105404763Y-23656379D01*
X105404763Y-23656379D02*
X105500001Y-23703998D01*
X105500001Y-23703998D02*
X105547620Y-23751617D01*
X105547620Y-23751617D02*
X105595239Y-23846855D01*
X105595239Y-23846855D02*
X105642858Y-24037331D01*
X105642858Y-24037331D02*
X105642858Y-24275426D01*
X105642858Y-24275426D02*
X105595239Y-24465902D01*
X105595239Y-24465902D02*
X105547620Y-24561140D01*
X105547620Y-24561140D02*
X105500001Y-24608760D01*
X105500001Y-24608760D02*
X105404763Y-24656379D01*
X105404763Y-24656379D02*
X105309525Y-24656379D01*
X105309525Y-24656379D02*
X105214287Y-24608760D01*
X105214287Y-24608760D02*
X105166668Y-24561140D01*
X105166668Y-24561140D02*
X105119049Y-24465902D01*
X105119049Y-24465902D02*
X105071430Y-24275426D01*
X105071430Y-24275426D02*
X105071430Y-24037331D01*
X105071430Y-24037331D02*
X105119049Y-23846855D01*
X105119049Y-23846855D02*
X105166668Y-23751617D01*
X105166668Y-23751617D02*
X105214287Y-23703998D01*
X105214287Y-23703998D02*
X105309525Y-23656379D01*
X106500001Y-23989712D02*
X106500001Y-24656379D01*
X106261906Y-23608760D02*
X106023811Y-24323045D01*
X106023811Y-24323045D02*
X106642858Y-24323045D01*
X107452382Y-23656379D02*
X107261906Y-23656379D01*
X107261906Y-23656379D02*
X107166668Y-23703998D01*
X107166668Y-23703998D02*
X107119049Y-23751617D01*
X107119049Y-23751617D02*
X107023811Y-23894474D01*
X107023811Y-23894474D02*
X106976192Y-24084950D01*
X106976192Y-24084950D02*
X106976192Y-24465902D01*
X106976192Y-24465902D02*
X107023811Y-24561140D01*
X107023811Y-24561140D02*
X107071430Y-24608760D01*
X107071430Y-24608760D02*
X107166668Y-24656379D01*
X107166668Y-24656379D02*
X107357144Y-24656379D01*
X107357144Y-24656379D02*
X107452382Y-24608760D01*
X107452382Y-24608760D02*
X107500001Y-24561140D01*
X107500001Y-24561140D02*
X107547620Y-24465902D01*
X107547620Y-24465902D02*
X107547620Y-24227807D01*
X107547620Y-24227807D02*
X107500001Y-24132569D01*
X107500001Y-24132569D02*
X107452382Y-24084950D01*
X107452382Y-24084950D02*
X107357144Y-24037331D01*
X107357144Y-24037331D02*
X107166668Y-24037331D01*
X107166668Y-24037331D02*
X107071430Y-24084950D01*
X107071430Y-24084950D02*
X107023811Y-24132569D01*
X107023811Y-24132569D02*
X106976192Y-24227807D01*
X3619048Y-36175426D02*
X4380953Y-36175426D01*
X4000000Y-36556379D02*
X4000000Y-35794474D01*
X55619048Y-36175426D02*
X56380953Y-36175426D01*
X61619048Y-36175426D02*
X62380953Y-36175426D01*
X62000000Y-36556379D02*
X62000000Y-35794474D01*
X113619048Y-36175426D02*
X114380953Y-36175426D01*
X119619048Y-36175426D02*
X120380953Y-36175426D01*
X120000000Y-36556379D02*
X120000000Y-35794474D01*
X171619048Y-36175426D02*
X172380953Y-36175426D01*
D11*
X-5157142Y-8372371D02*
X-5157142Y-7772371D01*
X-5157142Y-7772371D02*
X-4928571Y-7772371D01*
X-4928571Y-7772371D02*
X-4871428Y-7800942D01*
X-4871428Y-7800942D02*
X-4842857Y-7829514D01*
X-4842857Y-7829514D02*
X-4814285Y-7886657D01*
X-4814285Y-7886657D02*
X-4814285Y-7972371D01*
X-4814285Y-7972371D02*
X-4842857Y-8029514D01*
X-4842857Y-8029514D02*
X-4871428Y-8058085D01*
X-4871428Y-8058085D02*
X-4928571Y-8086657D01*
X-4928571Y-8086657D02*
X-5157142Y-8086657D01*
X-5171427Y-17172371D02*
X-5171427Y-16572371D01*
X-5171427Y-16572371D02*
X-4828570Y-17172371D01*
X-4828570Y-17172371D02*
X-4828570Y-16572371D01*
%TO.C,SC1*%
D10*
X4000000Y-15500000D02*
X56000000Y-15500000D01*
X56000000Y-34500000D01*
X4000000Y-34500000D01*
X4000000Y-15500000D01*
%TO.C,SC2*%
X62000000Y-15500000D02*
X114000000Y-15500000D01*
X114000000Y-34500000D01*
X62000000Y-34500000D01*
X62000000Y-15500000D01*
%TO.C,SC3*%
X120000000Y-15500000D02*
X172000000Y-15500000D01*
X172000000Y-34500000D01*
X120000000Y-34500000D01*
X120000000Y-15500000D01*
%TO.C,J1*%
D11*
X-7000000Y-8400000D02*
X-3000000Y-8400000D01*
X-3000000Y-16600000D01*
X-7000000Y-16600000D01*
X-7000000Y-8400000D01*
%TD*%
M02*
