#VRML V2.0 utf8
# balloon-fresh -- parametric 3D model (plain-text VRML 2.0)
# generator  : scripts/gen_3d_models.py  (regenerate: python3 scripts/gen_3d_models.py)
# part       : SolarCell_SMALL_52.07x19.65
# dims_mm    : 52.07 x 19.65 x 0.21 (cell centred on the footprint origin)
# frame      : X = footprint-local +x, Y = -(footprint-local +y), Z = up, Z=0 at the board TOP face
# units      : 1 VRML unit = 2.54 mm (0.1 in) -- KiCad VRML convention; assign with (scale (xyz 1 1 1))
# source     : X/Y/Z: 52.07 x 19.65 x 0.20-0.21 mm - ADR-049 s'Measured inputs' outline row ('52.07 x 19.65 x 0.20-0.21 mm', 10.23 cm2).  0.21 mm (the upper end of the recorded range) is used.  Two-material IndexedFaceSet, same scheme as the LARGE cell.
# materials  : dark blue cell face (diffuseColor 0.09 0.10 0.42) + light grey frame (diffuseColor 0.55 0.56 0.60) -- two-material IndexedFaceSet, ported from scripts/gen_3d_models_wing.py
# note       : the cell is a FACETED SOLID (IndexedFaceSet), NOT a bare Box -- this is what makes it read as a real dark cell, not a grey slab.
# TODO(unverified):
#   - the thickness is a RANGE (0.20-0.21 mm) in ADR-049; 0.21 is used
# --------------------------------------------------------------------------

DEF SolarCell_SMALL_52.07x19.65_face Transform {
  children [
    Shape {
      appearance Appearance {
        material DEF SolarCell_SMALL_52.07x19.65_face_mat Material {
          diffuseColor 0.09 0.1 0.42
          emissiveColor 0 0 0
          specularColor 0.55 0.55 0.55
          ambientIntensity 0.4
          transparency 0.0
          shininess 0.85
        }
      }
      geometry IndexedFaceSet {
        coord Coordinate { point [
          -10.250000 -3.868110 0.041732,
          10.250000 -3.868110 0.041732,
          10.250000 3.868110 0.041732,
          -10.250000 3.868110 0.041732,
          -10.250000 3.868110 0.041339,
          10.250000 3.868110 0.041339,
          10.250000 -3.868110 0.041339,
          -10.250000 -3.868110 0.041339,
          -10.250000 3.868110 0.041339,
          -10.250000 3.868110 0.041732,
          10.250000 3.868110 0.041732,
          10.250000 3.868110 0.041339,
          10.250000 -3.868110 0.041339,
          10.250000 -3.868110 0.041732,
          -10.250000 -3.868110 0.041732,
          -10.250000 -3.868110 0.041339,
          10.250000 3.868110 0.041339,
          10.250000 3.868110 0.041732,
          10.250000 -3.868110 0.041732,
          10.250000 -3.868110 0.041339,
          -10.250000 -3.868110 0.041339,
          -10.250000 -3.868110 0.041732,
          -10.250000 3.868110 0.041732,
          -10.250000 3.868110 0.041339
        ] }
        coordIndex [
          0, 1, 2, 3, -1,
          4, 5, 6, 7, -1,
          8, 9, 10, 11, -1,
          12, 13, 14, 15, -1,
          16, 17, 18, 19, -1,
          20, 21, 22, 23, -1,
        ]
      }
    }
  ]
}
DEF SolarCell_SMALL_52.07x19.65_body Transform {
  children [
    Shape {
      appearance Appearance {
        material DEF SolarCell_SMALL_52.07x19.65_body_mat Material {
          diffuseColor 0.55 0.56 0.6
          emissiveColor 0 0 0
          specularColor 0.25 0.25 0.25
          ambientIntensity 0.4
          transparency 0.0
          shininess 0.2
        }
      }
      geometry IndexedFaceSet {
        coord Coordinate { point [
          -10.250000 -3.868110 0.041339,
          10.250000 -3.868110 0.041339,
          10.250000 3.868110 0.041339,
          -10.250000 3.868110 0.041339,
          -10.250000 3.868110 0.000000,
          10.250000 3.868110 0.000000,
          10.250000 -3.868110 0.000000,
          -10.250000 -3.868110 0.000000,
          -10.250000 3.868110 0.000000,
          -10.250000 3.868110 0.041339,
          10.250000 3.868110 0.041339,
          10.250000 3.868110 0.000000,
          10.250000 -3.868110 0.000000,
          10.250000 -3.868110 0.041339,
          -10.250000 -3.868110 0.041339,
          -10.250000 -3.868110 0.000000,
          10.250000 3.868110 0.000000,
          10.250000 3.868110 0.041339,
          10.250000 -3.868110 0.041339,
          10.250000 -3.868110 0.000000,
          -10.250000 -3.868110 0.000000,
          -10.250000 -3.868110 0.041339,
          -10.250000 3.868110 0.041339,
          -10.250000 3.868110 0.000000
        ] }
        coordIndex [
          0, 1, 2, 3, -1,
          4, 5, 6, 7, -1,
          8, 9, 10, 11, -1,
          12, 13, 14, 15, -1,
          16, 17, 18, 19, -1,
          20, 21, 22, 23, -1,
        ]
      }
    }
  ]
}
Transform {
  translation 0.000000 3.750000 0.086614
  children [
    Shape {
      appearance Appearance { material Material { diffuseColor 0.550 0.560 0.600 } }
      geometry Box { size 20.500000 0.236220 0.007874 }
    }
  ]
}
Transform {
  translation 0.000000 -3.750000 0.086614
  children [
    Shape {
      appearance Appearance { material Material { diffuseColor 0.550 0.560 0.600 } }
      geometry Box { size 20.500000 0.236220 0.007874 }
    }
  ]
}
Transform {
  translation 10.131890 0.000000 0.086614
  children [
    Shape {
      appearance Appearance { material Material { diffuseColor 0.550 0.560 0.600 } }
      geometry Box { size 0.236220 7.736220 0.007874 }
    }
  ]
}
Transform {
  translation -10.131890 0.000000 0.086614
  children [
    Shape {
      appearance Appearance { material Material { diffuseColor 0.550 0.560 0.600 } }
      geometry Box { size 0.236220 7.736220 0.007874 }
    }
  ]
}
Transform {
  translation 9.068898 0.000000 0.088583
  children [
    Shape {
      appearance Appearance { material Material { diffuseColor 0.550 0.560 0.600 } }
      geometry Box { size 0.787402 2.707677 0.011811 }
    }
  ]
}
Transform {
  translation -9.068898 0.000000 0.088583
  children [
    Shape {
      appearance Appearance { material Material { diffuseColor 0.550 0.560 0.600 } }
      geometry Box { size 0.787402 2.707677 0.011811 }
    }
  ]
}
