%TF.GenerationSoftware,KiCad,Pcbnew,9.0.8+dfsg-1*%
%TF.CreationDate,2026-08-05T20:27:48+05:30*%
%TF.ProjectId,v2_adc_v3,76325f61-6463-45f7-9633-2e6b69636164,rev?*%
%TF.SameCoordinates,Original*%
%TF.FileFunction,Copper,L1,Top*%
%TF.FilePolarity,Positive*%
%FSLAX46Y46*%
G04 Gerber Fmt 4.6, Leading zero omitted, Abs format (unit mm)*
G04 Created by KiCad (PCBNEW 9.0.8+dfsg-1) date 2026-08-05 20:27:48*
%MOMM*%
%LPD*%
G01*
G04 APERTURE LIST*
%TA.AperFunction,ComponentPad*%
%ADD10R,1.600000X1.600000*%
%TD*%
%TA.AperFunction,SMDPad,CuDef*%
%ADD11R,0.600000X0.500000*%
%TD*%
%TA.AperFunction,SMDPad,CuDef*%
%ADD12R,0.800000X0.600000*%
%TD*%
%TA.AperFunction,SMDPad,CuDef*%
%ADD13R,1.000000X1.000000*%
%TD*%
%TA.AperFunction,ComponentPad*%
%ADD14R,1.000000X1.000000*%
%TD*%
%TA.AperFunction,SMDPad,CuDef*%
%ADD15R,0.600000X0.400000*%
%TD*%
%TA.AperFunction,SMDPad,CuDef*%
%ADD16R,1.000000X0.800000*%
%TD*%
%TA.AperFunction,SMDPad,CuDef*%
%ADD17R,0.700000X0.600000*%
%TD*%
%TA.AperFunction,SMDPad,CuDef*%
%ADD18R,1.000000X0.600000*%
%TD*%
%TA.AperFunction,SMDPad,CuDef*%
%ADD19R,1.200000X0.800000*%
%TD*%
%TA.AperFunction,SMDPad,CuDef*%
%ADD20R,1.500000X0.800000*%
%TD*%
%TA.AperFunction,ViaPad*%
%ADD21C,0.600000*%
%TD*%
%TA.AperFunction,ViaPad*%
%ADD22C,0.760000*%
%TD*%
%TA.AperFunction,Conductor*%
%ADD23C,2.000000*%
%TD*%
%TA.AperFunction,Conductor*%
%ADD24C,0.799800*%
%TD*%
%TA.AperFunction,Conductor*%
%ADD25C,0.400000*%
%TD*%
%TA.AperFunction,Conductor*%
%ADD26C,0.499800*%
%TD*%
%TA.AperFunction,Conductor*%
%ADD27C,0.599800*%
%TD*%
%TA.AperFunction,Conductor*%
%ADD28C,0.399800*%
%TD*%
%TA.AperFunction,Conductor*%
%ADD29C,0.999800*%
%TD*%
%TA.AperFunction,Conductor*%
%ADD30C,0.250000*%
%TD*%
%TA.AperFunction,Conductor*%
%ADD31C,0.760000*%
%TD*%
G04 APERTURE END LIST*
D10*
%TO.P,SOLAR,1*%
%TO.N,SOLAR_IN*%
X1730000Y-37000000D03*
%TO.P,SOLAR,2*%
%TO.N,GND*%
X4270000Y-37000000D03*
%TD*%
D11*
%TO.P,R_LED,1*%
%TO.N,STATUS_LED*%
X19500000Y-6000000D03*
%TO.P,R_LED,2*%
%TO.N,LED_ANODE*%
X20500000Y-6000000D03*
%TD*%
%TO.P,R_DIV2,1*%
%TO.N,VDIV_MID*%
X2500000Y-32000000D03*
%TO.P,R_DIV2,2*%
%TO.N,GND*%
X3500000Y-32000000D03*
%TD*%
D12*
%TO.P,D1,A*%
%TO.N,SOLAR_IN*%
X5000000Y-18000000D03*
%TO.P,D1,K*%
%TO.N,VCAP*%
X7000000Y-18000000D03*
%TD*%
D13*
%TO.P,ANT1,1*%
%TO.N,RF_SUB_868*%
X46000000Y-25000000D03*
D14*
%TO.P,ANT1,2*%
%TO.N,GND*%
X44500000Y-25000000D03*
%TO.P,ANT1,3*%
X47500000Y-25000000D03*
%TD*%
D15*
%TO.P,U4,1*%
%TO.N,VCAP*%
X7050000Y-17250000D03*
%TO.P,U4,2*%
%TO.N,GND*%
X8000000Y-17250000D03*
%TO.P,U4,3*%
%TO.N,VCAP*%
X8950000Y-17250000D03*
%TO.P,U4,4*%
%TO.N,3V3*%
X8950000Y-18750000D03*
%TD*%
D13*
%TO.P,ANT2,1*%
%TO.N,RF_2G4_2400*%
X46000000Y-30000000D03*
D14*
%TO.P,ANT2,2*%
%TO.N,GND*%
X44500000Y-30000000D03*
%TO.P,ANT2,3*%
X47500000Y-30000000D03*
%TD*%
D16*
%TO.P,U3,1*%
%TO.N,3V3*%
X2000000Y-28000000D03*
%TO.P,U3,2*%
%TO.N,GND*%
X3300000Y-28000000D03*
%TO.P,U3,3*%
%TO.N,GPS_RX*%
X4700000Y-28000000D03*
%TD*%
D17*
%TO.P,C2,1*%
%TO.N,3V3*%
X9500000Y-22000000D03*
%TO.P,C2,2*%
%TO.N,GND*%
X10500000Y-22000000D03*
%TD*%
D11*
%TO.P,R_DIV1,1*%
%TO.N,3V3*%
X2500000Y-30000000D03*
%TO.P,R_DIV1,2*%
%TO.N,VDIV_MID*%
X3500000Y-30000000D03*
%TD*%
%TO.P,R_PD,1*%
%TO.N,GND*%
X10000000Y-13000000D03*
%TO.P,R_PD,2*%
%TO.N,SPI_MISO*%
X11000000Y-13000000D03*
%TD*%
D16*
%TO.P,FEM,GND*%
%TO.N,GND*%
X41500000Y-25000000D03*
%TO.P,FEM,TX*%
%TO.N,FEM_TX*%
X38500000Y-25000000D03*
%TO.P,FEM,VCC*%
%TO.N,3V3*%
X40000000Y-25000000D03*
%TD*%
D10*
%TO.P,C_CAP,1*%
%TO.N,VCAP*%
X7500000Y-37000000D03*
%TO.P,C_CAP,2*%
%TO.N,GND*%
X12500000Y-37000000D03*
%TD*%
D17*
%TO.P,C1,1*%
%TO.N,VCAP*%
X9500000Y-20000000D03*
%TO.P,C1,2*%
%TO.N,GND*%
X10500000Y-20000000D03*
%TD*%
D18*
%TO.P,U1,GND*%
%TO.N,GND*%
X15500000Y-9750000D03*
%TO.P,U1,GPIO0*%
%TO.N,VDIV_MID*%
X8500000Y-8250000D03*
%TO.P,U1,GPIO1*%
%TO.N,GPS_RX*%
X8500000Y-9750000D03*
%TO.P,U1,GPIO2*%
%TO.N,SPI_MISO*%
X8500000Y-11250000D03*
%TO.P,U1,GPIO3*%
%TO.N,LR2021_RST*%
X8500000Y-12750000D03*
%TO.P,U1,GPIO4*%
%TO.N,LR2021_BUSY*%
X8500000Y-14250000D03*
%TO.P,U1,GPIO5*%
%TO.N,LR2021_DIO9*%
X8500000Y-15750000D03*
%TO.P,U1,GPIO6*%
%TO.N,SPI_SCK*%
X10500000Y-15500000D03*
%TO.P,U1,GPIO7*%
%TO.N,SPI_MOSI*%
X12000000Y-15500000D03*
%TO.P,U1,GPIO9*%
%TO.N,STATUS_LED*%
X15000000Y-15500000D03*
%TO.P,U1,GPIO10*%
%TO.N,SPI_NSS*%
X16500000Y-15500000D03*
%TO.P,U1,GPIO19*%
%TO.N,FEM_TX*%
X15500000Y-12750000D03*
%TO.P,U1,VCC*%
%TO.N,3V3*%
X15500000Y-8250000D03*
%TD*%
D17*
%TO.P,LED1,A*%
%TO.N,LED_ANODE*%
X21500000Y-6000000D03*
%TO.P,LED1,K*%
%TO.N,GND*%
X22500000Y-6000000D03*
%TD*%
D19*
%TO.P,U2,1*%
%TO.N,3V3*%
X15100000Y-17000000D03*
%TO.P,U2,2*%
%TO.N,GND*%
X15100000Y-19000000D03*
%TO.P,U2,3*%
%TO.N,SPI_MISO*%
X15100000Y-21000000D03*
%TO.P,U2,4*%
%TO.N,SPI_MOSI*%
X15100000Y-23000000D03*
%TO.P,U2,5*%
%TO.N,SPI_SCK*%
X15100000Y-25000000D03*
%TO.P,U2,6*%
%TO.N,SPI_NSS*%
X15100000Y-27000000D03*
%TO.P,U2,7*%
%TO.N,LR2021_BUSY*%
X15100000Y-29000000D03*
%TO.P,U2,8*%
%TO.N,GND*%
X15100000Y-31000000D03*
D20*
%TO.P,U2,9*%
%TO.N,RF_SUB_868*%
X15100000Y-33000000D03*
D19*
%TO.P,U2,10*%
%TO.N,GND*%
X34900000Y-17000000D03*
%TO.P,U2,11*%
X34900000Y-19000000D03*
%TO.P,U2,13*%
%TO.N,LR2021_DIO9*%
X34900000Y-23000000D03*
%TO.P,U2,14*%
%TO.N,LR2021_RST*%
X34900000Y-25000000D03*
%TO.P,U2,16*%
%TO.N,GND*%
X34900000Y-29000000D03*
%TO.P,U2,17*%
X34900000Y-31000000D03*
D20*
%TO.P,U2,18*%
%TO.N,RF_2G4_2400*%
X34900000Y-33000000D03*
%TD*%
D21*
%TO.N,3V3*%
X10481000Y-18414000D03*
X10199400Y-24154100D03*
X16964100Y-20279100D03*
%TO.N,GND*%
X21934500Y-7966000D03*
%TO.N,LR2021_DIO9*%
X22188300Y-22850900D03*
X7461100Y-15512600D03*
%TO.N,VCAP*%
X7500000Y-20149700D03*
%TO.N,SOLAR_IN*%
X1730000Y-18166800D03*
D22*
%TO.N,RF_SUB_868*%
X27600700Y-33201900D03*
%TD*%
D23*
%TO.N,3V3*%
X17135000Y-20108200D02*
X16964100Y-20279100D01*
X10481000Y-18414000D02*
X10451900Y-18414000D01*
D24*
X1599800Y-28400200D02*
X1599800Y-29600200D01*
D23*
X4096200Y-22779800D02*
X1599800Y-25276200D01*
X1599800Y-29600200D02*
X1624900Y-29625300D01*
X1599800Y-25276200D02*
X1599800Y-26398100D01*
D25*
X15500000Y-8199999D02*
X17100000Y-17000000D01*
D26*
X1999600Y-30000000D02*
X2500000Y-30000000D01*
D24*
X1599800Y-27599800D02*
X2000000Y-28000000D01*
D23*
X8825100Y-22674900D02*
X8825100Y-22779800D01*
D27*
X8825100Y-22674900D02*
X9500000Y-22000000D01*
D26*
X1624900Y-29625300D02*
X1999600Y-30000000D01*
D28*
X10451900Y-18414000D02*
X10449900Y-18416000D01*
D24*
X2000000Y-28000000D02*
X1599800Y-28400200D01*
X17135000Y-17000000D02*
X15100000Y-17000000D01*
X1599800Y-26398100D02*
X1599800Y-27599800D01*
D28*
X8950000Y-18750000D02*
X10449900Y-18750000D01*
D23*
X8825100Y-22779800D02*
X10199400Y-24154100D01*
X8825100Y-22779800D02*
X4096200Y-22779800D01*
X17135000Y-17000000D02*
X17135000Y-20108200D01*
D28*
X10449900Y-18416000D02*
X10449900Y-18750000D01*
D23*
%TO.N,GND*%
X15100000Y-31000000D02*
X13250000Y-31000000D01*
X20150500Y-9750000D02*
X21934500Y-7966000D01*
X4270000Y-36902100D02*
X4270000Y-37000000D01*
X12899800Y-31000000D02*
X12500000Y-31000000D01*
X17201900Y-9750000D02*
X20150500Y-9750000D01*
D29*
X41500000Y-25000000D02*
X44500000Y-25000000D01*
D27*
X10500000Y-20000000D02*
X10500000Y-22000000D01*
D23*
X12500000Y-34964200D02*
X12500000Y-31000000D01*
X12500000Y-34964200D02*
X12500000Y-37000000D01*
D27*
X17201900Y-9750000D02*
X15500000Y-9750000D01*
D23*
X12500000Y-34964200D02*
X6207900Y-34964200D01*
X6207900Y-34964200D02*
X4270000Y-36902100D01*
X33752500Y-37000000D02*
X12500000Y-37000000D01*
X37500000Y-31000000D02*
X37500000Y-33252500D01*
D27*
X23072200Y-6000000D02*
X22500000Y-6000000D01*
D23*
X34900000Y-29000000D02*
X34900000Y-31000000D01*
X34900000Y-17000000D02*
X34900000Y-19000000D01*
D26*
X3608600Y-32000000D02*
X3500000Y-32000000D01*
D23*
X37500000Y-33252500D02*
X33752500Y-37000000D01*
D30*
X10000000Y-13000000D02*
X8000000Y-17200000D01*
D23*
X6207900Y-34599300D02*
X6207900Y-34964200D01*
D26*
X4179200Y-32570600D02*
X3608600Y-32000000D01*
D30*
X10500000Y-20000000D02*
X15100000Y-19000000D01*
D23*
X4179200Y-32570600D02*
X6207900Y-34599300D01*
X13250000Y-31000000D02*
X12899800Y-31000000D01*
X34900000Y-31000000D02*
X37500000Y-31000000D01*
X23072200Y-6000000D02*
X23072200Y-6828300D01*
X23072200Y-6828300D02*
X21934500Y-7966000D01*
D30*
X10500000Y-20000000D02*
X8000000Y-17200000D01*
%TO.N,SPI_MOSI*%
X12000000Y-15500000D02*
X15100000Y-23000000D01*
%TO.N,SPI_MISO*%
X11000000Y-13000000D02*
X8500000Y-11200000D01*
D27*
%TO.N,LR2021_DIO9*%
X8262600Y-15512600D02*
X7461100Y-15512600D01*
D23*
X34900000Y-23000000D02*
X32300000Y-23000000D01*
D27*
X8500000Y-15750000D02*
X8262600Y-15512600D01*
D23*
X32300000Y-23000000D02*
X32150900Y-22850900D01*
X32150900Y-22850900D02*
X22188300Y-22850900D01*
D27*
%TO.N,LED_ANODE*%
X20500000Y-6000000D02*
X21500000Y-6000000D01*
%TO.N,VCAP*%
X7200200Y-18200200D02*
X7000000Y-18000000D01*
D23*
X7200200Y-19050000D02*
X7200200Y-19849900D01*
D27*
X7699400Y-20149700D02*
X7500000Y-20149700D01*
X7850100Y-20000000D02*
X7700400Y-20149700D01*
X7200200Y-19050000D02*
X7200200Y-18200200D01*
D25*
X8900000Y-17200000D02*
X7000000Y-17300000D01*
D27*
X9500000Y-20000000D02*
X7850100Y-20000000D01*
D23*
X7200200Y-19849900D02*
X7500000Y-20149700D01*
D28*
X7000000Y-17300000D02*
X7050000Y-17250000D01*
D23*
X7699400Y-20149700D02*
X7700400Y-20149700D01*
D28*
X7000000Y-18000000D02*
X7000000Y-17300000D01*
D23*
%TO.N,SOLAR_IN*%
X2600000Y-18000000D02*
X2433200Y-18166800D01*
X2433200Y-18166800D02*
X1730000Y-18166800D01*
X5000000Y-18000000D02*
X2600000Y-18000000D01*
D31*
%TO.N,RF_SUB_868*%
X15100000Y-33201900D02*
X15100000Y-33000000D01*
X46000000Y-23298100D02*
X46000000Y-25000000D01*
X37495400Y-14793500D02*
X27600700Y-14793500D01*
X46000000Y-23298100D02*
X37495400Y-14793500D01*
X15100000Y-33201900D02*
X27600700Y-33201900D01*
D30*
%TO.N,VDIV_MID*%
X3500000Y-30000000D02*
X2500000Y-32000000D01*
%TD*%
M02*
