%TF.GenerationSoftware,KiCad,Pcbnew,9.0.8+dfsg-1*%
%TF.CreationDate,2026-08-05T20:27:48+05:30*%
%TF.ProjectId,v2_adc_v3,76325f61-6463-45f7-9633-2e6b69636164,rev?*%
%TF.SameCoordinates,Original*%
%TF.FileFunction,Copper,L2,Bot*%
%TF.FilePolarity,Positive*%
%FSLAX46Y46*%
G04 Gerber Fmt 4.6, Leading zero omitted, Abs format (unit mm)*
G04 Created by KiCad (PCBNEW 9.0.8+dfsg-1) date 2026-08-05 20:27:48*
%MOMM*%
%LPD*%
G01*
G04 APERTURE LIST*
%TA.AperFunction,ComponentPad*%
%ADD10R,1.600000X1.600000*%
%TD*%
%TA.AperFunction,ComponentPad*%
%ADD11R,1.000000X1.000000*%
%TD*%
%TA.AperFunction,ViaPad*%
%ADD12C,0.600000*%
%TD*%
%TA.AperFunction,ViaPad*%
%ADD13C,0.760000*%
%TD*%
%TA.AperFunction,Conductor*%
%ADD14C,2.000000*%
%TD*%
%TA.AperFunction,Conductor*%
%ADD15C,0.250000*%
%TD*%
G04 APERTURE END LIST*
D10*
%TO.P,SOLAR,1*%
%TO.N,SOLAR_IN*%
X1730000Y-37000000D03*
%TO.P,SOLAR,2*%
%TO.N,GND*%
X4270000Y-37000000D03*
%TD*%
D11*
%TO.P,ANT1,2*%
%TO.N,GND*%
X44500000Y-25000000D03*
%TO.P,ANT1,3*%
X47500000Y-25000000D03*
%TD*%
%TO.P,ANT2,2*%
%TO.N,GND*%
X44500000Y-30000000D03*
%TO.P,ANT2,3*%
X47500000Y-30000000D03*
%TD*%
D10*
%TO.P,C_CAP,1*%
%TO.N,VCAP*%
X7500000Y-37000000D03*
%TO.P,C_CAP,2*%
%TO.N,GND*%
X12500000Y-37000000D03*
%TD*%
D12*
%TO.N,3V3*%
X10481000Y-18414000D03*
X10199400Y-24154100D03*
X16964100Y-20279100D03*
%TO.N,GND*%
X21934500Y-7966000D03*
%TO.N,LR2021_DIO9*%
X22188300Y-22850900D03*
X7461100Y-15512600D03*
%TO.N,VCAP*%
X7500000Y-20149700D03*
%TO.N,SOLAR_IN*%
X1730000Y-18166800D03*
D13*
%TO.N,RF_SUB_868*%
X27600700Y-33201900D03*
%TD*%
D14*
%TO.N,3V3*%
X16870500Y-20372700D02*
X16964100Y-20279100D01*
X10481000Y-23872500D02*
X10199400Y-24154100D01*
X10481000Y-20372700D02*
X16870500Y-20372700D01*
X10481000Y-20372700D02*
X10481000Y-18414000D01*
X10481000Y-20372700D02*
X10481000Y-23872500D01*
%TO.N,GND*%
X44500000Y-25000000D02*
X42000000Y-25000000D01*
X47500000Y-30000000D02*
X44500000Y-30000000D01*
D15*
X3300000Y-28000000D02*
X3500000Y-32000000D01*
X37500000Y-31000000D02*
X44500000Y-30000000D01*
X17200000Y-9800000D02*
X10000000Y-13000000D01*
D14*
X21934500Y-7966000D02*
X24966000Y-7966000D01*
X47500000Y-25000000D02*
X47500000Y-30000000D01*
X44500000Y-30000000D02*
X44500000Y-25000000D01*
X24966000Y-7966000D02*
X42000000Y-25000000D01*
%TO.N,LR2021_DIO9*%
X22188300Y-22850900D02*
X22188300Y-22389700D01*
X15311200Y-15512600D02*
X7461100Y-15512600D01*
X22188300Y-22389700D02*
X15311200Y-15512600D01*
%TO.N,VCAP*%
X7500000Y-20149700D02*
X7500000Y-37000000D01*
%TO.N,SOLAR_IN*%
X1730000Y-37000000D02*
X1730000Y-18166800D01*
%TD*%
M02*
