%TF.GenerationSoftware,KiCad,Pcbnew,9.0.8+dfsg-1*%
%TF.CreationDate,2026-08-05T20:21:20+05:30*%
%TF.ProjectId,v2_adc_v3,76325f61-6463-45f7-9633-2e6b69636164,rev?*%
%TF.SameCoordinates,Original*%
%TF.FileFunction,Soldermask,Bot*%
%TF.FilePolarity,Negative*%
%FSLAX46Y46*%
G04 Gerber Fmt 4.6, Leading zero omitted, Abs format (unit mm)*
G04 Created by KiCad (PCBNEW 9.0.8+dfsg-1) date 2026-08-05 20:21:20*
%MOMM*%
%LPD*%
G01*
G04 APERTURE LIST*
G04 APERTURE END LIST*
G36*
X2530000Y-37800000D02*
G01*
X930000Y-37800000D01*
X930000Y-36200000D01*
X2530000Y-36200000D01*
X2530000Y-37800000D01*
G37*
G36*
X5070000Y-37800000D02*
G01*
X3470000Y-37800000D01*
X3470000Y-36200000D01*
X5070000Y-36200000D01*
X5070000Y-37800000D01*
G37*
G36*
X8300000Y-37800000D02*
G01*
X6700000Y-37800000D01*
X6700000Y-36200000D01*
X8300000Y-36200000D01*
X8300000Y-37800000D01*
G37*
G36*
X13300000Y-37800000D02*
G01*
X11700000Y-37800000D01*
X11700000Y-36200000D01*
X13300000Y-36200000D01*
X13300000Y-37800000D01*
G37*
G36*
X45000000Y-30500000D02*
G01*
X44000000Y-30500000D01*
X44000000Y-29500000D01*
X45000000Y-29500000D01*
X45000000Y-30500000D01*
G37*
G36*
X48000000Y-30500000D02*
G01*
X47000000Y-30500000D01*
X47000000Y-29500000D01*
X48000000Y-29500000D01*
X48000000Y-30500000D01*
G37*
G36*
X45000000Y-25500000D02*
G01*
X44000000Y-25500000D01*
X44000000Y-24500000D01*
X45000000Y-24500000D01*
X45000000Y-25500000D01*
G37*
G36*
X48000000Y-25500000D02*
G01*
X47000000Y-25500000D01*
X47000000Y-24500000D01*
X48000000Y-24500000D01*
X48000000Y-25500000D01*
G37*
M02*
