%TF.GenerationSoftware,KiCad,Pcbnew,9.0.8+dfsg-1*%
%TF.CreationDate,2026-10-05T04:22:02+02:00*%
%TF.ProjectId,v8i_krt_gnss,7638695f-6b72-4745-9f67-6e73732e6b69,rev?*%
%TF.SameCoordinates,Original*%
%TF.FileFunction,Copper,L2,Inr*%
%TF.FilePolarity,Positive*%
%FSLAX46Y46*%
G04 Gerber Fmt 4.6, Leading zero omitted, Abs format (unit mm)*
G04 Created by KiCad (PCBNEW 9.0.8+dfsg-1) date 2026-10-05 04:22:02*
%MOMM*%
%LPD*%
G01*
G04 APERTURE LIST*
G04 Aperture macros list*
%AMRoundRect*
0 Rectangle with rounded corners*
0 $1 Rounding radius*
0 $2 $3 $4 $5 $6 $7 $8 $9 X,Y pos of 4 corners*
0 Add a 4 corners polygon primitive as box body*
4,1,4,$2,$3,$4,$5,$6,$7,$8,$9,$2,$3,0*
0 Add four circle primitives for the rounded corners*
1,1,$1+$1,$2,$3*
1,1,$1+$1,$4,$5*
1,1,$1+$1,$6,$7*
1,1,$1+$1,$8,$9*
0 Add four rect primitives between the rounded corners*
20,1,$1+$1,$2,$3,$4,$5,0*
20,1,$1+$1,$4,$5,$6,$7,0*
20,1,$1+$1,$6,$7,$8,$9,0*
20,1,$1+$1,$8,$9,$2,$3,0*%
G04 Aperture macros list end*
%TA.AperFunction,ComponentPad*%
%ADD10RoundRect,0.250000X0.750000X-0.750000X0.750000X0.750000X-0.750000X0.750000X-0.750000X-0.750000X0*%
%TD*%
%TA.AperFunction,ComponentPad*%
%ADD11C,2.000000*%
%TD*%
%TA.AperFunction,ComponentPad*%
%ADD12R,1.700000X1.700000*%
%TD*%
%TA.AperFunction,ComponentPad*%
%ADD13C,1.700000*%
%TD*%
%TA.AperFunction,HeatsinkPad*%
%ADD14C,0.600000*%
%TD*%
%TA.AperFunction,ViaPad*%
%ADD15C,0.600000*%
%TD*%
%TA.AperFunction,Conductor*%
%ADD16C,0.300000*%
%TD*%
%TA.AperFunction,Conductor*%
%ADD17C,0.200000*%
%TD*%
G04 APERTURE END LIST*
D10*
%TO.N,VCAP*%
%TO.C,C_CAP*%
X6000000Y-30000000D03*
D11*
%TO.N,GND*%
X6000000Y-25000000D03*
%TD*%
D12*
%TO.N,GND*%
%TO.C,J2*%
X40000000Y-42000000D03*
D13*
%TO.N,+3V3*%
X42540000Y-42000000D03*
%TO.N,I2C_SDA*%
X45080000Y-42000000D03*
%TO.N,I2C_SCL*%
X47620000Y-42000000D03*
%TD*%
D12*
%TO.N,SOLAR_IN*%
%TO.C,SOLAR*%
X4000000Y-42000000D03*
D13*
%TO.N,GND*%
X6540000Y-42000000D03*
%TD*%
D14*
%TO.N,GND*%
%TO.C,U1*%
X12860000Y-11650000D03*
X12860000Y-12750000D03*
X13410000Y-11100000D03*
X13410000Y-12200000D03*
X13410000Y-13300000D03*
X13960000Y-11650000D03*
X13960000Y-12750000D03*
X14510000Y-11100000D03*
X14510000Y-12200000D03*
X14510000Y-13300000D03*
X15060000Y-11650000D03*
X15060000Y-12750000D03*
%TD*%
D12*
%TO.N,GND*%
%TO.C,J1*%
X20000000Y-42000000D03*
D13*
%TO.N,+3V3*%
X22540000Y-42000000D03*
%TO.N,EN*%
X25080000Y-42000000D03*
%TO.N,UART0_TX*%
X27620000Y-42000000D03*
%TO.N,UART0_RX*%
X30160000Y-42000000D03*
%TO.N,N/C*%
X32700000Y-42000000D03*
%TD*%
D15*
%TO.N,+3V3*%
X32800000Y-29200000D03*
X13200000Y-22800000D03*
X46300000Y-12800000D03*
X19900000Y-25500000D03*
X2900000Y-6100000D03*
X22000000Y-36300000D03*
X47900000Y-2900000D03*
X23400000Y-35800000D03*
X51900000Y-11200000D03*
X13100000Y-36500000D03*
%TO.N,GND*%
X19000000Y-23600000D03*
X50100000Y-11800000D03*
X44500000Y-31400000D03*
X52875000Y-42000000D03*
X21300000Y-35000000D03*
X48700000Y-37000000D03*
X46300000Y-5800000D03*
X51450000Y-43500000D03*
X27900000Y-2900000D03*
X48700000Y-32500000D03*
X26400000Y-10000000D03*
X4400000Y-19000000D03*
X44500000Y-29200000D03*
X15000000Y-23900000D03*
X49875000Y-42000000D03*
%TO.N,VCAP*%
X4500000Y-35900000D03*
X18300000Y-29200000D03*
X17900000Y-30900000D03*
X23400000Y-24200000D03*
X4500000Y-34700000D03*
%TO.N,SOLAR_IN*%
X7200000Y-39200000D03*
X24800000Y-21900000D03*
%TO.N,GPS_TX*%
X23100000Y-7300000D03*
X24500000Y-11400000D03*
X32800000Y-24600000D03*
X32800000Y-23200000D03*
%TO.N,SPI_MISO*%
X26500000Y-6400000D03*
X29600000Y-6400000D03*
%TO.N,SPI_SCK*%
X5600000Y-12400000D03*
X5900000Y-10400000D03*
X20000000Y-12000000D03*
X29600000Y-9700000D03*
%TO.N,SPI_MOSI*%
X30500000Y-8300000D03*
X6700000Y-13500000D03*
%TO.N,SPI_NSS*%
X29600000Y-10900000D03*
X23100000Y-18500000D03*
%TO.N,LR_BUSY*%
X2900000Y-8700000D03*
X29700000Y-11700000D03*
%TO.N,LR_IRQ*%
X26500000Y-7600000D03*
X24000000Y-10100000D03*
%TO.N,I2C_SDA*%
X43300000Y-40200000D03*
X15700000Y-35000000D03*
X19000000Y-35000000D03*
%TO.N,I2C_SCL*%
X9100000Y-14100000D03*
X24700000Y-35500000D03*
X23100000Y-33700000D03*
X5600000Y-17000000D03*
%TO.N,LED_DRIVE*%
X20000000Y-13800000D03*
X23100000Y-12000000D03*
%TO.N,UART0_TX*%
X29800000Y-23400000D03*
%TO.N,UART0_RX*%
X28900000Y-23400000D03*
X30200000Y-39100000D03*
%TD*%
D16*
%TO.N,+3V3*%
X50400000Y-12800000D02*
X51900000Y-11300000D01*
X46300000Y-12800000D02*
X50400000Y-12800000D01*
X51900000Y-11300000D02*
X51900000Y-11200000D01*
%TO.N,GND*%
X46800000Y-7600000D02*
X46800000Y-7500000D01*
X15700000Y-23100000D02*
X15700000Y-23200000D01*
X27400000Y-3400000D02*
X27900000Y-2900000D01*
X50600000Y-11500000D02*
X50900000Y-11500000D01*
X18985000Y-24425000D02*
X19000000Y-24400000D01*
X46700000Y-7400000D02*
X46700000Y-7300000D01*
X19000000Y-24400000D02*
X19000000Y-23600000D01*
X46500000Y-7000000D02*
X46500000Y-6900000D01*
X47500000Y-9200000D02*
X47500000Y-8800000D01*
X4300000Y-18100000D02*
X4300000Y-18900000D01*
X47200000Y-8400000D02*
X47200000Y-8300000D01*
X46900000Y-7700000D02*
X46800000Y-7600000D01*
X47500000Y-8800000D02*
X47300000Y-8600000D01*
X50100000Y-11800000D02*
X50300000Y-11800000D01*
X46700000Y-7300000D02*
X46600000Y-7200000D01*
X46600000Y-7200000D02*
X46600000Y-7100000D01*
X46600000Y-7100000D02*
X46500000Y-7000000D01*
X27385000Y-3385000D02*
X27400000Y-3400000D01*
X47000000Y-8000000D02*
X47000000Y-7900000D01*
X15705000Y-23065000D02*
X15700000Y-23100000D01*
X46800000Y-7500000D02*
X46700000Y-7400000D01*
X4265000Y-18105000D02*
X4300000Y-18100000D01*
X4300000Y-18900000D02*
X4400000Y-19000000D01*
X50300000Y-11800000D02*
X50600000Y-11500000D01*
X47200000Y-8300000D02*
X47100000Y-8200000D01*
X50100000Y-11800000D02*
X47500000Y-9200000D01*
X47300000Y-8600000D02*
X47300000Y-8500000D01*
X47000000Y-7900000D02*
X46900000Y-7800000D01*
X46300000Y-6700000D02*
X46300000Y-5800000D01*
X47100000Y-8100000D02*
X47000000Y-8000000D01*
X47300000Y-8500000D02*
X47200000Y-8400000D01*
X50900000Y-11500000D02*
X50905000Y-11465000D01*
X46900000Y-7800000D02*
X46900000Y-7700000D01*
X46500000Y-6900000D02*
X46300000Y-6700000D01*
X47100000Y-8200000D02*
X47100000Y-8100000D01*
X15700000Y-23200000D02*
X15000000Y-23900000D01*
D17*
%TO.N,VCAP*%
X4500000Y-34700000D02*
X4500000Y-35900000D01*
X18300000Y-29200000D02*
X23300000Y-24200000D01*
%TO.N,SOLAR_IN*%
X17829289Y-28729289D02*
X7500000Y-39200000D01*
X24800000Y-21900000D02*
X17829289Y-28729289D01*
%TO.N,GPS_TX*%
X32800000Y-23200000D02*
X32800000Y-24600000D01*
%TO.N,SPI_SCK*%
X5900000Y-10400000D02*
X5600000Y-10700000D01*
X5600000Y-10700000D02*
X5600000Y-12400000D01*
%TO.N,SPI_NSS*%
X29600000Y-10900000D02*
X23100000Y-17400000D01*
X23100000Y-17400000D02*
X23100000Y-18500000D01*
%TO.N,I2C_SDA*%
X15700000Y-35000000D02*
X19000000Y-35000000D01*
%TO.N,I2C_SCL*%
X24700000Y-35500000D02*
X23100000Y-33900000D01*
X6000000Y-16500000D02*
X5600000Y-16900000D01*
X6700000Y-16500000D02*
X6000000Y-16500000D01*
X9100000Y-14100000D02*
X6700000Y-16500000D01*
%TO.N,UART0_RX*%
X30200000Y-24700000D02*
X30200000Y-39100000D01*
X28900000Y-23400000D02*
X30200000Y-24700000D01*
%TD*%
%TA.AperFunction,Conductor*%
%TO.N,GND*%
G36*
X54458691Y-519407D02*
G01*
X54494655Y-568907D01*
X54499500Y-599500D01*
X54499500Y-44400500D01*
X54480593Y-44458691D01*
X54431093Y-44494655D01*
X54400500Y-44499500D01*
X599500Y-44499500D01*
X541309Y-44480593D01*
X505345Y-44431093D01*
X500500Y-44400500D01*
X500500Y-41130253D01*
X2949500Y-41130253D01*
X2949500Y-42869746D01*
X2949501Y-42869758D01*
X2961132Y-42928227D01*
X2961134Y-42928233D01*
X3005445Y-42994548D01*
X3005448Y-42994552D01*
X3005451Y-42994554D01*
X3058853Y-43030237D01*
X3071769Y-43038867D01*
X3116231Y-43047711D01*
X3130241Y-43050498D01*
X3130246Y-43050498D01*
X3130252Y-43050500D01*
X3130253Y-43050500D01*
X4869747Y-43050500D01*
X4869748Y-43050500D01*
X4928231Y-43038867D01*
X4994552Y-42994552D01*
X5038867Y-42928231D01*
X5050500Y-42869748D01*
X5050500Y-41913424D01*
X5440000Y-41913424D01*
X5440000Y-42086575D01*
X5467084Y-42257579D01*
X5520588Y-42422248D01*
X5599196Y-42576524D01*
X5603708Y-42582735D01*
X6057036Y-42129406D01*
X6074075Y-42192993D01*
X6139901Y-42307007D01*
X6232993Y-42400099D01*
X6347007Y-42465925D01*
X6410589Y-42482962D01*
X5957262Y-42936289D01*
X5957262Y-42936290D01*
X5963469Y-42940800D01*
X5963475Y-42940804D01*
X6117751Y-43019411D01*
X6282420Y-43072915D01*
X6453425Y-43100000D01*
X6626575Y-43100000D01*
X6797579Y-43072915D01*
X6962248Y-43019411D01*
X7116523Y-42940804D01*
X7116530Y-42940800D01*
X7122736Y-42936290D01*
X6669408Y-42482962D01*
X6732993Y-42465925D01*
X6847007Y-42400099D01*
X6940099Y-42307007D01*
X7005925Y-42192993D01*
X7022962Y-42129408D01*
X7476290Y-42582736D01*
X7480800Y-42576530D01*
X7480804Y-42576523D01*
X7559411Y-42422248D01*
X7612915Y-42257579D01*
X7640000Y-42086575D01*
X7640000Y-41913424D01*
X7639338Y-41909245D01*
X7637501Y-41897644D01*
X13699500Y-41897644D01*
X13699500Y-42102355D01*
X13731521Y-42304529D01*
X13794780Y-42499219D01*
X13887712Y-42681609D01*
X13887714Y-42681613D01*
X14008029Y-42847213D01*
X14008031Y-42847215D01*
X14008034Y-42847219D01*
X14152781Y-42991966D01*
X14152784Y-42991968D01*
X14152786Y-42991970D01*
X14318386Y-43112285D01*
X14318390Y-43112287D01*
X14500781Y-43205220D01*
X14695466Y-43268477D01*
X14695467Y-43268477D01*
X14695470Y-43268478D01*
X14897645Y-43300500D01*
X14897648Y-43300500D01*
X15102355Y-43300500D01*
X15304529Y-43268478D01*
X15304530Y-43268477D01*
X15304534Y-43268477D01*
X15499219Y-43205220D01*
X15681610Y-43112287D01*
X15718491Y-43085492D01*
X15766653Y-43050500D01*
X15847219Y-42991966D01*
X15991966Y-42847219D01*
X16112287Y-42681610D01*
X16205220Y-42499219D01*
X16268477Y-42304534D01*
X16275914Y-42257579D01*
X16286063Y-42193506D01*
X16300500Y-42102355D01*
X16300500Y-41897645D01*
X16300499Y-41897644D01*
X16300323Y-41896535D01*
X16284488Y-41796557D01*
X16268478Y-41695470D01*
X16268477Y-41695466D01*
X16205220Y-41500781D01*
X16112287Y-41318390D01*
X16112285Y-41318386D01*
X16010799Y-41178702D01*
X15991970Y-41152786D01*
X15991968Y-41152784D01*
X15991966Y-41152781D01*
X15964560Y-41125375D01*
X18900000Y-41125375D01*
X18900000Y-41749999D01*
X18900001Y-41750000D01*
X19566988Y-41750000D01*
X19534075Y-41807007D01*
X19500000Y-41934174D01*
X19500000Y-42065826D01*
X19534075Y-42192993D01*
X19566988Y-42250000D01*
X18900001Y-42250000D01*
X18900000Y-42250001D01*
X18900000Y-42874624D01*
X18914506Y-42947546D01*
X18914507Y-42947548D01*
X18969758Y-43030237D01*
X18969762Y-43030241D01*
X19052451Y-43085492D01*
X19052453Y-43085493D01*
X19125375Y-43099999D01*
X19125377Y-43100000D01*
X19749999Y-43100000D01*
X19750000Y-43099999D01*
X19750000Y-42433012D01*
X19807007Y-42465925D01*
X19934174Y-42500000D01*
X20065826Y-42500000D01*
X20192993Y-42465925D01*
X20250000Y-42433012D01*
X20250000Y-43099999D01*
X20250001Y-43100000D01*
X20874623Y-43100000D01*
X20874624Y-43099999D01*
X20947546Y-43085493D01*
X20947548Y-43085492D01*
X21030237Y-43030241D01*
X21030241Y-43030237D01*
X21085492Y-42947548D01*
X21085493Y-42947546D01*
X21099999Y-42874624D01*
X21100000Y-42874622D01*
X21100000Y-42250001D01*
X21099999Y-42250000D01*
X20433012Y-42250000D01*
X20465925Y-42192993D01*
X20500000Y-42065826D01*
X20500000Y-41934174D01*
X20489914Y-41896532D01*
X21489500Y-41896532D01*
X21489500Y-42103467D01*
X21529869Y-42306418D01*
X21609058Y-42497597D01*
X21661795Y-42576524D01*
X21724023Y-42669655D01*
X21870345Y-42815977D01*
X22042402Y-42930941D01*
X22233580Y-43010130D01*
X22436535Y-43050500D01*
X22436536Y-43050500D01*
X22643464Y-43050500D01*
X22643465Y-43050500D01*
X22846420Y-43010130D01*
X23037598Y-42930941D01*
X23209655Y-42815977D01*
X23355977Y-42669655D01*
X23470941Y-42497598D01*
X23550130Y-42306420D01*
X23590500Y-42103465D01*
X23590500Y-41896535D01*
X23590499Y-41896532D01*
X24029500Y-41896532D01*
X24029500Y-42103467D01*
X24069869Y-42306418D01*
X24149058Y-42497597D01*
X24201795Y-42576524D01*
X24264023Y-42669655D01*
X24410345Y-42815977D01*
X24582402Y-42930941D01*
X24773580Y-43010130D01*
X24976535Y-43050500D01*
X24976536Y-43050500D01*
X25183464Y-43050500D01*
X25183465Y-43050500D01*
X25386420Y-43010130D01*
X25577598Y-42930941D01*
X25749655Y-42815977D01*
X25895977Y-42669655D01*
X26010941Y-42497598D01*
X26090130Y-42306420D01*
X26130500Y-42103465D01*
X26130500Y-41896535D01*
X26130499Y-41896532D01*
X26569500Y-41896532D01*
X26569500Y-42103467D01*
X26609869Y-42306418D01*
X26689058Y-42497597D01*
X26741795Y-42576524D01*
X26804023Y-42669655D01*
X26950345Y-42815977D01*
X27122402Y-42930941D01*
X27313580Y-43010130D01*
X27516535Y-43050500D01*
X27516536Y-43050500D01*
X27723464Y-43050500D01*
X27723465Y-43050500D01*
X27926420Y-43010130D01*
X28117598Y-42930941D01*
X28289655Y-42815977D01*
X28435977Y-42669655D01*
X28550941Y-42497598D01*
X28630130Y-42306420D01*
X28670500Y-42103465D01*
X28670500Y-41896535D01*
X28670499Y-41896532D01*
X29109500Y-41896532D01*
X29109500Y-42103467D01*
X29149869Y-42306418D01*
X29229058Y-42497597D01*
X29281795Y-42576524D01*
X29344023Y-42669655D01*
X29490345Y-42815977D01*
X29662402Y-42930941D01*
X29853580Y-43010130D01*
X30056535Y-43050500D01*
X30056536Y-43050500D01*
X30263464Y-43050500D01*
X30263465Y-43050500D01*
X30466420Y-43010130D01*
X30657598Y-42930941D01*
X30829655Y-42815977D01*
X30975977Y-42669655D01*
X31090941Y-42497598D01*
X31170130Y-42306420D01*
X31210500Y-42103465D01*
X31210500Y-41896535D01*
X31210499Y-41896532D01*
X31649500Y-41896532D01*
X31649500Y-42103467D01*
X31689869Y-42306418D01*
X31769058Y-42497597D01*
X31821795Y-42576524D01*
X31884023Y-42669655D01*
X32030345Y-42815977D01*
X32202402Y-42930941D01*
X32393580Y-43010130D01*
X32596535Y-43050500D01*
X32596536Y-43050500D01*
X32803464Y-43050500D01*
X32803465Y-43050500D01*
X33006420Y-43010130D01*
X33197598Y-42930941D01*
X33369655Y-42815977D01*
X33515977Y-42669655D01*
X33630941Y-42497598D01*
X33710130Y-42306420D01*
X33750500Y-42103465D01*
X33750500Y-41896535D01*
X33710130Y-41693580D01*
X33630941Y-41502402D01*
X33515977Y-41330345D01*
X33369655Y-41184023D01*
X33361692Y-41178702D01*
X33281882Y-41125375D01*
X38900000Y-41125375D01*
X38900000Y-41749999D01*
X38900001Y-41750000D01*
X39566988Y-41750000D01*
X39534075Y-41807007D01*
X39500000Y-41934174D01*
X39500000Y-42065826D01*
X39534075Y-42192993D01*
X39566988Y-42250000D01*
X38900001Y-42250000D01*
X38900000Y-42250001D01*
X38900000Y-42874624D01*
X38914506Y-42947546D01*
X38914507Y-42947548D01*
X38969758Y-43030237D01*
X38969762Y-43030241D01*
X39052451Y-43085492D01*
X39052453Y-43085493D01*
X39125375Y-43099999D01*
X39125377Y-43100000D01*
X39749999Y-43100000D01*
X39750000Y-43099999D01*
X39750000Y-42433012D01*
X39807007Y-42465925D01*
X39934174Y-42500000D01*
X40065826Y-42500000D01*
X40192993Y-42465925D01*
X40250000Y-42433012D01*
X40250000Y-43099999D01*
X40250001Y-43100000D01*
X40874623Y-43100000D01*
X40874624Y-43099999D01*
X40947546Y-43085493D01*
X40947548Y-43085492D01*
X41030237Y-43030241D01*
X41030241Y-43030237D01*
X41085492Y-42947548D01*
X41085493Y-42947546D01*
X41099999Y-42874624D01*
X41100000Y-42874622D01*
X41100000Y-42250001D01*
X41099999Y-42250000D01*
X40433012Y-42250000D01*
X40465925Y-42192993D01*
X40500000Y-42065826D01*
X40500000Y-41934174D01*
X40489914Y-41896532D01*
X41489500Y-41896532D01*
X41489500Y-42103467D01*
X41529869Y-42306418D01*
X41609058Y-42497597D01*
X41661795Y-42576524D01*
X41724023Y-42669655D01*
X41870345Y-42815977D01*
X42042402Y-42930941D01*
X42233580Y-43010130D01*
X42436535Y-43050500D01*
X42436536Y-43050500D01*
X42643464Y-43050500D01*
X42643465Y-43050500D01*
X42846420Y-43010130D01*
X43037598Y-42930941D01*
X43209655Y-42815977D01*
X43355977Y-42669655D01*
X43470941Y-42497598D01*
X43550130Y-42306420D01*
X43590500Y-42103465D01*
X43590500Y-41896535D01*
X43590499Y-41896532D01*
X44029500Y-41896532D01*
X44029500Y-42103467D01*
X44069869Y-42306418D01*
X44149058Y-42497597D01*
X44201795Y-42576524D01*
X44264023Y-42669655D01*
X44410345Y-42815977D01*
X44582402Y-42930941D01*
X44773580Y-43010130D01*
X44976535Y-43050500D01*
X44976536Y-43050500D01*
X45183464Y-43050500D01*
X45183465Y-43050500D01*
X45386420Y-43010130D01*
X45577598Y-42930941D01*
X45749655Y-42815977D01*
X45895977Y-42669655D01*
X46010941Y-42497598D01*
X46090130Y-42306420D01*
X46130500Y-42103465D01*
X46130500Y-41896535D01*
X46130499Y-41896532D01*
X46569500Y-41896532D01*
X46569500Y-42103467D01*
X46609869Y-42306418D01*
X46689058Y-42497597D01*
X46741795Y-42576524D01*
X46804023Y-42669655D01*
X46950345Y-42815977D01*
X47122402Y-42930941D01*
X47313580Y-43010130D01*
X47516535Y-43050500D01*
X47516536Y-43050500D01*
X47723464Y-43050500D01*
X47723465Y-43050500D01*
X47926420Y-43010130D01*
X48117598Y-42930941D01*
X48289655Y-42815977D01*
X48435977Y-42669655D01*
X48550941Y-42497598D01*
X48630130Y-42306420D01*
X48670500Y-42103465D01*
X48670500Y-41896535D01*
X48630130Y-41693580D01*
X48550941Y-41502402D01*
X48435977Y-41330345D01*
X48289655Y-41184023D01*
X48281692Y-41178702D01*
X48117597Y-41069058D01*
X47926418Y-40989869D01*
X47723467Y-40949500D01*
X47723465Y-40949500D01*
X47516535Y-40949500D01*
X47516532Y-40949500D01*
X47313581Y-40989869D01*
X47122402Y-41069058D01*
X46950348Y-41184020D01*
X46804020Y-41330348D01*
X46689058Y-41502402D01*
X46609869Y-41693581D01*
X46569500Y-41896532D01*
X46130499Y-41896532D01*
X46090130Y-41693580D01*
X46010941Y-41502402D01*
X45895977Y-41330345D01*
X45749655Y-41184023D01*
X45741692Y-41178702D01*
X45577597Y-41069058D01*
X45386418Y-40989869D01*
X45183467Y-40949500D01*
X45183465Y-40949500D01*
X44976535Y-40949500D01*
X44976532Y-40949500D01*
X44773581Y-40989869D01*
X44582402Y-41069058D01*
X44410348Y-41184020D01*
X44264020Y-41330348D01*
X44149058Y-41502402D01*
X44069869Y-41693581D01*
X44029500Y-41896532D01*
X43590499Y-41896532D01*
X43550130Y-41693580D01*
X43470941Y-41502402D01*
X43355977Y-41330345D01*
X43209655Y-41184023D01*
X43201692Y-41178702D01*
X43037597Y-41069058D01*
X42846418Y-40989869D01*
X42643467Y-40949500D01*
X42643465Y-40949500D01*
X42436535Y-40949500D01*
X42436532Y-40949500D01*
X42233581Y-40989869D01*
X42042402Y-41069058D01*
X41870348Y-41184020D01*
X41724020Y-41330348D01*
X41609058Y-41502402D01*
X41529869Y-41693581D01*
X41489500Y-41896532D01*
X40489914Y-41896532D01*
X40465925Y-41807007D01*
X40433012Y-41750000D01*
X41099999Y-41750000D01*
X41100000Y-41749999D01*
X41100000Y-41125377D01*
X41099999Y-41125375D01*
X41085493Y-41052453D01*
X41085492Y-41052451D01*
X41030241Y-40969762D01*
X41030237Y-40969758D01*
X40947548Y-40914507D01*
X40947546Y-40914506D01*
X40874624Y-40900000D01*
X40250001Y-40900000D01*
X40250000Y-40900001D01*
X40250000Y-41566988D01*
X40192993Y-41534075D01*
X40065826Y-41500000D01*
X39934174Y-41500000D01*
X39807007Y-41534075D01*
X39750000Y-41566988D01*
X39750000Y-40900001D01*
X39749999Y-40900000D01*
X39125375Y-40900000D01*
X39052453Y-40914506D01*
X39052451Y-40914507D01*
X38969762Y-40969758D01*
X38969758Y-40969762D01*
X38914507Y-41052451D01*
X38914506Y-41052453D01*
X38900000Y-41125375D01*
X33281882Y-41125375D01*
X33197597Y-41069058D01*
X33006418Y-40989869D01*
X32803467Y-40949500D01*
X32803465Y-40949500D01*
X32596535Y-40949500D01*
X32596532Y-40949500D01*
X32393581Y-40989869D01*
X32202402Y-41069058D01*
X32030348Y-41184020D01*
X31884020Y-41330348D01*
X31769058Y-41502402D01*
X31689869Y-41693581D01*
X31649500Y-41896532D01*
X31210499Y-41896532D01*
X31170130Y-41693580D01*
X31090941Y-41502402D01*
X30975977Y-41330345D01*
X30829655Y-41184023D01*
X30821692Y-41178702D01*
X30657597Y-41069058D01*
X30466418Y-40989869D01*
X30263467Y-40949500D01*
X30263465Y-40949500D01*
X30056535Y-40949500D01*
X30056532Y-40949500D01*
X29853581Y-40989869D01*
X29662402Y-41069058D01*
X29490348Y-41184020D01*
X29344020Y-41330348D01*
X29229058Y-41502402D01*
X29149869Y-41693581D01*
X29109500Y-41896532D01*
X28670499Y-41896532D01*
X28630130Y-41693580D01*
X28550941Y-41502402D01*
X28435977Y-41330345D01*
X28289655Y-41184023D01*
X28281692Y-41178702D01*
X28117597Y-41069058D01*
X27926418Y-40989869D01*
X27723467Y-40949500D01*
X27723465Y-40949500D01*
X27516535Y-40949500D01*
X27516532Y-40949500D01*
X27313581Y-40989869D01*
X27122402Y-41069058D01*
X26950348Y-41184020D01*
X26804020Y-41330348D01*
X26689058Y-41502402D01*
X26609869Y-41693581D01*
X26569500Y-41896532D01*
X26130499Y-41896532D01*
X26090130Y-41693580D01*
X26010941Y-41502402D01*
X25895977Y-41330345D01*
X25749655Y-41184023D01*
X25741692Y-41178702D01*
X25577597Y-41069058D01*
X25386418Y-40989869D01*
X25183467Y-40949500D01*
X25183465Y-40949500D01*
X24976535Y-40949500D01*
X24976532Y-40949500D01*
X24773581Y-40989869D01*
X24582402Y-41069058D01*
X24410348Y-41184020D01*
X24264020Y-41330348D01*
X24149058Y-41502402D01*
X24069869Y-41693581D01*
X24029500Y-41896532D01*
X23590499Y-41896532D01*
X23550130Y-41693580D01*
X23470941Y-41502402D01*
X23355977Y-41330345D01*
X23209655Y-41184023D01*
X23201692Y-41178702D01*
X23037597Y-41069058D01*
X22846418Y-40989869D01*
X22643467Y-40949500D01*
X22643465Y-40949500D01*
X22436535Y-40949500D01*
X22436532Y-40949500D01*
X22233581Y-40989869D01*
X22042402Y-41069058D01*
X21870348Y-41184020D01*
X21724020Y-41330348D01*
X21609058Y-41502402D01*
X21529869Y-41693581D01*
X21489500Y-41896532D01*
X20489914Y-41896532D01*
X20465925Y-41807007D01*
X20433012Y-41750000D01*
X21099999Y-41750000D01*
X21100000Y-41749999D01*
X21100000Y-41125377D01*
X21099999Y-41125375D01*
X21085493Y-41052453D01*
X21085492Y-41052451D01*
X21030241Y-40969762D01*
X21030237Y-40969758D01*
X20947548Y-40914507D01*
X20947546Y-40914506D01*
X20874624Y-40900000D01*
X20250001Y-40900000D01*
X20250000Y-40900001D01*
X20250000Y-41566988D01*
X20192993Y-41534075D01*
X20065826Y-41500000D01*
X19934174Y-41500000D01*
X19807007Y-41534075D01*
X19750000Y-41566988D01*
X19750000Y-40900001D01*
X19749999Y-40900000D01*
X19125375Y-40900000D01*
X19052453Y-40914506D01*
X19052451Y-40914507D01*
X18969762Y-40969758D01*
X18969758Y-40969762D01*
X18914507Y-41052451D01*
X18914506Y-41052453D01*
X18900000Y-41125375D01*
X15964560Y-41125375D01*
X15847219Y-41008034D01*
X15847215Y-41008031D01*
X15847213Y-41008029D01*
X15681613Y-40887714D01*
X15681609Y-40887712D01*
X15499219Y-40794780D01*
X15304529Y-40731521D01*
X15102355Y-40699500D01*
X15102352Y-40699500D01*
X14897648Y-40699500D01*
X14897645Y-40699500D01*
X14695470Y-40731521D01*
X14500780Y-40794780D01*
X14318390Y-40887712D01*
X14318386Y-40887714D01*
X14152786Y-41008029D01*
X14008029Y-41152786D01*
X13887714Y-41318386D01*
X13887712Y-41318390D01*
X13794780Y-41500780D01*
X13731521Y-41695470D01*
X13699500Y-41897644D01*
X7637501Y-41897644D01*
X7612915Y-41742420D01*
X7559411Y-41577751D01*
X7480804Y-41423475D01*
X7480800Y-41423469D01*
X7476290Y-41417262D01*
X7476289Y-41417262D01*
X7022962Y-41870589D01*
X7005925Y-41807007D01*
X6940099Y-41692993D01*
X6847007Y-41599901D01*
X6732993Y-41534075D01*
X6669407Y-41517036D01*
X7122736Y-41063708D01*
X7116524Y-41059196D01*
X6962248Y-40980588D01*
X6797579Y-40927084D01*
X6626575Y-40900000D01*
X6453425Y-40900000D01*
X6282420Y-40927084D01*
X6117751Y-40980588D01*
X5963478Y-41059194D01*
X5957262Y-41063708D01*
X6410591Y-41517037D01*
X6347007Y-41534075D01*
X6232993Y-41599901D01*
X6139901Y-41692993D01*
X6074075Y-41807007D01*
X6057037Y-41870591D01*
X5603708Y-41417262D01*
X5599194Y-41423478D01*
X5520588Y-41577751D01*
X5467084Y-41742420D01*
X5440000Y-41913424D01*
X5050500Y-41913424D01*
X5050500Y-41130252D01*
X5038867Y-41071769D01*
X4994552Y-41005448D01*
X4994548Y-41005445D01*
X4928233Y-40961134D01*
X4928231Y-40961133D01*
X4928228Y-40961132D01*
X4928227Y-40961132D01*
X4869758Y-40949501D01*
X4869748Y-40949500D01*
X3130252Y-40949500D01*
X3130251Y-40949500D01*
X3130241Y-40949501D01*
X3071772Y-40961132D01*
X3071766Y-40961134D01*
X3005451Y-41005445D01*
X3005445Y-41005451D01*
X2961134Y-41071766D01*
X2961132Y-41071772D01*
X2949501Y-41130241D01*
X2949500Y-41130253D01*
X500500Y-41130253D01*
X500500Y-40134108D01*
X42799500Y-40134108D01*
X42799500Y-40265892D01*
X42829579Y-40378151D01*
X42833609Y-40393190D01*
X42899496Y-40507309D01*
X42899498Y-40507311D01*
X42899500Y-40507314D01*
X42992686Y-40600500D01*
X42992688Y-40600501D01*
X42992690Y-40600503D01*
X43106810Y-40666390D01*
X43106808Y-40666390D01*
X43106812Y-40666391D01*
X43106814Y-40666392D01*
X43234108Y-40700500D01*
X43234110Y-40700500D01*
X43365890Y-40700500D01*
X43365892Y-40700500D01*
X43493186Y-40666392D01*
X43493188Y-40666390D01*
X43493190Y-40666390D01*
X43607309Y-40600503D01*
X43607309Y-40600502D01*
X43607314Y-40600500D01*
X43700500Y-40507314D01*
X43766392Y-40393186D01*
X43800500Y-40265892D01*
X43800500Y-40134108D01*
X43766392Y-40006814D01*
X43766390Y-40006811D01*
X43766390Y-40006809D01*
X43700503Y-39892690D01*
X43700501Y-39892688D01*
X43700500Y-39892686D01*
X43607314Y-39799500D01*
X43607311Y-39799498D01*
X43607309Y-39799496D01*
X43493189Y-39733609D01*
X43493191Y-39733609D01*
X43443799Y-39720375D01*
X43365892Y-39699500D01*
X43234108Y-39699500D01*
X43156200Y-39720375D01*
X43106809Y-39733609D01*
X42992690Y-39799496D01*
X42899496Y-39892690D01*
X42833609Y-40006809D01*
X42833608Y-40006814D01*
X42799500Y-40134108D01*
X500500Y-40134108D01*
X500500Y-39134108D01*
X6699500Y-39134108D01*
X6699500Y-39265892D01*
X6729579Y-39378151D01*
X6733609Y-39393190D01*
X6799496Y-39507309D01*
X6799498Y-39507311D01*
X6799500Y-39507314D01*
X6892686Y-39600500D01*
X6892688Y-39600501D01*
X6892690Y-39600503D01*
X7006810Y-39666390D01*
X7006808Y-39666390D01*
X7006812Y-39666391D01*
X7006814Y-39666392D01*
X7134108Y-39700500D01*
X7134110Y-39700500D01*
X7265890Y-39700500D01*
X7265892Y-39700500D01*
X7393186Y-39666392D01*
X7393188Y-39666390D01*
X7393190Y-39666390D01*
X7507309Y-39600503D01*
X7507309Y-39600502D01*
X7507314Y-39600500D01*
X7600500Y-39507314D01*
X7603029Y-39502932D01*
X7638686Y-39467029D01*
X7686142Y-39439200D01*
X10650645Y-36434108D01*
X12599500Y-36434108D01*
X12599500Y-36565892D01*
X12610598Y-36607309D01*
X12633609Y-36693190D01*
X12699496Y-36807309D01*
X12699498Y-36807311D01*
X12699500Y-36807314D01*
X12792686Y-36900500D01*
X12792688Y-36900501D01*
X12792690Y-36900503D01*
X12906810Y-36966390D01*
X12906808Y-36966390D01*
X12906812Y-36966391D01*
X12906814Y-36966392D01*
X13034108Y-37000500D01*
X13034110Y-37000500D01*
X13165890Y-37000500D01*
X13165892Y-37000500D01*
X13293186Y-36966392D01*
X13293188Y-36966390D01*
X13293190Y-36966390D01*
X13407309Y-36900503D01*
X13407309Y-36900502D01*
X13407314Y-36900500D01*
X13500500Y-36807314D01*
X13504434Y-36800500D01*
X13566390Y-36693190D01*
X13566390Y-36693188D01*
X13566392Y-36693186D01*
X13600500Y-36565892D01*
X13600500Y-36434108D01*
X13566392Y-36306814D01*
X13524415Y-36234108D01*
X21499500Y-36234108D01*
X21499500Y-36365892D01*
X21508773Y-36400500D01*
X21533609Y-36493190D01*
X21599496Y-36607309D01*
X21599498Y-36607311D01*
X21599500Y-36607314D01*
X21692686Y-36700500D01*
X21692688Y-36700501D01*
X21692690Y-36700503D01*
X21806810Y-36766390D01*
X21806808Y-36766390D01*
X21806812Y-36766391D01*
X21806814Y-36766392D01*
X21934108Y-36800500D01*
X21934110Y-36800500D01*
X22065890Y-36800500D01*
X22065892Y-36800500D01*
X22193186Y-36766392D01*
X22193188Y-36766390D01*
X22193190Y-36766390D01*
X22307309Y-36700503D01*
X22307309Y-36700502D01*
X22307314Y-36700500D01*
X22400500Y-36607314D01*
X22466392Y-36493186D01*
X22500500Y-36365892D01*
X22500500Y-36234108D01*
X22466392Y-36106814D01*
X22466390Y-36106811D01*
X22466390Y-36106809D01*
X22400503Y-35992690D01*
X22400501Y-35992688D01*
X22400500Y-35992686D01*
X22307314Y-35899500D01*
X22307311Y-35899498D01*
X22307309Y-35899496D01*
X22193189Y-35833609D01*
X22193191Y-35833609D01*
X22178722Y-35829732D01*
X22065892Y-35799500D01*
X21934108Y-35799500D01*
X21856200Y-35820375D01*
X21806809Y-35833609D01*
X21692690Y-35899496D01*
X21599496Y-35992690D01*
X21533609Y-36106809D01*
X21533608Y-36106814D01*
X21499500Y-36234108D01*
X13524415Y-36234108D01*
X13500500Y-36192686D01*
X13407314Y-36099500D01*
X13407311Y-36099498D01*
X13407309Y-36099496D01*
X13293189Y-36033609D01*
X13293191Y-36033609D01*
X13243799Y-36020375D01*
X13165892Y-35999500D01*
X13034108Y-35999500D01*
X12956200Y-36020375D01*
X12906809Y-36033609D01*
X12792690Y-36099496D01*
X12699496Y-36192690D01*
X12633609Y-36306809D01*
X12633608Y-36306814D01*
X12599500Y-36434108D01*
X10650645Y-36434108D01*
X11341190Y-35734108D01*
X22899500Y-35734108D01*
X22899500Y-35865892D01*
X22908773Y-35900500D01*
X22933609Y-35993190D01*
X22999496Y-36107309D01*
X22999498Y-36107311D01*
X22999500Y-36107314D01*
X23092686Y-36200500D01*
X23092688Y-36200501D01*
X23092690Y-36200503D01*
X23206810Y-36266390D01*
X23206808Y-36266390D01*
X23206812Y-36266391D01*
X23206814Y-36266392D01*
X23334108Y-36300500D01*
X23334110Y-36300500D01*
X23465890Y-36300500D01*
X23465892Y-36300500D01*
X23593186Y-36266392D01*
X23593188Y-36266390D01*
X23593190Y-36266390D01*
X23707309Y-36200503D01*
X23707309Y-36200502D01*
X23707314Y-36200500D01*
X23800500Y-36107314D01*
X23800792Y-36106809D01*
X23866390Y-35993190D01*
X23866390Y-35993188D01*
X23866392Y-35993186D01*
X23900500Y-35865892D01*
X23900500Y-35734108D01*
X23866392Y-35606814D01*
X23866390Y-35606811D01*
X23866390Y-35606809D01*
X23800503Y-35492690D01*
X23800501Y-35492688D01*
X23800500Y-35492686D01*
X23707314Y-35399500D01*
X23707311Y-35399498D01*
X23707309Y-35399496D01*
X23593189Y-35333609D01*
X23593191Y-35333609D01*
X23540187Y-35319407D01*
X23465892Y-35299500D01*
X23334108Y-35299500D01*
X23259813Y-35319407D01*
X23206809Y-35333609D01*
X23092690Y-35399496D01*
X22999496Y-35492690D01*
X22933609Y-35606809D01*
X22933608Y-35606814D01*
X22899500Y-35734108D01*
X11341190Y-35734108D01*
X12130385Y-34934108D01*
X15199500Y-34934108D01*
X15199500Y-35065892D01*
X15217437Y-35132834D01*
X15233609Y-35193190D01*
X15299496Y-35307309D01*
X15299498Y-35307311D01*
X15299500Y-35307314D01*
X15392686Y-35400500D01*
X15392688Y-35400501D01*
X15392690Y-35400503D01*
X15506810Y-35466390D01*
X15506808Y-35466390D01*
X15506812Y-35466391D01*
X15506814Y-35466392D01*
X15634108Y-35500500D01*
X15634110Y-35500500D01*
X15765890Y-35500500D01*
X15765892Y-35500500D01*
X15893186Y-35466392D01*
X15893188Y-35466390D01*
X15893190Y-35466390D01*
X16007309Y-35400503D01*
X16007309Y-35400502D01*
X16007314Y-35400500D01*
X16078319Y-35329494D01*
X16132834Y-35301719D01*
X16148321Y-35300500D01*
X18551679Y-35300500D01*
X18609870Y-35319407D01*
X18621676Y-35329490D01*
X18692686Y-35400500D01*
X18692688Y-35400501D01*
X18692690Y-35400503D01*
X18806810Y-35466390D01*
X18806808Y-35466390D01*
X18806812Y-35466391D01*
X18806814Y-35466392D01*
X18934108Y-35500500D01*
X18934110Y-35500500D01*
X19065890Y-35500500D01*
X19065892Y-35500500D01*
X19193186Y-35466392D01*
X19193188Y-35466390D01*
X19193190Y-35466390D01*
X19307309Y-35400503D01*
X19307309Y-35400502D01*
X19307314Y-35400500D01*
X19400500Y-35307314D01*
X19404434Y-35300500D01*
X19466390Y-35193190D01*
X19466390Y-35193188D01*
X19466392Y-35193186D01*
X19500500Y-35065892D01*
X19500500Y-34934108D01*
X19466392Y-34806814D01*
X19466390Y-34806811D01*
X19466390Y-34806809D01*
X19400503Y-34692690D01*
X19400501Y-34692688D01*
X19400500Y-34692686D01*
X19307314Y-34599500D01*
X19307311Y-34599498D01*
X19307309Y-34599496D01*
X19193189Y-34533609D01*
X19193191Y-34533609D01*
X19143799Y-34520375D01*
X19065892Y-34499500D01*
X18934108Y-34499500D01*
X18856200Y-34520375D01*
X18806809Y-34533609D01*
X18692690Y-34599496D01*
X18692689Y-34599497D01*
X18692686Y-34599499D01*
X18692686Y-34599500D01*
X18621680Y-34670505D01*
X18567166Y-34698281D01*
X18551679Y-34699500D01*
X16148321Y-34699500D01*
X16090130Y-34680593D01*
X16078323Y-34670509D01*
X16007314Y-34599500D01*
X16007311Y-34599498D01*
X16007309Y-34599496D01*
X15893189Y-34533609D01*
X15893191Y-34533609D01*
X15843799Y-34520375D01*
X15765892Y-34499500D01*
X15634108Y-34499500D01*
X15556200Y-34520375D01*
X15506809Y-34533609D01*
X15392690Y-34599496D01*
X15299496Y-34692690D01*
X15233609Y-34806809D01*
X15233608Y-34806814D01*
X15199500Y-34934108D01*
X12130385Y-34934108D01*
X13412826Y-33634108D01*
X22599500Y-33634108D01*
X22599500Y-33765892D01*
X22599501Y-33765894D01*
X22633609Y-33893190D01*
X22699496Y-34007309D01*
X22699498Y-34007311D01*
X22699500Y-34007314D01*
X22792686Y-34100500D01*
X22906814Y-34166392D01*
X22928462Y-34172192D01*
X22972844Y-34197815D01*
X24170504Y-35395475D01*
X24198281Y-35449992D01*
X24199500Y-35465479D01*
X24199500Y-35565892D01*
X24210464Y-35606809D01*
X24233609Y-35693190D01*
X24299496Y-35807309D01*
X24299498Y-35807311D01*
X24299500Y-35807314D01*
X24392686Y-35900500D01*
X24392688Y-35900501D01*
X24392690Y-35900503D01*
X24506810Y-35966390D01*
X24506808Y-35966390D01*
X24506812Y-35966391D01*
X24506814Y-35966392D01*
X24634108Y-36000500D01*
X24634110Y-36000500D01*
X24765890Y-36000500D01*
X24765892Y-36000500D01*
X24893186Y-35966392D01*
X24893188Y-35966390D01*
X24893190Y-35966390D01*
X25007309Y-35900503D01*
X25007309Y-35900502D01*
X25007314Y-35900500D01*
X25100500Y-35807314D01*
X25100503Y-35807309D01*
X25166390Y-35693190D01*
X25166390Y-35693188D01*
X25166392Y-35693186D01*
X25200500Y-35565892D01*
X25200500Y-35434108D01*
X25166392Y-35306814D01*
X25166390Y-35306811D01*
X25166390Y-35306809D01*
X25100503Y-35192690D01*
X25100501Y-35192688D01*
X25100500Y-35192686D01*
X25007314Y-35099500D01*
X25007311Y-35099498D01*
X25007309Y-35099496D01*
X24893189Y-35033609D01*
X24893191Y-35033609D01*
X24843799Y-35020375D01*
X24765892Y-34999500D01*
X24665479Y-34999500D01*
X24607288Y-34980593D01*
X24595475Y-34970504D01*
X23596614Y-33971643D01*
X23568837Y-33917126D01*
X23570991Y-33876019D01*
X23600500Y-33765892D01*
X23600500Y-33634108D01*
X23566392Y-33506814D01*
X23566390Y-33506811D01*
X23566390Y-33506809D01*
X23500503Y-33392690D01*
X23500501Y-33392688D01*
X23500500Y-33392686D01*
X23407314Y-33299500D01*
X23407311Y-33299498D01*
X23407309Y-33299496D01*
X23293189Y-33233609D01*
X23293191Y-33233609D01*
X23243799Y-33220375D01*
X23165892Y-33199500D01*
X23034108Y-33199500D01*
X22956200Y-33220375D01*
X22906809Y-33233609D01*
X22792690Y-33299496D01*
X22699496Y-33392690D01*
X22633609Y-33506809D01*
X22633608Y-33506814D01*
X22599500Y-33634108D01*
X13412826Y-33634108D01*
X16175008Y-30834108D01*
X17399500Y-30834108D01*
X17399500Y-30965892D01*
X17427973Y-31072154D01*
X17433609Y-31093190D01*
X17499496Y-31207309D01*
X17499498Y-31207311D01*
X17499500Y-31207314D01*
X17592686Y-31300500D01*
X17592688Y-31300501D01*
X17592690Y-31300503D01*
X17706810Y-31366390D01*
X17706808Y-31366390D01*
X17706812Y-31366391D01*
X17706814Y-31366392D01*
X17834108Y-31400500D01*
X17834110Y-31400500D01*
X17965890Y-31400500D01*
X17965892Y-31400500D01*
X18093186Y-31366392D01*
X18093188Y-31366390D01*
X18093190Y-31366390D01*
X18207309Y-31300503D01*
X18207309Y-31300502D01*
X18207314Y-31300500D01*
X18300500Y-31207314D01*
X18331978Y-31152793D01*
X18366390Y-31093190D01*
X18366390Y-31093188D01*
X18366392Y-31093186D01*
X18400500Y-30965892D01*
X18400500Y-30834108D01*
X18366392Y-30706814D01*
X18366390Y-30706811D01*
X18366390Y-30706809D01*
X18300503Y-30592690D01*
X18300501Y-30592688D01*
X18300500Y-30592686D01*
X18207314Y-30499500D01*
X18207311Y-30499498D01*
X18207309Y-30499496D01*
X18093189Y-30433609D01*
X18093191Y-30433609D01*
X18043799Y-30420375D01*
X17965892Y-30399500D01*
X17834108Y-30399500D01*
X17756200Y-30420375D01*
X17706809Y-30433609D01*
X17592690Y-30499496D01*
X17499496Y-30592690D01*
X17433609Y-30706809D01*
X17433608Y-30706814D01*
X17399500Y-30834108D01*
X16175008Y-30834108D01*
X17661583Y-29327180D01*
X17715908Y-29299034D01*
X17776403Y-29308195D01*
X17819961Y-29351164D01*
X17827685Y-29371083D01*
X17833608Y-29393187D01*
X17833609Y-29393189D01*
X17899496Y-29507309D01*
X17899498Y-29507311D01*
X17899500Y-29507314D01*
X17992686Y-29600500D01*
X17992688Y-29600501D01*
X17992690Y-29600503D01*
X18106810Y-29666390D01*
X18106808Y-29666390D01*
X18106812Y-29666391D01*
X18106814Y-29666392D01*
X18234108Y-29700500D01*
X18234110Y-29700500D01*
X18365890Y-29700500D01*
X18365892Y-29700500D01*
X18493186Y-29666392D01*
X18493188Y-29666390D01*
X18493190Y-29666390D01*
X18607309Y-29600503D01*
X18607309Y-29600502D01*
X18607314Y-29600500D01*
X18700500Y-29507314D01*
X18766392Y-29393186D01*
X18800500Y-29265892D01*
X18800500Y-29165478D01*
X18819407Y-29107287D01*
X18829496Y-29095474D01*
X19377326Y-28547644D01*
X23249500Y-28547644D01*
X23249500Y-28752355D01*
X23281521Y-28954529D01*
X23344780Y-29149219D01*
X23437712Y-29331609D01*
X23437714Y-29331613D01*
X23558029Y-29497213D01*
X23558031Y-29497215D01*
X23558034Y-29497219D01*
X23702781Y-29641966D01*
X23702784Y-29641968D01*
X23702786Y-29641970D01*
X23868386Y-29762285D01*
X23868390Y-29762287D01*
X24050781Y-29855220D01*
X24245466Y-29918477D01*
X24245467Y-29918477D01*
X24245470Y-29918478D01*
X24447645Y-29950500D01*
X24447648Y-29950500D01*
X24652355Y-29950500D01*
X24854529Y-29918478D01*
X24854530Y-29918477D01*
X24854534Y-29918477D01*
X25049219Y-29855220D01*
X25231610Y-29762287D01*
X25397219Y-29641966D01*
X25541966Y-29497219D01*
X25662287Y-29331610D01*
X25755220Y-29149219D01*
X25818477Y-28954534D01*
X25822703Y-28927855D01*
X25850500Y-28752355D01*
X25850500Y-28547644D01*
X25818478Y-28345470D01*
X25818477Y-28345466D01*
X25755220Y-28150781D01*
X25662287Y-27968390D01*
X25662285Y-27968386D01*
X25541970Y-27802786D01*
X25541968Y-27802784D01*
X25541966Y-27802781D01*
X25397219Y-27658034D01*
X25397215Y-27658031D01*
X25397213Y-27658029D01*
X25231613Y-27537714D01*
X25231609Y-27537712D01*
X25049219Y-27444780D01*
X24854529Y-27381521D01*
X24652355Y-27349500D01*
X24652352Y-27349500D01*
X24447648Y-27349500D01*
X24447645Y-27349500D01*
X24245470Y-27381521D01*
X24050780Y-27444780D01*
X23868390Y-27537712D01*
X23868386Y-27537714D01*
X23702786Y-27658029D01*
X23558029Y-27802786D01*
X23437714Y-27968386D01*
X23437712Y-27968390D01*
X23344780Y-28150780D01*
X23281521Y-28345470D01*
X23249500Y-28547644D01*
X19377326Y-28547644D01*
X19451216Y-28473754D01*
X20575470Y-27349500D01*
X23207224Y-24717745D01*
X23261739Y-24689970D01*
X23302847Y-24692123D01*
X23334108Y-24700500D01*
X23334109Y-24700500D01*
X23465890Y-24700500D01*
X23465892Y-24700500D01*
X23593186Y-24666392D01*
X23593188Y-24666390D01*
X23593190Y-24666390D01*
X23707309Y-24600503D01*
X23707309Y-24600502D01*
X23707314Y-24600500D01*
X23800500Y-24507314D01*
X23866392Y-24393186D01*
X23900500Y-24265892D01*
X23900500Y-24134108D01*
X23866392Y-24006814D01*
X23866390Y-24006811D01*
X23866390Y-24006809D01*
X23800503Y-23892690D01*
X23800501Y-23892688D01*
X23800500Y-23892686D01*
X23707314Y-23799500D01*
X23707311Y-23799498D01*
X23707309Y-23799496D01*
X23593189Y-23733609D01*
X23593186Y-23733608D01*
X23575968Y-23728994D01*
X23524654Y-23695669D01*
X23502729Y-23638547D01*
X23518566Y-23579447D01*
X23532307Y-23562654D01*
X23765586Y-23334108D01*
X28399500Y-23334108D01*
X28399500Y-23465892D01*
X28410598Y-23507309D01*
X28433609Y-23593190D01*
X28499496Y-23707309D01*
X28499498Y-23707311D01*
X28499500Y-23707314D01*
X28592686Y-23800500D01*
X28592688Y-23800501D01*
X28592690Y-23800503D01*
X28706810Y-23866390D01*
X28706808Y-23866390D01*
X28706812Y-23866391D01*
X28706814Y-23866392D01*
X28834108Y-23900500D01*
X28834110Y-23900500D01*
X28934521Y-23900500D01*
X28992712Y-23919407D01*
X29004525Y-23929496D01*
X29870504Y-24795475D01*
X29898281Y-24849992D01*
X29899500Y-24865479D01*
X29899500Y-38651679D01*
X29880593Y-38709870D01*
X29870509Y-38721676D01*
X29831630Y-38760556D01*
X29799497Y-38792689D01*
X29799496Y-38792690D01*
X29733609Y-38906809D01*
X29733608Y-38906814D01*
X29699500Y-39034108D01*
X29699500Y-39165892D01*
X29726294Y-39265890D01*
X29733609Y-39293190D01*
X29799496Y-39407309D01*
X29799498Y-39407311D01*
X29799500Y-39407314D01*
X29892686Y-39500500D01*
X29892688Y-39500501D01*
X29892690Y-39500503D01*
X30006810Y-39566390D01*
X30006808Y-39566390D01*
X30006812Y-39566391D01*
X30006814Y-39566392D01*
X30134108Y-39600500D01*
X30134110Y-39600500D01*
X30265890Y-39600500D01*
X30265892Y-39600500D01*
X30393186Y-39566392D01*
X30393188Y-39566390D01*
X30393190Y-39566390D01*
X30507309Y-39500503D01*
X30507309Y-39500502D01*
X30507314Y-39500500D01*
X30600500Y-39407314D01*
X30666392Y-39293186D01*
X30700500Y-39165892D01*
X30700500Y-39034108D01*
X30666392Y-38906814D01*
X30666390Y-38906811D01*
X30666390Y-38906809D01*
X30600503Y-38792690D01*
X30600501Y-38792688D01*
X30600500Y-38792686D01*
X30529494Y-38721680D01*
X30501719Y-38667166D01*
X30500500Y-38651679D01*
X30500500Y-36897644D01*
X41149500Y-36897644D01*
X41149500Y-37102355D01*
X41181521Y-37304529D01*
X41244780Y-37499219D01*
X41337712Y-37681609D01*
X41337714Y-37681613D01*
X41458029Y-37847213D01*
X41458031Y-37847215D01*
X41458034Y-37847219D01*
X41602781Y-37991966D01*
X41602784Y-37991968D01*
X41602786Y-37991970D01*
X41768386Y-38112285D01*
X41768390Y-38112287D01*
X41950781Y-38205220D01*
X42145466Y-38268477D01*
X42145467Y-38268477D01*
X42145470Y-38268478D01*
X42347645Y-38300500D01*
X42347648Y-38300500D01*
X42552355Y-38300500D01*
X42754529Y-38268478D01*
X42754530Y-38268477D01*
X42754534Y-38268477D01*
X42949219Y-38205220D01*
X43131610Y-38112287D01*
X43297219Y-37991966D01*
X43441966Y-37847219D01*
X43562287Y-37681610D01*
X43655220Y-37499219D01*
X43718477Y-37304534D01*
X43750500Y-37102352D01*
X43750500Y-36897648D01*
X43750500Y-36897644D01*
X43718478Y-36695470D01*
X43717736Y-36693186D01*
X43655220Y-36500781D01*
X43562287Y-36318390D01*
X43562285Y-36318386D01*
X43441970Y-36152786D01*
X43441968Y-36152784D01*
X43441966Y-36152781D01*
X43297219Y-36008034D01*
X43297215Y-36008031D01*
X43297213Y-36008029D01*
X43131613Y-35887714D01*
X43131609Y-35887712D01*
X42949219Y-35794780D01*
X42754529Y-35731521D01*
X42552355Y-35699500D01*
X42552352Y-35699500D01*
X42347648Y-35699500D01*
X42347645Y-35699500D01*
X42145470Y-35731521D01*
X41950780Y-35794780D01*
X41768390Y-35887712D01*
X41768386Y-35887714D01*
X41602786Y-36008029D01*
X41458029Y-36152786D01*
X41337714Y-36318386D01*
X41337712Y-36318390D01*
X41244780Y-36500780D01*
X41181521Y-36695470D01*
X41149500Y-36897644D01*
X30500500Y-36897644D01*
X30500500Y-29134108D01*
X32299500Y-29134108D01*
X32299500Y-29265892D01*
X32317109Y-29331609D01*
X32333609Y-29393190D01*
X32399496Y-29507309D01*
X32399498Y-29507311D01*
X32399500Y-29507314D01*
X32492686Y-29600500D01*
X32492688Y-29600501D01*
X32492690Y-29600503D01*
X32606810Y-29666390D01*
X32606808Y-29666390D01*
X32606812Y-29666391D01*
X32606814Y-29666392D01*
X32734108Y-29700500D01*
X32734110Y-29700500D01*
X32865890Y-29700500D01*
X32865892Y-29700500D01*
X32993186Y-29666392D01*
X32993188Y-29666390D01*
X32993190Y-29666390D01*
X33107309Y-29600503D01*
X33107309Y-29600502D01*
X33107314Y-29600500D01*
X33200500Y-29507314D01*
X33266392Y-29393186D01*
X33300500Y-29265892D01*
X33300500Y-29134108D01*
X33266392Y-29006814D01*
X33266390Y-29006811D01*
X33266390Y-29006809D01*
X33200503Y-28892690D01*
X33200501Y-28892688D01*
X33200500Y-28892686D01*
X33107314Y-28799500D01*
X33107311Y-28799498D01*
X33107309Y-28799496D01*
X32993189Y-28733609D01*
X32993191Y-28733609D01*
X32943799Y-28720375D01*
X32865892Y-28699500D01*
X32734108Y-28699500D01*
X32656200Y-28720375D01*
X32606809Y-28733609D01*
X32492690Y-28799496D01*
X32399496Y-28892690D01*
X32333609Y-29006809D01*
X32325488Y-29037118D01*
X32299500Y-29134108D01*
X30500500Y-29134108D01*
X30500500Y-24660438D01*
X30496750Y-24646445D01*
X30494906Y-24639562D01*
X30480022Y-24584012D01*
X30440460Y-24515489D01*
X30217657Y-24292686D01*
X29955243Y-24030271D01*
X29927466Y-23975755D01*
X29937037Y-23915323D01*
X29980302Y-23872058D01*
X29987368Y-23868801D01*
X29993178Y-23866394D01*
X29993186Y-23866392D01*
X30036165Y-23841578D01*
X30107309Y-23800503D01*
X30107309Y-23800502D01*
X30107314Y-23800500D01*
X30200500Y-23707314D01*
X30200503Y-23707309D01*
X30266390Y-23593190D01*
X30266390Y-23593188D01*
X30266392Y-23593186D01*
X30300500Y-23465892D01*
X30300500Y-23334108D01*
X30266392Y-23206814D01*
X30224415Y-23134108D01*
X32299500Y-23134108D01*
X32299500Y-23265892D01*
X32308773Y-23300500D01*
X32333609Y-23393190D01*
X32399496Y-23507309D01*
X32399498Y-23507311D01*
X32399500Y-23507314D01*
X32470505Y-23578319D01*
X32498281Y-23632834D01*
X32499500Y-23648321D01*
X32499500Y-24151679D01*
X32480593Y-24209870D01*
X32470509Y-24221676D01*
X32426296Y-24265890D01*
X32399497Y-24292689D01*
X32399496Y-24292690D01*
X32333609Y-24406809D01*
X32333608Y-24406814D01*
X32299500Y-24534108D01*
X32299500Y-24665892D01*
X32329579Y-24778151D01*
X32333609Y-24793190D01*
X32399496Y-24907309D01*
X32399498Y-24907311D01*
X32399500Y-24907314D01*
X32492686Y-25000500D01*
X32492688Y-25000501D01*
X32492690Y-25000503D01*
X32606810Y-25066390D01*
X32606808Y-25066390D01*
X32606812Y-25066391D01*
X32606814Y-25066392D01*
X32734108Y-25100500D01*
X32734110Y-25100500D01*
X32865890Y-25100500D01*
X32865892Y-25100500D01*
X32993186Y-25066392D01*
X32993188Y-25066390D01*
X32993190Y-25066390D01*
X33107309Y-25000503D01*
X33107309Y-25000502D01*
X33107314Y-25000500D01*
X33200500Y-24907314D01*
X33248330Y-24824471D01*
X33266390Y-24793190D01*
X33266390Y-24793188D01*
X33266392Y-24793186D01*
X33300500Y-24665892D01*
X33300500Y-24534108D01*
X33266392Y-24406814D01*
X33266390Y-24406811D01*
X33266390Y-24406809D01*
X33200503Y-24292690D01*
X33200501Y-24292688D01*
X33200500Y-24292686D01*
X33129494Y-24221680D01*
X33101719Y-24167166D01*
X33100500Y-24151679D01*
X33100500Y-23648321D01*
X33119407Y-23590130D01*
X33129490Y-23578323D01*
X33200500Y-23507314D01*
X33266392Y-23393186D01*
X33300500Y-23265892D01*
X33300500Y-23134108D01*
X33266392Y-23006814D01*
X33266390Y-23006811D01*
X33266390Y-23006809D01*
X33200503Y-22892690D01*
X33200501Y-22892688D01*
X33200500Y-22892686D01*
X33107314Y-22799500D01*
X33107311Y-22799498D01*
X33107309Y-22799496D01*
X32993189Y-22733609D01*
X32993191Y-22733609D01*
X32943799Y-22720375D01*
X32865892Y-22699500D01*
X32734108Y-22699500D01*
X32656200Y-22720375D01*
X32606809Y-22733609D01*
X32492690Y-22799496D01*
X32399496Y-22892690D01*
X32333609Y-23006809D01*
X32333608Y-23006814D01*
X32299500Y-23134108D01*
X30224415Y-23134108D01*
X30200500Y-23092686D01*
X30107314Y-22999500D01*
X30107311Y-22999498D01*
X30107309Y-22999496D01*
X29993189Y-22933609D01*
X29993191Y-22933609D01*
X29943799Y-22920375D01*
X29865892Y-22899500D01*
X29734108Y-22899500D01*
X29656200Y-22920375D01*
X29606809Y-22933609D01*
X29492690Y-22999496D01*
X29492689Y-22999497D01*
X29492686Y-22999499D01*
X29492686Y-22999500D01*
X29420001Y-23072184D01*
X29365487Y-23099960D01*
X29305055Y-23090389D01*
X29279999Y-23072185D01*
X29207314Y-22999500D01*
X29207311Y-22999498D01*
X29207309Y-22999496D01*
X29093189Y-22933609D01*
X29093191Y-22933609D01*
X29043799Y-22920375D01*
X28965892Y-22899500D01*
X28834108Y-22899500D01*
X28756200Y-22920375D01*
X28706809Y-22933609D01*
X28592690Y-22999496D01*
X28499496Y-23092690D01*
X28433609Y-23206809D01*
X28417779Y-23265890D01*
X28399500Y-23334108D01*
X23765586Y-23334108D01*
X24689659Y-22428782D01*
X24744458Y-22401565D01*
X24758942Y-22400500D01*
X24865890Y-22400500D01*
X24865892Y-22400500D01*
X24993186Y-22366392D01*
X24993188Y-22366390D01*
X24993190Y-22366390D01*
X25107309Y-22300503D01*
X25107309Y-22300502D01*
X25107314Y-22300500D01*
X25200500Y-22207314D01*
X25266392Y-22093186D01*
X25300500Y-21965892D01*
X25300500Y-21834108D01*
X25266392Y-21706814D01*
X25266390Y-21706811D01*
X25266390Y-21706809D01*
X25200503Y-21592690D01*
X25200501Y-21592688D01*
X25200500Y-21592686D01*
X25107314Y-21499500D01*
X25107311Y-21499498D01*
X25107309Y-21499496D01*
X24993189Y-21433609D01*
X24993191Y-21433609D01*
X24943799Y-21420375D01*
X24865892Y-21399500D01*
X24734108Y-21399500D01*
X24656200Y-21420375D01*
X24606809Y-21433609D01*
X24492690Y-21499496D01*
X24399496Y-21592690D01*
X24333609Y-21706809D01*
X24299500Y-21834109D01*
X24299500Y-21928059D01*
X24280593Y-21986250D01*
X24269783Y-21998776D01*
X20568783Y-25624690D01*
X20513984Y-25651908D01*
X20453653Y-25641717D01*
X20410834Y-25598012D01*
X20400500Y-25553973D01*
X20400500Y-25434109D01*
X20391387Y-25400099D01*
X20366392Y-25306814D01*
X20366390Y-25306811D01*
X20366390Y-25306809D01*
X20300503Y-25192690D01*
X20300501Y-25192688D01*
X20300500Y-25192686D01*
X20207314Y-25099500D01*
X20207311Y-25099498D01*
X20207309Y-25099496D01*
X20093189Y-25033609D01*
X20093191Y-25033609D01*
X20043799Y-25020375D01*
X19965892Y-24999500D01*
X19834108Y-24999500D01*
X19756200Y-25020375D01*
X19706809Y-25033609D01*
X19592690Y-25099496D01*
X19499496Y-25192690D01*
X19433609Y-25306809D01*
X19433608Y-25306814D01*
X19399500Y-25434108D01*
X19399500Y-25565892D01*
X19415255Y-25624690D01*
X19433609Y-25693190D01*
X19499496Y-25807309D01*
X19499498Y-25807311D01*
X19499500Y-25807314D01*
X19592686Y-25900500D01*
X19592688Y-25900501D01*
X19592690Y-25900503D01*
X19706810Y-25966390D01*
X19706808Y-25966390D01*
X19706812Y-25966391D01*
X19706814Y-25966392D01*
X19834108Y-26000500D01*
X19834110Y-26000500D01*
X19942677Y-26000500D01*
X20000868Y-26019407D01*
X20036832Y-26068907D01*
X20036832Y-26130093D01*
X20011960Y-26170217D01*
X17651555Y-28482733D01*
X17651554Y-28482734D01*
X17645390Y-28488772D01*
X17643147Y-28490089D01*
X17617174Y-28516415D01*
X17616552Y-28517025D01*
X17590681Y-28542374D01*
X17583350Y-28550703D01*
X7539163Y-38732408D01*
X7484836Y-38760556D01*
X7424341Y-38751395D01*
X7419184Y-38748618D01*
X7393188Y-38733609D01*
X7393187Y-38733608D01*
X7393186Y-38733608D01*
X7265892Y-38699500D01*
X7134108Y-38699500D01*
X7056200Y-38720375D01*
X7006809Y-38733609D01*
X6892690Y-38799496D01*
X6799496Y-38892690D01*
X6733609Y-39006809D01*
X6726294Y-39034109D01*
X6699500Y-39134108D01*
X500500Y-39134108D01*
X500500Y-34634108D01*
X3999500Y-34634108D01*
X3999500Y-34765892D01*
X4010464Y-34806809D01*
X4033609Y-34893190D01*
X4099496Y-35007309D01*
X4099498Y-35007311D01*
X4099500Y-35007314D01*
X4170505Y-35078319D01*
X4198281Y-35132834D01*
X4199500Y-35148321D01*
X4199500Y-35451679D01*
X4180593Y-35509870D01*
X4170509Y-35521676D01*
X4126296Y-35565890D01*
X4099497Y-35592689D01*
X4099496Y-35592690D01*
X4033609Y-35706809D01*
X4026294Y-35734109D01*
X3999500Y-35834108D01*
X3999500Y-35965892D01*
X4010792Y-36008034D01*
X4033609Y-36093190D01*
X4099496Y-36207309D01*
X4099498Y-36207311D01*
X4099500Y-36207314D01*
X4192686Y-36300500D01*
X4192688Y-36300501D01*
X4192690Y-36300503D01*
X4306810Y-36366390D01*
X4306808Y-36366390D01*
X4306812Y-36366391D01*
X4306814Y-36366392D01*
X4434108Y-36400500D01*
X4434110Y-36400500D01*
X4565890Y-36400500D01*
X4565892Y-36400500D01*
X4693186Y-36366392D01*
X4693188Y-36366390D01*
X4693190Y-36366390D01*
X4807309Y-36300503D01*
X4807309Y-36300502D01*
X4807314Y-36300500D01*
X4900500Y-36207314D01*
X4966392Y-36093186D01*
X5000500Y-35965892D01*
X5000500Y-35834108D01*
X4966392Y-35706814D01*
X4966390Y-35706811D01*
X4966390Y-35706809D01*
X4900503Y-35592690D01*
X4900501Y-35592688D01*
X4900500Y-35592686D01*
X4829494Y-35521680D01*
X4801719Y-35467166D01*
X4800500Y-35451679D01*
X4800500Y-35148321D01*
X4819407Y-35090130D01*
X4829490Y-35078323D01*
X4900500Y-35007314D01*
X4903836Y-35001536D01*
X4966390Y-34893190D01*
X4966390Y-34893188D01*
X4966392Y-34893186D01*
X5000500Y-34765892D01*
X5000500Y-34634108D01*
X4966392Y-34506814D01*
X4966390Y-34506811D01*
X4966390Y-34506809D01*
X4900503Y-34392690D01*
X4900501Y-34392688D01*
X4900500Y-34392686D01*
X4807314Y-34299500D01*
X4807311Y-34299498D01*
X4807309Y-34299496D01*
X4693189Y-34233609D01*
X4693191Y-34233609D01*
X4643799Y-34220375D01*
X4565892Y-34199500D01*
X4434108Y-34199500D01*
X4356200Y-34220375D01*
X4306809Y-34233609D01*
X4192690Y-34299496D01*
X4099496Y-34392690D01*
X4033609Y-34506809D01*
X4026428Y-34533609D01*
X3999500Y-34634108D01*
X500500Y-34634108D01*
X500500Y-29195725D01*
X4799500Y-29195725D01*
X4799500Y-30804274D01*
X4802353Y-30834694D01*
X4802355Y-30834703D01*
X4847207Y-30962883D01*
X4927845Y-31072144D01*
X4927847Y-31072146D01*
X4927850Y-31072150D01*
X4927853Y-31072152D01*
X4927855Y-31072154D01*
X5037116Y-31152792D01*
X5037117Y-31152792D01*
X5037118Y-31152793D01*
X5165301Y-31197646D01*
X5195725Y-31200499D01*
X5195727Y-31200500D01*
X5195734Y-31200500D01*
X6804273Y-31200500D01*
X6804273Y-31200499D01*
X6834699Y-31197646D01*
X6962882Y-31152793D01*
X7072150Y-31072150D01*
X7152793Y-30962882D01*
X7197646Y-30834699D01*
X7200499Y-30804273D01*
X7200500Y-30804273D01*
X7200500Y-29195727D01*
X7200499Y-29195725D01*
X7199716Y-29187376D01*
X7197646Y-29165301D01*
X7152793Y-29037118D01*
X7072150Y-28927850D01*
X7072146Y-28927847D01*
X7072144Y-28927845D01*
X6962883Y-28847207D01*
X6834703Y-28802355D01*
X6834694Y-28802353D01*
X6804274Y-28799500D01*
X6804266Y-28799500D01*
X5195734Y-28799500D01*
X5195725Y-28799500D01*
X5165305Y-28802353D01*
X5165296Y-28802355D01*
X5037116Y-28847207D01*
X4927855Y-28927845D01*
X4927845Y-28927855D01*
X4847207Y-29037116D01*
X4802355Y-29165296D01*
X4802353Y-29165305D01*
X4799500Y-29195725D01*
X500500Y-29195725D01*
X500500Y-24901619D01*
X4750000Y-24901619D01*
X4750000Y-25098380D01*
X4780778Y-25292710D01*
X4780779Y-25292714D01*
X4841576Y-25479826D01*
X4841578Y-25479829D01*
X4930907Y-25655148D01*
X4956319Y-25690125D01*
X5517036Y-25129407D01*
X5534075Y-25192993D01*
X5599901Y-25307007D01*
X5692993Y-25400099D01*
X5807007Y-25465925D01*
X5870590Y-25482962D01*
X5309874Y-26043678D01*
X5344860Y-26069097D01*
X5520170Y-26158421D01*
X5520173Y-26158423D01*
X5707285Y-26219220D01*
X5707289Y-26219221D01*
X5901620Y-26250000D01*
X6098380Y-26250000D01*
X6292710Y-26219221D01*
X6292714Y-26219220D01*
X6479826Y-26158423D01*
X6479829Y-26158421D01*
X6655142Y-26069096D01*
X6655148Y-26069092D01*
X6690125Y-26043679D01*
X6690125Y-26043678D01*
X6129409Y-25482962D01*
X6192993Y-25465925D01*
X6307007Y-25400099D01*
X6400099Y-25307007D01*
X6465925Y-25192993D01*
X6482962Y-25129409D01*
X7043678Y-25690125D01*
X7043679Y-25690125D01*
X7069092Y-25655148D01*
X7069096Y-25655142D01*
X7158421Y-25479829D01*
X7158423Y-25479826D01*
X7219220Y-25292714D01*
X7219221Y-25292710D01*
X7250000Y-25098380D01*
X7250000Y-24901619D01*
X7219221Y-24707289D01*
X7219220Y-24707285D01*
X7158423Y-24520173D01*
X7158421Y-24520170D01*
X7069097Y-24344860D01*
X7043678Y-24309874D01*
X6482962Y-24870590D01*
X6465925Y-24807007D01*
X6400099Y-24692993D01*
X6307007Y-24599901D01*
X6192993Y-24534075D01*
X6129407Y-24517036D01*
X6690125Y-23956319D01*
X6655148Y-23930907D01*
X6479829Y-23841578D01*
X6479826Y-23841576D01*
X6292714Y-23780779D01*
X6292710Y-23780778D01*
X6098380Y-23750000D01*
X5901620Y-23750000D01*
X5707289Y-23780778D01*
X5707285Y-23780779D01*
X5520173Y-23841576D01*
X5520170Y-23841578D01*
X5344856Y-23930904D01*
X5309873Y-23956319D01*
X5870591Y-24517037D01*
X5807007Y-24534075D01*
X5692993Y-24599901D01*
X5599901Y-24692993D01*
X5534075Y-24807007D01*
X5517037Y-24870591D01*
X4956319Y-24309873D01*
X4930904Y-24344856D01*
X4841578Y-24520170D01*
X4841576Y-24520173D01*
X4780779Y-24707285D01*
X4780778Y-24707289D01*
X4750000Y-24901619D01*
X500500Y-24901619D01*
X500500Y-22734108D01*
X12699500Y-22734108D01*
X12699500Y-22865892D01*
X12717644Y-22933608D01*
X12733609Y-22993190D01*
X12799496Y-23107309D01*
X12799498Y-23107311D01*
X12799500Y-23107314D01*
X12892686Y-23200500D01*
X12892688Y-23200501D01*
X12892690Y-23200503D01*
X13006810Y-23266390D01*
X13006808Y-23266390D01*
X13006812Y-23266391D01*
X13006814Y-23266392D01*
X13134108Y-23300500D01*
X13134110Y-23300500D01*
X13265890Y-23300500D01*
X13265892Y-23300500D01*
X13393186Y-23266392D01*
X13393188Y-23266390D01*
X13393190Y-23266390D01*
X13507309Y-23200503D01*
X13507309Y-23200502D01*
X13507314Y-23200500D01*
X13600500Y-23107314D01*
X13662747Y-22999500D01*
X13666390Y-22993190D01*
X13666390Y-22993188D01*
X13666392Y-22993186D01*
X13700500Y-22865892D01*
X13700500Y-22734108D01*
X13666392Y-22606814D01*
X13666390Y-22606811D01*
X13666390Y-22606809D01*
X13600503Y-22492690D01*
X13600501Y-22492688D01*
X13600500Y-22492686D01*
X13507314Y-22399500D01*
X13507311Y-22399498D01*
X13507309Y-22399496D01*
X13393189Y-22333609D01*
X13393191Y-22333609D01*
X13343799Y-22320375D01*
X13265892Y-22299500D01*
X13134108Y-22299500D01*
X13056200Y-22320375D01*
X13006809Y-22333609D01*
X12892690Y-22399496D01*
X12799496Y-22492690D01*
X12733609Y-22606809D01*
X12733608Y-22606814D01*
X12699500Y-22734108D01*
X500500Y-22734108D01*
X500500Y-18434108D01*
X22599500Y-18434108D01*
X22599500Y-18565892D01*
X22629579Y-18678151D01*
X22633609Y-18693190D01*
X22699496Y-18807309D01*
X22699498Y-18807311D01*
X22699500Y-18807314D01*
X22792686Y-18900500D01*
X22792688Y-18900501D01*
X22792690Y-18900503D01*
X22906810Y-18966390D01*
X22906808Y-18966390D01*
X22906812Y-18966391D01*
X22906814Y-18966392D01*
X23034108Y-19000500D01*
X23034110Y-19000500D01*
X23165890Y-19000500D01*
X23165892Y-19000500D01*
X23293186Y-18966392D01*
X23293188Y-18966390D01*
X23293190Y-18966390D01*
X23407309Y-18900503D01*
X23407309Y-18900502D01*
X23407314Y-18900500D01*
X23500500Y-18807314D01*
X23566392Y-18693186D01*
X23600500Y-18565892D01*
X23600500Y-18434108D01*
X23566392Y-18306814D01*
X23566390Y-18306811D01*
X23566390Y-18306809D01*
X23500503Y-18192690D01*
X23500501Y-18192688D01*
X23500500Y-18192686D01*
X23429494Y-18121680D01*
X23401719Y-18067166D01*
X23400500Y-18051679D01*
X23400500Y-17565479D01*
X23419407Y-17507288D01*
X23429496Y-17495475D01*
X24754467Y-16170504D01*
X28190862Y-12734108D01*
X45799500Y-12734108D01*
X45799500Y-12865892D01*
X45808773Y-12900500D01*
X45833609Y-12993190D01*
X45899496Y-13107309D01*
X45899498Y-13107311D01*
X45899500Y-13107314D01*
X45992686Y-13200500D01*
X45992688Y-13200501D01*
X45992690Y-13200503D01*
X46106810Y-13266390D01*
X46106808Y-13266390D01*
X46106812Y-13266391D01*
X46106814Y-13266392D01*
X46234108Y-13300500D01*
X46234110Y-13300500D01*
X46365890Y-13300500D01*
X46365892Y-13300500D01*
X46493186Y-13266392D01*
X46493188Y-13266390D01*
X46493190Y-13266390D01*
X46607309Y-13200503D01*
X46607309Y-13200502D01*
X46607314Y-13200500D01*
X46628319Y-13179494D01*
X46682834Y-13151719D01*
X46698321Y-13150500D01*
X50446142Y-13150500D01*
X50446144Y-13150500D01*
X50535288Y-13126614D01*
X50615212Y-13080470D01*
X51987146Y-11708533D01*
X52031524Y-11682913D01*
X52093186Y-11666392D01*
X52207314Y-11600500D01*
X52300500Y-11507314D01*
X52300792Y-11506809D01*
X52366390Y-11393190D01*
X52366390Y-11393188D01*
X52366392Y-11393186D01*
X52400500Y-11265892D01*
X52400500Y-11134108D01*
X52366392Y-11006814D01*
X52366390Y-11006811D01*
X52366390Y-11006809D01*
X52300503Y-10892690D01*
X52300501Y-10892688D01*
X52300500Y-10892686D01*
X52207314Y-10799500D01*
X52207311Y-10799498D01*
X52207309Y-10799496D01*
X52093189Y-10733609D01*
X52093191Y-10733609D01*
X52043799Y-10720375D01*
X51965892Y-10699500D01*
X51834108Y-10699500D01*
X51756200Y-10720375D01*
X51706809Y-10733609D01*
X51592690Y-10799496D01*
X51499496Y-10892690D01*
X51433609Y-11006809D01*
X51399500Y-11134109D01*
X51399500Y-11263810D01*
X51380593Y-11322001D01*
X51370504Y-11333814D01*
X50283814Y-12420504D01*
X50229297Y-12448281D01*
X50213810Y-12449500D01*
X46698321Y-12449500D01*
X46640130Y-12430593D01*
X46628323Y-12420509D01*
X46607314Y-12399500D01*
X46607311Y-12399498D01*
X46607309Y-12399496D01*
X46493189Y-12333609D01*
X46493191Y-12333609D01*
X46443799Y-12320375D01*
X46365892Y-12299500D01*
X46234108Y-12299500D01*
X46156200Y-12320375D01*
X46106809Y-12333609D01*
X45992690Y-12399496D01*
X45899496Y-12492690D01*
X45833609Y-12606809D01*
X45833608Y-12606814D01*
X45799500Y-12734108D01*
X28190862Y-12734108D01*
X29069729Y-11855241D01*
X29124244Y-11827466D01*
X29184676Y-11837037D01*
X29227941Y-11880302D01*
X29231195Y-11887361D01*
X29233609Y-11893189D01*
X29299496Y-12007309D01*
X29299498Y-12007311D01*
X29299500Y-12007314D01*
X29392686Y-12100500D01*
X29392688Y-12100501D01*
X29392690Y-12100503D01*
X29506810Y-12166390D01*
X29506808Y-12166390D01*
X29506812Y-12166391D01*
X29506814Y-12166392D01*
X29634108Y-12200500D01*
X29634110Y-12200500D01*
X29765890Y-12200500D01*
X29765892Y-12200500D01*
X29893186Y-12166392D01*
X29893188Y-12166390D01*
X29893190Y-12166390D01*
X30007309Y-12100503D01*
X30007309Y-12100502D01*
X30007314Y-12100500D01*
X30100500Y-12007314D01*
X30100503Y-12007309D01*
X30166390Y-11893190D01*
X30166390Y-11893188D01*
X30166392Y-11893186D01*
X30200500Y-11765892D01*
X30200500Y-11634108D01*
X30166392Y-11506814D01*
X30166390Y-11506811D01*
X30166390Y-11506809D01*
X30100503Y-11392690D01*
X30100501Y-11392688D01*
X30100500Y-11392686D01*
X30022964Y-11315150D01*
X29995189Y-11260636D01*
X30004760Y-11200204D01*
X30007212Y-11195688D01*
X30066392Y-11093186D01*
X30100500Y-10965892D01*
X30100500Y-10834108D01*
X30066392Y-10706814D01*
X30066390Y-10706811D01*
X30066390Y-10706809D01*
X30000503Y-10592690D01*
X30000501Y-10592688D01*
X30000500Y-10592686D01*
X29907314Y-10499500D01*
X29907311Y-10499498D01*
X29907309Y-10499496D01*
X29793189Y-10433609D01*
X29793191Y-10433609D01*
X29743799Y-10420375D01*
X29665892Y-10399500D01*
X29534108Y-10399500D01*
X29456200Y-10420375D01*
X29406809Y-10433609D01*
X29292690Y-10499496D01*
X29199496Y-10592690D01*
X29133609Y-10706809D01*
X29099500Y-10834109D01*
X29099500Y-10934520D01*
X29080593Y-10992711D01*
X29070504Y-11004524D01*
X22915489Y-17159540D01*
X22915488Y-17159539D01*
X22859539Y-17215489D01*
X22819980Y-17284007D01*
X22819978Y-17284011D01*
X22799500Y-17360435D01*
X22799500Y-18051679D01*
X22780593Y-18109870D01*
X22770509Y-18121676D01*
X22699500Y-18192686D01*
X22699497Y-18192689D01*
X22699496Y-18192690D01*
X22633609Y-18306809D01*
X22633608Y-18306814D01*
X22599500Y-18434108D01*
X500500Y-18434108D01*
X500500Y-16934108D01*
X5099500Y-16934108D01*
X5099500Y-17065892D01*
X5124592Y-17159539D01*
X5133609Y-17193190D01*
X5199496Y-17307309D01*
X5199498Y-17307311D01*
X5199500Y-17307314D01*
X5292686Y-17400500D01*
X5292688Y-17400501D01*
X5292690Y-17400503D01*
X5406810Y-17466390D01*
X5406808Y-17466390D01*
X5406812Y-17466391D01*
X5406814Y-17466392D01*
X5534108Y-17500500D01*
X5534110Y-17500500D01*
X5665890Y-17500500D01*
X5665892Y-17500500D01*
X5793186Y-17466392D01*
X5793188Y-17466390D01*
X5793190Y-17466390D01*
X5907309Y-17400503D01*
X5907309Y-17400502D01*
X5907314Y-17400500D01*
X6000500Y-17307314D01*
X6013956Y-17284007D01*
X6066390Y-17193190D01*
X6066390Y-17193188D01*
X6066392Y-17193186D01*
X6100500Y-17065892D01*
X6100500Y-16934108D01*
X6098092Y-16925121D01*
X6101295Y-16864021D01*
X6139800Y-16816472D01*
X6193719Y-16800500D01*
X6739563Y-16800500D01*
X6739563Y-16800499D01*
X6815989Y-16780021D01*
X6884511Y-16740460D01*
X6940460Y-16684511D01*
X8995474Y-14629495D01*
X9049991Y-14601719D01*
X9065478Y-14600500D01*
X9165890Y-14600500D01*
X9165892Y-14600500D01*
X9293186Y-14566392D01*
X9293188Y-14566390D01*
X9293190Y-14566390D01*
X9407309Y-14500503D01*
X9407309Y-14500502D01*
X9407314Y-14500500D01*
X9500500Y-14407314D01*
X9500503Y-14407309D01*
X9566390Y-14293190D01*
X9566390Y-14293188D01*
X9566392Y-14293186D01*
X9600500Y-14165892D01*
X9600500Y-14034108D01*
X9566392Y-13906814D01*
X9566390Y-13906811D01*
X9566390Y-13906809D01*
X9500503Y-13792690D01*
X9500501Y-13792688D01*
X9500500Y-13792686D01*
X9441922Y-13734108D01*
X19499500Y-13734108D01*
X19499500Y-13865892D01*
X19508773Y-13900500D01*
X19533609Y-13993190D01*
X19599496Y-14107309D01*
X19599498Y-14107311D01*
X19599500Y-14107314D01*
X19692686Y-14200500D01*
X19692688Y-14200501D01*
X19692690Y-14200503D01*
X19806810Y-14266390D01*
X19806808Y-14266390D01*
X19806812Y-14266391D01*
X19806814Y-14266392D01*
X19934108Y-14300500D01*
X19934110Y-14300500D01*
X20065890Y-14300500D01*
X20065892Y-14300500D01*
X20193186Y-14266392D01*
X20193188Y-14266390D01*
X20193190Y-14266390D01*
X20307309Y-14200503D01*
X20307309Y-14200502D01*
X20307314Y-14200500D01*
X20400500Y-14107314D01*
X20442766Y-14034108D01*
X20466390Y-13993190D01*
X20466390Y-13993188D01*
X20466392Y-13993186D01*
X20500500Y-13865892D01*
X20500500Y-13734108D01*
X20466392Y-13606814D01*
X20466390Y-13606811D01*
X20466390Y-13606809D01*
X20400503Y-13492690D01*
X20400501Y-13492688D01*
X20400500Y-13492686D01*
X20307314Y-13399500D01*
X20307311Y-13399498D01*
X20307309Y-13399496D01*
X20193189Y-13333609D01*
X20193191Y-13333609D01*
X20143799Y-13320375D01*
X20065892Y-13299500D01*
X19934108Y-13299500D01*
X19856200Y-13320375D01*
X19806809Y-13333609D01*
X19692690Y-13399496D01*
X19599496Y-13492690D01*
X19533609Y-13606809D01*
X19526428Y-13633609D01*
X19499500Y-13734108D01*
X9441922Y-13734108D01*
X9407314Y-13699500D01*
X9407311Y-13699498D01*
X9407309Y-13699496D01*
X9293189Y-13633609D01*
X9293191Y-13633609D01*
X9243799Y-13620375D01*
X9165892Y-13599500D01*
X9034108Y-13599500D01*
X8956200Y-13620375D01*
X8906809Y-13633609D01*
X8792690Y-13699496D01*
X8699496Y-13792690D01*
X8633609Y-13906809D01*
X8599500Y-14034109D01*
X8599500Y-14134520D01*
X8580593Y-14192711D01*
X8570504Y-14204524D01*
X6604525Y-16170504D01*
X6550008Y-16198281D01*
X6534521Y-16199500D01*
X5960435Y-16199500D01*
X5884011Y-16219978D01*
X5884007Y-16219980D01*
X5815489Y-16259539D01*
X5604524Y-16470504D01*
X5550008Y-16498281D01*
X5534521Y-16499500D01*
X5534108Y-16499500D01*
X5456200Y-16520375D01*
X5406809Y-16533609D01*
X5292690Y-16599496D01*
X5199496Y-16692690D01*
X5133609Y-16806809D01*
X5133608Y-16806814D01*
X5099500Y-16934108D01*
X500500Y-16934108D01*
X500500Y-13434108D01*
X6199500Y-13434108D01*
X6199500Y-13565892D01*
X6210464Y-13606809D01*
X6233609Y-13693190D01*
X6299496Y-13807309D01*
X6299498Y-13807311D01*
X6299500Y-13807314D01*
X6392686Y-13900500D01*
X6392688Y-13900501D01*
X6392690Y-13900503D01*
X6506810Y-13966390D01*
X6506808Y-13966390D01*
X6506812Y-13966391D01*
X6506814Y-13966392D01*
X6634108Y-14000500D01*
X6634110Y-14000500D01*
X6765890Y-14000500D01*
X6765892Y-14000500D01*
X6893186Y-13966392D01*
X6893188Y-13966390D01*
X6893190Y-13966390D01*
X7007309Y-13900503D01*
X7007309Y-13900502D01*
X7007314Y-13900500D01*
X7100500Y-13807314D01*
X7166392Y-13693186D01*
X7200500Y-13565892D01*
X7200500Y-13434108D01*
X7166392Y-13306814D01*
X7166390Y-13306811D01*
X7166390Y-13306809D01*
X7100503Y-13192690D01*
X7100501Y-13192688D01*
X7100500Y-13192686D01*
X7007314Y-13099500D01*
X7007311Y-13099498D01*
X7007309Y-13099496D01*
X6893189Y-13033609D01*
X6893191Y-13033609D01*
X6843799Y-13020375D01*
X6765892Y-12999500D01*
X6634108Y-12999500D01*
X6556200Y-13020375D01*
X6506809Y-13033609D01*
X6392690Y-13099496D01*
X6299496Y-13192690D01*
X6233609Y-13306809D01*
X6226428Y-13333609D01*
X6199500Y-13434108D01*
X500500Y-13434108D01*
X500500Y-12334108D01*
X5099500Y-12334108D01*
X5099500Y-12465892D01*
X5108773Y-12500500D01*
X5133609Y-12593190D01*
X5199496Y-12707309D01*
X5199498Y-12707311D01*
X5199500Y-12707314D01*
X5292686Y-12800500D01*
X5292688Y-12800501D01*
X5292690Y-12800503D01*
X5406810Y-12866390D01*
X5406808Y-12866390D01*
X5406812Y-12866391D01*
X5406814Y-12866392D01*
X5534108Y-12900500D01*
X5534110Y-12900500D01*
X5665890Y-12900500D01*
X5665892Y-12900500D01*
X5793186Y-12866392D01*
X5793188Y-12866390D01*
X5793190Y-12866390D01*
X5907309Y-12800503D01*
X5907309Y-12800502D01*
X5907314Y-12800500D01*
X6000500Y-12707314D01*
X6066392Y-12593186D01*
X6100500Y-12465892D01*
X6100500Y-12334108D01*
X6066392Y-12206814D01*
X6066390Y-12206811D01*
X6066390Y-12206809D01*
X6000503Y-12092690D01*
X6000501Y-12092688D01*
X6000500Y-12092686D01*
X5929494Y-12021680D01*
X5925869Y-12014565D01*
X5919407Y-12009870D01*
X5912243Y-11987821D01*
X5901719Y-11967166D01*
X5900500Y-11951679D01*
X5900500Y-11934108D01*
X19499500Y-11934108D01*
X19499500Y-12065892D01*
X19508773Y-12100500D01*
X19533609Y-12193190D01*
X19599496Y-12307309D01*
X19599498Y-12307311D01*
X19599500Y-12307314D01*
X19692686Y-12400500D01*
X19692688Y-12400501D01*
X19692690Y-12400503D01*
X19806810Y-12466390D01*
X19806808Y-12466390D01*
X19806812Y-12466391D01*
X19806814Y-12466392D01*
X19934108Y-12500500D01*
X19934110Y-12500500D01*
X20065890Y-12500500D01*
X20065892Y-12500500D01*
X20193186Y-12466392D01*
X20193188Y-12466390D01*
X20193190Y-12466390D01*
X20307309Y-12400503D01*
X20307309Y-12400502D01*
X20307314Y-12400500D01*
X20400500Y-12307314D01*
X20400503Y-12307309D01*
X20466390Y-12193190D01*
X20466390Y-12193188D01*
X20466392Y-12193186D01*
X20500500Y-12065892D01*
X20500500Y-11934108D01*
X22599500Y-11934108D01*
X22599500Y-12065892D01*
X22608773Y-12100500D01*
X22633609Y-12193190D01*
X22699496Y-12307309D01*
X22699498Y-12307311D01*
X22699500Y-12307314D01*
X22792686Y-12400500D01*
X22792688Y-12400501D01*
X22792690Y-12400503D01*
X22906810Y-12466390D01*
X22906808Y-12466390D01*
X22906812Y-12466391D01*
X22906814Y-12466392D01*
X23034108Y-12500500D01*
X23034110Y-12500500D01*
X23165890Y-12500500D01*
X23165892Y-12500500D01*
X23293186Y-12466392D01*
X23293188Y-12466390D01*
X23293190Y-12466390D01*
X23407309Y-12400503D01*
X23407309Y-12400502D01*
X23407314Y-12400500D01*
X23500500Y-12307314D01*
X23500503Y-12307309D01*
X23566390Y-12193190D01*
X23566390Y-12193188D01*
X23566392Y-12193186D01*
X23600500Y-12065892D01*
X23600500Y-11934108D01*
X23566392Y-11806814D01*
X23566390Y-11806811D01*
X23566390Y-11806809D01*
X23500503Y-11692690D01*
X23500501Y-11692688D01*
X23500500Y-11692686D01*
X23407314Y-11599500D01*
X23407311Y-11599498D01*
X23407309Y-11599496D01*
X23293189Y-11533609D01*
X23293191Y-11533609D01*
X23243799Y-11520375D01*
X23165892Y-11499500D01*
X23034108Y-11499500D01*
X22956200Y-11520375D01*
X22906809Y-11533609D01*
X22792690Y-11599496D01*
X22699496Y-11692690D01*
X22633609Y-11806809D01*
X22633608Y-11806814D01*
X22599500Y-11934108D01*
X20500500Y-11934108D01*
X20466392Y-11806814D01*
X20466390Y-11806811D01*
X20466390Y-11806809D01*
X20400503Y-11692690D01*
X20400501Y-11692688D01*
X20400500Y-11692686D01*
X20307314Y-11599500D01*
X20307311Y-11599498D01*
X20307309Y-11599496D01*
X20193189Y-11533609D01*
X20193191Y-11533609D01*
X20143799Y-11520375D01*
X20065892Y-11499500D01*
X19934108Y-11499500D01*
X19856200Y-11520375D01*
X19806809Y-11533609D01*
X19692690Y-11599496D01*
X19599496Y-11692690D01*
X19533609Y-11806809D01*
X19533608Y-11806814D01*
X19499500Y-11934108D01*
X5900500Y-11934108D01*
X5900500Y-11334108D01*
X23999500Y-11334108D01*
X23999500Y-11465892D01*
X24010464Y-11506809D01*
X24033609Y-11593190D01*
X24099496Y-11707309D01*
X24099498Y-11707311D01*
X24099500Y-11707314D01*
X24192686Y-11800500D01*
X24192688Y-11800501D01*
X24192690Y-11800503D01*
X24306810Y-11866390D01*
X24306808Y-11866390D01*
X24306812Y-11866391D01*
X24306814Y-11866392D01*
X24434108Y-11900500D01*
X24434110Y-11900500D01*
X24565890Y-11900500D01*
X24565892Y-11900500D01*
X24693186Y-11866392D01*
X24693188Y-11866390D01*
X24693190Y-11866390D01*
X24807309Y-11800503D01*
X24807309Y-11800502D01*
X24807314Y-11800500D01*
X24900500Y-11707314D01*
X24914589Y-11682912D01*
X24966390Y-11593190D01*
X24966390Y-11593188D01*
X24966392Y-11593186D01*
X25000500Y-11465892D01*
X25000500Y-11334108D01*
X24966392Y-11206814D01*
X24966390Y-11206811D01*
X24966390Y-11206809D01*
X24900503Y-11092690D01*
X24900501Y-11092688D01*
X24900500Y-11092686D01*
X24807314Y-10999500D01*
X24807311Y-10999498D01*
X24807309Y-10999496D01*
X24693189Y-10933609D01*
X24693191Y-10933609D01*
X24643799Y-10920375D01*
X24565892Y-10899500D01*
X24434108Y-10899500D01*
X24356200Y-10920375D01*
X24306809Y-10933609D01*
X24192690Y-10999496D01*
X24099496Y-11092690D01*
X24033609Y-11206809D01*
X24018483Y-11263263D01*
X23999500Y-11334108D01*
X5900500Y-11334108D01*
X5900500Y-10993986D01*
X5919407Y-10935795D01*
X5968907Y-10899831D01*
X5973836Y-10898371D01*
X6093186Y-10866392D01*
X6207314Y-10800500D01*
X6300500Y-10707314D01*
X6300792Y-10706809D01*
X6366390Y-10593190D01*
X6366390Y-10593188D01*
X6366392Y-10593186D01*
X6400500Y-10465892D01*
X6400500Y-10334108D01*
X6366392Y-10206814D01*
X6366390Y-10206811D01*
X6366390Y-10206809D01*
X6300503Y-10092690D01*
X6300501Y-10092688D01*
X6300500Y-10092686D01*
X6241922Y-10034108D01*
X23499500Y-10034108D01*
X23499500Y-10165892D01*
X23508773Y-10200500D01*
X23533609Y-10293190D01*
X23599496Y-10407309D01*
X23599498Y-10407311D01*
X23599500Y-10407314D01*
X23692686Y-10500500D01*
X23692688Y-10500501D01*
X23692690Y-10500503D01*
X23806810Y-10566390D01*
X23806808Y-10566390D01*
X23806812Y-10566391D01*
X23806814Y-10566392D01*
X23934108Y-10600500D01*
X23934110Y-10600500D01*
X24065890Y-10600500D01*
X24065892Y-10600500D01*
X24193186Y-10566392D01*
X24193188Y-10566390D01*
X24193190Y-10566390D01*
X24307309Y-10500503D01*
X24307309Y-10500502D01*
X24307314Y-10500500D01*
X24400500Y-10407314D01*
X24400503Y-10407309D01*
X24466390Y-10293190D01*
X24466390Y-10293188D01*
X24466392Y-10293186D01*
X24500500Y-10165892D01*
X24500500Y-10034108D01*
X24466392Y-9906814D01*
X24466390Y-9906811D01*
X24466390Y-9906809D01*
X24400503Y-9792690D01*
X24400501Y-9792688D01*
X24400500Y-9792686D01*
X24307314Y-9699500D01*
X24307311Y-9699498D01*
X24307309Y-9699496D01*
X24194053Y-9634108D01*
X29099500Y-9634108D01*
X29099500Y-9765892D01*
X29129579Y-9878151D01*
X29133609Y-9893190D01*
X29199496Y-10007309D01*
X29199498Y-10007311D01*
X29199500Y-10007314D01*
X29292686Y-10100500D01*
X29292688Y-10100501D01*
X29292690Y-10100503D01*
X29406810Y-10166390D01*
X29406808Y-10166390D01*
X29406812Y-10166391D01*
X29406814Y-10166392D01*
X29534108Y-10200500D01*
X29534110Y-10200500D01*
X29665890Y-10200500D01*
X29665892Y-10200500D01*
X29793186Y-10166392D01*
X29793188Y-10166390D01*
X29793190Y-10166390D01*
X29907309Y-10100503D01*
X29907309Y-10100502D01*
X29907314Y-10100500D01*
X30000500Y-10007314D01*
X30000503Y-10007309D01*
X30066390Y-9893190D01*
X30066390Y-9893188D01*
X30066392Y-9893186D01*
X30100500Y-9765892D01*
X30100500Y-9634108D01*
X30066392Y-9506814D01*
X30066390Y-9506811D01*
X30066390Y-9506809D01*
X30000503Y-9392690D01*
X30000501Y-9392688D01*
X30000500Y-9392686D01*
X29907314Y-9299500D01*
X29907311Y-9299498D01*
X29907309Y-9299496D01*
X29793189Y-9233609D01*
X29793191Y-9233609D01*
X29743799Y-9220375D01*
X29665892Y-9199500D01*
X29534108Y-9199500D01*
X29456200Y-9220375D01*
X29406809Y-9233609D01*
X29292690Y-9299496D01*
X29199496Y-9392690D01*
X29133609Y-9506809D01*
X29133608Y-9506814D01*
X29099500Y-9634108D01*
X24194053Y-9634108D01*
X24193189Y-9633609D01*
X24193191Y-9633609D01*
X24143799Y-9620375D01*
X24065892Y-9599500D01*
X23934108Y-9599500D01*
X23856200Y-9620375D01*
X23806809Y-9633609D01*
X23692690Y-9699496D01*
X23599496Y-9792690D01*
X23533609Y-9906809D01*
X23526428Y-9933609D01*
X23499500Y-10034108D01*
X6241922Y-10034108D01*
X6207314Y-9999500D01*
X6207311Y-9999498D01*
X6207309Y-9999496D01*
X6093189Y-9933609D01*
X6093191Y-9933609D01*
X6043799Y-9920375D01*
X5965892Y-9899500D01*
X5834108Y-9899500D01*
X5756200Y-9920375D01*
X5706809Y-9933609D01*
X5592690Y-9999496D01*
X5499496Y-10092690D01*
X5433609Y-10206809D01*
X5399500Y-10334109D01*
X5399500Y-10434521D01*
X5380593Y-10492712D01*
X5370506Y-10504522D01*
X5359540Y-10515488D01*
X5319980Y-10584007D01*
X5319978Y-10584011D01*
X5299500Y-10660435D01*
X5299500Y-11951679D01*
X5280593Y-12009870D01*
X5270509Y-12021676D01*
X5226296Y-12065890D01*
X5199497Y-12092689D01*
X5199496Y-12092690D01*
X5133609Y-12206809D01*
X5133608Y-12206814D01*
X5099500Y-12334108D01*
X500500Y-12334108D01*
X500500Y-8634108D01*
X2399500Y-8634108D01*
X2399500Y-8765892D01*
X2408773Y-8800500D01*
X2433609Y-8893190D01*
X2499496Y-9007309D01*
X2499498Y-9007311D01*
X2499500Y-9007314D01*
X2592686Y-9100500D01*
X2592688Y-9100501D01*
X2592690Y-9100503D01*
X2706810Y-9166390D01*
X2706808Y-9166390D01*
X2706812Y-9166391D01*
X2706814Y-9166392D01*
X2834108Y-9200500D01*
X2834110Y-9200500D01*
X2965890Y-9200500D01*
X2965892Y-9200500D01*
X3093186Y-9166392D01*
X3093188Y-9166390D01*
X3093190Y-9166390D01*
X3207309Y-9100503D01*
X3207309Y-9100502D01*
X3207314Y-9100500D01*
X3300500Y-9007314D01*
X3366392Y-8893186D01*
X3400500Y-8765892D01*
X3400500Y-8634108D01*
X3366392Y-8506814D01*
X3366390Y-8506811D01*
X3366390Y-8506809D01*
X3300503Y-8392690D01*
X3300501Y-8392688D01*
X3300500Y-8392686D01*
X3207314Y-8299500D01*
X3207311Y-8299498D01*
X3207309Y-8299496D01*
X3094053Y-8234108D01*
X29999500Y-8234108D01*
X29999500Y-8365892D01*
X30029579Y-8478151D01*
X30033609Y-8493190D01*
X30099496Y-8607309D01*
X30099498Y-8607311D01*
X30099500Y-8607314D01*
X30192686Y-8700500D01*
X30192688Y-8700501D01*
X30192690Y-8700503D01*
X30306810Y-8766390D01*
X30306808Y-8766390D01*
X30306812Y-8766391D01*
X30306814Y-8766392D01*
X30434108Y-8800500D01*
X30434110Y-8800500D01*
X30565890Y-8800500D01*
X30565892Y-8800500D01*
X30693186Y-8766392D01*
X30693188Y-8766390D01*
X30693190Y-8766390D01*
X30807309Y-8700503D01*
X30807309Y-8700502D01*
X30807314Y-8700500D01*
X30900500Y-8607314D01*
X30966392Y-8493186D01*
X31000500Y-8365892D01*
X31000500Y-8234108D01*
X30966392Y-8106814D01*
X30966390Y-8106811D01*
X30966390Y-8106809D01*
X30900503Y-7992690D01*
X30900501Y-7992688D01*
X30900500Y-7992686D01*
X30807314Y-7899500D01*
X30807311Y-7899498D01*
X30807309Y-7899496D01*
X30693189Y-7833609D01*
X30693191Y-7833609D01*
X30643799Y-7820375D01*
X30565892Y-7799500D01*
X30434108Y-7799500D01*
X30356200Y-7820375D01*
X30306809Y-7833609D01*
X30192690Y-7899496D01*
X30099496Y-7992690D01*
X30033609Y-8106809D01*
X30033608Y-8106814D01*
X29999500Y-8234108D01*
X3094053Y-8234108D01*
X3093189Y-8233609D01*
X3093191Y-8233609D01*
X3043799Y-8220375D01*
X2965892Y-8199500D01*
X2834108Y-8199500D01*
X2756200Y-8220375D01*
X2706809Y-8233609D01*
X2592690Y-8299496D01*
X2499496Y-8392690D01*
X2433609Y-8506809D01*
X2433608Y-8506814D01*
X2399500Y-8634108D01*
X500500Y-8634108D01*
X500500Y-7234108D01*
X22599500Y-7234108D01*
X22599500Y-7365892D01*
X22610464Y-7406809D01*
X22633609Y-7493190D01*
X22699496Y-7607309D01*
X22699498Y-7607311D01*
X22699500Y-7607314D01*
X22792686Y-7700500D01*
X22792688Y-7700501D01*
X22792690Y-7700503D01*
X22906810Y-7766390D01*
X22906808Y-7766390D01*
X22906812Y-7766391D01*
X22906814Y-7766392D01*
X23034108Y-7800500D01*
X23034110Y-7800500D01*
X23165890Y-7800500D01*
X23165892Y-7800500D01*
X23293186Y-7766392D01*
X23293188Y-7766390D01*
X23293190Y-7766390D01*
X23407309Y-7700503D01*
X23407309Y-7700502D01*
X23407314Y-7700500D01*
X23500500Y-7607314D01*
X23542766Y-7534108D01*
X25999500Y-7534108D01*
X25999500Y-7665892D01*
X26008773Y-7700500D01*
X26033609Y-7793190D01*
X26099496Y-7907309D01*
X26099498Y-7907311D01*
X26099500Y-7907314D01*
X26192686Y-8000500D01*
X26192688Y-8000501D01*
X26192690Y-8000503D01*
X26306810Y-8066390D01*
X26306808Y-8066390D01*
X26306812Y-8066391D01*
X26306814Y-8066392D01*
X26434108Y-8100500D01*
X26434110Y-8100500D01*
X26565890Y-8100500D01*
X26565892Y-8100500D01*
X26693186Y-8066392D01*
X26693188Y-8066390D01*
X26693190Y-8066390D01*
X26807309Y-8000503D01*
X26807309Y-8000502D01*
X26807314Y-8000500D01*
X26900500Y-7907314D01*
X26900503Y-7907309D01*
X26966390Y-7793190D01*
X26966390Y-7793188D01*
X26966392Y-7793186D01*
X27000500Y-7665892D01*
X27000500Y-7534108D01*
X26966392Y-7406814D01*
X26966390Y-7406811D01*
X26966390Y-7406809D01*
X26900503Y-7292690D01*
X26900501Y-7292688D01*
X26900500Y-7292686D01*
X26807314Y-7199500D01*
X26807311Y-7199498D01*
X26807309Y-7199496D01*
X26693189Y-7133609D01*
X26693191Y-7133609D01*
X26643799Y-7120375D01*
X26565892Y-7099500D01*
X26434108Y-7099500D01*
X26356200Y-7120375D01*
X26306809Y-7133609D01*
X26192690Y-7199496D01*
X26099496Y-7292690D01*
X26033609Y-7406809D01*
X26033608Y-7406814D01*
X25999500Y-7534108D01*
X23542766Y-7534108D01*
X23566392Y-7493186D01*
X23600500Y-7365892D01*
X23600500Y-7234108D01*
X23566392Y-7106814D01*
X23566390Y-7106811D01*
X23566390Y-7106809D01*
X23500503Y-6992690D01*
X23500501Y-6992688D01*
X23500500Y-6992686D01*
X23407314Y-6899500D01*
X23407311Y-6899498D01*
X23407309Y-6899496D01*
X23293189Y-6833609D01*
X23293191Y-6833609D01*
X23243799Y-6820375D01*
X23165892Y-6799500D01*
X23034108Y-6799500D01*
X22956200Y-6820375D01*
X22906809Y-6833609D01*
X22792690Y-6899496D01*
X22699496Y-6992690D01*
X22633609Y-7106809D01*
X22626428Y-7133609D01*
X22599500Y-7234108D01*
X500500Y-7234108D01*
X500500Y-6034108D01*
X2399500Y-6034108D01*
X2399500Y-6165892D01*
X2410464Y-6206809D01*
X2433609Y-6293190D01*
X2499496Y-6407309D01*
X2499498Y-6407311D01*
X2499500Y-6407314D01*
X2592686Y-6500500D01*
X2592688Y-6500501D01*
X2592690Y-6500503D01*
X2706810Y-6566390D01*
X2706808Y-6566390D01*
X2706812Y-6566391D01*
X2706814Y-6566392D01*
X2834108Y-6600500D01*
X2834110Y-6600500D01*
X2965890Y-6600500D01*
X2965892Y-6600500D01*
X3093186Y-6566392D01*
X3093188Y-6566390D01*
X3093190Y-6566390D01*
X3207309Y-6500503D01*
X3207309Y-6500502D01*
X3207314Y-6500500D01*
X3300500Y-6407314D01*
X3342766Y-6334108D01*
X25999500Y-6334108D01*
X25999500Y-6465892D01*
X26008773Y-6500500D01*
X26033609Y-6593190D01*
X26099496Y-6707309D01*
X26099498Y-6707311D01*
X26099500Y-6707314D01*
X26192686Y-6800500D01*
X26192688Y-6800501D01*
X26192690Y-6800503D01*
X26306810Y-6866390D01*
X26306808Y-6866390D01*
X26306812Y-6866391D01*
X26306814Y-6866392D01*
X26434108Y-6900500D01*
X26434110Y-6900500D01*
X26565890Y-6900500D01*
X26565892Y-6900500D01*
X26693186Y-6866392D01*
X26693188Y-6866390D01*
X26693190Y-6866390D01*
X26807309Y-6800503D01*
X26807309Y-6800502D01*
X26807314Y-6800500D01*
X26900500Y-6707314D01*
X26900503Y-6707309D01*
X26966390Y-6593190D01*
X26966390Y-6593188D01*
X26966392Y-6593186D01*
X27000500Y-6465892D01*
X27000500Y-6334108D01*
X29099500Y-6334108D01*
X29099500Y-6465892D01*
X29108773Y-6500500D01*
X29133609Y-6593190D01*
X29199496Y-6707309D01*
X29199498Y-6707311D01*
X29199500Y-6707314D01*
X29292686Y-6800500D01*
X29292688Y-6800501D01*
X29292690Y-6800503D01*
X29406810Y-6866390D01*
X29406808Y-6866390D01*
X29406812Y-6866391D01*
X29406814Y-6866392D01*
X29534108Y-6900500D01*
X29534110Y-6900500D01*
X29665890Y-6900500D01*
X29665892Y-6900500D01*
X29793186Y-6866392D01*
X29793188Y-6866390D01*
X29793190Y-6866390D01*
X29907309Y-6800503D01*
X29907309Y-6800502D01*
X29907314Y-6800500D01*
X30000500Y-6707314D01*
X30000503Y-6707309D01*
X30066390Y-6593190D01*
X30066390Y-6593188D01*
X30066392Y-6593186D01*
X30100500Y-6465892D01*
X30100500Y-6334108D01*
X30066392Y-6206814D01*
X30066390Y-6206811D01*
X30066390Y-6206809D01*
X30000503Y-6092690D01*
X30000501Y-6092688D01*
X30000500Y-6092686D01*
X29907314Y-5999500D01*
X29907311Y-5999498D01*
X29907309Y-5999496D01*
X29793189Y-5933609D01*
X29793191Y-5933609D01*
X29743799Y-5920375D01*
X29665892Y-5899500D01*
X29534108Y-5899500D01*
X29456200Y-5920375D01*
X29406809Y-5933609D01*
X29292690Y-5999496D01*
X29199496Y-6092690D01*
X29133609Y-6206809D01*
X29133608Y-6206814D01*
X29099500Y-6334108D01*
X27000500Y-6334108D01*
X26966392Y-6206814D01*
X26966390Y-6206811D01*
X26966390Y-6206809D01*
X26900503Y-6092690D01*
X26900501Y-6092688D01*
X26900500Y-6092686D01*
X26807314Y-5999500D01*
X26807311Y-5999498D01*
X26807309Y-5999496D01*
X26693189Y-5933609D01*
X26693191Y-5933609D01*
X26643799Y-5920375D01*
X26565892Y-5899500D01*
X26434108Y-5899500D01*
X26356200Y-5920375D01*
X26306809Y-5933609D01*
X26192690Y-5999496D01*
X26099496Y-6092690D01*
X26033609Y-6206809D01*
X26033608Y-6206814D01*
X25999500Y-6334108D01*
X3342766Y-6334108D01*
X3366392Y-6293186D01*
X3400500Y-6165892D01*
X3400500Y-6034108D01*
X3366392Y-5906814D01*
X3366390Y-5906811D01*
X3366390Y-5906809D01*
X3300503Y-5792690D01*
X3300501Y-5792688D01*
X3300500Y-5792686D01*
X3207314Y-5699500D01*
X3207311Y-5699498D01*
X3207309Y-5699496D01*
X3093189Y-5633609D01*
X3093191Y-5633609D01*
X3043799Y-5620375D01*
X2965892Y-5599500D01*
X2834108Y-5599500D01*
X2756200Y-5620375D01*
X2706809Y-5633609D01*
X2592690Y-5699496D01*
X2499496Y-5792690D01*
X2433609Y-5906809D01*
X2426428Y-5933609D01*
X2399500Y-6034108D01*
X500500Y-6034108D01*
X500500Y-4999000D01*
X519407Y-4940809D01*
X568907Y-4904845D01*
X599500Y-4900000D01*
X26999999Y-4900000D01*
X27000000Y-4900000D01*
X27000000Y-2834108D01*
X47399500Y-2834108D01*
X47399500Y-2965892D01*
X47429579Y-3078151D01*
X47433609Y-3093190D01*
X47499496Y-3207309D01*
X47499498Y-3207311D01*
X47499500Y-3207314D01*
X47592686Y-3300500D01*
X47592688Y-3300501D01*
X47592690Y-3300503D01*
X47706810Y-3366390D01*
X47706808Y-3366390D01*
X47706812Y-3366391D01*
X47706814Y-3366392D01*
X47834108Y-3400500D01*
X47834110Y-3400500D01*
X47965890Y-3400500D01*
X47965892Y-3400500D01*
X48093186Y-3366392D01*
X48093188Y-3366390D01*
X48093190Y-3366390D01*
X48207309Y-3300503D01*
X48207309Y-3300502D01*
X48207314Y-3300500D01*
X48300500Y-3207314D01*
X48366392Y-3093186D01*
X48400500Y-2965892D01*
X48400500Y-2834108D01*
X48390730Y-2797644D01*
X50999500Y-2797644D01*
X50999500Y-3002355D01*
X51031521Y-3204529D01*
X51094780Y-3399219D01*
X51187712Y-3581609D01*
X51187714Y-3581613D01*
X51308029Y-3747213D01*
X51308031Y-3747215D01*
X51308034Y-3747219D01*
X51452781Y-3891966D01*
X51452784Y-3891968D01*
X51452786Y-3891970D01*
X51618386Y-4012285D01*
X51618390Y-4012287D01*
X51800781Y-4105220D01*
X51995466Y-4168477D01*
X51995467Y-4168477D01*
X51995470Y-4168478D01*
X52197645Y-4200500D01*
X52197648Y-4200500D01*
X52402355Y-4200500D01*
X52604529Y-4168478D01*
X52604530Y-4168477D01*
X52604534Y-4168477D01*
X52799219Y-4105220D01*
X52981610Y-4012287D01*
X53147219Y-3891966D01*
X53291966Y-3747219D01*
X53412287Y-3581610D01*
X53505220Y-3399219D01*
X53568477Y-3204534D01*
X53568478Y-3204529D01*
X53600500Y-3002355D01*
X53600500Y-2797644D01*
X53568478Y-2595470D01*
X53567575Y-2592690D01*
X53505220Y-2400781D01*
X53412287Y-2218390D01*
X53412285Y-2218386D01*
X53291970Y-2052786D01*
X53291968Y-2052784D01*
X53291966Y-2052781D01*
X53147219Y-1908034D01*
X53147215Y-1908031D01*
X53147213Y-1908029D01*
X52981613Y-1787714D01*
X52981609Y-1787712D01*
X52799219Y-1694780D01*
X52604529Y-1631521D01*
X52402355Y-1599500D01*
X52402352Y-1599500D01*
X52197648Y-1599500D01*
X52197645Y-1599500D01*
X51995470Y-1631521D01*
X51800780Y-1694780D01*
X51618390Y-1787712D01*
X51618386Y-1787714D01*
X51452786Y-1908029D01*
X51308029Y-2052786D01*
X51187714Y-2218386D01*
X51187712Y-2218390D01*
X51094780Y-2400780D01*
X51031521Y-2595470D01*
X50999500Y-2797644D01*
X48390730Y-2797644D01*
X48366392Y-2706814D01*
X48366390Y-2706811D01*
X48366390Y-2706809D01*
X48300503Y-2592690D01*
X48300501Y-2592688D01*
X48300500Y-2592686D01*
X48207314Y-2499500D01*
X48207311Y-2499498D01*
X48207309Y-2499496D01*
X48093189Y-2433609D01*
X48093191Y-2433609D01*
X48043799Y-2420375D01*
X47965892Y-2399500D01*
X47834108Y-2399500D01*
X47756200Y-2420375D01*
X47706809Y-2433609D01*
X47592690Y-2499496D01*
X47499496Y-2592690D01*
X47433609Y-2706809D01*
X47433608Y-2706814D01*
X47399500Y-2834108D01*
X27000000Y-2834108D01*
X27000000Y-599500D01*
X27018907Y-541309D01*
X27068407Y-505345D01*
X27099000Y-500500D01*
X54400500Y-500500D01*
X54458691Y-519407D01*
G37*
%TD.AperFunction*%
%TD*%
M02*
