M48
; DRILL file {KiCad 9.0.8+dfsg-1} date 2026-10-05T04:22:02+0200
; FORMAT={-:-/ absolute / metric / decimal}
; #@! TF.CreationDate,2026-10-05T04:22:02+02:00
; #@! TF.GenerationSoftware,Kicad,Pcbnew,9.0.8+dfsg-1
; #@! TF.FileFunction,Plated,1,4,PTH
FMAT,2
METRIC
; #@! TA.AperFunction,Plated,PTH,ComponentDrill
T1C0.200
; #@! TA.AperFunction,Plated,PTH,ViaDrill
T2C0.300
; #@! TA.AperFunction,Plated,PTH,ComponentDrill
T3C1.000
%
G90
G05
T1
X12.86Y-11.65
X12.86Y-12.75
X13.41Y-11.1
X13.41Y-12.2
X13.41Y-13.3
X13.96Y-11.65
X13.96Y-12.75
X14.51Y-11.1
X14.51Y-12.2
X14.51Y-13.3
X15.06Y-11.65
X15.06Y-12.75
T2
X2.9Y-6.1
X2.9Y-8.7
X4.4Y-19.0
X4.5Y-34.7
X4.5Y-35.9
X5.6Y-12.4
X5.6Y-17.0
X5.9Y-10.4
X6.7Y-13.5
X7.2Y-39.2
X9.1Y-14.1
X13.1Y-36.5
X13.2Y-22.8
X15.0Y-23.9
X15.7Y-35.0
X17.9Y-30.9
X18.3Y-29.2
X19.0Y-23.6
X19.0Y-35.0
X19.9Y-25.5
X20.0Y-12.0
X20.0Y-13.8
X21.3Y-35.0
X22.0Y-36.3
X23.1Y-7.3
X23.1Y-12.0
X23.1Y-18.5
X23.1Y-33.7
X23.4Y-24.2
X23.4Y-35.8
X24.0Y-10.1
X24.5Y-11.4
X24.7Y-35.5
X24.8Y-21.9
X26.4Y-10.0
X26.5Y-6.4
X26.5Y-7.6
X27.9Y-2.9
X28.9Y-23.4
X29.6Y-6.4
X29.6Y-9.7
X29.6Y-10.9
X29.7Y-11.7
X29.8Y-23.4
X30.2Y-39.1
X30.5Y-8.3
X32.8Y-23.2
X32.8Y-24.6
X32.8Y-29.2
X43.3Y-40.2
X44.5Y-29.2
X44.5Y-31.4
X46.3Y-5.8
X46.3Y-12.8
X47.9Y-2.9
X48.7Y-32.5
X48.7Y-37.0
X49.875Y-42.0
X50.1Y-11.8
X51.45Y-43.5
X51.9Y-11.2
X52.875Y-42.0
T3
X4.0Y-42.0
X6.0Y-25.0
X6.0Y-30.0
X6.54Y-42.0
X20.0Y-42.0
X22.54Y-42.0
X25.08Y-42.0
X27.62Y-42.0
X30.16Y-42.0
X32.7Y-42.0
X40.0Y-42.0
X42.54Y-42.0
X45.08Y-42.0
X47.62Y-42.0
M30
