%TF.GenerationSoftware,KiCad,Pcbnew,9.0.8+dfsg-1*%
%TF.CreationDate,2026-10-05T04:22:02+02:00*%
%TF.ProjectId,v8i_krt_gnss,7638695f-6b72-4745-9f67-6e73732e6b69,rev?*%
%TF.SameCoordinates,Original*%
%TF.FileFunction,Legend,Top*%
%TF.FilePolarity,Positive*%
%FSLAX46Y46*%
G04 Gerber Fmt 4.6, Leading zero omitted, Abs format (unit mm)*
G04 Created by KiCad (PCBNEW 9.0.8+dfsg-1) date 2026-10-05 04:22:02*
%MOMM*%
%LPD*%
G01*
G04 APERTURE LIST*
%ADD10C,0.150000*%
%ADD11C,0.120000*%
%ADD12C,0.100000*%
G04 APERTURE END LIST*
D10*
X49380952Y-25669104D02*
X49857142Y-25669104D01*
X49285714Y-25954819D02*
X49619047Y-24954819D01*
X49619047Y-24954819D02*
X49952380Y-25954819D01*
X50285714Y-25954819D02*
X50285714Y-24954819D01*
X50285714Y-24954819D02*
X50857142Y-25954819D01*
X50857142Y-25954819D02*
X50857142Y-24954819D01*
X51190476Y-24954819D02*
X51761904Y-24954819D01*
X51476190Y-25954819D02*
X51476190Y-24954819D01*
X52619047Y-25954819D02*
X52047619Y-25954819D01*
X52333333Y-25954819D02*
X52333333Y-24954819D01*
X52333333Y-24954819D02*
X52238095Y-25097676D01*
X52238095Y-25097676D02*
X52142857Y-25192914D01*
X52142857Y-25192914D02*
X52047619Y-25240533D01*
X31624819Y-33428571D02*
X31148628Y-33761904D01*
X31624819Y-33999999D02*
X30624819Y-33999999D01*
X30624819Y-33999999D02*
X30624819Y-33619047D01*
X30624819Y-33619047D02*
X30672438Y-33523809D01*
X30672438Y-33523809D02*
X30720057Y-33476190D01*
X30720057Y-33476190D02*
X30815295Y-33428571D01*
X30815295Y-33428571D02*
X30958152Y-33428571D01*
X30958152Y-33428571D02*
X31053390Y-33476190D01*
X31053390Y-33476190D02*
X31101009Y-33523809D01*
X31101009Y-33523809D02*
X31148628Y-33619047D01*
X31148628Y-33619047D02*
X31148628Y-33999999D01*
X31720057Y-33238095D02*
X31720057Y-32476190D01*
X31624819Y-31761904D02*
X31624819Y-32238094D01*
X31624819Y-32238094D02*
X30624819Y-32238094D01*
X31101009Y-31428570D02*
X31101009Y-31095237D01*
X31624819Y-30952380D02*
X31624819Y-31428570D01*
X31624819Y-31428570D02*
X30624819Y-31428570D01*
X30624819Y-31428570D02*
X30624819Y-30952380D01*
X31624819Y-30523808D02*
X30624819Y-30523808D01*
X30624819Y-30523808D02*
X30624819Y-30285713D01*
X30624819Y-30285713D02*
X30672438Y-30142856D01*
X30672438Y-30142856D02*
X30767676Y-30047618D01*
X30767676Y-30047618D02*
X30862914Y-29999999D01*
X30862914Y-29999999D02*
X31053390Y-29952380D01*
X31053390Y-29952380D02*
X31196247Y-29952380D01*
X31196247Y-29952380D02*
X31386723Y-29999999D01*
X31386723Y-29999999D02*
X31481961Y-30047618D01*
X31481961Y-30047618D02*
X31577200Y-30142856D01*
X31577200Y-30142856D02*
X31624819Y-30285713D01*
X31624819Y-30285713D02*
X31624819Y-30523808D01*
X2285714Y-37624819D02*
X1952381Y-37148628D01*
X1714286Y-37624819D02*
X1714286Y-36624819D01*
X1714286Y-36624819D02*
X2095238Y-36624819D01*
X2095238Y-36624819D02*
X2190476Y-36672438D01*
X2190476Y-36672438D02*
X2238095Y-36720057D01*
X2238095Y-36720057D02*
X2285714Y-36815295D01*
X2285714Y-36815295D02*
X2285714Y-36958152D01*
X2285714Y-36958152D02*
X2238095Y-37053390D01*
X2238095Y-37053390D02*
X2190476Y-37101009D01*
X2190476Y-37101009D02*
X2095238Y-37148628D01*
X2095238Y-37148628D02*
X1714286Y-37148628D01*
X2476191Y-37720057D02*
X3238095Y-37720057D01*
X3476191Y-37624819D02*
X3476191Y-36624819D01*
X3476191Y-36624819D02*
X3714286Y-36624819D01*
X3714286Y-36624819D02*
X3857143Y-36672438D01*
X3857143Y-36672438D02*
X3952381Y-36767676D01*
X3952381Y-36767676D02*
X4000000Y-36862914D01*
X4000000Y-36862914D02*
X4047619Y-37053390D01*
X4047619Y-37053390D02*
X4047619Y-37196247D01*
X4047619Y-37196247D02*
X4000000Y-37386723D01*
X4000000Y-37386723D02*
X3952381Y-37481961D01*
X3952381Y-37481961D02*
X3857143Y-37577200D01*
X3857143Y-37577200D02*
X3714286Y-37624819D01*
X3714286Y-37624819D02*
X3476191Y-37624819D01*
X4476191Y-37624819D02*
X4476191Y-36624819D01*
X4809524Y-36624819D02*
X5142857Y-37624819D01*
X5142857Y-37624819D02*
X5476190Y-36624819D01*
X6333333Y-37624819D02*
X5761905Y-37624819D01*
X6047619Y-37624819D02*
X6047619Y-36624819D01*
X6047619Y-36624819D02*
X5952381Y-36767676D01*
X5952381Y-36767676D02*
X5857143Y-36862914D01*
X5857143Y-36862914D02*
X5761905Y-36910533D01*
X18238095Y-27054819D02*
X18238095Y-27864342D01*
X18238095Y-27864342D02*
X18285714Y-27959580D01*
X18285714Y-27959580D02*
X18333333Y-28007200D01*
X18333333Y-28007200D02*
X18428571Y-28054819D01*
X18428571Y-28054819D02*
X18619047Y-28054819D01*
X18619047Y-28054819D02*
X18714285Y-28007200D01*
X18714285Y-28007200D02*
X18761904Y-27959580D01*
X18761904Y-27959580D02*
X18809523Y-27864342D01*
X18809523Y-27864342D02*
X18809523Y-27054819D01*
X19714285Y-27388152D02*
X19714285Y-28054819D01*
X19476190Y-27007200D02*
X19238095Y-27721485D01*
X19238095Y-27721485D02*
X19857142Y-27721485D01*
X22253095Y-32989819D02*
X22253095Y-33799342D01*
X22253095Y-33799342D02*
X22300714Y-33894580D01*
X22300714Y-33894580D02*
X22348333Y-33942200D01*
X22348333Y-33942200D02*
X22443571Y-33989819D01*
X22443571Y-33989819D02*
X22634047Y-33989819D01*
X22634047Y-33989819D02*
X22729285Y-33942200D01*
X22729285Y-33942200D02*
X22776904Y-33894580D01*
X22776904Y-33894580D02*
X22824523Y-33799342D01*
X22824523Y-33799342D02*
X22824523Y-32989819D01*
X23776904Y-32989819D02*
X23300714Y-32989819D01*
X23300714Y-32989819D02*
X23253095Y-33466009D01*
X23253095Y-33466009D02*
X23300714Y-33418390D01*
X23300714Y-33418390D02*
X23395952Y-33370771D01*
X23395952Y-33370771D02*
X23634047Y-33370771D01*
X23634047Y-33370771D02*
X23729285Y-33418390D01*
X23729285Y-33418390D02*
X23776904Y-33466009D01*
X23776904Y-33466009D02*
X23824523Y-33561247D01*
X23824523Y-33561247D02*
X23824523Y-33799342D01*
X23824523Y-33799342D02*
X23776904Y-33894580D01*
X23776904Y-33894580D02*
X23729285Y-33942200D01*
X23729285Y-33942200D02*
X23634047Y-33989819D01*
X23634047Y-33989819D02*
X23395952Y-33989819D01*
X23395952Y-33989819D02*
X23300714Y-33942200D01*
X23300714Y-33942200D02*
X23253095Y-33894580D01*
X23261905Y-25454819D02*
X23261905Y-24454819D01*
X23261905Y-24454819D02*
X23500000Y-24454819D01*
X23500000Y-24454819D02*
X23642857Y-24502438D01*
X23642857Y-24502438D02*
X23738095Y-24597676D01*
X23738095Y-24597676D02*
X23785714Y-24692914D01*
X23785714Y-24692914D02*
X23833333Y-24883390D01*
X23833333Y-24883390D02*
X23833333Y-25026247D01*
X23833333Y-25026247D02*
X23785714Y-25216723D01*
X23785714Y-25216723D02*
X23738095Y-25311961D01*
X23738095Y-25311961D02*
X23642857Y-25407200D01*
X23642857Y-25407200D02*
X23500000Y-25454819D01*
X23500000Y-25454819D02*
X23261905Y-25454819D01*
X24785714Y-25454819D02*
X24214286Y-25454819D01*
X24500000Y-25454819D02*
X24500000Y-24454819D01*
X24500000Y-24454819D02*
X24404762Y-24597676D01*
X24404762Y-24597676D02*
X24309524Y-24692914D01*
X24309524Y-24692914D02*
X24214286Y-24740533D01*
X109580Y-29000000D02*
X157200Y-29047619D01*
X157200Y-29047619D02*
X204819Y-29190476D01*
X204819Y-29190476D02*
X204819Y-29285714D01*
X204819Y-29285714D02*
X157200Y-29428571D01*
X157200Y-29428571D02*
X61961Y-29523809D01*
X61961Y-29523809D02*
X-33276Y-29571428D01*
X-33276Y-29571428D02*
X-223752Y-29619047D01*
X-223752Y-29619047D02*
X-366609Y-29619047D01*
X-366609Y-29619047D02*
X-557085Y-29571428D01*
X-557085Y-29571428D02*
X-652323Y-29523809D01*
X-652323Y-29523809D02*
X-747561Y-29428571D01*
X-747561Y-29428571D02*
X-795180Y-29285714D01*
X-795180Y-29285714D02*
X-795180Y-29190476D01*
X-795180Y-29190476D02*
X-747561Y-29047619D01*
X-747561Y-29047619D02*
X-699942Y-29000000D01*
X300057Y-28809524D02*
X300057Y-28047619D01*
X109580Y-27238095D02*
X157200Y-27285714D01*
X157200Y-27285714D02*
X204819Y-27428571D01*
X204819Y-27428571D02*
X204819Y-27523809D01*
X204819Y-27523809D02*
X157200Y-27666666D01*
X157200Y-27666666D02*
X61961Y-27761904D01*
X61961Y-27761904D02*
X-33276Y-27809523D01*
X-33276Y-27809523D02*
X-223752Y-27857142D01*
X-223752Y-27857142D02*
X-366609Y-27857142D01*
X-366609Y-27857142D02*
X-557085Y-27809523D01*
X-557085Y-27809523D02*
X-652323Y-27761904D01*
X-652323Y-27761904D02*
X-747561Y-27666666D01*
X-747561Y-27666666D02*
X-795180Y-27523809D01*
X-795180Y-27523809D02*
X-795180Y-27428571D01*
X-795180Y-27428571D02*
X-747561Y-27285714D01*
X-747561Y-27285714D02*
X-699942Y-27238095D01*
X-80895Y-26857142D02*
X-80895Y-26380952D01*
X204819Y-26952380D02*
X-795180Y-26619047D01*
X-795180Y-26619047D02*
X204819Y-26285714D01*
X204819Y-25952380D02*
X-795180Y-25952380D01*
X-795180Y-25952380D02*
X-795180Y-25571428D01*
X-795180Y-25571428D02*
X-747561Y-25476190D01*
X-747561Y-25476190D02*
X-699942Y-25428571D01*
X-699942Y-25428571D02*
X-604704Y-25380952D01*
X-604704Y-25380952D02*
X-461847Y-25380952D01*
X-461847Y-25380952D02*
X-366609Y-25428571D01*
X-366609Y-25428571D02*
X-318990Y-25476190D01*
X-318990Y-25476190D02*
X-271371Y-25571428D01*
X-271371Y-25571428D02*
X-271371Y-25952380D01*
X24833333Y-7929580D02*
X24785714Y-7977200D01*
X24785714Y-7977200D02*
X24642857Y-8024819D01*
X24642857Y-8024819D02*
X24547619Y-8024819D01*
X24547619Y-8024819D02*
X24404762Y-7977200D01*
X24404762Y-7977200D02*
X24309524Y-7881961D01*
X24309524Y-7881961D02*
X24261905Y-7786723D01*
X24261905Y-7786723D02*
X24214286Y-7596247D01*
X24214286Y-7596247D02*
X24214286Y-7453390D01*
X24214286Y-7453390D02*
X24261905Y-7262914D01*
X24261905Y-7262914D02*
X24309524Y-7167676D01*
X24309524Y-7167676D02*
X24404762Y-7072438D01*
X24404762Y-7072438D02*
X24547619Y-7024819D01*
X24547619Y-7024819D02*
X24642857Y-7024819D01*
X24642857Y-7024819D02*
X24785714Y-7072438D01*
X24785714Y-7072438D02*
X24833333Y-7120057D01*
X25214286Y-7120057D02*
X25261905Y-7072438D01*
X25261905Y-7072438D02*
X25357143Y-7024819D01*
X25357143Y-7024819D02*
X25595238Y-7024819D01*
X25595238Y-7024819D02*
X25690476Y-7072438D01*
X25690476Y-7072438D02*
X25738095Y-7120057D01*
X25738095Y-7120057D02*
X25785714Y-7215295D01*
X25785714Y-7215295D02*
X25785714Y-7310533D01*
X25785714Y-7310533D02*
X25738095Y-7453390D01*
X25738095Y-7453390D02*
X25166667Y-8024819D01*
X25166667Y-8024819D02*
X25785714Y-8024819D01*
X37074819Y-42333333D02*
X37789104Y-42333333D01*
X37789104Y-42333333D02*
X37931961Y-42380952D01*
X37931961Y-42380952D02*
X38027200Y-42476190D01*
X38027200Y-42476190D02*
X38074819Y-42619047D01*
X38074819Y-42619047D02*
X38074819Y-42714285D01*
X37170057Y-41904761D02*
X37122438Y-41857142D01*
X37122438Y-41857142D02*
X37074819Y-41761904D01*
X37074819Y-41761904D02*
X37074819Y-41523809D01*
X37074819Y-41523809D02*
X37122438Y-41428571D01*
X37122438Y-41428571D02*
X37170057Y-41380952D01*
X37170057Y-41380952D02*
X37265295Y-41333333D01*
X37265295Y-41333333D02*
X37360533Y-41333333D01*
X37360533Y-41333333D02*
X37503390Y-41380952D01*
X37503390Y-41380952D02*
X38074819Y-41952380D01*
X38074819Y-41952380D02*
X38074819Y-41333333D01*
X48452380Y-29199580D02*
X48404761Y-29247200D01*
X48404761Y-29247200D02*
X48261904Y-29294819D01*
X48261904Y-29294819D02*
X48166666Y-29294819D01*
X48166666Y-29294819D02*
X48023809Y-29247200D01*
X48023809Y-29247200D02*
X47928571Y-29151961D01*
X47928571Y-29151961D02*
X47880952Y-29056723D01*
X47880952Y-29056723D02*
X47833333Y-28866247D01*
X47833333Y-28866247D02*
X47833333Y-28723390D01*
X47833333Y-28723390D02*
X47880952Y-28532914D01*
X47880952Y-28532914D02*
X47928571Y-28437676D01*
X47928571Y-28437676D02*
X48023809Y-28342438D01*
X48023809Y-28342438D02*
X48166666Y-28294819D01*
X48166666Y-28294819D02*
X48261904Y-28294819D01*
X48261904Y-28294819D02*
X48404761Y-28342438D01*
X48404761Y-28342438D02*
X48452380Y-28390057D01*
X48642857Y-29390057D02*
X49404761Y-29390057D01*
X49595238Y-29247200D02*
X49738095Y-29294819D01*
X49738095Y-29294819D02*
X49976190Y-29294819D01*
X49976190Y-29294819D02*
X50071428Y-29247200D01*
X50071428Y-29247200D02*
X50119047Y-29199580D01*
X50119047Y-29199580D02*
X50166666Y-29104342D01*
X50166666Y-29104342D02*
X50166666Y-29009104D01*
X50166666Y-29009104D02*
X50119047Y-28913866D01*
X50119047Y-28913866D02*
X50071428Y-28866247D01*
X50071428Y-28866247D02*
X49976190Y-28818628D01*
X49976190Y-28818628D02*
X49785714Y-28771009D01*
X49785714Y-28771009D02*
X49690476Y-28723390D01*
X49690476Y-28723390D02*
X49642857Y-28675771D01*
X49642857Y-28675771D02*
X49595238Y-28580533D01*
X49595238Y-28580533D02*
X49595238Y-28485295D01*
X49595238Y-28485295D02*
X49642857Y-28390057D01*
X49642857Y-28390057D02*
X49690476Y-28342438D01*
X49690476Y-28342438D02*
X49785714Y-28294819D01*
X49785714Y-28294819D02*
X50023809Y-28294819D01*
X50023809Y-28294819D02*
X50166666Y-28342438D01*
X50595238Y-29294819D02*
X50595238Y-28294819D01*
X50595238Y-28771009D02*
X51166666Y-28771009D01*
X51166666Y-29294819D02*
X51166666Y-28294819D01*
X52166666Y-29294819D02*
X51595238Y-29294819D01*
X51880952Y-29294819D02*
X51880952Y-28294819D01*
X51880952Y-28294819D02*
X51785714Y-28437676D01*
X51785714Y-28437676D02*
X51690476Y-28532914D01*
X51690476Y-28532914D02*
X51595238Y-28580533D01*
X37238095Y-17454819D02*
X37238095Y-18264342D01*
X37238095Y-18264342D02*
X37285714Y-18359580D01*
X37285714Y-18359580D02*
X37333333Y-18407200D01*
X37333333Y-18407200D02*
X37428571Y-18454819D01*
X37428571Y-18454819D02*
X37619047Y-18454819D01*
X37619047Y-18454819D02*
X37714285Y-18407200D01*
X37714285Y-18407200D02*
X37761904Y-18359580D01*
X37761904Y-18359580D02*
X37809523Y-18264342D01*
X37809523Y-18264342D02*
X37809523Y-17454819D01*
X38238095Y-17550057D02*
X38285714Y-17502438D01*
X38285714Y-17502438D02*
X38380952Y-17454819D01*
X38380952Y-17454819D02*
X38619047Y-17454819D01*
X38619047Y-17454819D02*
X38714285Y-17502438D01*
X38714285Y-17502438D02*
X38761904Y-17550057D01*
X38761904Y-17550057D02*
X38809523Y-17645295D01*
X38809523Y-17645295D02*
X38809523Y-17740533D01*
X38809523Y-17740533D02*
X38761904Y-17883390D01*
X38761904Y-17883390D02*
X38190476Y-18454819D01*
X38190476Y-18454819D02*
X38809523Y-18454819D01*
X15624819Y-37071428D02*
X15148628Y-37404761D01*
X15624819Y-37642856D02*
X14624819Y-37642856D01*
X14624819Y-37642856D02*
X14624819Y-37261904D01*
X14624819Y-37261904D02*
X14672438Y-37166666D01*
X14672438Y-37166666D02*
X14720057Y-37119047D01*
X14720057Y-37119047D02*
X14815295Y-37071428D01*
X14815295Y-37071428D02*
X14958152Y-37071428D01*
X14958152Y-37071428D02*
X15053390Y-37119047D01*
X15053390Y-37119047D02*
X15101009Y-37166666D01*
X15101009Y-37166666D02*
X15148628Y-37261904D01*
X15148628Y-37261904D02*
X15148628Y-37642856D01*
X15720057Y-36880952D02*
X15720057Y-36119047D01*
X15624819Y-35880951D02*
X14624819Y-35880951D01*
X14624819Y-35880951D02*
X14624819Y-35499999D01*
X14624819Y-35499999D02*
X14672438Y-35404761D01*
X14672438Y-35404761D02*
X14720057Y-35357142D01*
X14720057Y-35357142D02*
X14815295Y-35309523D01*
X14815295Y-35309523D02*
X14958152Y-35309523D01*
X14958152Y-35309523D02*
X15053390Y-35357142D01*
X15053390Y-35357142D02*
X15101009Y-35404761D01*
X15101009Y-35404761D02*
X15148628Y-35499999D01*
X15148628Y-35499999D02*
X15148628Y-35880951D01*
X15624819Y-34880951D02*
X14624819Y-34880951D01*
X14624819Y-34880951D02*
X14624819Y-34642856D01*
X14624819Y-34642856D02*
X14672438Y-34499999D01*
X14672438Y-34499999D02*
X14767676Y-34404761D01*
X14767676Y-34404761D02*
X14862914Y-34357142D01*
X14862914Y-34357142D02*
X15053390Y-34309523D01*
X15053390Y-34309523D02*
X15196247Y-34309523D01*
X15196247Y-34309523D02*
X15386723Y-34357142D01*
X15386723Y-34357142D02*
X15481961Y-34404761D01*
X15481961Y-34404761D02*
X15577200Y-34499999D01*
X15577200Y-34499999D02*
X15624819Y-34642856D01*
X15624819Y-34642856D02*
X15624819Y-34880951D01*
X53284819Y-36000000D02*
X52808628Y-36333333D01*
X53284819Y-36571428D02*
X52284819Y-36571428D01*
X52284819Y-36571428D02*
X52284819Y-36190476D01*
X52284819Y-36190476D02*
X52332438Y-36095238D01*
X52332438Y-36095238D02*
X52380057Y-36047619D01*
X52380057Y-36047619D02*
X52475295Y-36000000D01*
X52475295Y-36000000D02*
X52618152Y-36000000D01*
X52618152Y-36000000D02*
X52713390Y-36047619D01*
X52713390Y-36047619D02*
X52761009Y-36095238D01*
X52761009Y-36095238D02*
X52808628Y-36190476D01*
X52808628Y-36190476D02*
X52808628Y-36571428D01*
X53380057Y-35809524D02*
X53380057Y-35047619D01*
X53237200Y-34857142D02*
X53284819Y-34714285D01*
X53284819Y-34714285D02*
X53284819Y-34476190D01*
X53284819Y-34476190D02*
X53237200Y-34380952D01*
X53237200Y-34380952D02*
X53189580Y-34333333D01*
X53189580Y-34333333D02*
X53094342Y-34285714D01*
X53094342Y-34285714D02*
X52999104Y-34285714D01*
X52999104Y-34285714D02*
X52903866Y-34333333D01*
X52903866Y-34333333D02*
X52856247Y-34380952D01*
X52856247Y-34380952D02*
X52808628Y-34476190D01*
X52808628Y-34476190D02*
X52761009Y-34666666D01*
X52761009Y-34666666D02*
X52713390Y-34761904D01*
X52713390Y-34761904D02*
X52665771Y-34809523D01*
X52665771Y-34809523D02*
X52570533Y-34857142D01*
X52570533Y-34857142D02*
X52475295Y-34857142D01*
X52475295Y-34857142D02*
X52380057Y-34809523D01*
X52380057Y-34809523D02*
X52332438Y-34761904D01*
X52332438Y-34761904D02*
X52284819Y-34666666D01*
X52284819Y-34666666D02*
X52284819Y-34428571D01*
X52284819Y-34428571D02*
X52332438Y-34285714D01*
X52761009Y-33857142D02*
X52761009Y-33523809D01*
X53284819Y-33380952D02*
X53284819Y-33857142D01*
X53284819Y-33857142D02*
X52284819Y-33857142D01*
X52284819Y-33857142D02*
X52284819Y-33380952D01*
X53284819Y-32380952D02*
X52808628Y-32714285D01*
X53284819Y-32952380D02*
X52284819Y-32952380D01*
X52284819Y-32952380D02*
X52284819Y-32571428D01*
X52284819Y-32571428D02*
X52332438Y-32476190D01*
X52332438Y-32476190D02*
X52380057Y-32428571D01*
X52380057Y-32428571D02*
X52475295Y-32380952D01*
X52475295Y-32380952D02*
X52618152Y-32380952D01*
X52618152Y-32380952D02*
X52713390Y-32428571D01*
X52713390Y-32428571D02*
X52761009Y-32476190D01*
X52761009Y-32476190D02*
X52808628Y-32571428D01*
X52808628Y-32571428D02*
X52808628Y-32952380D01*
X18199580Y-25166666D02*
X18247200Y-25214285D01*
X18247200Y-25214285D02*
X18294819Y-25357142D01*
X18294819Y-25357142D02*
X18294819Y-25452380D01*
X18294819Y-25452380D02*
X18247200Y-25595237D01*
X18247200Y-25595237D02*
X18151961Y-25690475D01*
X18151961Y-25690475D02*
X18056723Y-25738094D01*
X18056723Y-25738094D02*
X17866247Y-25785713D01*
X17866247Y-25785713D02*
X17723390Y-25785713D01*
X17723390Y-25785713D02*
X17532914Y-25738094D01*
X17532914Y-25738094D02*
X17437676Y-25690475D01*
X17437676Y-25690475D02*
X17342438Y-25595237D01*
X17342438Y-25595237D02*
X17294819Y-25452380D01*
X17294819Y-25452380D02*
X17294819Y-25357142D01*
X17294819Y-25357142D02*
X17342438Y-25214285D01*
X17342438Y-25214285D02*
X17390057Y-25166666D01*
X17294819Y-24833332D02*
X17294819Y-24214285D01*
X17294819Y-24214285D02*
X17675771Y-24547618D01*
X17675771Y-24547618D02*
X17675771Y-24404761D01*
X17675771Y-24404761D02*
X17723390Y-24309523D01*
X17723390Y-24309523D02*
X17771009Y-24261904D01*
X17771009Y-24261904D02*
X17866247Y-24214285D01*
X17866247Y-24214285D02*
X18104342Y-24214285D01*
X18104342Y-24214285D02*
X18199580Y-24261904D01*
X18199580Y-24261904D02*
X18247200Y-24309523D01*
X18247200Y-24309523D02*
X18294819Y-24404761D01*
X18294819Y-24404761D02*
X18294819Y-24690475D01*
X18294819Y-24690475D02*
X18247200Y-24785713D01*
X18247200Y-24785713D02*
X18199580Y-24833332D01*
X2027200Y-44142856D02*
X2074819Y-43999999D01*
X2074819Y-43999999D02*
X2074819Y-43761904D01*
X2074819Y-43761904D02*
X2027200Y-43666666D01*
X2027200Y-43666666D02*
X1979580Y-43619047D01*
X1979580Y-43619047D02*
X1884342Y-43571428D01*
X1884342Y-43571428D02*
X1789104Y-43571428D01*
X1789104Y-43571428D02*
X1693866Y-43619047D01*
X1693866Y-43619047D02*
X1646247Y-43666666D01*
X1646247Y-43666666D02*
X1598628Y-43761904D01*
X1598628Y-43761904D02*
X1551009Y-43952380D01*
X1551009Y-43952380D02*
X1503390Y-44047618D01*
X1503390Y-44047618D02*
X1455771Y-44095237D01*
X1455771Y-44095237D02*
X1360533Y-44142856D01*
X1360533Y-44142856D02*
X1265295Y-44142856D01*
X1265295Y-44142856D02*
X1170057Y-44095237D01*
X1170057Y-44095237D02*
X1122438Y-44047618D01*
X1122438Y-44047618D02*
X1074819Y-43952380D01*
X1074819Y-43952380D02*
X1074819Y-43714285D01*
X1074819Y-43714285D02*
X1122438Y-43571428D01*
X1074819Y-42952380D02*
X1074819Y-42761904D01*
X1074819Y-42761904D02*
X1122438Y-42666666D01*
X1122438Y-42666666D02*
X1217676Y-42571428D01*
X1217676Y-42571428D02*
X1408152Y-42523809D01*
X1408152Y-42523809D02*
X1741485Y-42523809D01*
X1741485Y-42523809D02*
X1931961Y-42571428D01*
X1931961Y-42571428D02*
X2027200Y-42666666D01*
X2027200Y-42666666D02*
X2074819Y-42761904D01*
X2074819Y-42761904D02*
X2074819Y-42952380D01*
X2074819Y-42952380D02*
X2027200Y-43047618D01*
X2027200Y-43047618D02*
X1931961Y-43142856D01*
X1931961Y-43142856D02*
X1741485Y-43190475D01*
X1741485Y-43190475D02*
X1408152Y-43190475D01*
X1408152Y-43190475D02*
X1217676Y-43142856D01*
X1217676Y-43142856D02*
X1122438Y-43047618D01*
X1122438Y-43047618D02*
X1074819Y-42952380D01*
X2074819Y-41619047D02*
X2074819Y-42095237D01*
X2074819Y-42095237D02*
X1074819Y-42095237D01*
X1789104Y-41333332D02*
X1789104Y-40857142D01*
X2074819Y-41428570D02*
X1074819Y-41095237D01*
X1074819Y-41095237D02*
X2074819Y-40761904D01*
X2074819Y-39857142D02*
X1598628Y-40190475D01*
X2074819Y-40428570D02*
X1074819Y-40428570D01*
X1074819Y-40428570D02*
X1074819Y-40047618D01*
X1074819Y-40047618D02*
X1122438Y-39952380D01*
X1122438Y-39952380D02*
X1170057Y-39904761D01*
X1170057Y-39904761D02*
X1265295Y-39857142D01*
X1265295Y-39857142D02*
X1408152Y-39857142D01*
X1408152Y-39857142D02*
X1503390Y-39904761D01*
X1503390Y-39904761D02*
X1551009Y-39952380D01*
X1551009Y-39952380D02*
X1598628Y-40047618D01*
X1598628Y-40047618D02*
X1598628Y-40428570D01*
X14833333Y-21929580D02*
X14785714Y-21977200D01*
X14785714Y-21977200D02*
X14642857Y-22024819D01*
X14642857Y-22024819D02*
X14547619Y-22024819D01*
X14547619Y-22024819D02*
X14404762Y-21977200D01*
X14404762Y-21977200D02*
X14309524Y-21881961D01*
X14309524Y-21881961D02*
X14261905Y-21786723D01*
X14261905Y-21786723D02*
X14214286Y-21596247D01*
X14214286Y-21596247D02*
X14214286Y-21453390D01*
X14214286Y-21453390D02*
X14261905Y-21262914D01*
X14261905Y-21262914D02*
X14309524Y-21167676D01*
X14309524Y-21167676D02*
X14404762Y-21072438D01*
X14404762Y-21072438D02*
X14547619Y-21024819D01*
X14547619Y-21024819D02*
X14642857Y-21024819D01*
X14642857Y-21024819D02*
X14785714Y-21072438D01*
X14785714Y-21072438D02*
X14833333Y-21120057D01*
X15785714Y-22024819D02*
X15214286Y-22024819D01*
X15500000Y-22024819D02*
X15500000Y-21024819D01*
X15500000Y-21024819D02*
X15404762Y-21167676D01*
X15404762Y-21167676D02*
X15309524Y-21262914D01*
X15309524Y-21262914D02*
X15214286Y-21310533D01*
X36880952Y-35024819D02*
X36404762Y-35024819D01*
X36404762Y-35024819D02*
X36404762Y-34024819D01*
X37214286Y-34501009D02*
X37547619Y-34501009D01*
X37690476Y-35024819D02*
X37214286Y-35024819D01*
X37214286Y-35024819D02*
X37214286Y-34024819D01*
X37214286Y-34024819D02*
X37690476Y-34024819D01*
X38119048Y-35024819D02*
X38119048Y-34024819D01*
X38119048Y-34024819D02*
X38357143Y-34024819D01*
X38357143Y-34024819D02*
X38500000Y-34072438D01*
X38500000Y-34072438D02*
X38595238Y-34167676D01*
X38595238Y-34167676D02*
X38642857Y-34262914D01*
X38642857Y-34262914D02*
X38690476Y-34453390D01*
X38690476Y-34453390D02*
X38690476Y-34596247D01*
X38690476Y-34596247D02*
X38642857Y-34786723D01*
X38642857Y-34786723D02*
X38595238Y-34881961D01*
X38595238Y-34881961D02*
X38500000Y-34977200D01*
X38500000Y-34977200D02*
X38357143Y-35024819D01*
X38357143Y-35024819D02*
X38119048Y-35024819D01*
X39642857Y-35024819D02*
X39071429Y-35024819D01*
X39357143Y-35024819D02*
X39357143Y-34024819D01*
X39357143Y-34024819D02*
X39261905Y-34167676D01*
X39261905Y-34167676D02*
X39166667Y-34262914D01*
X39166667Y-34262914D02*
X39071429Y-34310533D01*
X7285714Y-37284819D02*
X6952381Y-36808628D01*
X6714286Y-37284819D02*
X6714286Y-36284819D01*
X6714286Y-36284819D02*
X7095238Y-36284819D01*
X7095238Y-36284819D02*
X7190476Y-36332438D01*
X7190476Y-36332438D02*
X7238095Y-36380057D01*
X7238095Y-36380057D02*
X7285714Y-36475295D01*
X7285714Y-36475295D02*
X7285714Y-36618152D01*
X7285714Y-36618152D02*
X7238095Y-36713390D01*
X7238095Y-36713390D02*
X7190476Y-36761009D01*
X7190476Y-36761009D02*
X7095238Y-36808628D01*
X7095238Y-36808628D02*
X6714286Y-36808628D01*
X7476191Y-37380057D02*
X8238095Y-37380057D01*
X8476191Y-37284819D02*
X8476191Y-36284819D01*
X8476191Y-36284819D02*
X8714286Y-36284819D01*
X8714286Y-36284819D02*
X8857143Y-36332438D01*
X8857143Y-36332438D02*
X8952381Y-36427676D01*
X8952381Y-36427676D02*
X9000000Y-36522914D01*
X9000000Y-36522914D02*
X9047619Y-36713390D01*
X9047619Y-36713390D02*
X9047619Y-36856247D01*
X9047619Y-36856247D02*
X9000000Y-37046723D01*
X9000000Y-37046723D02*
X8952381Y-37141961D01*
X8952381Y-37141961D02*
X8857143Y-37237200D01*
X8857143Y-37237200D02*
X8714286Y-37284819D01*
X8714286Y-37284819D02*
X8476191Y-37284819D01*
X9476191Y-37284819D02*
X9476191Y-36284819D01*
X9809524Y-36284819D02*
X10142857Y-37284819D01*
X10142857Y-37284819D02*
X10476190Y-36284819D01*
X10761905Y-36380057D02*
X10809524Y-36332438D01*
X10809524Y-36332438D02*
X10904762Y-36284819D01*
X10904762Y-36284819D02*
X11142857Y-36284819D01*
X11142857Y-36284819D02*
X11238095Y-36332438D01*
X11238095Y-36332438D02*
X11285714Y-36380057D01*
X11285714Y-36380057D02*
X11333333Y-36475295D01*
X11333333Y-36475295D02*
X11333333Y-36570533D01*
X11333333Y-36570533D02*
X11285714Y-36713390D01*
X11285714Y-36713390D02*
X10714286Y-37284819D01*
X10714286Y-37284819D02*
X11333333Y-37284819D01*
X52519580Y-11166666D02*
X52567200Y-11214285D01*
X52567200Y-11214285D02*
X52614819Y-11357142D01*
X52614819Y-11357142D02*
X52614819Y-11452380D01*
X52614819Y-11452380D02*
X52567200Y-11595237D01*
X52567200Y-11595237D02*
X52471961Y-11690475D01*
X52471961Y-11690475D02*
X52376723Y-11738094D01*
X52376723Y-11738094D02*
X52186247Y-11785713D01*
X52186247Y-11785713D02*
X52043390Y-11785713D01*
X52043390Y-11785713D02*
X51852914Y-11738094D01*
X51852914Y-11738094D02*
X51757676Y-11690475D01*
X51757676Y-11690475D02*
X51662438Y-11595237D01*
X51662438Y-11595237D02*
X51614819Y-11452380D01*
X51614819Y-11452380D02*
X51614819Y-11357142D01*
X51614819Y-11357142D02*
X51662438Y-11214285D01*
X51662438Y-11214285D02*
X51710057Y-11166666D01*
X51948152Y-10309523D02*
X52614819Y-10309523D01*
X51567200Y-10547618D02*
X52281485Y-10785713D01*
X52281485Y-10785713D02*
X52281485Y-10166666D01*
X1954819Y-17891904D02*
X2764342Y-17891904D01*
X2764342Y-17891904D02*
X2859580Y-17844285D01*
X2859580Y-17844285D02*
X2907200Y-17796666D01*
X2907200Y-17796666D02*
X2954819Y-17701428D01*
X2954819Y-17701428D02*
X2954819Y-17510952D01*
X2954819Y-17510952D02*
X2907200Y-17415714D01*
X2907200Y-17415714D02*
X2859580Y-17368095D01*
X2859580Y-17368095D02*
X2764342Y-17320476D01*
X2764342Y-17320476D02*
X1954819Y-17320476D01*
X2954819Y-16320476D02*
X2954819Y-16891904D01*
X2954819Y-16606190D02*
X1954819Y-16606190D01*
X1954819Y-16606190D02*
X2097676Y-16701428D01*
X2097676Y-16701428D02*
X2192914Y-16796666D01*
X2192914Y-16796666D02*
X2240533Y-16891904D01*
X17074819Y-42333333D02*
X17789104Y-42333333D01*
X17789104Y-42333333D02*
X17931961Y-42380952D01*
X17931961Y-42380952D02*
X18027200Y-42476190D01*
X18027200Y-42476190D02*
X18074819Y-42619047D01*
X18074819Y-42619047D02*
X18074819Y-42714285D01*
X18074819Y-41333333D02*
X18074819Y-41904761D01*
X18074819Y-41619047D02*
X17074819Y-41619047D01*
X17074819Y-41619047D02*
X17217676Y-41714285D01*
X17217676Y-41714285D02*
X17312914Y-41809523D01*
X17312914Y-41809523D02*
X17360533Y-41904761D01*
X38238095Y-20454819D02*
X38238095Y-21264342D01*
X38238095Y-21264342D02*
X38285714Y-21359580D01*
X38285714Y-21359580D02*
X38333333Y-21407200D01*
X38333333Y-21407200D02*
X38428571Y-21454819D01*
X38428571Y-21454819D02*
X38619047Y-21454819D01*
X38619047Y-21454819D02*
X38714285Y-21407200D01*
X38714285Y-21407200D02*
X38761904Y-21359580D01*
X38761904Y-21359580D02*
X38809523Y-21264342D01*
X38809523Y-21264342D02*
X38809523Y-20454819D01*
X39190476Y-20454819D02*
X39809523Y-20454819D01*
X39809523Y-20454819D02*
X39476190Y-20835771D01*
X39476190Y-20835771D02*
X39619047Y-20835771D01*
X39619047Y-20835771D02*
X39714285Y-20883390D01*
X39714285Y-20883390D02*
X39761904Y-20931009D01*
X39761904Y-20931009D02*
X39809523Y-21026247D01*
X39809523Y-21026247D02*
X39809523Y-21264342D01*
X39809523Y-21264342D02*
X39761904Y-21359580D01*
X39761904Y-21359580D02*
X39714285Y-21407200D01*
X39714285Y-21407200D02*
X39619047Y-21454819D01*
X39619047Y-21454819D02*
X39333333Y-21454819D01*
X39333333Y-21454819D02*
X39238095Y-21407200D01*
X39238095Y-21407200D02*
X39190476Y-21359580D01*
X46952380Y-35949580D02*
X46904761Y-35997200D01*
X46904761Y-35997200D02*
X46761904Y-36044819D01*
X46761904Y-36044819D02*
X46666666Y-36044819D01*
X46666666Y-36044819D02*
X46523809Y-35997200D01*
X46523809Y-35997200D02*
X46428571Y-35901961D01*
X46428571Y-35901961D02*
X46380952Y-35806723D01*
X46380952Y-35806723D02*
X46333333Y-35616247D01*
X46333333Y-35616247D02*
X46333333Y-35473390D01*
X46333333Y-35473390D02*
X46380952Y-35282914D01*
X46380952Y-35282914D02*
X46428571Y-35187676D01*
X46428571Y-35187676D02*
X46523809Y-35092438D01*
X46523809Y-35092438D02*
X46666666Y-35044819D01*
X46666666Y-35044819D02*
X46761904Y-35044819D01*
X46761904Y-35044819D02*
X46904761Y-35092438D01*
X46904761Y-35092438D02*
X46952380Y-35140057D01*
X47142857Y-36140057D02*
X47904761Y-36140057D01*
X48095238Y-35997200D02*
X48238095Y-36044819D01*
X48238095Y-36044819D02*
X48476190Y-36044819D01*
X48476190Y-36044819D02*
X48571428Y-35997200D01*
X48571428Y-35997200D02*
X48619047Y-35949580D01*
X48619047Y-35949580D02*
X48666666Y-35854342D01*
X48666666Y-35854342D02*
X48666666Y-35759104D01*
X48666666Y-35759104D02*
X48619047Y-35663866D01*
X48619047Y-35663866D02*
X48571428Y-35616247D01*
X48571428Y-35616247D02*
X48476190Y-35568628D01*
X48476190Y-35568628D02*
X48285714Y-35521009D01*
X48285714Y-35521009D02*
X48190476Y-35473390D01*
X48190476Y-35473390D02*
X48142857Y-35425771D01*
X48142857Y-35425771D02*
X48095238Y-35330533D01*
X48095238Y-35330533D02*
X48095238Y-35235295D01*
X48095238Y-35235295D02*
X48142857Y-35140057D01*
X48142857Y-35140057D02*
X48190476Y-35092438D01*
X48190476Y-35092438D02*
X48285714Y-35044819D01*
X48285714Y-35044819D02*
X48523809Y-35044819D01*
X48523809Y-35044819D02*
X48666666Y-35092438D01*
X49095238Y-36044819D02*
X49095238Y-35044819D01*
X49095238Y-35521009D02*
X49666666Y-35521009D01*
X49666666Y-36044819D02*
X49666666Y-35044819D01*
X50095238Y-35140057D02*
X50142857Y-35092438D01*
X50142857Y-35092438D02*
X50238095Y-35044819D01*
X50238095Y-35044819D02*
X50476190Y-35044819D01*
X50476190Y-35044819D02*
X50571428Y-35092438D01*
X50571428Y-35092438D02*
X50619047Y-35140057D01*
X50619047Y-35140057D02*
X50666666Y-35235295D01*
X50666666Y-35235295D02*
X50666666Y-35330533D01*
X50666666Y-35330533D02*
X50619047Y-35473390D01*
X50619047Y-35473390D02*
X50047619Y-36044819D01*
X50047619Y-36044819D02*
X50666666Y-36044819D01*
X53869104Y-40869047D02*
X53869104Y-40392857D01*
X54154819Y-40964285D02*
X53154819Y-40630952D01*
X53154819Y-40630952D02*
X54154819Y-40297619D01*
X54154819Y-39964285D02*
X53154819Y-39964285D01*
X53154819Y-39964285D02*
X54154819Y-39392857D01*
X54154819Y-39392857D02*
X53154819Y-39392857D01*
X53154819Y-39059523D02*
X53154819Y-38488095D01*
X54154819Y-38773809D02*
X53154819Y-38773809D01*
X53250057Y-38202380D02*
X53202438Y-38154761D01*
X53202438Y-38154761D02*
X53154819Y-38059523D01*
X53154819Y-38059523D02*
X53154819Y-37821428D01*
X53154819Y-37821428D02*
X53202438Y-37726190D01*
X53202438Y-37726190D02*
X53250057Y-37678571D01*
X53250057Y-37678571D02*
X53345295Y-37630952D01*
X53345295Y-37630952D02*
X53440533Y-37630952D01*
X53440533Y-37630952D02*
X53583390Y-37678571D01*
X53583390Y-37678571D02*
X54154819Y-38249999D01*
X54154819Y-38249999D02*
X54154819Y-37630952D01*
D11*
%TO.C,ANT1*%
X49500000Y-20500000D02*
X50300000Y-20500000D01*
X49500000Y-20700000D02*
X49500000Y-20500000D01*
X49500000Y-23500000D02*
X49500000Y-23300000D01*
X50300000Y-20500000D02*
X50300000Y-20000000D01*
X50300000Y-23500000D02*
X49500000Y-23500000D01*
X51700000Y-20500000D02*
X51700000Y-20000000D01*
X51700000Y-20500000D02*
X52300000Y-20500000D01*
X52300000Y-20500000D02*
X52500000Y-20700000D01*
X52500000Y-23300000D02*
X52500000Y-23500000D01*
X52500000Y-23500000D02*
X51700000Y-23500000D01*
%TO.C,R_LED*%
X29620000Y-31846359D02*
X29620000Y-32153641D01*
X30380000Y-31846359D02*
X30380000Y-32153641D01*
%TO.C,R_DIV1*%
X4153641Y-35620000D02*
X3846359Y-35620000D01*
X4153641Y-36380000D02*
X3846359Y-36380000D01*
%TO.C,U4*%
X18090000Y-28440000D02*
X19910000Y-28440000D01*
X18090000Y-28490000D02*
X18090000Y-28440000D01*
X18090000Y-31560000D02*
X18090000Y-31510000D01*
X19910000Y-28440000D02*
X19910000Y-28490000D01*
X19910000Y-29610000D02*
X19910000Y-30390000D01*
X19910000Y-31510000D02*
X19910000Y-31560000D01*
X19910000Y-31560000D02*
X18090000Y-31560000D01*
X17550000Y-28490000D02*
X17310000Y-28160000D01*
X17790000Y-28160000D01*
X17550000Y-28490000D01*
G36*
X17550000Y-28490000D02*
G01*
X17310000Y-28160000D01*
X17790000Y-28160000D01*
X17550000Y-28490000D01*
G37*
D12*
%TO.C,U5*%
X21650000Y-37350000D02*
X21650000Y-37200000D01*
X21650000Y-37360000D02*
X21800000Y-37360000D01*
X24200000Y-34650000D02*
X24350000Y-34650000D01*
X24350000Y-34650000D02*
X24350000Y-34800000D01*
X24350000Y-37350000D02*
X24200000Y-37350000D01*
X24350000Y-37350000D02*
X24350000Y-37200000D01*
D11*
X21650000Y-34650000D02*
X21290000Y-34650000D01*
X21650000Y-34290000D01*
X21650000Y-34650000D01*
G36*
X21650000Y-34650000D02*
G01*
X21290000Y-34650000D01*
X21650000Y-34290000D01*
X21650000Y-34650000D01*
G37*
%TO.C,D1*%
X26360000Y-22000000D02*
X22350000Y-22000000D01*
X26360000Y-24000000D02*
X22350000Y-24000000D01*
X26360000Y-24000000D02*
X26360000Y-22000000D01*
%TO.C,C_CAP*%
X920000Y-27460000D02*
X11080000Y-27460000D01*
X920000Y-27500000D02*
X11080000Y-27500000D01*
X921000Y-27380000D02*
X11079000Y-27380000D01*
X921000Y-27420000D02*
X11079000Y-27420000D01*
X923000Y-27340000D02*
X11077000Y-27340000D01*
X924000Y-27300000D02*
X11076000Y-27300000D01*
X926000Y-27260000D02*
X11074000Y-27260000D01*
X928000Y-27220000D02*
X11072000Y-27220000D01*
X930000Y-27180000D02*
X11070000Y-27180000D01*
X933000Y-27140000D02*
X11067000Y-27140000D01*
X936000Y-27100000D02*
X11064000Y-27100000D01*
X939000Y-27060000D02*
X11061000Y-27060000D01*
X943000Y-27020000D02*
X11057000Y-27020000D01*
X946000Y-26980000D02*
X11054000Y-26980000D01*
X951000Y-26940000D02*
X11049000Y-26940000D01*
X955000Y-26900000D02*
X11045000Y-26900000D01*
X960000Y-26860000D02*
X11040000Y-26860000D01*
X965000Y-26820000D02*
X11035000Y-26820000D01*
X971000Y-26780000D02*
X11029000Y-26780000D01*
X977000Y-26740000D02*
X11023000Y-26740000D01*
X983000Y-26700000D02*
X11017000Y-26700000D01*
X989000Y-26660000D02*
X11011000Y-26660000D01*
X996000Y-26620000D02*
X11004000Y-26620000D01*
X1003000Y-26580000D02*
X10997000Y-26580000D01*
X1011000Y-26540000D02*
X10989000Y-26540000D01*
X1019000Y-26500000D02*
X10981000Y-26500000D01*
X1027000Y-26460000D02*
X10973000Y-26460000D01*
X1035000Y-26420000D02*
X10965000Y-26420000D01*
X1044000Y-26380000D02*
X10956000Y-26380000D01*
X1053000Y-26340000D02*
X10947000Y-26340000D01*
X1063000Y-26300000D02*
X10937000Y-26300000D01*
X1072000Y-26260000D02*
X10928000Y-26260000D01*
X1083000Y-26220000D02*
X4760000Y-26220000D01*
X1093000Y-26180000D02*
X4760000Y-26180000D01*
X1104000Y-26140000D02*
X4760000Y-26140000D01*
X1115000Y-26100000D02*
X4760000Y-26100000D01*
X1127000Y-26060000D02*
X4760000Y-26060000D01*
X1139000Y-26020000D02*
X4760000Y-26020000D01*
X1151000Y-25980000D02*
X4760000Y-25980000D01*
X1163000Y-25940000D02*
X4760000Y-25940000D01*
X1176000Y-25900000D02*
X4760000Y-25900000D01*
X1190000Y-25860000D02*
X4760000Y-25860000D01*
X1203000Y-25820000D02*
X4760000Y-25820000D01*
X1218000Y-25780000D02*
X4760000Y-25780000D01*
X1232000Y-25740000D02*
X4760000Y-25740000D01*
X1247000Y-25700000D02*
X4760000Y-25700000D01*
X1262000Y-25660000D02*
X4760000Y-25660000D01*
X1278000Y-25620000D02*
X4760000Y-25620000D01*
X1294000Y-25580000D02*
X4760000Y-25580000D01*
X1310000Y-25540000D02*
X4760000Y-25540000D01*
X1327000Y-25500000D02*
X4760000Y-25500000D01*
X1344000Y-25460000D02*
X4760000Y-25460000D01*
X1362000Y-25420000D02*
X4760000Y-25420000D01*
X1380000Y-25380000D02*
X4760000Y-25380000D01*
X1398000Y-25340000D02*
X4760000Y-25340000D01*
X1417000Y-25300000D02*
X4760000Y-25300000D01*
X1436000Y-25260000D02*
X4760000Y-25260000D01*
X1456000Y-25220000D02*
X4760000Y-25220000D01*
X1476000Y-25180000D02*
X4760000Y-25180000D01*
X1496000Y-25140000D02*
X4760000Y-25140000D01*
X1517000Y-25100000D02*
X4760000Y-25100000D01*
X1539000Y-25060000D02*
X4760000Y-25060000D01*
X1561000Y-25020000D02*
X4760000Y-25020000D01*
X1583000Y-24980000D02*
X4760000Y-24980000D01*
X1606000Y-24940000D02*
X4760000Y-24940000D01*
X1629000Y-24900000D02*
X4760000Y-24900000D01*
X1653000Y-24860000D02*
X4760000Y-24860000D01*
X1677000Y-24820000D02*
X4760000Y-24820000D01*
X1702000Y-24780000D02*
X4760000Y-24780000D01*
X1728000Y-24740000D02*
X4760000Y-24740000D01*
X1753000Y-24700000D02*
X4760000Y-24700000D01*
X1780000Y-24660000D02*
X4760000Y-24660000D01*
X1807000Y-24620000D02*
X4760000Y-24620000D01*
X1834000Y-24580000D02*
X4760000Y-24580000D01*
X1862000Y-24540000D02*
X4760000Y-24540000D01*
X1891000Y-24500000D02*
X4760000Y-24500000D01*
X1920000Y-24460000D02*
X4760000Y-24460000D01*
X1950000Y-24420000D02*
X4760000Y-24420000D01*
X1980000Y-24380000D02*
X4760000Y-24380000D01*
X2012000Y-24340000D02*
X4760000Y-24340000D01*
X2043000Y-24300000D02*
X4760000Y-24300000D01*
X2076000Y-24260000D02*
X4760000Y-24260000D01*
X2109000Y-24220000D02*
X4760000Y-24220000D01*
X2142000Y-24180000D02*
X4760000Y-24180000D01*
X2177000Y-24140000D02*
X4760000Y-24140000D01*
X2212000Y-24100000D02*
X4760000Y-24100000D01*
X2248000Y-24060000D02*
X4760000Y-24060000D01*
X2284000Y-24020000D02*
X4760000Y-24020000D01*
X2322000Y-23980000D02*
X4760000Y-23980000D01*
X2360000Y-23940000D02*
X4760000Y-23940000D01*
X2399000Y-23900000D02*
X4760000Y-23900000D01*
X2439000Y-23860000D02*
X4760000Y-23860000D01*
X2480000Y-23820000D02*
X4760000Y-23820000D01*
X2522000Y-23780000D02*
X4760000Y-23780000D01*
X2565000Y-23740000D02*
X9435000Y-23740000D01*
X2609000Y-23700000D02*
X9391000Y-23700000D01*
X2625000Y-32479646D02*
X3625000Y-32479646D01*
X2653000Y-23660000D02*
X9347000Y-23660000D01*
X2699000Y-23620000D02*
X9301000Y-23620000D01*
X2746000Y-23580000D02*
X9254000Y-23580000D01*
X2795000Y-23540000D02*
X9205000Y-23540000D01*
X2844000Y-23500000D02*
X9156000Y-23500000D01*
X2895000Y-23460000D02*
X9105000Y-23460000D01*
X2947000Y-23420000D02*
X9053000Y-23420000D01*
X3000000Y-23380000D02*
X9000000Y-23380000D01*
X3055000Y-23340000D02*
X8945000Y-23340000D01*
X3112000Y-23300000D02*
X8888000Y-23300000D01*
X3125000Y-32979646D02*
X3125000Y-31979646D01*
X3170000Y-23260000D02*
X8830000Y-23260000D01*
X3230000Y-23220000D02*
X8770000Y-23220000D01*
X3292000Y-23180000D02*
X8708000Y-23180000D01*
X3356000Y-23140000D02*
X8644000Y-23140000D01*
X3422000Y-23100000D02*
X8578000Y-23100000D01*
X3490000Y-23060000D02*
X8510000Y-23060000D01*
X3561000Y-23020000D02*
X8439000Y-23020000D01*
X3635000Y-22980000D02*
X8365000Y-22980000D01*
X3712000Y-22940000D02*
X8288000Y-22940000D01*
X3792000Y-22900000D02*
X8208000Y-22900000D01*
X3876000Y-22860000D02*
X8124000Y-22860000D01*
X3963000Y-22820000D02*
X8037000Y-22820000D01*
X4056000Y-22780000D02*
X7944000Y-22780000D01*
X4154000Y-22740000D02*
X7846000Y-22740000D01*
X4258000Y-22700000D02*
X7742000Y-22700000D01*
X4370000Y-22660000D02*
X7630000Y-22660000D01*
X4491000Y-22620000D02*
X7509000Y-22620000D01*
X4623000Y-22580000D02*
X7377000Y-22580000D01*
X4770000Y-22540000D02*
X7230000Y-22540000D01*
X4938000Y-22500000D02*
X7062000Y-22500000D01*
X5138000Y-22460000D02*
X6862000Y-22460000D01*
X5401000Y-22420000D02*
X6599000Y-22420000D01*
X7240000Y-23780000D02*
X9478000Y-23780000D01*
X7240000Y-23820000D02*
X9520000Y-23820000D01*
X7240000Y-23860000D02*
X9561000Y-23860000D01*
X7240000Y-23900000D02*
X9601000Y-23900000D01*
X7240000Y-23940000D02*
X9640000Y-23940000D01*
X7240000Y-23980000D02*
X9678000Y-23980000D01*
X7240000Y-24020000D02*
X9716000Y-24020000D01*
X7240000Y-24060000D02*
X9752000Y-24060000D01*
X7240000Y-24100000D02*
X9788000Y-24100000D01*
X7240000Y-24140000D02*
X9823000Y-24140000D01*
X7240000Y-24180000D02*
X9858000Y-24180000D01*
X7240000Y-24220000D02*
X9891000Y-24220000D01*
X7240000Y-24260000D02*
X9924000Y-24260000D01*
X7240000Y-24300000D02*
X9957000Y-24300000D01*
X7240000Y-24340000D02*
X9988000Y-24340000D01*
X7240000Y-24380000D02*
X10020000Y-24380000D01*
X7240000Y-24420000D02*
X10050000Y-24420000D01*
X7240000Y-24460000D02*
X10080000Y-24460000D01*
X7240000Y-24500000D02*
X10109000Y-24500000D01*
X7240000Y-24540000D02*
X10138000Y-24540000D01*
X7240000Y-24580000D02*
X10166000Y-24580000D01*
X7240000Y-24620000D02*
X10193000Y-24620000D01*
X7240000Y-24660000D02*
X10220000Y-24660000D01*
X7240000Y-24700000D02*
X10247000Y-24700000D01*
X7240000Y-24740000D02*
X10272000Y-24740000D01*
X7240000Y-24780000D02*
X10298000Y-24780000D01*
X7240000Y-24820000D02*
X10323000Y-24820000D01*
X7240000Y-24860000D02*
X10347000Y-24860000D01*
X7240000Y-24900000D02*
X10371000Y-24900000D01*
X7240000Y-24940000D02*
X10394000Y-24940000D01*
X7240000Y-24980000D02*
X10417000Y-24980000D01*
X7240000Y-25020000D02*
X10439000Y-25020000D01*
X7240000Y-25060000D02*
X10461000Y-25060000D01*
X7240000Y-25100000D02*
X10483000Y-25100000D01*
X7240000Y-25140000D02*
X10504000Y-25140000D01*
X7240000Y-25180000D02*
X10524000Y-25180000D01*
X7240000Y-25220000D02*
X10544000Y-25220000D01*
X7240000Y-25260000D02*
X10564000Y-25260000D01*
X7240000Y-25300000D02*
X10583000Y-25300000D01*
X7240000Y-25340000D02*
X10602000Y-25340000D01*
X7240000Y-25380000D02*
X10620000Y-25380000D01*
X7240000Y-25420000D02*
X10638000Y-25420000D01*
X7240000Y-25460000D02*
X10656000Y-25460000D01*
X7240000Y-25500000D02*
X10673000Y-25500000D01*
X7240000Y-25540000D02*
X10690000Y-25540000D01*
X7240000Y-25580000D02*
X10706000Y-25580000D01*
X7240000Y-25620000D02*
X10722000Y-25620000D01*
X7240000Y-25660000D02*
X10738000Y-25660000D01*
X7240000Y-25700000D02*
X10753000Y-25700000D01*
X7240000Y-25740000D02*
X10768000Y-25740000D01*
X7240000Y-25780000D02*
X10782000Y-25780000D01*
X7240000Y-25820000D02*
X10797000Y-25820000D01*
X7240000Y-25860000D02*
X10810000Y-25860000D01*
X7240000Y-25900000D02*
X10824000Y-25900000D01*
X7240000Y-25940000D02*
X10837000Y-25940000D01*
X7240000Y-25980000D02*
X10849000Y-25980000D01*
X7240000Y-26020000D02*
X10861000Y-26020000D01*
X7240000Y-26060000D02*
X10873000Y-26060000D01*
X7240000Y-26100000D02*
X10885000Y-26100000D01*
X7240000Y-26140000D02*
X10896000Y-26140000D01*
X7240000Y-26180000D02*
X10907000Y-26180000D01*
X7240000Y-26220000D02*
X10917000Y-26220000D01*
X11120000Y-27500000D02*
G75*
G02*
X880000Y-27500000I-5120000J0D01*
G01*
X880000Y-27500000D02*
G75*
G02*
X11120000Y-27500000I5120000J0D01*
G01*
%TO.C,C2*%
X24859420Y-8490000D02*
X25140580Y-8490000D01*
X24859420Y-9510000D02*
X25140580Y-9510000D01*
%TO.C,J2*%
X38620000Y-43380000D02*
X38620000Y-42000000D01*
X40000000Y-43380000D02*
X38620000Y-43380000D01*
X41270000Y-40620000D02*
X49000000Y-40620000D01*
X41270000Y-43380000D02*
X41270000Y-40620000D01*
X41270000Y-43380000D02*
X49000000Y-43380000D01*
X49000000Y-43380000D02*
X49000000Y-40620000D01*
%TO.C,C_SH1*%
X49892164Y-32140000D02*
X50107836Y-32140000D01*
X49892164Y-32860000D02*
X50107836Y-32860000D01*
%TO.C,U2*%
X28095000Y-1510000D02*
X47905000Y-1510000D01*
X28095000Y-16490000D02*
X28095000Y-1510000D01*
X47905000Y-1510000D02*
X47905000Y-16490000D01*
X47905000Y-16490000D02*
X28095000Y-16490000D01*
%TO.C,R_PD*%
X13620000Y-35846359D02*
X13620000Y-36153641D01*
X14380000Y-35846359D02*
X14380000Y-36153641D01*
%TO.C,R_SER*%
X51120000Y-34653641D02*
X51120000Y-34346359D01*
X51880000Y-34653641D02*
X51880000Y-34346359D01*
%TO.C,C3*%
X18640000Y-25107836D02*
X18640000Y-24892164D01*
X19360000Y-25107836D02*
X19360000Y-24892164D01*
%TO.C,SOLAR*%
X2620000Y-43380000D02*
X2620000Y-42000000D01*
X4000000Y-43380000D02*
X2620000Y-43380000D01*
X5270000Y-40620000D02*
X7920000Y-40620000D01*
X5270000Y-43380000D02*
X5270000Y-40620000D01*
X5270000Y-43380000D02*
X7920000Y-43380000D01*
X7920000Y-43380000D02*
X7920000Y-40620000D01*
%TO.C,C1*%
X14859420Y-22490000D02*
X15140580Y-22490000D01*
X14859420Y-23510000D02*
X15140580Y-23510000D01*
%TO.C,LED1*%
X36515000Y-35265000D02*
X36515000Y-36735000D01*
X36515000Y-36735000D02*
X38800000Y-36735000D01*
X38800000Y-35265000D02*
X36515000Y-35265000D01*
%TO.C,R_DIV2*%
X8846359Y-37620000D02*
X9153641Y-37620000D01*
X8846359Y-38380000D02*
X9153641Y-38380000D01*
%TO.C,C4*%
X50640000Y-10892164D02*
X50640000Y-11107836D01*
X51360000Y-10892164D02*
X51360000Y-11107836D01*
%TO.C,U1*%
X3890000Y1210000D02*
X3890000Y-4600000D01*
X3890000Y1210000D02*
X22110000Y1210000D01*
X3890000Y-18710000D02*
X3890000Y-19010000D01*
X3890000Y-19010000D02*
X22110000Y-19010000D01*
X22110000Y1210000D02*
X22110000Y-5290000D01*
X22110000Y-18710000D02*
X22110000Y-19010000D01*
X3900000Y-5300000D02*
X3400000Y-5300000D01*
X3900000Y-4800000D01*
X3900000Y-5300000D01*
G36*
X3900000Y-5300000D02*
G01*
X3400000Y-5300000D01*
X3900000Y-4800000D01*
X3900000Y-5300000D01*
G37*
%TO.C,J1*%
X18620000Y-43380000D02*
X18620000Y-42000000D01*
X20000000Y-43380000D02*
X18620000Y-43380000D01*
X21270000Y-40620000D02*
X34080000Y-40620000D01*
X21270000Y-43380000D02*
X21270000Y-40620000D01*
X21270000Y-43380000D02*
X34080000Y-43380000D01*
X34080000Y-43380000D02*
X34080000Y-40620000D01*
%TO.C,U3*%
X34040000Y-21840000D02*
X34040000Y-21990000D01*
X34040000Y-21840000D02*
X43960000Y-21840000D01*
X34040000Y-32010000D02*
X34040000Y-32160000D01*
X34040000Y-32160000D02*
X43960000Y-32160000D01*
X43960000Y-21840000D02*
X43960000Y-21990000D01*
X43960000Y-32010000D02*
X43960000Y-32160000D01*
X33570000Y-21990000D02*
X33330000Y-21660000D01*
X33810000Y-21660000D01*
X33570000Y-21990000D01*
G36*
X33570000Y-21990000D02*
G01*
X33330000Y-21660000D01*
X33810000Y-21660000D01*
X33570000Y-21990000D01*
G37*
%TO.C,C_SH2*%
X49892164Y-36640000D02*
X50107836Y-36640000D01*
X49892164Y-37360000D02*
X50107836Y-37360000D01*
%TO.C,ANT2*%
X50700000Y-40500000D02*
X51500000Y-40500000D01*
X50700000Y-40700000D02*
X50700000Y-40500000D01*
X50900000Y-43500000D02*
X50700000Y-43300000D01*
X51500000Y-43500000D02*
X50900000Y-43500000D01*
X51500000Y-43500000D02*
X51500000Y-44000000D01*
X52900000Y-40500000D02*
X53700000Y-40500000D01*
X52900000Y-43500000D02*
X52900000Y-44000000D01*
X53700000Y-40500000D02*
X53700000Y-40700000D01*
X53700000Y-43300000D02*
X53700000Y-43500000D01*
X53700000Y-43500000D02*
X52900000Y-43500000D01*
%TD*%
M02*
