%TF.GenerationSoftware,KiCad,Pcbnew,9.0.8+dfsg-1*%
%TF.CreationDate,2026-10-05T04:22:02+02:00*%
%TF.ProjectId,v8i_krt_gnss,7638695f-6b72-4745-9f67-6e73732e6b69,rev?*%
%TF.SameCoordinates,Original*%
%TF.FileFunction,Copper,L3,Inr*%
%TF.FilePolarity,Positive*%
%FSLAX46Y46*%
G04 Gerber Fmt 4.6, Leading zero omitted, Abs format (unit mm)*
G04 Created by KiCad (PCBNEW 9.0.8+dfsg-1) date 2026-10-05 04:22:02*
%MOMM*%
%LPD*%
G01*
G04 APERTURE LIST*
G04 Aperture macros list*
%AMRoundRect*
0 Rectangle with rounded corners*
0 $1 Rounding radius*
0 $2 $3 $4 $5 $6 $7 $8 $9 X,Y pos of 4 corners*
0 Add a 4 corners polygon primitive as box body*
4,1,4,$2,$3,$4,$5,$6,$7,$8,$9,$2,$3,0*
0 Add four circle primitives for the rounded corners*
1,1,$1+$1,$2,$3*
1,1,$1+$1,$4,$5*
1,1,$1+$1,$6,$7*
1,1,$1+$1,$8,$9*
0 Add four rect primitives between the rounded corners*
20,1,$1+$1,$2,$3,$4,$5,0*
20,1,$1+$1,$4,$5,$6,$7,0*
20,1,$1+$1,$6,$7,$8,$9,0*
20,1,$1+$1,$8,$9,$2,$3,0*%
G04 Aperture macros list end*
%TA.AperFunction,ComponentPad*%
%ADD10RoundRect,0.250000X0.750000X-0.750000X0.750000X0.750000X-0.750000X0.750000X-0.750000X-0.750000X0*%
%TD*%
%TA.AperFunction,ComponentPad*%
%ADD11C,2.000000*%
%TD*%
%TA.AperFunction,ComponentPad*%
%ADD12R,1.700000X1.700000*%
%TD*%
%TA.AperFunction,ComponentPad*%
%ADD13C,1.700000*%
%TD*%
%TA.AperFunction,HeatsinkPad*%
%ADD14C,0.600000*%
%TD*%
%TA.AperFunction,ViaPad*%
%ADD15C,0.600000*%
%TD*%
%TA.AperFunction,Conductor*%
%ADD16C,0.300000*%
%TD*%
%TA.AperFunction,Conductor*%
%ADD17C,0.200000*%
%TD*%
G04 APERTURE END LIST*
D10*
%TO.N,VCAP*%
%TO.C,C_CAP*%
X6000000Y-30000000D03*
D11*
%TO.N,GND*%
X6000000Y-25000000D03*
%TD*%
D12*
%TO.N,GND*%
%TO.C,J2*%
X40000000Y-42000000D03*
D13*
%TO.N,+3V3*%
X42540000Y-42000000D03*
%TO.N,I2C_SDA*%
X45080000Y-42000000D03*
%TO.N,I2C_SCL*%
X47620000Y-42000000D03*
%TD*%
D12*
%TO.N,SOLAR_IN*%
%TO.C,SOLAR*%
X4000000Y-42000000D03*
D13*
%TO.N,GND*%
X6540000Y-42000000D03*
%TD*%
D14*
%TO.N,GND*%
%TO.C,U1*%
X12860000Y-11650000D03*
X12860000Y-12750000D03*
X13410000Y-11100000D03*
X13410000Y-12200000D03*
X13410000Y-13300000D03*
X13960000Y-11650000D03*
X13960000Y-12750000D03*
X14510000Y-11100000D03*
X14510000Y-12200000D03*
X14510000Y-13300000D03*
X15060000Y-11650000D03*
X15060000Y-12750000D03*
%TD*%
D12*
%TO.N,GND*%
%TO.C,J1*%
X20000000Y-42000000D03*
D13*
%TO.N,+3V3*%
X22540000Y-42000000D03*
%TO.N,EN*%
X25080000Y-42000000D03*
%TO.N,UART0_TX*%
X27620000Y-42000000D03*
%TO.N,UART0_RX*%
X30160000Y-42000000D03*
%TO.N,N/C*%
X32700000Y-42000000D03*
%TD*%
D15*
%TO.N,+3V3*%
X32800000Y-29200000D03*
X13200000Y-22800000D03*
X46300000Y-12800000D03*
X19900000Y-25500000D03*
X2900000Y-6100000D03*
X22000000Y-36300000D03*
X47900000Y-2900000D03*
X23400000Y-35800000D03*
X51900000Y-11200000D03*
X13100000Y-36500000D03*
%TO.N,GND*%
X19000000Y-23600000D03*
X50100000Y-11800000D03*
X44500000Y-31400000D03*
X52875000Y-42000000D03*
X21300000Y-35000000D03*
X48700000Y-37000000D03*
X46300000Y-5800000D03*
X51450000Y-43500000D03*
X27900000Y-2900000D03*
X48700000Y-32500000D03*
X26400000Y-10000000D03*
X4400000Y-19000000D03*
X44500000Y-29200000D03*
X15000000Y-23900000D03*
X49875000Y-42000000D03*
%TO.N,VCAP*%
X4500000Y-35900000D03*
X18300000Y-29200000D03*
X17900000Y-30900000D03*
X23400000Y-24200000D03*
X4500000Y-34700000D03*
%TO.N,SOLAR_IN*%
X7200000Y-39200000D03*
X24800000Y-21900000D03*
%TO.N,GPS_TX*%
X23100000Y-7300000D03*
X24500000Y-11400000D03*
X32800000Y-24600000D03*
X32800000Y-23200000D03*
%TO.N,SPI_MISO*%
X26500000Y-6400000D03*
X29600000Y-6400000D03*
%TO.N,SPI_SCK*%
X5600000Y-12400000D03*
X5900000Y-10400000D03*
X20000000Y-12000000D03*
X29600000Y-9700000D03*
%TO.N,SPI_MOSI*%
X30500000Y-8300000D03*
X6700000Y-13500000D03*
%TO.N,SPI_NSS*%
X29600000Y-10900000D03*
X23100000Y-18500000D03*
%TO.N,LR_BUSY*%
X2900000Y-8700000D03*
X29700000Y-11700000D03*
%TO.N,LR_IRQ*%
X26500000Y-7600000D03*
X24000000Y-10100000D03*
%TO.N,I2C_SDA*%
X43300000Y-40200000D03*
X15700000Y-35000000D03*
X19000000Y-35000000D03*
%TO.N,I2C_SCL*%
X9100000Y-14100000D03*
X24700000Y-35500000D03*
X23100000Y-33700000D03*
X5600000Y-17000000D03*
%TO.N,LED_DRIVE*%
X20000000Y-13800000D03*
X23100000Y-12000000D03*
%TO.N,UART0_TX*%
X29800000Y-23400000D03*
%TO.N,UART0_RX*%
X28900000Y-23400000D03*
X30200000Y-39100000D03*
%TD*%
D16*
%TO.N,+3V3*%
X34105000Y-29225000D02*
X34080000Y-29200000D01*
X13400000Y-23000000D02*
X13200000Y-22800000D01*
X47865000Y-3705000D02*
X47900000Y-3670000D01*
X19100000Y-25500000D02*
X19900000Y-25500000D01*
X2990000Y-6100000D02*
X2900000Y-6100000D01*
X3785000Y-5305000D02*
X2990000Y-6100000D01*
X14105000Y-22985000D02*
X14100000Y-23000000D01*
X13900000Y-36500000D02*
X13100000Y-36500000D01*
X47900000Y-3670000D02*
X47900000Y-2900000D01*
X34080000Y-29200000D02*
X32800000Y-29200000D01*
X13945000Y-36505000D02*
X13900000Y-36500000D01*
X14100000Y-23000000D02*
X13400000Y-23000000D01*
X19065000Y-25465000D02*
X19100000Y-25500000D01*
D17*
%TO.N,LED_DRIVE*%
X21800000Y-12000000D02*
X23100000Y-12000000D01*
X20000000Y-13800000D02*
X21800000Y-12000000D01*
%TD*%
%TA.AperFunction,Conductor*%
%TO.N,+3V3*%
G36*
X54458691Y-519407D02*
G01*
X54494655Y-568907D01*
X54499500Y-599500D01*
X54499500Y-44400500D01*
X54480593Y-44458691D01*
X54431093Y-44494655D01*
X54400500Y-44499500D01*
X599500Y-44499500D01*
X541309Y-44480593D01*
X505345Y-44431093D01*
X500500Y-44400500D01*
X500500Y-43434108D01*
X50949500Y-43434108D01*
X50949500Y-43565892D01*
X50979579Y-43678151D01*
X50983609Y-43693190D01*
X51049496Y-43807309D01*
X51049498Y-43807311D01*
X51049500Y-43807314D01*
X51142686Y-43900500D01*
X51142688Y-43900501D01*
X51142690Y-43900503D01*
X51256810Y-43966390D01*
X51256808Y-43966390D01*
X51256812Y-43966391D01*
X51256814Y-43966392D01*
X51384108Y-44000500D01*
X51384110Y-44000500D01*
X51515890Y-44000500D01*
X51515892Y-44000500D01*
X51643186Y-43966392D01*
X51643188Y-43966390D01*
X51643190Y-43966390D01*
X51757309Y-43900503D01*
X51757309Y-43900502D01*
X51757314Y-43900500D01*
X51850500Y-43807314D01*
X51916392Y-43693186D01*
X51950500Y-43565892D01*
X51950500Y-43434108D01*
X51916392Y-43306814D01*
X51916390Y-43306811D01*
X51916390Y-43306809D01*
X51850503Y-43192690D01*
X51850501Y-43192688D01*
X51850500Y-43192686D01*
X51757314Y-43099500D01*
X51757311Y-43099498D01*
X51757309Y-43099496D01*
X51643189Y-43033609D01*
X51643191Y-43033609D01*
X51593799Y-43020375D01*
X51515892Y-42999500D01*
X51384108Y-42999500D01*
X51306200Y-43020375D01*
X51256809Y-43033609D01*
X51142690Y-43099496D01*
X51049496Y-43192690D01*
X50983609Y-43306809D01*
X50983608Y-43306814D01*
X50949500Y-43434108D01*
X500500Y-43434108D01*
X500500Y-41130253D01*
X2949500Y-41130253D01*
X2949500Y-42869746D01*
X2949501Y-42869758D01*
X2961132Y-42928227D01*
X2961134Y-42928233D01*
X3005445Y-42994548D01*
X3005448Y-42994552D01*
X3071769Y-43038867D01*
X3116231Y-43047711D01*
X3130241Y-43050498D01*
X3130246Y-43050498D01*
X3130252Y-43050500D01*
X3130253Y-43050500D01*
X4869747Y-43050500D01*
X4869748Y-43050500D01*
X4928231Y-43038867D01*
X4994552Y-42994552D01*
X5038867Y-42928231D01*
X5050500Y-42869748D01*
X5050500Y-41896532D01*
X5489500Y-41896532D01*
X5489500Y-42103467D01*
X5529869Y-42306418D01*
X5609058Y-42497597D01*
X5661795Y-42576524D01*
X5724023Y-42669655D01*
X5870345Y-42815977D01*
X6042402Y-42930941D01*
X6233580Y-43010130D01*
X6436535Y-43050500D01*
X6436536Y-43050500D01*
X6643464Y-43050500D01*
X6643465Y-43050500D01*
X6846420Y-43010130D01*
X7037598Y-42930941D01*
X7209655Y-42815977D01*
X7355977Y-42669655D01*
X7470941Y-42497598D01*
X7550130Y-42306420D01*
X7590500Y-42103465D01*
X7590500Y-41897644D01*
X13699500Y-41897644D01*
X13699500Y-42102355D01*
X13731521Y-42304529D01*
X13794780Y-42499219D01*
X13887712Y-42681609D01*
X13887714Y-42681613D01*
X14008029Y-42847213D01*
X14008031Y-42847215D01*
X14008034Y-42847219D01*
X14152781Y-42991966D01*
X14152784Y-42991968D01*
X14152786Y-42991970D01*
X14318386Y-43112285D01*
X14318390Y-43112287D01*
X14500781Y-43205220D01*
X14695466Y-43268477D01*
X14695467Y-43268477D01*
X14695470Y-43268478D01*
X14897645Y-43300500D01*
X14897648Y-43300500D01*
X15102355Y-43300500D01*
X15304529Y-43268478D01*
X15304530Y-43268477D01*
X15304534Y-43268477D01*
X15499219Y-43205220D01*
X15681610Y-43112287D01*
X15699216Y-43099496D01*
X15766653Y-43050500D01*
X15847219Y-42991966D01*
X15991966Y-42847219D01*
X16112287Y-42681610D01*
X16205220Y-42499219D01*
X16268477Y-42304534D01*
X16275914Y-42257579D01*
X16300500Y-42102355D01*
X16300500Y-41897644D01*
X16268478Y-41695470D01*
X16268477Y-41695466D01*
X16205220Y-41500781D01*
X16112287Y-41318390D01*
X16112285Y-41318386D01*
X16014342Y-41183578D01*
X16014341Y-41183577D01*
X15991972Y-41152788D01*
X15991968Y-41152784D01*
X15991966Y-41152781D01*
X15969438Y-41130253D01*
X18949500Y-41130253D01*
X18949500Y-42869746D01*
X18949501Y-42869758D01*
X18961132Y-42928227D01*
X18961134Y-42928233D01*
X19005445Y-42994548D01*
X19005448Y-42994552D01*
X19071769Y-43038867D01*
X19116231Y-43047711D01*
X19130241Y-43050498D01*
X19130246Y-43050498D01*
X19130252Y-43050500D01*
X19130253Y-43050500D01*
X20869747Y-43050500D01*
X20869748Y-43050500D01*
X20928231Y-43038867D01*
X20994552Y-42994552D01*
X21038867Y-42928231D01*
X21050500Y-42869748D01*
X21050500Y-41913424D01*
X21440000Y-41913424D01*
X21440000Y-42086575D01*
X21467084Y-42257579D01*
X21520588Y-42422248D01*
X21599196Y-42576524D01*
X21603708Y-42582735D01*
X22057036Y-42129406D01*
X22074075Y-42192993D01*
X22139901Y-42307007D01*
X22232993Y-42400099D01*
X22347007Y-42465925D01*
X22410589Y-42482962D01*
X21957262Y-42936289D01*
X21957262Y-42936290D01*
X21963469Y-42940800D01*
X21963475Y-42940804D01*
X22117751Y-43019411D01*
X22282420Y-43072915D01*
X22453425Y-43100000D01*
X22626575Y-43100000D01*
X22797579Y-43072915D01*
X22962248Y-43019411D01*
X23116523Y-42940804D01*
X23116530Y-42940800D01*
X23122736Y-42936290D01*
X22669408Y-42482962D01*
X22732993Y-42465925D01*
X22847007Y-42400099D01*
X22940099Y-42307007D01*
X23005925Y-42192993D01*
X23022962Y-42129408D01*
X23476290Y-42582736D01*
X23480800Y-42576530D01*
X23480804Y-42576523D01*
X23559411Y-42422248D01*
X23612915Y-42257579D01*
X23640000Y-42086575D01*
X23640000Y-41913429D01*
X23639007Y-41907162D01*
X23639007Y-41907158D01*
X23637324Y-41896532D01*
X24029500Y-41896532D01*
X24029500Y-42103467D01*
X24069869Y-42306418D01*
X24149058Y-42497597D01*
X24201795Y-42576524D01*
X24264023Y-42669655D01*
X24410345Y-42815977D01*
X24582402Y-42930941D01*
X24773580Y-43010130D01*
X24976535Y-43050500D01*
X24976536Y-43050500D01*
X25183464Y-43050500D01*
X25183465Y-43050500D01*
X25386420Y-43010130D01*
X25577598Y-42930941D01*
X25749655Y-42815977D01*
X25895977Y-42669655D01*
X26010941Y-42497598D01*
X26090130Y-42306420D01*
X26130500Y-42103465D01*
X26130500Y-41896535D01*
X26130499Y-41896532D01*
X26569500Y-41896532D01*
X26569500Y-42103467D01*
X26609869Y-42306418D01*
X26689058Y-42497597D01*
X26741795Y-42576524D01*
X26804023Y-42669655D01*
X26950345Y-42815977D01*
X27122402Y-42930941D01*
X27313580Y-43010130D01*
X27516535Y-43050500D01*
X27516536Y-43050500D01*
X27723464Y-43050500D01*
X27723465Y-43050500D01*
X27926420Y-43010130D01*
X28117598Y-42930941D01*
X28289655Y-42815977D01*
X28435977Y-42669655D01*
X28550941Y-42497598D01*
X28630130Y-42306420D01*
X28670500Y-42103465D01*
X28670500Y-41896535D01*
X28670499Y-41896532D01*
X29109500Y-41896532D01*
X29109500Y-42103467D01*
X29149869Y-42306418D01*
X29229058Y-42497597D01*
X29281795Y-42576524D01*
X29344023Y-42669655D01*
X29490345Y-42815977D01*
X29662402Y-42930941D01*
X29853580Y-43010130D01*
X30056535Y-43050500D01*
X30056536Y-43050500D01*
X30263464Y-43050500D01*
X30263465Y-43050500D01*
X30466420Y-43010130D01*
X30657598Y-42930941D01*
X30829655Y-42815977D01*
X30975977Y-42669655D01*
X31090941Y-42497598D01*
X31170130Y-42306420D01*
X31210500Y-42103465D01*
X31210500Y-41896535D01*
X31210499Y-41896532D01*
X31649500Y-41896532D01*
X31649500Y-42103467D01*
X31689869Y-42306418D01*
X31769058Y-42497597D01*
X31821795Y-42576524D01*
X31884023Y-42669655D01*
X32030345Y-42815977D01*
X32202402Y-42930941D01*
X32393580Y-43010130D01*
X32596535Y-43050500D01*
X32596536Y-43050500D01*
X32803464Y-43050500D01*
X32803465Y-43050500D01*
X33006420Y-43010130D01*
X33197598Y-42930941D01*
X33369655Y-42815977D01*
X33515977Y-42669655D01*
X33630941Y-42497598D01*
X33710130Y-42306420D01*
X33750500Y-42103465D01*
X33750500Y-41896535D01*
X33710130Y-41693580D01*
X33630941Y-41502402D01*
X33515977Y-41330345D01*
X33369655Y-41184023D01*
X33368988Y-41183577D01*
X33289182Y-41130253D01*
X38949500Y-41130253D01*
X38949500Y-42869746D01*
X38949501Y-42869758D01*
X38961132Y-42928227D01*
X38961134Y-42928233D01*
X39005445Y-42994548D01*
X39005448Y-42994552D01*
X39071769Y-43038867D01*
X39116231Y-43047711D01*
X39130241Y-43050498D01*
X39130246Y-43050498D01*
X39130252Y-43050500D01*
X39130253Y-43050500D01*
X40869747Y-43050500D01*
X40869748Y-43050500D01*
X40928231Y-43038867D01*
X40994552Y-42994552D01*
X41038867Y-42928231D01*
X41050500Y-42869748D01*
X41050500Y-41913424D01*
X41440000Y-41913424D01*
X41440000Y-42086575D01*
X41467084Y-42257579D01*
X41520588Y-42422248D01*
X41599196Y-42576524D01*
X41603708Y-42582735D01*
X42057036Y-42129406D01*
X42074075Y-42192993D01*
X42139901Y-42307007D01*
X42232993Y-42400099D01*
X42347007Y-42465925D01*
X42410589Y-42482962D01*
X41957262Y-42936289D01*
X41957262Y-42936290D01*
X41963469Y-42940800D01*
X41963475Y-42940804D01*
X42117751Y-43019411D01*
X42282420Y-43072915D01*
X42453425Y-43100000D01*
X42626575Y-43100000D01*
X42797579Y-43072915D01*
X42962248Y-43019411D01*
X43116523Y-42940804D01*
X43116530Y-42940800D01*
X43122736Y-42936290D01*
X42669408Y-42482962D01*
X42732993Y-42465925D01*
X42847007Y-42400099D01*
X42940099Y-42307007D01*
X43005925Y-42192993D01*
X43022962Y-42129408D01*
X43476290Y-42582736D01*
X43480800Y-42576530D01*
X43480804Y-42576523D01*
X43559411Y-42422248D01*
X43612915Y-42257579D01*
X43640000Y-42086575D01*
X43640000Y-41913429D01*
X43639007Y-41907162D01*
X43639007Y-41907158D01*
X43637324Y-41896532D01*
X44029500Y-41896532D01*
X44029500Y-42103467D01*
X44069869Y-42306418D01*
X44149058Y-42497597D01*
X44201795Y-42576524D01*
X44264023Y-42669655D01*
X44410345Y-42815977D01*
X44582402Y-42930941D01*
X44773580Y-43010130D01*
X44976535Y-43050500D01*
X44976536Y-43050500D01*
X45183464Y-43050500D01*
X45183465Y-43050500D01*
X45386420Y-43010130D01*
X45577598Y-42930941D01*
X45749655Y-42815977D01*
X45895977Y-42669655D01*
X46010941Y-42497598D01*
X46090130Y-42306420D01*
X46130500Y-42103465D01*
X46130500Y-41896535D01*
X46130499Y-41896532D01*
X46569500Y-41896532D01*
X46569500Y-42103467D01*
X46609869Y-42306418D01*
X46689058Y-42497597D01*
X46741795Y-42576524D01*
X46804023Y-42669655D01*
X46950345Y-42815977D01*
X47122402Y-42930941D01*
X47313580Y-43010130D01*
X47516535Y-43050500D01*
X47516536Y-43050500D01*
X47723464Y-43050500D01*
X47723465Y-43050500D01*
X47926420Y-43010130D01*
X48117598Y-42930941D01*
X48289655Y-42815977D01*
X48435977Y-42669655D01*
X48550941Y-42497598D01*
X48630130Y-42306420D01*
X48670500Y-42103465D01*
X48670500Y-41934108D01*
X49374500Y-41934108D01*
X49374500Y-42065892D01*
X49384567Y-42103463D01*
X49408609Y-42193190D01*
X49474496Y-42307309D01*
X49474498Y-42307311D01*
X49474500Y-42307314D01*
X49567686Y-42400500D01*
X49567688Y-42400501D01*
X49567690Y-42400503D01*
X49681810Y-42466390D01*
X49681808Y-42466390D01*
X49681812Y-42466391D01*
X49681814Y-42466392D01*
X49809108Y-42500500D01*
X49809110Y-42500500D01*
X49940890Y-42500500D01*
X49940892Y-42500500D01*
X50068186Y-42466392D01*
X50068188Y-42466390D01*
X50068190Y-42466390D01*
X50182309Y-42400503D01*
X50182309Y-42400502D01*
X50182314Y-42400500D01*
X50275500Y-42307314D01*
X50341392Y-42193186D01*
X50375500Y-42065892D01*
X50375500Y-41934108D01*
X52374500Y-41934108D01*
X52374500Y-42065892D01*
X52384567Y-42103463D01*
X52408609Y-42193190D01*
X52474496Y-42307309D01*
X52474498Y-42307311D01*
X52474500Y-42307314D01*
X52567686Y-42400500D01*
X52567688Y-42400501D01*
X52567690Y-42400503D01*
X52681810Y-42466390D01*
X52681808Y-42466390D01*
X52681812Y-42466391D01*
X52681814Y-42466392D01*
X52809108Y-42500500D01*
X52809110Y-42500500D01*
X52940890Y-42500500D01*
X52940892Y-42500500D01*
X53068186Y-42466392D01*
X53068188Y-42466390D01*
X53068190Y-42466390D01*
X53182309Y-42400503D01*
X53182309Y-42400502D01*
X53182314Y-42400500D01*
X53275500Y-42307314D01*
X53341392Y-42193186D01*
X53375500Y-42065892D01*
X53375500Y-41934108D01*
X53341392Y-41806814D01*
X53341390Y-41806811D01*
X53341390Y-41806809D01*
X53275503Y-41692690D01*
X53275501Y-41692688D01*
X53275500Y-41692686D01*
X53182314Y-41599500D01*
X53182311Y-41599498D01*
X53182309Y-41599496D01*
X53068189Y-41533609D01*
X53068191Y-41533609D01*
X53018799Y-41520375D01*
X52940892Y-41499500D01*
X52809108Y-41499500D01*
X52731200Y-41520375D01*
X52681809Y-41533609D01*
X52567690Y-41599496D01*
X52474496Y-41692690D01*
X52408609Y-41806809D01*
X52408608Y-41806814D01*
X52374500Y-41934108D01*
X50375500Y-41934108D01*
X50341392Y-41806814D01*
X50341390Y-41806811D01*
X50341390Y-41806809D01*
X50275503Y-41692690D01*
X50275501Y-41692688D01*
X50275500Y-41692686D01*
X50182314Y-41599500D01*
X50182311Y-41599498D01*
X50182309Y-41599496D01*
X50068189Y-41533609D01*
X50068191Y-41533609D01*
X50018799Y-41520375D01*
X49940892Y-41499500D01*
X49809108Y-41499500D01*
X49731200Y-41520375D01*
X49681809Y-41533609D01*
X49567690Y-41599496D01*
X49474496Y-41692690D01*
X49408609Y-41806809D01*
X49408608Y-41806814D01*
X49374500Y-41934108D01*
X48670500Y-41934108D01*
X48670500Y-41896535D01*
X48630130Y-41693580D01*
X48550941Y-41502402D01*
X48435977Y-41330345D01*
X48289655Y-41184023D01*
X48288988Y-41183577D01*
X48117597Y-41069058D01*
X47926418Y-40989869D01*
X47723467Y-40949500D01*
X47723465Y-40949500D01*
X47516535Y-40949500D01*
X47516532Y-40949500D01*
X47313581Y-40989869D01*
X47122402Y-41069058D01*
X46950348Y-41184020D01*
X46804020Y-41330348D01*
X46689058Y-41502402D01*
X46609869Y-41693581D01*
X46569500Y-41896532D01*
X46130499Y-41896532D01*
X46090130Y-41693580D01*
X46010941Y-41502402D01*
X45895977Y-41330345D01*
X45749655Y-41184023D01*
X45748988Y-41183577D01*
X45577597Y-41069058D01*
X45386418Y-40989869D01*
X45183467Y-40949500D01*
X45183465Y-40949500D01*
X44976535Y-40949500D01*
X44976532Y-40949500D01*
X44773581Y-40989869D01*
X44582402Y-41069058D01*
X44410348Y-41184020D01*
X44264020Y-41330348D01*
X44149058Y-41502402D01*
X44069869Y-41693581D01*
X44029500Y-41896532D01*
X43637324Y-41896532D01*
X43612915Y-41742420D01*
X43559411Y-41577751D01*
X43480804Y-41423475D01*
X43480800Y-41423469D01*
X43476290Y-41417262D01*
X43476289Y-41417262D01*
X43022962Y-41870589D01*
X43005925Y-41807007D01*
X42940099Y-41692993D01*
X42847007Y-41599901D01*
X42732993Y-41534075D01*
X42669407Y-41517036D01*
X43122736Y-41063708D01*
X43116524Y-41059196D01*
X42962248Y-40980588D01*
X42797579Y-40927084D01*
X42626575Y-40900000D01*
X42453425Y-40900000D01*
X42282420Y-40927084D01*
X42117751Y-40980588D01*
X41963478Y-41059194D01*
X41957262Y-41063708D01*
X42410591Y-41517037D01*
X42347007Y-41534075D01*
X42232993Y-41599901D01*
X42139901Y-41692993D01*
X42074075Y-41807007D01*
X42057037Y-41870591D01*
X41603708Y-41417262D01*
X41599194Y-41423478D01*
X41520588Y-41577751D01*
X41467084Y-41742420D01*
X41440000Y-41913424D01*
X41050500Y-41913424D01*
X41050500Y-41130252D01*
X41038867Y-41071769D01*
X40994552Y-41005448D01*
X40994548Y-41005445D01*
X40928233Y-40961134D01*
X40928231Y-40961133D01*
X40928228Y-40961132D01*
X40928227Y-40961132D01*
X40869758Y-40949501D01*
X40869748Y-40949500D01*
X39130252Y-40949500D01*
X39130251Y-40949500D01*
X39130241Y-40949501D01*
X39071772Y-40961132D01*
X39071766Y-40961134D01*
X39005451Y-41005445D01*
X39005445Y-41005451D01*
X38961134Y-41071766D01*
X38961132Y-41071772D01*
X38949501Y-41130241D01*
X38949500Y-41130253D01*
X33289182Y-41130253D01*
X33197597Y-41069058D01*
X33006418Y-40989869D01*
X32803467Y-40949500D01*
X32803465Y-40949500D01*
X32596535Y-40949500D01*
X32596532Y-40949500D01*
X32393581Y-40989869D01*
X32202402Y-41069058D01*
X32030348Y-41184020D01*
X31884020Y-41330348D01*
X31769058Y-41502402D01*
X31689869Y-41693581D01*
X31649500Y-41896532D01*
X31210499Y-41896532D01*
X31170130Y-41693580D01*
X31090941Y-41502402D01*
X30975977Y-41330345D01*
X30829655Y-41184023D01*
X30828988Y-41183577D01*
X30657597Y-41069058D01*
X30466418Y-40989869D01*
X30263467Y-40949500D01*
X30263465Y-40949500D01*
X30056535Y-40949500D01*
X30056532Y-40949500D01*
X29853581Y-40989869D01*
X29662402Y-41069058D01*
X29490348Y-41184020D01*
X29344020Y-41330348D01*
X29229058Y-41502402D01*
X29149869Y-41693581D01*
X29109500Y-41896532D01*
X28670499Y-41896532D01*
X28630130Y-41693580D01*
X28550941Y-41502402D01*
X28435977Y-41330345D01*
X28289655Y-41184023D01*
X28288988Y-41183577D01*
X28117597Y-41069058D01*
X27926418Y-40989869D01*
X27723467Y-40949500D01*
X27723465Y-40949500D01*
X27516535Y-40949500D01*
X27516532Y-40949500D01*
X27313581Y-40989869D01*
X27122402Y-41069058D01*
X26950348Y-41184020D01*
X26804020Y-41330348D01*
X26689058Y-41502402D01*
X26609869Y-41693581D01*
X26569500Y-41896532D01*
X26130499Y-41896532D01*
X26090130Y-41693580D01*
X26010941Y-41502402D01*
X25895977Y-41330345D01*
X25749655Y-41184023D01*
X25748988Y-41183577D01*
X25577597Y-41069058D01*
X25386418Y-40989869D01*
X25183467Y-40949500D01*
X25183465Y-40949500D01*
X24976535Y-40949500D01*
X24976532Y-40949500D01*
X24773581Y-40989869D01*
X24582402Y-41069058D01*
X24410348Y-41184020D01*
X24264020Y-41330348D01*
X24149058Y-41502402D01*
X24069869Y-41693581D01*
X24029500Y-41896532D01*
X23637324Y-41896532D01*
X23612915Y-41742420D01*
X23559411Y-41577751D01*
X23480804Y-41423475D01*
X23480800Y-41423469D01*
X23476290Y-41417262D01*
X23476289Y-41417262D01*
X23022962Y-41870589D01*
X23005925Y-41807007D01*
X22940099Y-41692993D01*
X22847007Y-41599901D01*
X22732993Y-41534075D01*
X22669407Y-41517036D01*
X23122736Y-41063708D01*
X23116524Y-41059196D01*
X22962248Y-40980588D01*
X22797579Y-40927084D01*
X22626575Y-40900000D01*
X22453425Y-40900000D01*
X22282420Y-40927084D01*
X22117751Y-40980588D01*
X21963478Y-41059194D01*
X21957262Y-41063708D01*
X22410591Y-41517037D01*
X22347007Y-41534075D01*
X22232993Y-41599901D01*
X22139901Y-41692993D01*
X22074075Y-41807007D01*
X22057037Y-41870591D01*
X21603708Y-41417262D01*
X21599194Y-41423478D01*
X21520588Y-41577751D01*
X21467084Y-41742420D01*
X21440000Y-41913424D01*
X21050500Y-41913424D01*
X21050500Y-41130252D01*
X21038867Y-41071769D01*
X20994552Y-41005448D01*
X20994548Y-41005445D01*
X20928233Y-40961134D01*
X20928231Y-40961133D01*
X20928228Y-40961132D01*
X20928227Y-40961132D01*
X20869758Y-40949501D01*
X20869748Y-40949500D01*
X19130252Y-40949500D01*
X19130251Y-40949500D01*
X19130241Y-40949501D01*
X19071772Y-40961132D01*
X19071766Y-40961134D01*
X19005451Y-41005445D01*
X19005445Y-41005451D01*
X18961134Y-41071766D01*
X18961132Y-41071772D01*
X18949501Y-41130241D01*
X18949500Y-41130253D01*
X15969438Y-41130253D01*
X15847219Y-41008034D01*
X15847215Y-41008031D01*
X15847213Y-41008029D01*
X15681613Y-40887714D01*
X15681609Y-40887712D01*
X15499219Y-40794780D01*
X15304529Y-40731521D01*
X15102355Y-40699500D01*
X15102352Y-40699500D01*
X14897648Y-40699500D01*
X14897645Y-40699500D01*
X14695470Y-40731521D01*
X14500780Y-40794780D01*
X14318390Y-40887712D01*
X14318386Y-40887714D01*
X14152786Y-41008029D01*
X14008029Y-41152786D01*
X13887714Y-41318386D01*
X13887712Y-41318390D01*
X13794780Y-41500780D01*
X13731521Y-41695470D01*
X13699500Y-41897644D01*
X7590500Y-41897644D01*
X7590500Y-41896535D01*
X7550130Y-41693580D01*
X7470941Y-41502402D01*
X7355977Y-41330345D01*
X7209655Y-41184023D01*
X7208988Y-41183577D01*
X7037597Y-41069058D01*
X6846418Y-40989869D01*
X6643467Y-40949500D01*
X6643465Y-40949500D01*
X6436535Y-40949500D01*
X6436532Y-40949500D01*
X6233581Y-40989869D01*
X6042402Y-41069058D01*
X5870348Y-41184020D01*
X5724020Y-41330348D01*
X5609058Y-41502402D01*
X5529869Y-41693581D01*
X5489500Y-41896532D01*
X5050500Y-41896532D01*
X5050500Y-41130252D01*
X5038867Y-41071769D01*
X4994552Y-41005448D01*
X4994548Y-41005445D01*
X4928233Y-40961134D01*
X4928231Y-40961133D01*
X4928228Y-40961132D01*
X4928227Y-40961132D01*
X4869758Y-40949501D01*
X4869748Y-40949500D01*
X3130252Y-40949500D01*
X3130251Y-40949500D01*
X3130241Y-40949501D01*
X3071772Y-40961132D01*
X3071766Y-40961134D01*
X3005451Y-41005445D01*
X3005445Y-41005451D01*
X2961134Y-41071766D01*
X2961132Y-41071772D01*
X2949501Y-41130241D01*
X2949500Y-41130253D01*
X500500Y-41130253D01*
X500500Y-40134108D01*
X42799500Y-40134108D01*
X42799500Y-40265892D01*
X42829579Y-40378151D01*
X42833609Y-40393190D01*
X42899496Y-40507309D01*
X42899498Y-40507311D01*
X42899500Y-40507314D01*
X42992686Y-40600500D01*
X42992688Y-40600501D01*
X42992690Y-40600503D01*
X43106810Y-40666390D01*
X43106808Y-40666390D01*
X43106812Y-40666391D01*
X43106814Y-40666392D01*
X43234108Y-40700500D01*
X43234110Y-40700500D01*
X43365890Y-40700500D01*
X43365892Y-40700500D01*
X43493186Y-40666392D01*
X43493188Y-40666390D01*
X43493190Y-40666390D01*
X43607309Y-40600503D01*
X43607309Y-40600502D01*
X43607314Y-40600500D01*
X43700500Y-40507314D01*
X43766392Y-40393186D01*
X43800500Y-40265892D01*
X43800500Y-40134108D01*
X43766392Y-40006814D01*
X43766390Y-40006811D01*
X43766390Y-40006809D01*
X43700503Y-39892690D01*
X43700501Y-39892688D01*
X43700500Y-39892686D01*
X43607314Y-39799500D01*
X43607311Y-39799498D01*
X43607309Y-39799496D01*
X43493189Y-39733609D01*
X43493191Y-39733609D01*
X43443799Y-39720375D01*
X43365892Y-39699500D01*
X43234108Y-39699500D01*
X43156200Y-39720375D01*
X43106809Y-39733609D01*
X42992690Y-39799496D01*
X42899496Y-39892690D01*
X42833609Y-40006809D01*
X42833608Y-40006814D01*
X42799500Y-40134108D01*
X500500Y-40134108D01*
X500500Y-39134108D01*
X6699500Y-39134108D01*
X6699500Y-39265892D01*
X6729579Y-39378151D01*
X6733609Y-39393190D01*
X6799496Y-39507309D01*
X6799498Y-39507311D01*
X6799500Y-39507314D01*
X6892686Y-39600500D01*
X6892688Y-39600501D01*
X6892690Y-39600503D01*
X7006810Y-39666390D01*
X7006808Y-39666390D01*
X7006812Y-39666391D01*
X7006814Y-39666392D01*
X7134108Y-39700500D01*
X7134110Y-39700500D01*
X7265890Y-39700500D01*
X7265892Y-39700500D01*
X7393186Y-39666392D01*
X7393188Y-39666390D01*
X7393190Y-39666390D01*
X7507309Y-39600503D01*
X7507309Y-39600502D01*
X7507314Y-39600500D01*
X7600500Y-39507314D01*
X7666392Y-39393186D01*
X7700500Y-39265892D01*
X7700500Y-39134108D01*
X7673705Y-39034108D01*
X29699500Y-39034108D01*
X29699500Y-39165892D01*
X29726294Y-39265890D01*
X29733609Y-39293190D01*
X29799496Y-39407309D01*
X29799498Y-39407311D01*
X29799500Y-39407314D01*
X29892686Y-39500500D01*
X29892688Y-39500501D01*
X29892690Y-39500503D01*
X30006810Y-39566390D01*
X30006808Y-39566390D01*
X30006812Y-39566391D01*
X30006814Y-39566392D01*
X30134108Y-39600500D01*
X30134110Y-39600500D01*
X30265890Y-39600500D01*
X30265892Y-39600500D01*
X30393186Y-39566392D01*
X30393188Y-39566390D01*
X30393190Y-39566390D01*
X30507309Y-39500503D01*
X30507309Y-39500502D01*
X30507314Y-39500500D01*
X30600500Y-39407314D01*
X30666392Y-39293186D01*
X30700500Y-39165892D01*
X30700500Y-39034108D01*
X30666392Y-38906814D01*
X30666390Y-38906811D01*
X30666390Y-38906809D01*
X30600503Y-38792690D01*
X30600501Y-38792688D01*
X30600500Y-38792686D01*
X30507314Y-38699500D01*
X30507311Y-38699498D01*
X30507309Y-38699496D01*
X30393189Y-38633609D01*
X30393191Y-38633609D01*
X30343799Y-38620375D01*
X30265892Y-38599500D01*
X30134108Y-38599500D01*
X30056200Y-38620375D01*
X30006809Y-38633609D01*
X29892690Y-38699496D01*
X29799496Y-38792690D01*
X29733609Y-38906809D01*
X29733608Y-38906814D01*
X29699500Y-39034108D01*
X7673705Y-39034108D01*
X7666392Y-39006814D01*
X7666390Y-39006811D01*
X7666390Y-39006809D01*
X7600503Y-38892690D01*
X7600501Y-38892688D01*
X7600500Y-38892686D01*
X7507314Y-38799500D01*
X7507311Y-38799498D01*
X7507309Y-38799496D01*
X7393189Y-38733609D01*
X7393191Y-38733609D01*
X7343799Y-38720375D01*
X7265892Y-38699500D01*
X7134108Y-38699500D01*
X7056200Y-38720375D01*
X7006809Y-38733609D01*
X6892690Y-38799496D01*
X6799496Y-38892690D01*
X6733609Y-39006809D01*
X6726294Y-39034109D01*
X6699500Y-39134108D01*
X500500Y-39134108D01*
X500500Y-36897644D01*
X41149500Y-36897644D01*
X41149500Y-37102355D01*
X41181521Y-37304529D01*
X41244780Y-37499219D01*
X41337712Y-37681609D01*
X41337714Y-37681613D01*
X41458029Y-37847213D01*
X41458031Y-37847215D01*
X41458034Y-37847219D01*
X41602781Y-37991966D01*
X41602784Y-37991968D01*
X41602786Y-37991970D01*
X41768386Y-38112285D01*
X41768390Y-38112287D01*
X41950781Y-38205220D01*
X42145466Y-38268477D01*
X42145467Y-38268477D01*
X42145470Y-38268478D01*
X42347645Y-38300500D01*
X42347648Y-38300500D01*
X42552355Y-38300500D01*
X42754529Y-38268478D01*
X42754530Y-38268477D01*
X42754534Y-38268477D01*
X42949219Y-38205220D01*
X43131610Y-38112287D01*
X43297219Y-37991966D01*
X43441966Y-37847219D01*
X43562287Y-37681610D01*
X43655220Y-37499219D01*
X43718477Y-37304534D01*
X43718478Y-37304529D01*
X43750500Y-37102355D01*
X43750500Y-36934108D01*
X48199500Y-36934108D01*
X48199500Y-37065892D01*
X48229579Y-37178151D01*
X48233609Y-37193190D01*
X48299496Y-37307309D01*
X48299498Y-37307311D01*
X48299500Y-37307314D01*
X48392686Y-37400500D01*
X48392688Y-37400501D01*
X48392690Y-37400503D01*
X48506810Y-37466390D01*
X48506808Y-37466390D01*
X48506812Y-37466391D01*
X48506814Y-37466392D01*
X48634108Y-37500500D01*
X48634110Y-37500500D01*
X48765890Y-37500500D01*
X48765892Y-37500500D01*
X48893186Y-37466392D01*
X48893188Y-37466390D01*
X48893190Y-37466390D01*
X49007309Y-37400503D01*
X49007309Y-37400502D01*
X49007314Y-37400500D01*
X49100500Y-37307314D01*
X49166392Y-37193186D01*
X49200500Y-37065892D01*
X49200500Y-36934108D01*
X49166392Y-36806814D01*
X49166390Y-36806811D01*
X49166390Y-36806809D01*
X49100503Y-36692690D01*
X49100501Y-36692688D01*
X49100500Y-36692686D01*
X49007314Y-36599500D01*
X49007311Y-36599498D01*
X49007309Y-36599496D01*
X48893189Y-36533609D01*
X48893191Y-36533609D01*
X48843799Y-36520375D01*
X48765892Y-36499500D01*
X48634108Y-36499500D01*
X48556200Y-36520375D01*
X48506809Y-36533609D01*
X48392690Y-36599496D01*
X48299496Y-36692690D01*
X48233609Y-36806809D01*
X48233608Y-36806814D01*
X48199500Y-36934108D01*
X43750500Y-36934108D01*
X43750500Y-36897644D01*
X43718478Y-36695470D01*
X43717575Y-36692690D01*
X43655220Y-36500781D01*
X43562287Y-36318390D01*
X43562285Y-36318386D01*
X43441970Y-36152786D01*
X43441968Y-36152784D01*
X43441966Y-36152781D01*
X43297219Y-36008034D01*
X43297215Y-36008031D01*
X43297213Y-36008029D01*
X43131613Y-35887714D01*
X43131609Y-35887712D01*
X42949219Y-35794780D01*
X42754529Y-35731521D01*
X42552355Y-35699500D01*
X42552352Y-35699500D01*
X42347648Y-35699500D01*
X42347645Y-35699500D01*
X42145470Y-35731521D01*
X41950780Y-35794780D01*
X41768390Y-35887712D01*
X41768386Y-35887714D01*
X41602786Y-36008029D01*
X41458029Y-36152786D01*
X41337714Y-36318386D01*
X41337712Y-36318390D01*
X41244780Y-36500780D01*
X41181521Y-36695470D01*
X41149500Y-36897644D01*
X500500Y-36897644D01*
X500500Y-35834108D01*
X3999500Y-35834108D01*
X3999500Y-35965892D01*
X4010792Y-36008034D01*
X4033609Y-36093190D01*
X4099496Y-36207309D01*
X4099498Y-36207311D01*
X4099500Y-36207314D01*
X4192686Y-36300500D01*
X4192688Y-36300501D01*
X4192690Y-36300503D01*
X4306810Y-36366390D01*
X4306808Y-36366390D01*
X4306812Y-36366391D01*
X4306814Y-36366392D01*
X4434108Y-36400500D01*
X4434110Y-36400500D01*
X4565890Y-36400500D01*
X4565892Y-36400500D01*
X4693186Y-36366392D01*
X4693188Y-36366390D01*
X4693190Y-36366390D01*
X4807309Y-36300503D01*
X4807309Y-36300502D01*
X4807314Y-36300500D01*
X4900500Y-36207314D01*
X4966392Y-36093186D01*
X5000500Y-35965892D01*
X5000500Y-35834108D01*
X4966392Y-35706814D01*
X4966390Y-35706811D01*
X4966390Y-35706809D01*
X4900503Y-35592690D01*
X4900501Y-35592688D01*
X4900500Y-35592686D01*
X4807314Y-35499500D01*
X4807311Y-35499498D01*
X4807309Y-35499496D01*
X4693189Y-35433609D01*
X4693191Y-35433609D01*
X4643799Y-35420375D01*
X4565892Y-35399500D01*
X4434108Y-35399500D01*
X4356200Y-35420375D01*
X4306809Y-35433609D01*
X4192690Y-35499496D01*
X4099496Y-35592690D01*
X4033609Y-35706809D01*
X4033608Y-35706814D01*
X3999500Y-35834108D01*
X500500Y-35834108D01*
X500500Y-34634108D01*
X3999500Y-34634108D01*
X3999500Y-34765892D01*
X4010464Y-34806809D01*
X4033609Y-34893190D01*
X4099496Y-35007309D01*
X4099498Y-35007311D01*
X4099500Y-35007314D01*
X4192686Y-35100500D01*
X4192688Y-35100501D01*
X4192690Y-35100503D01*
X4306810Y-35166390D01*
X4306808Y-35166390D01*
X4306812Y-35166391D01*
X4306814Y-35166392D01*
X4434108Y-35200500D01*
X4434110Y-35200500D01*
X4565890Y-35200500D01*
X4565892Y-35200500D01*
X4693186Y-35166392D01*
X4693188Y-35166390D01*
X4693190Y-35166390D01*
X4807309Y-35100503D01*
X4807309Y-35100502D01*
X4807314Y-35100500D01*
X4900500Y-35007314D01*
X4905012Y-34999500D01*
X4942766Y-34934108D01*
X15199500Y-34934108D01*
X15199500Y-35065892D01*
X15208773Y-35100500D01*
X15233609Y-35193190D01*
X15299496Y-35307309D01*
X15299498Y-35307311D01*
X15299500Y-35307314D01*
X15392686Y-35400500D01*
X15392688Y-35400501D01*
X15392690Y-35400503D01*
X15506810Y-35466390D01*
X15506808Y-35466390D01*
X15506812Y-35466391D01*
X15506814Y-35466392D01*
X15634108Y-35500500D01*
X15634110Y-35500500D01*
X15765890Y-35500500D01*
X15765892Y-35500500D01*
X15893186Y-35466392D01*
X15893188Y-35466390D01*
X15893190Y-35466390D01*
X16007309Y-35400503D01*
X16007309Y-35400502D01*
X16007314Y-35400500D01*
X16100500Y-35307314D01*
X16100792Y-35306809D01*
X16166390Y-35193190D01*
X16166390Y-35193188D01*
X16166392Y-35193186D01*
X16200500Y-35065892D01*
X16200500Y-34934108D01*
X18499500Y-34934108D01*
X18499500Y-35065892D01*
X18508773Y-35100500D01*
X18533609Y-35193190D01*
X18599496Y-35307309D01*
X18599498Y-35307311D01*
X18599500Y-35307314D01*
X18692686Y-35400500D01*
X18692688Y-35400501D01*
X18692690Y-35400503D01*
X18806810Y-35466390D01*
X18806808Y-35466390D01*
X18806812Y-35466391D01*
X18806814Y-35466392D01*
X18934108Y-35500500D01*
X18934110Y-35500500D01*
X19065890Y-35500500D01*
X19065892Y-35500500D01*
X19193186Y-35466392D01*
X19193188Y-35466390D01*
X19193190Y-35466390D01*
X19307309Y-35400503D01*
X19307309Y-35400502D01*
X19307314Y-35400500D01*
X19400500Y-35307314D01*
X19400792Y-35306809D01*
X19466390Y-35193190D01*
X19466390Y-35193188D01*
X19466392Y-35193186D01*
X19500500Y-35065892D01*
X19500500Y-34934108D01*
X20799500Y-34934108D01*
X20799500Y-35065892D01*
X20808773Y-35100500D01*
X20833609Y-35193190D01*
X20899496Y-35307309D01*
X20899498Y-35307311D01*
X20899500Y-35307314D01*
X20992686Y-35400500D01*
X20992688Y-35400501D01*
X20992690Y-35400503D01*
X21106810Y-35466390D01*
X21106808Y-35466390D01*
X21106812Y-35466391D01*
X21106814Y-35466392D01*
X21234108Y-35500500D01*
X21234110Y-35500500D01*
X21365890Y-35500500D01*
X21365892Y-35500500D01*
X21493186Y-35466392D01*
X21493188Y-35466390D01*
X21493190Y-35466390D01*
X21549104Y-35434108D01*
X24199500Y-35434108D01*
X24199500Y-35565892D01*
X24229579Y-35678151D01*
X24233609Y-35693190D01*
X24299496Y-35807309D01*
X24299498Y-35807311D01*
X24299500Y-35807314D01*
X24392686Y-35900500D01*
X24392688Y-35900501D01*
X24392690Y-35900503D01*
X24506810Y-35966390D01*
X24506808Y-35966390D01*
X24506812Y-35966391D01*
X24506814Y-35966392D01*
X24634108Y-36000500D01*
X24634110Y-36000500D01*
X24765890Y-36000500D01*
X24765892Y-36000500D01*
X24893186Y-35966392D01*
X24893188Y-35966390D01*
X24893190Y-35966390D01*
X25007309Y-35900503D01*
X25007309Y-35900502D01*
X25007314Y-35900500D01*
X25100500Y-35807314D01*
X25166392Y-35693186D01*
X25200500Y-35565892D01*
X25200500Y-35434108D01*
X25166392Y-35306814D01*
X25166390Y-35306811D01*
X25166390Y-35306809D01*
X25100503Y-35192690D01*
X25100501Y-35192688D01*
X25100500Y-35192686D01*
X25007314Y-35099500D01*
X25007311Y-35099498D01*
X25007309Y-35099496D01*
X24893189Y-35033609D01*
X24893191Y-35033609D01*
X24843799Y-35020375D01*
X24765892Y-34999500D01*
X24634108Y-34999500D01*
X24556200Y-35020375D01*
X24506809Y-35033609D01*
X24392690Y-35099496D01*
X24299496Y-35192690D01*
X24233609Y-35306809D01*
X24233608Y-35306814D01*
X24199500Y-35434108D01*
X21549104Y-35434108D01*
X21607309Y-35400503D01*
X21607309Y-35400502D01*
X21607314Y-35400500D01*
X21700500Y-35307314D01*
X21700792Y-35306809D01*
X21766390Y-35193190D01*
X21766390Y-35193188D01*
X21766392Y-35193186D01*
X21800500Y-35065892D01*
X21800500Y-34934108D01*
X21766392Y-34806814D01*
X21766390Y-34806811D01*
X21766390Y-34806809D01*
X21700503Y-34692690D01*
X21700501Y-34692688D01*
X21700500Y-34692686D01*
X21607314Y-34599500D01*
X21607311Y-34599498D01*
X21607309Y-34599496D01*
X21493189Y-34533609D01*
X21493191Y-34533609D01*
X21443799Y-34520375D01*
X21365892Y-34499500D01*
X21234108Y-34499500D01*
X21156200Y-34520375D01*
X21106809Y-34533609D01*
X20992690Y-34599496D01*
X20899496Y-34692690D01*
X20833609Y-34806809D01*
X20833608Y-34806814D01*
X20799500Y-34934108D01*
X19500500Y-34934108D01*
X19466392Y-34806814D01*
X19466390Y-34806811D01*
X19466390Y-34806809D01*
X19400503Y-34692690D01*
X19400501Y-34692688D01*
X19400500Y-34692686D01*
X19307314Y-34599500D01*
X19307311Y-34599498D01*
X19307309Y-34599496D01*
X19193189Y-34533609D01*
X19193191Y-34533609D01*
X19143799Y-34520375D01*
X19065892Y-34499500D01*
X18934108Y-34499500D01*
X18856200Y-34520375D01*
X18806809Y-34533609D01*
X18692690Y-34599496D01*
X18599496Y-34692690D01*
X18533609Y-34806809D01*
X18533608Y-34806814D01*
X18499500Y-34934108D01*
X16200500Y-34934108D01*
X16166392Y-34806814D01*
X16166390Y-34806811D01*
X16166390Y-34806809D01*
X16100503Y-34692690D01*
X16100501Y-34692688D01*
X16100500Y-34692686D01*
X16007314Y-34599500D01*
X16007311Y-34599498D01*
X16007309Y-34599496D01*
X15893189Y-34533609D01*
X15893191Y-34533609D01*
X15843799Y-34520375D01*
X15765892Y-34499500D01*
X15634108Y-34499500D01*
X15556200Y-34520375D01*
X15506809Y-34533609D01*
X15392690Y-34599496D01*
X15299496Y-34692690D01*
X15233609Y-34806809D01*
X15233608Y-34806814D01*
X15199500Y-34934108D01*
X4942766Y-34934108D01*
X4966388Y-34893193D01*
X4966388Y-34893192D01*
X4966392Y-34893186D01*
X5000500Y-34765892D01*
X5000500Y-34634108D01*
X4966392Y-34506814D01*
X4966390Y-34506811D01*
X4966390Y-34506809D01*
X4900503Y-34392690D01*
X4900501Y-34392688D01*
X4900500Y-34392686D01*
X4807314Y-34299500D01*
X4807311Y-34299498D01*
X4807309Y-34299496D01*
X4693189Y-34233609D01*
X4693191Y-34233609D01*
X4643799Y-34220375D01*
X4565892Y-34199500D01*
X4434108Y-34199500D01*
X4356200Y-34220375D01*
X4306809Y-34233609D01*
X4192690Y-34299496D01*
X4099496Y-34392690D01*
X4033609Y-34506809D01*
X4026428Y-34533609D01*
X3999500Y-34634108D01*
X500500Y-34634108D01*
X500500Y-33634108D01*
X22599500Y-33634108D01*
X22599500Y-33765892D01*
X22629579Y-33878151D01*
X22633609Y-33893190D01*
X22699496Y-34007309D01*
X22699498Y-34007311D01*
X22699500Y-34007314D01*
X22792686Y-34100500D01*
X22792688Y-34100501D01*
X22792690Y-34100503D01*
X22906810Y-34166390D01*
X22906808Y-34166390D01*
X22906812Y-34166391D01*
X22906814Y-34166392D01*
X23034108Y-34200500D01*
X23034110Y-34200500D01*
X23165890Y-34200500D01*
X23165892Y-34200500D01*
X23293186Y-34166392D01*
X23293188Y-34166390D01*
X23293190Y-34166390D01*
X23407309Y-34100503D01*
X23407309Y-34100502D01*
X23407314Y-34100500D01*
X23500500Y-34007314D01*
X23566392Y-33893186D01*
X23600500Y-33765892D01*
X23600500Y-33634108D01*
X23566392Y-33506814D01*
X23566390Y-33506811D01*
X23566390Y-33506809D01*
X23500503Y-33392690D01*
X23500501Y-33392688D01*
X23500500Y-33392686D01*
X23407314Y-33299500D01*
X23407311Y-33299498D01*
X23407309Y-33299496D01*
X23293189Y-33233609D01*
X23293191Y-33233609D01*
X23243799Y-33220375D01*
X23165892Y-33199500D01*
X23034108Y-33199500D01*
X22956200Y-33220375D01*
X22906809Y-33233609D01*
X22792690Y-33299496D01*
X22699496Y-33392690D01*
X22633609Y-33506809D01*
X22633608Y-33506814D01*
X22599500Y-33634108D01*
X500500Y-33634108D01*
X500500Y-32434108D01*
X48199500Y-32434108D01*
X48199500Y-32565892D01*
X48229579Y-32678151D01*
X48233609Y-32693190D01*
X48299496Y-32807309D01*
X48299498Y-32807311D01*
X48299500Y-32807314D01*
X48392686Y-32900500D01*
X48392688Y-32900501D01*
X48392690Y-32900503D01*
X48506810Y-32966390D01*
X48506808Y-32966390D01*
X48506812Y-32966391D01*
X48506814Y-32966392D01*
X48634108Y-33000500D01*
X48634110Y-33000500D01*
X48765890Y-33000500D01*
X48765892Y-33000500D01*
X48893186Y-32966392D01*
X48893188Y-32966390D01*
X48893190Y-32966390D01*
X49007309Y-32900503D01*
X49007309Y-32900502D01*
X49007314Y-32900500D01*
X49100500Y-32807314D01*
X49166392Y-32693186D01*
X49200500Y-32565892D01*
X49200500Y-32434108D01*
X49166392Y-32306814D01*
X49166390Y-32306811D01*
X49166390Y-32306809D01*
X49100503Y-32192690D01*
X49100501Y-32192688D01*
X49100500Y-32192686D01*
X49007314Y-32099500D01*
X49007311Y-32099498D01*
X49007309Y-32099496D01*
X48893189Y-32033609D01*
X48893191Y-32033609D01*
X48843799Y-32020375D01*
X48765892Y-31999500D01*
X48634108Y-31999500D01*
X48556200Y-32020375D01*
X48506809Y-32033609D01*
X48392690Y-32099496D01*
X48299496Y-32192690D01*
X48233609Y-32306809D01*
X48233608Y-32306814D01*
X48199500Y-32434108D01*
X500500Y-32434108D01*
X500500Y-29195725D01*
X4799500Y-29195725D01*
X4799500Y-30804274D01*
X4802353Y-30834694D01*
X4802355Y-30834703D01*
X4847207Y-30962883D01*
X4927845Y-31072144D01*
X4927847Y-31072146D01*
X4927850Y-31072150D01*
X4927853Y-31072152D01*
X4927855Y-31072154D01*
X5037116Y-31152792D01*
X5037117Y-31152792D01*
X5037118Y-31152793D01*
X5165301Y-31197646D01*
X5195725Y-31200499D01*
X5195727Y-31200500D01*
X5195734Y-31200500D01*
X6804273Y-31200500D01*
X6804273Y-31200499D01*
X6834699Y-31197646D01*
X6962882Y-31152793D01*
X7072150Y-31072150D01*
X7152793Y-30962882D01*
X7197646Y-30834699D01*
X7197701Y-30834108D01*
X17399500Y-30834108D01*
X17399500Y-30965892D01*
X17427973Y-31072154D01*
X17433609Y-31093190D01*
X17499496Y-31207309D01*
X17499498Y-31207311D01*
X17499500Y-31207314D01*
X17592686Y-31300500D01*
X17592688Y-31300501D01*
X17592690Y-31300503D01*
X17706810Y-31366390D01*
X17706808Y-31366390D01*
X17706812Y-31366391D01*
X17706814Y-31366392D01*
X17834108Y-31400500D01*
X17834110Y-31400500D01*
X17965890Y-31400500D01*
X17965892Y-31400500D01*
X18093186Y-31366392D01*
X18093188Y-31366390D01*
X18093190Y-31366390D01*
X18149104Y-31334108D01*
X43999500Y-31334108D01*
X43999500Y-31465892D01*
X44029579Y-31578151D01*
X44033609Y-31593190D01*
X44099496Y-31707309D01*
X44099498Y-31707311D01*
X44099500Y-31707314D01*
X44192686Y-31800500D01*
X44192688Y-31800501D01*
X44192690Y-31800503D01*
X44306810Y-31866390D01*
X44306808Y-31866390D01*
X44306812Y-31866391D01*
X44306814Y-31866392D01*
X44434108Y-31900500D01*
X44434110Y-31900500D01*
X44565890Y-31900500D01*
X44565892Y-31900500D01*
X44693186Y-31866392D01*
X44693188Y-31866390D01*
X44693190Y-31866390D01*
X44807309Y-31800503D01*
X44807309Y-31800502D01*
X44807314Y-31800500D01*
X44900500Y-31707314D01*
X44966392Y-31593186D01*
X45000500Y-31465892D01*
X45000500Y-31334108D01*
X44966392Y-31206814D01*
X44966390Y-31206811D01*
X44966390Y-31206809D01*
X44900503Y-31092690D01*
X44900501Y-31092688D01*
X44900500Y-31092686D01*
X44807314Y-30999500D01*
X44807311Y-30999498D01*
X44807309Y-30999496D01*
X44693189Y-30933609D01*
X44693191Y-30933609D01*
X44643799Y-30920375D01*
X44565892Y-30899500D01*
X44434108Y-30899500D01*
X44356200Y-30920375D01*
X44306809Y-30933609D01*
X44192690Y-30999496D01*
X44099496Y-31092690D01*
X44033609Y-31206809D01*
X44033608Y-31206814D01*
X43999500Y-31334108D01*
X18149104Y-31334108D01*
X18207309Y-31300503D01*
X18207309Y-31300502D01*
X18207314Y-31300500D01*
X18300500Y-31207314D01*
X18331978Y-31152793D01*
X18366390Y-31093190D01*
X18366390Y-31093188D01*
X18366392Y-31093186D01*
X18400500Y-30965892D01*
X18400500Y-30834108D01*
X18366392Y-30706814D01*
X18366390Y-30706811D01*
X18366390Y-30706809D01*
X18300503Y-30592690D01*
X18300501Y-30592688D01*
X18300500Y-30592686D01*
X18207314Y-30499500D01*
X18207311Y-30499498D01*
X18207309Y-30499496D01*
X18093189Y-30433609D01*
X18093191Y-30433609D01*
X18043799Y-30420375D01*
X17965892Y-30399500D01*
X17834108Y-30399500D01*
X17756200Y-30420375D01*
X17706809Y-30433609D01*
X17592690Y-30499496D01*
X17499496Y-30592690D01*
X17433609Y-30706809D01*
X17433608Y-30706814D01*
X17399500Y-30834108D01*
X7197701Y-30834108D01*
X7198291Y-30827811D01*
X7199177Y-30818379D01*
X7199177Y-30818377D01*
X7200500Y-30804266D01*
X7200500Y-29195727D01*
X7200499Y-29195725D01*
X7197646Y-29165305D01*
X7197646Y-29165301D01*
X7186731Y-29134108D01*
X17799500Y-29134108D01*
X17799500Y-29265892D01*
X17817109Y-29331609D01*
X17833609Y-29393190D01*
X17899496Y-29507309D01*
X17899498Y-29507311D01*
X17899500Y-29507314D01*
X17992686Y-29600500D01*
X17992688Y-29600501D01*
X17992690Y-29600503D01*
X18106810Y-29666390D01*
X18106808Y-29666390D01*
X18106812Y-29666391D01*
X18106814Y-29666392D01*
X18234108Y-29700500D01*
X18234110Y-29700500D01*
X18365890Y-29700500D01*
X18365892Y-29700500D01*
X18493186Y-29666392D01*
X18493188Y-29666390D01*
X18493190Y-29666390D01*
X18607309Y-29600503D01*
X18607309Y-29600502D01*
X18607314Y-29600500D01*
X18700500Y-29507314D01*
X18766392Y-29393186D01*
X18800500Y-29265892D01*
X18800500Y-29134108D01*
X18766392Y-29006814D01*
X18766390Y-29006811D01*
X18766390Y-29006809D01*
X18700503Y-28892690D01*
X18700501Y-28892688D01*
X18700500Y-28892686D01*
X18607314Y-28799500D01*
X18607311Y-28799498D01*
X18607309Y-28799496D01*
X18493189Y-28733609D01*
X18493191Y-28733609D01*
X18443799Y-28720375D01*
X18365892Y-28699500D01*
X18234108Y-28699500D01*
X18156200Y-28720375D01*
X18106809Y-28733609D01*
X17992690Y-28799496D01*
X17899496Y-28892690D01*
X17833609Y-29006809D01*
X17825488Y-29037118D01*
X17799500Y-29134108D01*
X7186731Y-29134108D01*
X7152793Y-29037118D01*
X7152791Y-29037116D01*
X7152791Y-29037114D01*
X7072154Y-28927855D01*
X7072152Y-28927853D01*
X7072150Y-28927850D01*
X7072146Y-28927847D01*
X7072144Y-28927845D01*
X6962883Y-28847207D01*
X6834703Y-28802355D01*
X6834694Y-28802353D01*
X6804274Y-28799500D01*
X6804266Y-28799500D01*
X5195734Y-28799500D01*
X5195725Y-28799500D01*
X5165305Y-28802353D01*
X5165296Y-28802355D01*
X5037116Y-28847207D01*
X4927855Y-28927845D01*
X4927845Y-28927855D01*
X4847207Y-29037116D01*
X4802355Y-29165296D01*
X4802353Y-29165305D01*
X4799500Y-29195725D01*
X500500Y-29195725D01*
X500500Y-28547644D01*
X23249500Y-28547644D01*
X23249500Y-28752355D01*
X23281521Y-28954529D01*
X23344780Y-29149219D01*
X23437712Y-29331609D01*
X23437714Y-29331613D01*
X23558029Y-29497213D01*
X23558031Y-29497215D01*
X23558034Y-29497219D01*
X23702781Y-29641966D01*
X23702784Y-29641968D01*
X23702786Y-29641970D01*
X23868386Y-29762285D01*
X23868390Y-29762287D01*
X24050781Y-29855220D01*
X24245466Y-29918477D01*
X24245467Y-29918477D01*
X24245470Y-29918478D01*
X24447645Y-29950500D01*
X24447648Y-29950500D01*
X24652355Y-29950500D01*
X24854529Y-29918478D01*
X24854530Y-29918477D01*
X24854534Y-29918477D01*
X25049219Y-29855220D01*
X25231610Y-29762287D01*
X25397219Y-29641966D01*
X25541966Y-29497219D01*
X25662287Y-29331610D01*
X25755220Y-29149219D01*
X25760130Y-29134108D01*
X43999500Y-29134108D01*
X43999500Y-29265892D01*
X44017109Y-29331609D01*
X44033609Y-29393190D01*
X44099496Y-29507309D01*
X44099498Y-29507311D01*
X44099500Y-29507314D01*
X44192686Y-29600500D01*
X44192688Y-29600501D01*
X44192690Y-29600503D01*
X44306810Y-29666390D01*
X44306808Y-29666390D01*
X44306812Y-29666391D01*
X44306814Y-29666392D01*
X44434108Y-29700500D01*
X44434110Y-29700500D01*
X44565890Y-29700500D01*
X44565892Y-29700500D01*
X44693186Y-29666392D01*
X44693188Y-29666390D01*
X44693190Y-29666390D01*
X44807309Y-29600503D01*
X44807309Y-29600502D01*
X44807314Y-29600500D01*
X44900500Y-29507314D01*
X44966392Y-29393186D01*
X45000500Y-29265892D01*
X45000500Y-29134108D01*
X44966392Y-29006814D01*
X44966390Y-29006811D01*
X44966390Y-29006809D01*
X44900503Y-28892690D01*
X44900501Y-28892688D01*
X44900500Y-28892686D01*
X44807314Y-28799500D01*
X44807311Y-28799498D01*
X44807309Y-28799496D01*
X44693189Y-28733609D01*
X44693191Y-28733609D01*
X44643799Y-28720375D01*
X44565892Y-28699500D01*
X44434108Y-28699500D01*
X44356200Y-28720375D01*
X44306809Y-28733609D01*
X44192690Y-28799496D01*
X44099496Y-28892690D01*
X44033609Y-29006809D01*
X44025488Y-29037118D01*
X43999500Y-29134108D01*
X25760130Y-29134108D01*
X25818477Y-28954534D01*
X25822703Y-28927855D01*
X25850500Y-28752355D01*
X25850500Y-28547644D01*
X25818478Y-28345470D01*
X25818477Y-28345466D01*
X25755220Y-28150781D01*
X25662287Y-27968390D01*
X25662285Y-27968386D01*
X25541970Y-27802786D01*
X25541968Y-27802784D01*
X25541966Y-27802781D01*
X25397219Y-27658034D01*
X25397215Y-27658031D01*
X25397213Y-27658029D01*
X25231613Y-27537714D01*
X25231609Y-27537712D01*
X25049219Y-27444780D01*
X24854529Y-27381521D01*
X24652355Y-27349500D01*
X24652352Y-27349500D01*
X24447648Y-27349500D01*
X24447645Y-27349500D01*
X24245470Y-27381521D01*
X24050780Y-27444780D01*
X23868390Y-27537712D01*
X23868386Y-27537714D01*
X23702786Y-27658029D01*
X23558029Y-27802786D01*
X23437714Y-27968386D01*
X23437712Y-27968390D01*
X23344780Y-28150780D01*
X23281521Y-28345470D01*
X23249500Y-28547644D01*
X500500Y-28547644D01*
X500500Y-24905515D01*
X4799500Y-24905515D01*
X4799500Y-25094484D01*
X4829058Y-25281113D01*
X4829060Y-25281118D01*
X4887453Y-25460832D01*
X4973240Y-25629199D01*
X5084310Y-25782073D01*
X5217927Y-25915690D01*
X5370801Y-26026760D01*
X5539168Y-26112547D01*
X5718882Y-26170940D01*
X5718883Y-26170940D01*
X5718886Y-26170941D01*
X5905516Y-26200500D01*
X5905519Y-26200500D01*
X6094484Y-26200500D01*
X6281113Y-26170941D01*
X6281114Y-26170940D01*
X6281118Y-26170940D01*
X6460832Y-26112547D01*
X6629199Y-26026760D01*
X6782073Y-25915690D01*
X6915690Y-25782073D01*
X7026760Y-25629199D01*
X7112547Y-25460832D01*
X7170940Y-25281118D01*
X7200500Y-25094481D01*
X7200500Y-24905519D01*
X7200500Y-24905515D01*
X7170941Y-24718886D01*
X7164967Y-24700500D01*
X7112547Y-24539168D01*
X7026760Y-24370801D01*
X6915690Y-24217927D01*
X6782073Y-24084310D01*
X6629199Y-23973240D01*
X6629198Y-23973239D01*
X6629196Y-23973238D01*
X6516523Y-23915829D01*
X6499811Y-23907314D01*
X6460832Y-23887453D01*
X6296655Y-23834108D01*
X14499500Y-23834108D01*
X14499500Y-23965892D01*
X14501469Y-23973240D01*
X14533609Y-24093190D01*
X14599496Y-24207309D01*
X14599498Y-24207311D01*
X14599500Y-24207314D01*
X14692686Y-24300500D01*
X14692688Y-24300501D01*
X14692690Y-24300503D01*
X14806810Y-24366390D01*
X14806808Y-24366390D01*
X14806812Y-24366391D01*
X14806814Y-24366392D01*
X14934108Y-24400500D01*
X14934110Y-24400500D01*
X15065890Y-24400500D01*
X15065892Y-24400500D01*
X15193186Y-24366392D01*
X15193188Y-24366390D01*
X15193190Y-24366390D01*
X15307309Y-24300503D01*
X15307309Y-24300502D01*
X15307314Y-24300500D01*
X15400500Y-24207314D01*
X15400503Y-24207309D01*
X15442766Y-24134108D01*
X22899500Y-24134108D01*
X22899500Y-24265892D01*
X22908773Y-24300500D01*
X22933609Y-24393190D01*
X22999496Y-24507309D01*
X22999498Y-24507311D01*
X22999500Y-24507314D01*
X23092686Y-24600500D01*
X23092688Y-24600501D01*
X23092690Y-24600503D01*
X23206810Y-24666390D01*
X23206808Y-24666390D01*
X23206812Y-24666391D01*
X23206814Y-24666392D01*
X23334108Y-24700500D01*
X23334110Y-24700500D01*
X23465890Y-24700500D01*
X23465892Y-24700500D01*
X23593186Y-24666392D01*
X23593188Y-24666390D01*
X23593190Y-24666390D01*
X23707309Y-24600503D01*
X23707309Y-24600502D01*
X23707314Y-24600500D01*
X23773706Y-24534108D01*
X32299500Y-24534108D01*
X32299500Y-24665892D01*
X32313700Y-24718886D01*
X32333609Y-24793190D01*
X32399496Y-24907309D01*
X32399498Y-24907311D01*
X32399500Y-24907314D01*
X32492686Y-25000500D01*
X32492688Y-25000501D01*
X32492690Y-25000503D01*
X32606810Y-25066390D01*
X32606808Y-25066390D01*
X32606812Y-25066391D01*
X32606814Y-25066392D01*
X32734108Y-25100500D01*
X32734110Y-25100500D01*
X32865890Y-25100500D01*
X32865892Y-25100500D01*
X32993186Y-25066392D01*
X32993188Y-25066390D01*
X32993190Y-25066390D01*
X33107309Y-25000503D01*
X33107309Y-25000502D01*
X33107314Y-25000500D01*
X33200500Y-24907314D01*
X33266392Y-24793186D01*
X33300500Y-24665892D01*
X33300500Y-24534108D01*
X33266392Y-24406814D01*
X33266390Y-24406811D01*
X33266390Y-24406809D01*
X33200503Y-24292690D01*
X33200501Y-24292688D01*
X33200500Y-24292686D01*
X33107314Y-24199500D01*
X33107311Y-24199498D01*
X33107309Y-24199496D01*
X32993189Y-24133609D01*
X32993191Y-24133609D01*
X32943799Y-24120375D01*
X32865892Y-24099500D01*
X32734108Y-24099500D01*
X32656200Y-24120375D01*
X32606809Y-24133609D01*
X32492690Y-24199496D01*
X32399496Y-24292690D01*
X32333609Y-24406809D01*
X32333608Y-24406814D01*
X32299500Y-24534108D01*
X23773706Y-24534108D01*
X23800500Y-24507314D01*
X23809504Y-24491717D01*
X23817357Y-24478118D01*
X23858524Y-24406814D01*
X23866392Y-24393186D01*
X23900500Y-24265892D01*
X23900500Y-24134108D01*
X23866392Y-24006814D01*
X23866390Y-24006811D01*
X23866390Y-24006809D01*
X23800503Y-23892690D01*
X23800501Y-23892688D01*
X23800500Y-23892686D01*
X23707314Y-23799500D01*
X23707311Y-23799498D01*
X23707309Y-23799496D01*
X23593189Y-23733609D01*
X23593191Y-23733609D01*
X23543799Y-23720375D01*
X23465892Y-23699500D01*
X23334108Y-23699500D01*
X23256200Y-23720375D01*
X23206809Y-23733609D01*
X23092690Y-23799496D01*
X22999496Y-23892690D01*
X22933609Y-24006809D01*
X22933608Y-24006814D01*
X22899500Y-24134108D01*
X15442766Y-24134108D01*
X15466390Y-24093190D01*
X15466390Y-24093188D01*
X15466392Y-24093186D01*
X15500500Y-23965892D01*
X15500500Y-23834108D01*
X15466392Y-23706814D01*
X15466390Y-23706811D01*
X15466390Y-23706809D01*
X15400503Y-23592690D01*
X15400501Y-23592688D01*
X15400500Y-23592686D01*
X15341922Y-23534108D01*
X18499500Y-23534108D01*
X18499500Y-23665892D01*
X18516093Y-23727817D01*
X18533609Y-23793190D01*
X18599496Y-23907309D01*
X18599498Y-23907311D01*
X18599500Y-23907314D01*
X18692686Y-24000500D01*
X18692688Y-24000501D01*
X18692690Y-24000503D01*
X18806810Y-24066390D01*
X18806808Y-24066390D01*
X18806812Y-24066391D01*
X18806814Y-24066392D01*
X18934108Y-24100500D01*
X18934110Y-24100500D01*
X19065890Y-24100500D01*
X19065892Y-24100500D01*
X19193186Y-24066392D01*
X19193188Y-24066390D01*
X19193190Y-24066390D01*
X19235638Y-24041883D01*
X19307309Y-24000503D01*
X19307309Y-24000502D01*
X19307314Y-24000500D01*
X19400500Y-23907314D01*
X19411967Y-23887453D01*
X19466390Y-23793190D01*
X19466390Y-23793188D01*
X19466392Y-23793186D01*
X19500500Y-23665892D01*
X19500500Y-23534108D01*
X19466392Y-23406814D01*
X19424415Y-23334108D01*
X28399500Y-23334108D01*
X28399500Y-23465892D01*
X28410598Y-23507309D01*
X28433609Y-23593190D01*
X28499496Y-23707309D01*
X28499498Y-23707311D01*
X28499500Y-23707314D01*
X28592686Y-23800500D01*
X28592688Y-23800501D01*
X28592690Y-23800503D01*
X28706810Y-23866390D01*
X28706808Y-23866390D01*
X28706812Y-23866391D01*
X28706814Y-23866392D01*
X28834108Y-23900500D01*
X28834110Y-23900500D01*
X28965890Y-23900500D01*
X28965892Y-23900500D01*
X29093186Y-23866392D01*
X29093188Y-23866390D01*
X29093190Y-23866390D01*
X29207309Y-23800503D01*
X29207309Y-23800502D01*
X29207314Y-23800500D01*
X29279998Y-23727815D01*
X29334513Y-23700040D01*
X29394945Y-23709611D01*
X29420000Y-23727814D01*
X29492686Y-23800500D01*
X29492688Y-23800501D01*
X29492690Y-23800503D01*
X29606810Y-23866390D01*
X29606808Y-23866390D01*
X29606812Y-23866391D01*
X29606814Y-23866392D01*
X29734108Y-23900500D01*
X29734110Y-23900500D01*
X29865890Y-23900500D01*
X29865892Y-23900500D01*
X29993186Y-23866392D01*
X29993188Y-23866390D01*
X29993190Y-23866390D01*
X30107309Y-23800503D01*
X30107309Y-23800502D01*
X30107314Y-23800500D01*
X30200500Y-23707314D01*
X30204700Y-23700040D01*
X30266390Y-23593190D01*
X30266390Y-23593188D01*
X30266392Y-23593186D01*
X30300500Y-23465892D01*
X30300500Y-23334108D01*
X30266392Y-23206814D01*
X30224415Y-23134108D01*
X32299500Y-23134108D01*
X32299500Y-23265892D01*
X32317778Y-23334108D01*
X32333609Y-23393190D01*
X32399496Y-23507309D01*
X32399498Y-23507311D01*
X32399500Y-23507314D01*
X32492686Y-23600500D01*
X32492688Y-23600501D01*
X32492690Y-23600503D01*
X32606810Y-23666390D01*
X32606808Y-23666390D01*
X32606812Y-23666391D01*
X32606814Y-23666392D01*
X32734108Y-23700500D01*
X32734110Y-23700500D01*
X32865890Y-23700500D01*
X32865892Y-23700500D01*
X32993186Y-23666392D01*
X32993188Y-23666390D01*
X32993190Y-23666390D01*
X33107309Y-23600503D01*
X33107309Y-23600502D01*
X33107314Y-23600500D01*
X33200500Y-23507314D01*
X33200503Y-23507309D01*
X33266390Y-23393190D01*
X33266390Y-23393188D01*
X33266392Y-23393186D01*
X33300500Y-23265892D01*
X33300500Y-23134108D01*
X33266392Y-23006814D01*
X33266390Y-23006811D01*
X33266390Y-23006809D01*
X33200503Y-22892690D01*
X33200501Y-22892688D01*
X33200500Y-22892686D01*
X33107314Y-22799500D01*
X33107311Y-22799498D01*
X33107309Y-22799496D01*
X32993189Y-22733609D01*
X32993191Y-22733609D01*
X32943799Y-22720375D01*
X32865892Y-22699500D01*
X32734108Y-22699500D01*
X32656200Y-22720375D01*
X32606809Y-22733609D01*
X32492690Y-22799496D01*
X32399496Y-22892690D01*
X32333609Y-23006809D01*
X32333608Y-23006814D01*
X32299500Y-23134108D01*
X30224415Y-23134108D01*
X30200500Y-23092686D01*
X30107314Y-22999500D01*
X30107311Y-22999498D01*
X30107309Y-22999496D01*
X29993189Y-22933609D01*
X29993191Y-22933609D01*
X29943799Y-22920375D01*
X29865892Y-22899500D01*
X29734108Y-22899500D01*
X29656200Y-22920375D01*
X29606809Y-22933609D01*
X29492690Y-22999496D01*
X29492689Y-22999497D01*
X29492686Y-22999499D01*
X29492686Y-22999500D01*
X29420001Y-23072184D01*
X29365487Y-23099960D01*
X29305055Y-23090389D01*
X29279999Y-23072185D01*
X29207314Y-22999500D01*
X29207311Y-22999498D01*
X29207309Y-22999496D01*
X29093189Y-22933609D01*
X29093191Y-22933609D01*
X29043799Y-22920375D01*
X28965892Y-22899500D01*
X28834108Y-22899500D01*
X28756200Y-22920375D01*
X28706809Y-22933609D01*
X28592690Y-22999496D01*
X28499496Y-23092690D01*
X28433609Y-23206809D01*
X28433608Y-23206814D01*
X28399500Y-23334108D01*
X19424415Y-23334108D01*
X19400500Y-23292686D01*
X19307314Y-23199500D01*
X19307311Y-23199498D01*
X19307309Y-23199496D01*
X19193189Y-23133609D01*
X19193191Y-23133609D01*
X19143799Y-23120375D01*
X19065892Y-23099500D01*
X18934108Y-23099500D01*
X18856200Y-23120375D01*
X18806809Y-23133609D01*
X18692690Y-23199496D01*
X18599496Y-23292690D01*
X18533609Y-23406809D01*
X18526428Y-23433609D01*
X18499500Y-23534108D01*
X15341922Y-23534108D01*
X15307314Y-23499500D01*
X15307311Y-23499498D01*
X15307309Y-23499496D01*
X15193189Y-23433609D01*
X15193191Y-23433609D01*
X15143799Y-23420375D01*
X15065892Y-23399500D01*
X14934108Y-23399500D01*
X14856200Y-23420375D01*
X14806809Y-23433609D01*
X14692690Y-23499496D01*
X14599496Y-23592690D01*
X14533609Y-23706809D01*
X14526428Y-23733609D01*
X14499500Y-23834108D01*
X6296655Y-23834108D01*
X6281113Y-23829058D01*
X6094484Y-23799500D01*
X6094481Y-23799500D01*
X5905519Y-23799500D01*
X5905516Y-23799500D01*
X5718886Y-23829058D01*
X5539167Y-23887453D01*
X5370803Y-23973238D01*
X5217928Y-24084309D01*
X5084309Y-24217928D01*
X4973238Y-24370803D01*
X4887453Y-24539167D01*
X4829058Y-24718886D01*
X4799500Y-24905515D01*
X500500Y-24905515D01*
X500500Y-21834108D01*
X24299500Y-21834108D01*
X24299500Y-21965892D01*
X24329579Y-22078151D01*
X24333609Y-22093190D01*
X24399496Y-22207309D01*
X24399498Y-22207311D01*
X24399500Y-22207314D01*
X24492686Y-22300500D01*
X24492688Y-22300501D01*
X24492690Y-22300503D01*
X24606810Y-22366390D01*
X24606808Y-22366390D01*
X24606812Y-22366391D01*
X24606814Y-22366392D01*
X24734108Y-22400500D01*
X24734110Y-22400500D01*
X24865890Y-22400500D01*
X24865892Y-22400500D01*
X24993186Y-22366392D01*
X24993188Y-22366390D01*
X24993190Y-22366390D01*
X25107309Y-22300503D01*
X25107309Y-22300502D01*
X25107314Y-22300500D01*
X25200500Y-22207314D01*
X25266392Y-22093186D01*
X25300500Y-21965892D01*
X25300500Y-21834108D01*
X25266392Y-21706814D01*
X25266390Y-21706811D01*
X25266390Y-21706809D01*
X25200503Y-21592690D01*
X25200501Y-21592688D01*
X25200500Y-21592686D01*
X25107314Y-21499500D01*
X25107311Y-21499498D01*
X25107309Y-21499496D01*
X24993189Y-21433609D01*
X24993191Y-21433609D01*
X24943799Y-21420375D01*
X24865892Y-21399500D01*
X24734108Y-21399500D01*
X24656200Y-21420375D01*
X24606809Y-21433609D01*
X24492690Y-21499496D01*
X24399496Y-21592690D01*
X24333609Y-21706809D01*
X24333608Y-21706814D01*
X24299500Y-21834108D01*
X500500Y-21834108D01*
X500500Y-18934108D01*
X3899500Y-18934108D01*
X3899500Y-19065892D01*
X3929579Y-19178151D01*
X3933609Y-19193190D01*
X3999496Y-19307309D01*
X3999498Y-19307311D01*
X3999500Y-19307314D01*
X4092686Y-19400500D01*
X4092688Y-19400501D01*
X4092690Y-19400503D01*
X4206810Y-19466390D01*
X4206808Y-19466390D01*
X4206812Y-19466391D01*
X4206814Y-19466392D01*
X4334108Y-19500500D01*
X4334110Y-19500500D01*
X4465890Y-19500500D01*
X4465892Y-19500500D01*
X4593186Y-19466392D01*
X4593188Y-19466390D01*
X4593190Y-19466390D01*
X4707309Y-19400503D01*
X4707309Y-19400502D01*
X4707314Y-19400500D01*
X4800500Y-19307314D01*
X4866392Y-19193186D01*
X4900500Y-19065892D01*
X4900500Y-18934108D01*
X4866392Y-18806814D01*
X4866390Y-18806811D01*
X4866390Y-18806809D01*
X4800503Y-18692690D01*
X4800501Y-18692688D01*
X4800500Y-18692686D01*
X4707314Y-18599500D01*
X4707311Y-18599498D01*
X4707309Y-18599496D01*
X4593189Y-18533609D01*
X4593191Y-18533609D01*
X4578722Y-18529732D01*
X4465892Y-18499500D01*
X4334108Y-18499500D01*
X4256200Y-18520375D01*
X4206809Y-18533609D01*
X4092690Y-18599496D01*
X3999496Y-18692690D01*
X3933609Y-18806809D01*
X3933608Y-18806814D01*
X3899500Y-18934108D01*
X500500Y-18934108D01*
X500500Y-18434108D01*
X22599500Y-18434108D01*
X22599500Y-18565892D01*
X22629579Y-18678151D01*
X22633609Y-18693190D01*
X22699496Y-18807309D01*
X22699498Y-18807311D01*
X22699500Y-18807314D01*
X22792686Y-18900500D01*
X22792688Y-18900501D01*
X22792690Y-18900503D01*
X22906810Y-18966390D01*
X22906808Y-18966390D01*
X22906812Y-18966391D01*
X22906814Y-18966392D01*
X23034108Y-19000500D01*
X23034110Y-19000500D01*
X23165890Y-19000500D01*
X23165892Y-19000500D01*
X23293186Y-18966392D01*
X23293188Y-18966390D01*
X23293190Y-18966390D01*
X23407309Y-18900503D01*
X23407309Y-18900502D01*
X23407314Y-18900500D01*
X23500500Y-18807314D01*
X23566392Y-18693186D01*
X23600500Y-18565892D01*
X23600500Y-18434108D01*
X23566392Y-18306814D01*
X23566390Y-18306811D01*
X23566390Y-18306809D01*
X23500503Y-18192690D01*
X23500501Y-18192688D01*
X23500500Y-18192686D01*
X23407314Y-18099500D01*
X23407311Y-18099498D01*
X23407309Y-18099496D01*
X23293189Y-18033609D01*
X23293191Y-18033609D01*
X23243799Y-18020375D01*
X23165892Y-17999500D01*
X23034108Y-17999500D01*
X22956200Y-18020375D01*
X22906809Y-18033609D01*
X22792690Y-18099496D01*
X22699496Y-18192690D01*
X22633609Y-18306809D01*
X22633608Y-18306814D01*
X22599500Y-18434108D01*
X500500Y-18434108D01*
X500500Y-16934108D01*
X5099500Y-16934108D01*
X5099500Y-17065892D01*
X5129579Y-17178151D01*
X5133609Y-17193190D01*
X5199496Y-17307309D01*
X5199498Y-17307311D01*
X5199500Y-17307314D01*
X5292686Y-17400500D01*
X5292688Y-17400501D01*
X5292690Y-17400503D01*
X5406810Y-17466390D01*
X5406808Y-17466390D01*
X5406812Y-17466391D01*
X5406814Y-17466392D01*
X5534108Y-17500500D01*
X5534110Y-17500500D01*
X5665890Y-17500500D01*
X5665892Y-17500500D01*
X5793186Y-17466392D01*
X5793188Y-17466390D01*
X5793190Y-17466390D01*
X5907309Y-17400503D01*
X5907309Y-17400502D01*
X5907314Y-17400500D01*
X6000500Y-17307314D01*
X6066392Y-17193186D01*
X6100500Y-17065892D01*
X6100500Y-16934108D01*
X6066392Y-16806814D01*
X6066390Y-16806811D01*
X6066390Y-16806809D01*
X6000503Y-16692690D01*
X6000501Y-16692688D01*
X6000500Y-16692686D01*
X5907314Y-16599500D01*
X5907311Y-16599498D01*
X5907309Y-16599496D01*
X5793189Y-16533609D01*
X5793191Y-16533609D01*
X5743799Y-16520375D01*
X5665892Y-16499500D01*
X5534108Y-16499500D01*
X5456200Y-16520375D01*
X5406809Y-16533609D01*
X5292690Y-16599496D01*
X5199496Y-16692690D01*
X5133609Y-16806809D01*
X5133608Y-16806814D01*
X5099500Y-16934108D01*
X500500Y-16934108D01*
X500500Y-14034108D01*
X8599500Y-14034108D01*
X8599500Y-14165892D01*
X8608773Y-14200500D01*
X8633609Y-14293190D01*
X8699496Y-14407309D01*
X8699498Y-14407311D01*
X8699500Y-14407314D01*
X8792686Y-14500500D01*
X8792688Y-14500501D01*
X8792690Y-14500503D01*
X8906810Y-14566390D01*
X8906808Y-14566390D01*
X8906812Y-14566391D01*
X8906814Y-14566392D01*
X9034108Y-14600500D01*
X9034110Y-14600500D01*
X9165890Y-14600500D01*
X9165892Y-14600500D01*
X9293186Y-14566392D01*
X9293188Y-14566390D01*
X9293190Y-14566390D01*
X9407309Y-14500503D01*
X9407309Y-14500502D01*
X9407314Y-14500500D01*
X9500500Y-14407314D01*
X9500503Y-14407309D01*
X9566390Y-14293190D01*
X9566390Y-14293188D01*
X9566392Y-14293186D01*
X9600500Y-14165892D01*
X9600500Y-14034108D01*
X9566392Y-13906814D01*
X9566390Y-13906811D01*
X9566390Y-13906809D01*
X9500503Y-13792690D01*
X9500501Y-13792688D01*
X9500500Y-13792686D01*
X9407314Y-13699500D01*
X9407311Y-13699498D01*
X9407309Y-13699496D01*
X9293189Y-13633609D01*
X9293191Y-13633609D01*
X9243799Y-13620375D01*
X9165892Y-13599500D01*
X9034108Y-13599500D01*
X8956200Y-13620375D01*
X8906809Y-13633609D01*
X8792690Y-13699496D01*
X8699496Y-13792690D01*
X8633609Y-13906809D01*
X8633608Y-13906814D01*
X8599500Y-14034108D01*
X500500Y-14034108D01*
X500500Y-13434108D01*
X6199500Y-13434108D01*
X6199500Y-13565892D01*
X6210464Y-13606809D01*
X6233609Y-13693190D01*
X6299496Y-13807309D01*
X6299498Y-13807311D01*
X6299500Y-13807314D01*
X6392686Y-13900500D01*
X6392688Y-13900501D01*
X6392690Y-13900503D01*
X6506810Y-13966390D01*
X6506808Y-13966390D01*
X6506812Y-13966391D01*
X6506814Y-13966392D01*
X6634108Y-14000500D01*
X6634110Y-14000500D01*
X6765890Y-14000500D01*
X6765892Y-14000500D01*
X6893186Y-13966392D01*
X6893188Y-13966390D01*
X6893190Y-13966390D01*
X6935638Y-13941883D01*
X7007309Y-13900503D01*
X7007309Y-13900502D01*
X7007314Y-13900500D01*
X7100500Y-13807314D01*
X7108946Y-13792686D01*
X7166390Y-13693190D01*
X7166390Y-13693188D01*
X7166392Y-13693186D01*
X7200500Y-13565892D01*
X7200500Y-13434108D01*
X7166392Y-13306814D01*
X7166390Y-13306811D01*
X7166390Y-13306809D01*
X7100503Y-13192690D01*
X7100501Y-13192688D01*
X7100500Y-13192686D01*
X7007314Y-13099500D01*
X7007311Y-13099498D01*
X7007309Y-13099496D01*
X6893189Y-13033609D01*
X6893191Y-13033609D01*
X6843799Y-13020375D01*
X6765892Y-12999500D01*
X6634108Y-12999500D01*
X6556200Y-13020375D01*
X6506809Y-13033609D01*
X6392690Y-13099496D01*
X6299496Y-13192690D01*
X6233609Y-13306809D01*
X6226428Y-13333609D01*
X6199500Y-13434108D01*
X500500Y-13434108D01*
X500500Y-12334108D01*
X5099500Y-12334108D01*
X5099500Y-12465892D01*
X5108773Y-12500500D01*
X5133609Y-12593190D01*
X5199496Y-12707309D01*
X5199498Y-12707311D01*
X5199500Y-12707314D01*
X5292686Y-12800500D01*
X5292688Y-12800501D01*
X5292690Y-12800503D01*
X5406810Y-12866390D01*
X5406808Y-12866390D01*
X5406812Y-12866391D01*
X5406814Y-12866392D01*
X5534108Y-12900500D01*
X5534110Y-12900500D01*
X5665890Y-12900500D01*
X5665892Y-12900500D01*
X5793186Y-12866392D01*
X5793188Y-12866390D01*
X5793190Y-12866390D01*
X5907309Y-12800503D01*
X5907309Y-12800502D01*
X5907314Y-12800500D01*
X6000500Y-12707314D01*
X6004434Y-12700500D01*
X6066390Y-12593190D01*
X6066390Y-12593188D01*
X6066392Y-12593186D01*
X6100500Y-12465892D01*
X6100500Y-12334108D01*
X6066392Y-12206814D01*
X6066390Y-12206811D01*
X6066390Y-12206809D01*
X6000503Y-12092690D01*
X6000501Y-12092688D01*
X6000500Y-12092686D01*
X5907314Y-11999500D01*
X5907311Y-11999498D01*
X5907309Y-11999496D01*
X5793189Y-11933609D01*
X5793191Y-11933609D01*
X5743799Y-11920375D01*
X5665892Y-11899500D01*
X5534108Y-11899500D01*
X5456200Y-11920375D01*
X5406809Y-11933609D01*
X5292690Y-11999496D01*
X5199496Y-12092690D01*
X5133609Y-12206809D01*
X5133608Y-12206814D01*
X5099500Y-12334108D01*
X500500Y-12334108D01*
X500500Y-11584108D01*
X12359500Y-11584108D01*
X12359500Y-11715892D01*
X12382171Y-11800503D01*
X12393609Y-11843190D01*
X12459496Y-11957309D01*
X12459498Y-11957311D01*
X12459500Y-11957314D01*
X12552686Y-12050500D01*
X12552688Y-12050501D01*
X12552690Y-12050503D01*
X12663126Y-12114264D01*
X12704067Y-12159733D01*
X12710463Y-12220584D01*
X12679870Y-12273572D01*
X12663126Y-12285736D01*
X12552690Y-12349496D01*
X12459496Y-12442690D01*
X12393609Y-12556809D01*
X12393608Y-12556814D01*
X12359500Y-12684108D01*
X12359500Y-12815892D01*
X12389579Y-12928151D01*
X12393609Y-12943190D01*
X12459496Y-13057309D01*
X12459498Y-13057311D01*
X12459500Y-13057314D01*
X12552686Y-13150500D01*
X12552688Y-13150501D01*
X12552690Y-13150503D01*
X12666810Y-13216390D01*
X12666808Y-13216390D01*
X12666812Y-13216391D01*
X12666814Y-13216392D01*
X12794108Y-13250500D01*
X12810500Y-13250500D01*
X12868691Y-13269407D01*
X12904655Y-13318907D01*
X12909500Y-13349500D01*
X12909500Y-13365892D01*
X12927778Y-13434108D01*
X12943609Y-13493190D01*
X13009496Y-13607309D01*
X13009498Y-13607311D01*
X13009500Y-13607314D01*
X13102686Y-13700500D01*
X13102688Y-13700501D01*
X13102690Y-13700503D01*
X13216810Y-13766390D01*
X13216808Y-13766390D01*
X13216812Y-13766391D01*
X13216814Y-13766392D01*
X13344108Y-13800500D01*
X13344110Y-13800500D01*
X13475890Y-13800500D01*
X13475892Y-13800500D01*
X13603186Y-13766392D01*
X13603188Y-13766390D01*
X13603190Y-13766390D01*
X13717309Y-13700503D01*
X13717309Y-13700502D01*
X13717314Y-13700500D01*
X13810500Y-13607314D01*
X13810792Y-13606809D01*
X13874264Y-13496873D01*
X13919733Y-13455932D01*
X13980583Y-13449536D01*
X14033571Y-13480129D01*
X14045736Y-13496873D01*
X14109496Y-13607309D01*
X14109498Y-13607311D01*
X14109500Y-13607314D01*
X14202686Y-13700500D01*
X14202688Y-13700501D01*
X14202690Y-13700503D01*
X14316810Y-13766390D01*
X14316808Y-13766390D01*
X14316812Y-13766391D01*
X14316814Y-13766392D01*
X14444108Y-13800500D01*
X14444110Y-13800500D01*
X14575890Y-13800500D01*
X14575892Y-13800500D01*
X14703186Y-13766392D01*
X14703188Y-13766390D01*
X14703190Y-13766390D01*
X14759104Y-13734108D01*
X19499500Y-13734108D01*
X19499500Y-13865892D01*
X19508773Y-13900500D01*
X19533609Y-13993190D01*
X19599496Y-14107309D01*
X19599498Y-14107311D01*
X19599500Y-14107314D01*
X19692686Y-14200500D01*
X19692688Y-14200501D01*
X19692690Y-14200503D01*
X19806810Y-14266390D01*
X19806808Y-14266390D01*
X19806812Y-14266391D01*
X19806814Y-14266392D01*
X19934108Y-14300500D01*
X19934110Y-14300500D01*
X20065890Y-14300500D01*
X20065892Y-14300500D01*
X20193186Y-14266392D01*
X20193188Y-14266390D01*
X20193190Y-14266390D01*
X20307309Y-14200503D01*
X20307309Y-14200502D01*
X20307314Y-14200500D01*
X20400500Y-14107314D01*
X20442766Y-14034108D01*
X20466390Y-13993190D01*
X20466390Y-13993188D01*
X20466392Y-13993186D01*
X20500500Y-13865892D01*
X20500500Y-13765478D01*
X20519407Y-13707287D01*
X20529496Y-13695474D01*
X21895475Y-12329496D01*
X21949992Y-12301719D01*
X21965479Y-12300500D01*
X22651679Y-12300500D01*
X22709870Y-12319407D01*
X22721676Y-12329490D01*
X22792686Y-12400500D01*
X22792688Y-12400501D01*
X22792690Y-12400503D01*
X22906810Y-12466390D01*
X22906808Y-12466390D01*
X22906812Y-12466391D01*
X22906814Y-12466392D01*
X23034108Y-12500500D01*
X23034110Y-12500500D01*
X23165890Y-12500500D01*
X23165892Y-12500500D01*
X23293186Y-12466392D01*
X23293188Y-12466390D01*
X23293190Y-12466390D01*
X23407309Y-12400503D01*
X23407309Y-12400502D01*
X23407314Y-12400500D01*
X23500500Y-12307314D01*
X23519981Y-12273572D01*
X23566390Y-12193190D01*
X23566390Y-12193188D01*
X23566392Y-12193186D01*
X23600500Y-12065892D01*
X23600500Y-11934108D01*
X23566392Y-11806814D01*
X23566390Y-11806811D01*
X23566390Y-11806809D01*
X23500503Y-11692690D01*
X23500501Y-11692688D01*
X23500500Y-11692686D01*
X23407314Y-11599500D01*
X23407311Y-11599498D01*
X23407309Y-11599496D01*
X23293189Y-11533609D01*
X23293191Y-11533609D01*
X23243799Y-11520375D01*
X23165892Y-11499500D01*
X23034108Y-11499500D01*
X22956200Y-11520375D01*
X22906809Y-11533609D01*
X22792690Y-11599496D01*
X22792689Y-11599497D01*
X22792686Y-11599499D01*
X22792686Y-11599500D01*
X22721680Y-11670505D01*
X22667166Y-11698281D01*
X22651679Y-11699500D01*
X21760435Y-11699500D01*
X21684012Y-11719978D01*
X21660405Y-11733608D01*
X21660404Y-11733607D01*
X21615490Y-11759539D01*
X20104524Y-13270504D01*
X20050007Y-13298281D01*
X20034520Y-13299500D01*
X19934108Y-13299500D01*
X19856200Y-13320375D01*
X19806809Y-13333609D01*
X19692690Y-13399496D01*
X19599496Y-13492690D01*
X19533609Y-13606809D01*
X19526428Y-13633609D01*
X19499500Y-13734108D01*
X14759104Y-13734108D01*
X14817309Y-13700503D01*
X14817309Y-13700502D01*
X14817314Y-13700500D01*
X14910500Y-13607314D01*
X14910792Y-13606809D01*
X14976390Y-13493190D01*
X14976390Y-13493188D01*
X14976392Y-13493186D01*
X15010500Y-13365892D01*
X15010500Y-13349500D01*
X15029407Y-13291309D01*
X15078907Y-13255345D01*
X15109500Y-13250500D01*
X15125890Y-13250500D01*
X15125892Y-13250500D01*
X15253186Y-13216392D01*
X15253188Y-13216390D01*
X15253190Y-13216390D01*
X15367309Y-13150503D01*
X15367309Y-13150502D01*
X15367314Y-13150500D01*
X15460500Y-13057314D01*
X15526392Y-12943186D01*
X15560500Y-12815892D01*
X15560500Y-12684108D01*
X15526392Y-12556814D01*
X15526390Y-12556811D01*
X15526390Y-12556809D01*
X15460503Y-12442690D01*
X15460501Y-12442688D01*
X15460500Y-12442686D01*
X15367314Y-12349500D01*
X15367311Y-12349498D01*
X15367309Y-12349496D01*
X15256873Y-12285736D01*
X15215932Y-12240267D01*
X15209536Y-12179417D01*
X15240129Y-12126429D01*
X15256873Y-12114264D01*
X15367309Y-12050503D01*
X15367309Y-12050502D01*
X15367314Y-12050500D01*
X15460500Y-11957314D01*
X15460503Y-11957309D01*
X15473898Y-11934108D01*
X19499500Y-11934108D01*
X19499500Y-12065892D01*
X19524644Y-12159733D01*
X19533609Y-12193190D01*
X19599496Y-12307309D01*
X19599498Y-12307311D01*
X19599500Y-12307314D01*
X19692686Y-12400500D01*
X19692688Y-12400501D01*
X19692690Y-12400503D01*
X19806810Y-12466390D01*
X19806808Y-12466390D01*
X19806812Y-12466391D01*
X19806814Y-12466392D01*
X19934108Y-12500500D01*
X19934110Y-12500500D01*
X20065890Y-12500500D01*
X20065892Y-12500500D01*
X20193186Y-12466392D01*
X20193188Y-12466390D01*
X20193190Y-12466390D01*
X20307309Y-12400503D01*
X20307309Y-12400502D01*
X20307314Y-12400500D01*
X20400500Y-12307314D01*
X20419981Y-12273572D01*
X20466390Y-12193190D01*
X20466390Y-12193188D01*
X20466392Y-12193186D01*
X20500500Y-12065892D01*
X20500500Y-11934108D01*
X20466392Y-11806814D01*
X20466390Y-11806811D01*
X20466390Y-11806809D01*
X20400503Y-11692690D01*
X20400501Y-11692688D01*
X20400500Y-11692686D01*
X20307314Y-11599500D01*
X20307311Y-11599498D01*
X20307309Y-11599496D01*
X20193189Y-11533609D01*
X20193191Y-11533609D01*
X20143799Y-11520375D01*
X20065892Y-11499500D01*
X19934108Y-11499500D01*
X19856200Y-11520375D01*
X19806809Y-11533609D01*
X19692690Y-11599496D01*
X19599496Y-11692690D01*
X19533609Y-11806809D01*
X19533608Y-11806814D01*
X19499500Y-11934108D01*
X15473898Y-11934108D01*
X15506224Y-11878119D01*
X15526390Y-11843190D01*
X15526390Y-11843188D01*
X15526392Y-11843186D01*
X15560500Y-11715892D01*
X15560500Y-11584108D01*
X15526392Y-11456814D01*
X15460500Y-11342686D01*
X15451922Y-11334108D01*
X23999500Y-11334108D01*
X23999500Y-11465892D01*
X24010464Y-11506809D01*
X24033609Y-11593190D01*
X24099496Y-11707309D01*
X24099498Y-11707311D01*
X24099500Y-11707314D01*
X24192686Y-11800500D01*
X24192688Y-11800501D01*
X24192690Y-11800503D01*
X24306810Y-11866390D01*
X24306808Y-11866390D01*
X24306812Y-11866391D01*
X24306814Y-11866392D01*
X24434108Y-11900500D01*
X24434110Y-11900500D01*
X24565890Y-11900500D01*
X24565892Y-11900500D01*
X24693186Y-11866392D01*
X24693188Y-11866390D01*
X24693190Y-11866390D01*
X24807309Y-11800503D01*
X24807309Y-11800502D01*
X24807314Y-11800500D01*
X24900500Y-11707314D01*
X24900503Y-11707309D01*
X24966390Y-11593190D01*
X24966390Y-11593188D01*
X24966392Y-11593186D01*
X25000500Y-11465892D01*
X25000500Y-11334108D01*
X24966392Y-11206814D01*
X24966390Y-11206811D01*
X24966390Y-11206809D01*
X24900503Y-11092690D01*
X24900501Y-11092688D01*
X24900500Y-11092686D01*
X24807314Y-10999500D01*
X24807311Y-10999498D01*
X24807309Y-10999496D01*
X24693189Y-10933609D01*
X24693191Y-10933609D01*
X24678722Y-10929732D01*
X24565892Y-10899500D01*
X24434108Y-10899500D01*
X24358085Y-10919870D01*
X24306809Y-10933609D01*
X24192690Y-10999496D01*
X24099496Y-11092690D01*
X24033609Y-11206809D01*
X24018483Y-11263263D01*
X23999500Y-11334108D01*
X15451922Y-11334108D01*
X15367314Y-11249500D01*
X15367311Y-11249498D01*
X15367309Y-11249496D01*
X15253189Y-11183609D01*
X15253191Y-11183609D01*
X15203799Y-11170375D01*
X15125892Y-11149500D01*
X15125890Y-11149500D01*
X15109500Y-11149500D01*
X15051309Y-11130593D01*
X15015345Y-11081093D01*
X15010500Y-11050500D01*
X15010500Y-11034109D01*
X15001227Y-10999500D01*
X14976392Y-10906814D01*
X14976390Y-10906811D01*
X14976390Y-10906809D01*
X14934416Y-10834108D01*
X29099500Y-10834108D01*
X29099500Y-10965892D01*
X29129579Y-11078151D01*
X29133609Y-11093190D01*
X29199496Y-11207309D01*
X29199498Y-11207311D01*
X29199500Y-11207314D01*
X29277034Y-11284848D01*
X29304810Y-11339363D01*
X29295239Y-11399795D01*
X29292765Y-11404350D01*
X29233609Y-11506809D01*
X29226428Y-11533609D01*
X29199500Y-11634108D01*
X29199500Y-11765892D01*
X29208773Y-11800500D01*
X29233609Y-11893190D01*
X29299496Y-12007309D01*
X29299498Y-12007311D01*
X29299500Y-12007314D01*
X29392686Y-12100500D01*
X29392688Y-12100501D01*
X29392690Y-12100503D01*
X29506810Y-12166390D01*
X29506808Y-12166390D01*
X29506812Y-12166391D01*
X29506814Y-12166392D01*
X29634108Y-12200500D01*
X29634110Y-12200500D01*
X29765890Y-12200500D01*
X29765892Y-12200500D01*
X29893186Y-12166392D01*
X29893188Y-12166390D01*
X29893190Y-12166390D01*
X30007309Y-12100503D01*
X30007309Y-12100502D01*
X30007314Y-12100500D01*
X30100500Y-12007314D01*
X30100503Y-12007309D01*
X30166390Y-11893190D01*
X30166390Y-11893188D01*
X30166392Y-11893186D01*
X30200500Y-11765892D01*
X30200500Y-11734108D01*
X49599500Y-11734108D01*
X49599500Y-11865892D01*
X49608773Y-11900500D01*
X49633609Y-11993190D01*
X49699496Y-12107309D01*
X49699498Y-12107311D01*
X49699500Y-12107314D01*
X49792686Y-12200500D01*
X49792688Y-12200501D01*
X49792690Y-12200503D01*
X49906810Y-12266390D01*
X49906808Y-12266390D01*
X49906812Y-12266391D01*
X49906814Y-12266392D01*
X50034108Y-12300500D01*
X50034110Y-12300500D01*
X50165890Y-12300500D01*
X50165892Y-12300500D01*
X50293186Y-12266392D01*
X50293188Y-12266390D01*
X50293190Y-12266390D01*
X50407309Y-12200503D01*
X50407309Y-12200502D01*
X50407314Y-12200500D01*
X50500500Y-12107314D01*
X50566392Y-11993186D01*
X50600500Y-11865892D01*
X50600500Y-11734108D01*
X50566392Y-11606814D01*
X50566390Y-11606811D01*
X50566390Y-11606809D01*
X50500503Y-11492690D01*
X50500501Y-11492688D01*
X50500500Y-11492686D01*
X50407314Y-11399500D01*
X50407311Y-11399498D01*
X50407309Y-11399496D01*
X50293189Y-11333609D01*
X50293191Y-11333609D01*
X50224310Y-11315153D01*
X50165892Y-11299500D01*
X50034108Y-11299500D01*
X49975690Y-11315153D01*
X49906809Y-11333609D01*
X49792690Y-11399496D01*
X49699496Y-11492690D01*
X49633609Y-11606809D01*
X49626294Y-11634109D01*
X49599500Y-11734108D01*
X30200500Y-11734108D01*
X30200500Y-11634108D01*
X30166392Y-11506814D01*
X30166390Y-11506811D01*
X30166390Y-11506809D01*
X30100503Y-11392690D01*
X30100501Y-11392688D01*
X30100500Y-11392686D01*
X30022964Y-11315150D01*
X29995189Y-11260636D01*
X30004760Y-11200204D01*
X30007212Y-11195688D01*
X30066392Y-11093186D01*
X30100500Y-10965892D01*
X30100500Y-10834108D01*
X30066392Y-10706814D01*
X30066390Y-10706811D01*
X30066390Y-10706809D01*
X30000503Y-10592690D01*
X30000501Y-10592688D01*
X30000500Y-10592686D01*
X29907314Y-10499500D01*
X29907311Y-10499498D01*
X29907309Y-10499496D01*
X29793189Y-10433609D01*
X29793191Y-10433609D01*
X29743799Y-10420375D01*
X29665892Y-10399500D01*
X29534108Y-10399500D01*
X29456200Y-10420375D01*
X29406809Y-10433609D01*
X29292690Y-10499496D01*
X29199496Y-10592690D01*
X29133609Y-10706809D01*
X29133608Y-10706814D01*
X29099500Y-10834108D01*
X14934416Y-10834108D01*
X14910503Y-10792690D01*
X14910501Y-10792688D01*
X14910500Y-10792686D01*
X14817314Y-10699500D01*
X14817311Y-10699498D01*
X14817309Y-10699496D01*
X14703189Y-10633609D01*
X14703191Y-10633609D01*
X14653799Y-10620375D01*
X14575892Y-10599500D01*
X14444108Y-10599500D01*
X14366200Y-10620375D01*
X14316809Y-10633609D01*
X14202690Y-10699496D01*
X14109496Y-10792690D01*
X14045736Y-10903126D01*
X14000267Y-10944067D01*
X13939416Y-10950463D01*
X13886428Y-10919870D01*
X13874264Y-10903126D01*
X13810503Y-10792690D01*
X13810501Y-10792688D01*
X13810500Y-10792686D01*
X13717314Y-10699500D01*
X13717311Y-10699498D01*
X13717309Y-10699496D01*
X13603189Y-10633609D01*
X13603191Y-10633609D01*
X13553799Y-10620375D01*
X13475892Y-10599500D01*
X13344108Y-10599500D01*
X13266200Y-10620375D01*
X13216809Y-10633609D01*
X13102690Y-10699496D01*
X13009496Y-10792690D01*
X12943609Y-10906809D01*
X12909500Y-11034109D01*
X12909500Y-11050500D01*
X12890593Y-11108691D01*
X12841093Y-11144655D01*
X12810500Y-11149500D01*
X12794108Y-11149500D01*
X12716200Y-11170375D01*
X12666809Y-11183609D01*
X12552690Y-11249496D01*
X12459496Y-11342690D01*
X12393609Y-11456809D01*
X12383996Y-11492686D01*
X12359500Y-11584108D01*
X500500Y-11584108D01*
X500500Y-10334108D01*
X5399500Y-10334108D01*
X5399500Y-10465892D01*
X5408773Y-10500500D01*
X5433609Y-10593190D01*
X5499496Y-10707309D01*
X5499498Y-10707311D01*
X5499500Y-10707314D01*
X5592686Y-10800500D01*
X5592688Y-10800501D01*
X5592690Y-10800503D01*
X5706810Y-10866390D01*
X5706808Y-10866390D01*
X5706812Y-10866391D01*
X5706814Y-10866392D01*
X5834108Y-10900500D01*
X5834110Y-10900500D01*
X5965890Y-10900500D01*
X5965892Y-10900500D01*
X6093186Y-10866392D01*
X6093188Y-10866390D01*
X6093190Y-10866390D01*
X6207309Y-10800503D01*
X6207309Y-10800502D01*
X6207314Y-10800500D01*
X6300500Y-10707314D01*
X6300792Y-10706809D01*
X6366390Y-10593190D01*
X6366390Y-10593188D01*
X6366392Y-10593186D01*
X6400500Y-10465892D01*
X6400500Y-10334108D01*
X6366392Y-10206814D01*
X6366390Y-10206811D01*
X6366390Y-10206809D01*
X6300503Y-10092690D01*
X6300501Y-10092688D01*
X6300500Y-10092686D01*
X6241922Y-10034108D01*
X23499500Y-10034108D01*
X23499500Y-10165892D01*
X23508773Y-10200500D01*
X23533609Y-10293190D01*
X23599496Y-10407309D01*
X23599498Y-10407311D01*
X23599500Y-10407314D01*
X23692686Y-10500500D01*
X23692688Y-10500501D01*
X23692690Y-10500503D01*
X23806810Y-10566390D01*
X23806808Y-10566390D01*
X23806812Y-10566391D01*
X23806814Y-10566392D01*
X23934108Y-10600500D01*
X23934110Y-10600500D01*
X24065890Y-10600500D01*
X24065892Y-10600500D01*
X24193186Y-10566392D01*
X24193188Y-10566390D01*
X24193190Y-10566390D01*
X24307309Y-10500503D01*
X24307309Y-10500502D01*
X24307314Y-10500500D01*
X24400500Y-10407314D01*
X24404434Y-10400500D01*
X24466390Y-10293190D01*
X24466390Y-10293188D01*
X24466392Y-10293186D01*
X24500500Y-10165892D01*
X24500500Y-10034108D01*
X24473705Y-9934108D01*
X25899500Y-9934108D01*
X25899500Y-10065892D01*
X25908773Y-10100500D01*
X25933609Y-10193190D01*
X25999496Y-10307309D01*
X25999498Y-10307311D01*
X25999500Y-10307314D01*
X26092686Y-10400500D01*
X26092688Y-10400501D01*
X26092690Y-10400503D01*
X26206810Y-10466390D01*
X26206808Y-10466390D01*
X26206812Y-10466391D01*
X26206814Y-10466392D01*
X26334108Y-10500500D01*
X26334110Y-10500500D01*
X26465890Y-10500500D01*
X26465892Y-10500500D01*
X26593186Y-10466392D01*
X26593188Y-10466390D01*
X26593190Y-10466390D01*
X26707309Y-10400503D01*
X26707309Y-10400502D01*
X26707314Y-10400500D01*
X26800500Y-10307314D01*
X26858527Y-10206809D01*
X26866390Y-10193190D01*
X26866390Y-10193188D01*
X26866392Y-10193186D01*
X26900500Y-10065892D01*
X26900500Y-9934108D01*
X26866392Y-9806814D01*
X26866390Y-9806811D01*
X26866390Y-9806809D01*
X26800503Y-9692690D01*
X26800501Y-9692688D01*
X26800500Y-9692686D01*
X26741922Y-9634108D01*
X29099500Y-9634108D01*
X29099500Y-9765892D01*
X29110464Y-9806809D01*
X29133609Y-9893190D01*
X29199496Y-10007309D01*
X29199498Y-10007311D01*
X29199500Y-10007314D01*
X29292686Y-10100500D01*
X29292688Y-10100501D01*
X29292690Y-10100503D01*
X29406810Y-10166390D01*
X29406808Y-10166390D01*
X29406812Y-10166391D01*
X29406814Y-10166392D01*
X29534108Y-10200500D01*
X29534110Y-10200500D01*
X29665890Y-10200500D01*
X29665892Y-10200500D01*
X29793186Y-10166392D01*
X29793188Y-10166390D01*
X29793190Y-10166390D01*
X29907309Y-10100503D01*
X29907309Y-10100502D01*
X29907314Y-10100500D01*
X30000500Y-10007314D01*
X30000503Y-10007309D01*
X30066390Y-9893190D01*
X30066390Y-9893188D01*
X30066392Y-9893186D01*
X30100500Y-9765892D01*
X30100500Y-9634108D01*
X30066392Y-9506814D01*
X30066390Y-9506811D01*
X30066390Y-9506809D01*
X30000503Y-9392690D01*
X30000501Y-9392688D01*
X30000500Y-9392686D01*
X29907314Y-9299500D01*
X29907311Y-9299498D01*
X29907309Y-9299496D01*
X29793189Y-9233609D01*
X29793191Y-9233609D01*
X29743799Y-9220375D01*
X29665892Y-9199500D01*
X29534108Y-9199500D01*
X29456200Y-9220375D01*
X29406809Y-9233609D01*
X29292690Y-9299496D01*
X29199496Y-9392690D01*
X29133609Y-9506809D01*
X29126428Y-9533609D01*
X29099500Y-9634108D01*
X26741922Y-9634108D01*
X26707314Y-9599500D01*
X26707311Y-9599498D01*
X26707309Y-9599496D01*
X26593189Y-9533609D01*
X26593191Y-9533609D01*
X26543799Y-9520375D01*
X26465892Y-9499500D01*
X26334108Y-9499500D01*
X26256200Y-9520375D01*
X26206809Y-9533609D01*
X26092690Y-9599496D01*
X25999496Y-9692690D01*
X25933609Y-9806809D01*
X25933608Y-9806814D01*
X25899500Y-9934108D01*
X24473705Y-9934108D01*
X24466392Y-9906814D01*
X24466390Y-9906811D01*
X24466390Y-9906809D01*
X24400503Y-9792690D01*
X24400501Y-9792688D01*
X24400500Y-9792686D01*
X24307314Y-9699500D01*
X24307311Y-9699498D01*
X24307309Y-9699496D01*
X24193189Y-9633609D01*
X24193191Y-9633609D01*
X24143799Y-9620375D01*
X24065892Y-9599500D01*
X23934108Y-9599500D01*
X23856200Y-9620375D01*
X23806809Y-9633609D01*
X23692690Y-9699496D01*
X23599496Y-9792690D01*
X23533609Y-9906809D01*
X23526294Y-9934109D01*
X23499500Y-10034108D01*
X6241922Y-10034108D01*
X6207314Y-9999500D01*
X6207311Y-9999498D01*
X6207309Y-9999496D01*
X6093189Y-9933609D01*
X6093191Y-9933609D01*
X6043799Y-9920375D01*
X5965892Y-9899500D01*
X5834108Y-9899500D01*
X5756200Y-9920375D01*
X5706809Y-9933609D01*
X5592690Y-9999496D01*
X5499496Y-10092690D01*
X5433609Y-10206809D01*
X5433608Y-10206814D01*
X5399500Y-10334108D01*
X500500Y-10334108D01*
X500500Y-8634108D01*
X2399500Y-8634108D01*
X2399500Y-8765892D01*
X2408773Y-8800500D01*
X2433609Y-8893190D01*
X2499496Y-9007309D01*
X2499498Y-9007311D01*
X2499500Y-9007314D01*
X2592686Y-9100500D01*
X2592688Y-9100501D01*
X2592690Y-9100503D01*
X2706810Y-9166390D01*
X2706808Y-9166390D01*
X2706812Y-9166391D01*
X2706814Y-9166392D01*
X2834108Y-9200500D01*
X2834110Y-9200500D01*
X2965890Y-9200500D01*
X2965892Y-9200500D01*
X3093186Y-9166392D01*
X3093188Y-9166390D01*
X3093190Y-9166390D01*
X3207309Y-9100503D01*
X3207309Y-9100502D01*
X3207314Y-9100500D01*
X3300500Y-9007314D01*
X3366392Y-8893186D01*
X3400500Y-8765892D01*
X3400500Y-8634108D01*
X3366392Y-8506814D01*
X3366390Y-8506811D01*
X3366390Y-8506809D01*
X3300503Y-8392690D01*
X3300501Y-8392688D01*
X3300500Y-8392686D01*
X3207314Y-8299500D01*
X3207311Y-8299498D01*
X3207309Y-8299496D01*
X3094053Y-8234108D01*
X29999500Y-8234108D01*
X29999500Y-8365892D01*
X30029579Y-8478151D01*
X30033609Y-8493190D01*
X30099496Y-8607309D01*
X30099498Y-8607311D01*
X30099500Y-8607314D01*
X30192686Y-8700500D01*
X30192688Y-8700501D01*
X30192690Y-8700503D01*
X30306810Y-8766390D01*
X30306808Y-8766390D01*
X30306812Y-8766391D01*
X30306814Y-8766392D01*
X30434108Y-8800500D01*
X30434110Y-8800500D01*
X30565890Y-8800500D01*
X30565892Y-8800500D01*
X30693186Y-8766392D01*
X30693188Y-8766390D01*
X30693190Y-8766390D01*
X30807309Y-8700503D01*
X30807309Y-8700502D01*
X30807314Y-8700500D01*
X30900500Y-8607314D01*
X30966392Y-8493186D01*
X31000500Y-8365892D01*
X31000500Y-8234108D01*
X30966392Y-8106814D01*
X30966390Y-8106811D01*
X30966390Y-8106809D01*
X30900503Y-7992690D01*
X30900501Y-7992688D01*
X30900500Y-7992686D01*
X30807314Y-7899500D01*
X30807311Y-7899498D01*
X30807309Y-7899496D01*
X30693189Y-7833609D01*
X30693191Y-7833609D01*
X30643799Y-7820375D01*
X30565892Y-7799500D01*
X30434108Y-7799500D01*
X30356200Y-7820375D01*
X30306809Y-7833609D01*
X30192690Y-7899496D01*
X30099496Y-7992690D01*
X30033609Y-8106809D01*
X30033608Y-8106814D01*
X29999500Y-8234108D01*
X3094053Y-8234108D01*
X3093189Y-8233609D01*
X3093191Y-8233609D01*
X3043799Y-8220375D01*
X2965892Y-8199500D01*
X2834108Y-8199500D01*
X2756200Y-8220375D01*
X2706809Y-8233609D01*
X2592690Y-8299496D01*
X2499496Y-8392690D01*
X2433609Y-8506809D01*
X2433608Y-8506814D01*
X2399500Y-8634108D01*
X500500Y-8634108D01*
X500500Y-7234108D01*
X22599500Y-7234108D01*
X22599500Y-7365892D01*
X22610464Y-7406809D01*
X22633609Y-7493190D01*
X22699496Y-7607309D01*
X22699498Y-7607311D01*
X22699500Y-7607314D01*
X22792686Y-7700500D01*
X22792688Y-7700501D01*
X22792690Y-7700503D01*
X22906810Y-7766390D01*
X22906808Y-7766390D01*
X22906812Y-7766391D01*
X22906814Y-7766392D01*
X23034108Y-7800500D01*
X23034110Y-7800500D01*
X23165890Y-7800500D01*
X23165892Y-7800500D01*
X23293186Y-7766392D01*
X23293188Y-7766390D01*
X23293190Y-7766390D01*
X23407309Y-7700503D01*
X23407309Y-7700502D01*
X23407314Y-7700500D01*
X23500500Y-7607314D01*
X23542766Y-7534108D01*
X25999500Y-7534108D01*
X25999500Y-7665892D01*
X26008773Y-7700500D01*
X26033609Y-7793190D01*
X26099496Y-7907309D01*
X26099498Y-7907311D01*
X26099500Y-7907314D01*
X26192686Y-8000500D01*
X26192688Y-8000501D01*
X26192690Y-8000503D01*
X26306810Y-8066390D01*
X26306808Y-8066390D01*
X26306812Y-8066391D01*
X26306814Y-8066392D01*
X26434108Y-8100500D01*
X26434110Y-8100500D01*
X26565890Y-8100500D01*
X26565892Y-8100500D01*
X26693186Y-8066392D01*
X26693188Y-8066390D01*
X26693190Y-8066390D01*
X26807309Y-8000503D01*
X26807309Y-8000502D01*
X26807314Y-8000500D01*
X26900500Y-7907314D01*
X26900503Y-7907309D01*
X26966390Y-7793190D01*
X26966390Y-7793188D01*
X26966392Y-7793186D01*
X27000500Y-7665892D01*
X27000500Y-7534108D01*
X26966392Y-7406814D01*
X26966390Y-7406811D01*
X26966390Y-7406809D01*
X26900503Y-7292690D01*
X26900501Y-7292688D01*
X26900500Y-7292686D01*
X26807314Y-7199500D01*
X26807311Y-7199498D01*
X26807309Y-7199496D01*
X26693189Y-7133609D01*
X26693191Y-7133609D01*
X26643799Y-7120375D01*
X26565892Y-7099500D01*
X26434108Y-7099500D01*
X26356200Y-7120375D01*
X26306809Y-7133609D01*
X26192690Y-7199496D01*
X26099496Y-7292690D01*
X26033609Y-7406809D01*
X26033608Y-7406814D01*
X25999500Y-7534108D01*
X23542766Y-7534108D01*
X23566392Y-7493186D01*
X23600500Y-7365892D01*
X23600500Y-7234108D01*
X23566392Y-7106814D01*
X23566390Y-7106811D01*
X23566390Y-7106809D01*
X23500503Y-6992690D01*
X23500501Y-6992688D01*
X23500500Y-6992686D01*
X23407314Y-6899500D01*
X23407311Y-6899498D01*
X23407309Y-6899496D01*
X23293189Y-6833609D01*
X23293191Y-6833609D01*
X23243799Y-6820375D01*
X23165892Y-6799500D01*
X23034108Y-6799500D01*
X22956200Y-6820375D01*
X22906809Y-6833609D01*
X22792690Y-6899496D01*
X22699496Y-6992690D01*
X22633609Y-7106809D01*
X22626428Y-7133609D01*
X22599500Y-7234108D01*
X500500Y-7234108D01*
X500500Y-6334108D01*
X25999500Y-6334108D01*
X25999500Y-6465892D01*
X26029579Y-6578151D01*
X26033609Y-6593190D01*
X26099496Y-6707309D01*
X26099498Y-6707311D01*
X26099500Y-6707314D01*
X26192686Y-6800500D01*
X26192688Y-6800501D01*
X26192690Y-6800503D01*
X26306810Y-6866390D01*
X26306808Y-6866390D01*
X26306812Y-6866391D01*
X26306814Y-6866392D01*
X26434108Y-6900500D01*
X26434110Y-6900500D01*
X26565890Y-6900500D01*
X26565892Y-6900500D01*
X26693186Y-6866392D01*
X26693188Y-6866390D01*
X26693190Y-6866390D01*
X26807309Y-6800503D01*
X26807309Y-6800502D01*
X26807314Y-6800500D01*
X26900500Y-6707314D01*
X26966392Y-6593186D01*
X27000500Y-6465892D01*
X27000500Y-6334108D01*
X29099500Y-6334108D01*
X29099500Y-6465892D01*
X29129579Y-6578151D01*
X29133609Y-6593190D01*
X29199496Y-6707309D01*
X29199498Y-6707311D01*
X29199500Y-6707314D01*
X29292686Y-6800500D01*
X29292688Y-6800501D01*
X29292690Y-6800503D01*
X29406810Y-6866390D01*
X29406808Y-6866390D01*
X29406812Y-6866391D01*
X29406814Y-6866392D01*
X29534108Y-6900500D01*
X29534110Y-6900500D01*
X29665890Y-6900500D01*
X29665892Y-6900500D01*
X29793186Y-6866392D01*
X29793188Y-6866390D01*
X29793190Y-6866390D01*
X29907309Y-6800503D01*
X29907309Y-6800502D01*
X29907314Y-6800500D01*
X30000500Y-6707314D01*
X30066392Y-6593186D01*
X30100500Y-6465892D01*
X30100500Y-6334108D01*
X30066392Y-6206814D01*
X30066390Y-6206811D01*
X30066390Y-6206809D01*
X30000503Y-6092690D01*
X30000501Y-6092688D01*
X30000500Y-6092686D01*
X29907314Y-5999500D01*
X29907311Y-5999498D01*
X29907309Y-5999496D01*
X29793189Y-5933609D01*
X29793191Y-5933609D01*
X29743799Y-5920375D01*
X29665892Y-5899500D01*
X29534108Y-5899500D01*
X29456200Y-5920375D01*
X29406809Y-5933609D01*
X29292690Y-5999496D01*
X29199496Y-6092690D01*
X29133609Y-6206809D01*
X29133608Y-6206814D01*
X29099500Y-6334108D01*
X27000500Y-6334108D01*
X26966392Y-6206814D01*
X26966390Y-6206811D01*
X26966390Y-6206809D01*
X26900503Y-6092690D01*
X26900501Y-6092688D01*
X26900500Y-6092686D01*
X26807314Y-5999500D01*
X26807311Y-5999498D01*
X26807309Y-5999496D01*
X26693189Y-5933609D01*
X26693191Y-5933609D01*
X26643799Y-5920375D01*
X26565892Y-5899500D01*
X26434108Y-5899500D01*
X26356200Y-5920375D01*
X26306809Y-5933609D01*
X26192690Y-5999496D01*
X26099496Y-6092690D01*
X26033609Y-6206809D01*
X26033608Y-6206814D01*
X25999500Y-6334108D01*
X500500Y-6334108D01*
X500500Y-5734108D01*
X45799500Y-5734108D01*
X45799500Y-5865892D01*
X45817644Y-5933608D01*
X45833609Y-5993190D01*
X45899496Y-6107309D01*
X45899498Y-6107311D01*
X45899500Y-6107314D01*
X45992686Y-6200500D01*
X45992688Y-6200501D01*
X45992690Y-6200503D01*
X46106810Y-6266390D01*
X46106808Y-6266390D01*
X46106812Y-6266391D01*
X46106814Y-6266392D01*
X46234108Y-6300500D01*
X46234110Y-6300500D01*
X46365890Y-6300500D01*
X46365892Y-6300500D01*
X46493186Y-6266392D01*
X46493188Y-6266390D01*
X46493190Y-6266390D01*
X46607309Y-6200503D01*
X46607309Y-6200502D01*
X46607314Y-6200500D01*
X46700500Y-6107314D01*
X46766392Y-5993186D01*
X46800500Y-5865892D01*
X46800500Y-5734108D01*
X46766392Y-5606814D01*
X46766390Y-5606811D01*
X46766390Y-5606809D01*
X46700503Y-5492690D01*
X46700501Y-5492688D01*
X46700500Y-5492686D01*
X46607314Y-5399500D01*
X46607311Y-5399498D01*
X46607309Y-5399496D01*
X46493189Y-5333609D01*
X46493191Y-5333609D01*
X46443799Y-5320375D01*
X46365892Y-5299500D01*
X46234108Y-5299500D01*
X46156200Y-5320375D01*
X46106809Y-5333609D01*
X45992690Y-5399496D01*
X45899496Y-5492690D01*
X45833609Y-5606809D01*
X45833608Y-5606814D01*
X45799500Y-5734108D01*
X500500Y-5734108D01*
X500500Y-4999000D01*
X519407Y-4940809D01*
X568907Y-4904845D01*
X599500Y-4900000D01*
X26999999Y-4900000D01*
X27000000Y-4900000D01*
X27000000Y-2834108D01*
X27399500Y-2834108D01*
X27399500Y-2965892D01*
X27429579Y-3078151D01*
X27433609Y-3093190D01*
X27499496Y-3207309D01*
X27499498Y-3207311D01*
X27499500Y-3207314D01*
X27592686Y-3300500D01*
X27592688Y-3300501D01*
X27592690Y-3300503D01*
X27706810Y-3366390D01*
X27706808Y-3366390D01*
X27706812Y-3366391D01*
X27706814Y-3366392D01*
X27834108Y-3400500D01*
X27834110Y-3400500D01*
X27965890Y-3400500D01*
X27965892Y-3400500D01*
X28093186Y-3366392D01*
X28093188Y-3366390D01*
X28093190Y-3366390D01*
X28207309Y-3300503D01*
X28207309Y-3300502D01*
X28207314Y-3300500D01*
X28300500Y-3207314D01*
X28366392Y-3093186D01*
X28400500Y-2965892D01*
X28400500Y-2834108D01*
X28390730Y-2797644D01*
X50999500Y-2797644D01*
X50999500Y-3002355D01*
X51031521Y-3204529D01*
X51094780Y-3399219D01*
X51187712Y-3581609D01*
X51187714Y-3581613D01*
X51308029Y-3747213D01*
X51308031Y-3747215D01*
X51308034Y-3747219D01*
X51452781Y-3891966D01*
X51452784Y-3891968D01*
X51452786Y-3891970D01*
X51618386Y-4012285D01*
X51618390Y-4012287D01*
X51800781Y-4105220D01*
X51995466Y-4168477D01*
X51995467Y-4168477D01*
X51995470Y-4168478D01*
X52197645Y-4200500D01*
X52197648Y-4200500D01*
X52402355Y-4200500D01*
X52604529Y-4168478D01*
X52604530Y-4168477D01*
X52604534Y-4168477D01*
X52799219Y-4105220D01*
X52981610Y-4012287D01*
X53147219Y-3891966D01*
X53291966Y-3747219D01*
X53412287Y-3581610D01*
X53505220Y-3399219D01*
X53568477Y-3204534D01*
X53568478Y-3204529D01*
X53600500Y-3002355D01*
X53600500Y-2797644D01*
X53568478Y-2595470D01*
X53567575Y-2592690D01*
X53505220Y-2400781D01*
X53412287Y-2218390D01*
X53412285Y-2218386D01*
X53291970Y-2052786D01*
X53291968Y-2052784D01*
X53291966Y-2052781D01*
X53147219Y-1908034D01*
X53147215Y-1908031D01*
X53147213Y-1908029D01*
X52981613Y-1787714D01*
X52981609Y-1787712D01*
X52799219Y-1694780D01*
X52604529Y-1631521D01*
X52402355Y-1599500D01*
X52402352Y-1599500D01*
X52197648Y-1599500D01*
X52197645Y-1599500D01*
X51995470Y-1631521D01*
X51800780Y-1694780D01*
X51618390Y-1787712D01*
X51618386Y-1787714D01*
X51452786Y-1908029D01*
X51308029Y-2052786D01*
X51187714Y-2218386D01*
X51187712Y-2218390D01*
X51094780Y-2400780D01*
X51031521Y-2595470D01*
X50999500Y-2797644D01*
X28390730Y-2797644D01*
X28366392Y-2706814D01*
X28366390Y-2706811D01*
X28366390Y-2706809D01*
X28300503Y-2592690D01*
X28300501Y-2592688D01*
X28300500Y-2592686D01*
X28207314Y-2499500D01*
X28207311Y-2499498D01*
X28207309Y-2499496D01*
X28093189Y-2433609D01*
X28093191Y-2433609D01*
X28043799Y-2420375D01*
X27965892Y-2399500D01*
X27834108Y-2399500D01*
X27756200Y-2420375D01*
X27706809Y-2433609D01*
X27592690Y-2499496D01*
X27499496Y-2592690D01*
X27433609Y-2706809D01*
X27433608Y-2706814D01*
X27399500Y-2834108D01*
X27000000Y-2834108D01*
X27000000Y-599500D01*
X27018907Y-541309D01*
X27068407Y-505345D01*
X27099000Y-500500D01*
X54400500Y-500500D01*
X54458691Y-519407D01*
G37*
%TD.AperFunction*%
%TD*%
M02*
