%TF.GenerationSoftware,KiCad,Pcbnew,9.0.8+dfsg-1*%
%TF.CreationDate,2026-08-06T02:31:08+05:30*%
%TF.ProjectId,v_c3_flight_final,765f6333-5f66-46c6-9967-68745f66696e,rev?*%
%TF.SameCoordinates,Original*%
%TF.FileFunction,Soldermask,Top*%
%TF.FilePolarity,Negative*%
%FSLAX46Y46*%
G04 Gerber Fmt 4.6, Leading zero omitted, Abs format (unit mm)*
G04 Created by KiCad (PCBNEW 9.0.8+dfsg-1) date 2026-08-06 02:31:08*
%MOMM*%
%LPD*%
G01*
G04 APERTURE LIST*
G04 Aperture macros list*
%AMRoundRect*
0 Rectangle with rounded corners*
0 $1 Rounding radius*
0 $2 $3 $4 $5 $6 $7 $8 $9 X,Y pos of 4 corners*
0 Add a 4 corners polygon primitive as box body*
4,1,4,$2,$3,$4,$5,$6,$7,$8,$9,$2,$3,0*
0 Add four circle primitives for the rounded corners*
1,1,$1+$1,$2,$3*
1,1,$1+$1,$4,$5*
1,1,$1+$1,$6,$7*
1,1,$1+$1,$8,$9*
0 Add four rect primitives between the rounded corners*
20,1,$1+$1,$2,$3,$4,$5,0*
20,1,$1+$1,$4,$5,$6,$7,0*
20,1,$1+$1,$6,$7,$8,$9,0*
20,1,$1+$1,$8,$9,$2,$3,0*%
G04 Aperture macros list end*
%ADD10RoundRect,0.100000X0.400000X0.400000X-0.400000X0.400000X-0.400000X-0.400000X0.400000X-0.400000X0*%
%ADD11RoundRect,0.105000X0.420000X0.995000X-0.420000X0.995000X-0.420000X-0.995000X0.420000X-0.995000X0*%
%ADD12RoundRect,0.135000X-0.135000X-0.185000X0.135000X-0.185000X0.135000X0.185000X-0.135000X0.185000X0*%
%ADD13RoundRect,0.135000X0.185000X-0.135000X0.185000X0.135000X-0.185000X0.135000X-0.185000X-0.135000X0*%
%ADD14RoundRect,0.317500X-1.157500X-0.317500X1.157500X-0.317500X1.157500X0.317500X-1.157500X0.317500X0*%
%ADD15RoundRect,0.150000X-0.512500X-0.150000X0.512500X-0.150000X0.512500X0.150000X-0.512500X0.150000X0*%
%ADD16R,0.350000X0.500000*%
%ADD17RoundRect,0.225000X-0.225000X-0.375000X0.225000X-0.375000X0.225000X0.375000X-0.225000X0.375000X0*%
%ADD18RoundRect,0.250000X-0.750000X-0.750000X0.750000X-0.750000X0.750000X0.750000X-0.750000X0.750000X0*%
%ADD19C,2.000000*%
%ADD20RoundRect,0.225000X-0.225000X-0.250000X0.225000X-0.250000X0.225000X0.250000X-0.225000X0.250000X0*%
%ADD21R,1.700000X1.700000*%
%ADD22C,1.700000*%
%ADD23RoundRect,0.140000X-0.140000X-0.170000X0.140000X-0.170000X0.140000X0.170000X-0.140000X0.170000X0*%
%ADD24RoundRect,0.218750X-0.218750X-0.256250X0.218750X-0.256250X0.218750X0.256250X-0.218750X0.256250X0*%
%ADD25R,1.500000X0.900000*%
%ADD26C,0.600000*%
%ADD27R,2.900000X2.900000*%
%ADD28RoundRect,0.175000X-0.725000X-0.175000X0.725000X-0.175000X0.725000X0.175000X-0.725000X0.175000X0*%
%ADD29RoundRect,0.200000X-0.700000X-0.200000X0.700000X-0.200000X0.700000X0.200000X-0.700000X0.200000X0*%
G04 APERTURE END LIST*
D10*
%TO.C,ANT1*%
X51000000Y-23500000D03*
D11*
X49525000Y-22000000D03*
D10*
X51000000Y-20500000D03*
D11*
X52475000Y-22000000D03*
%TD*%
D12*
%TO.C,R_LED*%
X29490000Y-35000000D03*
X30510000Y-35000000D03*
%TD*%
D13*
%TO.C,R_DIV1*%
X3000000Y-36510000D03*
X3000000Y-35490000D03*
%TD*%
D14*
%TO.C,U2*%
X30475000Y-4000000D03*
X30475000Y-6000000D03*
X30475000Y-8000000D03*
X30475000Y-10000000D03*
X30475000Y-12000000D03*
X30475000Y-14000000D03*
X30475000Y-16000000D03*
X30475000Y-18000000D03*
X45525000Y-18000000D03*
X45525000Y-16000000D03*
X45525000Y-14000000D03*
X45525000Y-12000000D03*
X45525000Y-10000000D03*
X45525000Y-8000000D03*
X45525000Y-6000000D03*
X45525000Y-4000000D03*
%TD*%
D15*
%TO.C,U4*%
X16862500Y-27050000D03*
X16862500Y-28000000D03*
X16862500Y-28950000D03*
X19137500Y-28950000D03*
X19137500Y-27050000D03*
%TD*%
D16*
%TO.C,U5*%
X23025000Y-33975000D03*
X23675000Y-33975000D03*
X24325000Y-33975000D03*
X24975000Y-33975000D03*
X24975000Y-36025000D03*
X24325000Y-36025000D03*
X23675000Y-36025000D03*
X23025000Y-36025000D03*
%TD*%
D17*
%TO.C,D1*%
X22350000Y-20000000D03*
X25650000Y-20000000D03*
%TD*%
D18*
%TO.C,C_CAP*%
X6000000Y-28000000D03*
D19*
X11000000Y-28000000D03*
%TD*%
D20*
%TO.C,C2*%
X24225000Y-9000000D03*
X25775000Y-9000000D03*
%TD*%
D21*
%TO.C,J2*%
X40000000Y-42000000D03*
D22*
X42540000Y-42000000D03*
X45080000Y-42000000D03*
X47620000Y-42000000D03*
%TD*%
D12*
%TO.C,R_PD*%
X10490000Y-36000000D03*
X11510000Y-36000000D03*
%TD*%
D23*
%TO.C,C3*%
X21520000Y-25000000D03*
X22480000Y-25000000D03*
%TD*%
D21*
%TO.C,SOLAR*%
X4000000Y-42000000D03*
D22*
X6540000Y-42000000D03*
%TD*%
D20*
%TO.C,C1*%
X15225000Y-25000000D03*
X16775000Y-25000000D03*
%TD*%
D24*
%TO.C,LED1*%
X35212500Y-35000000D03*
X36787500Y-35000000D03*
%TD*%
D13*
%TO.C,R_DIV2*%
X7000000Y-36510000D03*
X7000000Y-35490000D03*
%TD*%
D23*
%TO.C,C4*%
X47520000Y-11000000D03*
X48480000Y-11000000D03*
%TD*%
D25*
%TO.C,U1*%
X4250000Y-6000000D03*
X4250000Y-7500000D03*
X4250000Y-9000000D03*
X4250000Y-10500000D03*
X4250000Y-12000000D03*
X4250000Y-13500000D03*
X4250000Y-15000000D03*
X4250000Y-16500000D03*
X4250000Y-18000000D03*
X21750000Y-18000000D03*
X21750000Y-16500000D03*
X21750000Y-15000000D03*
X21750000Y-13500000D03*
X21750000Y-12000000D03*
X21750000Y-10500000D03*
X21750000Y-9000000D03*
X21750000Y-7500000D03*
X21750000Y-6000000D03*
D26*
X12860000Y-11650000D03*
X12860000Y-12750000D03*
X13410000Y-11100000D03*
X13410000Y-12200000D03*
X13410000Y-13300000D03*
X13960000Y-11650000D03*
D27*
X13960000Y-12200000D03*
D26*
X13960000Y-12750000D03*
X14510000Y-11100000D03*
X14510000Y-12200000D03*
X14510000Y-13300000D03*
X15060000Y-11650000D03*
X15060000Y-12750000D03*
%TD*%
D21*
%TO.C,J1*%
X20000000Y-42000000D03*
D22*
X22540000Y-42000000D03*
X25080000Y-42000000D03*
X27620000Y-42000000D03*
X30160000Y-42000000D03*
X32700000Y-42000000D03*
%TD*%
D28*
%TO.C,U3*%
X35250000Y-23600000D03*
D29*
X35250000Y-24700000D03*
X35250000Y-25800000D03*
X35250000Y-26900000D03*
X35250000Y-28000000D03*
X35250000Y-29100000D03*
X35250000Y-30200000D03*
X35250000Y-31300000D03*
D28*
X35250000Y-32400000D03*
X44750000Y-32400000D03*
D29*
X44750000Y-31300000D03*
X44750000Y-30200000D03*
X44750000Y-29100000D03*
X44750000Y-28000000D03*
X44750000Y-26900000D03*
X44750000Y-25800000D03*
X44750000Y-24700000D03*
D28*
X44750000Y-23600000D03*
%TD*%
M02*
