%TF.GenerationSoftware,KiCad,Pcbnew,9.0.8+dfsg-1*%
%TF.CreationDate,2026-08-06T00:05:25+05:30*%
%TF.ProjectId,v_c3_flight_final,765f6333-5f66-46c6-9967-68745f66696e,rev?*%
%TF.SameCoordinates,Original*%
%TF.FileFunction,Other,Comment*%
%FSLAX46Y46*%
G04 Gerber Fmt 4.6, Leading zero omitted, Abs format (unit mm)*
G04 Created by KiCad (PCBNEW 9.0.8+dfsg-1) date 2026-08-06 00:05:25*
%MOMM*%
%LPD*%
G01*
G04 APERTURE LIST*
%ADD10C,0.150000*%
%ADD11C,0.100000*%
G04 APERTURE END LIST*
D10*
X15238095Y-4169104D02*
X15714285Y-4169104D01*
X15142857Y-4454819D02*
X15476190Y-3454819D01*
X15476190Y-3454819D02*
X15809523Y-4454819D01*
X16142857Y-3788152D02*
X16142857Y-4454819D01*
X16142857Y-3883390D02*
X16190476Y-3835771D01*
X16190476Y-3835771D02*
X16285714Y-3788152D01*
X16285714Y-3788152D02*
X16428571Y-3788152D01*
X16428571Y-3788152D02*
X16523809Y-3835771D01*
X16523809Y-3835771D02*
X16571428Y-3931009D01*
X16571428Y-3931009D02*
X16571428Y-4454819D01*
X16904762Y-3788152D02*
X17285714Y-3788152D01*
X17047619Y-3454819D02*
X17047619Y-4311961D01*
X17047619Y-4311961D02*
X17095238Y-4407200D01*
X17095238Y-4407200D02*
X17190476Y-4454819D01*
X17190476Y-4454819D02*
X17285714Y-4454819D01*
X18000000Y-4407200D02*
X17904762Y-4454819D01*
X17904762Y-4454819D02*
X17714286Y-4454819D01*
X17714286Y-4454819D02*
X17619048Y-4407200D01*
X17619048Y-4407200D02*
X17571429Y-4311961D01*
X17571429Y-4311961D02*
X17571429Y-3931009D01*
X17571429Y-3931009D02*
X17619048Y-3835771D01*
X17619048Y-3835771D02*
X17714286Y-3788152D01*
X17714286Y-3788152D02*
X17904762Y-3788152D01*
X17904762Y-3788152D02*
X18000000Y-3835771D01*
X18000000Y-3835771D02*
X18047619Y-3931009D01*
X18047619Y-3931009D02*
X18047619Y-4026247D01*
X18047619Y-4026247D02*
X17571429Y-4121485D01*
X18476191Y-3788152D02*
X18476191Y-4454819D01*
X18476191Y-3883390D02*
X18523810Y-3835771D01*
X18523810Y-3835771D02*
X18619048Y-3788152D01*
X18619048Y-3788152D02*
X18761905Y-3788152D01*
X18761905Y-3788152D02*
X18857143Y-3835771D01*
X18857143Y-3835771D02*
X18904762Y-3931009D01*
X18904762Y-3931009D02*
X18904762Y-4454819D01*
X19380953Y-3788152D02*
X19380953Y-4454819D01*
X19380953Y-3883390D02*
X19428572Y-3835771D01*
X19428572Y-3835771D02*
X19523810Y-3788152D01*
X19523810Y-3788152D02*
X19666667Y-3788152D01*
X19666667Y-3788152D02*
X19761905Y-3835771D01*
X19761905Y-3835771D02*
X19809524Y-3931009D01*
X19809524Y-3931009D02*
X19809524Y-4454819D01*
X20714286Y-4454819D02*
X20714286Y-3931009D01*
X20714286Y-3931009D02*
X20666667Y-3835771D01*
X20666667Y-3835771D02*
X20571429Y-3788152D01*
X20571429Y-3788152D02*
X20380953Y-3788152D01*
X20380953Y-3788152D02*
X20285715Y-3835771D01*
X20714286Y-4407200D02*
X20619048Y-4454819D01*
X20619048Y-4454819D02*
X20380953Y-4454819D01*
X20380953Y-4454819D02*
X20285715Y-4407200D01*
X20285715Y-4407200D02*
X20238096Y-4311961D01*
X20238096Y-4311961D02*
X20238096Y-4216723D01*
X20238096Y-4216723D02*
X20285715Y-4121485D01*
X20285715Y-4121485D02*
X20380953Y-4073866D01*
X20380953Y-4073866D02*
X20619048Y-4073866D01*
X20619048Y-4073866D02*
X20714286Y-4026247D01*
D11*
X29061904Y-2526109D02*
X28823809Y-2526109D01*
X28823809Y-2526109D02*
X28800000Y-2764204D01*
X28800000Y-2764204D02*
X28823809Y-2740395D01*
X28823809Y-2740395D02*
X28871428Y-2716585D01*
X28871428Y-2716585D02*
X28990476Y-2716585D01*
X28990476Y-2716585D02*
X29038095Y-2740395D01*
X29038095Y-2740395D02*
X29061904Y-2764204D01*
X29061904Y-2764204D02*
X29085714Y-2811823D01*
X29085714Y-2811823D02*
X29085714Y-2930871D01*
X29085714Y-2930871D02*
X29061904Y-2978490D01*
X29061904Y-2978490D02*
X29038095Y-3002300D01*
X29038095Y-3002300D02*
X28990476Y-3026109D01*
X28990476Y-3026109D02*
X28871428Y-3026109D01*
X28871428Y-3026109D02*
X28823809Y-3002300D01*
X28823809Y-3002300D02*
X28800000Y-2978490D01*
X29680951Y-3026109D02*
X29680951Y-2692776D01*
X29680951Y-2740395D02*
X29704761Y-2716585D01*
X29704761Y-2716585D02*
X29752380Y-2692776D01*
X29752380Y-2692776D02*
X29823808Y-2692776D01*
X29823808Y-2692776D02*
X29871427Y-2716585D01*
X29871427Y-2716585D02*
X29895237Y-2764204D01*
X29895237Y-2764204D02*
X29895237Y-3026109D01*
X29895237Y-2764204D02*
X29919046Y-2716585D01*
X29919046Y-2716585D02*
X29966665Y-2692776D01*
X29966665Y-2692776D02*
X30038094Y-2692776D01*
X30038094Y-2692776D02*
X30085713Y-2716585D01*
X30085713Y-2716585D02*
X30109523Y-2764204D01*
X30109523Y-2764204D02*
X30109523Y-3026109D01*
X30347618Y-3026109D02*
X30347618Y-2692776D01*
X30347618Y-2740395D02*
X30371428Y-2716585D01*
X30371428Y-2716585D02*
X30419047Y-2692776D01*
X30419047Y-2692776D02*
X30490475Y-2692776D01*
X30490475Y-2692776D02*
X30538094Y-2716585D01*
X30538094Y-2716585D02*
X30561904Y-2764204D01*
X30561904Y-2764204D02*
X30561904Y-3026109D01*
X30561904Y-2764204D02*
X30585713Y-2716585D01*
X30585713Y-2716585D02*
X30633332Y-2692776D01*
X30633332Y-2692776D02*
X30704761Y-2692776D01*
X30704761Y-2692776D02*
X30752380Y-2716585D01*
X30752380Y-2716585D02*
X30776190Y-2764204D01*
X30776190Y-2764204D02*
X30776190Y-3026109D01*
X25526109Y1161904D02*
X25526109Y923809D01*
X25526109Y923809D02*
X25764204Y900000D01*
X25764204Y900000D02*
X25740395Y923809D01*
X25740395Y923809D02*
X25716585Y971428D01*
X25716585Y971428D02*
X25716585Y1090476D01*
X25716585Y1090476D02*
X25740395Y1138095D01*
X25740395Y1138095D02*
X25764204Y1161904D01*
X25764204Y1161904D02*
X25811823Y1185714D01*
X25811823Y1185714D02*
X25930871Y1185714D01*
X25930871Y1185714D02*
X25978490Y1161904D01*
X25978490Y1161904D02*
X26002300Y1138095D01*
X26002300Y1138095D02*
X26026109Y1090476D01*
X26026109Y1090476D02*
X26026109Y971428D01*
X26026109Y971428D02*
X26002300Y923809D01*
X26002300Y923809D02*
X25978490Y900000D01*
X26026109Y1780951D02*
X25692776Y1780951D01*
X25740395Y1780951D02*
X25716585Y1804761D01*
X25716585Y1804761D02*
X25692776Y1852380D01*
X25692776Y1852380D02*
X25692776Y1923808D01*
X25692776Y1923808D02*
X25716585Y1971427D01*
X25716585Y1971427D02*
X25764204Y1995237D01*
X25764204Y1995237D02*
X26026109Y1995237D01*
X25764204Y1995237D02*
X25716585Y2019046D01*
X25716585Y2019046D02*
X25692776Y2066665D01*
X25692776Y2066665D02*
X25692776Y2138094D01*
X25692776Y2138094D02*
X25716585Y2185713D01*
X25716585Y2185713D02*
X25764204Y2209523D01*
X25764204Y2209523D02*
X26026109Y2209523D01*
X26026109Y2447618D02*
X25692776Y2447618D01*
X25740395Y2447618D02*
X25716585Y2471428D01*
X25716585Y2471428D02*
X25692776Y2519047D01*
X25692776Y2519047D02*
X25692776Y2590475D01*
X25692776Y2590475D02*
X25716585Y2638094D01*
X25716585Y2638094D02*
X25764204Y2661904D01*
X25764204Y2661904D02*
X26026109Y2661904D01*
X25764204Y2661904D02*
X25716585Y2685713D01*
X25716585Y2685713D02*
X25692776Y2733332D01*
X25692776Y2733332D02*
X25692776Y2804761D01*
X25692776Y2804761D02*
X25716585Y2852380D01*
X25716585Y2852380D02*
X25764204Y2876190D01*
X25764204Y2876190D02*
X26026109Y2876190D01*
D10*
X11928571Y1545180D02*
X11928571Y2545180D01*
X12499999Y1545180D02*
X12071428Y2116609D01*
X12499999Y2545180D02*
X11928571Y1973752D01*
X12928571Y2068990D02*
X13261904Y2068990D01*
X13404761Y1545180D02*
X12928571Y1545180D01*
X12928571Y1545180D02*
X12928571Y2545180D01*
X12928571Y2545180D02*
X13404761Y2545180D01*
X13833333Y2068990D02*
X14166666Y2068990D01*
X14309523Y1545180D02*
X13833333Y1545180D01*
X13833333Y1545180D02*
X13833333Y2545180D01*
X13833333Y2545180D02*
X14309523Y2545180D01*
X14738095Y1545180D02*
X14738095Y2545180D01*
X14738095Y2545180D02*
X15119047Y2545180D01*
X15119047Y2545180D02*
X15214285Y2497561D01*
X15214285Y2497561D02*
X15261904Y2449942D01*
X15261904Y2449942D02*
X15309523Y2354704D01*
X15309523Y2354704D02*
X15309523Y2211847D01*
X15309523Y2211847D02*
X15261904Y2116609D01*
X15261904Y2116609D02*
X15214285Y2068990D01*
X15214285Y2068990D02*
X15119047Y2021371D01*
X15119047Y2021371D02*
X14738095Y2021371D01*
X15738095Y1926133D02*
X16500000Y1926133D01*
X17166666Y2545180D02*
X17357142Y2545180D01*
X17357142Y2545180D02*
X17452380Y2497561D01*
X17452380Y2497561D02*
X17547618Y2402323D01*
X17547618Y2402323D02*
X17595237Y2211847D01*
X17595237Y2211847D02*
X17595237Y1878514D01*
X17595237Y1878514D02*
X17547618Y1688038D01*
X17547618Y1688038D02*
X17452380Y1592800D01*
X17452380Y1592800D02*
X17357142Y1545180D01*
X17357142Y1545180D02*
X17166666Y1545180D01*
X17166666Y1545180D02*
X17071428Y1592800D01*
X17071428Y1592800D02*
X16976190Y1688038D01*
X16976190Y1688038D02*
X16928571Y1878514D01*
X16928571Y1878514D02*
X16928571Y2211847D01*
X16928571Y2211847D02*
X16976190Y2402323D01*
X16976190Y2402323D02*
X17071428Y2497561D01*
X17071428Y2497561D02*
X17166666Y2545180D01*
X18023809Y2545180D02*
X18023809Y1735657D01*
X18023809Y1735657D02*
X18071428Y1640419D01*
X18071428Y1640419D02*
X18119047Y1592800D01*
X18119047Y1592800D02*
X18214285Y1545180D01*
X18214285Y1545180D02*
X18404761Y1545180D01*
X18404761Y1545180D02*
X18499999Y1592800D01*
X18499999Y1592800D02*
X18547618Y1640419D01*
X18547618Y1640419D02*
X18595237Y1735657D01*
X18595237Y1735657D02*
X18595237Y2545180D01*
X18928571Y2545180D02*
X19499999Y2545180D01*
X19214285Y1545180D02*
X19214285Y2545180D01*
X20500000Y2545180D02*
X21166666Y2545180D01*
X21166666Y2545180D02*
X20500000Y1545180D01*
X20500000Y1545180D02*
X21166666Y1545180D01*
X21738095Y2545180D02*
X21928571Y2545180D01*
X21928571Y2545180D02*
X22023809Y2497561D01*
X22023809Y2497561D02*
X22119047Y2402323D01*
X22119047Y2402323D02*
X22166666Y2211847D01*
X22166666Y2211847D02*
X22166666Y1878514D01*
X22166666Y1878514D02*
X22119047Y1688038D01*
X22119047Y1688038D02*
X22023809Y1592800D01*
X22023809Y1592800D02*
X21928571Y1545180D01*
X21928571Y1545180D02*
X21738095Y1545180D01*
X21738095Y1545180D02*
X21642857Y1592800D01*
X21642857Y1592800D02*
X21547619Y1688038D01*
X21547619Y1688038D02*
X21500000Y1878514D01*
X21500000Y1878514D02*
X21500000Y2211847D01*
X21500000Y2211847D02*
X21547619Y2402323D01*
X21547619Y2402323D02*
X21642857Y2497561D01*
X21642857Y2497561D02*
X21738095Y2545180D01*
X22595238Y1545180D02*
X22595238Y2545180D01*
X22595238Y2545180D02*
X23166666Y1545180D01*
X23166666Y1545180D02*
X23166666Y2545180D01*
X23642857Y2068990D02*
X23976190Y2068990D01*
X24119047Y1545180D02*
X23642857Y1545180D01*
X23642857Y1545180D02*
X23642857Y2545180D01*
X23642857Y2545180D02*
X24119047Y2545180D01*
D11*
%TO.C,U1*%
X4200000Y-3300000D02*
X4400000Y-3100000D01*
X4200000Y-3300000D02*
X4400000Y-3500000D01*
X4200000Y-3300000D02*
X8800000Y-3300000D01*
X8800000Y-3300000D02*
X8600000Y-3100000D01*
X8800000Y-3300000D02*
X8600000Y-3500000D01*
X26300000Y3900000D02*
X26100000Y3700000D01*
X26300000Y3900000D02*
X26500000Y3700000D01*
X26300000Y-700000D02*
X26100000Y-500000D01*
X26300000Y-700000D02*
X26300000Y3900000D01*
X26300000Y-700000D02*
X26500000Y-500000D01*
X27200000Y-3300000D02*
X27400000Y-3100000D01*
X27200000Y-3300000D02*
X27400000Y-3500000D01*
X27200000Y-3300000D02*
X31800000Y-3300000D01*
X31800000Y-3300000D02*
X31600000Y-3100000D01*
X31800000Y-3300000D02*
X31600000Y-3500000D01*
%TD*%
M02*
