%TF.GenerationSoftware,KiCad,Pcbnew,9.0.8+dfsg-1*%
%TF.CreationDate,2026-08-06T00:05:25+05:30*%
%TF.ProjectId,v_c3_flight_final,765f6333-5f66-46c6-9967-68745f66696e,rev?*%
%TF.SameCoordinates,Original*%
%TF.FileFunction,Copper,L2,Inr*%
%TF.FilePolarity,Positive*%
%FSLAX46Y46*%
G04 Gerber Fmt 4.6, Leading zero omitted, Abs format (unit mm)*
G04 Created by KiCad (PCBNEW 9.0.8+dfsg-1) date 2026-08-06 00:05:25*
%MOMM*%
%LPD*%
G01*
G04 APERTURE LIST*
G04 Aperture macros list*
%AMRoundRect*
0 Rectangle with rounded corners*
0 $1 Rounding radius*
0 $2 $3 $4 $5 $6 $7 $8 $9 X,Y pos of 4 corners*
0 Add a 4 corners polygon primitive as box body*
4,1,4,$2,$3,$4,$5,$6,$7,$8,$9,$2,$3,0*
0 Add four circle primitives for the rounded corners*
1,1,$1+$1,$2,$3*
1,1,$1+$1,$4,$5*
1,1,$1+$1,$6,$7*
1,1,$1+$1,$8,$9*
0 Add four rect primitives between the rounded corners*
20,1,$1+$1,$2,$3,$4,$5,0*
20,1,$1+$1,$4,$5,$6,$7,0*
20,1,$1+$1,$6,$7,$8,$9,0*
20,1,$1+$1,$8,$9,$2,$3,0*%
G04 Aperture macros list end*
%TA.AperFunction,ComponentPad*%
%ADD10R,1.700000X1.700000*%
%TD*%
%TA.AperFunction,ComponentPad*%
%ADD11C,1.700000*%
%TD*%
%TA.AperFunction,ComponentPad*%
%ADD12RoundRect,0.250000X-0.750000X-0.750000X0.750000X-0.750000X0.750000X0.750000X-0.750000X0.750000X0*%
%TD*%
%TA.AperFunction,ComponentPad*%
%ADD13C,2.000000*%
%TD*%
%TA.AperFunction,HeatsinkPad*%
%ADD14C,0.600000*%
%TD*%
%TA.AperFunction,ViaPad*%
%ADD15C,0.600000*%
%TD*%
%TA.AperFunction,Conductor*%
%ADD16C,0.200000*%
%TD*%
G04 APERTURE END LIST*
D10*
%TO.N,SOLAR_IN*%
%TO.C,SOLAR*%
X3000000Y-30000000D03*
D11*
%TO.N,GND*%
X3000000Y-32540000D03*
%TD*%
D12*
%TO.N,VCAP*%
%TO.C,C_CAP*%
X6000000Y-7000000D03*
D13*
%TO.N,GND*%
X11000000Y-7000000D03*
%TD*%
D14*
%TO.N,GND*%
%TO.C,U1*%
X17860000Y-13650000D03*
%TO.N,N/C*%
X17860000Y-14750000D03*
X18410000Y-13100000D03*
X18410000Y-14200000D03*
X18410000Y-15300000D03*
X18960000Y-13650000D03*
X18960000Y-14750000D03*
X19510000Y-13100000D03*
X19510000Y-14200000D03*
X19510000Y-15300000D03*
X20060000Y-13650000D03*
X20060000Y-14750000D03*
%TD*%
D10*
%TO.N,GND*%
%TO.C,J1*%
X11000000Y-31000000D03*
D11*
%TO.N,+3V3*%
X11000000Y-33540000D03*
%TO.N,EN*%
X11000000Y-36080000D03*
%TO.N,UART0_TX*%
X11000000Y-38620000D03*
%TO.N,UART0_RX*%
X11000000Y-41160000D03*
%TO.N,N/C*%
X11000000Y-43700000D03*
%TD*%
D10*
%TO.N,GND*%
%TO.C,J2*%
X30000000Y-31000000D03*
D11*
%TO.N,+3V3*%
X30000000Y-33540000D03*
%TO.N,I2C_SDA*%
X30000000Y-36080000D03*
%TO.N,I2C_SCL*%
X30000000Y-38620000D03*
%TD*%
D15*
%TO.N,+3V3*%
X21025000Y-28270000D03*
X13515100Y-7799700D03*
X5757900Y-17500000D03*
X28830400Y-28408000D03*
X40522700Y-7667800D03*
X22827300Y-28271600D03*
X6140600Y-21630600D03*
X7998000Y-7799700D03*
X5637500Y-12221600D03*
X10520000Y-10150000D03*
%TO.N,GND*%
X39489300Y-4299300D03*
X39750000Y-31270800D03*
X31694300Y-21600000D03*
X21830800Y-28239500D03*
X8783600Y-24880700D03*
X12106400Y-10373600D03*
X23237100Y-29801800D03*
X28549900Y-32762400D03*
X4530600Y-13925300D03*
X10301700Y-20897100D03*
X20344600Y-27178700D03*
X41162000Y-28308200D03*
X40542700Y-13601200D03*
%TO.N,SOLAR_IN*%
X6224600Y-13958400D03*
%TO.N,LR_BUSY*%
X21087500Y-10166100D03*
X40249400Y-10166100D03*
%TD*%
D16*
%TO.N,SOLAR_IN*%
X3000000Y-17183000D02*
X3000000Y-30000000D01*
X6224600Y-13958400D02*
X3000000Y-17183000D01*
%TD*%
%TA.AperFunction,Conductor*%
%TO.N,GND*%
G36*
X3959191Y-519407D02*
G01*
X3995155Y-568907D01*
X4000000Y-599500D01*
X4000000Y-6900000D01*
X4400500Y-6900000D01*
X4458691Y-6918907D01*
X4494655Y-6968407D01*
X4499500Y-6999000D01*
X4499500Y-7800016D01*
X4509999Y-7902788D01*
X4510000Y-7902795D01*
X4510001Y-7902797D01*
X4557780Y-8046985D01*
X4565187Y-8069336D01*
X4657285Y-8218652D01*
X4657286Y-8218653D01*
X4657288Y-8218656D01*
X4781344Y-8342712D01*
X4781346Y-8342713D01*
X4781347Y-8342714D01*
X4837252Y-8377196D01*
X4930666Y-8434814D01*
X5097203Y-8489999D01*
X5199991Y-8500500D01*
X6800008Y-8500499D01*
X6800016Y-8500499D01*
X6902788Y-8490000D01*
X6902788Y-8489999D01*
X6902797Y-8489999D01*
X7069334Y-8434814D01*
X7218656Y-8342712D01*
X7243791Y-8317576D01*
X7298304Y-8289798D01*
X7358736Y-8299368D01*
X7383798Y-8317576D01*
X7487702Y-8421481D01*
X7487706Y-8421484D01*
X7487711Y-8421489D01*
X7549934Y-8463065D01*
X7618814Y-8509090D01*
X7618825Y-8509096D01*
X7672638Y-8531385D01*
X7764503Y-8569437D01*
X7919158Y-8600200D01*
X7919159Y-8600200D01*
X8076841Y-8600200D01*
X8076842Y-8600200D01*
X8231497Y-8569437D01*
X8377179Y-8509094D01*
X8508289Y-8421489D01*
X8619789Y-8309989D01*
X8707394Y-8178879D01*
X8767737Y-8033197D01*
X8798500Y-7878542D01*
X8798500Y-7720858D01*
X8767737Y-7566203D01*
X8707394Y-7420521D01*
X8707393Y-7420519D01*
X8707390Y-7420514D01*
X8662647Y-7353553D01*
X8619789Y-7289411D01*
X8508289Y-7177911D01*
X8418710Y-7118056D01*
X8377185Y-7090309D01*
X8372894Y-7088016D01*
X8373457Y-7086960D01*
X8331034Y-7050724D01*
X8316752Y-6991229D01*
X8340169Y-6934702D01*
X8392339Y-6902735D01*
X8415447Y-6900000D01*
X9401000Y-6900000D01*
X9459191Y-6918907D01*
X9495155Y-6968407D01*
X9500000Y-6999000D01*
X9500000Y-7118056D01*
X9536934Y-7351252D01*
X9536935Y-7351256D01*
X9609892Y-7575793D01*
X9609894Y-7575796D01*
X9717084Y-7786169D01*
X9777339Y-7869105D01*
X10517037Y-7129408D01*
X10534075Y-7192993D01*
X10599901Y-7307007D01*
X10692993Y-7400099D01*
X10807007Y-7465925D01*
X10870590Y-7482962D01*
X10130893Y-8222659D01*
X10213825Y-8282913D01*
X10213829Y-8282915D01*
X10424203Y-8390105D01*
X10424206Y-8390107D01*
X10648743Y-8463064D01*
X10648747Y-8463065D01*
X10881944Y-8500000D01*
X11118056Y-8500000D01*
X11351252Y-8463065D01*
X11351256Y-8463064D01*
X11575793Y-8390107D01*
X11575796Y-8390105D01*
X11786170Y-8282915D01*
X11786176Y-8282911D01*
X11869105Y-8222659D01*
X11869105Y-8222658D01*
X11129409Y-7482962D01*
X11192993Y-7465925D01*
X11307007Y-7400099D01*
X11400099Y-7307007D01*
X11465925Y-7192993D01*
X11482962Y-7129408D01*
X12222658Y-7869105D01*
X12222659Y-7869105D01*
X12282911Y-7786176D01*
X12282915Y-7786170D01*
X12390105Y-7575796D01*
X12390107Y-7575793D01*
X12463064Y-7351256D01*
X12463065Y-7351252D01*
X12500000Y-7118056D01*
X12500000Y-6999000D01*
X12518907Y-6940809D01*
X12568407Y-6904845D01*
X12599000Y-6900000D01*
X13097653Y-6900000D01*
X13155844Y-6918907D01*
X13191808Y-6968407D01*
X13191808Y-7029593D01*
X13155844Y-7079093D01*
X13140138Y-7087888D01*
X13140206Y-7088016D01*
X13135914Y-7090309D01*
X13004811Y-7177911D01*
X13004807Y-7177914D01*
X12893314Y-7289407D01*
X12893311Y-7289411D01*
X12805709Y-7420514D01*
X12805703Y-7420525D01*
X12745363Y-7566201D01*
X12745363Y-7566203D01*
X12714600Y-7720855D01*
X12714600Y-7878544D01*
X12745363Y-8033196D01*
X12745363Y-8033198D01*
X12805703Y-8178874D01*
X12805709Y-8178885D01*
X12843310Y-8235157D01*
X12893311Y-8309989D01*
X13004811Y-8421489D01*
X13067034Y-8463065D01*
X13135914Y-8509090D01*
X13135925Y-8509096D01*
X13189738Y-8531385D01*
X13281603Y-8569437D01*
X13436258Y-8600200D01*
X13436259Y-8600200D01*
X13593941Y-8600200D01*
X13593942Y-8600200D01*
X13748597Y-8569437D01*
X13894279Y-8509094D01*
X14025389Y-8421489D01*
X14136889Y-8309989D01*
X14224494Y-8178879D01*
X14284837Y-8033197D01*
X14315600Y-7878542D01*
X14315600Y-7720858D01*
X14289363Y-7588955D01*
X39722200Y-7588955D01*
X39722200Y-7746644D01*
X39752963Y-7901296D01*
X39752963Y-7901298D01*
X39813303Y-8046974D01*
X39813309Y-8046985D01*
X39828244Y-8069336D01*
X39900911Y-8178089D01*
X40012411Y-8289589D01*
X40090576Y-8341817D01*
X40143514Y-8377190D01*
X40143525Y-8377196D01*
X40174691Y-8390105D01*
X40289203Y-8437537D01*
X40443858Y-8468300D01*
X40443859Y-8468300D01*
X40601541Y-8468300D01*
X40601542Y-8468300D01*
X40756197Y-8437537D01*
X40901879Y-8377194D01*
X41032989Y-8289589D01*
X41144489Y-8178089D01*
X41232094Y-8046979D01*
X41292437Y-7901297D01*
X41323200Y-7746642D01*
X41323200Y-7588958D01*
X41292437Y-7434303D01*
X41258038Y-7351256D01*
X41232096Y-7288625D01*
X41232090Y-7288614D01*
X41168197Y-7192993D01*
X41144489Y-7157511D01*
X41032989Y-7046011D01*
X40964129Y-7000000D01*
X40901885Y-6958409D01*
X40901874Y-6958403D01*
X40756197Y-6898063D01*
X40601544Y-6867300D01*
X40601542Y-6867300D01*
X40443858Y-6867300D01*
X40443855Y-6867300D01*
X40289203Y-6898063D01*
X40289201Y-6898063D01*
X40143525Y-6958403D01*
X40143514Y-6958409D01*
X40012411Y-7046011D01*
X40012407Y-7046014D01*
X39900914Y-7157507D01*
X39900911Y-7157511D01*
X39813309Y-7288614D01*
X39813303Y-7288625D01*
X39752963Y-7434301D01*
X39752963Y-7434303D01*
X39722200Y-7588955D01*
X14289363Y-7588955D01*
X14284837Y-7566203D01*
X14224494Y-7420521D01*
X14224493Y-7420519D01*
X14224490Y-7420514D01*
X14179747Y-7353553D01*
X14136889Y-7289411D01*
X14025389Y-7177911D01*
X13935810Y-7118056D01*
X13894285Y-7090309D01*
X13889994Y-7088016D01*
X13890557Y-7086960D01*
X13848134Y-7050724D01*
X13833852Y-6991229D01*
X13857269Y-6934702D01*
X13909439Y-6902735D01*
X13932547Y-6900000D01*
X31999999Y-6900000D01*
X32000000Y-6900000D01*
X32000000Y-599500D01*
X32018907Y-541309D01*
X32068407Y-505345D01*
X32099000Y-500500D01*
X44400500Y-500500D01*
X44458691Y-519407D01*
X44494655Y-568907D01*
X44499500Y-599500D01*
X44499500Y-34400500D01*
X44480593Y-34458691D01*
X44431093Y-34494655D01*
X44400500Y-34499500D01*
X31166491Y-34499500D01*
X31108300Y-34480593D01*
X31072336Y-34431093D01*
X31072336Y-34369907D01*
X31086398Y-34342310D01*
X31155049Y-34247819D01*
X31155051Y-34247816D01*
X31251557Y-34058412D01*
X31317246Y-33856243D01*
X31327565Y-33791095D01*
X31350500Y-33646290D01*
X31350500Y-33433709D01*
X31317247Y-33223761D01*
X31317246Y-33223757D01*
X31251557Y-33021588D01*
X31155051Y-32832184D01*
X31155049Y-32832180D01*
X31030108Y-32660213D01*
X31030106Y-32660211D01*
X31030104Y-32660208D01*
X30883483Y-32513587D01*
X30855708Y-32459073D01*
X30865279Y-32398641D01*
X30908544Y-32355376D01*
X30942909Y-32345153D01*
X30957370Y-32343598D01*
X30957381Y-32343596D01*
X31092088Y-32293353D01*
X31092090Y-32293352D01*
X31207184Y-32207192D01*
X31207192Y-32207184D01*
X31293352Y-32092090D01*
X31293353Y-32092088D01*
X31343596Y-31957381D01*
X31343598Y-31957370D01*
X31350000Y-31897824D01*
X31350000Y-31250001D01*
X31349999Y-31250000D01*
X30433012Y-31250000D01*
X30465925Y-31192993D01*
X30500000Y-31065826D01*
X30500000Y-30934174D01*
X30465925Y-30807007D01*
X30433012Y-30750000D01*
X31349999Y-30750000D01*
X31350000Y-30749999D01*
X31350000Y-30102175D01*
X31343598Y-30042629D01*
X31343596Y-30042618D01*
X31293353Y-29907911D01*
X31293352Y-29907909D01*
X31207192Y-29792815D01*
X31207184Y-29792807D01*
X31092090Y-29706647D01*
X31092088Y-29706646D01*
X30957381Y-29656403D01*
X30957370Y-29656401D01*
X30897824Y-29650000D01*
X30250001Y-29650000D01*
X30250000Y-29650001D01*
X30250000Y-30566988D01*
X30192993Y-30534075D01*
X30065826Y-30500000D01*
X29934174Y-30500000D01*
X29807007Y-30534075D01*
X29750000Y-30566988D01*
X29750000Y-29650001D01*
X29749999Y-29650000D01*
X29102176Y-29650000D01*
X29042629Y-29656401D01*
X29042618Y-29656403D01*
X28907911Y-29706646D01*
X28907909Y-29706647D01*
X28792815Y-29792807D01*
X28792807Y-29792815D01*
X28706647Y-29907909D01*
X28706646Y-29907911D01*
X28656403Y-30042618D01*
X28656401Y-30042629D01*
X28650000Y-30102175D01*
X28650000Y-30749999D01*
X28650001Y-30750000D01*
X29566988Y-30750000D01*
X29534075Y-30807007D01*
X29500000Y-30934174D01*
X29500000Y-31065826D01*
X29534075Y-31192993D01*
X29566988Y-31250000D01*
X28650001Y-31250000D01*
X28650000Y-31250001D01*
X28650000Y-31897824D01*
X28649999Y-31897824D01*
X28656401Y-31957370D01*
X28656403Y-31957381D01*
X28706646Y-32092088D01*
X28706647Y-32092090D01*
X28792807Y-32207184D01*
X28792815Y-32207192D01*
X28907909Y-32293352D01*
X28907911Y-32293353D01*
X29042618Y-32343596D01*
X29042630Y-32343598D01*
X29057090Y-32345153D01*
X29112927Y-32370171D01*
X29143395Y-32423231D01*
X29136856Y-32484066D01*
X29116514Y-32513589D01*
X28969897Y-32660206D01*
X28969892Y-32660212D01*
X28844950Y-32832180D01*
X28844948Y-32832184D01*
X28748443Y-33021587D01*
X28682752Y-33223761D01*
X28649500Y-33433709D01*
X28649500Y-33646290D01*
X28682752Y-33856238D01*
X28748443Y-34058412D01*
X28844948Y-34247815D01*
X28844950Y-34247819D01*
X28913602Y-34342310D01*
X28932509Y-34400500D01*
X28913601Y-34458691D01*
X28864101Y-34494655D01*
X28833509Y-34499500D01*
X12166491Y-34499500D01*
X12108300Y-34480593D01*
X12072336Y-34431093D01*
X12072336Y-34369907D01*
X12086398Y-34342310D01*
X12155049Y-34247819D01*
X12155051Y-34247816D01*
X12251557Y-34058412D01*
X12317246Y-33856243D01*
X12327565Y-33791095D01*
X12350500Y-33646290D01*
X12350500Y-33433709D01*
X12317247Y-33223761D01*
X12317246Y-33223757D01*
X12251557Y-33021588D01*
X12155051Y-32832184D01*
X12155049Y-32832180D01*
X12030108Y-32660213D01*
X12030106Y-32660211D01*
X12030104Y-32660208D01*
X11883483Y-32513587D01*
X11855708Y-32459073D01*
X11865279Y-32398641D01*
X11908544Y-32355376D01*
X11942909Y-32345153D01*
X11957370Y-32343598D01*
X11957381Y-32343596D01*
X12092088Y-32293353D01*
X12092090Y-32293352D01*
X12207184Y-32207192D01*
X12207192Y-32207184D01*
X12293352Y-32092090D01*
X12293353Y-32092088D01*
X12343596Y-31957381D01*
X12343598Y-31957370D01*
X12350000Y-31897824D01*
X12350000Y-31250001D01*
X12349999Y-31250000D01*
X11433012Y-31250000D01*
X11465925Y-31192993D01*
X11500000Y-31065826D01*
X11500000Y-30934174D01*
X11465925Y-30807007D01*
X11433012Y-30750000D01*
X12349999Y-30750000D01*
X12350000Y-30749999D01*
X12350000Y-30102175D01*
X12343598Y-30042629D01*
X12343596Y-30042618D01*
X12293353Y-29907911D01*
X12293352Y-29907909D01*
X12207192Y-29792815D01*
X12207184Y-29792807D01*
X12092090Y-29706647D01*
X12092088Y-29706646D01*
X11957381Y-29656403D01*
X11957370Y-29656401D01*
X11897824Y-29650000D01*
X11250001Y-29650000D01*
X11250000Y-29650001D01*
X11250000Y-30566988D01*
X11192993Y-30534075D01*
X11065826Y-30500000D01*
X10934174Y-30500000D01*
X10807007Y-30534075D01*
X10750000Y-30566988D01*
X10750000Y-29650001D01*
X10749999Y-29650000D01*
X10102176Y-29650000D01*
X10042629Y-29656401D01*
X10042618Y-29656403D01*
X9907911Y-29706646D01*
X9907909Y-29706647D01*
X9792815Y-29792807D01*
X9792807Y-29792815D01*
X9706647Y-29907909D01*
X9706646Y-29907911D01*
X9656403Y-30042618D01*
X9656401Y-30042629D01*
X9650000Y-30102175D01*
X9650000Y-30749999D01*
X9650001Y-30750000D01*
X10566988Y-30750000D01*
X10534075Y-30807007D01*
X10500000Y-30934174D01*
X10500000Y-31065826D01*
X10534075Y-31192993D01*
X10566988Y-31250000D01*
X9650001Y-31250000D01*
X9650000Y-31250001D01*
X9650000Y-31897824D01*
X9649999Y-31897824D01*
X9656401Y-31957370D01*
X9656403Y-31957381D01*
X9706646Y-32092088D01*
X9706647Y-32092090D01*
X9792807Y-32207184D01*
X9792815Y-32207192D01*
X9907909Y-32293352D01*
X9907911Y-32293353D01*
X10042618Y-32343596D01*
X10042630Y-32343598D01*
X10057090Y-32345153D01*
X10112927Y-32370171D01*
X10143395Y-32423231D01*
X10136856Y-32484066D01*
X10116514Y-32513589D01*
X9969897Y-32660206D01*
X9969892Y-32660212D01*
X9844950Y-32832180D01*
X9844948Y-32832184D01*
X9748443Y-33021587D01*
X9682752Y-33223761D01*
X9649500Y-33433709D01*
X9649500Y-33646290D01*
X9682752Y-33856238D01*
X9748443Y-34058412D01*
X9844948Y-34247815D01*
X9844950Y-34247819D01*
X9913602Y-34342310D01*
X9932509Y-34400500D01*
X9913601Y-34458691D01*
X9864101Y-34494655D01*
X9833509Y-34499500D01*
X599500Y-34499500D01*
X541309Y-34480593D01*
X505345Y-34431093D01*
X500500Y-34400500D01*
X500500Y-29102129D01*
X1649500Y-29102129D01*
X1649500Y-30897866D01*
X1649501Y-30897870D01*
X1655908Y-30957480D01*
X1655909Y-30957485D01*
X1706202Y-31092329D01*
X1792450Y-31207541D01*
X1792454Y-31207546D01*
X1792457Y-31207548D01*
X1792458Y-31207549D01*
X1907670Y-31293797D01*
X2042511Y-31344089D01*
X2042512Y-31344089D01*
X2042517Y-31344091D01*
X2102127Y-31350500D01*
X2137026Y-31350499D01*
X2195215Y-31369405D01*
X2227783Y-31414229D01*
X2870591Y-32057037D01*
X2807007Y-32074075D01*
X2692993Y-32139901D01*
X2599901Y-32232993D01*
X2534075Y-32347007D01*
X2517037Y-32410591D01*
X1884728Y-31778282D01*
X1845378Y-31832442D01*
X1845376Y-31832446D01*
X1748904Y-32021784D01*
X1683240Y-32223878D01*
X1650000Y-32433749D01*
X1650000Y-32646250D01*
X1683240Y-32856121D01*
X1748904Y-33058215D01*
X1845376Y-33247553D01*
X1845380Y-33247559D01*
X1884728Y-33301716D01*
X1884729Y-33301716D01*
X2517037Y-32669407D01*
X2534075Y-32732993D01*
X2599901Y-32847007D01*
X2692993Y-32940099D01*
X2807007Y-33005925D01*
X2870589Y-33022962D01*
X2238282Y-33655269D01*
X2238282Y-33655270D01*
X2292440Y-33694619D01*
X2292446Y-33694623D01*
X2481784Y-33791095D01*
X2683878Y-33856759D01*
X2893750Y-33890000D01*
X3106250Y-33890000D01*
X3316121Y-33856759D01*
X3518215Y-33791095D01*
X3707556Y-33694620D01*
X3761716Y-33655270D01*
X3129408Y-33022962D01*
X3192993Y-33005925D01*
X3307007Y-32940099D01*
X3400099Y-32847007D01*
X3465925Y-32732993D01*
X3482962Y-32669408D01*
X4115270Y-33301716D01*
X4154620Y-33247556D01*
X4251095Y-33058215D01*
X4316759Y-32856121D01*
X4350000Y-32646250D01*
X4350000Y-32433749D01*
X4316759Y-32223878D01*
X4251095Y-32021784D01*
X4154623Y-31832446D01*
X4154619Y-31832440D01*
X4115270Y-31778282D01*
X4115269Y-31778282D01*
X3482962Y-32410589D01*
X3465925Y-32347007D01*
X3400099Y-32232993D01*
X3307007Y-32139901D01*
X3192993Y-32074075D01*
X3129407Y-32057037D01*
X3775366Y-31411079D01*
X3778562Y-31397771D01*
X3825088Y-31358035D01*
X3862972Y-31350499D01*
X3897872Y-31350499D01*
X3957483Y-31344091D01*
X4024907Y-31318943D01*
X4092329Y-31293797D01*
X4092329Y-31293796D01*
X4092331Y-31293796D01*
X4207546Y-31207546D01*
X4293796Y-31092331D01*
X4344091Y-30957483D01*
X4350500Y-30897873D01*
X4350499Y-29907911D01*
X4350499Y-29102133D01*
X4350499Y-29102128D01*
X4344091Y-29042517D01*
X4339344Y-29029789D01*
X4293797Y-28907670D01*
X4207549Y-28792458D01*
X4207548Y-28792457D01*
X4207546Y-28792454D01*
X4191296Y-28780289D01*
X4092329Y-28706202D01*
X3957488Y-28655910D01*
X3957483Y-28655909D01*
X3957481Y-28655908D01*
X3957477Y-28655908D01*
X3926249Y-28652550D01*
X3897873Y-28649500D01*
X3897870Y-28649500D01*
X3699500Y-28649500D01*
X3641309Y-28630593D01*
X3605345Y-28581093D01*
X3600500Y-28550500D01*
X3600500Y-28191155D01*
X20224500Y-28191155D01*
X20224500Y-28348844D01*
X20245008Y-28451945D01*
X20251950Y-28486844D01*
X20255263Y-28503496D01*
X20255263Y-28503498D01*
X20315603Y-28649174D01*
X20315609Y-28649185D01*
X20353709Y-28706204D01*
X20403211Y-28780289D01*
X20514711Y-28891789D01*
X20592876Y-28944017D01*
X20645814Y-28979390D01*
X20645825Y-28979396D01*
X20699638Y-29001685D01*
X20791503Y-29039737D01*
X20946158Y-29070500D01*
X20946159Y-29070500D01*
X21103841Y-29070500D01*
X21103842Y-29070500D01*
X21258497Y-29039737D01*
X21404179Y-28979394D01*
X21535289Y-28891789D01*
X21646789Y-28780289D01*
X21734394Y-28649179D01*
X21794737Y-28503497D01*
X21825500Y-28348842D01*
X21825500Y-28192755D01*
X22026800Y-28192755D01*
X22026800Y-28192758D01*
X22026800Y-28350442D01*
X22053931Y-28486840D01*
X22057563Y-28505096D01*
X22057563Y-28505098D01*
X22117903Y-28650774D01*
X22117909Y-28650785D01*
X22154940Y-28706204D01*
X22205511Y-28781889D01*
X22317011Y-28893389D01*
X22395176Y-28945617D01*
X22448114Y-28980990D01*
X22448125Y-28980996D01*
X22501938Y-29003285D01*
X22593803Y-29041337D01*
X22748458Y-29072100D01*
X22748459Y-29072100D01*
X22906141Y-29072100D01*
X22906142Y-29072100D01*
X23060797Y-29041337D01*
X23206479Y-28980994D01*
X23337589Y-28893389D01*
X23449089Y-28781889D01*
X23536694Y-28650779D01*
X23597037Y-28505097D01*
X23627800Y-28350442D01*
X23627800Y-28329155D01*
X28029900Y-28329155D01*
X28029900Y-28486844D01*
X28033213Y-28503497D01*
X28054137Y-28608691D01*
X28060663Y-28641496D01*
X28060663Y-28641498D01*
X28121003Y-28787174D01*
X28121009Y-28787185D01*
X28173712Y-28866059D01*
X28208611Y-28918289D01*
X28320111Y-29029789D01*
X28383434Y-29072100D01*
X28451214Y-29117390D01*
X28451225Y-29117396D01*
X28505038Y-29139685D01*
X28596903Y-29177737D01*
X28751558Y-29208500D01*
X28751559Y-29208500D01*
X28909241Y-29208500D01*
X28909242Y-29208500D01*
X29063897Y-29177737D01*
X29209579Y-29117394D01*
X29340689Y-29029789D01*
X29452189Y-28918289D01*
X29539794Y-28787179D01*
X29600137Y-28641497D01*
X29630900Y-28486842D01*
X29630900Y-28329158D01*
X29600137Y-28174503D01*
X29539794Y-28028821D01*
X29539793Y-28028819D01*
X29539790Y-28028814D01*
X29504417Y-27975876D01*
X29452189Y-27897711D01*
X29340689Y-27786211D01*
X29288459Y-27751312D01*
X29209585Y-27698609D01*
X29209574Y-27698603D01*
X29063897Y-27638263D01*
X28909244Y-27607500D01*
X28909242Y-27607500D01*
X28751558Y-27607500D01*
X28751555Y-27607500D01*
X28596903Y-27638263D01*
X28596901Y-27638263D01*
X28451225Y-27698603D01*
X28451214Y-27698609D01*
X28320111Y-27786211D01*
X28320107Y-27786214D01*
X28208614Y-27897707D01*
X28208611Y-27897711D01*
X28121009Y-28028814D01*
X28121003Y-28028825D01*
X28060663Y-28174501D01*
X28060663Y-28174503D01*
X28029900Y-28329155D01*
X23627800Y-28329155D01*
X23627800Y-28192758D01*
X23597037Y-28038103D01*
X23536694Y-27892421D01*
X23536693Y-27892419D01*
X23536690Y-27892414D01*
X23501317Y-27839476D01*
X23449089Y-27761311D01*
X23337589Y-27649811D01*
X23274266Y-27607500D01*
X23206485Y-27562209D01*
X23206474Y-27562203D01*
X23060797Y-27501863D01*
X22906144Y-27471100D01*
X22906142Y-27471100D01*
X22748458Y-27471100D01*
X22748455Y-27471100D01*
X22593803Y-27501863D01*
X22593801Y-27501863D01*
X22448125Y-27562203D01*
X22448114Y-27562209D01*
X22317011Y-27649811D01*
X22317007Y-27649814D01*
X22205514Y-27761307D01*
X22205511Y-27761311D01*
X22117909Y-27892414D01*
X22117903Y-27892425D01*
X22057563Y-28038101D01*
X22057563Y-28038103D01*
X22026800Y-28192755D01*
X21825500Y-28192755D01*
X21825500Y-28191158D01*
X21794737Y-28036503D01*
X21737248Y-27897711D01*
X21734396Y-27890825D01*
X21734390Y-27890814D01*
X21699017Y-27837876D01*
X21646789Y-27759711D01*
X21535289Y-27648211D01*
X21474361Y-27607500D01*
X21404185Y-27560609D01*
X21404174Y-27560603D01*
X21258497Y-27500263D01*
X21103844Y-27469500D01*
X21103842Y-27469500D01*
X20946158Y-27469500D01*
X20946155Y-27469500D01*
X20791503Y-27500263D01*
X20791501Y-27500263D01*
X20645825Y-27560603D01*
X20645814Y-27560609D01*
X20514711Y-27648211D01*
X20514707Y-27648214D01*
X20403214Y-27759707D01*
X20403211Y-27759711D01*
X20315609Y-27890814D01*
X20315603Y-27890825D01*
X20255263Y-28036501D01*
X20255263Y-28036503D01*
X20224500Y-28191155D01*
X3600500Y-28191155D01*
X3600500Y-21551755D01*
X5340100Y-21551755D01*
X5340100Y-21709444D01*
X5370863Y-21864096D01*
X5370863Y-21864098D01*
X5431203Y-22009774D01*
X5431209Y-22009785D01*
X5483912Y-22088659D01*
X5518811Y-22140889D01*
X5630311Y-22252389D01*
X5708476Y-22304617D01*
X5761414Y-22339990D01*
X5761425Y-22339996D01*
X5815238Y-22362285D01*
X5907103Y-22400337D01*
X6061758Y-22431100D01*
X6061759Y-22431100D01*
X6219441Y-22431100D01*
X6219442Y-22431100D01*
X6374097Y-22400337D01*
X6519779Y-22339994D01*
X6650889Y-22252389D01*
X6762389Y-22140889D01*
X6849994Y-22009779D01*
X6910337Y-21864097D01*
X6941100Y-21709442D01*
X6941100Y-21551758D01*
X6910337Y-21397103D01*
X6849994Y-21251421D01*
X6849993Y-21251419D01*
X6849990Y-21251414D01*
X6814617Y-21198476D01*
X6762389Y-21120311D01*
X6650889Y-21008811D01*
X6598659Y-20973912D01*
X6519785Y-20921209D01*
X6519774Y-20921203D01*
X6374097Y-20860863D01*
X6219444Y-20830100D01*
X6219442Y-20830100D01*
X6061758Y-20830100D01*
X6061755Y-20830100D01*
X5907103Y-20860863D01*
X5907101Y-20860863D01*
X5761425Y-20921203D01*
X5761414Y-20921209D01*
X5630311Y-21008811D01*
X5630307Y-21008814D01*
X5518814Y-21120307D01*
X5518811Y-21120311D01*
X5431209Y-21251414D01*
X5431203Y-21251425D01*
X5370863Y-21397101D01*
X5370863Y-21397103D01*
X5340100Y-21551755D01*
X3600500Y-21551755D01*
X3600500Y-17472743D01*
X3602968Y-17465145D01*
X3601719Y-17457256D01*
X3612243Y-17436600D01*
X3617262Y-17421155D01*
X4957400Y-17421155D01*
X4957400Y-17578844D01*
X4988163Y-17733496D01*
X4988163Y-17733498D01*
X5048503Y-17879174D01*
X5048509Y-17879185D01*
X5101212Y-17958059D01*
X5136111Y-18010289D01*
X5247611Y-18121789D01*
X5325776Y-18174017D01*
X5378714Y-18209390D01*
X5378725Y-18209396D01*
X5432538Y-18231685D01*
X5524403Y-18269737D01*
X5679058Y-18300500D01*
X5679059Y-18300500D01*
X5836741Y-18300500D01*
X5836742Y-18300500D01*
X5991397Y-18269737D01*
X6137079Y-18209394D01*
X6268189Y-18121789D01*
X6379689Y-18010289D01*
X6467294Y-17879179D01*
X6527637Y-17733497D01*
X6558400Y-17578842D01*
X6558400Y-17421158D01*
X6527637Y-17266503D01*
X6467294Y-17120821D01*
X6467293Y-17120819D01*
X6467290Y-17120814D01*
X6431917Y-17067876D01*
X6379689Y-16989711D01*
X6268189Y-16878211D01*
X6172513Y-16814282D01*
X6137085Y-16790609D01*
X6137074Y-16790603D01*
X5991397Y-16730263D01*
X5836744Y-16699500D01*
X5836742Y-16699500D01*
X5679058Y-16699500D01*
X5679055Y-16699500D01*
X5524403Y-16730263D01*
X5524401Y-16730263D01*
X5378725Y-16790603D01*
X5378714Y-16790609D01*
X5247611Y-16878211D01*
X5247607Y-16878214D01*
X5136114Y-16989707D01*
X5136111Y-16989711D01*
X5048509Y-17120814D01*
X5048503Y-17120825D01*
X4988163Y-17266501D01*
X4988163Y-17266503D01*
X4957400Y-17421155D01*
X3617262Y-17421155D01*
X3619407Y-17414552D01*
X3629496Y-17402739D01*
X3685945Y-17346290D01*
X4962499Y-16069736D01*
X6245000Y-14787234D01*
X6298679Y-14759884D01*
X6298672Y-14759849D01*
X6298799Y-14759823D01*
X6299515Y-14759459D01*
X6302657Y-14759056D01*
X6303441Y-14758900D01*
X6303442Y-14758900D01*
X6458097Y-14728137D01*
X6595665Y-14671155D01*
X17059500Y-14671155D01*
X17059500Y-14828844D01*
X17090263Y-14983496D01*
X17090263Y-14983498D01*
X17150603Y-15129174D01*
X17150609Y-15129185D01*
X17203312Y-15208059D01*
X17238211Y-15260289D01*
X17349711Y-15371789D01*
X17427876Y-15424017D01*
X17480814Y-15459390D01*
X17480825Y-15459396D01*
X17598346Y-15508074D01*
X17644872Y-15547810D01*
X17651925Y-15561653D01*
X17700603Y-15679174D01*
X17700609Y-15679185D01*
X17753312Y-15758059D01*
X17788211Y-15810289D01*
X17899711Y-15921789D01*
X17977876Y-15974017D01*
X18030814Y-16009390D01*
X18030825Y-16009396D01*
X18084638Y-16031685D01*
X18176503Y-16069737D01*
X18331158Y-16100500D01*
X18331159Y-16100500D01*
X18488841Y-16100500D01*
X18488842Y-16100500D01*
X18643497Y-16069737D01*
X18789179Y-16009394D01*
X18905000Y-15932004D01*
X18963886Y-15915396D01*
X19014998Y-15932003D01*
X19087440Y-15980407D01*
X19130814Y-16009390D01*
X19130825Y-16009396D01*
X19184638Y-16031685D01*
X19276503Y-16069737D01*
X19431158Y-16100500D01*
X19431159Y-16100500D01*
X19588841Y-16100500D01*
X19588842Y-16100500D01*
X19743497Y-16069737D01*
X19889179Y-16009394D01*
X20020289Y-15921789D01*
X20131789Y-15810289D01*
X20219394Y-15679179D01*
X20268074Y-15561651D01*
X20307810Y-15515127D01*
X20321647Y-15508076D01*
X20439179Y-15459394D01*
X20570289Y-15371789D01*
X20681789Y-15260289D01*
X20769394Y-15129179D01*
X20829737Y-14983497D01*
X20860500Y-14828842D01*
X20860500Y-14671158D01*
X20829737Y-14516503D01*
X20769394Y-14370821D01*
X20769393Y-14370819D01*
X20769390Y-14370814D01*
X20740407Y-14327440D01*
X20692004Y-14254999D01*
X20675396Y-14196114D01*
X20692003Y-14145001D01*
X20769394Y-14029179D01*
X20829737Y-13883497D01*
X20860500Y-13728842D01*
X20860500Y-13571158D01*
X20829737Y-13416503D01*
X20796645Y-13336611D01*
X20769396Y-13270825D01*
X20769390Y-13270814D01*
X20734017Y-13217876D01*
X20681789Y-13139711D01*
X20570289Y-13028211D01*
X20515102Y-12991336D01*
X20439185Y-12940609D01*
X20439174Y-12940603D01*
X20321653Y-12891925D01*
X20275127Y-12852189D01*
X20268074Y-12838346D01*
X20219396Y-12720825D01*
X20219390Y-12720814D01*
X20139184Y-12600779D01*
X20131789Y-12589711D01*
X20020289Y-12478211D01*
X19968059Y-12443312D01*
X19889185Y-12390609D01*
X19889174Y-12390603D01*
X19743497Y-12330263D01*
X19588844Y-12299500D01*
X19588842Y-12299500D01*
X19431158Y-12299500D01*
X19431155Y-12299500D01*
X19276503Y-12330263D01*
X19276501Y-12330263D01*
X19130825Y-12390603D01*
X19130813Y-12390609D01*
X19015002Y-12467994D01*
X18956114Y-12484603D01*
X18904998Y-12467994D01*
X18789186Y-12390609D01*
X18789174Y-12390603D01*
X18643497Y-12330263D01*
X18488844Y-12299500D01*
X18488842Y-12299500D01*
X18331158Y-12299500D01*
X18331155Y-12299500D01*
X18176503Y-12330263D01*
X18176501Y-12330263D01*
X18030825Y-12390603D01*
X18030814Y-12390609D01*
X17899711Y-12478211D01*
X17899707Y-12478214D01*
X17788214Y-12589707D01*
X17788211Y-12589711D01*
X17700609Y-12720814D01*
X17700603Y-12720825D01*
X17640263Y-12866501D01*
X17640263Y-12866503D01*
X17609500Y-13021155D01*
X17609500Y-13178844D01*
X17640263Y-13333496D01*
X17640263Y-13333498D01*
X17700603Y-13479174D01*
X17700609Y-13479186D01*
X17777994Y-13594998D01*
X17794603Y-13653886D01*
X17777994Y-13705002D01*
X17700609Y-13820813D01*
X17700605Y-13820822D01*
X17651925Y-13938347D01*
X17612188Y-13984872D01*
X17598347Y-13991925D01*
X17480822Y-14040605D01*
X17480814Y-14040609D01*
X17349711Y-14128211D01*
X17349707Y-14128214D01*
X17238214Y-14239707D01*
X17238211Y-14239711D01*
X17150609Y-14370814D01*
X17150603Y-14370825D01*
X17090263Y-14516501D01*
X17090263Y-14516503D01*
X17059500Y-14671155D01*
X6595665Y-14671155D01*
X6603779Y-14667794D01*
X6734889Y-14580189D01*
X6846389Y-14468689D01*
X6933994Y-14337579D01*
X6994337Y-14191897D01*
X7025100Y-14037242D01*
X7025100Y-13879558D01*
X6994337Y-13724903D01*
X6933994Y-13579221D01*
X6933993Y-13579219D01*
X6933990Y-13579214D01*
X6898617Y-13526276D01*
X6846389Y-13448111D01*
X6734889Y-13336611D01*
X6682659Y-13301712D01*
X6603785Y-13249009D01*
X6603774Y-13249003D01*
X6458097Y-13188663D01*
X6303444Y-13157900D01*
X6303442Y-13157900D01*
X6145758Y-13157900D01*
X6145755Y-13157900D01*
X5991103Y-13188663D01*
X5991101Y-13188663D01*
X5845425Y-13249003D01*
X5845414Y-13249009D01*
X5714311Y-13336611D01*
X5714307Y-13336614D01*
X5602814Y-13448107D01*
X5602811Y-13448111D01*
X5515209Y-13579214D01*
X5515203Y-13579225D01*
X5454863Y-13724901D01*
X5454863Y-13724903D01*
X5423151Y-13884328D01*
X5421526Y-13884004D01*
X5399758Y-13933763D01*
X5395763Y-13938001D01*
X2631284Y-16702480D01*
X2631283Y-16702479D01*
X2519480Y-16814282D01*
X2484714Y-16874498D01*
X2484715Y-16874499D01*
X2440423Y-16951215D01*
X2399499Y-17103943D01*
X2399499Y-17103945D01*
X2399499Y-17270031D01*
X2399500Y-17270044D01*
X2399500Y-28550500D01*
X2380593Y-28608691D01*
X2331093Y-28644655D01*
X2300500Y-28649500D01*
X2102133Y-28649500D01*
X2102129Y-28649500D01*
X2102128Y-28649501D01*
X2094949Y-28650272D01*
X2042519Y-28655908D01*
X2042514Y-28655909D01*
X1907670Y-28706202D01*
X1792458Y-28792450D01*
X1792450Y-28792458D01*
X1706202Y-28907670D01*
X1655910Y-29042511D01*
X1655908Y-29042522D01*
X1649500Y-29102129D01*
X500500Y-29102129D01*
X500500Y-12142755D01*
X4837000Y-12142755D01*
X4837000Y-12300444D01*
X4867763Y-12455096D01*
X4867763Y-12455098D01*
X4928103Y-12600774D01*
X4928109Y-12600785D01*
X4980812Y-12679659D01*
X5015711Y-12731889D01*
X5127211Y-12843389D01*
X5182397Y-12880263D01*
X5258314Y-12930990D01*
X5258325Y-12930996D01*
X5312138Y-12953285D01*
X5404003Y-12991337D01*
X5558658Y-13022100D01*
X5558659Y-13022100D01*
X5716341Y-13022100D01*
X5716342Y-13022100D01*
X5870997Y-12991337D01*
X6016679Y-12930994D01*
X6147789Y-12843389D01*
X6259289Y-12731889D01*
X6346894Y-12600779D01*
X6407237Y-12455097D01*
X6438000Y-12300442D01*
X6438000Y-12142758D01*
X6407237Y-11988103D01*
X6346894Y-11842421D01*
X6346893Y-11842419D01*
X6346890Y-11842414D01*
X6311517Y-11789476D01*
X6259289Y-11711311D01*
X6147789Y-11599811D01*
X6095559Y-11564912D01*
X6016685Y-11512209D01*
X6016674Y-11512203D01*
X5870997Y-11451863D01*
X5716344Y-11421100D01*
X5716342Y-11421100D01*
X5558658Y-11421100D01*
X5558655Y-11421100D01*
X5404003Y-11451863D01*
X5404001Y-11451863D01*
X5258325Y-11512203D01*
X5258314Y-11512209D01*
X5127211Y-11599811D01*
X5127207Y-11599814D01*
X5015714Y-11711307D01*
X5015711Y-11711311D01*
X4928109Y-11842414D01*
X4928103Y-11842425D01*
X4867763Y-11988101D01*
X4867763Y-11988103D01*
X4837000Y-12142755D01*
X500500Y-12142755D01*
X500500Y-10071155D01*
X9719500Y-10071155D01*
X9719500Y-10228844D01*
X9750263Y-10383496D01*
X9750263Y-10383498D01*
X9810603Y-10529174D01*
X9810609Y-10529185D01*
X9863312Y-10608059D01*
X9898211Y-10660289D01*
X10009711Y-10771789D01*
X10087876Y-10824017D01*
X10140814Y-10859390D01*
X10140825Y-10859396D01*
X10179680Y-10875490D01*
X10286503Y-10919737D01*
X10441158Y-10950500D01*
X10441159Y-10950500D01*
X10598841Y-10950500D01*
X10598842Y-10950500D01*
X10753497Y-10919737D01*
X10899179Y-10859394D01*
X11030289Y-10771789D01*
X11141789Y-10660289D01*
X11229394Y-10529179D01*
X11289737Y-10383497D01*
X11320500Y-10228842D01*
X11320500Y-10087255D01*
X20287000Y-10087255D01*
X20287000Y-10087258D01*
X20287000Y-10244942D01*
X20314560Y-10383497D01*
X20317763Y-10399596D01*
X20317763Y-10399598D01*
X20378103Y-10545274D01*
X20378109Y-10545285D01*
X20430812Y-10624159D01*
X20465711Y-10676389D01*
X20577211Y-10787889D01*
X20655376Y-10840117D01*
X20708314Y-10875490D01*
X20708325Y-10875496D01*
X20762138Y-10897785D01*
X20854003Y-10935837D01*
X21008658Y-10966600D01*
X21008659Y-10966600D01*
X21166341Y-10966600D01*
X21166342Y-10966600D01*
X21320997Y-10935837D01*
X21466679Y-10875494D01*
X21597789Y-10787889D01*
X21709289Y-10676389D01*
X21796894Y-10545279D01*
X21857237Y-10399597D01*
X21888000Y-10244942D01*
X21888000Y-10087258D01*
X21887999Y-10087255D01*
X39448900Y-10087255D01*
X39448900Y-10087258D01*
X39448900Y-10244942D01*
X39476460Y-10383497D01*
X39479663Y-10399596D01*
X39479663Y-10399598D01*
X39540003Y-10545274D01*
X39540009Y-10545285D01*
X39592712Y-10624159D01*
X39627611Y-10676389D01*
X39739111Y-10787889D01*
X39817276Y-10840117D01*
X39870214Y-10875490D01*
X39870225Y-10875496D01*
X39924038Y-10897785D01*
X40015903Y-10935837D01*
X40170558Y-10966600D01*
X40170559Y-10966600D01*
X40328241Y-10966600D01*
X40328242Y-10966600D01*
X40482897Y-10935837D01*
X40628579Y-10875494D01*
X40759689Y-10787889D01*
X40871189Y-10676389D01*
X40958794Y-10545279D01*
X41019137Y-10399597D01*
X41049900Y-10244942D01*
X41049900Y-10087258D01*
X41019137Y-9932603D01*
X40958794Y-9786921D01*
X40958793Y-9786919D01*
X40958790Y-9786914D01*
X40923417Y-9733976D01*
X40871189Y-9655811D01*
X40759689Y-9544311D01*
X40707459Y-9509412D01*
X40628585Y-9456709D01*
X40628574Y-9456703D01*
X40482897Y-9396363D01*
X40328244Y-9365600D01*
X40328242Y-9365600D01*
X40170558Y-9365600D01*
X40170555Y-9365600D01*
X40015903Y-9396363D01*
X40015901Y-9396363D01*
X39870225Y-9456703D01*
X39870214Y-9456709D01*
X39739111Y-9544311D01*
X39739107Y-9544314D01*
X39627614Y-9655807D01*
X39627611Y-9655811D01*
X39540009Y-9786914D01*
X39540003Y-9786925D01*
X39479663Y-9932601D01*
X39479663Y-9932603D01*
X39448900Y-10087255D01*
X21887999Y-10087255D01*
X21857237Y-9932603D01*
X21796894Y-9786921D01*
X21796893Y-9786919D01*
X21796890Y-9786914D01*
X21761517Y-9733976D01*
X21709289Y-9655811D01*
X21597789Y-9544311D01*
X21545559Y-9509412D01*
X21466685Y-9456709D01*
X21466674Y-9456703D01*
X21320997Y-9396363D01*
X21166344Y-9365600D01*
X21166342Y-9365600D01*
X21008658Y-9365600D01*
X21008655Y-9365600D01*
X20854003Y-9396363D01*
X20854001Y-9396363D01*
X20708325Y-9456703D01*
X20708314Y-9456709D01*
X20577211Y-9544311D01*
X20577207Y-9544314D01*
X20465714Y-9655807D01*
X20465711Y-9655811D01*
X20378109Y-9786914D01*
X20378103Y-9786925D01*
X20317763Y-9932601D01*
X20317763Y-9932603D01*
X20287000Y-10087255D01*
X11320500Y-10087255D01*
X11320500Y-10071158D01*
X11289737Y-9916503D01*
X11269622Y-9867942D01*
X11229396Y-9770825D01*
X11229390Y-9770814D01*
X11194017Y-9717876D01*
X11141789Y-9639711D01*
X11030289Y-9528211D01*
X10978059Y-9493312D01*
X10899185Y-9440609D01*
X10899174Y-9440603D01*
X10753497Y-9380263D01*
X10598844Y-9349500D01*
X10598842Y-9349500D01*
X10441158Y-9349500D01*
X10441155Y-9349500D01*
X10286503Y-9380263D01*
X10286501Y-9380263D01*
X10140825Y-9440603D01*
X10140814Y-9440609D01*
X10009711Y-9528211D01*
X10009707Y-9528214D01*
X9898214Y-9639707D01*
X9898211Y-9639711D01*
X9810609Y-9770814D01*
X9810603Y-9770825D01*
X9750263Y-9916501D01*
X9750263Y-9916503D01*
X9719500Y-10071155D01*
X500500Y-10071155D01*
X500500Y-599500D01*
X519407Y-541309D01*
X568907Y-505345D01*
X599500Y-500500D01*
X3901000Y-500500D01*
X3959191Y-519407D01*
G37*
%TD.AperFunction*%
%TD*%
M02*
