M48
; DRILL file {KiCad 9.0.8+dfsg-1} date 2026-08-06T00:05:26+0530
; FORMAT={-:-/ absolute / metric / decimal}
; #@! TF.CreationDate,2026-08-06T00:05:26+05:30
; #@! TF.GenerationSoftware,Kicad,Pcbnew,9.0.8+dfsg-1
; #@! TF.FileFunction,MixedPlating,1,4
FMAT,2
METRIC
; #@! TA.AperFunction,Plated,PTH,ComponentDrill
T1C0.200
; #@! TA.AperFunction,Plated,PTH,ViaDrill
T2C0.300
; #@! TA.AperFunction,Plated,PTH,ComponentDrill
T3C1.000
%
G90
G05
T1
X17.86Y-13.65
X17.86Y-14.75
X18.41Y-13.1
X18.41Y-14.2
X18.41Y-15.3
X18.96Y-13.65
X18.96Y-14.75
X19.51Y-13.1
X19.51Y-14.2
X19.51Y-15.3
X20.06Y-13.65
X20.06Y-14.75
T2
X4.531Y-13.925
X5.638Y-12.222
X5.758Y-17.5
X6.141Y-21.631
X6.225Y-13.958
X7.998Y-7.8
X8.784Y-24.881
X10.302Y-20.897
X10.52Y-10.15
X12.106Y-10.374
X13.515Y-7.8
X20.345Y-27.179
X21.025Y-28.27
X21.087Y-10.166
X21.831Y-28.239
X22.827Y-28.272
X23.237Y-29.802
X28.55Y-32.762
X28.83Y-28.408
X31.694Y-21.6
X39.489Y-4.299
X39.75Y-31.271
X40.249Y-10.166
X40.523Y-7.668
X40.543Y-13.601
X41.162Y-28.308
T3
X3.0Y-30.0
X3.0Y-32.54
X6.0Y-7.0
X11.0Y-7.0
X11.0Y-31.0
X11.0Y-33.54
X11.0Y-36.08
X11.0Y-38.62
X11.0Y-41.16
X11.0Y-43.7
X30.0Y-31.0
X30.0Y-33.54
X30.0Y-36.08
X30.0Y-38.62
M30
