%TF.GenerationSoftware,KiCad,Pcbnew,9.0.8+dfsg-1*%
%TF.CreationDate,2026-08-06T00:05:25+05:30*%
%TF.ProjectId,v_c3_flight_final,765f6333-5f66-46c6-9967-68745f66696e,rev?*%
%TF.SameCoordinates,Original*%
%TF.FileFunction,Paste,Top*%
%TF.FilePolarity,Positive*%
%FSLAX46Y46*%
G04 Gerber Fmt 4.6, Leading zero omitted, Abs format (unit mm)*
G04 Created by KiCad (PCBNEW 9.0.8+dfsg-1) date 2026-08-06 00:05:25*
%MOMM*%
%LPD*%
G01*
G04 APERTURE LIST*
G04 Aperture macros list*
%AMRoundRect*
0 Rectangle with rounded corners*
0 $1 Rounding radius*
0 $2 $3 $4 $5 $6 $7 $8 $9 X,Y pos of 4 corners*
0 Add a 4 corners polygon primitive as box body*
4,1,4,$2,$3,$4,$5,$6,$7,$8,$9,$2,$3,0*
0 Add four circle primitives for the rounded corners*
1,1,$1+$1,$2,$3*
1,1,$1+$1,$4,$5*
1,1,$1+$1,$6,$7*
1,1,$1+$1,$8,$9*
0 Add four rect primitives between the rounded corners*
20,1,$1+$1,$2,$3,$4,$5,0*
20,1,$1+$1,$4,$5,$6,$7,0*
20,1,$1+$1,$6,$7,$8,$9,0*
20,1,$1+$1,$8,$9,$2,$3,0*%
G04 Aperture macros list end*
%ADD10RoundRect,0.135000X-0.135000X-0.185000X0.135000X-0.185000X0.135000X0.185000X-0.135000X0.185000X0*%
%ADD11RoundRect,0.317500X-1.157500X-0.317500X1.157500X-0.317500X1.157500X0.317500X-1.157500X0.317500X0*%
%ADD12RoundRect,0.218750X-0.218750X-0.256250X0.218750X-0.256250X0.218750X0.256250X-0.218750X0.256250X0*%
%ADD13RoundRect,0.225000X-0.225000X-0.250000X0.225000X-0.250000X0.225000X0.250000X-0.225000X0.250000X0*%
%ADD14RoundRect,0.225000X0.250000X-0.225000X0.250000X0.225000X-0.250000X0.225000X-0.250000X-0.225000X0*%
%ADD15R,0.350000X0.500000*%
%ADD16RoundRect,0.100000X0.400000X0.400000X-0.400000X0.400000X-0.400000X-0.400000X0.400000X-0.400000X0*%
%ADD17RoundRect,0.105000X0.420000X0.995000X-0.420000X0.995000X-0.420000X-0.995000X0.420000X-0.995000X0*%
%ADD18RoundRect,0.150000X-0.512500X-0.150000X0.512500X-0.150000X0.512500X0.150000X-0.512500X0.150000X0*%
%ADD19RoundRect,0.140000X-0.140000X-0.170000X0.140000X-0.170000X0.140000X0.170000X-0.140000X0.170000X0*%
%ADD20R,0.700000X0.700000*%
%ADD21R,1.500000X0.900000*%
%ADD22RoundRect,0.175000X-0.725000X-0.175000X0.725000X-0.175000X0.725000X0.175000X-0.725000X0.175000X0*%
%ADD23RoundRect,0.200000X-0.700000X-0.200000X0.700000X-0.200000X0.700000X0.200000X-0.700000X0.200000X0*%
%ADD24RoundRect,0.225000X-0.225000X-0.375000X0.225000X-0.375000X0.225000X0.375000X-0.225000X0.375000X0*%
G04 APERTURE END LIST*
D10*
%TO.C,R_LED*%
X23490000Y-32000000D03*
X24510000Y-32000000D03*
%TD*%
%TO.C,R_DIV2*%
X6990000Y-25000000D03*
X8010000Y-25000000D03*
%TD*%
D11*
%TO.C,U2*%
X27475000Y-2000000D03*
X27475000Y-4000000D03*
X27475000Y-6000000D03*
X27475000Y-8000000D03*
X27475000Y-10000000D03*
X27475000Y-12000000D03*
X27475000Y-14000000D03*
X27475000Y-16000000D03*
X42525000Y-16000000D03*
X42525000Y-14000000D03*
X42525000Y-12000000D03*
X42525000Y-10000000D03*
X42525000Y-8000000D03*
X42525000Y-6000000D03*
X42525000Y-4000000D03*
X42525000Y-2000000D03*
%TD*%
D10*
%TO.C,R_PD*%
X4490000Y-21000000D03*
X5510000Y-21000000D03*
%TD*%
D12*
%TO.C,LED1*%
X26212500Y-32000000D03*
X27787500Y-32000000D03*
%TD*%
D13*
%TO.C,C1*%
X6725000Y-17500000D03*
X8275000Y-17500000D03*
%TD*%
D14*
%TO.C,C2*%
X14500000Y-7775000D03*
X14500000Y-6225000D03*
%TD*%
D15*
%TO.C,U5*%
X21025000Y-26975000D03*
X21675000Y-26975000D03*
X22325000Y-26975000D03*
X22975000Y-26975000D03*
X22975000Y-29025000D03*
X22325000Y-29025000D03*
X21675000Y-29025000D03*
X21025000Y-29025000D03*
%TD*%
D16*
%TO.C,ANT1*%
X42000000Y-6500000D03*
D17*
X40525000Y-5000000D03*
D16*
X42000000Y-3500000D03*
D17*
X43475000Y-5000000D03*
%TD*%
D18*
%TO.C,U4*%
X3362500Y-13050000D03*
X3362500Y-14000000D03*
X3362500Y-14950000D03*
X5637500Y-14950000D03*
X5637500Y-13050000D03*
%TD*%
D19*
%TO.C,C3*%
X10520000Y-11000000D03*
X11480000Y-11000000D03*
%TD*%
D20*
%TO.C,U1*%
X17860000Y-13100000D03*
X17860000Y-14200000D03*
X17860000Y-15300000D03*
X18960000Y-13100000D03*
X18960000Y-14200000D03*
X18960000Y-15300000D03*
X20060000Y-13100000D03*
X20060000Y-14200000D03*
X20060000Y-15300000D03*
D21*
X9250000Y-8000000D03*
X9250000Y-9500000D03*
X9250000Y-11000000D03*
X9250000Y-12500000D03*
X9250000Y-14000000D03*
X9250000Y-15500000D03*
X9250000Y-17000000D03*
X9250000Y-18500000D03*
X9250000Y-20000000D03*
X26750000Y-20000000D03*
X26750000Y-18500000D03*
X26750000Y-17000000D03*
X26750000Y-15500000D03*
X26750000Y-14000000D03*
X26750000Y-12500000D03*
X26750000Y-11000000D03*
X26750000Y-9500000D03*
X26750000Y-8000000D03*
%TD*%
D19*
%TO.C,C4*%
X29520000Y-3000000D03*
X30480000Y-3000000D03*
%TD*%
D22*
%TO.C,U3*%
X30250000Y-21600000D03*
D23*
X30250000Y-22700000D03*
X30250000Y-23800000D03*
X30250000Y-24900000D03*
X30250000Y-26000000D03*
X30250000Y-27100000D03*
X30250000Y-28200000D03*
X30250000Y-29300000D03*
D22*
X30250000Y-30400000D03*
X39750000Y-30400000D03*
D23*
X39750000Y-29300000D03*
X39750000Y-28200000D03*
X39750000Y-27100000D03*
X39750000Y-26000000D03*
X39750000Y-24900000D03*
X39750000Y-23800000D03*
X39750000Y-22700000D03*
D22*
X39750000Y-21600000D03*
%TD*%
D10*
%TO.C,R_DIV1*%
X3490000Y-25000000D03*
X4510000Y-25000000D03*
%TD*%
D24*
%TO.C,D1*%
X7350000Y-14000000D03*
X10650000Y-14000000D03*
%TD*%
M02*
