%TF.GenerationSoftware,KiCad,Pcbnew,9.0.8+dfsg-1*%
%TF.CreationDate,2026-08-06T02:31:08+05:30*%
%TF.ProjectId,v_c3_flight_final,765f6333-5f66-46c6-9967-68745f66696e,rev?*%
%TF.SameCoordinates,Original*%
%TF.FileFunction,Other,Comment*%
%FSLAX46Y46*%
G04 Gerber Fmt 4.6, Leading zero omitted, Abs format (unit mm)*
G04 Created by KiCad (PCBNEW 9.0.8+dfsg-1) date 2026-08-06 02:31:08*
%MOMM*%
%LPD*%
G01*
G04 APERTURE LIST*
%ADD10C,0.150000*%
%ADD11C,0.100000*%
G04 APERTURE END LIST*
D10*
X10238095Y-2169104D02*
X10714285Y-2169104D01*
X10142857Y-2454819D02*
X10476190Y-1454819D01*
X10476190Y-1454819D02*
X10809523Y-2454819D01*
X11142857Y-1788152D02*
X11142857Y-2454819D01*
X11142857Y-1883390D02*
X11190476Y-1835771D01*
X11190476Y-1835771D02*
X11285714Y-1788152D01*
X11285714Y-1788152D02*
X11428571Y-1788152D01*
X11428571Y-1788152D02*
X11523809Y-1835771D01*
X11523809Y-1835771D02*
X11571428Y-1931009D01*
X11571428Y-1931009D02*
X11571428Y-2454819D01*
X11904762Y-1788152D02*
X12285714Y-1788152D01*
X12047619Y-1454819D02*
X12047619Y-2311961D01*
X12047619Y-2311961D02*
X12095238Y-2407200D01*
X12095238Y-2407200D02*
X12190476Y-2454819D01*
X12190476Y-2454819D02*
X12285714Y-2454819D01*
X13000000Y-2407200D02*
X12904762Y-2454819D01*
X12904762Y-2454819D02*
X12714286Y-2454819D01*
X12714286Y-2454819D02*
X12619048Y-2407200D01*
X12619048Y-2407200D02*
X12571429Y-2311961D01*
X12571429Y-2311961D02*
X12571429Y-1931009D01*
X12571429Y-1931009D02*
X12619048Y-1835771D01*
X12619048Y-1835771D02*
X12714286Y-1788152D01*
X12714286Y-1788152D02*
X12904762Y-1788152D01*
X12904762Y-1788152D02*
X13000000Y-1835771D01*
X13000000Y-1835771D02*
X13047619Y-1931009D01*
X13047619Y-1931009D02*
X13047619Y-2026247D01*
X13047619Y-2026247D02*
X12571429Y-2121485D01*
X13476191Y-1788152D02*
X13476191Y-2454819D01*
X13476191Y-1883390D02*
X13523810Y-1835771D01*
X13523810Y-1835771D02*
X13619048Y-1788152D01*
X13619048Y-1788152D02*
X13761905Y-1788152D01*
X13761905Y-1788152D02*
X13857143Y-1835771D01*
X13857143Y-1835771D02*
X13904762Y-1931009D01*
X13904762Y-1931009D02*
X13904762Y-2454819D01*
X14380953Y-1788152D02*
X14380953Y-2454819D01*
X14380953Y-1883390D02*
X14428572Y-1835771D01*
X14428572Y-1835771D02*
X14523810Y-1788152D01*
X14523810Y-1788152D02*
X14666667Y-1788152D01*
X14666667Y-1788152D02*
X14761905Y-1835771D01*
X14761905Y-1835771D02*
X14809524Y-1931009D01*
X14809524Y-1931009D02*
X14809524Y-2454819D01*
X15714286Y-2454819D02*
X15714286Y-1931009D01*
X15714286Y-1931009D02*
X15666667Y-1835771D01*
X15666667Y-1835771D02*
X15571429Y-1788152D01*
X15571429Y-1788152D02*
X15380953Y-1788152D01*
X15380953Y-1788152D02*
X15285715Y-1835771D01*
X15714286Y-2407200D02*
X15619048Y-2454819D01*
X15619048Y-2454819D02*
X15380953Y-2454819D01*
X15380953Y-2454819D02*
X15285715Y-2407200D01*
X15285715Y-2407200D02*
X15238096Y-2311961D01*
X15238096Y-2311961D02*
X15238096Y-2216723D01*
X15238096Y-2216723D02*
X15285715Y-2121485D01*
X15285715Y-2121485D02*
X15380953Y-2073866D01*
X15380953Y-2073866D02*
X15619048Y-2073866D01*
X15619048Y-2073866D02*
X15714286Y-2026247D01*
D11*
X20526109Y3161904D02*
X20526109Y2923809D01*
X20526109Y2923809D02*
X20764204Y2900000D01*
X20764204Y2900000D02*
X20740395Y2923809D01*
X20740395Y2923809D02*
X20716585Y2971428D01*
X20716585Y2971428D02*
X20716585Y3090476D01*
X20716585Y3090476D02*
X20740395Y3138095D01*
X20740395Y3138095D02*
X20764204Y3161904D01*
X20764204Y3161904D02*
X20811823Y3185714D01*
X20811823Y3185714D02*
X20930871Y3185714D01*
X20930871Y3185714D02*
X20978490Y3161904D01*
X20978490Y3161904D02*
X21002300Y3138095D01*
X21002300Y3138095D02*
X21026109Y3090476D01*
X21026109Y3090476D02*
X21026109Y2971428D01*
X21026109Y2971428D02*
X21002300Y2923809D01*
X21002300Y2923809D02*
X20978490Y2900000D01*
X21026109Y3780951D02*
X20692776Y3780951D01*
X20740395Y3780951D02*
X20716585Y3804761D01*
X20716585Y3804761D02*
X20692776Y3852380D01*
X20692776Y3852380D02*
X20692776Y3923808D01*
X20692776Y3923808D02*
X20716585Y3971427D01*
X20716585Y3971427D02*
X20764204Y3995237D01*
X20764204Y3995237D02*
X21026109Y3995237D01*
X20764204Y3995237D02*
X20716585Y4019046D01*
X20716585Y4019046D02*
X20692776Y4066665D01*
X20692776Y4066665D02*
X20692776Y4138094D01*
X20692776Y4138094D02*
X20716585Y4185713D01*
X20716585Y4185713D02*
X20764204Y4209523D01*
X20764204Y4209523D02*
X21026109Y4209523D01*
X21026109Y4447618D02*
X20692776Y4447618D01*
X20740395Y4447618D02*
X20716585Y4471428D01*
X20716585Y4471428D02*
X20692776Y4519047D01*
X20692776Y4519047D02*
X20692776Y4590475D01*
X20692776Y4590475D02*
X20716585Y4638094D01*
X20716585Y4638094D02*
X20764204Y4661904D01*
X20764204Y4661904D02*
X21026109Y4661904D01*
X20764204Y4661904D02*
X20716585Y4685713D01*
X20716585Y4685713D02*
X20692776Y4733332D01*
X20692776Y4733332D02*
X20692776Y4804761D01*
X20692776Y4804761D02*
X20716585Y4852380D01*
X20716585Y4852380D02*
X20764204Y4876190D01*
X20764204Y4876190D02*
X21026109Y4876190D01*
X24061904Y-526109D02*
X23823809Y-526109D01*
X23823809Y-526109D02*
X23800000Y-764204D01*
X23800000Y-764204D02*
X23823809Y-740395D01*
X23823809Y-740395D02*
X23871428Y-716585D01*
X23871428Y-716585D02*
X23990476Y-716585D01*
X23990476Y-716585D02*
X24038095Y-740395D01*
X24038095Y-740395D02*
X24061904Y-764204D01*
X24061904Y-764204D02*
X24085714Y-811823D01*
X24085714Y-811823D02*
X24085714Y-930871D01*
X24085714Y-930871D02*
X24061904Y-978490D01*
X24061904Y-978490D02*
X24038095Y-1002300D01*
X24038095Y-1002300D02*
X23990476Y-1026109D01*
X23990476Y-1026109D02*
X23871428Y-1026109D01*
X23871428Y-1026109D02*
X23823809Y-1002300D01*
X23823809Y-1002300D02*
X23800000Y-978490D01*
X24680951Y-1026109D02*
X24680951Y-692776D01*
X24680951Y-740395D02*
X24704761Y-716585D01*
X24704761Y-716585D02*
X24752380Y-692776D01*
X24752380Y-692776D02*
X24823808Y-692776D01*
X24823808Y-692776D02*
X24871427Y-716585D01*
X24871427Y-716585D02*
X24895237Y-764204D01*
X24895237Y-764204D02*
X24895237Y-1026109D01*
X24895237Y-764204D02*
X24919046Y-716585D01*
X24919046Y-716585D02*
X24966665Y-692776D01*
X24966665Y-692776D02*
X25038094Y-692776D01*
X25038094Y-692776D02*
X25085713Y-716585D01*
X25085713Y-716585D02*
X25109523Y-764204D01*
X25109523Y-764204D02*
X25109523Y-1026109D01*
X25347618Y-1026109D02*
X25347618Y-692776D01*
X25347618Y-740395D02*
X25371428Y-716585D01*
X25371428Y-716585D02*
X25419047Y-692776D01*
X25419047Y-692776D02*
X25490475Y-692776D01*
X25490475Y-692776D02*
X25538094Y-716585D01*
X25538094Y-716585D02*
X25561904Y-764204D01*
X25561904Y-764204D02*
X25561904Y-1026109D01*
X25561904Y-764204D02*
X25585713Y-716585D01*
X25585713Y-716585D02*
X25633332Y-692776D01*
X25633332Y-692776D02*
X25704761Y-692776D01*
X25704761Y-692776D02*
X25752380Y-716585D01*
X25752380Y-716585D02*
X25776190Y-764204D01*
X25776190Y-764204D02*
X25776190Y-1026109D01*
D10*
X6928571Y3545180D02*
X6928571Y4545180D01*
X7499999Y3545180D02*
X7071428Y4116609D01*
X7499999Y4545180D02*
X6928571Y3973752D01*
X7928571Y4068990D02*
X8261904Y4068990D01*
X8404761Y3545180D02*
X7928571Y3545180D01*
X7928571Y3545180D02*
X7928571Y4545180D01*
X7928571Y4545180D02*
X8404761Y4545180D01*
X8833333Y4068990D02*
X9166666Y4068990D01*
X9309523Y3545180D02*
X8833333Y3545180D01*
X8833333Y3545180D02*
X8833333Y4545180D01*
X8833333Y4545180D02*
X9309523Y4545180D01*
X9738095Y3545180D02*
X9738095Y4545180D01*
X9738095Y4545180D02*
X10119047Y4545180D01*
X10119047Y4545180D02*
X10214285Y4497561D01*
X10214285Y4497561D02*
X10261904Y4449942D01*
X10261904Y4449942D02*
X10309523Y4354704D01*
X10309523Y4354704D02*
X10309523Y4211847D01*
X10309523Y4211847D02*
X10261904Y4116609D01*
X10261904Y4116609D02*
X10214285Y4068990D01*
X10214285Y4068990D02*
X10119047Y4021371D01*
X10119047Y4021371D02*
X9738095Y4021371D01*
X10738095Y3926133D02*
X11500000Y3926133D01*
X12166666Y4545180D02*
X12357142Y4545180D01*
X12357142Y4545180D02*
X12452380Y4497561D01*
X12452380Y4497561D02*
X12547618Y4402323D01*
X12547618Y4402323D02*
X12595237Y4211847D01*
X12595237Y4211847D02*
X12595237Y3878514D01*
X12595237Y3878514D02*
X12547618Y3688038D01*
X12547618Y3688038D02*
X12452380Y3592800D01*
X12452380Y3592800D02*
X12357142Y3545180D01*
X12357142Y3545180D02*
X12166666Y3545180D01*
X12166666Y3545180D02*
X12071428Y3592800D01*
X12071428Y3592800D02*
X11976190Y3688038D01*
X11976190Y3688038D02*
X11928571Y3878514D01*
X11928571Y3878514D02*
X11928571Y4211847D01*
X11928571Y4211847D02*
X11976190Y4402323D01*
X11976190Y4402323D02*
X12071428Y4497561D01*
X12071428Y4497561D02*
X12166666Y4545180D01*
X13023809Y4545180D02*
X13023809Y3735657D01*
X13023809Y3735657D02*
X13071428Y3640419D01*
X13071428Y3640419D02*
X13119047Y3592800D01*
X13119047Y3592800D02*
X13214285Y3545180D01*
X13214285Y3545180D02*
X13404761Y3545180D01*
X13404761Y3545180D02*
X13499999Y3592800D01*
X13499999Y3592800D02*
X13547618Y3640419D01*
X13547618Y3640419D02*
X13595237Y3735657D01*
X13595237Y3735657D02*
X13595237Y4545180D01*
X13928571Y4545180D02*
X14499999Y4545180D01*
X14214285Y3545180D02*
X14214285Y4545180D01*
X15500000Y4545180D02*
X16166666Y4545180D01*
X16166666Y4545180D02*
X15500000Y3545180D01*
X15500000Y3545180D02*
X16166666Y3545180D01*
X16738095Y4545180D02*
X16928571Y4545180D01*
X16928571Y4545180D02*
X17023809Y4497561D01*
X17023809Y4497561D02*
X17119047Y4402323D01*
X17119047Y4402323D02*
X17166666Y4211847D01*
X17166666Y4211847D02*
X17166666Y3878514D01*
X17166666Y3878514D02*
X17119047Y3688038D01*
X17119047Y3688038D02*
X17023809Y3592800D01*
X17023809Y3592800D02*
X16928571Y3545180D01*
X16928571Y3545180D02*
X16738095Y3545180D01*
X16738095Y3545180D02*
X16642857Y3592800D01*
X16642857Y3592800D02*
X16547619Y3688038D01*
X16547619Y3688038D02*
X16500000Y3878514D01*
X16500000Y3878514D02*
X16500000Y4211847D01*
X16500000Y4211847D02*
X16547619Y4402323D01*
X16547619Y4402323D02*
X16642857Y4497561D01*
X16642857Y4497561D02*
X16738095Y4545180D01*
X17595238Y3545180D02*
X17595238Y4545180D01*
X17595238Y4545180D02*
X18166666Y3545180D01*
X18166666Y3545180D02*
X18166666Y4545180D01*
X18642857Y4068990D02*
X18976190Y4068990D01*
X19119047Y3545180D02*
X18642857Y3545180D01*
X18642857Y3545180D02*
X18642857Y4545180D01*
X18642857Y4545180D02*
X19119047Y4545180D01*
D11*
%TO.C,U1*%
X-800000Y-1300000D02*
X-600000Y-1100000D01*
X-800000Y-1300000D02*
X-600000Y-1500000D01*
X-800000Y-1300000D02*
X3800000Y-1300000D01*
X3800000Y-1300000D02*
X3600000Y-1100000D01*
X3800000Y-1300000D02*
X3600000Y-1500000D01*
X21300000Y5900000D02*
X21100000Y5700000D01*
X21300000Y5900000D02*
X21500000Y5700000D01*
X21300000Y1300000D02*
X21100000Y1500000D01*
X21300000Y1300000D02*
X21300000Y5900000D01*
X21300000Y1300000D02*
X21500000Y1500000D01*
X22200000Y-1300000D02*
X22400000Y-1100000D01*
X22200000Y-1300000D02*
X22400000Y-1500000D01*
X22200000Y-1300000D02*
X26800000Y-1300000D01*
X26800000Y-1300000D02*
X26600000Y-1100000D01*
X26800000Y-1300000D02*
X26600000Y-1500000D01*
%TD*%
M02*
