%TF.GenerationSoftware,KiCad,Pcbnew,9.0.8+dfsg-1*%
%TF.CreationDate,2026-08-06T02:31:08+05:30*%
%TF.ProjectId,v_c3_flight_final,765f6333-5f66-46c6-9967-68745f66696e,rev?*%
%TF.SameCoordinates,Original*%
%TF.FileFunction,Copper,L3,Inr*%
%TF.FilePolarity,Positive*%
%FSLAX46Y46*%
G04 Gerber Fmt 4.6, Leading zero omitted, Abs format (unit mm)*
G04 Created by KiCad (PCBNEW 9.0.8+dfsg-1) date 2026-08-06 02:31:08*
%MOMM*%
%LPD*%
G01*
G04 APERTURE LIST*
G04 Aperture macros list*
%AMRoundRect*
0 Rectangle with rounded corners*
0 $1 Rounding radius*
0 $2 $3 $4 $5 $6 $7 $8 $9 X,Y pos of 4 corners*
0 Add a 4 corners polygon primitive as box body*
4,1,4,$2,$3,$4,$5,$6,$7,$8,$9,$2,$3,0*
0 Add four circle primitives for the rounded corners*
1,1,$1+$1,$2,$3*
1,1,$1+$1,$4,$5*
1,1,$1+$1,$6,$7*
1,1,$1+$1,$8,$9*
0 Add four rect primitives between the rounded corners*
20,1,$1+$1,$2,$3,$4,$5,0*
20,1,$1+$1,$4,$5,$6,$7,0*
20,1,$1+$1,$6,$7,$8,$9,0*
20,1,$1+$1,$8,$9,$2,$3,0*%
G04 Aperture macros list end*
%TA.AperFunction,ComponentPad*%
%ADD10RoundRect,0.250000X-0.750000X-0.750000X0.750000X-0.750000X0.750000X0.750000X-0.750000X0.750000X0*%
%TD*%
%TA.AperFunction,ComponentPad*%
%ADD11C,2.000000*%
%TD*%
%TA.AperFunction,ComponentPad*%
%ADD12R,1.700000X1.700000*%
%TD*%
%TA.AperFunction,ComponentPad*%
%ADD13C,1.700000*%
%TD*%
%TA.AperFunction,HeatsinkPad*%
%ADD14C,0.600000*%
%TD*%
G04 APERTURE END LIST*
D10*
%TO.N,VCAP*%
%TO.C,C_CAP*%
X6000000Y-28000000D03*
D11*
%TO.N,GND*%
X11000000Y-28000000D03*
%TD*%
D12*
%TO.N,GND*%
%TO.C,J2*%
X40000000Y-42000000D03*
D13*
%TO.N,+3V3*%
X42540000Y-42000000D03*
%TO.N,I2C_SDA*%
X45080000Y-42000000D03*
%TO.N,I2C_SCL*%
X47620000Y-42000000D03*
%TD*%
D12*
%TO.N,SOLAR_IN*%
%TO.C,SOLAR*%
X4000000Y-42000000D03*
D13*
%TO.N,GND*%
X6540000Y-42000000D03*
%TD*%
D14*
%TO.N,GND*%
%TO.C,U1*%
X12860000Y-11650000D03*
X12860000Y-12750000D03*
X13410000Y-11100000D03*
X13410000Y-12200000D03*
X13410000Y-13300000D03*
X13960000Y-11650000D03*
X13960000Y-12750000D03*
X14510000Y-11100000D03*
X14510000Y-12200000D03*
X14510000Y-13300000D03*
X15060000Y-11650000D03*
X15060000Y-12750000D03*
%TD*%
D12*
%TO.N,GND*%
%TO.C,J1*%
X20000000Y-42000000D03*
D13*
%TO.N,+3V3*%
X22540000Y-42000000D03*
%TO.N,EN*%
X25080000Y-42000000D03*
%TO.N,UART0_TX*%
X27620000Y-42000000D03*
%TO.N,UART0_RX*%
X30160000Y-42000000D03*
%TO.N,N/C*%
X32700000Y-42000000D03*
%TD*%
%TA.AperFunction,Conductor*%
%TO.N,+3V3*%
G36*
X49459191Y-519407D02*
G01*
X49495155Y-568907D01*
X49500000Y-599500D01*
X49500000Y-39401000D01*
X49481093Y-39459191D01*
X49431593Y-39495155D01*
X49401000Y-39500000D01*
X599500Y-39500000D01*
X541309Y-39481093D01*
X505345Y-39431593D01*
X500500Y-39401000D01*
X500500Y-27199983D01*
X4499500Y-27199983D01*
X4499500Y-28800016D01*
X4509999Y-28902788D01*
X4510000Y-28902795D01*
X4510001Y-28902797D01*
X4534758Y-28977510D01*
X4565187Y-29069336D01*
X4657285Y-29218652D01*
X4657286Y-29218653D01*
X4657288Y-29218656D01*
X4781344Y-29342712D01*
X4930666Y-29434814D01*
X5097203Y-29489999D01*
X5199991Y-29500500D01*
X6800008Y-29500499D01*
X6800016Y-29500499D01*
X6902788Y-29490000D01*
X6902788Y-29489999D01*
X6902797Y-29489999D01*
X7069334Y-29434814D01*
X7218656Y-29342712D01*
X7342712Y-29218656D01*
X7434814Y-29069334D01*
X7489999Y-28902797D01*
X7500500Y-28800009D01*
X7500499Y-27881904D01*
X9499500Y-27881904D01*
X9499500Y-28118095D01*
X9536445Y-28351363D01*
X9536447Y-28351368D01*
X9609432Y-28575992D01*
X9716657Y-28786433D01*
X9855483Y-28977510D01*
X10022490Y-29144517D01*
X10213567Y-29283343D01*
X10424008Y-29390568D01*
X10648632Y-29463553D01*
X10648633Y-29463553D01*
X10648636Y-29463554D01*
X10881905Y-29500500D01*
X10881908Y-29500500D01*
X11118095Y-29500500D01*
X11351363Y-29463554D01*
X11351364Y-29463553D01*
X11351368Y-29463553D01*
X11575992Y-29390568D01*
X11786433Y-29283343D01*
X11977510Y-29144517D01*
X12144517Y-28977510D01*
X12283343Y-28786433D01*
X12390568Y-28575992D01*
X12463553Y-28351368D01*
X12500500Y-28118092D01*
X12500500Y-27881908D01*
X12500500Y-27881904D01*
X12463554Y-27648636D01*
X12463553Y-27648632D01*
X12390568Y-27424008D01*
X12283343Y-27213567D01*
X12144517Y-27022490D01*
X11977510Y-26855483D01*
X11786433Y-26716657D01*
X11786432Y-26716656D01*
X11786430Y-26716655D01*
X11575992Y-26609432D01*
X11351363Y-26536445D01*
X11118095Y-26499500D01*
X11118092Y-26499500D01*
X10881908Y-26499500D01*
X10881905Y-26499500D01*
X10648636Y-26536445D01*
X10424007Y-26609432D01*
X10213569Y-26716655D01*
X10022491Y-26855482D01*
X9855482Y-27022491D01*
X9716655Y-27213569D01*
X9609432Y-27424007D01*
X9536445Y-27648636D01*
X9499500Y-27881904D01*
X7500499Y-27881904D01*
X7500499Y-27199992D01*
X7500499Y-27199991D01*
X7500499Y-27199983D01*
X7490000Y-27097211D01*
X7489999Y-27097209D01*
X7489999Y-27097203D01*
X7434814Y-26930666D01*
X7342712Y-26781344D01*
X7218656Y-26657288D01*
X7218653Y-26657286D01*
X7218652Y-26657285D01*
X7069336Y-26565187D01*
X7069335Y-26565186D01*
X7069334Y-26565186D01*
X6902797Y-26510001D01*
X6902794Y-26510000D01*
X6800016Y-26499500D01*
X5199983Y-26499500D01*
X5097211Y-26509999D01*
X5097199Y-26510002D01*
X4930663Y-26565187D01*
X4781347Y-26657285D01*
X4657285Y-26781347D01*
X4565187Y-26930663D01*
X4510000Y-27097205D01*
X4499500Y-27199983D01*
X500500Y-27199983D01*
X500500Y-11571155D01*
X12059500Y-11571155D01*
X12059500Y-11728844D01*
X12090263Y-11883496D01*
X12090263Y-11883498D01*
X12150603Y-12029174D01*
X12150609Y-12029186D01*
X12227994Y-12144998D01*
X12244603Y-12203886D01*
X12227994Y-12255002D01*
X12150609Y-12370813D01*
X12150603Y-12370825D01*
X12090263Y-12516501D01*
X12090263Y-12516503D01*
X12059500Y-12671155D01*
X12059500Y-12828844D01*
X12090263Y-12983496D01*
X12090263Y-12983498D01*
X12150603Y-13129174D01*
X12150609Y-13129185D01*
X12203312Y-13208059D01*
X12238211Y-13260289D01*
X12349711Y-13371789D01*
X12427876Y-13424017D01*
X12480814Y-13459390D01*
X12480825Y-13459396D01*
X12598346Y-13508074D01*
X12644872Y-13547810D01*
X12651925Y-13561653D01*
X12700603Y-13679174D01*
X12700609Y-13679185D01*
X12753312Y-13758059D01*
X12788211Y-13810289D01*
X12899711Y-13921789D01*
X12977876Y-13974017D01*
X13030814Y-14009390D01*
X13030825Y-14009396D01*
X13084638Y-14031685D01*
X13176503Y-14069737D01*
X13331158Y-14100500D01*
X13331159Y-14100500D01*
X13488841Y-14100500D01*
X13488842Y-14100500D01*
X13643497Y-14069737D01*
X13789179Y-14009394D01*
X13905000Y-13932004D01*
X13963886Y-13915396D01*
X14014998Y-13932003D01*
X14087440Y-13980407D01*
X14130814Y-14009390D01*
X14130825Y-14009396D01*
X14184638Y-14031685D01*
X14276503Y-14069737D01*
X14431158Y-14100500D01*
X14431159Y-14100500D01*
X14588841Y-14100500D01*
X14588842Y-14100500D01*
X14743497Y-14069737D01*
X14889179Y-14009394D01*
X15020289Y-13921789D01*
X15131789Y-13810289D01*
X15219394Y-13679179D01*
X15268074Y-13561651D01*
X15307810Y-13515127D01*
X15321647Y-13508076D01*
X15439179Y-13459394D01*
X15570289Y-13371789D01*
X15681789Y-13260289D01*
X15769394Y-13129179D01*
X15829737Y-12983497D01*
X15860500Y-12828842D01*
X15860500Y-12671158D01*
X15829737Y-12516503D01*
X15769394Y-12370821D01*
X15769393Y-12370819D01*
X15769390Y-12370814D01*
X15740407Y-12327440D01*
X15692004Y-12254999D01*
X15675396Y-12196114D01*
X15692003Y-12145001D01*
X15769394Y-12029179D01*
X15829737Y-11883497D01*
X15860500Y-11728842D01*
X15860500Y-11571158D01*
X15829737Y-11416503D01*
X15769394Y-11270821D01*
X15769393Y-11270819D01*
X15769390Y-11270814D01*
X15734017Y-11217876D01*
X15681789Y-11139711D01*
X15570289Y-11028211D01*
X15518059Y-10993312D01*
X15439185Y-10940609D01*
X15439174Y-10940603D01*
X15321653Y-10891925D01*
X15275127Y-10852189D01*
X15268074Y-10838346D01*
X15219396Y-10720825D01*
X15219390Y-10720814D01*
X15184017Y-10667876D01*
X15131789Y-10589711D01*
X15020289Y-10478211D01*
X14968059Y-10443312D01*
X14889185Y-10390609D01*
X14889174Y-10390603D01*
X14743497Y-10330263D01*
X14588844Y-10299500D01*
X14588842Y-10299500D01*
X14431158Y-10299500D01*
X14431155Y-10299500D01*
X14276503Y-10330263D01*
X14276501Y-10330263D01*
X14130825Y-10390603D01*
X14130813Y-10390609D01*
X14015002Y-10467994D01*
X13956114Y-10484603D01*
X13904998Y-10467994D01*
X13789186Y-10390609D01*
X13789174Y-10390603D01*
X13643497Y-10330263D01*
X13488844Y-10299500D01*
X13488842Y-10299500D01*
X13331158Y-10299500D01*
X13331155Y-10299500D01*
X13176503Y-10330263D01*
X13176501Y-10330263D01*
X13030825Y-10390603D01*
X13030814Y-10390609D01*
X12899711Y-10478211D01*
X12899707Y-10478214D01*
X12788214Y-10589707D01*
X12788211Y-10589711D01*
X12700609Y-10720814D01*
X12700605Y-10720822D01*
X12651925Y-10838347D01*
X12612188Y-10884872D01*
X12598347Y-10891925D01*
X12480822Y-10940605D01*
X12480814Y-10940609D01*
X12349711Y-11028211D01*
X12349707Y-11028214D01*
X12238214Y-11139707D01*
X12238211Y-11139711D01*
X12150609Y-11270814D01*
X12150603Y-11270825D01*
X12090263Y-11416501D01*
X12090263Y-11416503D01*
X12059500Y-11571155D01*
X500500Y-11571155D01*
X500500Y-4999000D01*
X519407Y-4940809D01*
X568907Y-4904845D01*
X599500Y-4900000D01*
X26999999Y-4900000D01*
X27000000Y-4900000D01*
X27000000Y-599500D01*
X27018907Y-541309D01*
X27068407Y-505345D01*
X27099000Y-500500D01*
X49401000Y-500500D01*
X49459191Y-519407D01*
G37*
%TD.AperFunction*%
%TD*%
M02*
