%TF.GenerationSoftware,KiCad,Pcbnew,9.0.8+dfsg-1*%
%TF.CreationDate,2026-08-06T02:22:46+05:30*%
%TF.ProjectId,v_c3_flight_final,765f6333-5f66-46c6-9967-68745f66696e,rev?*%
%TF.SameCoordinates,Original*%
%TF.FileFunction,Copper,L2,Inr*%
%TF.FilePolarity,Positive*%
%FSLAX46Y46*%
G04 Gerber Fmt 4.6, Leading zero omitted, Abs format (unit mm)*
G04 Created by KiCad (PCBNEW 9.0.8+dfsg-1) date 2026-08-06 02:22:46*
%MOMM*%
%LPD*%
G01*
G04 APERTURE LIST*
G04 Aperture macros list*
%AMRoundRect*
0 Rectangle with rounded corners*
0 $1 Rounding radius*
0 $2 $3 $4 $5 $6 $7 $8 $9 X,Y pos of 4 corners*
0 Add a 4 corners polygon primitive as box body*
4,1,4,$2,$3,$4,$5,$6,$7,$8,$9,$2,$3,0*
0 Add four circle primitives for the rounded corners*
1,1,$1+$1,$2,$3*
1,1,$1+$1,$4,$5*
1,1,$1+$1,$6,$7*
1,1,$1+$1,$8,$9*
0 Add four rect primitives between the rounded corners*
20,1,$1+$1,$2,$3,$4,$5,0*
20,1,$1+$1,$4,$5,$6,$7,0*
20,1,$1+$1,$6,$7,$8,$9,0*
20,1,$1+$1,$8,$9,$2,$3,0*%
G04 Aperture macros list end*
%TA.AperFunction,ComponentPad*%
%ADD10RoundRect,0.250000X-0.750000X-0.750000X0.750000X-0.750000X0.750000X0.750000X-0.750000X0.750000X0*%
%TD*%
%TA.AperFunction,ComponentPad*%
%ADD11C,2.000000*%
%TD*%
%TA.AperFunction,ComponentPad*%
%ADD12R,1.700000X1.700000*%
%TD*%
%TA.AperFunction,ComponentPad*%
%ADD13C,1.700000*%
%TD*%
%TA.AperFunction,HeatsinkPad*%
%ADD14C,0.600000*%
%TD*%
G04 APERTURE END LIST*
D10*
%TO.N,VCAP*%
%TO.C,C_CAP*%
X6000000Y-28000000D03*
D11*
%TO.N,GND*%
X11000000Y-28000000D03*
%TD*%
D12*
%TO.N,GND*%
%TO.C,J2*%
X40000000Y-42000000D03*
D13*
%TO.N,+3V3*%
X42540000Y-42000000D03*
%TO.N,I2C_SDA*%
X45080000Y-42000000D03*
%TO.N,I2C_SCL*%
X47620000Y-42000000D03*
%TD*%
D12*
%TO.N,SOLAR_IN*%
%TO.C,SOLAR*%
X4000000Y-42000000D03*
D13*
%TO.N,GND*%
X6540000Y-42000000D03*
%TD*%
D14*
%TO.N,GND*%
%TO.C,U1*%
X12860000Y-11650000D03*
X12860000Y-12750000D03*
X13410000Y-11100000D03*
X13410000Y-12200000D03*
X13410000Y-13300000D03*
X13960000Y-11650000D03*
X13960000Y-12750000D03*
X14510000Y-11100000D03*
X14510000Y-12200000D03*
X14510000Y-13300000D03*
X15060000Y-11650000D03*
X15060000Y-12750000D03*
%TD*%
D12*
%TO.N,GND*%
%TO.C,J1*%
X20000000Y-42000000D03*
D13*
%TO.N,+3V3*%
X22540000Y-42000000D03*
%TO.N,EN*%
X25080000Y-42000000D03*
%TO.N,UART0_TX*%
X27620000Y-42000000D03*
%TO.N,UART0_RX*%
X30160000Y-42000000D03*
%TO.N,N/C*%
X32700000Y-42000000D03*
%TD*%
%TA.AperFunction,Conductor*%
%TO.N,GND*%
G36*
X49459191Y-519407D02*
G01*
X49495155Y-568907D01*
X49500000Y-599500D01*
X49500000Y-39401000D01*
X49481093Y-39459191D01*
X49431593Y-39495155D01*
X49401000Y-39500000D01*
X599500Y-39500000D01*
X541309Y-39481093D01*
X505345Y-39431593D01*
X500500Y-39401000D01*
X500500Y-27199983D01*
X4499500Y-27199983D01*
X4499500Y-28800016D01*
X4509999Y-28902788D01*
X4510002Y-28902800D01*
X4565187Y-29069336D01*
X4657285Y-29218652D01*
X4657286Y-29218653D01*
X4657288Y-29218656D01*
X4781344Y-29342712D01*
X4930666Y-29434814D01*
X5097203Y-29489999D01*
X5199991Y-29500500D01*
X6800008Y-29500499D01*
X6800016Y-29500499D01*
X6902788Y-29490000D01*
X6902788Y-29489999D01*
X6902797Y-29489999D01*
X7069334Y-29434814D01*
X7218656Y-29342712D01*
X7342712Y-29218656D01*
X7434814Y-29069334D01*
X7489999Y-28902797D01*
X7500500Y-28800009D01*
X7500499Y-27881943D01*
X9500000Y-27881943D01*
X9500000Y-28118056D01*
X9536934Y-28351252D01*
X9536935Y-28351256D01*
X9609892Y-28575793D01*
X9609894Y-28575796D01*
X9717084Y-28786169D01*
X9777339Y-28869105D01*
X10517036Y-28129407D01*
X10534075Y-28192993D01*
X10599901Y-28307007D01*
X10692993Y-28400099D01*
X10807007Y-28465925D01*
X10870590Y-28482962D01*
X10130893Y-29222659D01*
X10213825Y-29282913D01*
X10213829Y-29282915D01*
X10424203Y-29390105D01*
X10424206Y-29390107D01*
X10648743Y-29463064D01*
X10648747Y-29463065D01*
X10881944Y-29500000D01*
X11118056Y-29500000D01*
X11351252Y-29463065D01*
X11351256Y-29463064D01*
X11575793Y-29390107D01*
X11575796Y-29390105D01*
X11786170Y-29282915D01*
X11786176Y-29282911D01*
X11869105Y-29222659D01*
X11869105Y-29222658D01*
X11129409Y-28482962D01*
X11192993Y-28465925D01*
X11307007Y-28400099D01*
X11400099Y-28307007D01*
X11465925Y-28192993D01*
X11482962Y-28129409D01*
X12222658Y-28869105D01*
X12222659Y-28869105D01*
X12282911Y-28786176D01*
X12282915Y-28786170D01*
X12390105Y-28575796D01*
X12390107Y-28575793D01*
X12463064Y-28351256D01*
X12463065Y-28351252D01*
X12500000Y-28118056D01*
X12500000Y-27881943D01*
X12463065Y-27648747D01*
X12463064Y-27648743D01*
X12390107Y-27424206D01*
X12390105Y-27424203D01*
X12282915Y-27213829D01*
X12282913Y-27213825D01*
X12222659Y-27130893D01*
X11482962Y-27870590D01*
X11465925Y-27807007D01*
X11400099Y-27692993D01*
X11307007Y-27599901D01*
X11192993Y-27534075D01*
X11129407Y-27517036D01*
X11869105Y-26777339D01*
X11786169Y-26717084D01*
X11575796Y-26609894D01*
X11575793Y-26609892D01*
X11351256Y-26536935D01*
X11351252Y-26536934D01*
X11118056Y-26500000D01*
X10881944Y-26500000D01*
X10648747Y-26536934D01*
X10648743Y-26536935D01*
X10424206Y-26609892D01*
X10424203Y-26609894D01*
X10213823Y-26717088D01*
X10130893Y-26777339D01*
X10870591Y-27517037D01*
X10807007Y-27534075D01*
X10692993Y-27599901D01*
X10599901Y-27692993D01*
X10534075Y-27807007D01*
X10517037Y-27870591D01*
X9777339Y-27130893D01*
X9717088Y-27213823D01*
X9609894Y-27424203D01*
X9609892Y-27424206D01*
X9536935Y-27648743D01*
X9536934Y-27648747D01*
X9500000Y-27881943D01*
X7500499Y-27881943D01*
X7500499Y-27199992D01*
X7500499Y-27199991D01*
X7500499Y-27199983D01*
X7490000Y-27097211D01*
X7489999Y-27097209D01*
X7489999Y-27097203D01*
X7434814Y-26930666D01*
X7425965Y-26916319D01*
X7395573Y-26867045D01*
X7395572Y-26867044D01*
X7386328Y-26852057D01*
X7342712Y-26781344D01*
X7218656Y-26657288D01*
X7218653Y-26657286D01*
X7218652Y-26657285D01*
X7069336Y-26565187D01*
X7069335Y-26565186D01*
X7069334Y-26565186D01*
X6902797Y-26510001D01*
X6902794Y-26510000D01*
X6800016Y-26499500D01*
X5199983Y-26499500D01*
X5097211Y-26509999D01*
X5097199Y-26510002D01*
X4930663Y-26565187D01*
X4781347Y-26657285D01*
X4657285Y-26781347D01*
X4565187Y-26930663D01*
X4510000Y-27097205D01*
X4499500Y-27199983D01*
X500500Y-27199983D01*
X500500Y-4999000D01*
X519407Y-4940809D01*
X568907Y-4904845D01*
X599500Y-4900000D01*
X26999999Y-4900000D01*
X27000000Y-4900000D01*
X27000000Y-599500D01*
X27018907Y-541309D01*
X27068407Y-505345D01*
X27099000Y-500500D01*
X49401000Y-500500D01*
X49459191Y-519407D01*
G37*
%TD.AperFunction*%
%TD*%
M02*
