%TF.GenerationSoftware,KiCad,Pcbnew,9.0.8+dfsg-1*%
%TF.CreationDate,2026-08-06T00:05:25+05:30*%
%TF.ProjectId,v_c3_flight_final,765f6333-5f66-46c6-9967-68745f66696e,rev?*%
%TF.SameCoordinates,Original*%
%TF.FileFunction,Legend,Top*%
%TF.FilePolarity,Positive*%
%FSLAX46Y46*%
G04 Gerber Fmt 4.6, Leading zero omitted, Abs format (unit mm)*
G04 Created by KiCad (PCBNEW 9.0.8+dfsg-1) date 2026-08-06 00:05:25*
%MOMM*%
%LPD*%
G01*
G04 APERTURE LIST*
%ADD10C,0.150000*%
%ADD11C,0.120000*%
%ADD12C,0.100000*%
G04 APERTURE END LIST*
D10*
X22571428Y-31284819D02*
X22238095Y-30808628D01*
X22000000Y-31284819D02*
X22000000Y-30284819D01*
X22000000Y-30284819D02*
X22380952Y-30284819D01*
X22380952Y-30284819D02*
X22476190Y-30332438D01*
X22476190Y-30332438D02*
X22523809Y-30380057D01*
X22523809Y-30380057D02*
X22571428Y-30475295D01*
X22571428Y-30475295D02*
X22571428Y-30618152D01*
X22571428Y-30618152D02*
X22523809Y-30713390D01*
X22523809Y-30713390D02*
X22476190Y-30761009D01*
X22476190Y-30761009D02*
X22380952Y-30808628D01*
X22380952Y-30808628D02*
X22000000Y-30808628D01*
X22761905Y-31380057D02*
X23523809Y-31380057D01*
X24238095Y-31284819D02*
X23761905Y-31284819D01*
X23761905Y-31284819D02*
X23761905Y-30284819D01*
X24571429Y-30761009D02*
X24904762Y-30761009D01*
X25047619Y-31284819D02*
X24571429Y-31284819D01*
X24571429Y-31284819D02*
X24571429Y-30284819D01*
X24571429Y-30284819D02*
X25047619Y-30284819D01*
X25476191Y-31284819D02*
X25476191Y-30284819D01*
X25476191Y-30284819D02*
X25714286Y-30284819D01*
X25714286Y-30284819D02*
X25857143Y-30332438D01*
X25857143Y-30332438D02*
X25952381Y-30427676D01*
X25952381Y-30427676D02*
X26000000Y-30522914D01*
X26000000Y-30522914D02*
X26047619Y-30713390D01*
X26047619Y-30713390D02*
X26047619Y-30856247D01*
X26047619Y-30856247D02*
X26000000Y-31046723D01*
X26000000Y-31046723D02*
X25952381Y-31141961D01*
X25952381Y-31141961D02*
X25857143Y-31237200D01*
X25857143Y-31237200D02*
X25714286Y-31284819D01*
X25714286Y-31284819D02*
X25476191Y-31284819D01*
X5785714Y-24284819D02*
X5452381Y-23808628D01*
X5214286Y-24284819D02*
X5214286Y-23284819D01*
X5214286Y-23284819D02*
X5595238Y-23284819D01*
X5595238Y-23284819D02*
X5690476Y-23332438D01*
X5690476Y-23332438D02*
X5738095Y-23380057D01*
X5738095Y-23380057D02*
X5785714Y-23475295D01*
X5785714Y-23475295D02*
X5785714Y-23618152D01*
X5785714Y-23618152D02*
X5738095Y-23713390D01*
X5738095Y-23713390D02*
X5690476Y-23761009D01*
X5690476Y-23761009D02*
X5595238Y-23808628D01*
X5595238Y-23808628D02*
X5214286Y-23808628D01*
X5976191Y-24380057D02*
X6738095Y-24380057D01*
X6976191Y-24284819D02*
X6976191Y-23284819D01*
X6976191Y-23284819D02*
X7214286Y-23284819D01*
X7214286Y-23284819D02*
X7357143Y-23332438D01*
X7357143Y-23332438D02*
X7452381Y-23427676D01*
X7452381Y-23427676D02*
X7500000Y-23522914D01*
X7500000Y-23522914D02*
X7547619Y-23713390D01*
X7547619Y-23713390D02*
X7547619Y-23856247D01*
X7547619Y-23856247D02*
X7500000Y-24046723D01*
X7500000Y-24046723D02*
X7452381Y-24141961D01*
X7452381Y-24141961D02*
X7357143Y-24237200D01*
X7357143Y-24237200D02*
X7214286Y-24284819D01*
X7214286Y-24284819D02*
X6976191Y-24284819D01*
X7976191Y-24284819D02*
X7976191Y-23284819D01*
X8309524Y-23284819D02*
X8642857Y-24284819D01*
X8642857Y-24284819D02*
X8976190Y-23284819D01*
X9261905Y-23380057D02*
X9309524Y-23332438D01*
X9309524Y-23332438D02*
X9404762Y-23284819D01*
X9404762Y-23284819D02*
X9642857Y-23284819D01*
X9642857Y-23284819D02*
X9738095Y-23332438D01*
X9738095Y-23332438D02*
X9785714Y-23380057D01*
X9785714Y-23380057D02*
X9833333Y-23475295D01*
X9833333Y-23475295D02*
X9833333Y-23570533D01*
X9833333Y-23570533D02*
X9785714Y-23713390D01*
X9785714Y-23713390D02*
X9214286Y-24284819D01*
X9214286Y-24284819D02*
X9833333Y-24284819D01*
X34238095Y745180D02*
X34238095Y-64342D01*
X34238095Y-64342D02*
X34285714Y-159580D01*
X34285714Y-159580D02*
X34333333Y-207200D01*
X34333333Y-207200D02*
X34428571Y-254819D01*
X34428571Y-254819D02*
X34619047Y-254819D01*
X34619047Y-254819D02*
X34714285Y-207200D01*
X34714285Y-207200D02*
X34761904Y-159580D01*
X34761904Y-159580D02*
X34809523Y-64342D01*
X34809523Y-64342D02*
X34809523Y745180D01*
X35238095Y649942D02*
X35285714Y697561D01*
X35285714Y697561D02*
X35380952Y745180D01*
X35380952Y745180D02*
X35619047Y745180D01*
X35619047Y745180D02*
X35714285Y697561D01*
X35714285Y697561D02*
X35761904Y649942D01*
X35761904Y649942D02*
X35809523Y554704D01*
X35809523Y554704D02*
X35809523Y459466D01*
X35809523Y459466D02*
X35761904Y316609D01*
X35761904Y316609D02*
X35190476Y-254819D01*
X35190476Y-254819D02*
X35809523Y-254819D01*
X3928571Y-20284819D02*
X3595238Y-19808628D01*
X3357143Y-20284819D02*
X3357143Y-19284819D01*
X3357143Y-19284819D02*
X3738095Y-19284819D01*
X3738095Y-19284819D02*
X3833333Y-19332438D01*
X3833333Y-19332438D02*
X3880952Y-19380057D01*
X3880952Y-19380057D02*
X3928571Y-19475295D01*
X3928571Y-19475295D02*
X3928571Y-19618152D01*
X3928571Y-19618152D02*
X3880952Y-19713390D01*
X3880952Y-19713390D02*
X3833333Y-19761009D01*
X3833333Y-19761009D02*
X3738095Y-19808628D01*
X3738095Y-19808628D02*
X3357143Y-19808628D01*
X4119048Y-20380057D02*
X4880952Y-20380057D01*
X5119048Y-20284819D02*
X5119048Y-19284819D01*
X5119048Y-19284819D02*
X5500000Y-19284819D01*
X5500000Y-19284819D02*
X5595238Y-19332438D01*
X5595238Y-19332438D02*
X5642857Y-19380057D01*
X5642857Y-19380057D02*
X5690476Y-19475295D01*
X5690476Y-19475295D02*
X5690476Y-19618152D01*
X5690476Y-19618152D02*
X5642857Y-19713390D01*
X5642857Y-19713390D02*
X5595238Y-19761009D01*
X5595238Y-19761009D02*
X5500000Y-19808628D01*
X5500000Y-19808628D02*
X5119048Y-19808628D01*
X6119048Y-20284819D02*
X6119048Y-19284819D01*
X6119048Y-19284819D02*
X6357143Y-19284819D01*
X6357143Y-19284819D02*
X6500000Y-19332438D01*
X6500000Y-19332438D02*
X6595238Y-19427676D01*
X6595238Y-19427676D02*
X6642857Y-19522914D01*
X6642857Y-19522914D02*
X6690476Y-19713390D01*
X6690476Y-19713390D02*
X6690476Y-19856247D01*
X6690476Y-19856247D02*
X6642857Y-20046723D01*
X6642857Y-20046723D02*
X6595238Y-20141961D01*
X6595238Y-20141961D02*
X6500000Y-20237200D01*
X6500000Y-20237200D02*
X6357143Y-20284819D01*
X6357143Y-20284819D02*
X6119048Y-20284819D01*
X25880952Y-31024819D02*
X25404762Y-31024819D01*
X25404762Y-31024819D02*
X25404762Y-30024819D01*
X26214286Y-30501009D02*
X26547619Y-30501009D01*
X26690476Y-31024819D02*
X26214286Y-31024819D01*
X26214286Y-31024819D02*
X26214286Y-30024819D01*
X26214286Y-30024819D02*
X26690476Y-30024819D01*
X27119048Y-31024819D02*
X27119048Y-30024819D01*
X27119048Y-30024819D02*
X27357143Y-30024819D01*
X27357143Y-30024819D02*
X27500000Y-30072438D01*
X27500000Y-30072438D02*
X27595238Y-30167676D01*
X27595238Y-30167676D02*
X27642857Y-30262914D01*
X27642857Y-30262914D02*
X27690476Y-30453390D01*
X27690476Y-30453390D02*
X27690476Y-30596247D01*
X27690476Y-30596247D02*
X27642857Y-30786723D01*
X27642857Y-30786723D02*
X27595238Y-30881961D01*
X27595238Y-30881961D02*
X27500000Y-30977200D01*
X27500000Y-30977200D02*
X27357143Y-31024819D01*
X27357143Y-31024819D02*
X27119048Y-31024819D01*
X28642857Y-31024819D02*
X28071429Y-31024819D01*
X28357143Y-31024819D02*
X28357143Y-30024819D01*
X28357143Y-30024819D02*
X28261905Y-30167676D01*
X28261905Y-30167676D02*
X28166667Y-30262914D01*
X28166667Y-30262914D02*
X28071429Y-30310533D01*
X857143Y-28027200D02*
X1000000Y-28074819D01*
X1000000Y-28074819D02*
X1238095Y-28074819D01*
X1238095Y-28074819D02*
X1333333Y-28027200D01*
X1333333Y-28027200D02*
X1380952Y-27979580D01*
X1380952Y-27979580D02*
X1428571Y-27884342D01*
X1428571Y-27884342D02*
X1428571Y-27789104D01*
X1428571Y-27789104D02*
X1380952Y-27693866D01*
X1380952Y-27693866D02*
X1333333Y-27646247D01*
X1333333Y-27646247D02*
X1238095Y-27598628D01*
X1238095Y-27598628D02*
X1047619Y-27551009D01*
X1047619Y-27551009D02*
X952381Y-27503390D01*
X952381Y-27503390D02*
X904762Y-27455771D01*
X904762Y-27455771D02*
X857143Y-27360533D01*
X857143Y-27360533D02*
X857143Y-27265295D01*
X857143Y-27265295D02*
X904762Y-27170057D01*
X904762Y-27170057D02*
X952381Y-27122438D01*
X952381Y-27122438D02*
X1047619Y-27074819D01*
X1047619Y-27074819D02*
X1285714Y-27074819D01*
X1285714Y-27074819D02*
X1428571Y-27122438D01*
X2047619Y-27074819D02*
X2238095Y-27074819D01*
X2238095Y-27074819D02*
X2333333Y-27122438D01*
X2333333Y-27122438D02*
X2428571Y-27217676D01*
X2428571Y-27217676D02*
X2476190Y-27408152D01*
X2476190Y-27408152D02*
X2476190Y-27741485D01*
X2476190Y-27741485D02*
X2428571Y-27931961D01*
X2428571Y-27931961D02*
X2333333Y-28027200D01*
X2333333Y-28027200D02*
X2238095Y-28074819D01*
X2238095Y-28074819D02*
X2047619Y-28074819D01*
X2047619Y-28074819D02*
X1952381Y-28027200D01*
X1952381Y-28027200D02*
X1857143Y-27931961D01*
X1857143Y-27931961D02*
X1809524Y-27741485D01*
X1809524Y-27741485D02*
X1809524Y-27408152D01*
X1809524Y-27408152D02*
X1857143Y-27217676D01*
X1857143Y-27217676D02*
X1952381Y-27122438D01*
X1952381Y-27122438D02*
X2047619Y-27074819D01*
X3380952Y-28074819D02*
X2904762Y-28074819D01*
X2904762Y-28074819D02*
X2904762Y-27074819D01*
X3666667Y-27789104D02*
X4142857Y-27789104D01*
X3571429Y-28074819D02*
X3904762Y-27074819D01*
X3904762Y-27074819D02*
X4238095Y-28074819D01*
X5142857Y-28074819D02*
X4809524Y-27598628D01*
X4571429Y-28074819D02*
X4571429Y-27074819D01*
X4571429Y-27074819D02*
X4952381Y-27074819D01*
X4952381Y-27074819D02*
X5047619Y-27122438D01*
X5047619Y-27122438D02*
X5095238Y-27170057D01*
X5095238Y-27170057D02*
X5142857Y-27265295D01*
X5142857Y-27265295D02*
X5142857Y-27408152D01*
X5142857Y-27408152D02*
X5095238Y-27503390D01*
X5095238Y-27503390D02*
X5047619Y-27551009D01*
X5047619Y-27551009D02*
X4952381Y-27598628D01*
X4952381Y-27598628D02*
X4571429Y-27598628D01*
X7333333Y-16429580D02*
X7285714Y-16477200D01*
X7285714Y-16477200D02*
X7142857Y-16524819D01*
X7142857Y-16524819D02*
X7047619Y-16524819D01*
X7047619Y-16524819D02*
X6904762Y-16477200D01*
X6904762Y-16477200D02*
X6809524Y-16381961D01*
X6809524Y-16381961D02*
X6761905Y-16286723D01*
X6761905Y-16286723D02*
X6714286Y-16096247D01*
X6714286Y-16096247D02*
X6714286Y-15953390D01*
X6714286Y-15953390D02*
X6761905Y-15762914D01*
X6761905Y-15762914D02*
X6809524Y-15667676D01*
X6809524Y-15667676D02*
X6904762Y-15572438D01*
X6904762Y-15572438D02*
X7047619Y-15524819D01*
X7047619Y-15524819D02*
X7142857Y-15524819D01*
X7142857Y-15524819D02*
X7285714Y-15572438D01*
X7285714Y-15572438D02*
X7333333Y-15620057D01*
X8285714Y-16524819D02*
X7714286Y-16524819D01*
X8000000Y-16524819D02*
X8000000Y-15524819D01*
X8000000Y-15524819D02*
X7904762Y-15667676D01*
X7904762Y-15667676D02*
X7809524Y-15762914D01*
X7809524Y-15762914D02*
X7714286Y-15810533D01*
X13429580Y-7166666D02*
X13477200Y-7214285D01*
X13477200Y-7214285D02*
X13524819Y-7357142D01*
X13524819Y-7357142D02*
X13524819Y-7452380D01*
X13524819Y-7452380D02*
X13477200Y-7595237D01*
X13477200Y-7595237D02*
X13381961Y-7690475D01*
X13381961Y-7690475D02*
X13286723Y-7738094D01*
X13286723Y-7738094D02*
X13096247Y-7785713D01*
X13096247Y-7785713D02*
X12953390Y-7785713D01*
X12953390Y-7785713D02*
X12762914Y-7738094D01*
X12762914Y-7738094D02*
X12667676Y-7690475D01*
X12667676Y-7690475D02*
X12572438Y-7595237D01*
X12572438Y-7595237D02*
X12524819Y-7452380D01*
X12524819Y-7452380D02*
X12524819Y-7357142D01*
X12524819Y-7357142D02*
X12572438Y-7214285D01*
X12572438Y-7214285D02*
X12620057Y-7166666D01*
X12620057Y-6785713D02*
X12572438Y-6738094D01*
X12572438Y-6738094D02*
X12524819Y-6642856D01*
X12524819Y-6642856D02*
X12524819Y-6404761D01*
X12524819Y-6404761D02*
X12572438Y-6309523D01*
X12572438Y-6309523D02*
X12620057Y-6261904D01*
X12620057Y-6261904D02*
X12715295Y-6214285D01*
X12715295Y-6214285D02*
X12810533Y-6214285D01*
X12810533Y-6214285D02*
X12953390Y-6261904D01*
X12953390Y-6261904D02*
X13524819Y-6833332D01*
X13524819Y-6833332D02*
X13524819Y-6214285D01*
X21253095Y-24989819D02*
X21253095Y-25799342D01*
X21253095Y-25799342D02*
X21300714Y-25894580D01*
X21300714Y-25894580D02*
X21348333Y-25942200D01*
X21348333Y-25942200D02*
X21443571Y-25989819D01*
X21443571Y-25989819D02*
X21634047Y-25989819D01*
X21634047Y-25989819D02*
X21729285Y-25942200D01*
X21729285Y-25942200D02*
X21776904Y-25894580D01*
X21776904Y-25894580D02*
X21824523Y-25799342D01*
X21824523Y-25799342D02*
X21824523Y-24989819D01*
X22776904Y-24989819D02*
X22300714Y-24989819D01*
X22300714Y-24989819D02*
X22253095Y-25466009D01*
X22253095Y-25466009D02*
X22300714Y-25418390D01*
X22300714Y-25418390D02*
X22395952Y-25370771D01*
X22395952Y-25370771D02*
X22634047Y-25370771D01*
X22634047Y-25370771D02*
X22729285Y-25418390D01*
X22729285Y-25418390D02*
X22776904Y-25466009D01*
X22776904Y-25466009D02*
X22824523Y-25561247D01*
X22824523Y-25561247D02*
X22824523Y-25799342D01*
X22824523Y-25799342D02*
X22776904Y-25894580D01*
X22776904Y-25894580D02*
X22729285Y-25942200D01*
X22729285Y-25942200D02*
X22634047Y-25989819D01*
X22634047Y-25989819D02*
X22395952Y-25989819D01*
X22395952Y-25989819D02*
X22300714Y-25942200D01*
X22300714Y-25942200D02*
X22253095Y-25894580D01*
X40380952Y-8669104D02*
X40857142Y-8669104D01*
X40285714Y-8954819D02*
X40619047Y-7954819D01*
X40619047Y-7954819D02*
X40952380Y-8954819D01*
X41285714Y-8954819D02*
X41285714Y-7954819D01*
X41285714Y-7954819D02*
X41857142Y-8954819D01*
X41857142Y-8954819D02*
X41857142Y-7954819D01*
X42190476Y-7954819D02*
X42761904Y-7954819D01*
X42476190Y-8954819D02*
X42476190Y-7954819D01*
X43619047Y-8954819D02*
X43047619Y-8954819D01*
X43333333Y-8954819D02*
X43333333Y-7954819D01*
X43333333Y-7954819D02*
X43238095Y-8097676D01*
X43238095Y-8097676D02*
X43142857Y-8192914D01*
X43142857Y-8192914D02*
X43047619Y-8240533D01*
X3738095Y-11054819D02*
X3738095Y-11864342D01*
X3738095Y-11864342D02*
X3785714Y-11959580D01*
X3785714Y-11959580D02*
X3833333Y-12007200D01*
X3833333Y-12007200D02*
X3928571Y-12054819D01*
X3928571Y-12054819D02*
X4119047Y-12054819D01*
X4119047Y-12054819D02*
X4214285Y-12007200D01*
X4214285Y-12007200D02*
X4261904Y-11959580D01*
X4261904Y-11959580D02*
X4309523Y-11864342D01*
X4309523Y-11864342D02*
X4309523Y-11054819D01*
X5214285Y-11388152D02*
X5214285Y-12054819D01*
X4976190Y-11007200D02*
X4738095Y-11721485D01*
X4738095Y-11721485D02*
X5357142Y-11721485D01*
X10833333Y-10199580D02*
X10785714Y-10247200D01*
X10785714Y-10247200D02*
X10642857Y-10294819D01*
X10642857Y-10294819D02*
X10547619Y-10294819D01*
X10547619Y-10294819D02*
X10404762Y-10247200D01*
X10404762Y-10247200D02*
X10309524Y-10151961D01*
X10309524Y-10151961D02*
X10261905Y-10056723D01*
X10261905Y-10056723D02*
X10214286Y-9866247D01*
X10214286Y-9866247D02*
X10214286Y-9723390D01*
X10214286Y-9723390D02*
X10261905Y-9532914D01*
X10261905Y-9532914D02*
X10309524Y-9437676D01*
X10309524Y-9437676D02*
X10404762Y-9342438D01*
X10404762Y-9342438D02*
X10547619Y-9294819D01*
X10547619Y-9294819D02*
X10642857Y-9294819D01*
X10642857Y-9294819D02*
X10785714Y-9342438D01*
X10785714Y-9342438D02*
X10833333Y-9390057D01*
X11166667Y-9294819D02*
X11785714Y-9294819D01*
X11785714Y-9294819D02*
X11452381Y-9675771D01*
X11452381Y-9675771D02*
X11595238Y-9675771D01*
X11595238Y-9675771D02*
X11690476Y-9723390D01*
X11690476Y-9723390D02*
X11738095Y-9771009D01*
X11738095Y-9771009D02*
X11785714Y-9866247D01*
X11785714Y-9866247D02*
X11785714Y-10104342D01*
X11785714Y-10104342D02*
X11738095Y-10199580D01*
X11738095Y-10199580D02*
X11690476Y-10247200D01*
X11690476Y-10247200D02*
X11595238Y-10294819D01*
X11595238Y-10294819D02*
X11309524Y-10294819D01*
X11309524Y-10294819D02*
X11214286Y-10247200D01*
X11214286Y-10247200D02*
X11166667Y-10199580D01*
X6999999Y-1109580D02*
X6952380Y-1157200D01*
X6952380Y-1157200D02*
X6809523Y-1204819D01*
X6809523Y-1204819D02*
X6714285Y-1204819D01*
X6714285Y-1204819D02*
X6571428Y-1157200D01*
X6571428Y-1157200D02*
X6476190Y-1061961D01*
X6476190Y-1061961D02*
X6428571Y-966723D01*
X6428571Y-966723D02*
X6380952Y-776247D01*
X6380952Y-776247D02*
X6380952Y-633390D01*
X6380952Y-633390D02*
X6428571Y-442914D01*
X6428571Y-442914D02*
X6476190Y-347676D01*
X6476190Y-347676D02*
X6571428Y-252438D01*
X6571428Y-252438D02*
X6714285Y-204819D01*
X6714285Y-204819D02*
X6809523Y-204819D01*
X6809523Y-204819D02*
X6952380Y-252438D01*
X6952380Y-252438D02*
X6999999Y-300057D01*
X7190476Y-1300057D02*
X7952380Y-1300057D01*
X8761904Y-1109580D02*
X8714285Y-1157200D01*
X8714285Y-1157200D02*
X8571428Y-1204819D01*
X8571428Y-1204819D02*
X8476190Y-1204819D01*
X8476190Y-1204819D02*
X8333333Y-1157200D01*
X8333333Y-1157200D02*
X8238095Y-1061961D01*
X8238095Y-1061961D02*
X8190476Y-966723D01*
X8190476Y-966723D02*
X8142857Y-776247D01*
X8142857Y-776247D02*
X8142857Y-633390D01*
X8142857Y-633390D02*
X8190476Y-442914D01*
X8190476Y-442914D02*
X8238095Y-347676D01*
X8238095Y-347676D02*
X8333333Y-252438D01*
X8333333Y-252438D02*
X8476190Y-204819D01*
X8476190Y-204819D02*
X8571428Y-204819D01*
X8571428Y-204819D02*
X8714285Y-252438D01*
X8714285Y-252438D02*
X8761904Y-300057D01*
X9142857Y-919104D02*
X9619047Y-919104D01*
X9047619Y-1204819D02*
X9380952Y-204819D01*
X9380952Y-204819D02*
X9714285Y-1204819D01*
X10047619Y-1204819D02*
X10047619Y-204819D01*
X10047619Y-204819D02*
X10428571Y-204819D01*
X10428571Y-204819D02*
X10523809Y-252438D01*
X10523809Y-252438D02*
X10571428Y-300057D01*
X10571428Y-300057D02*
X10619047Y-395295D01*
X10619047Y-395295D02*
X10619047Y-538152D01*
X10619047Y-538152D02*
X10571428Y-633390D01*
X10571428Y-633390D02*
X10523809Y-681009D01*
X10523809Y-681009D02*
X10428571Y-728628D01*
X10428571Y-728628D02*
X10047619Y-728628D01*
X6954819Y-19891904D02*
X7764342Y-19891904D01*
X7764342Y-19891904D02*
X7859580Y-19844285D01*
X7859580Y-19844285D02*
X7907200Y-19796666D01*
X7907200Y-19796666D02*
X7954819Y-19701428D01*
X7954819Y-19701428D02*
X7954819Y-19510952D01*
X7954819Y-19510952D02*
X7907200Y-19415714D01*
X7907200Y-19415714D02*
X7859580Y-19368095D01*
X7859580Y-19368095D02*
X7764342Y-19320476D01*
X7764342Y-19320476D02*
X6954819Y-19320476D01*
X7954819Y-18320476D02*
X7954819Y-18891904D01*
X7954819Y-18606190D02*
X6954819Y-18606190D01*
X6954819Y-18606190D02*
X7097676Y-18701428D01*
X7097676Y-18701428D02*
X7192914Y-18796666D01*
X7192914Y-18796666D02*
X7240533Y-18891904D01*
X10666666Y-28074819D02*
X10666666Y-28789104D01*
X10666666Y-28789104D02*
X10619047Y-28931961D01*
X10619047Y-28931961D02*
X10523809Y-29027200D01*
X10523809Y-29027200D02*
X10380952Y-29074819D01*
X10380952Y-29074819D02*
X10285714Y-29074819D01*
X11666666Y-29074819D02*
X11095238Y-29074819D01*
X11380952Y-29074819D02*
X11380952Y-28074819D01*
X11380952Y-28074819D02*
X11285714Y-28217676D01*
X11285714Y-28217676D02*
X11190476Y-28312914D01*
X11190476Y-28312914D02*
X11095238Y-28360533D01*
X29833333Y-2199580D02*
X29785714Y-2247200D01*
X29785714Y-2247200D02*
X29642857Y-2294819D01*
X29642857Y-2294819D02*
X29547619Y-2294819D01*
X29547619Y-2294819D02*
X29404762Y-2247200D01*
X29404762Y-2247200D02*
X29309524Y-2151961D01*
X29309524Y-2151961D02*
X29261905Y-2056723D01*
X29261905Y-2056723D02*
X29214286Y-1866247D01*
X29214286Y-1866247D02*
X29214286Y-1723390D01*
X29214286Y-1723390D02*
X29261905Y-1532914D01*
X29261905Y-1532914D02*
X29309524Y-1437676D01*
X29309524Y-1437676D02*
X29404762Y-1342438D01*
X29404762Y-1342438D02*
X29547619Y-1294819D01*
X29547619Y-1294819D02*
X29642857Y-1294819D01*
X29642857Y-1294819D02*
X29785714Y-1342438D01*
X29785714Y-1342438D02*
X29833333Y-1390057D01*
X30690476Y-1628152D02*
X30690476Y-2294819D01*
X30452381Y-1247200D02*
X30214286Y-1961485D01*
X30214286Y-1961485D02*
X30833333Y-1961485D01*
X34238095Y-19454819D02*
X34238095Y-20264342D01*
X34238095Y-20264342D02*
X34285714Y-20359580D01*
X34285714Y-20359580D02*
X34333333Y-20407200D01*
X34333333Y-20407200D02*
X34428571Y-20454819D01*
X34428571Y-20454819D02*
X34619047Y-20454819D01*
X34619047Y-20454819D02*
X34714285Y-20407200D01*
X34714285Y-20407200D02*
X34761904Y-20359580D01*
X34761904Y-20359580D02*
X34809523Y-20264342D01*
X34809523Y-20264342D02*
X34809523Y-19454819D01*
X35190476Y-19454819D02*
X35809523Y-19454819D01*
X35809523Y-19454819D02*
X35476190Y-19835771D01*
X35476190Y-19835771D02*
X35619047Y-19835771D01*
X35619047Y-19835771D02*
X35714285Y-19883390D01*
X35714285Y-19883390D02*
X35761904Y-19931009D01*
X35761904Y-19931009D02*
X35809523Y-20026247D01*
X35809523Y-20026247D02*
X35809523Y-20264342D01*
X35809523Y-20264342D02*
X35761904Y-20359580D01*
X35761904Y-20359580D02*
X35714285Y-20407200D01*
X35714285Y-20407200D02*
X35619047Y-20454819D01*
X35619047Y-20454819D02*
X35333333Y-20454819D01*
X35333333Y-20454819D02*
X35238095Y-20407200D01*
X35238095Y-20407200D02*
X35190476Y-20359580D01*
X29666666Y-28074819D02*
X29666666Y-28789104D01*
X29666666Y-28789104D02*
X29619047Y-28931961D01*
X29619047Y-28931961D02*
X29523809Y-29027200D01*
X29523809Y-29027200D02*
X29380952Y-29074819D01*
X29380952Y-29074819D02*
X29285714Y-29074819D01*
X30095238Y-28170057D02*
X30142857Y-28122438D01*
X30142857Y-28122438D02*
X30238095Y-28074819D01*
X30238095Y-28074819D02*
X30476190Y-28074819D01*
X30476190Y-28074819D02*
X30571428Y-28122438D01*
X30571428Y-28122438D02*
X30619047Y-28170057D01*
X30619047Y-28170057D02*
X30666666Y-28265295D01*
X30666666Y-28265295D02*
X30666666Y-28360533D01*
X30666666Y-28360533D02*
X30619047Y-28503390D01*
X30619047Y-28503390D02*
X30047619Y-29074819D01*
X30047619Y-29074819D02*
X30666666Y-29074819D01*
X2285714Y-24284819D02*
X1952381Y-23808628D01*
X1714286Y-24284819D02*
X1714286Y-23284819D01*
X1714286Y-23284819D02*
X2095238Y-23284819D01*
X2095238Y-23284819D02*
X2190476Y-23332438D01*
X2190476Y-23332438D02*
X2238095Y-23380057D01*
X2238095Y-23380057D02*
X2285714Y-23475295D01*
X2285714Y-23475295D02*
X2285714Y-23618152D01*
X2285714Y-23618152D02*
X2238095Y-23713390D01*
X2238095Y-23713390D02*
X2190476Y-23761009D01*
X2190476Y-23761009D02*
X2095238Y-23808628D01*
X2095238Y-23808628D02*
X1714286Y-23808628D01*
X2476191Y-24380057D02*
X3238095Y-24380057D01*
X3476191Y-24284819D02*
X3476191Y-23284819D01*
X3476191Y-23284819D02*
X3714286Y-23284819D01*
X3714286Y-23284819D02*
X3857143Y-23332438D01*
X3857143Y-23332438D02*
X3952381Y-23427676D01*
X3952381Y-23427676D02*
X4000000Y-23522914D01*
X4000000Y-23522914D02*
X4047619Y-23713390D01*
X4047619Y-23713390D02*
X4047619Y-23856247D01*
X4047619Y-23856247D02*
X4000000Y-24046723D01*
X4000000Y-24046723D02*
X3952381Y-24141961D01*
X3952381Y-24141961D02*
X3857143Y-24237200D01*
X3857143Y-24237200D02*
X3714286Y-24284819D01*
X3714286Y-24284819D02*
X3476191Y-24284819D01*
X4476191Y-24284819D02*
X4476191Y-23284819D01*
X4809524Y-23284819D02*
X5142857Y-24284819D01*
X5142857Y-24284819D02*
X5476190Y-23284819D01*
X6333333Y-24284819D02*
X5761905Y-24284819D01*
X6047619Y-24284819D02*
X6047619Y-23284819D01*
X6047619Y-23284819D02*
X5952381Y-23427676D01*
X5952381Y-23427676D02*
X5857143Y-23522914D01*
X5857143Y-23522914D02*
X5761905Y-23570533D01*
X8261905Y-12454819D02*
X8261905Y-11454819D01*
X8261905Y-11454819D02*
X8500000Y-11454819D01*
X8500000Y-11454819D02*
X8642857Y-11502438D01*
X8642857Y-11502438D02*
X8738095Y-11597676D01*
X8738095Y-11597676D02*
X8785714Y-11692914D01*
X8785714Y-11692914D02*
X8833333Y-11883390D01*
X8833333Y-11883390D02*
X8833333Y-12026247D01*
X8833333Y-12026247D02*
X8785714Y-12216723D01*
X8785714Y-12216723D02*
X8738095Y-12311961D01*
X8738095Y-12311961D02*
X8642857Y-12407200D01*
X8642857Y-12407200D02*
X8500000Y-12454819D01*
X8500000Y-12454819D02*
X8261905Y-12454819D01*
X9785714Y-12454819D02*
X9214286Y-12454819D01*
X9500000Y-12454819D02*
X9500000Y-11454819D01*
X9500000Y-11454819D02*
X9404762Y-11597676D01*
X9404762Y-11597676D02*
X9309524Y-11692914D01*
X9309524Y-11692914D02*
X9214286Y-11740533D01*
D11*
%TO.C,R_LED*%
X23846359Y-31620000D02*
X24153641Y-31620000D01*
X23846359Y-32380000D02*
X24153641Y-32380000D01*
%TO.C,R_DIV2*%
X7346359Y-24620000D02*
X7653641Y-24620000D01*
X7346359Y-25380000D02*
X7653641Y-25380000D01*
%TO.C,U2*%
X26900000Y-900000D02*
X43100000Y-900000D01*
X26900000Y-16700000D02*
X26900000Y-17100000D01*
X26900000Y-17100000D02*
X43100000Y-17100000D01*
X43100000Y-900000D02*
X43100000Y-1300000D01*
X43100000Y-17100000D02*
X43100000Y-16700000D01*
X26400000Y-1100000D02*
X26160000Y-764000D01*
X26640000Y-764000D01*
X26400000Y-1100000D01*
G36*
X26400000Y-1100000D02*
G01*
X26160000Y-764000D01*
X26640000Y-764000D01*
X26400000Y-1100000D01*
G37*
%TO.C,R_PD*%
X4846359Y-20620000D02*
X5153641Y-20620000D01*
X4846359Y-21380000D02*
X5153641Y-21380000D01*
%TO.C,LED1*%
X25515000Y-31265000D02*
X25515000Y-32735000D01*
X25515000Y-32735000D02*
X27800000Y-32735000D01*
X27800000Y-31265000D02*
X25515000Y-31265000D01*
%TO.C,SOLAR*%
X1620000Y-28620000D02*
X3000000Y-28620000D01*
X1620000Y-30000000D02*
X1620000Y-28620000D01*
X1620000Y-31270000D02*
X1620000Y-33920000D01*
X1620000Y-31270000D02*
X4380000Y-31270000D01*
X1620000Y-33920000D02*
X4380000Y-33920000D01*
X4380000Y-31270000D02*
X4380000Y-33920000D01*
%TO.C,C1*%
X7359420Y-16990000D02*
X7640580Y-16990000D01*
X7359420Y-18010000D02*
X7640580Y-18010000D01*
%TO.C,C2*%
X13990000Y-7140580D02*
X13990000Y-6859420D01*
X15010000Y-7140580D02*
X15010000Y-6859420D01*
D12*
%TO.C,U5*%
X20650000Y-29350000D02*
X20650000Y-29200000D01*
X20650000Y-29360000D02*
X20800000Y-29360000D01*
X23200000Y-26650000D02*
X23350000Y-26650000D01*
X23350000Y-26650000D02*
X23350000Y-26800000D01*
X23350000Y-29350000D02*
X23200000Y-29350000D01*
X23350000Y-29350000D02*
X23350000Y-29200000D01*
D11*
X20650000Y-26650000D02*
X20290000Y-26650000D01*
X20650000Y-26290000D01*
X20650000Y-26650000D01*
G36*
X20650000Y-26650000D02*
G01*
X20290000Y-26650000D01*
X20650000Y-26290000D01*
X20650000Y-26650000D01*
G37*
%TO.C,ANT1*%
X40500000Y-3500000D02*
X41300000Y-3500000D01*
X40500000Y-3700000D02*
X40500000Y-3500000D01*
X40500000Y-6500000D02*
X40500000Y-6300000D01*
X41300000Y-3500000D02*
X41300000Y-3000000D01*
X41300000Y-6500000D02*
X40500000Y-6500000D01*
X42700000Y-3500000D02*
X42700000Y-3000000D01*
X42700000Y-3500000D02*
X43300000Y-3500000D01*
X43300000Y-3500000D02*
X43500000Y-3700000D01*
X43500000Y-6300000D02*
X43500000Y-6500000D01*
X43500000Y-6500000D02*
X42700000Y-6500000D01*
%TO.C,U4*%
X3590000Y-12440000D02*
X5410000Y-12440000D01*
X3590000Y-12490000D02*
X3590000Y-12440000D01*
X3590000Y-15560000D02*
X3590000Y-15510000D01*
X5410000Y-12440000D02*
X5410000Y-12490000D01*
X5410000Y-13610000D02*
X5410000Y-14390000D01*
X5410000Y-15510000D02*
X5410000Y-15560000D01*
X5410000Y-15560000D02*
X3590000Y-15560000D01*
X3050000Y-12490000D02*
X2810000Y-12160000D01*
X3290000Y-12160000D01*
X3050000Y-12490000D01*
G36*
X3050000Y-12490000D02*
G01*
X2810000Y-12160000D01*
X3290000Y-12160000D01*
X3050000Y-12490000D01*
G37*
%TO.C,C3*%
X10892164Y-10640000D02*
X11107836Y-10640000D01*
X10892164Y-11360000D02*
X11107836Y-11360000D01*
%TO.C,C_CAP*%
X3020354Y-4125000D02*
X4020354Y-4125000D01*
X3520354Y-3625000D02*
X3520354Y-4625000D01*
X8500000Y-1920000D02*
X8500000Y-12080000D01*
X8540000Y-1920000D02*
X8540000Y-12080000D01*
X8580000Y-1921000D02*
X8580000Y-12079000D01*
X8620000Y-1921000D02*
X8620000Y-12079000D01*
X8660000Y-1923000D02*
X8660000Y-12077000D01*
X8700000Y-1924000D02*
X8700000Y-12076000D01*
X8740000Y-1926000D02*
X8740000Y-12074000D01*
X8780000Y-1928000D02*
X8780000Y-12072000D01*
X8820000Y-1930000D02*
X8820000Y-12070000D01*
X8860000Y-1933000D02*
X8860000Y-12067000D01*
X8900000Y-1936000D02*
X8900000Y-12064000D01*
X8940000Y-1939000D02*
X8940000Y-12061000D01*
X8980000Y-1943000D02*
X8980000Y-12057000D01*
X9020000Y-1946000D02*
X9020000Y-12054000D01*
X9060000Y-1951000D02*
X9060000Y-12049000D01*
X9100000Y-1955000D02*
X9100000Y-12045000D01*
X9140000Y-1960000D02*
X9140000Y-12040000D01*
X9180000Y-1965000D02*
X9180000Y-12035000D01*
X9220000Y-1971000D02*
X9220000Y-12029000D01*
X9260000Y-1977000D02*
X9260000Y-12023000D01*
X9300000Y-1983000D02*
X9300000Y-12017000D01*
X9340000Y-1989000D02*
X9340000Y-12011000D01*
X9380000Y-1996000D02*
X9380000Y-12004000D01*
X9420000Y-2003000D02*
X9420000Y-11997000D01*
X9460000Y-2011000D02*
X9460000Y-11989000D01*
X9500000Y-2019000D02*
X9500000Y-11981000D01*
X9540000Y-2027000D02*
X9540000Y-11973000D01*
X9580000Y-2035000D02*
X9580000Y-11965000D01*
X9620000Y-2044000D02*
X9620000Y-11956000D01*
X9660000Y-2053000D02*
X9660000Y-11947000D01*
X9700000Y-2063000D02*
X9700000Y-11937000D01*
X9740000Y-2072000D02*
X9740000Y-11928000D01*
X9780000Y-2083000D02*
X9780000Y-5760000D01*
X9780000Y-8240000D02*
X9780000Y-11917000D01*
X9820000Y-2093000D02*
X9820000Y-5760000D01*
X9820000Y-8240000D02*
X9820000Y-11907000D01*
X9860000Y-2104000D02*
X9860000Y-5760000D01*
X9860000Y-8240000D02*
X9860000Y-11896000D01*
X9900000Y-2115000D02*
X9900000Y-5760000D01*
X9900000Y-8240000D02*
X9900000Y-11885000D01*
X9940000Y-2127000D02*
X9940000Y-5760000D01*
X9940000Y-8240000D02*
X9940000Y-11873000D01*
X9980000Y-2139000D02*
X9980000Y-5760000D01*
X9980000Y-8240000D02*
X9980000Y-11861000D01*
X10020000Y-2151000D02*
X10020000Y-5760000D01*
X10020000Y-8240000D02*
X10020000Y-11849000D01*
X10060000Y-2163000D02*
X10060000Y-5760000D01*
X10060000Y-8240000D02*
X10060000Y-11837000D01*
X10100000Y-2176000D02*
X10100000Y-5760000D01*
X10100000Y-8240000D02*
X10100000Y-11824000D01*
X10140000Y-2190000D02*
X10140000Y-5760000D01*
X10140000Y-8240000D02*
X10140000Y-11810000D01*
X10180000Y-2203000D02*
X10180000Y-5760000D01*
X10180000Y-8240000D02*
X10180000Y-11797000D01*
X10220000Y-2218000D02*
X10220000Y-5760000D01*
X10220000Y-8240000D02*
X10220000Y-11782000D01*
X10260000Y-2232000D02*
X10260000Y-5760000D01*
X10260000Y-8240000D02*
X10260000Y-11768000D01*
X10300000Y-2247000D02*
X10300000Y-5760000D01*
X10300000Y-8240000D02*
X10300000Y-11753000D01*
X10340000Y-2262000D02*
X10340000Y-5760000D01*
X10340000Y-8240000D02*
X10340000Y-11738000D01*
X10380000Y-2278000D02*
X10380000Y-5760000D01*
X10380000Y-8240000D02*
X10380000Y-11722000D01*
X10420000Y-2294000D02*
X10420000Y-5760000D01*
X10420000Y-8240000D02*
X10420000Y-11706000D01*
X10460000Y-2310000D02*
X10460000Y-5760000D01*
X10460000Y-8240000D02*
X10460000Y-11690000D01*
X10500000Y-2327000D02*
X10500000Y-5760000D01*
X10500000Y-8240000D02*
X10500000Y-11673000D01*
X10540000Y-2344000D02*
X10540000Y-5760000D01*
X10540000Y-8240000D02*
X10540000Y-11656000D01*
X10580000Y-2362000D02*
X10580000Y-5760000D01*
X10580000Y-8240000D02*
X10580000Y-11638000D01*
X10620000Y-2380000D02*
X10620000Y-5760000D01*
X10620000Y-8240000D02*
X10620000Y-11620000D01*
X10660000Y-2398000D02*
X10660000Y-5760000D01*
X10660000Y-8240000D02*
X10660000Y-11602000D01*
X10700000Y-2417000D02*
X10700000Y-5760000D01*
X10700000Y-8240000D02*
X10700000Y-11583000D01*
X10740000Y-2436000D02*
X10740000Y-5760000D01*
X10740000Y-8240000D02*
X10740000Y-11564000D01*
X10780000Y-2456000D02*
X10780000Y-5760000D01*
X10780000Y-8240000D02*
X10780000Y-11544000D01*
X10820000Y-2476000D02*
X10820000Y-5760000D01*
X10820000Y-8240000D02*
X10820000Y-11524000D01*
X10860000Y-2496000D02*
X10860000Y-5760000D01*
X10860000Y-8240000D02*
X10860000Y-11504000D01*
X10900000Y-2517000D02*
X10900000Y-5760000D01*
X10900000Y-8240000D02*
X10900000Y-11483000D01*
X10940000Y-2539000D02*
X10940000Y-5760000D01*
X10940000Y-8240000D02*
X10940000Y-11461000D01*
X10980000Y-2561000D02*
X10980000Y-5760000D01*
X10980000Y-8240000D02*
X10980000Y-11439000D01*
X11020000Y-2583000D02*
X11020000Y-5760000D01*
X11020000Y-8240000D02*
X11020000Y-11417000D01*
X11060000Y-2606000D02*
X11060000Y-5760000D01*
X11060000Y-8240000D02*
X11060000Y-11394000D01*
X11100000Y-2629000D02*
X11100000Y-5760000D01*
X11100000Y-8240000D02*
X11100000Y-11371000D01*
X11140000Y-2653000D02*
X11140000Y-5760000D01*
X11140000Y-8240000D02*
X11140000Y-11347000D01*
X11180000Y-2677000D02*
X11180000Y-5760000D01*
X11180000Y-8240000D02*
X11180000Y-11323000D01*
X11220000Y-2702000D02*
X11220000Y-5760000D01*
X11220000Y-8240000D02*
X11220000Y-11298000D01*
X11260000Y-2728000D02*
X11260000Y-5760000D01*
X11260000Y-8240000D02*
X11260000Y-11272000D01*
X11300000Y-2753000D02*
X11300000Y-5760000D01*
X11300000Y-8240000D02*
X11300000Y-11247000D01*
X11340000Y-2780000D02*
X11340000Y-5760000D01*
X11340000Y-8240000D02*
X11340000Y-11220000D01*
X11380000Y-2807000D02*
X11380000Y-5760000D01*
X11380000Y-8240000D02*
X11380000Y-11193000D01*
X11420000Y-2834000D02*
X11420000Y-5760000D01*
X11420000Y-8240000D02*
X11420000Y-11166000D01*
X11460000Y-2862000D02*
X11460000Y-5760000D01*
X11460000Y-8240000D02*
X11460000Y-11138000D01*
X11500000Y-2891000D02*
X11500000Y-5760000D01*
X11500000Y-8240000D02*
X11500000Y-11109000D01*
X11540000Y-2920000D02*
X11540000Y-5760000D01*
X11540000Y-8240000D02*
X11540000Y-11080000D01*
X11580000Y-2950000D02*
X11580000Y-5760000D01*
X11580000Y-8240000D02*
X11580000Y-11050000D01*
X11620000Y-2980000D02*
X11620000Y-5760000D01*
X11620000Y-8240000D02*
X11620000Y-11020000D01*
X11660000Y-3012000D02*
X11660000Y-5760000D01*
X11660000Y-8240000D02*
X11660000Y-10988000D01*
X11700000Y-3043000D02*
X11700000Y-5760000D01*
X11700000Y-8240000D02*
X11700000Y-10957000D01*
X11740000Y-3076000D02*
X11740000Y-5760000D01*
X11740000Y-8240000D02*
X11740000Y-10924000D01*
X11780000Y-3109000D02*
X11780000Y-5760000D01*
X11780000Y-8240000D02*
X11780000Y-10891000D01*
X11820000Y-3142000D02*
X11820000Y-5760000D01*
X11820000Y-8240000D02*
X11820000Y-10858000D01*
X11860000Y-3177000D02*
X11860000Y-5760000D01*
X11860000Y-8240000D02*
X11860000Y-10823000D01*
X11900000Y-3212000D02*
X11900000Y-5760000D01*
X11900000Y-8240000D02*
X11900000Y-10788000D01*
X11940000Y-3248000D02*
X11940000Y-5760000D01*
X11940000Y-8240000D02*
X11940000Y-10752000D01*
X11980000Y-3284000D02*
X11980000Y-5760000D01*
X11980000Y-8240000D02*
X11980000Y-10716000D01*
X12020000Y-3322000D02*
X12020000Y-5760000D01*
X12020000Y-8240000D02*
X12020000Y-10678000D01*
X12060000Y-3360000D02*
X12060000Y-5760000D01*
X12060000Y-8240000D02*
X12060000Y-10640000D01*
X12100000Y-3399000D02*
X12100000Y-5760000D01*
X12100000Y-8240000D02*
X12100000Y-10601000D01*
X12140000Y-3439000D02*
X12140000Y-5760000D01*
X12140000Y-8240000D02*
X12140000Y-10561000D01*
X12180000Y-3480000D02*
X12180000Y-5760000D01*
X12180000Y-8240000D02*
X12180000Y-10520000D01*
X12220000Y-3522000D02*
X12220000Y-5760000D01*
X12220000Y-8240000D02*
X12220000Y-10478000D01*
X12260000Y-3565000D02*
X12260000Y-10435000D01*
X12300000Y-3609000D02*
X12300000Y-10391000D01*
X12340000Y-3653000D02*
X12340000Y-10347000D01*
X12380000Y-3699000D02*
X12380000Y-10301000D01*
X12420000Y-3746000D02*
X12420000Y-10254000D01*
X12460000Y-3795000D02*
X12460000Y-10205000D01*
X12500000Y-3844000D02*
X12500000Y-10156000D01*
X12540000Y-3895000D02*
X12540000Y-10105000D01*
X12580000Y-3947000D02*
X12580000Y-10053000D01*
X12620000Y-4000000D02*
X12620000Y-10000000D01*
X12660000Y-4055000D02*
X12660000Y-9945000D01*
X12700000Y-4112000D02*
X12700000Y-9888000D01*
X12740000Y-4170000D02*
X12740000Y-9830000D01*
X12780000Y-4230000D02*
X12780000Y-9770000D01*
X12820000Y-4292000D02*
X12820000Y-9708000D01*
X12860000Y-4356000D02*
X12860000Y-9644000D01*
X12900000Y-4422000D02*
X12900000Y-9578000D01*
X12940000Y-4490000D02*
X12940000Y-9510000D01*
X12980000Y-4561000D02*
X12980000Y-9439000D01*
X13020000Y-4635000D02*
X13020000Y-9365000D01*
X13060000Y-4712000D02*
X13060000Y-9288000D01*
X13100000Y-4792000D02*
X13100000Y-9208000D01*
X13140000Y-4876000D02*
X13140000Y-9124000D01*
X13180000Y-4963000D02*
X13180000Y-9037000D01*
X13220000Y-5056000D02*
X13220000Y-8944000D01*
X13260000Y-5154000D02*
X13260000Y-8846000D01*
X13300000Y-5258000D02*
X13300000Y-8742000D01*
X13340000Y-5370000D02*
X13340000Y-8630000D01*
X13380000Y-5491000D02*
X13380000Y-8509000D01*
X13420000Y-5623000D02*
X13420000Y-8377000D01*
X13460000Y-5770000D02*
X13460000Y-8230000D01*
X13500000Y-5938000D02*
X13500000Y-8062000D01*
X13540000Y-6138000D02*
X13540000Y-7862000D01*
X13580000Y-6401000D02*
X13580000Y-7599000D01*
X13620000Y-7000000D02*
G75*
G02*
X3380000Y-7000000I-5120000J0D01*
G01*
X3380000Y-7000000D02*
G75*
G02*
X13620000Y-7000000I5120000J0D01*
G01*
%TO.C,U1*%
X8890000Y-790000D02*
X8890000Y-6600000D01*
X8890000Y-790000D02*
X27110000Y-790000D01*
X8890000Y-20710000D02*
X8890000Y-21010000D01*
X8890000Y-21010000D02*
X27110000Y-21010000D01*
X27110000Y-790000D02*
X27110000Y-7290000D01*
X27110000Y-20710000D02*
X27110000Y-21010000D01*
X8900000Y-7300000D02*
X8400000Y-7300000D01*
X8900000Y-6800000D01*
X8900000Y-7300000D01*
G36*
X8900000Y-7300000D02*
G01*
X8400000Y-7300000D01*
X8900000Y-6800000D01*
X8900000Y-7300000D01*
G37*
%TO.C,J1*%
X9620000Y-29620000D02*
X11000000Y-29620000D01*
X9620000Y-31000000D02*
X9620000Y-29620000D01*
X9620000Y-32270000D02*
X9620000Y-45080000D01*
X9620000Y-32270000D02*
X12380000Y-32270000D01*
X9620000Y-45080000D02*
X12380000Y-45080000D01*
X12380000Y-32270000D02*
X12380000Y-45080000D01*
%TO.C,C4*%
X29892164Y-2640000D02*
X30107836Y-2640000D01*
X29892164Y-3360000D02*
X30107836Y-3360000D01*
%TO.C,U3*%
X30040000Y-20840000D02*
X30040000Y-20990000D01*
X30040000Y-20840000D02*
X39960000Y-20840000D01*
X30040000Y-31010000D02*
X30040000Y-31160000D01*
X30040000Y-31160000D02*
X39960000Y-31160000D01*
X39960000Y-20840000D02*
X39960000Y-20990000D01*
X39960000Y-31010000D02*
X39960000Y-31160000D01*
X29570000Y-20990000D02*
X29330000Y-20660000D01*
X29810000Y-20660000D01*
X29570000Y-20990000D01*
G36*
X29570000Y-20990000D02*
G01*
X29330000Y-20660000D01*
X29810000Y-20660000D01*
X29570000Y-20990000D01*
G37*
%TO.C,J2*%
X28620000Y-29620000D02*
X30000000Y-29620000D01*
X28620000Y-31000000D02*
X28620000Y-29620000D01*
X28620000Y-32270000D02*
X28620000Y-40000000D01*
X28620000Y-32270000D02*
X31380000Y-32270000D01*
X28620000Y-40000000D02*
X31380000Y-40000000D01*
X31380000Y-32270000D02*
X31380000Y-40000000D01*
%TO.C,R_DIV1*%
X3846359Y-24620000D02*
X4153641Y-24620000D01*
X3846359Y-25380000D02*
X4153641Y-25380000D01*
%TO.C,D1*%
X6640000Y-13000000D02*
X6640000Y-15000000D01*
X6640000Y-13000000D02*
X10650000Y-13000000D01*
X6640000Y-15000000D02*
X10650000Y-15000000D01*
%TD*%
M02*
