%TF.GenerationSoftware,KiCad,Pcbnew,9.0.8+dfsg-1*%
%TF.CreationDate,2026-08-06T02:22:46+05:30*%
%TF.ProjectId,v_c3_flight_final,765f6333-5f66-46c6-9967-68745f66696e,rev?*%
%TF.SameCoordinates,Original*%
%TF.FileFunction,AssemblyDrawing,Top*%
%FSLAX46Y46*%
G04 Gerber Fmt 4.6, Leading zero omitted, Abs format (unit mm)*
G04 Created by KiCad (PCBNEW 9.0.8+dfsg-1) date 2026-08-06 02:22:46*
%MOMM*%
%LPD*%
G01*
G04 APERTURE LIST*
%ADD10C,0.150000*%
%ADD11C,0.040000*%
%ADD12C,0.110000*%
%ADD13C,0.075000*%
%ADD14C,0.060000*%
%ADD15C,0.100000*%
G04 APERTURE END LIST*
D10*
X49642857Y-18152819D02*
X49642857Y-18962342D01*
X49642857Y-18962342D02*
X49690476Y-19057580D01*
X49690476Y-19057580D02*
X49738095Y-19105200D01*
X49738095Y-19105200D02*
X49833333Y-19152819D01*
X49833333Y-19152819D02*
X50023809Y-19152819D01*
X50023809Y-19152819D02*
X50119047Y-19105200D01*
X50119047Y-19105200D02*
X50166666Y-19057580D01*
X50166666Y-19057580D02*
X50214285Y-18962342D01*
X50214285Y-18962342D02*
X50214285Y-18152819D01*
X50690476Y-19057580D02*
X50738095Y-19105200D01*
X50738095Y-19105200D02*
X50690476Y-19152819D01*
X50690476Y-19152819D02*
X50642857Y-19105200D01*
X50642857Y-19105200D02*
X50690476Y-19057580D01*
X50690476Y-19057580D02*
X50690476Y-19152819D01*
X51499999Y-18629009D02*
X51166666Y-18629009D01*
X51166666Y-19152819D02*
X51166666Y-18152819D01*
X51166666Y-18152819D02*
X51642856Y-18152819D01*
X52499999Y-19152819D02*
X52023809Y-19152819D01*
X52023809Y-19152819D02*
X52023809Y-18152819D01*
X49380952Y-25669104D02*
X49857142Y-25669104D01*
X49285714Y-25954819D02*
X49619047Y-24954819D01*
X49619047Y-24954819D02*
X49952380Y-25954819D01*
X50285714Y-25954819D02*
X50285714Y-24954819D01*
X50285714Y-24954819D02*
X50857142Y-25954819D01*
X50857142Y-25954819D02*
X50857142Y-24954819D01*
X51190476Y-24954819D02*
X51761904Y-24954819D01*
X51476190Y-25954819D02*
X51476190Y-24954819D01*
X52619047Y-25954819D02*
X52047619Y-25954819D01*
X52333333Y-25954819D02*
X52333333Y-24954819D01*
X52333333Y-24954819D02*
X52238095Y-25097676D01*
X52238095Y-25097676D02*
X52142857Y-25192914D01*
X52142857Y-25192914D02*
X52047619Y-25240533D01*
X28214286Y-35624819D02*
X28833333Y-35624819D01*
X28833333Y-35624819D02*
X28500000Y-36005771D01*
X28500000Y-36005771D02*
X28642857Y-36005771D01*
X28642857Y-36005771D02*
X28738095Y-36053390D01*
X28738095Y-36053390D02*
X28785714Y-36101009D01*
X28785714Y-36101009D02*
X28833333Y-36196247D01*
X28833333Y-36196247D02*
X28833333Y-36434342D01*
X28833333Y-36434342D02*
X28785714Y-36529580D01*
X28785714Y-36529580D02*
X28738095Y-36577200D01*
X28738095Y-36577200D02*
X28642857Y-36624819D01*
X28642857Y-36624819D02*
X28357143Y-36624819D01*
X28357143Y-36624819D02*
X28261905Y-36577200D01*
X28261905Y-36577200D02*
X28214286Y-36529580D01*
X29166667Y-35624819D02*
X29785714Y-35624819D01*
X29785714Y-35624819D02*
X29452381Y-36005771D01*
X29452381Y-36005771D02*
X29595238Y-36005771D01*
X29595238Y-36005771D02*
X29690476Y-36053390D01*
X29690476Y-36053390D02*
X29738095Y-36101009D01*
X29738095Y-36101009D02*
X29785714Y-36196247D01*
X29785714Y-36196247D02*
X29785714Y-36434342D01*
X29785714Y-36434342D02*
X29738095Y-36529580D01*
X29738095Y-36529580D02*
X29690476Y-36577200D01*
X29690476Y-36577200D02*
X29595238Y-36624819D01*
X29595238Y-36624819D02*
X29309524Y-36624819D01*
X29309524Y-36624819D02*
X29214286Y-36577200D01*
X29214286Y-36577200D02*
X29166667Y-36529580D01*
X30404762Y-35624819D02*
X30500000Y-35624819D01*
X30500000Y-35624819D02*
X30595238Y-35672438D01*
X30595238Y-35672438D02*
X30642857Y-35720057D01*
X30642857Y-35720057D02*
X30690476Y-35815295D01*
X30690476Y-35815295D02*
X30738095Y-36005771D01*
X30738095Y-36005771D02*
X30738095Y-36243866D01*
X30738095Y-36243866D02*
X30690476Y-36434342D01*
X30690476Y-36434342D02*
X30642857Y-36529580D01*
X30642857Y-36529580D02*
X30595238Y-36577200D01*
X30595238Y-36577200D02*
X30500000Y-36624819D01*
X30500000Y-36624819D02*
X30404762Y-36624819D01*
X30404762Y-36624819D02*
X30309524Y-36577200D01*
X30309524Y-36577200D02*
X30261905Y-36529580D01*
X30261905Y-36529580D02*
X30214286Y-36434342D01*
X30214286Y-36434342D02*
X30166667Y-36243866D01*
X30166667Y-36243866D02*
X30166667Y-36005771D01*
X30166667Y-36005771D02*
X30214286Y-35815295D01*
X30214286Y-35815295D02*
X30261905Y-35720057D01*
X30261905Y-35720057D02*
X30309524Y-35672438D01*
X30309524Y-35672438D02*
X30404762Y-35624819D01*
X31738095Y-36624819D02*
X31404762Y-36148628D01*
X31166667Y-36624819D02*
X31166667Y-35624819D01*
X31166667Y-35624819D02*
X31547619Y-35624819D01*
X31547619Y-35624819D02*
X31642857Y-35672438D01*
X31642857Y-35672438D02*
X31690476Y-35720057D01*
X31690476Y-35720057D02*
X31738095Y-35815295D01*
X31738095Y-35815295D02*
X31738095Y-35958152D01*
X31738095Y-35958152D02*
X31690476Y-36053390D01*
X31690476Y-36053390D02*
X31642857Y-36101009D01*
X31642857Y-36101009D02*
X31547619Y-36148628D01*
X31547619Y-36148628D02*
X31166667Y-36148628D01*
D11*
X29628572Y-35118200D02*
X29541905Y-34994391D01*
X29480000Y-35118200D02*
X29480000Y-34858200D01*
X29480000Y-34858200D02*
X29579048Y-34858200D01*
X29579048Y-34858200D02*
X29603810Y-34870581D01*
X29603810Y-34870581D02*
X29616191Y-34882962D01*
X29616191Y-34882962D02*
X29628572Y-34907724D01*
X29628572Y-34907724D02*
X29628572Y-34944867D01*
X29628572Y-34944867D02*
X29616191Y-34969629D01*
X29616191Y-34969629D02*
X29603810Y-34982010D01*
X29603810Y-34982010D02*
X29579048Y-34994391D01*
X29579048Y-34994391D02*
X29480000Y-34994391D01*
X29678096Y-35142962D02*
X29876191Y-35142962D01*
X30061905Y-35118200D02*
X29938095Y-35118200D01*
X29938095Y-35118200D02*
X29938095Y-34858200D01*
X30148571Y-34982010D02*
X30235238Y-34982010D01*
X30272381Y-35118200D02*
X30148571Y-35118200D01*
X30148571Y-35118200D02*
X30148571Y-34858200D01*
X30148571Y-34858200D02*
X30272381Y-34858200D01*
X30383809Y-35118200D02*
X30383809Y-34858200D01*
X30383809Y-34858200D02*
X30445714Y-34858200D01*
X30445714Y-34858200D02*
X30482857Y-34870581D01*
X30482857Y-34870581D02*
X30507619Y-34895343D01*
X30507619Y-34895343D02*
X30520000Y-34920105D01*
X30520000Y-34920105D02*
X30532381Y-34969629D01*
X30532381Y-34969629D02*
X30532381Y-35006772D01*
X30532381Y-35006772D02*
X30520000Y-35056296D01*
X30520000Y-35056296D02*
X30507619Y-35081058D01*
X30507619Y-35081058D02*
X30482857Y-35105820D01*
X30482857Y-35105820D02*
X30445714Y-35118200D01*
X30445714Y-35118200D02*
X30383809Y-35118200D01*
D10*
X4624819Y-37071428D02*
X4624819Y-37642856D01*
X4624819Y-37357142D02*
X3624819Y-37357142D01*
X3624819Y-37357142D02*
X3767676Y-37452380D01*
X3767676Y-37452380D02*
X3862914Y-37547618D01*
X3862914Y-37547618D02*
X3910533Y-37642856D01*
X3624819Y-36452380D02*
X3624819Y-36357142D01*
X3624819Y-36357142D02*
X3672438Y-36261904D01*
X3672438Y-36261904D02*
X3720057Y-36214285D01*
X3720057Y-36214285D02*
X3815295Y-36166666D01*
X3815295Y-36166666D02*
X4005771Y-36119047D01*
X4005771Y-36119047D02*
X4243866Y-36119047D01*
X4243866Y-36119047D02*
X4434342Y-36166666D01*
X4434342Y-36166666D02*
X4529580Y-36214285D01*
X4529580Y-36214285D02*
X4577200Y-36261904D01*
X4577200Y-36261904D02*
X4624819Y-36357142D01*
X4624819Y-36357142D02*
X4624819Y-36452380D01*
X4624819Y-36452380D02*
X4577200Y-36547618D01*
X4577200Y-36547618D02*
X4529580Y-36595237D01*
X4529580Y-36595237D02*
X4434342Y-36642856D01*
X4434342Y-36642856D02*
X4243866Y-36690475D01*
X4243866Y-36690475D02*
X4005771Y-36690475D01*
X4005771Y-36690475D02*
X3815295Y-36642856D01*
X3815295Y-36642856D02*
X3720057Y-36595237D01*
X3720057Y-36595237D02*
X3672438Y-36547618D01*
X3672438Y-36547618D02*
X3624819Y-36452380D01*
X3624819Y-35499999D02*
X3624819Y-35404761D01*
X3624819Y-35404761D02*
X3672438Y-35309523D01*
X3672438Y-35309523D02*
X3720057Y-35261904D01*
X3720057Y-35261904D02*
X3815295Y-35214285D01*
X3815295Y-35214285D02*
X4005771Y-35166666D01*
X4005771Y-35166666D02*
X4243866Y-35166666D01*
X4243866Y-35166666D02*
X4434342Y-35214285D01*
X4434342Y-35214285D02*
X4529580Y-35261904D01*
X4529580Y-35261904D02*
X4577200Y-35309523D01*
X4577200Y-35309523D02*
X4624819Y-35404761D01*
X4624819Y-35404761D02*
X4624819Y-35499999D01*
X4624819Y-35499999D02*
X4577200Y-35595237D01*
X4577200Y-35595237D02*
X4529580Y-35642856D01*
X4529580Y-35642856D02*
X4434342Y-35690475D01*
X4434342Y-35690475D02*
X4243866Y-35738094D01*
X4243866Y-35738094D02*
X4005771Y-35738094D01*
X4005771Y-35738094D02*
X3815295Y-35690475D01*
X3815295Y-35690475D02*
X3720057Y-35642856D01*
X3720057Y-35642856D02*
X3672438Y-35595237D01*
X3672438Y-35595237D02*
X3624819Y-35499999D01*
X4624819Y-34738094D02*
X3624819Y-34738094D01*
X4243866Y-34642856D02*
X4624819Y-34357142D01*
X3958152Y-34357142D02*
X4339104Y-34738094D01*
D11*
X3118200Y-36445713D02*
X2994391Y-36532380D01*
X3118200Y-36594285D02*
X2858200Y-36594285D01*
X2858200Y-36594285D02*
X2858200Y-36495237D01*
X2858200Y-36495237D02*
X2870581Y-36470475D01*
X2870581Y-36470475D02*
X2882962Y-36458094D01*
X2882962Y-36458094D02*
X2907724Y-36445713D01*
X2907724Y-36445713D02*
X2944867Y-36445713D01*
X2944867Y-36445713D02*
X2969629Y-36458094D01*
X2969629Y-36458094D02*
X2982010Y-36470475D01*
X2982010Y-36470475D02*
X2994391Y-36495237D01*
X2994391Y-36495237D02*
X2994391Y-36594285D01*
X3142962Y-36396190D02*
X3142962Y-36198094D01*
X3118200Y-36136190D02*
X2858200Y-36136190D01*
X2858200Y-36136190D02*
X2858200Y-36074285D01*
X2858200Y-36074285D02*
X2870581Y-36037142D01*
X2870581Y-36037142D02*
X2895343Y-36012380D01*
X2895343Y-36012380D02*
X2920105Y-35999999D01*
X2920105Y-35999999D02*
X2969629Y-35987618D01*
X2969629Y-35987618D02*
X3006772Y-35987618D01*
X3006772Y-35987618D02*
X3056296Y-35999999D01*
X3056296Y-35999999D02*
X3081058Y-36012380D01*
X3081058Y-36012380D02*
X3105820Y-36037142D01*
X3105820Y-36037142D02*
X3118200Y-36074285D01*
X3118200Y-36074285D02*
X3118200Y-36136190D01*
X3118200Y-35876190D02*
X2858200Y-35876190D01*
X2858200Y-35789523D02*
X3118200Y-35702856D01*
X3118200Y-35702856D02*
X2858200Y-35616189D01*
X3118200Y-35393332D02*
X3118200Y-35541904D01*
X3118200Y-35467618D02*
X2858200Y-35467618D01*
X2858200Y-35467618D02*
X2895343Y-35492380D01*
X2895343Y-35492380D02*
X2920105Y-35517142D01*
X2920105Y-35517142D02*
X2932486Y-35541904D01*
D10*
X34523809Y-20954819D02*
X34047619Y-20954819D01*
X34047619Y-20954819D02*
X34047619Y-19954819D01*
X35428571Y-20954819D02*
X35095238Y-20478628D01*
X34857143Y-20954819D02*
X34857143Y-19954819D01*
X34857143Y-19954819D02*
X35238095Y-19954819D01*
X35238095Y-19954819D02*
X35333333Y-20002438D01*
X35333333Y-20002438D02*
X35380952Y-20050057D01*
X35380952Y-20050057D02*
X35428571Y-20145295D01*
X35428571Y-20145295D02*
X35428571Y-20288152D01*
X35428571Y-20288152D02*
X35380952Y-20383390D01*
X35380952Y-20383390D02*
X35333333Y-20431009D01*
X35333333Y-20431009D02*
X35238095Y-20478628D01*
X35238095Y-20478628D02*
X34857143Y-20478628D01*
X35809524Y-20050057D02*
X35857143Y-20002438D01*
X35857143Y-20002438D02*
X35952381Y-19954819D01*
X35952381Y-19954819D02*
X36190476Y-19954819D01*
X36190476Y-19954819D02*
X36285714Y-20002438D01*
X36285714Y-20002438D02*
X36333333Y-20050057D01*
X36333333Y-20050057D02*
X36380952Y-20145295D01*
X36380952Y-20145295D02*
X36380952Y-20240533D01*
X36380952Y-20240533D02*
X36333333Y-20383390D01*
X36333333Y-20383390D02*
X35761905Y-20954819D01*
X35761905Y-20954819D02*
X36380952Y-20954819D01*
X37000000Y-19954819D02*
X37095238Y-19954819D01*
X37095238Y-19954819D02*
X37190476Y-20002438D01*
X37190476Y-20002438D02*
X37238095Y-20050057D01*
X37238095Y-20050057D02*
X37285714Y-20145295D01*
X37285714Y-20145295D02*
X37333333Y-20335771D01*
X37333333Y-20335771D02*
X37333333Y-20573866D01*
X37333333Y-20573866D02*
X37285714Y-20764342D01*
X37285714Y-20764342D02*
X37238095Y-20859580D01*
X37238095Y-20859580D02*
X37190476Y-20907200D01*
X37190476Y-20907200D02*
X37095238Y-20954819D01*
X37095238Y-20954819D02*
X37000000Y-20954819D01*
X37000000Y-20954819D02*
X36904762Y-20907200D01*
X36904762Y-20907200D02*
X36857143Y-20859580D01*
X36857143Y-20859580D02*
X36809524Y-20764342D01*
X36809524Y-20764342D02*
X36761905Y-20573866D01*
X36761905Y-20573866D02*
X36761905Y-20335771D01*
X36761905Y-20335771D02*
X36809524Y-20145295D01*
X36809524Y-20145295D02*
X36857143Y-20050057D01*
X36857143Y-20050057D02*
X36904762Y-20002438D01*
X36904762Y-20002438D02*
X37000000Y-19954819D01*
X37714286Y-20050057D02*
X37761905Y-20002438D01*
X37761905Y-20002438D02*
X37857143Y-19954819D01*
X37857143Y-19954819D02*
X38095238Y-19954819D01*
X38095238Y-19954819D02*
X38190476Y-20002438D01*
X38190476Y-20002438D02*
X38238095Y-20050057D01*
X38238095Y-20050057D02*
X38285714Y-20145295D01*
X38285714Y-20145295D02*
X38285714Y-20240533D01*
X38285714Y-20240533D02*
X38238095Y-20383390D01*
X38238095Y-20383390D02*
X37666667Y-20954819D01*
X37666667Y-20954819D02*
X38285714Y-20954819D01*
X39238095Y-20954819D02*
X38666667Y-20954819D01*
X38952381Y-20954819D02*
X38952381Y-19954819D01*
X38952381Y-19954819D02*
X38857143Y-20097676D01*
X38857143Y-20097676D02*
X38761905Y-20192914D01*
X38761905Y-20192914D02*
X38666667Y-20240533D01*
X40000000Y-20431009D02*
X39666667Y-20431009D01*
X39666667Y-20954819D02*
X39666667Y-19954819D01*
X39666667Y-19954819D02*
X40142857Y-19954819D01*
X40428572Y-19954819D02*
X41047619Y-19954819D01*
X41047619Y-19954819D02*
X40714286Y-20335771D01*
X40714286Y-20335771D02*
X40857143Y-20335771D01*
X40857143Y-20335771D02*
X40952381Y-20383390D01*
X40952381Y-20383390D02*
X41000000Y-20431009D01*
X41000000Y-20431009D02*
X41047619Y-20526247D01*
X41047619Y-20526247D02*
X41047619Y-20764342D01*
X41047619Y-20764342D02*
X41000000Y-20859580D01*
X41000000Y-20859580D02*
X40952381Y-20907200D01*
X40952381Y-20907200D02*
X40857143Y-20954819D01*
X40857143Y-20954819D02*
X40571429Y-20954819D01*
X40571429Y-20954819D02*
X40476191Y-20907200D01*
X40476191Y-20907200D02*
X40428572Y-20859580D01*
X41380953Y-19954819D02*
X42000000Y-19954819D01*
X42000000Y-19954819D02*
X41666667Y-20335771D01*
X41666667Y-20335771D02*
X41809524Y-20335771D01*
X41809524Y-20335771D02*
X41904762Y-20383390D01*
X41904762Y-20383390D02*
X41952381Y-20431009D01*
X41952381Y-20431009D02*
X42000000Y-20526247D01*
X42000000Y-20526247D02*
X42000000Y-20764342D01*
X42000000Y-20764342D02*
X41952381Y-20859580D01*
X41952381Y-20859580D02*
X41904762Y-20907200D01*
X41904762Y-20907200D02*
X41809524Y-20954819D01*
X41809524Y-20954819D02*
X41523810Y-20954819D01*
X41523810Y-20954819D02*
X41428572Y-20907200D01*
X41428572Y-20907200D02*
X41380953Y-20859580D01*
X37238095Y-10454819D02*
X37238095Y-11264342D01*
X37238095Y-11264342D02*
X37285714Y-11359580D01*
X37285714Y-11359580D02*
X37333333Y-11407200D01*
X37333333Y-11407200D02*
X37428571Y-11454819D01*
X37428571Y-11454819D02*
X37619047Y-11454819D01*
X37619047Y-11454819D02*
X37714285Y-11407200D01*
X37714285Y-11407200D02*
X37761904Y-11359580D01*
X37761904Y-11359580D02*
X37809523Y-11264342D01*
X37809523Y-11264342D02*
X37809523Y-10454819D01*
X38238095Y-10550057D02*
X38285714Y-10502438D01*
X38285714Y-10502438D02*
X38380952Y-10454819D01*
X38380952Y-10454819D02*
X38619047Y-10454819D01*
X38619047Y-10454819D02*
X38714285Y-10502438D01*
X38714285Y-10502438D02*
X38761904Y-10550057D01*
X38761904Y-10550057D02*
X38809523Y-10645295D01*
X38809523Y-10645295D02*
X38809523Y-10740533D01*
X38809523Y-10740533D02*
X38761904Y-10883390D01*
X38761904Y-10883390D02*
X38190476Y-11454819D01*
X38190476Y-11454819D02*
X38809523Y-11454819D01*
X14880952Y-29854819D02*
X15452380Y-29854819D01*
X15166666Y-30854819D02*
X15166666Y-29854819D01*
X15785714Y-30854819D02*
X15785714Y-29854819D01*
X15785714Y-29854819D02*
X16166666Y-29854819D01*
X16166666Y-29854819D02*
X16261904Y-29902438D01*
X16261904Y-29902438D02*
X16309523Y-29950057D01*
X16309523Y-29950057D02*
X16357142Y-30045295D01*
X16357142Y-30045295D02*
X16357142Y-30188152D01*
X16357142Y-30188152D02*
X16309523Y-30283390D01*
X16309523Y-30283390D02*
X16261904Y-30331009D01*
X16261904Y-30331009D02*
X16166666Y-30378628D01*
X16166666Y-30378628D02*
X15785714Y-30378628D01*
X16738095Y-30807200D02*
X16880952Y-30854819D01*
X16880952Y-30854819D02*
X17119047Y-30854819D01*
X17119047Y-30854819D02*
X17214285Y-30807200D01*
X17214285Y-30807200D02*
X17261904Y-30759580D01*
X17261904Y-30759580D02*
X17309523Y-30664342D01*
X17309523Y-30664342D02*
X17309523Y-30569104D01*
X17309523Y-30569104D02*
X17261904Y-30473866D01*
X17261904Y-30473866D02*
X17214285Y-30426247D01*
X17214285Y-30426247D02*
X17119047Y-30378628D01*
X17119047Y-30378628D02*
X16928571Y-30331009D01*
X16928571Y-30331009D02*
X16833333Y-30283390D01*
X16833333Y-30283390D02*
X16785714Y-30235771D01*
X16785714Y-30235771D02*
X16738095Y-30140533D01*
X16738095Y-30140533D02*
X16738095Y-30045295D01*
X16738095Y-30045295D02*
X16785714Y-29950057D01*
X16785714Y-29950057D02*
X16833333Y-29902438D01*
X16833333Y-29902438D02*
X16928571Y-29854819D01*
X16928571Y-29854819D02*
X17166666Y-29854819D01*
X17166666Y-29854819D02*
X17309523Y-29902438D01*
X17642857Y-29854819D02*
X18309523Y-29854819D01*
X18309523Y-29854819D02*
X17880952Y-30854819D01*
X18642857Y-30569104D02*
X19119047Y-30569104D01*
X18547619Y-30854819D02*
X18880952Y-29854819D01*
X18880952Y-29854819D02*
X19214285Y-30854819D01*
X19738095Y-29854819D02*
X19833333Y-29854819D01*
X19833333Y-29854819D02*
X19928571Y-29902438D01*
X19928571Y-29902438D02*
X19976190Y-29950057D01*
X19976190Y-29950057D02*
X20023809Y-30045295D01*
X20023809Y-30045295D02*
X20071428Y-30235771D01*
X20071428Y-30235771D02*
X20071428Y-30473866D01*
X20071428Y-30473866D02*
X20023809Y-30664342D01*
X20023809Y-30664342D02*
X19976190Y-30759580D01*
X19976190Y-30759580D02*
X19928571Y-30807200D01*
X19928571Y-30807200D02*
X19833333Y-30854819D01*
X19833333Y-30854819D02*
X19738095Y-30854819D01*
X19738095Y-30854819D02*
X19642857Y-30807200D01*
X19642857Y-30807200D02*
X19595238Y-30759580D01*
X19595238Y-30759580D02*
X19547619Y-30664342D01*
X19547619Y-30664342D02*
X19500000Y-30473866D01*
X19500000Y-30473866D02*
X19500000Y-30235771D01*
X19500000Y-30235771D02*
X19547619Y-30045295D01*
X19547619Y-30045295D02*
X19595238Y-29950057D01*
X19595238Y-29950057D02*
X19642857Y-29902438D01*
X19642857Y-29902438D02*
X19738095Y-29854819D01*
X20452381Y-29950057D02*
X20500000Y-29902438D01*
X20500000Y-29902438D02*
X20595238Y-29854819D01*
X20595238Y-29854819D02*
X20833333Y-29854819D01*
X20833333Y-29854819D02*
X20928571Y-29902438D01*
X20928571Y-29902438D02*
X20976190Y-29950057D01*
X20976190Y-29950057D02*
X21023809Y-30045295D01*
X21023809Y-30045295D02*
X21023809Y-30140533D01*
X21023809Y-30140533D02*
X20976190Y-30283390D01*
X20976190Y-30283390D02*
X20404762Y-30854819D01*
X20404762Y-30854819D02*
X21023809Y-30854819D01*
D12*
X17607365Y-28548571D02*
X18190222Y-28548571D01*
X18190222Y-28548571D02*
X18258794Y-28514285D01*
X18258794Y-28514285D02*
X18293080Y-28480000D01*
X18293080Y-28480000D02*
X18327365Y-28411428D01*
X18327365Y-28411428D02*
X18327365Y-28274285D01*
X18327365Y-28274285D02*
X18293080Y-28205714D01*
X18293080Y-28205714D02*
X18258794Y-28171428D01*
X18258794Y-28171428D02*
X18190222Y-28137142D01*
X18190222Y-28137142D02*
X17607365Y-28137142D01*
X17847365Y-27485714D02*
X18327365Y-27485714D01*
X17573080Y-27657142D02*
X18087365Y-27828571D01*
X18087365Y-27828571D02*
X18087365Y-27382856D01*
D10*
X21586428Y-37466009D02*
X21729285Y-37513628D01*
X21729285Y-37513628D02*
X21776904Y-37561247D01*
X21776904Y-37561247D02*
X21824523Y-37656485D01*
X21824523Y-37656485D02*
X21824523Y-37799342D01*
X21824523Y-37799342D02*
X21776904Y-37894580D01*
X21776904Y-37894580D02*
X21729285Y-37942200D01*
X21729285Y-37942200D02*
X21634047Y-37989819D01*
X21634047Y-37989819D02*
X21253095Y-37989819D01*
X21253095Y-37989819D02*
X21253095Y-36989819D01*
X21253095Y-36989819D02*
X21586428Y-36989819D01*
X21586428Y-36989819D02*
X21681666Y-37037438D01*
X21681666Y-37037438D02*
X21729285Y-37085057D01*
X21729285Y-37085057D02*
X21776904Y-37180295D01*
X21776904Y-37180295D02*
X21776904Y-37275533D01*
X21776904Y-37275533D02*
X21729285Y-37370771D01*
X21729285Y-37370771D02*
X21681666Y-37418390D01*
X21681666Y-37418390D02*
X21586428Y-37466009D01*
X21586428Y-37466009D02*
X21253095Y-37466009D01*
X22253095Y-37989819D02*
X22253095Y-36989819D01*
X22253095Y-36989819D02*
X22586428Y-37704104D01*
X22586428Y-37704104D02*
X22919761Y-36989819D01*
X22919761Y-36989819D02*
X22919761Y-37989819D01*
X23395952Y-37989819D02*
X23395952Y-36989819D01*
X23395952Y-36989819D02*
X23776904Y-36989819D01*
X23776904Y-36989819D02*
X23872142Y-37037438D01*
X23872142Y-37037438D02*
X23919761Y-37085057D01*
X23919761Y-37085057D02*
X23967380Y-37180295D01*
X23967380Y-37180295D02*
X23967380Y-37323152D01*
X23967380Y-37323152D02*
X23919761Y-37418390D01*
X23919761Y-37418390D02*
X23872142Y-37466009D01*
X23872142Y-37466009D02*
X23776904Y-37513628D01*
X23776904Y-37513628D02*
X23395952Y-37513628D01*
X24348333Y-37085057D02*
X24395952Y-37037438D01*
X24395952Y-37037438D02*
X24491190Y-36989819D01*
X24491190Y-36989819D02*
X24729285Y-36989819D01*
X24729285Y-36989819D02*
X24824523Y-37037438D01*
X24824523Y-37037438D02*
X24872142Y-37085057D01*
X24872142Y-37085057D02*
X24919761Y-37180295D01*
X24919761Y-37180295D02*
X24919761Y-37275533D01*
X24919761Y-37275533D02*
X24872142Y-37418390D01*
X24872142Y-37418390D02*
X24300714Y-37989819D01*
X24300714Y-37989819D02*
X24919761Y-37989819D01*
X25491190Y-37418390D02*
X25395952Y-37370771D01*
X25395952Y-37370771D02*
X25348333Y-37323152D01*
X25348333Y-37323152D02*
X25300714Y-37227914D01*
X25300714Y-37227914D02*
X25300714Y-37180295D01*
X25300714Y-37180295D02*
X25348333Y-37085057D01*
X25348333Y-37085057D02*
X25395952Y-37037438D01*
X25395952Y-37037438D02*
X25491190Y-36989819D01*
X25491190Y-36989819D02*
X25681666Y-36989819D01*
X25681666Y-36989819D02*
X25776904Y-37037438D01*
X25776904Y-37037438D02*
X25824523Y-37085057D01*
X25824523Y-37085057D02*
X25872142Y-37180295D01*
X25872142Y-37180295D02*
X25872142Y-37227914D01*
X25872142Y-37227914D02*
X25824523Y-37323152D01*
X25824523Y-37323152D02*
X25776904Y-37370771D01*
X25776904Y-37370771D02*
X25681666Y-37418390D01*
X25681666Y-37418390D02*
X25491190Y-37418390D01*
X25491190Y-37418390D02*
X25395952Y-37466009D01*
X25395952Y-37466009D02*
X25348333Y-37513628D01*
X25348333Y-37513628D02*
X25300714Y-37608866D01*
X25300714Y-37608866D02*
X25300714Y-37799342D01*
X25300714Y-37799342D02*
X25348333Y-37894580D01*
X25348333Y-37894580D02*
X25395952Y-37942200D01*
X25395952Y-37942200D02*
X25491190Y-37989819D01*
X25491190Y-37989819D02*
X25681666Y-37989819D01*
X25681666Y-37989819D02*
X25776904Y-37942200D01*
X25776904Y-37942200D02*
X25824523Y-37894580D01*
X25824523Y-37894580D02*
X25872142Y-37799342D01*
X25872142Y-37799342D02*
X25872142Y-37608866D01*
X25872142Y-37608866D02*
X25824523Y-37513628D01*
X25824523Y-37513628D02*
X25776904Y-37466009D01*
X25776904Y-37466009D02*
X25681666Y-37418390D01*
X26491190Y-36989819D02*
X26586428Y-36989819D01*
X26586428Y-36989819D02*
X26681666Y-37037438D01*
X26681666Y-37037438D02*
X26729285Y-37085057D01*
X26729285Y-37085057D02*
X26776904Y-37180295D01*
X26776904Y-37180295D02*
X26824523Y-37370771D01*
X26824523Y-37370771D02*
X26824523Y-37608866D01*
X26824523Y-37608866D02*
X26776904Y-37799342D01*
X26776904Y-37799342D02*
X26729285Y-37894580D01*
X26729285Y-37894580D02*
X26681666Y-37942200D01*
X26681666Y-37942200D02*
X26586428Y-37989819D01*
X26586428Y-37989819D02*
X26491190Y-37989819D01*
X26491190Y-37989819D02*
X26395952Y-37942200D01*
X26395952Y-37942200D02*
X26348333Y-37894580D01*
X26348333Y-37894580D02*
X26300714Y-37799342D01*
X26300714Y-37799342D02*
X26253095Y-37608866D01*
X26253095Y-37608866D02*
X26253095Y-37370771D01*
X26253095Y-37370771D02*
X26300714Y-37180295D01*
X26300714Y-37180295D02*
X26348333Y-37085057D01*
X26348333Y-37085057D02*
X26395952Y-37037438D01*
X26395952Y-37037438D02*
X26491190Y-36989819D01*
D13*
X23619047Y-34727409D02*
X23619047Y-35132171D01*
X23619047Y-35132171D02*
X23642857Y-35179790D01*
X23642857Y-35179790D02*
X23666666Y-35203600D01*
X23666666Y-35203600D02*
X23714285Y-35227409D01*
X23714285Y-35227409D02*
X23809523Y-35227409D01*
X23809523Y-35227409D02*
X23857142Y-35203600D01*
X23857142Y-35203600D02*
X23880952Y-35179790D01*
X23880952Y-35179790D02*
X23904761Y-35132171D01*
X23904761Y-35132171D02*
X23904761Y-34727409D01*
X24380952Y-34727409D02*
X24142857Y-34727409D01*
X24142857Y-34727409D02*
X24119048Y-34965504D01*
X24119048Y-34965504D02*
X24142857Y-34941695D01*
X24142857Y-34941695D02*
X24190476Y-34917885D01*
X24190476Y-34917885D02*
X24309524Y-34917885D01*
X24309524Y-34917885D02*
X24357143Y-34941695D01*
X24357143Y-34941695D02*
X24380952Y-34965504D01*
X24380952Y-34965504D02*
X24404762Y-35013123D01*
X24404762Y-35013123D02*
X24404762Y-35132171D01*
X24404762Y-35132171D02*
X24380952Y-35179790D01*
X24380952Y-35179790D02*
X24357143Y-35203600D01*
X24357143Y-35203600D02*
X24309524Y-35227409D01*
X24309524Y-35227409D02*
X24190476Y-35227409D01*
X24190476Y-35227409D02*
X24142857Y-35203600D01*
X24142857Y-35203600D02*
X24119048Y-35179790D01*
D10*
X22309523Y-22031009D02*
X22452380Y-22078628D01*
X22452380Y-22078628D02*
X22499999Y-22126247D01*
X22499999Y-22126247D02*
X22547618Y-22221485D01*
X22547618Y-22221485D02*
X22547618Y-22364342D01*
X22547618Y-22364342D02*
X22499999Y-22459580D01*
X22499999Y-22459580D02*
X22452380Y-22507200D01*
X22452380Y-22507200D02*
X22357142Y-22554819D01*
X22357142Y-22554819D02*
X21976190Y-22554819D01*
X21976190Y-22554819D02*
X21976190Y-21554819D01*
X21976190Y-21554819D02*
X22309523Y-21554819D01*
X22309523Y-21554819D02*
X22404761Y-21602438D01*
X22404761Y-21602438D02*
X22452380Y-21650057D01*
X22452380Y-21650057D02*
X22499999Y-21745295D01*
X22499999Y-21745295D02*
X22499999Y-21840533D01*
X22499999Y-21840533D02*
X22452380Y-21935771D01*
X22452380Y-21935771D02*
X22404761Y-21983390D01*
X22404761Y-21983390D02*
X22309523Y-22031009D01*
X22309523Y-22031009D02*
X21976190Y-22031009D01*
X22928571Y-22269104D02*
X23404761Y-22269104D01*
X22833333Y-22554819D02*
X23166666Y-21554819D01*
X23166666Y-21554819D02*
X23499999Y-22554819D01*
X23690476Y-21554819D02*
X24261904Y-21554819D01*
X23976190Y-22554819D02*
X23976190Y-21554819D01*
X25071428Y-21554819D02*
X24595238Y-21554819D01*
X24595238Y-21554819D02*
X24547619Y-22031009D01*
X24547619Y-22031009D02*
X24595238Y-21983390D01*
X24595238Y-21983390D02*
X24690476Y-21935771D01*
X24690476Y-21935771D02*
X24928571Y-21935771D01*
X24928571Y-21935771D02*
X25023809Y-21983390D01*
X25023809Y-21983390D02*
X25071428Y-22031009D01*
X25071428Y-22031009D02*
X25119047Y-22126247D01*
X25119047Y-22126247D02*
X25119047Y-22364342D01*
X25119047Y-22364342D02*
X25071428Y-22459580D01*
X25071428Y-22459580D02*
X25023809Y-22507200D01*
X25023809Y-22507200D02*
X24928571Y-22554819D01*
X24928571Y-22554819D02*
X24690476Y-22554819D01*
X24690476Y-22554819D02*
X24595238Y-22507200D01*
X24595238Y-22507200D02*
X24547619Y-22459580D01*
X25976190Y-21888152D02*
X25976190Y-22554819D01*
X25738095Y-21507200D02*
X25500000Y-22221485D01*
X25500000Y-22221485D02*
X26119047Y-22221485D01*
X23261905Y-18454819D02*
X23261905Y-17454819D01*
X23261905Y-17454819D02*
X23500000Y-17454819D01*
X23500000Y-17454819D02*
X23642857Y-17502438D01*
X23642857Y-17502438D02*
X23738095Y-17597676D01*
X23738095Y-17597676D02*
X23785714Y-17692914D01*
X23785714Y-17692914D02*
X23833333Y-17883390D01*
X23833333Y-17883390D02*
X23833333Y-18026247D01*
X23833333Y-18026247D02*
X23785714Y-18216723D01*
X23785714Y-18216723D02*
X23738095Y-18311961D01*
X23738095Y-18311961D02*
X23642857Y-18407200D01*
X23642857Y-18407200D02*
X23500000Y-18454819D01*
X23500000Y-18454819D02*
X23261905Y-18454819D01*
X24785714Y-18454819D02*
X24214286Y-18454819D01*
X24500000Y-18454819D02*
X24500000Y-17454819D01*
X24500000Y-17454819D02*
X24404762Y-17597676D01*
X24404762Y-17597676D02*
X24309524Y-17692914D01*
X24309524Y-17692914D02*
X24214286Y-17740533D01*
X6357142Y-34704819D02*
X5785714Y-34704819D01*
X6071428Y-34704819D02*
X6071428Y-33704819D01*
X6071428Y-33704819D02*
X5976190Y-33847676D01*
X5976190Y-33847676D02*
X5880952Y-33942914D01*
X5880952Y-33942914D02*
X5785714Y-33990533D01*
X7119047Y-34181009D02*
X6785714Y-34181009D01*
X6785714Y-34704819D02*
X6785714Y-33704819D01*
X6785714Y-33704819D02*
X7261904Y-33704819D01*
X7404762Y-34800057D02*
X8166666Y-34800057D01*
X8880952Y-33704819D02*
X8404762Y-33704819D01*
X8404762Y-33704819D02*
X8357143Y-34181009D01*
X8357143Y-34181009D02*
X8404762Y-34133390D01*
X8404762Y-34133390D02*
X8500000Y-34085771D01*
X8500000Y-34085771D02*
X8738095Y-34085771D01*
X8738095Y-34085771D02*
X8833333Y-34133390D01*
X8833333Y-34133390D02*
X8880952Y-34181009D01*
X8880952Y-34181009D02*
X8928571Y-34276247D01*
X8928571Y-34276247D02*
X8928571Y-34514342D01*
X8928571Y-34514342D02*
X8880952Y-34609580D01*
X8880952Y-34609580D02*
X8833333Y-34657200D01*
X8833333Y-34657200D02*
X8738095Y-34704819D01*
X8738095Y-34704819D02*
X8500000Y-34704819D01*
X8500000Y-34704819D02*
X8404762Y-34657200D01*
X8404762Y-34657200D02*
X8357143Y-34609580D01*
X9357143Y-34609580D02*
X9404762Y-34657200D01*
X9404762Y-34657200D02*
X9357143Y-34704819D01*
X9357143Y-34704819D02*
X9309524Y-34657200D01*
X9309524Y-34657200D02*
X9357143Y-34609580D01*
X9357143Y-34609580D02*
X9357143Y-34704819D01*
X10309523Y-33704819D02*
X9833333Y-33704819D01*
X9833333Y-33704819D02*
X9785714Y-34181009D01*
X9785714Y-34181009D02*
X9833333Y-34133390D01*
X9833333Y-34133390D02*
X9928571Y-34085771D01*
X9928571Y-34085771D02*
X10166666Y-34085771D01*
X10166666Y-34085771D02*
X10261904Y-34133390D01*
X10261904Y-34133390D02*
X10309523Y-34181009D01*
X10309523Y-34181009D02*
X10357142Y-34276247D01*
X10357142Y-34276247D02*
X10357142Y-34514342D01*
X10357142Y-34514342D02*
X10309523Y-34609580D01*
X10309523Y-34609580D02*
X10261904Y-34657200D01*
X10261904Y-34657200D02*
X10166666Y-34704819D01*
X10166666Y-34704819D02*
X9928571Y-34704819D01*
X9928571Y-34704819D02*
X9833333Y-34657200D01*
X9833333Y-34657200D02*
X9785714Y-34609580D01*
X10642857Y-33704819D02*
X10976190Y-34704819D01*
X10976190Y-34704819D02*
X11309523Y-33704819D01*
X6999999Y-28359580D02*
X6952380Y-28407200D01*
X6952380Y-28407200D02*
X6809523Y-28454819D01*
X6809523Y-28454819D02*
X6714285Y-28454819D01*
X6714285Y-28454819D02*
X6571428Y-28407200D01*
X6571428Y-28407200D02*
X6476190Y-28311961D01*
X6476190Y-28311961D02*
X6428571Y-28216723D01*
X6428571Y-28216723D02*
X6380952Y-28026247D01*
X6380952Y-28026247D02*
X6380952Y-27883390D01*
X6380952Y-27883390D02*
X6428571Y-27692914D01*
X6428571Y-27692914D02*
X6476190Y-27597676D01*
X6476190Y-27597676D02*
X6571428Y-27502438D01*
X6571428Y-27502438D02*
X6714285Y-27454819D01*
X6714285Y-27454819D02*
X6809523Y-27454819D01*
X6809523Y-27454819D02*
X6952380Y-27502438D01*
X6952380Y-27502438D02*
X6999999Y-27550057D01*
X7190476Y-28550057D02*
X7952380Y-28550057D01*
X8761904Y-28359580D02*
X8714285Y-28407200D01*
X8714285Y-28407200D02*
X8571428Y-28454819D01*
X8571428Y-28454819D02*
X8476190Y-28454819D01*
X8476190Y-28454819D02*
X8333333Y-28407200D01*
X8333333Y-28407200D02*
X8238095Y-28311961D01*
X8238095Y-28311961D02*
X8190476Y-28216723D01*
X8190476Y-28216723D02*
X8142857Y-28026247D01*
X8142857Y-28026247D02*
X8142857Y-27883390D01*
X8142857Y-27883390D02*
X8190476Y-27692914D01*
X8190476Y-27692914D02*
X8238095Y-27597676D01*
X8238095Y-27597676D02*
X8333333Y-27502438D01*
X8333333Y-27502438D02*
X8476190Y-27454819D01*
X8476190Y-27454819D02*
X8571428Y-27454819D01*
X8571428Y-27454819D02*
X8714285Y-27502438D01*
X8714285Y-27502438D02*
X8761904Y-27550057D01*
X9142857Y-28169104D02*
X9619047Y-28169104D01*
X9047619Y-28454819D02*
X9380952Y-27454819D01*
X9380952Y-27454819D02*
X9714285Y-28454819D01*
X10047619Y-28454819D02*
X10047619Y-27454819D01*
X10047619Y-27454819D02*
X10428571Y-27454819D01*
X10428571Y-27454819D02*
X10523809Y-27502438D01*
X10523809Y-27502438D02*
X10571428Y-27550057D01*
X10571428Y-27550057D02*
X10619047Y-27645295D01*
X10619047Y-27645295D02*
X10619047Y-27788152D01*
X10619047Y-27788152D02*
X10571428Y-27883390D01*
X10571428Y-27883390D02*
X10523809Y-27931009D01*
X10523809Y-27931009D02*
X10428571Y-27978628D01*
X10428571Y-27978628D02*
X10047619Y-27978628D01*
X23928571Y-10884819D02*
X23357143Y-10884819D01*
X23642857Y-10884819D02*
X23642857Y-9884819D01*
X23642857Y-9884819D02*
X23547619Y-10027676D01*
X23547619Y-10027676D02*
X23452381Y-10122914D01*
X23452381Y-10122914D02*
X23357143Y-10170533D01*
X24547619Y-9884819D02*
X24642857Y-9884819D01*
X24642857Y-9884819D02*
X24738095Y-9932438D01*
X24738095Y-9932438D02*
X24785714Y-9980057D01*
X24785714Y-9980057D02*
X24833333Y-10075295D01*
X24833333Y-10075295D02*
X24880952Y-10265771D01*
X24880952Y-10265771D02*
X24880952Y-10503866D01*
X24880952Y-10503866D02*
X24833333Y-10694342D01*
X24833333Y-10694342D02*
X24785714Y-10789580D01*
X24785714Y-10789580D02*
X24738095Y-10837200D01*
X24738095Y-10837200D02*
X24642857Y-10884819D01*
X24642857Y-10884819D02*
X24547619Y-10884819D01*
X24547619Y-10884819D02*
X24452381Y-10837200D01*
X24452381Y-10837200D02*
X24404762Y-10789580D01*
X24404762Y-10789580D02*
X24357143Y-10694342D01*
X24357143Y-10694342D02*
X24309524Y-10503866D01*
X24309524Y-10503866D02*
X24309524Y-10265771D01*
X24309524Y-10265771D02*
X24357143Y-10075295D01*
X24357143Y-10075295D02*
X24404762Y-9980057D01*
X24404762Y-9980057D02*
X24452381Y-9932438D01*
X24452381Y-9932438D02*
X24547619Y-9884819D01*
X25738095Y-10218152D02*
X25738095Y-10884819D01*
X25309524Y-10218152D02*
X25309524Y-10741961D01*
X25309524Y-10741961D02*
X25357143Y-10837200D01*
X25357143Y-10837200D02*
X25452381Y-10884819D01*
X25452381Y-10884819D02*
X25595238Y-10884819D01*
X25595238Y-10884819D02*
X25690476Y-10837200D01*
X25690476Y-10837200D02*
X25738095Y-10789580D01*
X26547619Y-10361009D02*
X26214286Y-10361009D01*
X26214286Y-10884819D02*
X26214286Y-9884819D01*
X26214286Y-9884819D02*
X26690476Y-9884819D01*
D14*
X24933333Y-9143832D02*
X24914285Y-9162880D01*
X24914285Y-9162880D02*
X24857143Y-9181927D01*
X24857143Y-9181927D02*
X24819047Y-9181927D01*
X24819047Y-9181927D02*
X24761904Y-9162880D01*
X24761904Y-9162880D02*
X24723809Y-9124784D01*
X24723809Y-9124784D02*
X24704762Y-9086689D01*
X24704762Y-9086689D02*
X24685714Y-9010499D01*
X24685714Y-9010499D02*
X24685714Y-8953356D01*
X24685714Y-8953356D02*
X24704762Y-8877165D01*
X24704762Y-8877165D02*
X24723809Y-8839070D01*
X24723809Y-8839070D02*
X24761904Y-8800975D01*
X24761904Y-8800975D02*
X24819047Y-8781927D01*
X24819047Y-8781927D02*
X24857143Y-8781927D01*
X24857143Y-8781927D02*
X24914285Y-8800975D01*
X24914285Y-8800975D02*
X24933333Y-8820022D01*
X25085714Y-8820022D02*
X25104762Y-8800975D01*
X25104762Y-8800975D02*
X25142857Y-8781927D01*
X25142857Y-8781927D02*
X25238095Y-8781927D01*
X25238095Y-8781927D02*
X25276190Y-8800975D01*
X25276190Y-8800975D02*
X25295238Y-8820022D01*
X25295238Y-8820022D02*
X25314285Y-8858118D01*
X25314285Y-8858118D02*
X25314285Y-8896213D01*
X25314285Y-8896213D02*
X25295238Y-8953356D01*
X25295238Y-8953356D02*
X25066666Y-9181927D01*
X25066666Y-9181927D02*
X25314285Y-9181927D01*
D10*
X50454819Y-47023809D02*
X49454819Y-47023809D01*
X49454819Y-47023809D02*
X49454819Y-46785714D01*
X49454819Y-46785714D02*
X49502438Y-46642857D01*
X49502438Y-46642857D02*
X49597676Y-46547619D01*
X49597676Y-46547619D02*
X49692914Y-46500000D01*
X49692914Y-46500000D02*
X49883390Y-46452381D01*
X49883390Y-46452381D02*
X50026247Y-46452381D01*
X50026247Y-46452381D02*
X50216723Y-46500000D01*
X50216723Y-46500000D02*
X50311961Y-46547619D01*
X50311961Y-46547619D02*
X50407200Y-46642857D01*
X50407200Y-46642857D02*
X50454819Y-46785714D01*
X50454819Y-46785714D02*
X50454819Y-47023809D01*
X50407200Y-45642857D02*
X50454819Y-45738095D01*
X50454819Y-45738095D02*
X50454819Y-45928571D01*
X50454819Y-45928571D02*
X50407200Y-46023809D01*
X50407200Y-46023809D02*
X50311961Y-46071428D01*
X50311961Y-46071428D02*
X49931009Y-46071428D01*
X49931009Y-46071428D02*
X49835771Y-46023809D01*
X49835771Y-46023809D02*
X49788152Y-45928571D01*
X49788152Y-45928571D02*
X49788152Y-45738095D01*
X49788152Y-45738095D02*
X49835771Y-45642857D01*
X49835771Y-45642857D02*
X49931009Y-45595238D01*
X49931009Y-45595238D02*
X50026247Y-45595238D01*
X50026247Y-45595238D02*
X50121485Y-46071428D01*
X50454819Y-45166666D02*
X49454819Y-45166666D01*
X49835771Y-45166666D02*
X49788152Y-45071428D01*
X49788152Y-45071428D02*
X49788152Y-44880952D01*
X49788152Y-44880952D02*
X49835771Y-44785714D01*
X49835771Y-44785714D02*
X49883390Y-44738095D01*
X49883390Y-44738095D02*
X49978628Y-44690476D01*
X49978628Y-44690476D02*
X50264342Y-44690476D01*
X50264342Y-44690476D02*
X50359580Y-44738095D01*
X50359580Y-44738095D02*
X50407200Y-44785714D01*
X50407200Y-44785714D02*
X50454819Y-44880952D01*
X50454819Y-44880952D02*
X50454819Y-45071428D01*
X50454819Y-45071428D02*
X50407200Y-45166666D01*
X49788152Y-43833333D02*
X50454819Y-43833333D01*
X49788152Y-44261904D02*
X50311961Y-44261904D01*
X50311961Y-44261904D02*
X50407200Y-44214285D01*
X50407200Y-44214285D02*
X50454819Y-44119047D01*
X50454819Y-44119047D02*
X50454819Y-43976190D01*
X50454819Y-43976190D02*
X50407200Y-43880952D01*
X50407200Y-43880952D02*
X50359580Y-43833333D01*
X49788152Y-42928571D02*
X50597676Y-42928571D01*
X50597676Y-42928571D02*
X50692914Y-42976190D01*
X50692914Y-42976190D02*
X50740533Y-43023809D01*
X50740533Y-43023809D02*
X50788152Y-43119047D01*
X50788152Y-43119047D02*
X50788152Y-43261904D01*
X50788152Y-43261904D02*
X50740533Y-43357142D01*
X50407200Y-42928571D02*
X50454819Y-43023809D01*
X50454819Y-43023809D02*
X50454819Y-43214285D01*
X50454819Y-43214285D02*
X50407200Y-43309523D01*
X50407200Y-43309523D02*
X50359580Y-43357142D01*
X50359580Y-43357142D02*
X50264342Y-43404761D01*
X50264342Y-43404761D02*
X49978628Y-43404761D01*
X49978628Y-43404761D02*
X49883390Y-43357142D01*
X49883390Y-43357142D02*
X49835771Y-43309523D01*
X49835771Y-43309523D02*
X49788152Y-43214285D01*
X49788152Y-43214285D02*
X49788152Y-43023809D01*
X49788152Y-43023809D02*
X49835771Y-42928571D01*
X50550057Y-42690476D02*
X50550057Y-41928571D01*
X50454819Y-41690475D02*
X49454819Y-41690475D01*
X49931009Y-41690475D02*
X49931009Y-41119047D01*
X50454819Y-41119047D02*
X49454819Y-41119047D01*
X50407200Y-40261904D02*
X50454819Y-40357142D01*
X50454819Y-40357142D02*
X50454819Y-40547618D01*
X50454819Y-40547618D02*
X50407200Y-40642856D01*
X50407200Y-40642856D02*
X50311961Y-40690475D01*
X50311961Y-40690475D02*
X49931009Y-40690475D01*
X49931009Y-40690475D02*
X49835771Y-40642856D01*
X49835771Y-40642856D02*
X49788152Y-40547618D01*
X49788152Y-40547618D02*
X49788152Y-40357142D01*
X49788152Y-40357142D02*
X49835771Y-40261904D01*
X49835771Y-40261904D02*
X49931009Y-40214285D01*
X49931009Y-40214285D02*
X50026247Y-40214285D01*
X50026247Y-40214285D02*
X50121485Y-40690475D01*
X50454819Y-39357142D02*
X49931009Y-39357142D01*
X49931009Y-39357142D02*
X49835771Y-39404761D01*
X49835771Y-39404761D02*
X49788152Y-39499999D01*
X49788152Y-39499999D02*
X49788152Y-39690475D01*
X49788152Y-39690475D02*
X49835771Y-39785713D01*
X50407200Y-39357142D02*
X50454819Y-39452380D01*
X50454819Y-39452380D02*
X50454819Y-39690475D01*
X50454819Y-39690475D02*
X50407200Y-39785713D01*
X50407200Y-39785713D02*
X50311961Y-39833332D01*
X50311961Y-39833332D02*
X50216723Y-39833332D01*
X50216723Y-39833332D02*
X50121485Y-39785713D01*
X50121485Y-39785713D02*
X50073866Y-39690475D01*
X50073866Y-39690475D02*
X50073866Y-39452380D01*
X50073866Y-39452380D02*
X50026247Y-39357142D01*
X50454819Y-38452380D02*
X49454819Y-38452380D01*
X50407200Y-38452380D02*
X50454819Y-38547618D01*
X50454819Y-38547618D02*
X50454819Y-38738094D01*
X50454819Y-38738094D02*
X50407200Y-38833332D01*
X50407200Y-38833332D02*
X50359580Y-38880951D01*
X50359580Y-38880951D02*
X50264342Y-38928570D01*
X50264342Y-38928570D02*
X49978628Y-38928570D01*
X49978628Y-38928570D02*
X49883390Y-38880951D01*
X49883390Y-38880951D02*
X49835771Y-38833332D01*
X49835771Y-38833332D02*
X49788152Y-38738094D01*
X49788152Y-38738094D02*
X49788152Y-38547618D01*
X49788152Y-38547618D02*
X49835771Y-38452380D01*
X50407200Y-37595237D02*
X50454819Y-37690475D01*
X50454819Y-37690475D02*
X50454819Y-37880951D01*
X50454819Y-37880951D02*
X50407200Y-37976189D01*
X50407200Y-37976189D02*
X50311961Y-38023808D01*
X50311961Y-38023808D02*
X49931009Y-38023808D01*
X49931009Y-38023808D02*
X49835771Y-37976189D01*
X49835771Y-37976189D02*
X49788152Y-37880951D01*
X49788152Y-37880951D02*
X49788152Y-37690475D01*
X49788152Y-37690475D02*
X49835771Y-37595237D01*
X49835771Y-37595237D02*
X49931009Y-37547618D01*
X49931009Y-37547618D02*
X50026247Y-37547618D01*
X50026247Y-37547618D02*
X50121485Y-38023808D01*
X50454819Y-37119046D02*
X49788152Y-37119046D01*
X49978628Y-37119046D02*
X49883390Y-37071427D01*
X49883390Y-37071427D02*
X49835771Y-37023808D01*
X49835771Y-37023808D02*
X49788152Y-36928570D01*
X49788152Y-36928570D02*
X49788152Y-36833332D01*
X43476666Y-41454819D02*
X43476666Y-42169104D01*
X43476666Y-42169104D02*
X43429047Y-42311961D01*
X43429047Y-42311961D02*
X43333809Y-42407200D01*
X43333809Y-42407200D02*
X43190952Y-42454819D01*
X43190952Y-42454819D02*
X43095714Y-42454819D01*
X43905238Y-41550057D02*
X43952857Y-41502438D01*
X43952857Y-41502438D02*
X44048095Y-41454819D01*
X44048095Y-41454819D02*
X44286190Y-41454819D01*
X44286190Y-41454819D02*
X44381428Y-41502438D01*
X44381428Y-41502438D02*
X44429047Y-41550057D01*
X44429047Y-41550057D02*
X44476666Y-41645295D01*
X44476666Y-41645295D02*
X44476666Y-41740533D01*
X44476666Y-41740533D02*
X44429047Y-41883390D01*
X44429047Y-41883390D02*
X43857619Y-42454819D01*
X43857619Y-42454819D02*
X44476666Y-42454819D01*
X10404761Y-37624819D02*
X9833333Y-37624819D01*
X10119047Y-37624819D02*
X10119047Y-36624819D01*
X10119047Y-36624819D02*
X10023809Y-36767676D01*
X10023809Y-36767676D02*
X9928571Y-36862914D01*
X9928571Y-36862914D02*
X9833333Y-36910533D01*
X11023809Y-36624819D02*
X11119047Y-36624819D01*
X11119047Y-36624819D02*
X11214285Y-36672438D01*
X11214285Y-36672438D02*
X11261904Y-36720057D01*
X11261904Y-36720057D02*
X11309523Y-36815295D01*
X11309523Y-36815295D02*
X11357142Y-37005771D01*
X11357142Y-37005771D02*
X11357142Y-37243866D01*
X11357142Y-37243866D02*
X11309523Y-37434342D01*
X11309523Y-37434342D02*
X11261904Y-37529580D01*
X11261904Y-37529580D02*
X11214285Y-37577200D01*
X11214285Y-37577200D02*
X11119047Y-37624819D01*
X11119047Y-37624819D02*
X11023809Y-37624819D01*
X11023809Y-37624819D02*
X10928571Y-37577200D01*
X10928571Y-37577200D02*
X10880952Y-37529580D01*
X10880952Y-37529580D02*
X10833333Y-37434342D01*
X10833333Y-37434342D02*
X10785714Y-37243866D01*
X10785714Y-37243866D02*
X10785714Y-37005771D01*
X10785714Y-37005771D02*
X10833333Y-36815295D01*
X10833333Y-36815295D02*
X10880952Y-36720057D01*
X10880952Y-36720057D02*
X10928571Y-36672438D01*
X10928571Y-36672438D02*
X11023809Y-36624819D01*
X11785714Y-37624819D02*
X11785714Y-36624819D01*
X11880952Y-37243866D02*
X12166666Y-37624819D01*
X12166666Y-36958152D02*
X11785714Y-37339104D01*
D11*
X10721429Y-36118200D02*
X10634762Y-35994391D01*
X10572857Y-36118200D02*
X10572857Y-35858200D01*
X10572857Y-35858200D02*
X10671905Y-35858200D01*
X10671905Y-35858200D02*
X10696667Y-35870581D01*
X10696667Y-35870581D02*
X10709048Y-35882962D01*
X10709048Y-35882962D02*
X10721429Y-35907724D01*
X10721429Y-35907724D02*
X10721429Y-35944867D01*
X10721429Y-35944867D02*
X10709048Y-35969629D01*
X10709048Y-35969629D02*
X10696667Y-35982010D01*
X10696667Y-35982010D02*
X10671905Y-35994391D01*
X10671905Y-35994391D02*
X10572857Y-35994391D01*
X10770953Y-36142962D02*
X10969048Y-36142962D01*
X11030952Y-36118200D02*
X11030952Y-35858200D01*
X11030952Y-35858200D02*
X11130000Y-35858200D01*
X11130000Y-35858200D02*
X11154762Y-35870581D01*
X11154762Y-35870581D02*
X11167143Y-35882962D01*
X11167143Y-35882962D02*
X11179524Y-35907724D01*
X11179524Y-35907724D02*
X11179524Y-35944867D01*
X11179524Y-35944867D02*
X11167143Y-35969629D01*
X11167143Y-35969629D02*
X11154762Y-35982010D01*
X11154762Y-35982010D02*
X11130000Y-35994391D01*
X11130000Y-35994391D02*
X11030952Y-35994391D01*
X11290952Y-36118200D02*
X11290952Y-35858200D01*
X11290952Y-35858200D02*
X11352857Y-35858200D01*
X11352857Y-35858200D02*
X11390000Y-35870581D01*
X11390000Y-35870581D02*
X11414762Y-35895343D01*
X11414762Y-35895343D02*
X11427143Y-35920105D01*
X11427143Y-35920105D02*
X11439524Y-35969629D01*
X11439524Y-35969629D02*
X11439524Y-36006772D01*
X11439524Y-36006772D02*
X11427143Y-36056296D01*
X11427143Y-36056296D02*
X11414762Y-36081058D01*
X11414762Y-36081058D02*
X11390000Y-36105820D01*
X11390000Y-36105820D02*
X11352857Y-36118200D01*
X11352857Y-36118200D02*
X11290952Y-36118200D01*
D10*
X20452380Y-26614819D02*
X19880952Y-26614819D01*
X20166666Y-26614819D02*
X20166666Y-25614819D01*
X20166666Y-25614819D02*
X20071428Y-25757676D01*
X20071428Y-25757676D02*
X19976190Y-25852914D01*
X19976190Y-25852914D02*
X19880952Y-25900533D01*
X21071428Y-25614819D02*
X21166666Y-25614819D01*
X21166666Y-25614819D02*
X21261904Y-25662438D01*
X21261904Y-25662438D02*
X21309523Y-25710057D01*
X21309523Y-25710057D02*
X21357142Y-25805295D01*
X21357142Y-25805295D02*
X21404761Y-25995771D01*
X21404761Y-25995771D02*
X21404761Y-26233866D01*
X21404761Y-26233866D02*
X21357142Y-26424342D01*
X21357142Y-26424342D02*
X21309523Y-26519580D01*
X21309523Y-26519580D02*
X21261904Y-26567200D01*
X21261904Y-26567200D02*
X21166666Y-26614819D01*
X21166666Y-26614819D02*
X21071428Y-26614819D01*
X21071428Y-26614819D02*
X20976190Y-26567200D01*
X20976190Y-26567200D02*
X20928571Y-26519580D01*
X20928571Y-26519580D02*
X20880952Y-26424342D01*
X20880952Y-26424342D02*
X20833333Y-26233866D01*
X20833333Y-26233866D02*
X20833333Y-25995771D01*
X20833333Y-25995771D02*
X20880952Y-25805295D01*
X20880952Y-25805295D02*
X20928571Y-25710057D01*
X20928571Y-25710057D02*
X20976190Y-25662438D01*
X20976190Y-25662438D02*
X21071428Y-25614819D01*
X22023809Y-25614819D02*
X22119047Y-25614819D01*
X22119047Y-25614819D02*
X22214285Y-25662438D01*
X22214285Y-25662438D02*
X22261904Y-25710057D01*
X22261904Y-25710057D02*
X22309523Y-25805295D01*
X22309523Y-25805295D02*
X22357142Y-25995771D01*
X22357142Y-25995771D02*
X22357142Y-26233866D01*
X22357142Y-26233866D02*
X22309523Y-26424342D01*
X22309523Y-26424342D02*
X22261904Y-26519580D01*
X22261904Y-26519580D02*
X22214285Y-26567200D01*
X22214285Y-26567200D02*
X22119047Y-26614819D01*
X22119047Y-26614819D02*
X22023809Y-26614819D01*
X22023809Y-26614819D02*
X21928571Y-26567200D01*
X21928571Y-26567200D02*
X21880952Y-26519580D01*
X21880952Y-26519580D02*
X21833333Y-26424342D01*
X21833333Y-26424342D02*
X21785714Y-26233866D01*
X21785714Y-26233866D02*
X21785714Y-25995771D01*
X21785714Y-25995771D02*
X21833333Y-25805295D01*
X21833333Y-25805295D02*
X21880952Y-25710057D01*
X21880952Y-25710057D02*
X21928571Y-25662438D01*
X21928571Y-25662438D02*
X22023809Y-25614819D01*
X22785714Y-25948152D02*
X22785714Y-26614819D01*
X22785714Y-26043390D02*
X22833333Y-25995771D01*
X22833333Y-25995771D02*
X22928571Y-25948152D01*
X22928571Y-25948152D02*
X23071428Y-25948152D01*
X23071428Y-25948152D02*
X23166666Y-25995771D01*
X23166666Y-25995771D02*
X23214285Y-26091009D01*
X23214285Y-26091009D02*
X23214285Y-26614819D01*
X24023809Y-26091009D02*
X23690476Y-26091009D01*
X23690476Y-26614819D02*
X23690476Y-25614819D01*
X23690476Y-25614819D02*
X24166666Y-25614819D01*
D11*
X21958333Y-25089765D02*
X21946429Y-25101670D01*
X21946429Y-25101670D02*
X21910714Y-25113574D01*
X21910714Y-25113574D02*
X21886905Y-25113574D01*
X21886905Y-25113574D02*
X21851191Y-25101670D01*
X21851191Y-25101670D02*
X21827381Y-25077860D01*
X21827381Y-25077860D02*
X21815476Y-25054050D01*
X21815476Y-25054050D02*
X21803572Y-25006431D01*
X21803572Y-25006431D02*
X21803572Y-24970717D01*
X21803572Y-24970717D02*
X21815476Y-24923098D01*
X21815476Y-24923098D02*
X21827381Y-24899289D01*
X21827381Y-24899289D02*
X21851191Y-24875479D01*
X21851191Y-24875479D02*
X21886905Y-24863574D01*
X21886905Y-24863574D02*
X21910714Y-24863574D01*
X21910714Y-24863574D02*
X21946429Y-24875479D01*
X21946429Y-24875479D02*
X21958333Y-24887384D01*
X22041667Y-24863574D02*
X22196429Y-24863574D01*
X22196429Y-24863574D02*
X22113095Y-24958812D01*
X22113095Y-24958812D02*
X22148810Y-24958812D01*
X22148810Y-24958812D02*
X22172619Y-24970717D01*
X22172619Y-24970717D02*
X22184524Y-24982622D01*
X22184524Y-24982622D02*
X22196429Y-25006431D01*
X22196429Y-25006431D02*
X22196429Y-25065955D01*
X22196429Y-25065955D02*
X22184524Y-25089765D01*
X22184524Y-25089765D02*
X22172619Y-25101670D01*
X22172619Y-25101670D02*
X22148810Y-25113574D01*
X22148810Y-25113574D02*
X22077381Y-25113574D01*
X22077381Y-25113574D02*
X22053572Y-25101670D01*
X22053572Y-25101670D02*
X22041667Y-25089765D01*
D10*
X9327200Y-44833333D02*
X9374819Y-44690476D01*
X9374819Y-44690476D02*
X9374819Y-44452381D01*
X9374819Y-44452381D02*
X9327200Y-44357143D01*
X9327200Y-44357143D02*
X9279580Y-44309524D01*
X9279580Y-44309524D02*
X9184342Y-44261905D01*
X9184342Y-44261905D02*
X9089104Y-44261905D01*
X9089104Y-44261905D02*
X8993866Y-44309524D01*
X8993866Y-44309524D02*
X8946247Y-44357143D01*
X8946247Y-44357143D02*
X8898628Y-44452381D01*
X8898628Y-44452381D02*
X8851009Y-44642857D01*
X8851009Y-44642857D02*
X8803390Y-44738095D01*
X8803390Y-44738095D02*
X8755771Y-44785714D01*
X8755771Y-44785714D02*
X8660533Y-44833333D01*
X8660533Y-44833333D02*
X8565295Y-44833333D01*
X8565295Y-44833333D02*
X8470057Y-44785714D01*
X8470057Y-44785714D02*
X8422438Y-44738095D01*
X8422438Y-44738095D02*
X8374819Y-44642857D01*
X8374819Y-44642857D02*
X8374819Y-44404762D01*
X8374819Y-44404762D02*
X8422438Y-44261905D01*
X9374819Y-43690476D02*
X9327200Y-43785714D01*
X9327200Y-43785714D02*
X9279580Y-43833333D01*
X9279580Y-43833333D02*
X9184342Y-43880952D01*
X9184342Y-43880952D02*
X8898628Y-43880952D01*
X8898628Y-43880952D02*
X8803390Y-43833333D01*
X8803390Y-43833333D02*
X8755771Y-43785714D01*
X8755771Y-43785714D02*
X8708152Y-43690476D01*
X8708152Y-43690476D02*
X8708152Y-43547619D01*
X8708152Y-43547619D02*
X8755771Y-43452381D01*
X8755771Y-43452381D02*
X8803390Y-43404762D01*
X8803390Y-43404762D02*
X8898628Y-43357143D01*
X8898628Y-43357143D02*
X9184342Y-43357143D01*
X9184342Y-43357143D02*
X9279580Y-43404762D01*
X9279580Y-43404762D02*
X9327200Y-43452381D01*
X9327200Y-43452381D02*
X9374819Y-43547619D01*
X9374819Y-43547619D02*
X9374819Y-43690476D01*
X9374819Y-42785714D02*
X9327200Y-42880952D01*
X9327200Y-42880952D02*
X9231961Y-42928571D01*
X9231961Y-42928571D02*
X8374819Y-42928571D01*
X9374819Y-41976190D02*
X8851009Y-41976190D01*
X8851009Y-41976190D02*
X8755771Y-42023809D01*
X8755771Y-42023809D02*
X8708152Y-42119047D01*
X8708152Y-42119047D02*
X8708152Y-42309523D01*
X8708152Y-42309523D02*
X8755771Y-42404761D01*
X9327200Y-41976190D02*
X9374819Y-42071428D01*
X9374819Y-42071428D02*
X9374819Y-42309523D01*
X9374819Y-42309523D02*
X9327200Y-42404761D01*
X9327200Y-42404761D02*
X9231961Y-42452380D01*
X9231961Y-42452380D02*
X9136723Y-42452380D01*
X9136723Y-42452380D02*
X9041485Y-42404761D01*
X9041485Y-42404761D02*
X8993866Y-42309523D01*
X8993866Y-42309523D02*
X8993866Y-42071428D01*
X8993866Y-42071428D02*
X8946247Y-41976190D01*
X9374819Y-41499999D02*
X8708152Y-41499999D01*
X8898628Y-41499999D02*
X8803390Y-41452380D01*
X8803390Y-41452380D02*
X8755771Y-41404761D01*
X8755771Y-41404761D02*
X8708152Y-41309523D01*
X8708152Y-41309523D02*
X8708152Y-41214285D01*
X9470057Y-41119047D02*
X9470057Y-40357142D01*
X9374819Y-40119046D02*
X8374819Y-40119046D01*
X8708152Y-39642856D02*
X9374819Y-39642856D01*
X8803390Y-39642856D02*
X8755771Y-39595237D01*
X8755771Y-39595237D02*
X8708152Y-39499999D01*
X8708152Y-39499999D02*
X8708152Y-39357142D01*
X8708152Y-39357142D02*
X8755771Y-39261904D01*
X8755771Y-39261904D02*
X8851009Y-39214285D01*
X8851009Y-39214285D02*
X9374819Y-39214285D01*
X3127143Y-42407200D02*
X3270000Y-42454819D01*
X3270000Y-42454819D02*
X3508095Y-42454819D01*
X3508095Y-42454819D02*
X3603333Y-42407200D01*
X3603333Y-42407200D02*
X3650952Y-42359580D01*
X3650952Y-42359580D02*
X3698571Y-42264342D01*
X3698571Y-42264342D02*
X3698571Y-42169104D01*
X3698571Y-42169104D02*
X3650952Y-42073866D01*
X3650952Y-42073866D02*
X3603333Y-42026247D01*
X3603333Y-42026247D02*
X3508095Y-41978628D01*
X3508095Y-41978628D02*
X3317619Y-41931009D01*
X3317619Y-41931009D02*
X3222381Y-41883390D01*
X3222381Y-41883390D02*
X3174762Y-41835771D01*
X3174762Y-41835771D02*
X3127143Y-41740533D01*
X3127143Y-41740533D02*
X3127143Y-41645295D01*
X3127143Y-41645295D02*
X3174762Y-41550057D01*
X3174762Y-41550057D02*
X3222381Y-41502438D01*
X3222381Y-41502438D02*
X3317619Y-41454819D01*
X3317619Y-41454819D02*
X3555714Y-41454819D01*
X3555714Y-41454819D02*
X3698571Y-41502438D01*
X4317619Y-41454819D02*
X4508095Y-41454819D01*
X4508095Y-41454819D02*
X4603333Y-41502438D01*
X4603333Y-41502438D02*
X4698571Y-41597676D01*
X4698571Y-41597676D02*
X4746190Y-41788152D01*
X4746190Y-41788152D02*
X4746190Y-42121485D01*
X4746190Y-42121485D02*
X4698571Y-42311961D01*
X4698571Y-42311961D02*
X4603333Y-42407200D01*
X4603333Y-42407200D02*
X4508095Y-42454819D01*
X4508095Y-42454819D02*
X4317619Y-42454819D01*
X4317619Y-42454819D02*
X4222381Y-42407200D01*
X4222381Y-42407200D02*
X4127143Y-42311961D01*
X4127143Y-42311961D02*
X4079524Y-42121485D01*
X4079524Y-42121485D02*
X4079524Y-41788152D01*
X4079524Y-41788152D02*
X4127143Y-41597676D01*
X4127143Y-41597676D02*
X4222381Y-41502438D01*
X4222381Y-41502438D02*
X4317619Y-41454819D01*
X5650952Y-42454819D02*
X5174762Y-42454819D01*
X5174762Y-42454819D02*
X5174762Y-41454819D01*
X5936667Y-42169104D02*
X6412857Y-42169104D01*
X5841429Y-42454819D02*
X6174762Y-41454819D01*
X6174762Y-41454819D02*
X6508095Y-42454819D01*
X7412857Y-42454819D02*
X7079524Y-41978628D01*
X6841429Y-42454819D02*
X6841429Y-41454819D01*
X6841429Y-41454819D02*
X7222381Y-41454819D01*
X7222381Y-41454819D02*
X7317619Y-41502438D01*
X7317619Y-41502438D02*
X7365238Y-41550057D01*
X7365238Y-41550057D02*
X7412857Y-41645295D01*
X7412857Y-41645295D02*
X7412857Y-41788152D01*
X7412857Y-41788152D02*
X7365238Y-41883390D01*
X7365238Y-41883390D02*
X7317619Y-41931009D01*
X7317619Y-41931009D02*
X7222381Y-41978628D01*
X7222381Y-41978628D02*
X6841429Y-41978628D01*
X14928571Y-26884819D02*
X14357143Y-26884819D01*
X14642857Y-26884819D02*
X14642857Y-25884819D01*
X14642857Y-25884819D02*
X14547619Y-26027676D01*
X14547619Y-26027676D02*
X14452381Y-26122914D01*
X14452381Y-26122914D02*
X14357143Y-26170533D01*
X15547619Y-25884819D02*
X15642857Y-25884819D01*
X15642857Y-25884819D02*
X15738095Y-25932438D01*
X15738095Y-25932438D02*
X15785714Y-25980057D01*
X15785714Y-25980057D02*
X15833333Y-26075295D01*
X15833333Y-26075295D02*
X15880952Y-26265771D01*
X15880952Y-26265771D02*
X15880952Y-26503866D01*
X15880952Y-26503866D02*
X15833333Y-26694342D01*
X15833333Y-26694342D02*
X15785714Y-26789580D01*
X15785714Y-26789580D02*
X15738095Y-26837200D01*
X15738095Y-26837200D02*
X15642857Y-26884819D01*
X15642857Y-26884819D02*
X15547619Y-26884819D01*
X15547619Y-26884819D02*
X15452381Y-26837200D01*
X15452381Y-26837200D02*
X15404762Y-26789580D01*
X15404762Y-26789580D02*
X15357143Y-26694342D01*
X15357143Y-26694342D02*
X15309524Y-26503866D01*
X15309524Y-26503866D02*
X15309524Y-26265771D01*
X15309524Y-26265771D02*
X15357143Y-26075295D01*
X15357143Y-26075295D02*
X15404762Y-25980057D01*
X15404762Y-25980057D02*
X15452381Y-25932438D01*
X15452381Y-25932438D02*
X15547619Y-25884819D01*
X16738095Y-26218152D02*
X16738095Y-26884819D01*
X16309524Y-26218152D02*
X16309524Y-26741961D01*
X16309524Y-26741961D02*
X16357143Y-26837200D01*
X16357143Y-26837200D02*
X16452381Y-26884819D01*
X16452381Y-26884819D02*
X16595238Y-26884819D01*
X16595238Y-26884819D02*
X16690476Y-26837200D01*
X16690476Y-26837200D02*
X16738095Y-26789580D01*
X17547619Y-26361009D02*
X17214286Y-26361009D01*
X17214286Y-26884819D02*
X17214286Y-25884819D01*
X17214286Y-25884819D02*
X17690476Y-25884819D01*
D14*
X15933333Y-25143832D02*
X15914285Y-25162880D01*
X15914285Y-25162880D02*
X15857143Y-25181927D01*
X15857143Y-25181927D02*
X15819047Y-25181927D01*
X15819047Y-25181927D02*
X15761904Y-25162880D01*
X15761904Y-25162880D02*
X15723809Y-25124784D01*
X15723809Y-25124784D02*
X15704762Y-25086689D01*
X15704762Y-25086689D02*
X15685714Y-25010499D01*
X15685714Y-25010499D02*
X15685714Y-24953356D01*
X15685714Y-24953356D02*
X15704762Y-24877165D01*
X15704762Y-24877165D02*
X15723809Y-24839070D01*
X15723809Y-24839070D02*
X15761904Y-24800975D01*
X15761904Y-24800975D02*
X15819047Y-24781927D01*
X15819047Y-24781927D02*
X15857143Y-24781927D01*
X15857143Y-24781927D02*
X15914285Y-24800975D01*
X15914285Y-24800975D02*
X15933333Y-24820022D01*
X16314285Y-25181927D02*
X16085714Y-25181927D01*
X16200000Y-25181927D02*
X16200000Y-24781927D01*
X16200000Y-24781927D02*
X16161904Y-24839070D01*
X16161904Y-24839070D02*
X16123809Y-24877165D01*
X16123809Y-24877165D02*
X16085714Y-24896213D01*
D10*
X33523809Y-36884819D02*
X33047619Y-36884819D01*
X33047619Y-36884819D02*
X33047619Y-35884819D01*
X33857143Y-36361009D02*
X34190476Y-36361009D01*
X34333333Y-36884819D02*
X33857143Y-36884819D01*
X33857143Y-36884819D02*
X33857143Y-35884819D01*
X33857143Y-35884819D02*
X34333333Y-35884819D01*
X34761905Y-36884819D02*
X34761905Y-35884819D01*
X34761905Y-35884819D02*
X35000000Y-35884819D01*
X35000000Y-35884819D02*
X35142857Y-35932438D01*
X35142857Y-35932438D02*
X35238095Y-36027676D01*
X35238095Y-36027676D02*
X35285714Y-36122914D01*
X35285714Y-36122914D02*
X35333333Y-36313390D01*
X35333333Y-36313390D02*
X35333333Y-36456247D01*
X35333333Y-36456247D02*
X35285714Y-36646723D01*
X35285714Y-36646723D02*
X35238095Y-36741961D01*
X35238095Y-36741961D02*
X35142857Y-36837200D01*
X35142857Y-36837200D02*
X35000000Y-36884819D01*
X35000000Y-36884819D02*
X34761905Y-36884819D01*
X35523810Y-36980057D02*
X36285714Y-36980057D01*
X37095238Y-36884819D02*
X36761905Y-36408628D01*
X36523810Y-36884819D02*
X36523810Y-35884819D01*
X36523810Y-35884819D02*
X36904762Y-35884819D01*
X36904762Y-35884819D02*
X37000000Y-35932438D01*
X37000000Y-35932438D02*
X37047619Y-35980057D01*
X37047619Y-35980057D02*
X37095238Y-36075295D01*
X37095238Y-36075295D02*
X37095238Y-36218152D01*
X37095238Y-36218152D02*
X37047619Y-36313390D01*
X37047619Y-36313390D02*
X37000000Y-36361009D01*
X37000000Y-36361009D02*
X36904762Y-36408628D01*
X36904762Y-36408628D02*
X36523810Y-36408628D01*
X37523810Y-36361009D02*
X37857143Y-36361009D01*
X38000000Y-36884819D02*
X37523810Y-36884819D01*
X37523810Y-36884819D02*
X37523810Y-35884819D01*
X37523810Y-35884819D02*
X38000000Y-35884819D01*
X38428572Y-36884819D02*
X38428572Y-35884819D01*
X38428572Y-35884819D02*
X38666667Y-35884819D01*
X38666667Y-35884819D02*
X38809524Y-35932438D01*
X38809524Y-35932438D02*
X38904762Y-36027676D01*
X38904762Y-36027676D02*
X38952381Y-36122914D01*
X38952381Y-36122914D02*
X39000000Y-36313390D01*
X39000000Y-36313390D02*
X39000000Y-36456247D01*
X39000000Y-36456247D02*
X38952381Y-36646723D01*
X38952381Y-36646723D02*
X38904762Y-36741961D01*
X38904762Y-36741961D02*
X38809524Y-36837200D01*
X38809524Y-36837200D02*
X38666667Y-36884819D01*
X38666667Y-36884819D02*
X38428572Y-36884819D01*
D14*
X35552381Y-35181927D02*
X35361905Y-35181927D01*
X35361905Y-35181927D02*
X35361905Y-34781927D01*
X35685715Y-34972403D02*
X35819048Y-34972403D01*
X35876191Y-35181927D02*
X35685715Y-35181927D01*
X35685715Y-35181927D02*
X35685715Y-34781927D01*
X35685715Y-34781927D02*
X35876191Y-34781927D01*
X36047620Y-35181927D02*
X36047620Y-34781927D01*
X36047620Y-34781927D02*
X36142858Y-34781927D01*
X36142858Y-34781927D02*
X36200001Y-34800975D01*
X36200001Y-34800975D02*
X36238096Y-34839070D01*
X36238096Y-34839070D02*
X36257143Y-34877165D01*
X36257143Y-34877165D02*
X36276191Y-34953356D01*
X36276191Y-34953356D02*
X36276191Y-35010499D01*
X36276191Y-35010499D02*
X36257143Y-35086689D01*
X36257143Y-35086689D02*
X36238096Y-35124784D01*
X36238096Y-35124784D02*
X36200001Y-35162880D01*
X36200001Y-35162880D02*
X36142858Y-35181927D01*
X36142858Y-35181927D02*
X36047620Y-35181927D01*
X36657143Y-35181927D02*
X36428572Y-35181927D01*
X36542858Y-35181927D02*
X36542858Y-34781927D01*
X36542858Y-34781927D02*
X36504762Y-34839070D01*
X36504762Y-34839070D02*
X36466667Y-34877165D01*
X36466667Y-34877165D02*
X36428572Y-34896213D01*
D10*
X8624819Y-37071428D02*
X8624819Y-37642856D01*
X8624819Y-37357142D02*
X7624819Y-37357142D01*
X7624819Y-37357142D02*
X7767676Y-37452380D01*
X7767676Y-37452380D02*
X7862914Y-37547618D01*
X7862914Y-37547618D02*
X7910533Y-37642856D01*
X7624819Y-36452380D02*
X7624819Y-36357142D01*
X7624819Y-36357142D02*
X7672438Y-36261904D01*
X7672438Y-36261904D02*
X7720057Y-36214285D01*
X7720057Y-36214285D02*
X7815295Y-36166666D01*
X7815295Y-36166666D02*
X8005771Y-36119047D01*
X8005771Y-36119047D02*
X8243866Y-36119047D01*
X8243866Y-36119047D02*
X8434342Y-36166666D01*
X8434342Y-36166666D02*
X8529580Y-36214285D01*
X8529580Y-36214285D02*
X8577200Y-36261904D01*
X8577200Y-36261904D02*
X8624819Y-36357142D01*
X8624819Y-36357142D02*
X8624819Y-36452380D01*
X8624819Y-36452380D02*
X8577200Y-36547618D01*
X8577200Y-36547618D02*
X8529580Y-36595237D01*
X8529580Y-36595237D02*
X8434342Y-36642856D01*
X8434342Y-36642856D02*
X8243866Y-36690475D01*
X8243866Y-36690475D02*
X8005771Y-36690475D01*
X8005771Y-36690475D02*
X7815295Y-36642856D01*
X7815295Y-36642856D02*
X7720057Y-36595237D01*
X7720057Y-36595237D02*
X7672438Y-36547618D01*
X7672438Y-36547618D02*
X7624819Y-36452380D01*
X7624819Y-35499999D02*
X7624819Y-35404761D01*
X7624819Y-35404761D02*
X7672438Y-35309523D01*
X7672438Y-35309523D02*
X7720057Y-35261904D01*
X7720057Y-35261904D02*
X7815295Y-35214285D01*
X7815295Y-35214285D02*
X8005771Y-35166666D01*
X8005771Y-35166666D02*
X8243866Y-35166666D01*
X8243866Y-35166666D02*
X8434342Y-35214285D01*
X8434342Y-35214285D02*
X8529580Y-35261904D01*
X8529580Y-35261904D02*
X8577200Y-35309523D01*
X8577200Y-35309523D02*
X8624819Y-35404761D01*
X8624819Y-35404761D02*
X8624819Y-35499999D01*
X8624819Y-35499999D02*
X8577200Y-35595237D01*
X8577200Y-35595237D02*
X8529580Y-35642856D01*
X8529580Y-35642856D02*
X8434342Y-35690475D01*
X8434342Y-35690475D02*
X8243866Y-35738094D01*
X8243866Y-35738094D02*
X8005771Y-35738094D01*
X8005771Y-35738094D02*
X7815295Y-35690475D01*
X7815295Y-35690475D02*
X7720057Y-35642856D01*
X7720057Y-35642856D02*
X7672438Y-35595237D01*
X7672438Y-35595237D02*
X7624819Y-35499999D01*
X8624819Y-34738094D02*
X7624819Y-34738094D01*
X8243866Y-34642856D02*
X8624819Y-34357142D01*
X7958152Y-34357142D02*
X8339104Y-34738094D01*
D11*
X7118200Y-36445713D02*
X6994391Y-36532380D01*
X7118200Y-36594285D02*
X6858200Y-36594285D01*
X6858200Y-36594285D02*
X6858200Y-36495237D01*
X6858200Y-36495237D02*
X6870581Y-36470475D01*
X6870581Y-36470475D02*
X6882962Y-36458094D01*
X6882962Y-36458094D02*
X6907724Y-36445713D01*
X6907724Y-36445713D02*
X6944867Y-36445713D01*
X6944867Y-36445713D02*
X6969629Y-36458094D01*
X6969629Y-36458094D02*
X6982010Y-36470475D01*
X6982010Y-36470475D02*
X6994391Y-36495237D01*
X6994391Y-36495237D02*
X6994391Y-36594285D01*
X7142962Y-36396190D02*
X7142962Y-36198094D01*
X7118200Y-36136190D02*
X6858200Y-36136190D01*
X6858200Y-36136190D02*
X6858200Y-36074285D01*
X6858200Y-36074285D02*
X6870581Y-36037142D01*
X6870581Y-36037142D02*
X6895343Y-36012380D01*
X6895343Y-36012380D02*
X6920105Y-35999999D01*
X6920105Y-35999999D02*
X6969629Y-35987618D01*
X6969629Y-35987618D02*
X7006772Y-35987618D01*
X7006772Y-35987618D02*
X7056296Y-35999999D01*
X7056296Y-35999999D02*
X7081058Y-36012380D01*
X7081058Y-36012380D02*
X7105820Y-36037142D01*
X7105820Y-36037142D02*
X7118200Y-36074285D01*
X7118200Y-36074285D02*
X7118200Y-36136190D01*
X7118200Y-35876190D02*
X6858200Y-35876190D01*
X6858200Y-35789523D02*
X7118200Y-35702856D01*
X7118200Y-35702856D02*
X6858200Y-35616189D01*
X6882962Y-35541904D02*
X6870581Y-35529523D01*
X6870581Y-35529523D02*
X6858200Y-35504761D01*
X6858200Y-35504761D02*
X6858200Y-35442856D01*
X6858200Y-35442856D02*
X6870581Y-35418094D01*
X6870581Y-35418094D02*
X6882962Y-35405713D01*
X6882962Y-35405713D02*
X6907724Y-35393332D01*
X6907724Y-35393332D02*
X6932486Y-35393332D01*
X6932486Y-35393332D02*
X6969629Y-35405713D01*
X6969629Y-35405713D02*
X7118200Y-35554285D01*
X7118200Y-35554285D02*
X7118200Y-35393332D01*
D10*
X46452380Y-12614819D02*
X45880952Y-12614819D01*
X46166666Y-12614819D02*
X46166666Y-11614819D01*
X46166666Y-11614819D02*
X46071428Y-11757676D01*
X46071428Y-11757676D02*
X45976190Y-11852914D01*
X45976190Y-11852914D02*
X45880952Y-11900533D01*
X47071428Y-11614819D02*
X47166666Y-11614819D01*
X47166666Y-11614819D02*
X47261904Y-11662438D01*
X47261904Y-11662438D02*
X47309523Y-11710057D01*
X47309523Y-11710057D02*
X47357142Y-11805295D01*
X47357142Y-11805295D02*
X47404761Y-11995771D01*
X47404761Y-11995771D02*
X47404761Y-12233866D01*
X47404761Y-12233866D02*
X47357142Y-12424342D01*
X47357142Y-12424342D02*
X47309523Y-12519580D01*
X47309523Y-12519580D02*
X47261904Y-12567200D01*
X47261904Y-12567200D02*
X47166666Y-12614819D01*
X47166666Y-12614819D02*
X47071428Y-12614819D01*
X47071428Y-12614819D02*
X46976190Y-12567200D01*
X46976190Y-12567200D02*
X46928571Y-12519580D01*
X46928571Y-12519580D02*
X46880952Y-12424342D01*
X46880952Y-12424342D02*
X46833333Y-12233866D01*
X46833333Y-12233866D02*
X46833333Y-11995771D01*
X46833333Y-11995771D02*
X46880952Y-11805295D01*
X46880952Y-11805295D02*
X46928571Y-11710057D01*
X46928571Y-11710057D02*
X46976190Y-11662438D01*
X46976190Y-11662438D02*
X47071428Y-11614819D01*
X48023809Y-11614819D02*
X48119047Y-11614819D01*
X48119047Y-11614819D02*
X48214285Y-11662438D01*
X48214285Y-11662438D02*
X48261904Y-11710057D01*
X48261904Y-11710057D02*
X48309523Y-11805295D01*
X48309523Y-11805295D02*
X48357142Y-11995771D01*
X48357142Y-11995771D02*
X48357142Y-12233866D01*
X48357142Y-12233866D02*
X48309523Y-12424342D01*
X48309523Y-12424342D02*
X48261904Y-12519580D01*
X48261904Y-12519580D02*
X48214285Y-12567200D01*
X48214285Y-12567200D02*
X48119047Y-12614819D01*
X48119047Y-12614819D02*
X48023809Y-12614819D01*
X48023809Y-12614819D02*
X47928571Y-12567200D01*
X47928571Y-12567200D02*
X47880952Y-12519580D01*
X47880952Y-12519580D02*
X47833333Y-12424342D01*
X47833333Y-12424342D02*
X47785714Y-12233866D01*
X47785714Y-12233866D02*
X47785714Y-11995771D01*
X47785714Y-11995771D02*
X47833333Y-11805295D01*
X47833333Y-11805295D02*
X47880952Y-11710057D01*
X47880952Y-11710057D02*
X47928571Y-11662438D01*
X47928571Y-11662438D02*
X48023809Y-11614819D01*
X48785714Y-11948152D02*
X48785714Y-12614819D01*
X48785714Y-12043390D02*
X48833333Y-11995771D01*
X48833333Y-11995771D02*
X48928571Y-11948152D01*
X48928571Y-11948152D02*
X49071428Y-11948152D01*
X49071428Y-11948152D02*
X49166666Y-11995771D01*
X49166666Y-11995771D02*
X49214285Y-12091009D01*
X49214285Y-12091009D02*
X49214285Y-12614819D01*
X50023809Y-12091009D02*
X49690476Y-12091009D01*
X49690476Y-12614819D02*
X49690476Y-11614819D01*
X49690476Y-11614819D02*
X50166666Y-11614819D01*
D11*
X47958333Y-11089765D02*
X47946429Y-11101670D01*
X47946429Y-11101670D02*
X47910714Y-11113574D01*
X47910714Y-11113574D02*
X47886905Y-11113574D01*
X47886905Y-11113574D02*
X47851191Y-11101670D01*
X47851191Y-11101670D02*
X47827381Y-11077860D01*
X47827381Y-11077860D02*
X47815476Y-11054050D01*
X47815476Y-11054050D02*
X47803572Y-11006431D01*
X47803572Y-11006431D02*
X47803572Y-10970717D01*
X47803572Y-10970717D02*
X47815476Y-10923098D01*
X47815476Y-10923098D02*
X47827381Y-10899289D01*
X47827381Y-10899289D02*
X47851191Y-10875479D01*
X47851191Y-10875479D02*
X47886905Y-10863574D01*
X47886905Y-10863574D02*
X47910714Y-10863574D01*
X47910714Y-10863574D02*
X47946429Y-10875479D01*
X47946429Y-10875479D02*
X47958333Y-10887384D01*
X48172619Y-10946908D02*
X48172619Y-11113574D01*
X48113095Y-10851670D02*
X48053572Y-11030241D01*
X48053572Y-11030241D02*
X48208333Y-11030241D01*
D10*
X4380953Y-19931009D02*
X4714286Y-19931009D01*
X4857143Y-20454819D02*
X4380953Y-20454819D01*
X4380953Y-20454819D02*
X4380953Y-19454819D01*
X4380953Y-19454819D02*
X4857143Y-19454819D01*
X5238096Y-20407200D02*
X5380953Y-20454819D01*
X5380953Y-20454819D02*
X5619048Y-20454819D01*
X5619048Y-20454819D02*
X5714286Y-20407200D01*
X5714286Y-20407200D02*
X5761905Y-20359580D01*
X5761905Y-20359580D02*
X5809524Y-20264342D01*
X5809524Y-20264342D02*
X5809524Y-20169104D01*
X5809524Y-20169104D02*
X5761905Y-20073866D01*
X5761905Y-20073866D02*
X5714286Y-20026247D01*
X5714286Y-20026247D02*
X5619048Y-19978628D01*
X5619048Y-19978628D02*
X5428572Y-19931009D01*
X5428572Y-19931009D02*
X5333334Y-19883390D01*
X5333334Y-19883390D02*
X5285715Y-19835771D01*
X5285715Y-19835771D02*
X5238096Y-19740533D01*
X5238096Y-19740533D02*
X5238096Y-19645295D01*
X5238096Y-19645295D02*
X5285715Y-19550057D01*
X5285715Y-19550057D02*
X5333334Y-19502438D01*
X5333334Y-19502438D02*
X5428572Y-19454819D01*
X5428572Y-19454819D02*
X5666667Y-19454819D01*
X5666667Y-19454819D02*
X5809524Y-19502438D01*
X6238096Y-20454819D02*
X6238096Y-19454819D01*
X6238096Y-19454819D02*
X6619048Y-19454819D01*
X6619048Y-19454819D02*
X6714286Y-19502438D01*
X6714286Y-19502438D02*
X6761905Y-19550057D01*
X6761905Y-19550057D02*
X6809524Y-19645295D01*
X6809524Y-19645295D02*
X6809524Y-19788152D01*
X6809524Y-19788152D02*
X6761905Y-19883390D01*
X6761905Y-19883390D02*
X6714286Y-19931009D01*
X6714286Y-19931009D02*
X6619048Y-19978628D01*
X6619048Y-19978628D02*
X6238096Y-19978628D01*
X7142858Y-19454819D02*
X7761905Y-19454819D01*
X7761905Y-19454819D02*
X7428572Y-19835771D01*
X7428572Y-19835771D02*
X7571429Y-19835771D01*
X7571429Y-19835771D02*
X7666667Y-19883390D01*
X7666667Y-19883390D02*
X7714286Y-19931009D01*
X7714286Y-19931009D02*
X7761905Y-20026247D01*
X7761905Y-20026247D02*
X7761905Y-20264342D01*
X7761905Y-20264342D02*
X7714286Y-20359580D01*
X7714286Y-20359580D02*
X7666667Y-20407200D01*
X7666667Y-20407200D02*
X7571429Y-20454819D01*
X7571429Y-20454819D02*
X7285715Y-20454819D01*
X7285715Y-20454819D02*
X7190477Y-20407200D01*
X7190477Y-20407200D02*
X7142858Y-20359580D01*
X8142858Y-19550057D02*
X8190477Y-19502438D01*
X8190477Y-19502438D02*
X8285715Y-19454819D01*
X8285715Y-19454819D02*
X8523810Y-19454819D01*
X8523810Y-19454819D02*
X8619048Y-19502438D01*
X8619048Y-19502438D02*
X8666667Y-19550057D01*
X8666667Y-19550057D02*
X8714286Y-19645295D01*
X8714286Y-19645295D02*
X8714286Y-19740533D01*
X8714286Y-19740533D02*
X8666667Y-19883390D01*
X8666667Y-19883390D02*
X8095239Y-20454819D01*
X8095239Y-20454819D02*
X8714286Y-20454819D01*
X9142858Y-20073866D02*
X9904763Y-20073866D01*
X10952381Y-20359580D02*
X10904762Y-20407200D01*
X10904762Y-20407200D02*
X10761905Y-20454819D01*
X10761905Y-20454819D02*
X10666667Y-20454819D01*
X10666667Y-20454819D02*
X10523810Y-20407200D01*
X10523810Y-20407200D02*
X10428572Y-20311961D01*
X10428572Y-20311961D02*
X10380953Y-20216723D01*
X10380953Y-20216723D02*
X10333334Y-20026247D01*
X10333334Y-20026247D02*
X10333334Y-19883390D01*
X10333334Y-19883390D02*
X10380953Y-19692914D01*
X10380953Y-19692914D02*
X10428572Y-19597676D01*
X10428572Y-19597676D02*
X10523810Y-19502438D01*
X10523810Y-19502438D02*
X10666667Y-19454819D01*
X10666667Y-19454819D02*
X10761905Y-19454819D01*
X10761905Y-19454819D02*
X10904762Y-19502438D01*
X10904762Y-19502438D02*
X10952381Y-19550057D01*
X11285715Y-19454819D02*
X11904762Y-19454819D01*
X11904762Y-19454819D02*
X11571429Y-19835771D01*
X11571429Y-19835771D02*
X11714286Y-19835771D01*
X11714286Y-19835771D02*
X11809524Y-19883390D01*
X11809524Y-19883390D02*
X11857143Y-19931009D01*
X11857143Y-19931009D02*
X11904762Y-20026247D01*
X11904762Y-20026247D02*
X11904762Y-20264342D01*
X11904762Y-20264342D02*
X11857143Y-20359580D01*
X11857143Y-20359580D02*
X11809524Y-20407200D01*
X11809524Y-20407200D02*
X11714286Y-20454819D01*
X11714286Y-20454819D02*
X11428572Y-20454819D01*
X11428572Y-20454819D02*
X11333334Y-20407200D01*
X11333334Y-20407200D02*
X11285715Y-20359580D01*
X12333334Y-20073866D02*
X13095239Y-20073866D01*
X13476191Y-19454819D02*
X13714286Y-20454819D01*
X13714286Y-20454819D02*
X13904762Y-19740533D01*
X13904762Y-19740533D02*
X14095238Y-20454819D01*
X14095238Y-20454819D02*
X14333334Y-19454819D01*
X15285714Y-20454819D02*
X14952381Y-19978628D01*
X14714286Y-20454819D02*
X14714286Y-19454819D01*
X14714286Y-19454819D02*
X15095238Y-19454819D01*
X15095238Y-19454819D02*
X15190476Y-19502438D01*
X15190476Y-19502438D02*
X15238095Y-19550057D01*
X15238095Y-19550057D02*
X15285714Y-19645295D01*
X15285714Y-19645295D02*
X15285714Y-19788152D01*
X15285714Y-19788152D02*
X15238095Y-19883390D01*
X15238095Y-19883390D02*
X15190476Y-19931009D01*
X15190476Y-19931009D02*
X15095238Y-19978628D01*
X15095238Y-19978628D02*
X14714286Y-19978628D01*
X15904762Y-19454819D02*
X16095238Y-19454819D01*
X16095238Y-19454819D02*
X16190476Y-19502438D01*
X16190476Y-19502438D02*
X16285714Y-19597676D01*
X16285714Y-19597676D02*
X16333333Y-19788152D01*
X16333333Y-19788152D02*
X16333333Y-20121485D01*
X16333333Y-20121485D02*
X16285714Y-20311961D01*
X16285714Y-20311961D02*
X16190476Y-20407200D01*
X16190476Y-20407200D02*
X16095238Y-20454819D01*
X16095238Y-20454819D02*
X15904762Y-20454819D01*
X15904762Y-20454819D02*
X15809524Y-20407200D01*
X15809524Y-20407200D02*
X15714286Y-20311961D01*
X15714286Y-20311961D02*
X15666667Y-20121485D01*
X15666667Y-20121485D02*
X15666667Y-19788152D01*
X15666667Y-19788152D02*
X15714286Y-19597676D01*
X15714286Y-19597676D02*
X15809524Y-19502438D01*
X15809524Y-19502438D02*
X15904762Y-19454819D01*
X16952381Y-19454819D02*
X17142857Y-19454819D01*
X17142857Y-19454819D02*
X17238095Y-19502438D01*
X17238095Y-19502438D02*
X17333333Y-19597676D01*
X17333333Y-19597676D02*
X17380952Y-19788152D01*
X17380952Y-19788152D02*
X17380952Y-20121485D01*
X17380952Y-20121485D02*
X17333333Y-20311961D01*
X17333333Y-20311961D02*
X17238095Y-20407200D01*
X17238095Y-20407200D02*
X17142857Y-20454819D01*
X17142857Y-20454819D02*
X16952381Y-20454819D01*
X16952381Y-20454819D02*
X16857143Y-20407200D01*
X16857143Y-20407200D02*
X16761905Y-20311961D01*
X16761905Y-20311961D02*
X16714286Y-20121485D01*
X16714286Y-20121485D02*
X16714286Y-19788152D01*
X16714286Y-19788152D02*
X16761905Y-19597676D01*
X16761905Y-19597676D02*
X16857143Y-19502438D01*
X16857143Y-19502438D02*
X16952381Y-19454819D01*
X17809524Y-20454819D02*
X17809524Y-19454819D01*
X17809524Y-19454819D02*
X18142857Y-20169104D01*
X18142857Y-20169104D02*
X18476190Y-19454819D01*
X18476190Y-19454819D02*
X18476190Y-20454819D01*
X18952381Y-20073866D02*
X19714286Y-20073866D01*
X20380952Y-19454819D02*
X20476190Y-19454819D01*
X20476190Y-19454819D02*
X20571428Y-19502438D01*
X20571428Y-19502438D02*
X20619047Y-19550057D01*
X20619047Y-19550057D02*
X20666666Y-19645295D01*
X20666666Y-19645295D02*
X20714285Y-19835771D01*
X20714285Y-19835771D02*
X20714285Y-20073866D01*
X20714285Y-20073866D02*
X20666666Y-20264342D01*
X20666666Y-20264342D02*
X20619047Y-20359580D01*
X20619047Y-20359580D02*
X20571428Y-20407200D01*
X20571428Y-20407200D02*
X20476190Y-20454819D01*
X20476190Y-20454819D02*
X20380952Y-20454819D01*
X20380952Y-20454819D02*
X20285714Y-20407200D01*
X20285714Y-20407200D02*
X20238095Y-20359580D01*
X20238095Y-20359580D02*
X20190476Y-20264342D01*
X20190476Y-20264342D02*
X20142857Y-20073866D01*
X20142857Y-20073866D02*
X20142857Y-19835771D01*
X20142857Y-19835771D02*
X20190476Y-19645295D01*
X20190476Y-19645295D02*
X20238095Y-19550057D01*
X20238095Y-19550057D02*
X20285714Y-19502438D01*
X20285714Y-19502438D02*
X20380952Y-19454819D01*
X21095238Y-19550057D02*
X21142857Y-19502438D01*
X21142857Y-19502438D02*
X21238095Y-19454819D01*
X21238095Y-19454819D02*
X21476190Y-19454819D01*
X21476190Y-19454819D02*
X21571428Y-19502438D01*
X21571428Y-19502438D02*
X21619047Y-19550057D01*
X21619047Y-19550057D02*
X21666666Y-19645295D01*
X21666666Y-19645295D02*
X21666666Y-19740533D01*
X21666666Y-19740533D02*
X21619047Y-19883390D01*
X21619047Y-19883390D02*
X21047619Y-20454819D01*
X21047619Y-20454819D02*
X21666666Y-20454819D01*
X12238095Y-11454819D02*
X12238095Y-12264342D01*
X12238095Y-12264342D02*
X12285714Y-12359580D01*
X12285714Y-12359580D02*
X12333333Y-12407200D01*
X12333333Y-12407200D02*
X12428571Y-12454819D01*
X12428571Y-12454819D02*
X12619047Y-12454819D01*
X12619047Y-12454819D02*
X12714285Y-12407200D01*
X12714285Y-12407200D02*
X12761904Y-12359580D01*
X12761904Y-12359580D02*
X12809523Y-12264342D01*
X12809523Y-12264342D02*
X12809523Y-11454819D01*
X13809523Y-12454819D02*
X13238095Y-12454819D01*
X13523809Y-12454819D02*
X13523809Y-11454819D01*
X13523809Y-11454819D02*
X13428571Y-11597676D01*
X13428571Y-11597676D02*
X13333333Y-11692914D01*
X13333333Y-11692914D02*
X13238095Y-11740533D01*
X35534819Y-46452381D02*
X34534819Y-46452381D01*
X34534819Y-46452381D02*
X34534819Y-46071429D01*
X34534819Y-46071429D02*
X34582438Y-45976191D01*
X34582438Y-45976191D02*
X34630057Y-45928572D01*
X34630057Y-45928572D02*
X34725295Y-45880953D01*
X34725295Y-45880953D02*
X34868152Y-45880953D01*
X34868152Y-45880953D02*
X34963390Y-45928572D01*
X34963390Y-45928572D02*
X35011009Y-45976191D01*
X35011009Y-45976191D02*
X35058628Y-46071429D01*
X35058628Y-46071429D02*
X35058628Y-46452381D01*
X35534819Y-45452381D02*
X34868152Y-45452381D01*
X35058628Y-45452381D02*
X34963390Y-45404762D01*
X34963390Y-45404762D02*
X34915771Y-45357143D01*
X34915771Y-45357143D02*
X34868152Y-45261905D01*
X34868152Y-45261905D02*
X34868152Y-45166667D01*
X35534819Y-44690476D02*
X35487200Y-44785714D01*
X35487200Y-44785714D02*
X35439580Y-44833333D01*
X35439580Y-44833333D02*
X35344342Y-44880952D01*
X35344342Y-44880952D02*
X35058628Y-44880952D01*
X35058628Y-44880952D02*
X34963390Y-44833333D01*
X34963390Y-44833333D02*
X34915771Y-44785714D01*
X34915771Y-44785714D02*
X34868152Y-44690476D01*
X34868152Y-44690476D02*
X34868152Y-44547619D01*
X34868152Y-44547619D02*
X34915771Y-44452381D01*
X34915771Y-44452381D02*
X34963390Y-44404762D01*
X34963390Y-44404762D02*
X35058628Y-44357143D01*
X35058628Y-44357143D02*
X35344342Y-44357143D01*
X35344342Y-44357143D02*
X35439580Y-44404762D01*
X35439580Y-44404762D02*
X35487200Y-44452381D01*
X35487200Y-44452381D02*
X35534819Y-44547619D01*
X35534819Y-44547619D02*
X35534819Y-44690476D01*
X34868152Y-43500000D02*
X35677676Y-43500000D01*
X35677676Y-43500000D02*
X35772914Y-43547619D01*
X35772914Y-43547619D02*
X35820533Y-43595238D01*
X35820533Y-43595238D02*
X35868152Y-43690476D01*
X35868152Y-43690476D02*
X35868152Y-43833333D01*
X35868152Y-43833333D02*
X35820533Y-43928571D01*
X35487200Y-43500000D02*
X35534819Y-43595238D01*
X35534819Y-43595238D02*
X35534819Y-43785714D01*
X35534819Y-43785714D02*
X35487200Y-43880952D01*
X35487200Y-43880952D02*
X35439580Y-43928571D01*
X35439580Y-43928571D02*
X35344342Y-43976190D01*
X35344342Y-43976190D02*
X35058628Y-43976190D01*
X35058628Y-43976190D02*
X34963390Y-43928571D01*
X34963390Y-43928571D02*
X34915771Y-43880952D01*
X34915771Y-43880952D02*
X34868152Y-43785714D01*
X34868152Y-43785714D02*
X34868152Y-43595238D01*
X34868152Y-43595238D02*
X34915771Y-43500000D01*
X35630057Y-43261905D02*
X35630057Y-42500000D01*
X35534819Y-42261904D02*
X34534819Y-42261904D01*
X35011009Y-42261904D02*
X35011009Y-41690476D01*
X35534819Y-41690476D02*
X34534819Y-41690476D01*
X35487200Y-40833333D02*
X35534819Y-40928571D01*
X35534819Y-40928571D02*
X35534819Y-41119047D01*
X35534819Y-41119047D02*
X35487200Y-41214285D01*
X35487200Y-41214285D02*
X35391961Y-41261904D01*
X35391961Y-41261904D02*
X35011009Y-41261904D01*
X35011009Y-41261904D02*
X34915771Y-41214285D01*
X34915771Y-41214285D02*
X34868152Y-41119047D01*
X34868152Y-41119047D02*
X34868152Y-40928571D01*
X34868152Y-40928571D02*
X34915771Y-40833333D01*
X34915771Y-40833333D02*
X35011009Y-40785714D01*
X35011009Y-40785714D02*
X35106247Y-40785714D01*
X35106247Y-40785714D02*
X35201485Y-41261904D01*
X35534819Y-39928571D02*
X35011009Y-39928571D01*
X35011009Y-39928571D02*
X34915771Y-39976190D01*
X34915771Y-39976190D02*
X34868152Y-40071428D01*
X34868152Y-40071428D02*
X34868152Y-40261904D01*
X34868152Y-40261904D02*
X34915771Y-40357142D01*
X35487200Y-39928571D02*
X35534819Y-40023809D01*
X35534819Y-40023809D02*
X35534819Y-40261904D01*
X35534819Y-40261904D02*
X35487200Y-40357142D01*
X35487200Y-40357142D02*
X35391961Y-40404761D01*
X35391961Y-40404761D02*
X35296723Y-40404761D01*
X35296723Y-40404761D02*
X35201485Y-40357142D01*
X35201485Y-40357142D02*
X35153866Y-40261904D01*
X35153866Y-40261904D02*
X35153866Y-40023809D01*
X35153866Y-40023809D02*
X35106247Y-39928571D01*
X35534819Y-39023809D02*
X34534819Y-39023809D01*
X35487200Y-39023809D02*
X35534819Y-39119047D01*
X35534819Y-39119047D02*
X35534819Y-39309523D01*
X35534819Y-39309523D02*
X35487200Y-39404761D01*
X35487200Y-39404761D02*
X35439580Y-39452380D01*
X35439580Y-39452380D02*
X35344342Y-39499999D01*
X35344342Y-39499999D02*
X35058628Y-39499999D01*
X35058628Y-39499999D02*
X34963390Y-39452380D01*
X34963390Y-39452380D02*
X34915771Y-39404761D01*
X34915771Y-39404761D02*
X34868152Y-39309523D01*
X34868152Y-39309523D02*
X34868152Y-39119047D01*
X34868152Y-39119047D02*
X34915771Y-39023809D01*
X35487200Y-38166666D02*
X35534819Y-38261904D01*
X35534819Y-38261904D02*
X35534819Y-38452380D01*
X35534819Y-38452380D02*
X35487200Y-38547618D01*
X35487200Y-38547618D02*
X35391961Y-38595237D01*
X35391961Y-38595237D02*
X35011009Y-38595237D01*
X35011009Y-38595237D02*
X34915771Y-38547618D01*
X34915771Y-38547618D02*
X34868152Y-38452380D01*
X34868152Y-38452380D02*
X34868152Y-38261904D01*
X34868152Y-38261904D02*
X34915771Y-38166666D01*
X34915771Y-38166666D02*
X35011009Y-38119047D01*
X35011009Y-38119047D02*
X35106247Y-38119047D01*
X35106247Y-38119047D02*
X35201485Y-38595237D01*
X35534819Y-37690475D02*
X34868152Y-37690475D01*
X35058628Y-37690475D02*
X34963390Y-37642856D01*
X34963390Y-37642856D02*
X34915771Y-37595237D01*
X34915771Y-37595237D02*
X34868152Y-37499999D01*
X34868152Y-37499999D02*
X34868152Y-37404761D01*
X26016666Y-41454819D02*
X26016666Y-42169104D01*
X26016666Y-42169104D02*
X25969047Y-42311961D01*
X25969047Y-42311961D02*
X25873809Y-42407200D01*
X25873809Y-42407200D02*
X25730952Y-42454819D01*
X25730952Y-42454819D02*
X25635714Y-42454819D01*
X27016666Y-42454819D02*
X26445238Y-42454819D01*
X26730952Y-42454819D02*
X26730952Y-41454819D01*
X26730952Y-41454819D02*
X26635714Y-41597676D01*
X26635714Y-41597676D02*
X26540476Y-41692914D01*
X26540476Y-41692914D02*
X26445238Y-41740533D01*
X36142857Y-34704819D02*
X36142857Y-33704819D01*
X36142857Y-33704819D02*
X36476190Y-34419104D01*
X36476190Y-34419104D02*
X36809523Y-33704819D01*
X36809523Y-33704819D02*
X36809523Y-34704819D01*
X37238095Y-34419104D02*
X37714285Y-34419104D01*
X37142857Y-34704819D02*
X37476190Y-33704819D01*
X37476190Y-33704819D02*
X37809523Y-34704819D01*
X38047619Y-33704819D02*
X38714285Y-34704819D01*
X38714285Y-33704819D02*
X38047619Y-34704819D01*
X39095238Y-34323866D02*
X39857143Y-34323866D01*
X40333333Y-34704819D02*
X40333333Y-33704819D01*
X40333333Y-33704819D02*
X40666666Y-34419104D01*
X40666666Y-34419104D02*
X40999999Y-33704819D01*
X40999999Y-33704819D02*
X40999999Y-34704819D01*
X41999999Y-34704819D02*
X41428571Y-34704819D01*
X41714285Y-34704819D02*
X41714285Y-33704819D01*
X41714285Y-33704819D02*
X41619047Y-33847676D01*
X41619047Y-33847676D02*
X41523809Y-33942914D01*
X41523809Y-33942914D02*
X41428571Y-33990533D01*
X42619047Y-33704819D02*
X42714285Y-33704819D01*
X42714285Y-33704819D02*
X42809523Y-33752438D01*
X42809523Y-33752438D02*
X42857142Y-33800057D01*
X42857142Y-33800057D02*
X42904761Y-33895295D01*
X42904761Y-33895295D02*
X42952380Y-34085771D01*
X42952380Y-34085771D02*
X42952380Y-34323866D01*
X42952380Y-34323866D02*
X42904761Y-34514342D01*
X42904761Y-34514342D02*
X42857142Y-34609580D01*
X42857142Y-34609580D02*
X42809523Y-34657200D01*
X42809523Y-34657200D02*
X42714285Y-34704819D01*
X42714285Y-34704819D02*
X42619047Y-34704819D01*
X42619047Y-34704819D02*
X42523809Y-34657200D01*
X42523809Y-34657200D02*
X42476190Y-34609580D01*
X42476190Y-34609580D02*
X42428571Y-34514342D01*
X42428571Y-34514342D02*
X42380952Y-34323866D01*
X42380952Y-34323866D02*
X42380952Y-34085771D01*
X42380952Y-34085771D02*
X42428571Y-33895295D01*
X42428571Y-33895295D02*
X42476190Y-33800057D01*
X42476190Y-33800057D02*
X42523809Y-33752438D01*
X42523809Y-33752438D02*
X42619047Y-33704819D01*
X43333333Y-34657200D02*
X43476190Y-34704819D01*
X43476190Y-34704819D02*
X43714285Y-34704819D01*
X43714285Y-34704819D02*
X43809523Y-34657200D01*
X43809523Y-34657200D02*
X43857142Y-34609580D01*
X43857142Y-34609580D02*
X43904761Y-34514342D01*
X43904761Y-34514342D02*
X43904761Y-34419104D01*
X43904761Y-34419104D02*
X43857142Y-34323866D01*
X43857142Y-34323866D02*
X43809523Y-34276247D01*
X43809523Y-34276247D02*
X43714285Y-34228628D01*
X43714285Y-34228628D02*
X43523809Y-34181009D01*
X43523809Y-34181009D02*
X43428571Y-34133390D01*
X43428571Y-34133390D02*
X43380952Y-34085771D01*
X43380952Y-34085771D02*
X43333333Y-33990533D01*
X43333333Y-33990533D02*
X43333333Y-33895295D01*
X43333333Y-33895295D02*
X43380952Y-33800057D01*
X43380952Y-33800057D02*
X43428571Y-33752438D01*
X43428571Y-33752438D02*
X43523809Y-33704819D01*
X43523809Y-33704819D02*
X43761904Y-33704819D01*
X43761904Y-33704819D02*
X43904761Y-33752438D01*
X39238095Y-27454819D02*
X39238095Y-28264342D01*
X39238095Y-28264342D02*
X39285714Y-28359580D01*
X39285714Y-28359580D02*
X39333333Y-28407200D01*
X39333333Y-28407200D02*
X39428571Y-28454819D01*
X39428571Y-28454819D02*
X39619047Y-28454819D01*
X39619047Y-28454819D02*
X39714285Y-28407200D01*
X39714285Y-28407200D02*
X39761904Y-28359580D01*
X39761904Y-28359580D02*
X39809523Y-28264342D01*
X39809523Y-28264342D02*
X39809523Y-27454819D01*
X40190476Y-27454819D02*
X40809523Y-27454819D01*
X40809523Y-27454819D02*
X40476190Y-27835771D01*
X40476190Y-27835771D02*
X40619047Y-27835771D01*
X40619047Y-27835771D02*
X40714285Y-27883390D01*
X40714285Y-27883390D02*
X40761904Y-27931009D01*
X40761904Y-27931009D02*
X40809523Y-28026247D01*
X40809523Y-28026247D02*
X40809523Y-28264342D01*
X40809523Y-28264342D02*
X40761904Y-28359580D01*
X40761904Y-28359580D02*
X40714285Y-28407200D01*
X40714285Y-28407200D02*
X40619047Y-28454819D01*
X40619047Y-28454819D02*
X40333333Y-28454819D01*
X40333333Y-28454819D02*
X40238095Y-28407200D01*
X40238095Y-28407200D02*
X40190476Y-28359580D01*
D15*
%TO.C,ANT1*%
X49700000Y-23300000D02*
X49700000Y-20700000D01*
X51000000Y-21000000D02*
X50700000Y-20700000D01*
X51300000Y-20700000D02*
X51000000Y-21000000D01*
X52000000Y-20700000D02*
X49700000Y-20700000D01*
X52300000Y-21000000D02*
X52000000Y-20700000D01*
X52300000Y-23300000D02*
X49700000Y-23300000D01*
X52300000Y-23300000D02*
X52300000Y-21000000D01*
X51900000Y-22000000D02*
G75*
G02*
X50100000Y-22000000I-900000J0D01*
G01*
X50100000Y-22000000D02*
G75*
G02*
X51900000Y-22000000I900000J0D01*
G01*
X51200000Y-22000000D02*
G75*
G02*
X50800000Y-22000000I-200000J0D01*
G01*
X50800000Y-22000000D02*
G75*
G02*
X51200000Y-22000000I200000J0D01*
G01*
X51125000Y-22000000D02*
G75*
G02*
X50875000Y-22000000I-125000J0D01*
G01*
X50875000Y-22000000D02*
G75*
G02*
X51125000Y-22000000I125000J0D01*
G01*
X51050000Y-22000000D02*
G75*
G02*
X50950000Y-22000000I-50000J0D01*
G01*
X50950000Y-22000000D02*
G75*
G02*
X51050000Y-22000000I50000J0D01*
G01*
%TO.C,R_LED*%
X29475000Y-34730000D02*
X30525000Y-34730000D01*
X30525000Y-35270000D01*
X29475000Y-35270000D01*
X29475000Y-34730000D01*
%TO.C,R_DIV1*%
X2730000Y-36525000D02*
X3270000Y-36525000D01*
X3270000Y-35475000D01*
X2730000Y-35475000D01*
X2730000Y-36525000D01*
%TO.C,U2*%
X30000000Y-19000000D02*
X30000000Y-4000000D01*
X30000000Y-19000000D02*
X46000000Y-19000000D01*
X31000000Y-3000000D02*
X30000000Y-4000000D01*
X31000000Y-3000000D02*
X46000000Y-3000000D01*
X46000000Y-19000000D02*
X46000000Y-3000000D01*
%TO.C,U4*%
X18800000Y-29450000D02*
X17200000Y-29450000D01*
X17200000Y-26950000D01*
X17600000Y-26550000D01*
X18800000Y-26550000D01*
X18800000Y-29450000D01*
%TO.C,U5*%
X22750000Y-34500000D02*
X23500000Y-33750000D01*
X22750000Y-36250000D02*
X22750000Y-34500000D01*
X23500000Y-33750000D02*
X25250000Y-33750000D01*
X25250000Y-33750000D02*
X25250000Y-36250000D01*
X25250000Y-36250000D02*
X22750000Y-36250000D01*
%TO.C,D1*%
X22600000Y-19100000D02*
X25400000Y-19100000D01*
X22600000Y-20900000D02*
X22600000Y-19100000D01*
X23250000Y-20000000D02*
X23650000Y-20000000D01*
X23650000Y-20000000D02*
X23650000Y-19450000D01*
X23650000Y-20000000D02*
X23650000Y-20550000D01*
X23650000Y-20000000D02*
X24250000Y-19600000D01*
X24250000Y-19600000D02*
X24250000Y-20400000D01*
X24250000Y-20000000D02*
X24750000Y-20000000D01*
X24250000Y-20400000D02*
X23650000Y-20000000D01*
X25400000Y-19100000D02*
X25400000Y-20900000D01*
X25400000Y-20900000D02*
X22600000Y-20900000D01*
%TO.C,C_CAP*%
X4211139Y-25812500D02*
X5211139Y-25812500D01*
X4711139Y-25312500D02*
X4711139Y-26312500D01*
X13500000Y-28000000D02*
G75*
G02*
X3500000Y-28000000I-5000000J0D01*
G01*
X3500000Y-28000000D02*
G75*
G02*
X13500000Y-28000000I5000000J0D01*
G01*
%TO.C,C2*%
X24200000Y-8600000D02*
X25800000Y-8600000D01*
X25800000Y-9400000D01*
X24200000Y-9400000D01*
X24200000Y-8600000D01*
%TO.C,J2*%
X38730000Y-40730000D02*
X48890000Y-40730000D01*
X38730000Y-42635000D02*
X38730000Y-40730000D01*
X39365000Y-43270000D02*
X38730000Y-42635000D01*
X48890000Y-40730000D02*
X48890000Y-43270000D01*
X48890000Y-43270000D02*
X39365000Y-43270000D01*
%TO.C,R_PD*%
X10475000Y-35730000D02*
X11525000Y-35730000D01*
X11525000Y-36270000D01*
X10475000Y-36270000D01*
X10475000Y-35730000D01*
%TO.C,C3*%
X21500000Y-24750000D02*
X22500000Y-24750000D01*
X22500000Y-25250000D01*
X21500000Y-25250000D01*
X21500000Y-24750000D01*
%TO.C,SOLAR*%
X2730000Y-40730000D02*
X7810000Y-40730000D01*
X2730000Y-42635000D02*
X2730000Y-40730000D01*
X3365000Y-43270000D02*
X2730000Y-42635000D01*
X7810000Y-40730000D02*
X7810000Y-43270000D01*
X7810000Y-43270000D02*
X3365000Y-43270000D01*
%TO.C,C1*%
X15200000Y-24600000D02*
X16800000Y-24600000D01*
X16800000Y-25400000D01*
X15200000Y-25400000D01*
X15200000Y-24600000D01*
%TO.C,LED1*%
X35200000Y-34900000D02*
X35200000Y-35400000D01*
X35200000Y-35400000D02*
X36800000Y-35400000D01*
X35500000Y-34600000D02*
X35200000Y-34900000D01*
X36800000Y-34600000D02*
X35500000Y-34600000D01*
X36800000Y-35400000D02*
X36800000Y-34600000D01*
%TO.C,R_DIV2*%
X6730000Y-36525000D02*
X7270000Y-36525000D01*
X7270000Y-35475000D01*
X6730000Y-35475000D01*
X6730000Y-36525000D01*
%TO.C,C4*%
X47500000Y-10750000D02*
X48500000Y-10750000D01*
X48500000Y-11250000D01*
X47500000Y-11250000D01*
X47500000Y-10750000D01*
%TO.C,U1*%
X4000000Y1100000D02*
X4000000Y-5500000D01*
X4000000Y1100000D02*
X22000000Y1100000D01*
X4000000Y-5500000D02*
X4500000Y-6000000D01*
X4000000Y-6500000D02*
X4000000Y-18900000D01*
X4000000Y-18900000D02*
X22000000Y-18900000D01*
X4500000Y-6000000D02*
X4000000Y-6500000D01*
X22000000Y-18900000D02*
X22000000Y1100000D01*
%TO.C,J1*%
X18730000Y-40730000D02*
X33970000Y-40730000D01*
X18730000Y-42635000D02*
X18730000Y-40730000D01*
X19365000Y-43270000D02*
X18730000Y-42635000D01*
X33970000Y-40730000D02*
X33970000Y-43270000D01*
X33970000Y-43270000D02*
X19365000Y-43270000D01*
%TO.C,U3*%
X35150000Y-23950000D02*
X35150000Y-33050000D01*
X35150000Y-33050000D02*
X44850000Y-33050000D01*
X36150000Y-22950000D02*
X35150000Y-23950000D01*
X36150000Y-22950000D02*
X44850000Y-22950000D01*
X44850000Y-22950000D02*
X44850000Y-33050000D01*
%TD*%
M02*
